0
SECTION
2
HEADER
9
$ACADVER
1
AC1009
9
$INSBASE
10
0
20
0
30
0
9
$EXTMIN
10
0
20
0
30
0
9
$EXTMAX
10
520
20
560
30
0
0
ENDSEC
0
SECTION
2
TABLES
0
TABLE
2
LAYER
70
4
0
LAYER
2
0
70
0
62
7
6
CONTINUOUS
0
LAYER
2
OUTLINE
70
0
62
7
6
CONTINUOUS
0
LAYER
2
UNIT_NUMBER
70
0
62
94
6
CONTINUOUS
0
LAYER
2
LED_GROOVE
70
0
62
44
6
CONTINUOUS
0
ENDTAB
0
ENDSEC
0
SECTION
2
ENTITIES
0
POLYLINE
8
OUTLINE
66
1
70
1
10
0
20
0
30
0
0
VERTEX
8
OUTLINE
10
0
20
0
30
0
0
VERTEX
8
OUTLINE
10
520
20
0
30
0
0
VERTEX
8
OUTLINE
10
520
20
560
30
0
0
VERTEX
8
OUTLINE
10
0
20
560
30
0
0
SEQEND
8
OUTLINE
0
POLYLINE
8
LED_GROOVE
66
1
70
1
10
0
20
0
30
0
0
VERTEX
8
LED_GROOVE
10
428
20
0
30
0
0
VERTEX
8
LED_GROOVE
10
440
20
0
30
0
0
VERTEX
8
LED_GROOVE
10
440
20
560
30
0
0
VERTEX
8
LED_GROOVE
10
428
20
560
30
0
0
SEQEND
8
LED_GROOVE
0
TEXT
8
UNIT_NUMBER
10
260
20
305
30
0
40
20
1
01 SHELF-1
72
1
11
260
21
305
31
0
73
2
0
TEXT
8
UNIT_NUMBER
10
260
20
280
30
0
40
20
1
560x520
72
1
11
260
21
280
31
0
73
2
0
TEXT
8
UNIT_NUMBER
10
260
20
255
30
0
40
20
1
(ADJ)
72
1
11
260
21
255
31
0
73
2
0
ENDSEC
0
EOF
