0
SECTION
2
HEADER
9
$ACADVER
1
AC1009
9
$INSBASE
10
0
20
0
30
0
9
$EXTMIN
10
-6
20
-6
30
0
9
$EXTMAX
10
1206
20
1806
30
0
0
ENDSEC
0
SECTION
2
TABLES
0
TABLE
2
LAYER
70
7
0
LAYER
2
0
70
0
62
7
6
CONTINUOUS
0
LAYER
2
OUTLINE
70
0
62
7
6
CONTINUOUS
0
LAYER
2
PUZZLE_SOCKET
70
0
62
1
6
CONTINUOUS
0
LAYER
2
PUZZLE_HOLES_7_5MM
70
0
62
3
6
CONTINUOUS
0
LAYER
2
SCREWS_3MM
70
0
62
4
6
CONTINUOUS
0
LAYER
2
UNIT_NUMBER
70
0
62
94
6
CONTINUOUS
0
LAYER
2
SHOP_JIG
70
0
62
30
6
CONTINUOUS
0
ENDTAB
0
ENDSEC
0
SECTION
2
ENTITIES
0
POLYLINE
8
OUTLINE
66
1
70
1
10
0
20
0
30
0
0
VERTEX
8
OUTLINE
10
0
20
0
30
0
0
VERTEX
8
OUTLINE
10
1200
20
0
30
0
0
VERTEX
8
OUTLINE
10
1200
20
1800
30
0
0
VERTEX
8
OUTLINE
10
0
20
1800
30
0
0
SEQEND
8
OUTLINE
0
POLYLINE
8
PUZZLE_SOCKET
66
1
70
1
10
0
20
0
30
0
0
VERTEX
8
PUZZLE_SOCKET
10
-6
20
69.5
30
0
0
VERTEX
8
PUZZLE_SOCKET
10
9
20
69.5
30
0
0
VERTEX
8
PUZZLE_SOCKET
10
9
20
120.5
30
0
0
VERTEX
8
PUZZLE_SOCKET
10
-6
20
120.5
30
0
0
SEQEND
8
PUZZLE_SOCKET
0
POLYLINE
8
PUZZLE_SOCKET
66
1
70
1
10
0
20
0
30
0
0
VERTEX
8
PUZZLE_SOCKET
10
-6
20
874.5
30
0
0
VERTEX
8
PUZZLE_SOCKET
10
9
20
874.5
30
0
0
VERTEX
8
PUZZLE_SOCKET
10
9
20
925.5
30
0
0
VERTEX
8
PUZZLE_SOCKET
10
-6
20
925.5
30
0
0
SEQEND
8
PUZZLE_SOCKET
0
POLYLINE
8
PUZZLE_SOCKET
66
1
70
1
10
0
20
0
30
0
0
VERTEX
8
PUZZLE_SOCKET
10
-6
20
1679.5
30
0
0
VERTEX
8
PUZZLE_SOCKET
10
9
20
1679.5
30
0
0
VERTEX
8
PUZZLE_SOCKET
10
9
20
1730.5
30
0
0
VERTEX
8
PUZZLE_SOCKET
10
-6
20
1730.5
30
0
0
SEQEND
8
PUZZLE_SOCKET
0
POLYLINE
8
PUZZLE_SOCKET
66
1
70
1
10
0
20
0
30
0
0
VERTEX
8
PUZZLE_SOCKET
10
1191
20
69.5
30
0
0
VERTEX
8
PUZZLE_SOCKET
10
1206
20
69.5
30
0
0
VERTEX
8
PUZZLE_SOCKET
10
1206
20
120.5
30
0
0
VERTEX
8
PUZZLE_SOCKET
10
1191
20
120.5
30
0
0
SEQEND
8
PUZZLE_SOCKET
0
POLYLINE
8
PUZZLE_SOCKET
66
1
70
1
10
0
20
0
30
0
0
VERTEX
8
PUZZLE_SOCKET
10
1191
20
874.5
30
0
0
VERTEX
8
PUZZLE_SOCKET
10
1206
20
874.5
30
0
0
VERTEX
8
PUZZLE_SOCKET
10
1206
20
925.5
30
0
0
VERTEX
8
PUZZLE_SOCKET
10
1191
20
925.5
30
0
0
SEQEND
8
PUZZLE_SOCKET
0
POLYLINE
8
PUZZLE_SOCKET
66
1
70
1
10
0
20
0
30
0
0
VERTEX
8
PUZZLE_SOCKET
10
1191
20
1679.5
30
0
0
VERTEX
8
PUZZLE_SOCKET
10
1206
20
1679.5
30
0
0
VERTEX
8
PUZZLE_SOCKET
10
1206
20
1730.5
30
0
0
VERTEX
8
PUZZLE_SOCKET
10
1191
20
1730.5
30
0
0
SEQEND
8
PUZZLE_SOCKET
0
POLYLINE
8
PUZZLE_SOCKET
66
1
70
1
10
0
20
0
30
0
0
VERTEX
8
PUZZLE_SOCKET
10
87.5
20
1791
30
0
0
VERTEX
8
PUZZLE_SOCKET
10
138.5
20
1791
30
0
0
VERTEX
8
PUZZLE_SOCKET
10
138.5
20
1806
30
0
0
VERTEX
8
PUZZLE_SOCKET
10
87.5
20
1806
30
0
0
SEQEND
8
PUZZLE_SOCKET
0
POLYLINE
8
PUZZLE_SOCKET
66
1
70
1
10
0
20
0
30
0
0
VERTEX
8
PUZZLE_SOCKET
10
1061.5
20
1791
30
0
0
VERTEX
8
PUZZLE_SOCKET
10
1112.5
20
1791
30
0
0
VERTEX
8
PUZZLE_SOCKET
10
1112.5
20
1806
30
0
0
VERTEX
8
PUZZLE_SOCKET
10
1061.5
20
1806
30
0
0
SEQEND
8
PUZZLE_SOCKET
0
POLYLINE
8
PUZZLE_SOCKET
66
1
70
1
10
0
20
0
30
0
0
VERTEX
8
PUZZLE_SOCKET
10
87.5
20
-6
30
0
0
VERTEX
8
PUZZLE_SOCKET
10
138.5
20
-6
30
0
0
VERTEX
8
PUZZLE_SOCKET
10
138.5
20
9
30
0
0
VERTEX
8
PUZZLE_SOCKET
10
87.5
20
9
30
0
0
SEQEND
8
PUZZLE_SOCKET
0
POLYLINE
8
PUZZLE_SOCKET
66
1
70
1
10
0
20
0
30
0
0
VERTEX
8
PUZZLE_SOCKET
10
1061.5
20
-6
30
0
0
VERTEX
8
PUZZLE_SOCKET
10
1112.5
20
-6
30
0
0
VERTEX
8
PUZZLE_SOCKET
10
1112.5
20
9
30
0
0
VERTEX
8
PUZZLE_SOCKET
10
1061.5
20
9
30
0
0
SEQEND
8
PUZZLE_SOCKET
0
POLYLINE
8
SHOP_JIG
66
1
70
1
10
0
20
0
30
0
0
VERTEX
8
SHOP_JIG
10
120.7208
20
181.0812
30
0
0
VERTEX
8
SHOP_JIG
10
539.7133
20
181.0812
30
0
0
VERTEX
8
SHOP_JIG
10
539.7133
20
630.2171
30
0
0
VERTEX
8
SHOP_JIG
10
120.7208
20
630.2171
30
0
0
SEQEND
8
SHOP_JIG
0
CIRCLE
8
SHOP_JIG
10
841.1468
20
449.357
30
0
40
177.8457
0
ARC
8
SHOP_JIG
10
420.6471
20
1180.8355
30
0
40
260.2419
50
337.0483
51
202.9517
0
CIRCLE
8
PUZZLE_HOLES_7_5MM
10
8
20
70.5
30
0
40
3.75
0
CIRCLE
8
PUZZLE_HOLES_7_5MM
10
8
20
119.5
30
0
40
3.75
0
CIRCLE
8
PUZZLE_HOLES_7_5MM
10
8
20
875.5
30
0
40
3.75
0
CIRCLE
8
PUZZLE_HOLES_7_5MM
10
8
20
924.5
30
0
40
3.75
0
CIRCLE
8
PUZZLE_HOLES_7_5MM
10
8
20
1680.5
30
0
40
3.75
0
CIRCLE
8
PUZZLE_HOLES_7_5MM
10
8
20
1729.5
30
0
40
3.75
0
CIRCLE
8
PUZZLE_HOLES_7_5MM
10
1192
20
70.5
30
0
40
3.75
0
CIRCLE
8
PUZZLE_HOLES_7_5MM
10
1192
20
119.5
30
0
40
3.75
0
CIRCLE
8
PUZZLE_HOLES_7_5MM
10
1192
20
875.5
30
0
40
3.75
0
CIRCLE
8
PUZZLE_HOLES_7_5MM
10
1192
20
924.5
30
0
40
3.75
0
CIRCLE
8
PUZZLE_HOLES_7_5MM
10
1192
20
1680.5
30
0
40
3.75
0
CIRCLE
8
PUZZLE_HOLES_7_5MM
10
1192
20
1729.5
30
0
40
3.75
0
CIRCLE
8
PUZZLE_HOLES_7_5MM
10
88.5
20
1792
30
0
40
3.75
0
CIRCLE
8
PUZZLE_HOLES_7_5MM
10
137.5
20
1792
30
0
40
3.75
0
CIRCLE
8
PUZZLE_HOLES_7_5MM
10
1062.5
20
1792
30
0
40
3.75
0
CIRCLE
8
PUZZLE_HOLES_7_5MM
10
1111.5
20
1792
30
0
40
3.75
0
CIRCLE
8
PUZZLE_HOLES_7_5MM
10
88.5
20
8
30
0
40
3.75
0
CIRCLE
8
PUZZLE_HOLES_7_5MM
10
137.5
20
8
30
0
40
3.75
0
CIRCLE
8
PUZZLE_HOLES_7_5MM
10
1062.5
20
8
30
0
40
3.75
0
CIRCLE
8
PUZZLE_HOLES_7_5MM
10
1111.5
20
8
30
0
40
3.75
0
CIRCLE
8
SCREWS_3MM
10
9
20
50
30
0
40
1.5
0
CIRCLE
8
SCREWS_3MM
10
1191
20
50
30
0
40
1.5
0
CIRCLE
8
SCREWS_3MM
10
9
20
497.5
30
0
40
1.5
0
CIRCLE
8
SCREWS_3MM
10
1191
20
497.5
30
0
40
1.5
0
CIRCLE
8
SCREWS_3MM
10
9
20
1302.5
30
0
40
1.5
0
CIRCLE
8
SCREWS_3MM
10
1191
20
1302.5
30
0
40
1.5
0
CIRCLE
8
SCREWS_3MM
10
9
20
1750
30
0
40
1.5
0
CIRCLE
8
SCREWS_3MM
10
1191
20
1750
30
0
40
1.5
0
CIRCLE
8
SCREWS_3MM
10
68
20
1791
30
0
40
1.5
0
CIRCLE
8
SCREWS_3MM
10
68
20
9
30
0
40
1.5
0
CIRCLE
8
SCREWS_3MM
10
600
20
1791
30
0
40
1.5
0
CIRCLE
8
SCREWS_3MM
10
600
20
9
30
0
40
1.5
0
CIRCLE
8
SCREWS_3MM
10
1132
20
1791
30
0
40
1.5
0
CIRCLE
8
SCREWS_3MM
10
1132
20
9
30
0
40
1.5
0
TEXT
8
UNIT_NUMBER
10
600
20
912.5
30
0
40
20
1
W01 BACK
72
1
11
600
21
912.5
31
0
73
2
0
TEXT
8
UNIT_NUMBER
10
600
20
887.5
30
0
40
20
1
1200x1800
72
1
11
600
21
887.5
31
0
73
2
0
ENDSEC
0
EOF
