0
SECTION
2
HEADER
9
$ACADVER
1
AC1009
9
$INSBASE
10
0
20
0
30
0
9
$EXTMIN
10
0
20
0
30
0
9
$EXTMAX
10
3194
20
1200
30
0
0
ENDSEC
0
SECTION
2
TABLES
0
TABLE
2
LAYER
70
7
0
LAYER
2
0
70
0
62
7
6
CONTINUOUS
0
LAYER
2
OUTLINE
70
0
62
7
6
CONTINUOUS
0
LAYER
2
PUZZLE_SOCKET
70
0
62
1
6
CONTINUOUS
0
LAYER
2
PUZZLE_DOG_BONES
70
0
62
2
6
CONTINUOUS
0
LAYER
2
PUZZLE_HOLES_7_5MM
70
0
62
3
6
CONTINUOUS
0
LAYER
2
SCREWS_3MM
70
0
62
4
6
CONTINUOUS
0
LAYER
2
UNIT_NUMBER
70
0
62
94
6
CONTINUOUS
0
ENDTAB
0
ENDSEC
0
SECTION
2
ENTITIES
0
POLYLINE
8
OUTLINE
66
1
70
1
10
0
20
0
30
0
0
VERTEX
8
OUTLINE
10
0
20
424
30
0
0
VERTEX
8
OUTLINE
10
540
20
424
30
0
0
VERTEX
8
OUTLINE
10
540
20
494
30
0
0
VERTEX
8
OUTLINE
10
540
20
500
30
0
0
VERTEX
8
OUTLINE
10
553
20
500
30
0
0
VERTEX
8
OUTLINE
10
553
20
494
30
0
0
VERTEX
8
OUTLINE
10
558
20
494
30
0
0
VERTEX
8
OUTLINE
10
558
20
544
30
0
0
VERTEX
8
OUTLINE
10
553
20
544
30
0
0
VERTEX
8
OUTLINE
10
553
20
538
30
0
0
VERTEX
8
OUTLINE
10
540
20
538
30
0
0
VERTEX
8
OUTLINE
10
540
20
544
30
0
0
VERTEX
8
OUTLINE
10
540
20
784
30
0
0
VERTEX
8
OUTLINE
10
540
20
790
30
0
0
VERTEX
8
OUTLINE
10
553
20
790
30
0
0
VERTEX
8
OUTLINE
10
553
20
784
30
0
0
VERTEX
8
OUTLINE
10
558
20
784
30
0
0
VERTEX
8
OUTLINE
10
558
20
834
30
0
0
VERTEX
8
OUTLINE
10
553
20
834
30
0
0
VERTEX
8
OUTLINE
10
553
20
828
30
0
0
VERTEX
8
OUTLINE
10
540
20
828
30
0
0
VERTEX
8
OUTLINE
10
540
20
834
30
0
0
VERTEX
8
OUTLINE
10
540
20
1074
30
0
0
VERTEX
8
OUTLINE
10
540
20
1080
30
0
0
VERTEX
8
OUTLINE
10
553
20
1080
30
0
0
VERTEX
8
OUTLINE
10
553
20
1074
30
0
0
VERTEX
8
OUTLINE
10
558
20
1074
30
0
0
VERTEX
8
OUTLINE
10
558
20
1124
30
0
0
VERTEX
8
OUTLINE
10
553
20
1124
30
0
0
VERTEX
8
OUTLINE
10
553
20
1118
30
0
0
VERTEX
8
OUTLINE
10
540
20
1118
30
0
0
VERTEX
8
OUTLINE
10
540
20
1124
30
0
0
VERTEX
8
OUTLINE
10
540
20
1194
30
0
0
VERTEX
8
OUTLINE
10
0
20
1194
30
0
0
SEQEND
8
OUTLINE
0
POLYLINE
8
PUZZLE_DOG_BONES
66
1
70
1
10
0
20
0
30
0
0
VERTEX
8
PUZZLE_DOG_BONES
10
540
20
489
30
0
0
VERTEX
8
PUZZLE_DOG_BONES
10
558
20
489
30
0
0
VERTEX
8
PUZZLE_DOG_BONES
10
558
20
549
30
0
0
VERTEX
8
PUZZLE_DOG_BONES
10
540
20
549
30
0
0
SEQEND
8
PUZZLE_DOG_BONES
0
POLYLINE
8
PUZZLE_DOG_BONES
66
1
70
1
10
0
20
0
30
0
0
VERTEX
8
PUZZLE_DOG_BONES
10
540
20
779
30
0
0
VERTEX
8
PUZZLE_DOG_BONES
10
558
20
779
30
0
0
VERTEX
8
PUZZLE_DOG_BONES
10
558
20
839
30
0
0
VERTEX
8
PUZZLE_DOG_BONES
10
540
20
839
30
0
0
SEQEND
8
PUZZLE_DOG_BONES
0
POLYLINE
8
PUZZLE_DOG_BONES
66
1
70
1
10
0
20
0
30
0
0
VERTEX
8
PUZZLE_DOG_BONES
10
540
20
1069
30
0
0
VERTEX
8
PUZZLE_DOG_BONES
10
558
20
1069
30
0
0
VERTEX
8
PUZZLE_DOG_BONES
10
558
20
1129
30
0
0
VERTEX
8
PUZZLE_DOG_BONES
10
540
20
1129
30
0
0
SEQEND
8
PUZZLE_DOG_BONES
0
POLYLINE
8
PUZZLE_SOCKET
66
1
70
1
10
0
20
0
30
0
0
VERTEX
8
PUZZLE_SOCKET
10
69.5
20
1185
30
0
0
VERTEX
8
PUZZLE_SOCKET
10
120.5
20
1185
30
0
0
VERTEX
8
PUZZLE_SOCKET
10
120.5
20
1200
30
0
0
VERTEX
8
PUZZLE_SOCKET
10
69.5
20
1200
30
0
0
SEQEND
8
PUZZLE_SOCKET
0
POLYLINE
8
PUZZLE_SOCKET
66
1
70
1
10
0
20
0
30
0
0
VERTEX
8
PUZZLE_SOCKET
10
69.5
20
418
30
0
0
VERTEX
8
PUZZLE_SOCKET
10
120.5
20
418
30
0
0
VERTEX
8
PUZZLE_SOCKET
10
120.5
20
433
30
0
0
VERTEX
8
PUZZLE_SOCKET
10
69.5
20
433
30
0
0
SEQEND
8
PUZZLE_SOCKET
0
POLYLINE
8
PUZZLE_SOCKET
66
1
70
1
10
0
20
0
30
0
0
VERTEX
8
PUZZLE_SOCKET
10
419.5
20
1185
30
0
0
VERTEX
8
PUZZLE_SOCKET
10
470.5
20
1185
30
0
0
VERTEX
8
PUZZLE_SOCKET
10
470.5
20
1200
30
0
0
VERTEX
8
PUZZLE_SOCKET
10
419.5
20
1200
30
0
0
SEQEND
8
PUZZLE_SOCKET
0
POLYLINE
8
PUZZLE_SOCKET
66
1
70
1
10
0
20
0
30
0
0
VERTEX
8
PUZZLE_SOCKET
10
419.5
20
418
30
0
0
VERTEX
8
PUZZLE_SOCKET
10
470.5
20
418
30
0
0
VERTEX
8
PUZZLE_SOCKET
10
470.5
20
433
30
0
0
VERTEX
8
PUZZLE_SOCKET
10
419.5
20
433
30
0
0
SEQEND
8
PUZZLE_SOCKET
0
CIRCLE
8
PUZZLE_HOLES_7_5MM
10
70.5
20
1186
30
0
40
3.75
0
CIRCLE
8
PUZZLE_HOLES_7_5MM
10
119.5
20
1186
30
0
40
3.75
0
CIRCLE
8
PUZZLE_HOLES_7_5MM
10
70.5
20
432
30
0
40
3.75
0
CIRCLE
8
PUZZLE_HOLES_7_5MM
10
119.5
20
432
30
0
40
3.75
0
CIRCLE
8
PUZZLE_HOLES_7_5MM
10
420.5
20
1186
30
0
40
3.75
0
CIRCLE
8
PUZZLE_HOLES_7_5MM
10
469.5
20
1186
30
0
40
3.75
0
CIRCLE
8
PUZZLE_HOLES_7_5MM
10
420.5
20
432
30
0
40
3.75
0
CIRCLE
8
PUZZLE_HOLES_7_5MM
10
469.5
20
432
30
0
40
3.75
0
CIRCLE
8
SCREWS_3MM
10
50
20
1185
30
0
40
1.5
0
CIRCLE
8
SCREWS_3MM
10
50
20
433
30
0
40
1.5
0
CIRCLE
8
SCREWS_3MM
10
270
20
1185
30
0
40
1.5
0
CIRCLE
8
SCREWS_3MM
10
270
20
433
30
0
40
1.5
0
CIRCLE
8
SCREWS_3MM
10
490
20
1185
30
0
40
1.5
0
CIRCLE
8
SCREWS_3MM
10
490
20
433
30
0
40
1.5
0
TEXT
8
UNIT_NUMBER
10
270
20
821.5
30
0
40
20
1
01 BUL
72
1
11
270
21
821.5
31
0
73
2
0
TEXT
8
UNIT_NUMBER
10
270
20
796.5
30
0
40
20
1
540x770
72
1
11
270
21
796.5
31
0
73
2
0
POLYLINE
8
OUTLINE
66
1
70
1
10
0
20
0
30
0
0
VERTEX
8
OUTLINE
10
626
20
424
30
0
0
VERTEX
8
OUTLINE
10
1166
20
424
30
0
0
VERTEX
8
OUTLINE
10
1166
20
1194
30
0
0
VERTEX
8
OUTLINE
10
626
20
1194
30
0
0
VERTEX
8
OUTLINE
10
626
20
1124
30
0
0
VERTEX
8
OUTLINE
10
626
20
1118
30
0
0
VERTEX
8
OUTLINE
10
613
20
1118
30
0
0
VERTEX
8
OUTLINE
10
613
20
1124
30
0
0
VERTEX
8
OUTLINE
10
608
20
1124
30
0
0
VERTEX
8
OUTLINE
10
608
20
1074
30
0
0
VERTEX
8
OUTLINE
10
613
20
1074
30
0
0
VERTEX
8
OUTLINE
10
613
20
1080
30
0
0
VERTEX
8
OUTLINE
10
626
20
1080
30
0
0
VERTEX
8
OUTLINE
10
626
20
1074
30
0
0
VERTEX
8
OUTLINE
10
626
20
834
30
0
0
VERTEX
8
OUTLINE
10
626
20
828
30
0
0
VERTEX
8
OUTLINE
10
613
20
828
30
0
0
VERTEX
8
OUTLINE
10
613
20
834
30
0
0
VERTEX
8
OUTLINE
10
608
20
834
30
0
0
VERTEX
8
OUTLINE
10
608
20
784
30
0
0
VERTEX
8
OUTLINE
10
613
20
784
30
0
0
VERTEX
8
OUTLINE
10
613
20
790
30
0
0
VERTEX
8
OUTLINE
10
626
20
790
30
0
0
VERTEX
8
OUTLINE
10
626
20
784
30
0
0
VERTEX
8
OUTLINE
10
626
20
544
30
0
0
VERTEX
8
OUTLINE
10
626
20
538
30
0
0
VERTEX
8
OUTLINE
10
613
20
538
30
0
0
VERTEX
8
OUTLINE
10
613
20
544
30
0
0
VERTEX
8
OUTLINE
10
608
20
544
30
0
0
VERTEX
8
OUTLINE
10
608
20
494
30
0
0
VERTEX
8
OUTLINE
10
613
20
494
30
0
0
VERTEX
8
OUTLINE
10
613
20
500
30
0
0
VERTEX
8
OUTLINE
10
626
20
500
30
0
0
VERTEX
8
OUTLINE
10
626
20
494
30
0
0
SEQEND
8
OUTLINE
0
POLYLINE
8
PUZZLE_DOG_BONES
66
1
70
1
10
0
20
0
30
0
0
VERTEX
8
PUZZLE_DOG_BONES
10
608
20
489
30
0
0
VERTEX
8
PUZZLE_DOG_BONES
10
626
20
489
30
0
0
VERTEX
8
PUZZLE_DOG_BONES
10
626
20
549
30
0
0
VERTEX
8
PUZZLE_DOG_BONES
10
608
20
549
30
0
0
SEQEND
8
PUZZLE_DOG_BONES
0
POLYLINE
8
PUZZLE_DOG_BONES
66
1
70
1
10
0
20
0
30
0
0
VERTEX
8
PUZZLE_DOG_BONES
10
608
20
779
30
0
0
VERTEX
8
PUZZLE_DOG_BONES
10
626
20
779
30
0
0
VERTEX
8
PUZZLE_DOG_BONES
10
626
20
839
30
0
0
VERTEX
8
PUZZLE_DOG_BONES
10
608
20
839
30
0
0
SEQEND
8
PUZZLE_DOG_BONES
0
POLYLINE
8
PUZZLE_DOG_BONES
66
1
70
1
10
0
20
0
30
0
0
VERTEX
8
PUZZLE_DOG_BONES
10
608
20
1069
30
0
0
VERTEX
8
PUZZLE_DOG_BONES
10
626
20
1069
30
0
0
VERTEX
8
PUZZLE_DOG_BONES
10
626
20
1129
30
0
0
VERTEX
8
PUZZLE_DOG_BONES
10
608
20
1129
30
0
0
SEQEND
8
PUZZLE_DOG_BONES
0
POLYLINE
8
PUZZLE_SOCKET
66
1
70
1
10
0
20
0
30
0
0
VERTEX
8
PUZZLE_SOCKET
10
695.5
20
1185
30
0
0
VERTEX
8
PUZZLE_SOCKET
10
746.5
20
1185
30
0
0
VERTEX
8
PUZZLE_SOCKET
10
746.5
20
1200
30
0
0
VERTEX
8
PUZZLE_SOCKET
10
695.5
20
1200
30
0
0
SEQEND
8
PUZZLE_SOCKET
0
POLYLINE
8
PUZZLE_SOCKET
66
1
70
1
10
0
20
0
30
0
0
VERTEX
8
PUZZLE_SOCKET
10
695.5
20
418
30
0
0
VERTEX
8
PUZZLE_SOCKET
10
746.5
20
418
30
0
0
VERTEX
8
PUZZLE_SOCKET
10
746.5
20
433
30
0
0
VERTEX
8
PUZZLE_SOCKET
10
695.5
20
433
30
0
0
SEQEND
8
PUZZLE_SOCKET
0
POLYLINE
8
PUZZLE_SOCKET
66
1
70
1
10
0
20
0
30
0
0
VERTEX
8
PUZZLE_SOCKET
10
1045.5
20
1185
30
0
0
VERTEX
8
PUZZLE_SOCKET
10
1096.5
20
1185
30
0
0
VERTEX
8
PUZZLE_SOCKET
10
1096.5
20
1200
30
0
0
VERTEX
8
PUZZLE_SOCKET
10
1045.5
20
1200
30
0
0
SEQEND
8
PUZZLE_SOCKET
0
POLYLINE
8
PUZZLE_SOCKET
66
1
70
1
10
0
20
0
30
0
0
VERTEX
8
PUZZLE_SOCKET
10
1045.5
20
418
30
0
0
VERTEX
8
PUZZLE_SOCKET
10
1096.5
20
418
30
0
0
VERTEX
8
PUZZLE_SOCKET
10
1096.5
20
433
30
0
0
VERTEX
8
PUZZLE_SOCKET
10
1045.5
20
433
30
0
0
SEQEND
8
PUZZLE_SOCKET
0
CIRCLE
8
PUZZLE_HOLES_7_5MM
10
696.5
20
1186
30
0
40
3.75
0
CIRCLE
8
PUZZLE_HOLES_7_5MM
10
745.5
20
1186
30
0
40
3.75
0
CIRCLE
8
PUZZLE_HOLES_7_5MM
10
696.5
20
432
30
0
40
3.75
0
CIRCLE
8
PUZZLE_HOLES_7_5MM
10
745.5
20
432
30
0
40
3.75
0
CIRCLE
8
PUZZLE_HOLES_7_5MM
10
1046.5
20
1186
30
0
40
3.75
0
CIRCLE
8
PUZZLE_HOLES_7_5MM
10
1095.5
20
1186
30
0
40
3.75
0
CIRCLE
8
PUZZLE_HOLES_7_5MM
10
1046.5
20
432
30
0
40
3.75
0
CIRCLE
8
PUZZLE_HOLES_7_5MM
10
1095.5
20
432
30
0
40
3.75
0
CIRCLE
8
SCREWS_3MM
10
676
20
1185
30
0
40
1.5
0
CIRCLE
8
SCREWS_3MM
10
676
20
433
30
0
40
1.5
0
CIRCLE
8
SCREWS_3MM
10
896
20
1185
30
0
40
1.5
0
CIRCLE
8
SCREWS_3MM
10
896
20
433
30
0
40
1.5
0
CIRCLE
8
SCREWS_3MM
10
1116
20
1185
30
0
40
1.5
0
CIRCLE
8
SCREWS_3MM
10
1116
20
433
30
0
40
1.5
0
TEXT
8
UNIT_NUMBER
10
896
20
821.5
30
0
40
20
1
01 BUR
72
1
11
896
21
821.5
31
0
73
2
0
TEXT
8
UNIT_NUMBER
10
896
20
796.5
30
0
40
20
1
540x770
72
1
11
896
21
796.5
31
0
73
2
0
POLYLINE
8
OUTLINE
66
1
70
1
10
0
20
0
30
0
0
VERTEX
8
OUTLINE
10
1234
20
618
30
0
0
VERTEX
8
OUTLINE
10
1304
20
618
30
0
0
VERTEX
8
OUTLINE
10
1310
20
618
30
0
0
VERTEX
8
OUTLINE
10
1310
20
605
30
0
0
VERTEX
8
OUTLINE
10
1304
20
605
30
0
0
VERTEX
8
OUTLINE
10
1304
20
600
30
0
0
VERTEX
8
OUTLINE
10
1354
20
600
30
0
0
VERTEX
8
OUTLINE
10
1354
20
605
30
0
0
VERTEX
8
OUTLINE
10
1348
20
605
30
0
0
VERTEX
8
OUTLINE
10
1348
20
618
30
0
0
VERTEX
8
OUTLINE
10
1354
20
618
30
0
0
VERTEX
8
OUTLINE
10
1654
20
618
30
0
0
VERTEX
8
OUTLINE
10
1660
20
618
30
0
0
VERTEX
8
OUTLINE
10
1660
20
605
30
0
0
VERTEX
8
OUTLINE
10
1654
20
605
30
0
0
VERTEX
8
OUTLINE
10
1654
20
600
30
0
0
VERTEX
8
OUTLINE
10
1704
20
600
30
0
0
VERTEX
8
OUTLINE
10
1704
20
605
30
0
0
VERTEX
8
OUTLINE
10
1698
20
605
30
0
0
VERTEX
8
OUTLINE
10
1698
20
618
30
0
0
VERTEX
8
OUTLINE
10
1704
20
618
30
0
0
VERTEX
8
OUTLINE
10
1774
20
618
30
0
0
VERTEX
8
OUTLINE
10
1774
20
1182
30
0
0
VERTEX
8
OUTLINE
10
1704
20
1182
30
0
0
VERTEX
8
OUTLINE
10
1698
20
1182
30
0
0
VERTEX
8
OUTLINE
10
1698
20
1195
30
0
0
VERTEX
8
OUTLINE
10
1704
20
1195
30
0
0
VERTEX
8
OUTLINE
10
1704
20
1200
30
0
0
VERTEX
8
OUTLINE
10
1654
20
1200
30
0
0
VERTEX
8
OUTLINE
10
1654
20
1195
30
0
0
VERTEX
8
OUTLINE
10
1660
20
1195
30
0
0
VERTEX
8
OUTLINE
10
1660
20
1182
30
0
0
VERTEX
8
OUTLINE
10
1654
20
1182
30
0
0
VERTEX
8
OUTLINE
10
1354
20
1182
30
0
0
VERTEX
8
OUTLINE
10
1348
20
1182
30
0
0
VERTEX
8
OUTLINE
10
1348
20
1195
30
0
0
VERTEX
8
OUTLINE
10
1354
20
1195
30
0
0
VERTEX
8
OUTLINE
10
1354
20
1200
30
0
0
VERTEX
8
OUTLINE
10
1304
20
1200
30
0
0
VERTEX
8
OUTLINE
10
1304
20
1195
30
0
0
VERTEX
8
OUTLINE
10
1310
20
1195
30
0
0
VERTEX
8
OUTLINE
10
1310
20
1182
30
0
0
VERTEX
8
OUTLINE
10
1304
20
1182
30
0
0
VERTEX
8
OUTLINE
10
1234
20
1182
30
0
0
VERTEX
8
OUTLINE
10
1234
20
1112
30
0
0
VERTEX
8
OUTLINE
10
1234
20
1106
30
0
0
VERTEX
8
OUTLINE
10
1221
20
1106
30
0
0
VERTEX
8
OUTLINE
10
1221
20
1112
30
0
0
VERTEX
8
OUTLINE
10
1216
20
1112
30
0
0
VERTEX
8
OUTLINE
10
1216
20
1062
30
0
0
VERTEX
8
OUTLINE
10
1221
20
1062
30
0
0
VERTEX
8
OUTLINE
10
1221
20
1068
30
0
0
VERTEX
8
OUTLINE
10
1234
20
1068
30
0
0
VERTEX
8
OUTLINE
10
1234
20
1062
30
0
0
VERTEX
8
OUTLINE
10
1234
20
738
30
0
0
VERTEX
8
OUTLINE
10
1234
20
732
30
0
0
VERTEX
8
OUTLINE
10
1221
20
732
30
0
0
VERTEX
8
OUTLINE
10
1221
20
738
30
0
0
VERTEX
8
OUTLINE
10
1216
20
738
30
0
0
VERTEX
8
OUTLINE
10
1216
20
688
30
0
0
VERTEX
8
OUTLINE
10
1221
20
688
30
0
0
VERTEX
8
OUTLINE
10
1221
20
694
30
0
0
VERTEX
8
OUTLINE
10
1234
20
694
30
0
0
VERTEX
8
OUTLINE
10
1234
20
688
30
0
0
SEQEND
8
OUTLINE
0
POLYLINE
8
PUZZLE_DOG_BONES
66
1
70
1
10
0
20
0
30
0
0
VERTEX
8
PUZZLE_DOG_BONES
10
1299
20
1182
30
0
0
VERTEX
8
PUZZLE_DOG_BONES
10
1359
20
1182
30
0
0
VERTEX
8
PUZZLE_DOG_BONES
10
1359
20
1200
30
0
0
VERTEX
8
PUZZLE_DOG_BONES
10
1299
20
1200
30
0
0
SEQEND
8
PUZZLE_DOG_BONES
0
POLYLINE
8
PUZZLE_DOG_BONES
66
1
70
1
10
0
20
0
30
0
0
VERTEX
8
PUZZLE_DOG_BONES
10
1299
20
600
30
0
0
VERTEX
8
PUZZLE_DOG_BONES
10
1359
20
600
30
0
0
VERTEX
8
PUZZLE_DOG_BONES
10
1359
20
618
30
0
0
VERTEX
8
PUZZLE_DOG_BONES
10
1299
20
618
30
0
0
SEQEND
8
PUZZLE_DOG_BONES
0
POLYLINE
8
PUZZLE_DOG_BONES
66
1
70
1
10
0
20
0
30
0
0
VERTEX
8
PUZZLE_DOG_BONES
10
1649
20
1182
30
0
0
VERTEX
8
PUZZLE_DOG_BONES
10
1709
20
1182
30
0
0
VERTEX
8
PUZZLE_DOG_BONES
10
1709
20
1200
30
0
0
VERTEX
8
PUZZLE_DOG_BONES
10
1649
20
1200
30
0
0
SEQEND
8
PUZZLE_DOG_BONES
0
POLYLINE
8
PUZZLE_DOG_BONES
66
1
70
1
10
0
20
0
30
0
0
VERTEX
8
PUZZLE_DOG_BONES
10
1649
20
600
30
0
0
VERTEX
8
PUZZLE_DOG_BONES
10
1709
20
600
30
0
0
VERTEX
8
PUZZLE_DOG_BONES
10
1709
20
618
30
0
0
VERTEX
8
PUZZLE_DOG_BONES
10
1649
20
618
30
0
0
SEQEND
8
PUZZLE_DOG_BONES
0
POLYLINE
8
PUZZLE_DOG_BONES
66
1
70
1
10
0
20
0
30
0
0
VERTEX
8
PUZZLE_DOG_BONES
10
1216
20
683
30
0
0
VERTEX
8
PUZZLE_DOG_BONES
10
1234
20
683
30
0
0
VERTEX
8
PUZZLE_DOG_BONES
10
1234
20
743
30
0
0
VERTEX
8
PUZZLE_DOG_BONES
10
1216
20
743
30
0
0
SEQEND
8
PUZZLE_DOG_BONES
0
POLYLINE
8
PUZZLE_DOG_BONES
66
1
70
1
10
0
20
0
30
0
0
VERTEX
8
PUZZLE_DOG_BONES
10
1216
20
1057
30
0
0
VERTEX
8
PUZZLE_DOG_BONES
10
1234
20
1057
30
0
0
VERTEX
8
PUZZLE_DOG_BONES
10
1234
20
1117
30
0
0
VERTEX
8
PUZZLE_DOG_BONES
10
1216
20
1117
30
0
0
SEQEND
8
PUZZLE_DOG_BONES
0
TEXT
8
UNIT_NUMBER
10
1504
20
912.5
30
0
40
20
1
01 TOP
72
1
11
1504
21
912.5
31
0
73
2
0
TEXT
8
UNIT_NUMBER
10
1504
20
887.5
30
0
40
20
1
564x540
72
1
11
1504
21
887.5
31
0
73
2
0
POLYLINE
8
OUTLINE
66
1
70
1
10
0
20
0
30
0
0
VERTEX
8
OUTLINE
10
1842
20
618
30
0
0
VERTEX
8
OUTLINE
10
1912
20
618
30
0
0
VERTEX
8
OUTLINE
10
1918
20
618
30
0
0
VERTEX
8
OUTLINE
10
1918
20
605
30
0
0
VERTEX
8
OUTLINE
10
1912
20
605
30
0
0
VERTEX
8
OUTLINE
10
1912
20
600
30
0
0
VERTEX
8
OUTLINE
10
1962
20
600
30
0
0
VERTEX
8
OUTLINE
10
1962
20
605
30
0
0
VERTEX
8
OUTLINE
10
1956
20
605
30
0
0
VERTEX
8
OUTLINE
10
1956
20
618
30
0
0
VERTEX
8
OUTLINE
10
1962
20
618
30
0
0
VERTEX
8
OUTLINE
10
2262
20
618
30
0
0
VERTEX
8
OUTLINE
10
2268
20
618
30
0
0
VERTEX
8
OUTLINE
10
2268
20
605
30
0
0
VERTEX
8
OUTLINE
10
2262
20
605
30
0
0
VERTEX
8
OUTLINE
10
2262
20
600
30
0
0
VERTEX
8
OUTLINE
10
2312
20
600
30
0
0
VERTEX
8
OUTLINE
10
2312
20
605
30
0
0
VERTEX
8
OUTLINE
10
2306
20
605
30
0
0
VERTEX
8
OUTLINE
10
2306
20
618
30
0
0
VERTEX
8
OUTLINE
10
2312
20
618
30
0
0
VERTEX
8
OUTLINE
10
2382
20
618
30
0
0
VERTEX
8
OUTLINE
10
2382
20
1182
30
0
0
VERTEX
8
OUTLINE
10
2312
20
1182
30
0
0
VERTEX
8
OUTLINE
10
2306
20
1182
30
0
0
VERTEX
8
OUTLINE
10
2306
20
1195
30
0
0
VERTEX
8
OUTLINE
10
2312
20
1195
30
0
0
VERTEX
8
OUTLINE
10
2312
20
1200
30
0
0
VERTEX
8
OUTLINE
10
2262
20
1200
30
0
0
VERTEX
8
OUTLINE
10
2262
20
1195
30
0
0
VERTEX
8
OUTLINE
10
2268
20
1195
30
0
0
VERTEX
8
OUTLINE
10
2268
20
1182
30
0
0
VERTEX
8
OUTLINE
10
2262
20
1182
30
0
0
VERTEX
8
OUTLINE
10
1962
20
1182
30
0
0
VERTEX
8
OUTLINE
10
1956
20
1182
30
0
0
VERTEX
8
OUTLINE
10
1956
20
1195
30
0
0
VERTEX
8
OUTLINE
10
1962
20
1195
30
0
0
VERTEX
8
OUTLINE
10
1962
20
1200
30
0
0
VERTEX
8
OUTLINE
10
1912
20
1200
30
0
0
VERTEX
8
OUTLINE
10
1912
20
1195
30
0
0
VERTEX
8
OUTLINE
10
1918
20
1195
30
0
0
VERTEX
8
OUTLINE
10
1918
20
1182
30
0
0
VERTEX
8
OUTLINE
10
1912
20
1182
30
0
0
VERTEX
8
OUTLINE
10
1842
20
1182
30
0
0
VERTEX
8
OUTLINE
10
1842
20
1112
30
0
0
VERTEX
8
OUTLINE
10
1842
20
1106
30
0
0
VERTEX
8
OUTLINE
10
1829
20
1106
30
0
0
VERTEX
8
OUTLINE
10
1829
20
1112
30
0
0
VERTEX
8
OUTLINE
10
1824
20
1112
30
0
0
VERTEX
8
OUTLINE
10
1824
20
1062
30
0
0
VERTEX
8
OUTLINE
10
1829
20
1062
30
0
0
VERTEX
8
OUTLINE
10
1829
20
1068
30
0
0
VERTEX
8
OUTLINE
10
1842
20
1068
30
0
0
VERTEX
8
OUTLINE
10
1842
20
1062
30
0
0
VERTEX
8
OUTLINE
10
1842
20
738
30
0
0
VERTEX
8
OUTLINE
10
1842
20
732
30
0
0
VERTEX
8
OUTLINE
10
1829
20
732
30
0
0
VERTEX
8
OUTLINE
10
1829
20
738
30
0
0
VERTEX
8
OUTLINE
10
1824
20
738
30
0
0
VERTEX
8
OUTLINE
10
1824
20
688
30
0
0
VERTEX
8
OUTLINE
10
1829
20
688
30
0
0
VERTEX
8
OUTLINE
10
1829
20
694
30
0
0
VERTEX
8
OUTLINE
10
1842
20
694
30
0
0
VERTEX
8
OUTLINE
10
1842
20
688
30
0
0
SEQEND
8
OUTLINE
0
POLYLINE
8
PUZZLE_DOG_BONES
66
1
70
1
10
0
20
0
30
0
0
VERTEX
8
PUZZLE_DOG_BONES
10
1907
20
1182
30
0
0
VERTEX
8
PUZZLE_DOG_BONES
10
1967
20
1182
30
0
0
VERTEX
8
PUZZLE_DOG_BONES
10
1967
20
1200
30
0
0
VERTEX
8
PUZZLE_DOG_BONES
10
1907
20
1200
30
0
0
SEQEND
8
PUZZLE_DOG_BONES
0
POLYLINE
8
PUZZLE_DOG_BONES
66
1
70
1
10
0
20
0
30
0
0
VERTEX
8
PUZZLE_DOG_BONES
10
1907
20
600
30
0
0
VERTEX
8
PUZZLE_DOG_BONES
10
1967
20
600
30
0
0
VERTEX
8
PUZZLE_DOG_BONES
10
1967
20
618
30
0
0
VERTEX
8
PUZZLE_DOG_BONES
10
1907
20
618
30
0
0
SEQEND
8
PUZZLE_DOG_BONES
0
POLYLINE
8
PUZZLE_DOG_BONES
66
1
70
1
10
0
20
0
30
0
0
VERTEX
8
PUZZLE_DOG_BONES
10
2257
20
1182
30
0
0
VERTEX
8
PUZZLE_DOG_BONES
10
2317
20
1182
30
0
0
VERTEX
8
PUZZLE_DOG_BONES
10
2317
20
1200
30
0
0
VERTEX
8
PUZZLE_DOG_BONES
10
2257
20
1200
30
0
0
SEQEND
8
PUZZLE_DOG_BONES
0
POLYLINE
8
PUZZLE_DOG_BONES
66
1
70
1
10
0
20
0
30
0
0
VERTEX
8
PUZZLE_DOG_BONES
10
2257
20
600
30
0
0
VERTEX
8
PUZZLE_DOG_BONES
10
2317
20
600
30
0
0
VERTEX
8
PUZZLE_DOG_BONES
10
2317
20
618
30
0
0
VERTEX
8
PUZZLE_DOG_BONES
10
2257
20
618
30
0
0
SEQEND
8
PUZZLE_DOG_BONES
0
POLYLINE
8
PUZZLE_DOG_BONES
66
1
70
1
10
0
20
0
30
0
0
VERTEX
8
PUZZLE_DOG_BONES
10
1824
20
683
30
0
0
VERTEX
8
PUZZLE_DOG_BONES
10
1842
20
683
30
0
0
VERTEX
8
PUZZLE_DOG_BONES
10
1842
20
743
30
0
0
VERTEX
8
PUZZLE_DOG_BONES
10
1824
20
743
30
0
0
SEQEND
8
PUZZLE_DOG_BONES
0
POLYLINE
8
PUZZLE_DOG_BONES
66
1
70
1
10
0
20
0
30
0
0
VERTEX
8
PUZZLE_DOG_BONES
10
1824
20
1057
30
0
0
VERTEX
8
PUZZLE_DOG_BONES
10
1842
20
1057
30
0
0
VERTEX
8
PUZZLE_DOG_BONES
10
1842
20
1117
30
0
0
VERTEX
8
PUZZLE_DOG_BONES
10
1824
20
1117
30
0
0
SEQEND
8
PUZZLE_DOG_BONES
0
TEXT
8
UNIT_NUMBER
10
2112
20
925
30
0
40
20
1
01
72
1
11
2112
21
925
31
0
73
2
0
TEXT
8
UNIT_NUMBER
10
2112
20
900
30
0
40
20
1
BOTTOM
72
1
11
2112
21
900
31
0
73
2
0
TEXT
8
UNIT_NUMBER
10
2112
20
875
30
0
40
20
1
564x540
72
1
11
2112
21
875
31
0
73
2
0
POLYLINE
8
OUTLINE
66
1
70
1
10
0
20
0
30
0
0
VERTEX
8
OUTLINE
10
2438
20
424
30
0
0
VERTEX
8
OUTLINE
10
3038
20
424
30
0
0
VERTEX
8
OUTLINE
10
3038
20
1194
30
0
0
VERTEX
8
OUTLINE
10
2438
20
1194
30
0
0
SEQEND
8
OUTLINE
0
POLYLINE
8
PUZZLE_SOCKET
66
1
70
1
10
0
20
0
30
0
0
VERTEX
8
PUZZLE_SOCKET
10
2432
20
493.5
30
0
0
VERTEX
8
PUZZLE_SOCKET
10
2447
20
493.5
30
0
0
VERTEX
8
PUZZLE_SOCKET
10
2447
20
544.5
30
0
0
VERTEX
8
PUZZLE_SOCKET
10
2432
20
544.5
30
0
0
SEQEND
8
PUZZLE_SOCKET
0
POLYLINE
8
PUZZLE_SOCKET
66
1
70
1
10
0
20
0
30
0
0
VERTEX
8
PUZZLE_SOCKET
10
2432
20
783.5
30
0
0
VERTEX
8
PUZZLE_SOCKET
10
2447
20
783.5
30
0
0
VERTEX
8
PUZZLE_SOCKET
10
2447
20
834.5
30
0
0
VERTEX
8
PUZZLE_SOCKET
10
2432
20
834.5
30
0
0
SEQEND
8
PUZZLE_SOCKET
0
POLYLINE
8
PUZZLE_SOCKET
66
1
70
1
10
0
20
0
30
0
0
VERTEX
8
PUZZLE_SOCKET
10
2432
20
1073.5
30
0
0
VERTEX
8
PUZZLE_SOCKET
10
2447
20
1073.5
30
0
0
VERTEX
8
PUZZLE_SOCKET
10
2447
20
1124.5
30
0
0
VERTEX
8
PUZZLE_SOCKET
10
2432
20
1124.5
30
0
0
SEQEND
8
PUZZLE_SOCKET
0
POLYLINE
8
PUZZLE_SOCKET
66
1
70
1
10
0
20
0
30
0
0
VERTEX
8
PUZZLE_SOCKET
10
3029
20
493.5
30
0
0
VERTEX
8
PUZZLE_SOCKET
10
3044
20
493.5
30
0
0
VERTEX
8
PUZZLE_SOCKET
10
3044
20
544.5
30
0
0
VERTEX
8
PUZZLE_SOCKET
10
3029
20
544.5
30
0
0
SEQEND
8
PUZZLE_SOCKET
0
POLYLINE
8
PUZZLE_SOCKET
66
1
70
1
10
0
20
0
30
0
0
VERTEX
8
PUZZLE_SOCKET
10
3029
20
783.5
30
0
0
VERTEX
8
PUZZLE_SOCKET
10
3044
20
783.5
30
0
0
VERTEX
8
PUZZLE_SOCKET
10
3044
20
834.5
30
0
0
VERTEX
8
PUZZLE_SOCKET
10
3029
20
834.5
30
0
0
SEQEND
8
PUZZLE_SOCKET
0
POLYLINE
8
PUZZLE_SOCKET
66
1
70
1
10
0
20
0
30
0
0
VERTEX
8
PUZZLE_SOCKET
10
3029
20
1073.5
30
0
0
VERTEX
8
PUZZLE_SOCKET
10
3044
20
1073.5
30
0
0
VERTEX
8
PUZZLE_SOCKET
10
3044
20
1124.5
30
0
0
VERTEX
8
PUZZLE_SOCKET
10
3029
20
1124.5
30
0
0
SEQEND
8
PUZZLE_SOCKET
0
POLYLINE
8
PUZZLE_SOCKET
66
1
70
1
10
0
20
0
30
0
0
VERTEX
8
PUZZLE_SOCKET
10
2525.5
20
1185
30
0
0
VERTEX
8
PUZZLE_SOCKET
10
2576.5
20
1185
30
0
0
VERTEX
8
PUZZLE_SOCKET
10
2576.5
20
1200
30
0
0
VERTEX
8
PUZZLE_SOCKET
10
2525.5
20
1200
30
0
0
SEQEND
8
PUZZLE_SOCKET
0
POLYLINE
8
PUZZLE_SOCKET
66
1
70
1
10
0
20
0
30
0
0
VERTEX
8
PUZZLE_SOCKET
10
2899.5
20
1185
30
0
0
VERTEX
8
PUZZLE_SOCKET
10
2950.5
20
1185
30
0
0
VERTEX
8
PUZZLE_SOCKET
10
2950.5
20
1200
30
0
0
VERTEX
8
PUZZLE_SOCKET
10
2899.5
20
1200
30
0
0
SEQEND
8
PUZZLE_SOCKET
0
POLYLINE
8
PUZZLE_SOCKET
66
1
70
1
10
0
20
0
30
0
0
VERTEX
8
PUZZLE_SOCKET
10
2525.5
20
418
30
0
0
VERTEX
8
PUZZLE_SOCKET
10
2576.5
20
418
30
0
0
VERTEX
8
PUZZLE_SOCKET
10
2576.5
20
433
30
0
0
VERTEX
8
PUZZLE_SOCKET
10
2525.5
20
433
30
0
0
SEQEND
8
PUZZLE_SOCKET
0
POLYLINE
8
PUZZLE_SOCKET
66
1
70
1
10
0
20
0
30
0
0
VERTEX
8
PUZZLE_SOCKET
10
2899.5
20
418
30
0
0
VERTEX
8
PUZZLE_SOCKET
10
2950.5
20
418
30
0
0
VERTEX
8
PUZZLE_SOCKET
10
2950.5
20
433
30
0
0
VERTEX
8
PUZZLE_SOCKET
10
2899.5
20
433
30
0
0
SEQEND
8
PUZZLE_SOCKET
0
CIRCLE
8
PUZZLE_HOLES_7_5MM
10
2446
20
494.5
30
0
40
3.75
0
CIRCLE
8
PUZZLE_HOLES_7_5MM
10
2446
20
543.5
30
0
40
3.75
0
CIRCLE
8
PUZZLE_HOLES_7_5MM
10
2446
20
784.5
30
0
40
3.75
0
CIRCLE
8
PUZZLE_HOLES_7_5MM
10
2446
20
833.5
30
0
40
3.75
0
CIRCLE
8
PUZZLE_HOLES_7_5MM
10
2446
20
1074.5
30
0
40
3.75
0
CIRCLE
8
PUZZLE_HOLES_7_5MM
10
2446
20
1123.5
30
0
40
3.75
0
CIRCLE
8
PUZZLE_HOLES_7_5MM
10
3030
20
494.5
30
0
40
3.75
0
CIRCLE
8
PUZZLE_HOLES_7_5MM
10
3030
20
543.5
30
0
40
3.75
0
CIRCLE
8
PUZZLE_HOLES_7_5MM
10
3030
20
784.5
30
0
40
3.75
0
CIRCLE
8
PUZZLE_HOLES_7_5MM
10
3030
20
833.5
30
0
40
3.75
0
CIRCLE
8
PUZZLE_HOLES_7_5MM
10
3030
20
1074.5
30
0
40
3.75
0
CIRCLE
8
PUZZLE_HOLES_7_5MM
10
3030
20
1123.5
30
0
40
3.75
0
CIRCLE
8
PUZZLE_HOLES_7_5MM
10
2526.5
20
1186
30
0
40
3.75
0
CIRCLE
8
PUZZLE_HOLES_7_5MM
10
2575.5
20
1186
30
0
40
3.75
0
CIRCLE
8
PUZZLE_HOLES_7_5MM
10
2900.5
20
1186
30
0
40
3.75
0
CIRCLE
8
PUZZLE_HOLES_7_5MM
10
2949.5
20
1186
30
0
40
3.75
0
CIRCLE
8
PUZZLE_HOLES_7_5MM
10
2526.5
20
432
30
0
40
3.75
0
CIRCLE
8
PUZZLE_HOLES_7_5MM
10
2575.5
20
432
30
0
40
3.75
0
CIRCLE
8
PUZZLE_HOLES_7_5MM
10
2900.5
20
432
30
0
40
3.75
0
CIRCLE
8
PUZZLE_HOLES_7_5MM
10
2949.5
20
432
30
0
40
3.75
0
CIRCLE
8
SCREWS_3MM
10
2447
20
474
30
0
40
1.5
0
CIRCLE
8
SCREWS_3MM
10
3029
20
474
30
0
40
1.5
0
CIRCLE
8
SCREWS_3MM
10
2447
20
664
30
0
40
1.5
0
CIRCLE
8
SCREWS_3MM
10
3029
20
664
30
0
40
1.5
0
CIRCLE
8
SCREWS_3MM
10
2447
20
954
30
0
40
1.5
0
CIRCLE
8
SCREWS_3MM
10
3029
20
954
30
0
40
1.5
0
CIRCLE
8
SCREWS_3MM
10
2447
20
1144
30
0
40
1.5
0
CIRCLE
8
SCREWS_3MM
10
3029
20
1144
30
0
40
1.5
0
CIRCLE
8
SCREWS_3MM
10
2506
20
1185
30
0
40
1.5
0
CIRCLE
8
SCREWS_3MM
10
2506
20
433
30
0
40
1.5
0
CIRCLE
8
SCREWS_3MM
10
2738
20
1185
30
0
40
1.5
0
CIRCLE
8
SCREWS_3MM
10
2738
20
433
30
0
40
1.5
0
CIRCLE
8
SCREWS_3MM
10
2970
20
1185
30
0
40
1.5
0
CIRCLE
8
SCREWS_3MM
10
2970
20
433
30
0
40
1.5
0
TEXT
8
UNIT_NUMBER
10
2738
20
821.5
30
0
40
20
1
01 BACK
72
1
11
2738
21
821.5
31
0
73
2
0
TEXT
8
UNIT_NUMBER
10
2738
20
796.5
30
0
40
20
1
600x770
72
1
11
2738
21
796.5
31
0
73
2
0
POLYLINE
8
OUTLINE
66
1
70
1
10
0
20
0
30
0
0
VERTEX
8
OUTLINE
10
3194
20
0
30
0
0
VERTEX
8
OUTLINE
10
3194
20
1200
30
0
0
VERTEX
8
OUTLINE
10
3094
20
1200
30
0
0
VERTEX
8
OUTLINE
10
3094
20
0
30
0
0
SEQEND
8
OUTLINE
0
TEXT
8
UNIT_NUMBER
10
3144
20
600
30
0
40
12
1
01 PLINTH 1200x100
50
90
72
1
11
3144
21
600
31
0
73
2
0
ENDSEC
0
EOF
