0
SECTION
2
HEADER
9
$ACADVER
1
AC1009
9
$INSBASE
10
0
20
0
30
0
9
$EXTMIN
10
0
20
0
30
0
9
$EXTMAX
10
3586
20
13892.175
30
0
0
ENDSEC
0
SECTION
2
TABLES
0
TABLE
2
LAYER
70
17
0
LAYER
2
0
70
0
62
7
6
CONTINUOUS
0
LAYER
2
OUTLINE
70
0
62
7
6
CONTINUOUS
0
LAYER
2
PUZZLE_SOCKET
70
0
62
1
6
CONTINUOUS
0
LAYER
2
PUZZLE_DOG_BONES
70
0
62
2
6
CONTINUOUS
0
LAYER
2
PUZZLE_HOLES_7_5MM
70
0
62
3
6
CONTINUOUS
0
LAYER
2
SCREWS_3MM
70
0
62
4
6
CONTINUOUS
0
LAYER
2
SHAKER_PANEL_POCKET
70
0
62
41
6
CONTINUOUS
0
LAYER
2
HINGES_5MM
70
0
62
5
6
CONTINUOUS
0
LAYER
2
RUNNERS_3MM
70
0
62
5
6
CONTINUOUS
0
LAYER
2
FRONT_HINGES_35MM
70
0
62
3
6
CONTINUOUS
0
LAYER
2
FRONT_HINGES_3MM
70
0
62
30
6
CONTINUOUS
0
LAYER
2
UNIT_NUMBER
70
0
62
94
6
CONTINUOUS
0
LAYER
2
DRAWER_RUNNER_POCKET
70
0
62
1
6
CONTINUOUS
0
LAYER
2
DRAWER_BOTTOM_POCKET
70
0
62
2
6
CONTINUOUS
0
LAYER
2
SHOE_GROOVE_6MM
70
0
62
1
6
CONTINUOUS
0
LAYER
2
SHOE_RUNNER_5MM
70
0
62
5
6
CONTINUOUS
0
LAYER
2
WATCH_DIVIDER_SLOT
70
0
62
7
6
CONTINUOUS
0
ENDTAB
0
ENDSEC
0
SECTION
2
ENTITIES
0
POLYLINE
8
OUTLINE
66
1
70
1
10
0
20
0
30
0
0
VERTEX
8
OUTLINE
10
0
20
13116.175
30
0
0
VERTEX
8
OUTLINE
10
540
20
13116.175
30
0
0
VERTEX
8
OUTLINE
10
540
20
13186.175
30
0
0
VERTEX
8
OUTLINE
10
540
20
13192.175
30
0
0
VERTEX
8
OUTLINE
10
553
20
13192.175
30
0
0
VERTEX
8
OUTLINE
10
553
20
13186.175
30
0
0
VERTEX
8
OUTLINE
10
558
20
13186.175
30
0
0
VERTEX
8
OUTLINE
10
558
20
13236.175
30
0
0
VERTEX
8
OUTLINE
10
553
20
13236.175
30
0
0
VERTEX
8
OUTLINE
10
553
20
13230.175
30
0
0
VERTEX
8
OUTLINE
10
540
20
13230.175
30
0
0
VERTEX
8
OUTLINE
10
540
20
13236.175
30
0
0
VERTEX
8
OUTLINE
10
540
20
13476.175
30
0
0
VERTEX
8
OUTLINE
10
540
20
13482.175
30
0
0
VERTEX
8
OUTLINE
10
553
20
13482.175
30
0
0
VERTEX
8
OUTLINE
10
553
20
13476.175
30
0
0
VERTEX
8
OUTLINE
10
558
20
13476.175
30
0
0
VERTEX
8
OUTLINE
10
558
20
13526.175
30
0
0
VERTEX
8
OUTLINE
10
553
20
13526.175
30
0
0
VERTEX
8
OUTLINE
10
553
20
13520.175
30
0
0
VERTEX
8
OUTLINE
10
540
20
13520.175
30
0
0
VERTEX
8
OUTLINE
10
540
20
13526.175
30
0
0
VERTEX
8
OUTLINE
10
540
20
13766.175
30
0
0
VERTEX
8
OUTLINE
10
540
20
13772.175
30
0
0
VERTEX
8
OUTLINE
10
553
20
13772.175
30
0
0
VERTEX
8
OUTLINE
10
553
20
13766.175
30
0
0
VERTEX
8
OUTLINE
10
558
20
13766.175
30
0
0
VERTEX
8
OUTLINE
10
558
20
13816.175
30
0
0
VERTEX
8
OUTLINE
10
553
20
13816.175
30
0
0
VERTEX
8
OUTLINE
10
553
20
13810.175
30
0
0
VERTEX
8
OUTLINE
10
540
20
13810.175
30
0
0
VERTEX
8
OUTLINE
10
540
20
13816.175
30
0
0
VERTEX
8
OUTLINE
10
540
20
13886.175
30
0
0
VERTEX
8
OUTLINE
10
0
20
13886.175
30
0
0
SEQEND
8
OUTLINE
0
POLYLINE
8
PUZZLE_DOG_BONES
66
1
70
1
10
0
20
0
30
0
0
VERTEX
8
PUZZLE_DOG_BONES
10
540
20
13181.175
30
0
0
VERTEX
8
PUZZLE_DOG_BONES
10
558
20
13181.175
30
0
0
VERTEX
8
PUZZLE_DOG_BONES
10
558
20
13241.175
30
0
0
VERTEX
8
PUZZLE_DOG_BONES
10
540
20
13241.175
30
0
0
SEQEND
8
PUZZLE_DOG_BONES
0
POLYLINE
8
PUZZLE_DOG_BONES
66
1
70
1
10
0
20
0
30
0
0
VERTEX
8
PUZZLE_DOG_BONES
10
540
20
13471.175
30
0
0
VERTEX
8
PUZZLE_DOG_BONES
10
558
20
13471.175
30
0
0
VERTEX
8
PUZZLE_DOG_BONES
10
558
20
13531.175
30
0
0
VERTEX
8
PUZZLE_DOG_BONES
10
540
20
13531.175
30
0
0
SEQEND
8
PUZZLE_DOG_BONES
0
POLYLINE
8
PUZZLE_DOG_BONES
66
1
70
1
10
0
20
0
30
0
0
VERTEX
8
PUZZLE_DOG_BONES
10
540
20
13761.175
30
0
0
VERTEX
8
PUZZLE_DOG_BONES
10
558
20
13761.175
30
0
0
VERTEX
8
PUZZLE_DOG_BONES
10
558
20
13821.175
30
0
0
VERTEX
8
PUZZLE_DOG_BONES
10
540
20
13821.175
30
0
0
SEQEND
8
PUZZLE_DOG_BONES
0
POLYLINE
8
PUZZLE_SOCKET
66
1
70
1
10
0
20
0
30
0
0
VERTEX
8
PUZZLE_SOCKET
10
69.5
20
13877.175
30
0
0
VERTEX
8
PUZZLE_SOCKET
10
120.5
20
13877.175
30
0
0
VERTEX
8
PUZZLE_SOCKET
10
120.5
20
13892.175
30
0
0
VERTEX
8
PUZZLE_SOCKET
10
69.5
20
13892.175
30
0
0
SEQEND
8
PUZZLE_SOCKET
0
POLYLINE
8
PUZZLE_SOCKET
66
1
70
1
10
0
20
0
30
0
0
VERTEX
8
PUZZLE_SOCKET
10
69.5
20
13110.175
30
0
0
VERTEX
8
PUZZLE_SOCKET
10
120.5
20
13110.175
30
0
0
VERTEX
8
PUZZLE_SOCKET
10
120.5
20
13125.175
30
0
0
VERTEX
8
PUZZLE_SOCKET
10
69.5
20
13125.175
30
0
0
SEQEND
8
PUZZLE_SOCKET
0
POLYLINE
8
PUZZLE_SOCKET
66
1
70
1
10
0
20
0
30
0
0
VERTEX
8
PUZZLE_SOCKET
10
419.5
20
13877.175
30
0
0
VERTEX
8
PUZZLE_SOCKET
10
470.5
20
13877.175
30
0
0
VERTEX
8
PUZZLE_SOCKET
10
470.5
20
13892.175
30
0
0
VERTEX
8
PUZZLE_SOCKET
10
419.5
20
13892.175
30
0
0
SEQEND
8
PUZZLE_SOCKET
0
POLYLINE
8
PUZZLE_SOCKET
66
1
70
1
10
0
20
0
30
0
0
VERTEX
8
PUZZLE_SOCKET
10
419.5
20
13110.175
30
0
0
VERTEX
8
PUZZLE_SOCKET
10
470.5
20
13110.175
30
0
0
VERTEX
8
PUZZLE_SOCKET
10
470.5
20
13125.175
30
0
0
VERTEX
8
PUZZLE_SOCKET
10
419.5
20
13125.175
30
0
0
SEQEND
8
PUZZLE_SOCKET
0
CIRCLE
8
PUZZLE_HOLES_7_5MM
10
70.5
20
13878.175
30
0
40
3.75
0
CIRCLE
8
PUZZLE_HOLES_7_5MM
10
119.5
20
13878.175
30
0
40
3.75
0
CIRCLE
8
PUZZLE_HOLES_7_5MM
10
70.5
20
13124.175
30
0
40
3.75
0
CIRCLE
8
PUZZLE_HOLES_7_5MM
10
119.5
20
13124.175
30
0
40
3.75
0
CIRCLE
8
PUZZLE_HOLES_7_5MM
10
420.5
20
13878.175
30
0
40
3.75
0
CIRCLE
8
PUZZLE_HOLES_7_5MM
10
469.5
20
13878.175
30
0
40
3.75
0
CIRCLE
8
PUZZLE_HOLES_7_5MM
10
420.5
20
13124.175
30
0
40
3.75
0
CIRCLE
8
PUZZLE_HOLES_7_5MM
10
469.5
20
13124.175
30
0
40
3.75
0
CIRCLE
8
SCREWS_3MM
10
50
20
13877.175
30
0
40
1.5
0
CIRCLE
8
SCREWS_3MM
10
50
20
13125.175
30
0
40
1.5
0
CIRCLE
8
SCREWS_3MM
10
270
20
13877.175
30
0
40
1.5
0
CIRCLE
8
SCREWS_3MM
10
270
20
13125.175
30
0
40
1.5
0
CIRCLE
8
SCREWS_3MM
10
490
20
13877.175
30
0
40
1.5
0
CIRCLE
8
SCREWS_3MM
10
490
20
13125.175
30
0
40
1.5
0
TEXT
8
UNIT_NUMBER
10
270
20
13513.675
30
0
40
20
1
01 BUL
72
1
11
270
21
13513.675
31
0
73
2
0
TEXT
8
UNIT_NUMBER
10
270
20
13488.675
30
0
40
20
1
540x770
72
1
11
270
21
13488.675
31
0
73
2
0
POLYLINE
8
OUTLINE
66
1
70
1
10
0
20
0
30
0
0
VERTEX
8
OUTLINE
10
626
20
13116.175
30
0
0
VERTEX
8
OUTLINE
10
1166
20
13116.175
30
0
0
VERTEX
8
OUTLINE
10
1166
20
13886.175
30
0
0
VERTEX
8
OUTLINE
10
626
20
13886.175
30
0
0
VERTEX
8
OUTLINE
10
626
20
13816.175
30
0
0
VERTEX
8
OUTLINE
10
626
20
13810.175
30
0
0
VERTEX
8
OUTLINE
10
613
20
13810.175
30
0
0
VERTEX
8
OUTLINE
10
613
20
13816.175
30
0
0
VERTEX
8
OUTLINE
10
608
20
13816.175
30
0
0
VERTEX
8
OUTLINE
10
608
20
13766.175
30
0
0
VERTEX
8
OUTLINE
10
613
20
13766.175
30
0
0
VERTEX
8
OUTLINE
10
613
20
13772.175
30
0
0
VERTEX
8
OUTLINE
10
626
20
13772.175
30
0
0
VERTEX
8
OUTLINE
10
626
20
13766.175
30
0
0
VERTEX
8
OUTLINE
10
626
20
13526.175
30
0
0
VERTEX
8
OUTLINE
10
626
20
13520.175
30
0
0
VERTEX
8
OUTLINE
10
613
20
13520.175
30
0
0
VERTEX
8
OUTLINE
10
613
20
13526.175
30
0
0
VERTEX
8
OUTLINE
10
608
20
13526.175
30
0
0
VERTEX
8
OUTLINE
10
608
20
13476.175
30
0
0
VERTEX
8
OUTLINE
10
613
20
13476.175
30
0
0
VERTEX
8
OUTLINE
10
613
20
13482.175
30
0
0
VERTEX
8
OUTLINE
10
626
20
13482.175
30
0
0
VERTEX
8
OUTLINE
10
626
20
13476.175
30
0
0
VERTEX
8
OUTLINE
10
626
20
13236.175
30
0
0
VERTEX
8
OUTLINE
10
626
20
13230.175
30
0
0
VERTEX
8
OUTLINE
10
613
20
13230.175
30
0
0
VERTEX
8
OUTLINE
10
613
20
13236.175
30
0
0
VERTEX
8
OUTLINE
10
608
20
13236.175
30
0
0
VERTEX
8
OUTLINE
10
608
20
13186.175
30
0
0
VERTEX
8
OUTLINE
10
613
20
13186.175
30
0
0
VERTEX
8
OUTLINE
10
613
20
13192.175
30
0
0
VERTEX
8
OUTLINE
10
626
20
13192.175
30
0
0
VERTEX
8
OUTLINE
10
626
20
13186.175
30
0
0
SEQEND
8
OUTLINE
0
POLYLINE
8
PUZZLE_DOG_BONES
66
1
70
1
10
0
20
0
30
0
0
VERTEX
8
PUZZLE_DOG_BONES
10
608
20
13181.175
30
0
0
VERTEX
8
PUZZLE_DOG_BONES
10
626
20
13181.175
30
0
0
VERTEX
8
PUZZLE_DOG_BONES
10
626
20
13241.175
30
0
0
VERTEX
8
PUZZLE_DOG_BONES
10
608
20
13241.175
30
0
0
SEQEND
8
PUZZLE_DOG_BONES
0
POLYLINE
8
PUZZLE_DOG_BONES
66
1
70
1
10
0
20
0
30
0
0
VERTEX
8
PUZZLE_DOG_BONES
10
608
20
13471.175
30
0
0
VERTEX
8
PUZZLE_DOG_BONES
10
626
20
13471.175
30
0
0
VERTEX
8
PUZZLE_DOG_BONES
10
626
20
13531.175
30
0
0
VERTEX
8
PUZZLE_DOG_BONES
10
608
20
13531.175
30
0
0
SEQEND
8
PUZZLE_DOG_BONES
0
POLYLINE
8
PUZZLE_DOG_BONES
66
1
70
1
10
0
20
0
30
0
0
VERTEX
8
PUZZLE_DOG_BONES
10
608
20
13761.175
30
0
0
VERTEX
8
PUZZLE_DOG_BONES
10
626
20
13761.175
30
0
0
VERTEX
8
PUZZLE_DOG_BONES
10
626
20
13821.175
30
0
0
VERTEX
8
PUZZLE_DOG_BONES
10
608
20
13821.175
30
0
0
SEQEND
8
PUZZLE_DOG_BONES
0
POLYLINE
8
PUZZLE_SOCKET
66
1
70
1
10
0
20
0
30
0
0
VERTEX
8
PUZZLE_SOCKET
10
695.5
20
13877.175
30
0
0
VERTEX
8
PUZZLE_SOCKET
10
746.5
20
13877.175
30
0
0
VERTEX
8
PUZZLE_SOCKET
10
746.5
20
13892.175
30
0
0
VERTEX
8
PUZZLE_SOCKET
10
695.5
20
13892.175
30
0
0
SEQEND
8
PUZZLE_SOCKET
0
POLYLINE
8
PUZZLE_SOCKET
66
1
70
1
10
0
20
0
30
0
0
VERTEX
8
PUZZLE_SOCKET
10
695.5
20
13110.175
30
0
0
VERTEX
8
PUZZLE_SOCKET
10
746.5
20
13110.175
30
0
0
VERTEX
8
PUZZLE_SOCKET
10
746.5
20
13125.175
30
0
0
VERTEX
8
PUZZLE_SOCKET
10
695.5
20
13125.175
30
0
0
SEQEND
8
PUZZLE_SOCKET
0
POLYLINE
8
PUZZLE_SOCKET
66
1
70
1
10
0
20
0
30
0
0
VERTEX
8
PUZZLE_SOCKET
10
1045.5
20
13877.175
30
0
0
VERTEX
8
PUZZLE_SOCKET
10
1096.5
20
13877.175
30
0
0
VERTEX
8
PUZZLE_SOCKET
10
1096.5
20
13892.175
30
0
0
VERTEX
8
PUZZLE_SOCKET
10
1045.5
20
13892.175
30
0
0
SEQEND
8
PUZZLE_SOCKET
0
POLYLINE
8
PUZZLE_SOCKET
66
1
70
1
10
0
20
0
30
0
0
VERTEX
8
PUZZLE_SOCKET
10
1045.5
20
13110.175
30
0
0
VERTEX
8
PUZZLE_SOCKET
10
1096.5
20
13110.175
30
0
0
VERTEX
8
PUZZLE_SOCKET
10
1096.5
20
13125.175
30
0
0
VERTEX
8
PUZZLE_SOCKET
10
1045.5
20
13125.175
30
0
0
SEQEND
8
PUZZLE_SOCKET
0
CIRCLE
8
PUZZLE_HOLES_7_5MM
10
696.5
20
13878.175
30
0
40
3.75
0
CIRCLE
8
PUZZLE_HOLES_7_5MM
10
745.5
20
13878.175
30
0
40
3.75
0
CIRCLE
8
PUZZLE_HOLES_7_5MM
10
696.5
20
13124.175
30
0
40
3.75
0
CIRCLE
8
PUZZLE_HOLES_7_5MM
10
745.5
20
13124.175
30
0
40
3.75
0
CIRCLE
8
PUZZLE_HOLES_7_5MM
10
1046.5
20
13878.175
30
0
40
3.75
0
CIRCLE
8
PUZZLE_HOLES_7_5MM
10
1095.5
20
13878.175
30
0
40
3.75
0
CIRCLE
8
PUZZLE_HOLES_7_5MM
10
1046.5
20
13124.175
30
0
40
3.75
0
CIRCLE
8
PUZZLE_HOLES_7_5MM
10
1095.5
20
13124.175
30
0
40
3.75
0
CIRCLE
8
SCREWS_3MM
10
676
20
13877.175
30
0
40
1.5
0
CIRCLE
8
SCREWS_3MM
10
676
20
13125.175
30
0
40
1.5
0
CIRCLE
8
SCREWS_3MM
10
896
20
13877.175
30
0
40
1.5
0
CIRCLE
8
SCREWS_3MM
10
896
20
13125.175
30
0
40
1.5
0
CIRCLE
8
SCREWS_3MM
10
1116
20
13877.175
30
0
40
1.5
0
CIRCLE
8
SCREWS_3MM
10
1116
20
13125.175
30
0
40
1.5
0
TEXT
8
UNIT_NUMBER
10
896
20
13513.675
30
0
40
20
1
01 BUR
72
1
11
896
21
13513.675
31
0
73
2
0
TEXT
8
UNIT_NUMBER
10
896
20
13488.675
30
0
40
20
1
540x770
72
1
11
896
21
13488.675
31
0
73
2
0
POLYLINE
8
OUTLINE
66
1
70
1
10
0
20
0
30
0
0
VERTEX
8
OUTLINE
10
1234
20
13310.175
30
0
0
VERTEX
8
OUTLINE
10
1304
20
13310.175
30
0
0
VERTEX
8
OUTLINE
10
1310
20
13310.175
30
0
0
VERTEX
8
OUTLINE
10
1310
20
13297.175
30
0
0
VERTEX
8
OUTLINE
10
1304
20
13297.175
30
0
0
VERTEX
8
OUTLINE
10
1304
20
13292.175
30
0
0
VERTEX
8
OUTLINE
10
1354
20
13292.175
30
0
0
VERTEX
8
OUTLINE
10
1354
20
13297.175
30
0
0
VERTEX
8
OUTLINE
10
1348
20
13297.175
30
0
0
VERTEX
8
OUTLINE
10
1348
20
13310.175
30
0
0
VERTEX
8
OUTLINE
10
1354
20
13310.175
30
0
0
VERTEX
8
OUTLINE
10
1654
20
13310.175
30
0
0
VERTEX
8
OUTLINE
10
1660
20
13310.175
30
0
0
VERTEX
8
OUTLINE
10
1660
20
13297.175
30
0
0
VERTEX
8
OUTLINE
10
1654
20
13297.175
30
0
0
VERTEX
8
OUTLINE
10
1654
20
13292.175
30
0
0
VERTEX
8
OUTLINE
10
1704
20
13292.175
30
0
0
VERTEX
8
OUTLINE
10
1704
20
13297.175
30
0
0
VERTEX
8
OUTLINE
10
1698
20
13297.175
30
0
0
VERTEX
8
OUTLINE
10
1698
20
13310.175
30
0
0
VERTEX
8
OUTLINE
10
1704
20
13310.175
30
0
0
VERTEX
8
OUTLINE
10
1774
20
13310.175
30
0
0
VERTEX
8
OUTLINE
10
1774
20
13874.175
30
0
0
VERTEX
8
OUTLINE
10
1704
20
13874.175
30
0
0
VERTEX
8
OUTLINE
10
1698
20
13874.175
30
0
0
VERTEX
8
OUTLINE
10
1698
20
13887.175
30
0
0
VERTEX
8
OUTLINE
10
1704
20
13887.175
30
0
0
VERTEX
8
OUTLINE
10
1704
20
13892.175
30
0
0
VERTEX
8
OUTLINE
10
1654
20
13892.175
30
0
0
VERTEX
8
OUTLINE
10
1654
20
13887.175
30
0
0
VERTEX
8
OUTLINE
10
1660
20
13887.175
30
0
0
VERTEX
8
OUTLINE
10
1660
20
13874.175
30
0
0
VERTEX
8
OUTLINE
10
1654
20
13874.175
30
0
0
VERTEX
8
OUTLINE
10
1354
20
13874.175
30
0
0
VERTEX
8
OUTLINE
10
1348
20
13874.175
30
0
0
VERTEX
8
OUTLINE
10
1348
20
13887.175
30
0
0
VERTEX
8
OUTLINE
10
1354
20
13887.175
30
0
0
VERTEX
8
OUTLINE
10
1354
20
13892.175
30
0
0
VERTEX
8
OUTLINE
10
1304
20
13892.175
30
0
0
VERTEX
8
OUTLINE
10
1304
20
13887.175
30
0
0
VERTEX
8
OUTLINE
10
1310
20
13887.175
30
0
0
VERTEX
8
OUTLINE
10
1310
20
13874.175
30
0
0
VERTEX
8
OUTLINE
10
1304
20
13874.175
30
0
0
VERTEX
8
OUTLINE
10
1234
20
13874.175
30
0
0
VERTEX
8
OUTLINE
10
1234
20
13804.175
30
0
0
VERTEX
8
OUTLINE
10
1234
20
13798.175
30
0
0
VERTEX
8
OUTLINE
10
1221
20
13798.175
30
0
0
VERTEX
8
OUTLINE
10
1221
20
13804.175
30
0
0
VERTEX
8
OUTLINE
10
1216
20
13804.175
30
0
0
VERTEX
8
OUTLINE
10
1216
20
13754.175
30
0
0
VERTEX
8
OUTLINE
10
1221
20
13754.175
30
0
0
VERTEX
8
OUTLINE
10
1221
20
13760.175
30
0
0
VERTEX
8
OUTLINE
10
1234
20
13760.175
30
0
0
VERTEX
8
OUTLINE
10
1234
20
13754.175
30
0
0
VERTEX
8
OUTLINE
10
1234
20
13430.175
30
0
0
VERTEX
8
OUTLINE
10
1234
20
13424.175
30
0
0
VERTEX
8
OUTLINE
10
1221
20
13424.175
30
0
0
VERTEX
8
OUTLINE
10
1221
20
13430.175
30
0
0
VERTEX
8
OUTLINE
10
1216
20
13430.175
30
0
0
VERTEX
8
OUTLINE
10
1216
20
13380.175
30
0
0
VERTEX
8
OUTLINE
10
1221
20
13380.175
30
0
0
VERTEX
8
OUTLINE
10
1221
20
13386.175
30
0
0
VERTEX
8
OUTLINE
10
1234
20
13386.175
30
0
0
VERTEX
8
OUTLINE
10
1234
20
13380.175
30
0
0
SEQEND
8
OUTLINE
0
POLYLINE
8
PUZZLE_DOG_BONES
66
1
70
1
10
0
20
0
30
0
0
VERTEX
8
PUZZLE_DOG_BONES
10
1299
20
13874.175
30
0
0
VERTEX
8
PUZZLE_DOG_BONES
10
1359
20
13874.175
30
0
0
VERTEX
8
PUZZLE_DOG_BONES
10
1359
20
13892.175
30
0
0
VERTEX
8
PUZZLE_DOG_BONES
10
1299
20
13892.175
30
0
0
SEQEND
8
PUZZLE_DOG_BONES
0
POLYLINE
8
PUZZLE_DOG_BONES
66
1
70
1
10
0
20
0
30
0
0
VERTEX
8
PUZZLE_DOG_BONES
10
1299
20
13292.175
30
0
0
VERTEX
8
PUZZLE_DOG_BONES
10
1359
20
13292.175
30
0
0
VERTEX
8
PUZZLE_DOG_BONES
10
1359
20
13310.175
30
0
0
VERTEX
8
PUZZLE_DOG_BONES
10
1299
20
13310.175
30
0
0
SEQEND
8
PUZZLE_DOG_BONES
0
POLYLINE
8
PUZZLE_DOG_BONES
66
1
70
1
10
0
20
0
30
0
0
VERTEX
8
PUZZLE_DOG_BONES
10
1649
20
13874.175
30
0
0
VERTEX
8
PUZZLE_DOG_BONES
10
1709
20
13874.175
30
0
0
VERTEX
8
PUZZLE_DOG_BONES
10
1709
20
13892.175
30
0
0
VERTEX
8
PUZZLE_DOG_BONES
10
1649
20
13892.175
30
0
0
SEQEND
8
PUZZLE_DOG_BONES
0
POLYLINE
8
PUZZLE_DOG_BONES
66
1
70
1
10
0
20
0
30
0
0
VERTEX
8
PUZZLE_DOG_BONES
10
1649
20
13292.175
30
0
0
VERTEX
8
PUZZLE_DOG_BONES
10
1709
20
13292.175
30
0
0
VERTEX
8
PUZZLE_DOG_BONES
10
1709
20
13310.175
30
0
0
VERTEX
8
PUZZLE_DOG_BONES
10
1649
20
13310.175
30
0
0
SEQEND
8
PUZZLE_DOG_BONES
0
POLYLINE
8
PUZZLE_DOG_BONES
66
1
70
1
10
0
20
0
30
0
0
VERTEX
8
PUZZLE_DOG_BONES
10
1216
20
13375.175
30
0
0
VERTEX
8
PUZZLE_DOG_BONES
10
1234
20
13375.175
30
0
0
VERTEX
8
PUZZLE_DOG_BONES
10
1234
20
13435.175
30
0
0
VERTEX
8
PUZZLE_DOG_BONES
10
1216
20
13435.175
30
0
0
SEQEND
8
PUZZLE_DOG_BONES
0
POLYLINE
8
PUZZLE_DOG_BONES
66
1
70
1
10
0
20
0
30
0
0
VERTEX
8
PUZZLE_DOG_BONES
10
1216
20
13749.175
30
0
0
VERTEX
8
PUZZLE_DOG_BONES
10
1234
20
13749.175
30
0
0
VERTEX
8
PUZZLE_DOG_BONES
10
1234
20
13809.175
30
0
0
VERTEX
8
PUZZLE_DOG_BONES
10
1216
20
13809.175
30
0
0
SEQEND
8
PUZZLE_DOG_BONES
0
TEXT
8
UNIT_NUMBER
10
1504
20
13604.675
30
0
40
20
1
01 TOP
72
1
11
1504
21
13604.675
31
0
73
2
0
TEXT
8
UNIT_NUMBER
10
1504
20
13579.675
30
0
40
20
1
564x540
72
1
11
1504
21
13579.675
31
0
73
2
0
POLYLINE
8
OUTLINE
66
1
70
1
10
0
20
0
30
0
0
VERTEX
8
OUTLINE
10
1842
20
13310.175
30
0
0
VERTEX
8
OUTLINE
10
1912
20
13310.175
30
0
0
VERTEX
8
OUTLINE
10
1918
20
13310.175
30
0
0
VERTEX
8
OUTLINE
10
1918
20
13297.175
30
0
0
VERTEX
8
OUTLINE
10
1912
20
13297.175
30
0
0
VERTEX
8
OUTLINE
10
1912
20
13292.175
30
0
0
VERTEX
8
OUTLINE
10
1962
20
13292.175
30
0
0
VERTEX
8
OUTLINE
10
1962
20
13297.175
30
0
0
VERTEX
8
OUTLINE
10
1956
20
13297.175
30
0
0
VERTEX
8
OUTLINE
10
1956
20
13310.175
30
0
0
VERTEX
8
OUTLINE
10
1962
20
13310.175
30
0
0
VERTEX
8
OUTLINE
10
2262
20
13310.175
30
0
0
VERTEX
8
OUTLINE
10
2268
20
13310.175
30
0
0
VERTEX
8
OUTLINE
10
2268
20
13297.175
30
0
0
VERTEX
8
OUTLINE
10
2262
20
13297.175
30
0
0
VERTEX
8
OUTLINE
10
2262
20
13292.175
30
0
0
VERTEX
8
OUTLINE
10
2312
20
13292.175
30
0
0
VERTEX
8
OUTLINE
10
2312
20
13297.175
30
0
0
VERTEX
8
OUTLINE
10
2306
20
13297.175
30
0
0
VERTEX
8
OUTLINE
10
2306
20
13310.175
30
0
0
VERTEX
8
OUTLINE
10
2312
20
13310.175
30
0
0
VERTEX
8
OUTLINE
10
2382
20
13310.175
30
0
0
VERTEX
8
OUTLINE
10
2382
20
13874.175
30
0
0
VERTEX
8
OUTLINE
10
2312
20
13874.175
30
0
0
VERTEX
8
OUTLINE
10
2306
20
13874.175
30
0
0
VERTEX
8
OUTLINE
10
2306
20
13887.175
30
0
0
VERTEX
8
OUTLINE
10
2312
20
13887.175
30
0
0
VERTEX
8
OUTLINE
10
2312
20
13892.175
30
0
0
VERTEX
8
OUTLINE
10
2262
20
13892.175
30
0
0
VERTEX
8
OUTLINE
10
2262
20
13887.175
30
0
0
VERTEX
8
OUTLINE
10
2268
20
13887.175
30
0
0
VERTEX
8
OUTLINE
10
2268
20
13874.175
30
0
0
VERTEX
8
OUTLINE
10
2262
20
13874.175
30
0
0
VERTEX
8
OUTLINE
10
1962
20
13874.175
30
0
0
VERTEX
8
OUTLINE
10
1956
20
13874.175
30
0
0
VERTEX
8
OUTLINE
10
1956
20
13887.175
30
0
0
VERTEX
8
OUTLINE
10
1962
20
13887.175
30
0
0
VERTEX
8
OUTLINE
10
1962
20
13892.175
30
0
0
VERTEX
8
OUTLINE
10
1912
20
13892.175
30
0
0
VERTEX
8
OUTLINE
10
1912
20
13887.175
30
0
0
VERTEX
8
OUTLINE
10
1918
20
13887.175
30
0
0
VERTEX
8
OUTLINE
10
1918
20
13874.175
30
0
0
VERTEX
8
OUTLINE
10
1912
20
13874.175
30
0
0
VERTEX
8
OUTLINE
10
1842
20
13874.175
30
0
0
VERTEX
8
OUTLINE
10
1842
20
13804.175
30
0
0
VERTEX
8
OUTLINE
10
1842
20
13798.175
30
0
0
VERTEX
8
OUTLINE
10
1829
20
13798.175
30
0
0
VERTEX
8
OUTLINE
10
1829
20
13804.175
30
0
0
VERTEX
8
OUTLINE
10
1824
20
13804.175
30
0
0
VERTEX
8
OUTLINE
10
1824
20
13754.175
30
0
0
VERTEX
8
OUTLINE
10
1829
20
13754.175
30
0
0
VERTEX
8
OUTLINE
10
1829
20
13760.175
30
0
0
VERTEX
8
OUTLINE
10
1842
20
13760.175
30
0
0
VERTEX
8
OUTLINE
10
1842
20
13754.175
30
0
0
VERTEX
8
OUTLINE
10
1842
20
13430.175
30
0
0
VERTEX
8
OUTLINE
10
1842
20
13424.175
30
0
0
VERTEX
8
OUTLINE
10
1829
20
13424.175
30
0
0
VERTEX
8
OUTLINE
10
1829
20
13430.175
30
0
0
VERTEX
8
OUTLINE
10
1824
20
13430.175
30
0
0
VERTEX
8
OUTLINE
10
1824
20
13380.175
30
0
0
VERTEX
8
OUTLINE
10
1829
20
13380.175
30
0
0
VERTEX
8
OUTLINE
10
1829
20
13386.175
30
0
0
VERTEX
8
OUTLINE
10
1842
20
13386.175
30
0
0
VERTEX
8
OUTLINE
10
1842
20
13380.175
30
0
0
SEQEND
8
OUTLINE
0
POLYLINE
8
PUZZLE_DOG_BONES
66
1
70
1
10
0
20
0
30
0
0
VERTEX
8
PUZZLE_DOG_BONES
10
1907
20
13874.175
30
0
0
VERTEX
8
PUZZLE_DOG_BONES
10
1967
20
13874.175
30
0
0
VERTEX
8
PUZZLE_DOG_BONES
10
1967
20
13892.175
30
0
0
VERTEX
8
PUZZLE_DOG_BONES
10
1907
20
13892.175
30
0
0
SEQEND
8
PUZZLE_DOG_BONES
0
POLYLINE
8
PUZZLE_DOG_BONES
66
1
70
1
10
0
20
0
30
0
0
VERTEX
8
PUZZLE_DOG_BONES
10
1907
20
13292.175
30
0
0
VERTEX
8
PUZZLE_DOG_BONES
10
1967
20
13292.175
30
0
0
VERTEX
8
PUZZLE_DOG_BONES
10
1967
20
13310.175
30
0
0
VERTEX
8
PUZZLE_DOG_BONES
10
1907
20
13310.175
30
0
0
SEQEND
8
PUZZLE_DOG_BONES
0
POLYLINE
8
PUZZLE_DOG_BONES
66
1
70
1
10
0
20
0
30
0
0
VERTEX
8
PUZZLE_DOG_BONES
10
2257
20
13874.175
30
0
0
VERTEX
8
PUZZLE_DOG_BONES
10
2317
20
13874.175
30
0
0
VERTEX
8
PUZZLE_DOG_BONES
10
2317
20
13892.175
30
0
0
VERTEX
8
PUZZLE_DOG_BONES
10
2257
20
13892.175
30
0
0
SEQEND
8
PUZZLE_DOG_BONES
0
POLYLINE
8
PUZZLE_DOG_BONES
66
1
70
1
10
0
20
0
30
0
0
VERTEX
8
PUZZLE_DOG_BONES
10
2257
20
13292.175
30
0
0
VERTEX
8
PUZZLE_DOG_BONES
10
2317
20
13292.175
30
0
0
VERTEX
8
PUZZLE_DOG_BONES
10
2317
20
13310.175
30
0
0
VERTEX
8
PUZZLE_DOG_BONES
10
2257
20
13310.175
30
0
0
SEQEND
8
PUZZLE_DOG_BONES
0
POLYLINE
8
PUZZLE_DOG_BONES
66
1
70
1
10
0
20
0
30
0
0
VERTEX
8
PUZZLE_DOG_BONES
10
1824
20
13375.175
30
0
0
VERTEX
8
PUZZLE_DOG_BONES
10
1842
20
13375.175
30
0
0
VERTEX
8
PUZZLE_DOG_BONES
10
1842
20
13435.175
30
0
0
VERTEX
8
PUZZLE_DOG_BONES
10
1824
20
13435.175
30
0
0
SEQEND
8
PUZZLE_DOG_BONES
0
POLYLINE
8
PUZZLE_DOG_BONES
66
1
70
1
10
0
20
0
30
0
0
VERTEX
8
PUZZLE_DOG_BONES
10
1824
20
13749.175
30
0
0
VERTEX
8
PUZZLE_DOG_BONES
10
1842
20
13749.175
30
0
0
VERTEX
8
PUZZLE_DOG_BONES
10
1842
20
13809.175
30
0
0
VERTEX
8
PUZZLE_DOG_BONES
10
1824
20
13809.175
30
0
0
SEQEND
8
PUZZLE_DOG_BONES
0
TEXT
8
UNIT_NUMBER
10
2112
20
13617.175
30
0
40
20
1
01
72
1
11
2112
21
13617.175
31
0
73
2
0
TEXT
8
UNIT_NUMBER
10
2112
20
13592.175
30
0
40
20
1
BOTTOM
72
1
11
2112
21
13592.175
31
0
73
2
0
TEXT
8
UNIT_NUMBER
10
2112
20
13567.175
30
0
40
20
1
564x540
72
1
11
2112
21
13567.175
31
0
73
2
0
POLYLINE
8
OUTLINE
66
1
70
1
10
0
20
0
30
0
0
VERTEX
8
OUTLINE
10
2438
20
13116.175
30
0
0
VERTEX
8
OUTLINE
10
3038
20
13116.175
30
0
0
VERTEX
8
OUTLINE
10
3038
20
13886.175
30
0
0
VERTEX
8
OUTLINE
10
2438
20
13886.175
30
0
0
SEQEND
8
OUTLINE
0
POLYLINE
8
PUZZLE_SOCKET
66
1
70
1
10
0
20
0
30
0
0
VERTEX
8
PUZZLE_SOCKET
10
2432
20
13185.675
30
0
0
VERTEX
8
PUZZLE_SOCKET
10
2447
20
13185.675
30
0
0
VERTEX
8
PUZZLE_SOCKET
10
2447
20
13236.675
30
0
0
VERTEX
8
PUZZLE_SOCKET
10
2432
20
13236.675
30
0
0
SEQEND
8
PUZZLE_SOCKET
0
POLYLINE
8
PUZZLE_SOCKET
66
1
70
1
10
0
20
0
30
0
0
VERTEX
8
PUZZLE_SOCKET
10
2432
20
13475.675
30
0
0
VERTEX
8
PUZZLE_SOCKET
10
2447
20
13475.675
30
0
0
VERTEX
8
PUZZLE_SOCKET
10
2447
20
13526.675
30
0
0
VERTEX
8
PUZZLE_SOCKET
10
2432
20
13526.675
30
0
0
SEQEND
8
PUZZLE_SOCKET
0
POLYLINE
8
PUZZLE_SOCKET
66
1
70
1
10
0
20
0
30
0
0
VERTEX
8
PUZZLE_SOCKET
10
2432
20
13765.675
30
0
0
VERTEX
8
PUZZLE_SOCKET
10
2447
20
13765.675
30
0
0
VERTEX
8
PUZZLE_SOCKET
10
2447
20
13816.675
30
0
0
VERTEX
8
PUZZLE_SOCKET
10
2432
20
13816.675
30
0
0
SEQEND
8
PUZZLE_SOCKET
0
POLYLINE
8
PUZZLE_SOCKET
66
1
70
1
10
0
20
0
30
0
0
VERTEX
8
PUZZLE_SOCKET
10
3029
20
13185.675
30
0
0
VERTEX
8
PUZZLE_SOCKET
10
3044
20
13185.675
30
0
0
VERTEX
8
PUZZLE_SOCKET
10
3044
20
13236.675
30
0
0
VERTEX
8
PUZZLE_SOCKET
10
3029
20
13236.675
30
0
0
SEQEND
8
PUZZLE_SOCKET
0
POLYLINE
8
PUZZLE_SOCKET
66
1
70
1
10
0
20
0
30
0
0
VERTEX
8
PUZZLE_SOCKET
10
3029
20
13475.675
30
0
0
VERTEX
8
PUZZLE_SOCKET
10
3044
20
13475.675
30
0
0
VERTEX
8
PUZZLE_SOCKET
10
3044
20
13526.675
30
0
0
VERTEX
8
PUZZLE_SOCKET
10
3029
20
13526.675
30
0
0
SEQEND
8
PUZZLE_SOCKET
0
POLYLINE
8
PUZZLE_SOCKET
66
1
70
1
10
0
20
0
30
0
0
VERTEX
8
PUZZLE_SOCKET
10
3029
20
13765.675
30
0
0
VERTEX
8
PUZZLE_SOCKET
10
3044
20
13765.675
30
0
0
VERTEX
8
PUZZLE_SOCKET
10
3044
20
13816.675
30
0
0
VERTEX
8
PUZZLE_SOCKET
10
3029
20
13816.675
30
0
0
SEQEND
8
PUZZLE_SOCKET
0
POLYLINE
8
PUZZLE_SOCKET
66
1
70
1
10
0
20
0
30
0
0
VERTEX
8
PUZZLE_SOCKET
10
2525.5
20
13877.175
30
0
0
VERTEX
8
PUZZLE_SOCKET
10
2576.5
20
13877.175
30
0
0
VERTEX
8
PUZZLE_SOCKET
10
2576.5
20
13892.175
30
0
0
VERTEX
8
PUZZLE_SOCKET
10
2525.5
20
13892.175
30
0
0
SEQEND
8
PUZZLE_SOCKET
0
POLYLINE
8
PUZZLE_SOCKET
66
1
70
1
10
0
20
0
30
0
0
VERTEX
8
PUZZLE_SOCKET
10
2899.5
20
13877.175
30
0
0
VERTEX
8
PUZZLE_SOCKET
10
2950.5
20
13877.175
30
0
0
VERTEX
8
PUZZLE_SOCKET
10
2950.5
20
13892.175
30
0
0
VERTEX
8
PUZZLE_SOCKET
10
2899.5
20
13892.175
30
0
0
SEQEND
8
PUZZLE_SOCKET
0
POLYLINE
8
PUZZLE_SOCKET
66
1
70
1
10
0
20
0
30
0
0
VERTEX
8
PUZZLE_SOCKET
10
2525.5
20
13110.175
30
0
0
VERTEX
8
PUZZLE_SOCKET
10
2576.5
20
13110.175
30
0
0
VERTEX
8
PUZZLE_SOCKET
10
2576.5
20
13125.175
30
0
0
VERTEX
8
PUZZLE_SOCKET
10
2525.5
20
13125.175
30
0
0
SEQEND
8
PUZZLE_SOCKET
0
POLYLINE
8
PUZZLE_SOCKET
66
1
70
1
10
0
20
0
30
0
0
VERTEX
8
PUZZLE_SOCKET
10
2899.5
20
13110.175
30
0
0
VERTEX
8
PUZZLE_SOCKET
10
2950.5
20
13110.175
30
0
0
VERTEX
8
PUZZLE_SOCKET
10
2950.5
20
13125.175
30
0
0
VERTEX
8
PUZZLE_SOCKET
10
2899.5
20
13125.175
30
0
0
SEQEND
8
PUZZLE_SOCKET
0
CIRCLE
8
PUZZLE_HOLES_7_5MM
10
2446
20
13186.675
30
0
40
3.75
0
CIRCLE
8
PUZZLE_HOLES_7_5MM
10
2446
20
13235.675
30
0
40
3.75
0
CIRCLE
8
PUZZLE_HOLES_7_5MM
10
2446
20
13476.675
30
0
40
3.75
0
CIRCLE
8
PUZZLE_HOLES_7_5MM
10
2446
20
13525.675
30
0
40
3.75
0
CIRCLE
8
PUZZLE_HOLES_7_5MM
10
2446
20
13766.675
30
0
40
3.75
0
CIRCLE
8
PUZZLE_HOLES_7_5MM
10
2446
20
13815.675
30
0
40
3.75
0
CIRCLE
8
PUZZLE_HOLES_7_5MM
10
3030
20
13186.675
30
0
40
3.75
0
CIRCLE
8
PUZZLE_HOLES_7_5MM
10
3030
20
13235.675
30
0
40
3.75
0
CIRCLE
8
PUZZLE_HOLES_7_5MM
10
3030
20
13476.675
30
0
40
3.75
0
CIRCLE
8
PUZZLE_HOLES_7_5MM
10
3030
20
13525.675
30
0
40
3.75
0
CIRCLE
8
PUZZLE_HOLES_7_5MM
10
3030
20
13766.675
30
0
40
3.75
0
CIRCLE
8
PUZZLE_HOLES_7_5MM
10
3030
20
13815.675
30
0
40
3.75
0
CIRCLE
8
PUZZLE_HOLES_7_5MM
10
2526.5
20
13878.175
30
0
40
3.75
0
CIRCLE
8
PUZZLE_HOLES_7_5MM
10
2575.5
20
13878.175
30
0
40
3.75
0
CIRCLE
8
PUZZLE_HOLES_7_5MM
10
2900.5
20
13878.175
30
0
40
3.75
0
CIRCLE
8
PUZZLE_HOLES_7_5MM
10
2949.5
20
13878.175
30
0
40
3.75
0
CIRCLE
8
PUZZLE_HOLES_7_5MM
10
2526.5
20
13124.175
30
0
40
3.75
0
CIRCLE
8
PUZZLE_HOLES_7_5MM
10
2575.5
20
13124.175
30
0
40
3.75
0
CIRCLE
8
PUZZLE_HOLES_7_5MM
10
2900.5
20
13124.175
30
0
40
3.75
0
CIRCLE
8
PUZZLE_HOLES_7_5MM
10
2949.5
20
13124.175
30
0
40
3.75
0
CIRCLE
8
SCREWS_3MM
10
2447
20
13166.175
30
0
40
1.5
0
CIRCLE
8
SCREWS_3MM
10
3029
20
13166.175
30
0
40
1.5
0
CIRCLE
8
SCREWS_3MM
10
2447
20
13356.175
30
0
40
1.5
0
CIRCLE
8
SCREWS_3MM
10
3029
20
13356.175
30
0
40
1.5
0
CIRCLE
8
SCREWS_3MM
10
2447
20
13646.175
30
0
40
1.5
0
CIRCLE
8
SCREWS_3MM
10
3029
20
13646.175
30
0
40
1.5
0
CIRCLE
8
SCREWS_3MM
10
2447
20
13836.175
30
0
40
1.5
0
CIRCLE
8
SCREWS_3MM
10
3029
20
13836.175
30
0
40
1.5
0
CIRCLE
8
SCREWS_3MM
10
2506
20
13877.175
30
0
40
1.5
0
CIRCLE
8
SCREWS_3MM
10
2506
20
13125.175
30
0
40
1.5
0
CIRCLE
8
SCREWS_3MM
10
2738
20
13877.175
30
0
40
1.5
0
CIRCLE
8
SCREWS_3MM
10
2738
20
13125.175
30
0
40
1.5
0
CIRCLE
8
SCREWS_3MM
10
2970
20
13877.175
30
0
40
1.5
0
CIRCLE
8
SCREWS_3MM
10
2970
20
13125.175
30
0
40
1.5
0
TEXT
8
UNIT_NUMBER
10
2738
20
13513.675
30
0
40
20
1
01 BACK
72
1
11
2738
21
13513.675
31
0
73
2
0
TEXT
8
UNIT_NUMBER
10
2738
20
13488.675
30
0
40
20
1
600x770
72
1
11
2738
21
13488.675
31
0
73
2
0
POLYLINE
8
OUTLINE
66
1
70
1
10
0
20
0
30
0
0
VERTEX
8
OUTLINE
10
3194
20
12692.175
30
0
0
VERTEX
8
OUTLINE
10
3194
20
13892.175
30
0
0
VERTEX
8
OUTLINE
10
3094
20
13892.175
30
0
0
VERTEX
8
OUTLINE
10
3094
20
12692.175
30
0
0
SEQEND
8
OUTLINE
0
TEXT
8
UNIT_NUMBER
10
3144
20
13292.175
30
0
40
12
1
01 PLINTH 1200x100
50
90
72
1
11
3144
21
13292.175
31
0
73
2
0
POLYLINE
8
OUTLINE
66
1
70
1
10
0
20
0
30
0
0
VERTEX
8
OUTLINE
10
0
20
11766.175
30
0
0
VERTEX
8
OUTLINE
10
540
20
11766.175
30
0
0
VERTEX
8
OUTLINE
10
540
20
11836.175
30
0
0
VERTEX
8
OUTLINE
10
540
20
11842.175
30
0
0
VERTEX
8
OUTLINE
10
553
20
11842.175
30
0
0
VERTEX
8
OUTLINE
10
553
20
11836.175
30
0
0
VERTEX
8
OUTLINE
10
558
20
11836.175
30
0
0
VERTEX
8
OUTLINE
10
558
20
11886.175
30
0
0
VERTEX
8
OUTLINE
10
553
20
11886.175
30
0
0
VERTEX
8
OUTLINE
10
553
20
11880.175
30
0
0
VERTEX
8
OUTLINE
10
540
20
11880.175
30
0
0
VERTEX
8
OUTLINE
10
540
20
11886.175
30
0
0
VERTEX
8
OUTLINE
10
540
20
12126.175
30
0
0
VERTEX
8
OUTLINE
10
540
20
12132.175
30
0
0
VERTEX
8
OUTLINE
10
553
20
12132.175
30
0
0
VERTEX
8
OUTLINE
10
553
20
12126.175
30
0
0
VERTEX
8
OUTLINE
10
558
20
12126.175
30
0
0
VERTEX
8
OUTLINE
10
558
20
12176.175
30
0
0
VERTEX
8
OUTLINE
10
553
20
12176.175
30
0
0
VERTEX
8
OUTLINE
10
553
20
12170.175
30
0
0
VERTEX
8
OUTLINE
10
540
20
12170.175
30
0
0
VERTEX
8
OUTLINE
10
540
20
12176.175
30
0
0
VERTEX
8
OUTLINE
10
540
20
12416.175
30
0
0
VERTEX
8
OUTLINE
10
540
20
12422.175
30
0
0
VERTEX
8
OUTLINE
10
553
20
12422.175
30
0
0
VERTEX
8
OUTLINE
10
553
20
12416.175
30
0
0
VERTEX
8
OUTLINE
10
558
20
12416.175
30
0
0
VERTEX
8
OUTLINE
10
558
20
12466.175
30
0
0
VERTEX
8
OUTLINE
10
553
20
12466.175
30
0
0
VERTEX
8
OUTLINE
10
553
20
12460.175
30
0
0
VERTEX
8
OUTLINE
10
540
20
12460.175
30
0
0
VERTEX
8
OUTLINE
10
540
20
12466.175
30
0
0
VERTEX
8
OUTLINE
10
540
20
12536.175
30
0
0
VERTEX
8
OUTLINE
10
0
20
12536.175
30
0
0
SEQEND
8
OUTLINE
0
POLYLINE
8
PUZZLE_DOG_BONES
66
1
70
1
10
0
20
0
30
0
0
VERTEX
8
PUZZLE_DOG_BONES
10
540
20
11831.175
30
0
0
VERTEX
8
PUZZLE_DOG_BONES
10
558
20
11831.175
30
0
0
VERTEX
8
PUZZLE_DOG_BONES
10
558
20
11891.175
30
0
0
VERTEX
8
PUZZLE_DOG_BONES
10
540
20
11891.175
30
0
0
SEQEND
8
PUZZLE_DOG_BONES
0
POLYLINE
8
PUZZLE_DOG_BONES
66
1
70
1
10
0
20
0
30
0
0
VERTEX
8
PUZZLE_DOG_BONES
10
540
20
12121.175
30
0
0
VERTEX
8
PUZZLE_DOG_BONES
10
558
20
12121.175
30
0
0
VERTEX
8
PUZZLE_DOG_BONES
10
558
20
12181.175
30
0
0
VERTEX
8
PUZZLE_DOG_BONES
10
540
20
12181.175
30
0
0
SEQEND
8
PUZZLE_DOG_BONES
0
POLYLINE
8
PUZZLE_DOG_BONES
66
1
70
1
10
0
20
0
30
0
0
VERTEX
8
PUZZLE_DOG_BONES
10
540
20
12411.175
30
0
0
VERTEX
8
PUZZLE_DOG_BONES
10
558
20
12411.175
30
0
0
VERTEX
8
PUZZLE_DOG_BONES
10
558
20
12471.175
30
0
0
VERTEX
8
PUZZLE_DOG_BONES
10
540
20
12471.175
30
0
0
SEQEND
8
PUZZLE_DOG_BONES
0
POLYLINE
8
PUZZLE_SOCKET
66
1
70
1
10
0
20
0
30
0
0
VERTEX
8
PUZZLE_SOCKET
10
69.5
20
12527.175
30
0
0
VERTEX
8
PUZZLE_SOCKET
10
120.5
20
12527.175
30
0
0
VERTEX
8
PUZZLE_SOCKET
10
120.5
20
12542.175
30
0
0
VERTEX
8
PUZZLE_SOCKET
10
69.5
20
12542.175
30
0
0
SEQEND
8
PUZZLE_SOCKET
0
POLYLINE
8
PUZZLE_SOCKET
66
1
70
1
10
0
20
0
30
0
0
VERTEX
8
PUZZLE_SOCKET
10
69.5
20
11760.175
30
0
0
VERTEX
8
PUZZLE_SOCKET
10
120.5
20
11760.175
30
0
0
VERTEX
8
PUZZLE_SOCKET
10
120.5
20
11775.175
30
0
0
VERTEX
8
PUZZLE_SOCKET
10
69.5
20
11775.175
30
0
0
SEQEND
8
PUZZLE_SOCKET
0
POLYLINE
8
PUZZLE_SOCKET
66
1
70
1
10
0
20
0
30
0
0
VERTEX
8
PUZZLE_SOCKET
10
419.5
20
12527.175
30
0
0
VERTEX
8
PUZZLE_SOCKET
10
470.5
20
12527.175
30
0
0
VERTEX
8
PUZZLE_SOCKET
10
470.5
20
12542.175
30
0
0
VERTEX
8
PUZZLE_SOCKET
10
419.5
20
12542.175
30
0
0
SEQEND
8
PUZZLE_SOCKET
0
POLYLINE
8
PUZZLE_SOCKET
66
1
70
1
10
0
20
0
30
0
0
VERTEX
8
PUZZLE_SOCKET
10
419.5
20
11760.175
30
0
0
VERTEX
8
PUZZLE_SOCKET
10
470.5
20
11760.175
30
0
0
VERTEX
8
PUZZLE_SOCKET
10
470.5
20
11775.175
30
0
0
VERTEX
8
PUZZLE_SOCKET
10
419.5
20
11775.175
30
0
0
SEQEND
8
PUZZLE_SOCKET
0
CIRCLE
8
PUZZLE_HOLES_7_5MM
10
70.5
20
12528.175
30
0
40
3.75
0
CIRCLE
8
PUZZLE_HOLES_7_5MM
10
119.5
20
12528.175
30
0
40
3.75
0
CIRCLE
8
PUZZLE_HOLES_7_5MM
10
70.5
20
11774.175
30
0
40
3.75
0
CIRCLE
8
PUZZLE_HOLES_7_5MM
10
119.5
20
11774.175
30
0
40
3.75
0
CIRCLE
8
PUZZLE_HOLES_7_5MM
10
420.5
20
12528.175
30
0
40
3.75
0
CIRCLE
8
PUZZLE_HOLES_7_5MM
10
469.5
20
12528.175
30
0
40
3.75
0
CIRCLE
8
PUZZLE_HOLES_7_5MM
10
420.5
20
11774.175
30
0
40
3.75
0
CIRCLE
8
PUZZLE_HOLES_7_5MM
10
469.5
20
11774.175
30
0
40
3.75
0
CIRCLE
8
SCREWS_3MM
10
50
20
12527.175
30
0
40
1.5
0
CIRCLE
8
SCREWS_3MM
10
50
20
11775.175
30
0
40
1.5
0
CIRCLE
8
SCREWS_3MM
10
270
20
12527.175
30
0
40
1.5
0
CIRCLE
8
SCREWS_3MM
10
270
20
11775.175
30
0
40
1.5
0
CIRCLE
8
SCREWS_3MM
10
490
20
12527.175
30
0
40
1.5
0
CIRCLE
8
SCREWS_3MM
10
490
20
11775.175
30
0
40
1.5
0
CIRCLE
8
RUNNERS_3MM
10
37
20
11822.175
30
0
40
1.5
0
CIRCLE
8
RUNNERS_3MM
10
69
20
11822.175
30
0
40
1.5
0
CIRCLE
8
RUNNERS_3MM
10
293
20
11822.175
30
0
40
1.5
0
CIRCLE
8
RUNNERS_3MM
10
37
20
12145.175
30
0
40
1.5
0
CIRCLE
8
RUNNERS_3MM
10
69
20
12145.175
30
0
40
1.5
0
CIRCLE
8
RUNNERS_3MM
10
293
20
12145.175
30
0
40
1.5
0
CIRCLE
8
RUNNERS_3MM
10
37
20
12402.175
30
0
40
1.5
0
CIRCLE
8
RUNNERS_3MM
10
69
20
12402.175
30
0
40
1.5
0
CIRCLE
8
RUNNERS_3MM
10
293
20
12402.175
30
0
40
1.5
0
TEXT
8
UNIT_NUMBER
10
270
20
12176.175
30
0
40
20
1
DR01
72
1
11
270
21
12176.175
31
0
73
2
0
TEXT
8
UNIT_NUMBER
10
270
20
12151.175
30
0
40
20
1
BUL
72
1
11
270
21
12151.175
31
0
73
2
0
TEXT
8
UNIT_NUMBER
10
270
20
12126.175
30
0
40
20
1
540x770
72
1
11
270
21
12126.175
31
0
73
2
0
POLYLINE
8
OUTLINE
66
1
70
1
10
0
20
0
30
0
0
VERTEX
8
OUTLINE
10
626
20
11766.175
30
0
0
VERTEX
8
OUTLINE
10
1166
20
11766.175
30
0
0
VERTEX
8
OUTLINE
10
1166
20
12536.175
30
0
0
VERTEX
8
OUTLINE
10
626
20
12536.175
30
0
0
VERTEX
8
OUTLINE
10
626
20
12466.175
30
0
0
VERTEX
8
OUTLINE
10
626
20
12460.175
30
0
0
VERTEX
8
OUTLINE
10
613
20
12460.175
30
0
0
VERTEX
8
OUTLINE
10
613
20
12466.175
30
0
0
VERTEX
8
OUTLINE
10
608
20
12466.175
30
0
0
VERTEX
8
OUTLINE
10
608
20
12416.175
30
0
0
VERTEX
8
OUTLINE
10
613
20
12416.175
30
0
0
VERTEX
8
OUTLINE
10
613
20
12422.175
30
0
0
VERTEX
8
OUTLINE
10
626
20
12422.175
30
0
0
VERTEX
8
OUTLINE
10
626
20
12416.175
30
0
0
VERTEX
8
OUTLINE
10
626
20
12176.175
30
0
0
VERTEX
8
OUTLINE
10
626
20
12170.175
30
0
0
VERTEX
8
OUTLINE
10
613
20
12170.175
30
0
0
VERTEX
8
OUTLINE
10
613
20
12176.175
30
0
0
VERTEX
8
OUTLINE
10
608
20
12176.175
30
0
0
VERTEX
8
OUTLINE
10
608
20
12126.175
30
0
0
VERTEX
8
OUTLINE
10
613
20
12126.175
30
0
0
VERTEX
8
OUTLINE
10
613
20
12132.175
30
0
0
VERTEX
8
OUTLINE
10
626
20
12132.175
30
0
0
VERTEX
8
OUTLINE
10
626
20
12126.175
30
0
0
VERTEX
8
OUTLINE
10
626
20
11886.175
30
0
0
VERTEX
8
OUTLINE
10
626
20
11880.175
30
0
0
VERTEX
8
OUTLINE
10
613
20
11880.175
30
0
0
VERTEX
8
OUTLINE
10
613
20
11886.175
30
0
0
VERTEX
8
OUTLINE
10
608
20
11886.175
30
0
0
VERTEX
8
OUTLINE
10
608
20
11836.175
30
0
0
VERTEX
8
OUTLINE
10
613
20
11836.175
30
0
0
VERTEX
8
OUTLINE
10
613
20
11842.175
30
0
0
VERTEX
8
OUTLINE
10
626
20
11842.175
30
0
0
VERTEX
8
OUTLINE
10
626
20
11836.175
30
0
0
SEQEND
8
OUTLINE
0
POLYLINE
8
PUZZLE_DOG_BONES
66
1
70
1
10
0
20
0
30
0
0
VERTEX
8
PUZZLE_DOG_BONES
10
608
20
11831.175
30
0
0
VERTEX
8
PUZZLE_DOG_BONES
10
626
20
11831.175
30
0
0
VERTEX
8
PUZZLE_DOG_BONES
10
626
20
11891.175
30
0
0
VERTEX
8
PUZZLE_DOG_BONES
10
608
20
11891.175
30
0
0
SEQEND
8
PUZZLE_DOG_BONES
0
POLYLINE
8
PUZZLE_DOG_BONES
66
1
70
1
10
0
20
0
30
0
0
VERTEX
8
PUZZLE_DOG_BONES
10
608
20
12121.175
30
0
0
VERTEX
8
PUZZLE_DOG_BONES
10
626
20
12121.175
30
0
0
VERTEX
8
PUZZLE_DOG_BONES
10
626
20
12181.175
30
0
0
VERTEX
8
PUZZLE_DOG_BONES
10
608
20
12181.175
30
0
0
SEQEND
8
PUZZLE_DOG_BONES
0
POLYLINE
8
PUZZLE_DOG_BONES
66
1
70
1
10
0
20
0
30
0
0
VERTEX
8
PUZZLE_DOG_BONES
10
608
20
12411.175
30
0
0
VERTEX
8
PUZZLE_DOG_BONES
10
626
20
12411.175
30
0
0
VERTEX
8
PUZZLE_DOG_BONES
10
626
20
12471.175
30
0
0
VERTEX
8
PUZZLE_DOG_BONES
10
608
20
12471.175
30
0
0
SEQEND
8
PUZZLE_DOG_BONES
0
POLYLINE
8
PUZZLE_SOCKET
66
1
70
1
10
0
20
0
30
0
0
VERTEX
8
PUZZLE_SOCKET
10
695.5
20
12527.175
30
0
0
VERTEX
8
PUZZLE_SOCKET
10
746.5
20
12527.175
30
0
0
VERTEX
8
PUZZLE_SOCKET
10
746.5
20
12542.175
30
0
0
VERTEX
8
PUZZLE_SOCKET
10
695.5
20
12542.175
30
0
0
SEQEND
8
PUZZLE_SOCKET
0
POLYLINE
8
PUZZLE_SOCKET
66
1
70
1
10
0
20
0
30
0
0
VERTEX
8
PUZZLE_SOCKET
10
695.5
20
11760.175
30
0
0
VERTEX
8
PUZZLE_SOCKET
10
746.5
20
11760.175
30
0
0
VERTEX
8
PUZZLE_SOCKET
10
746.5
20
11775.175
30
0
0
VERTEX
8
PUZZLE_SOCKET
10
695.5
20
11775.175
30
0
0
SEQEND
8
PUZZLE_SOCKET
0
POLYLINE
8
PUZZLE_SOCKET
66
1
70
1
10
0
20
0
30
0
0
VERTEX
8
PUZZLE_SOCKET
10
1045.5
20
12527.175
30
0
0
VERTEX
8
PUZZLE_SOCKET
10
1096.5
20
12527.175
30
0
0
VERTEX
8
PUZZLE_SOCKET
10
1096.5
20
12542.175
30
0
0
VERTEX
8
PUZZLE_SOCKET
10
1045.5
20
12542.175
30
0
0
SEQEND
8
PUZZLE_SOCKET
0
POLYLINE
8
PUZZLE_SOCKET
66
1
70
1
10
0
20
0
30
0
0
VERTEX
8
PUZZLE_SOCKET
10
1045.5
20
11760.175
30
0
0
VERTEX
8
PUZZLE_SOCKET
10
1096.5
20
11760.175
30
0
0
VERTEX
8
PUZZLE_SOCKET
10
1096.5
20
11775.175
30
0
0
VERTEX
8
PUZZLE_SOCKET
10
1045.5
20
11775.175
30
0
0
SEQEND
8
PUZZLE_SOCKET
0
CIRCLE
8
PUZZLE_HOLES_7_5MM
10
696.5
20
12528.175
30
0
40
3.75
0
CIRCLE
8
PUZZLE_HOLES_7_5MM
10
745.5
20
12528.175
30
0
40
3.75
0
CIRCLE
8
PUZZLE_HOLES_7_5MM
10
696.5
20
11774.175
30
0
40
3.75
0
CIRCLE
8
PUZZLE_HOLES_7_5MM
10
745.5
20
11774.175
30
0
40
3.75
0
CIRCLE
8
PUZZLE_HOLES_7_5MM
10
1046.5
20
12528.175
30
0
40
3.75
0
CIRCLE
8
PUZZLE_HOLES_7_5MM
10
1095.5
20
12528.175
30
0
40
3.75
0
CIRCLE
8
PUZZLE_HOLES_7_5MM
10
1046.5
20
11774.175
30
0
40
3.75
0
CIRCLE
8
PUZZLE_HOLES_7_5MM
10
1095.5
20
11774.175
30
0
40
3.75
0
CIRCLE
8
SCREWS_3MM
10
676
20
12527.175
30
0
40
1.5
0
CIRCLE
8
SCREWS_3MM
10
676
20
11775.175
30
0
40
1.5
0
CIRCLE
8
SCREWS_3MM
10
896
20
12527.175
30
0
40
1.5
0
CIRCLE
8
SCREWS_3MM
10
896
20
11775.175
30
0
40
1.5
0
CIRCLE
8
SCREWS_3MM
10
1116
20
12527.175
30
0
40
1.5
0
CIRCLE
8
SCREWS_3MM
10
1116
20
11775.175
30
0
40
1.5
0
CIRCLE
8
RUNNERS_3MM
10
1129
20
11822.175
30
0
40
1.5
0
CIRCLE
8
RUNNERS_3MM
10
1097
20
11822.175
30
0
40
1.5
0
CIRCLE
8
RUNNERS_3MM
10
873
20
11822.175
30
0
40
1.5
0
CIRCLE
8
RUNNERS_3MM
10
1129
20
12145.175
30
0
40
1.5
0
CIRCLE
8
RUNNERS_3MM
10
1097
20
12145.175
30
0
40
1.5
0
CIRCLE
8
RUNNERS_3MM
10
873
20
12145.175
30
0
40
1.5
0
CIRCLE
8
RUNNERS_3MM
10
1129
20
12402.175
30
0
40
1.5
0
CIRCLE
8
RUNNERS_3MM
10
1097
20
12402.175
30
0
40
1.5
0
CIRCLE
8
RUNNERS_3MM
10
873
20
12402.175
30
0
40
1.5
0
TEXT
8
UNIT_NUMBER
10
896
20
12176.175
30
0
40
20
1
DR01
72
1
11
896
21
12176.175
31
0
73
2
0
TEXT
8
UNIT_NUMBER
10
896
20
12151.175
30
0
40
20
1
BUR
72
1
11
896
21
12151.175
31
0
73
2
0
TEXT
8
UNIT_NUMBER
10
896
20
12126.175
30
0
40
20
1
540x770
72
1
11
896
21
12126.175
31
0
73
2
0
POLYLINE
8
OUTLINE
66
1
70
1
10
0
20
0
30
0
0
VERTEX
8
OUTLINE
10
1234
20
11960.175
30
0
0
VERTEX
8
OUTLINE
10
1304
20
11960.175
30
0
0
VERTEX
8
OUTLINE
10
1310
20
11960.175
30
0
0
VERTEX
8
OUTLINE
10
1310
20
11947.175
30
0
0
VERTEX
8
OUTLINE
10
1304
20
11947.175
30
0
0
VERTEX
8
OUTLINE
10
1304
20
11942.175
30
0
0
VERTEX
8
OUTLINE
10
1354
20
11942.175
30
0
0
VERTEX
8
OUTLINE
10
1354
20
11947.175
30
0
0
VERTEX
8
OUTLINE
10
1348
20
11947.175
30
0
0
VERTEX
8
OUTLINE
10
1348
20
11960.175
30
0
0
VERTEX
8
OUTLINE
10
1354
20
11960.175
30
0
0
VERTEX
8
OUTLINE
10
1654
20
11960.175
30
0
0
VERTEX
8
OUTLINE
10
1660
20
11960.175
30
0
0
VERTEX
8
OUTLINE
10
1660
20
11947.175
30
0
0
VERTEX
8
OUTLINE
10
1654
20
11947.175
30
0
0
VERTEX
8
OUTLINE
10
1654
20
11942.175
30
0
0
VERTEX
8
OUTLINE
10
1704
20
11942.175
30
0
0
VERTEX
8
OUTLINE
10
1704
20
11947.175
30
0
0
VERTEX
8
OUTLINE
10
1698
20
11947.175
30
0
0
VERTEX
8
OUTLINE
10
1698
20
11960.175
30
0
0
VERTEX
8
OUTLINE
10
1704
20
11960.175
30
0
0
VERTEX
8
OUTLINE
10
1774
20
11960.175
30
0
0
VERTEX
8
OUTLINE
10
1774
20
12524.175
30
0
0
VERTEX
8
OUTLINE
10
1704
20
12524.175
30
0
0
VERTEX
8
OUTLINE
10
1698
20
12524.175
30
0
0
VERTEX
8
OUTLINE
10
1698
20
12537.175
30
0
0
VERTEX
8
OUTLINE
10
1704
20
12537.175
30
0
0
VERTEX
8
OUTLINE
10
1704
20
12542.175
30
0
0
VERTEX
8
OUTLINE
10
1654
20
12542.175
30
0
0
VERTEX
8
OUTLINE
10
1654
20
12537.175
30
0
0
VERTEX
8
OUTLINE
10
1660
20
12537.175
30
0
0
VERTEX
8
OUTLINE
10
1660
20
12524.175
30
0
0
VERTEX
8
OUTLINE
10
1654
20
12524.175
30
0
0
VERTEX
8
OUTLINE
10
1354
20
12524.175
30
0
0
VERTEX
8
OUTLINE
10
1348
20
12524.175
30
0
0
VERTEX
8
OUTLINE
10
1348
20
12537.175
30
0
0
VERTEX
8
OUTLINE
10
1354
20
12537.175
30
0
0
VERTEX
8
OUTLINE
10
1354
20
12542.175
30
0
0
VERTEX
8
OUTLINE
10
1304
20
12542.175
30
0
0
VERTEX
8
OUTLINE
10
1304
20
12537.175
30
0
0
VERTEX
8
OUTLINE
10
1310
20
12537.175
30
0
0
VERTEX
8
OUTLINE
10
1310
20
12524.175
30
0
0
VERTEX
8
OUTLINE
10
1304
20
12524.175
30
0
0
VERTEX
8
OUTLINE
10
1234
20
12524.175
30
0
0
VERTEX
8
OUTLINE
10
1234
20
12454.175
30
0
0
VERTEX
8
OUTLINE
10
1234
20
12448.175
30
0
0
VERTEX
8
OUTLINE
10
1221
20
12448.175
30
0
0
VERTEX
8
OUTLINE
10
1221
20
12454.175
30
0
0
VERTEX
8
OUTLINE
10
1216
20
12454.175
30
0
0
VERTEX
8
OUTLINE
10
1216
20
12404.175
30
0
0
VERTEX
8
OUTLINE
10
1221
20
12404.175
30
0
0
VERTEX
8
OUTLINE
10
1221
20
12410.175
30
0
0
VERTEX
8
OUTLINE
10
1234
20
12410.175
30
0
0
VERTEX
8
OUTLINE
10
1234
20
12404.175
30
0
0
VERTEX
8
OUTLINE
10
1234
20
12080.175
30
0
0
VERTEX
8
OUTLINE
10
1234
20
12074.175
30
0
0
VERTEX
8
OUTLINE
10
1221
20
12074.175
30
0
0
VERTEX
8
OUTLINE
10
1221
20
12080.175
30
0
0
VERTEX
8
OUTLINE
10
1216
20
12080.175
30
0
0
VERTEX
8
OUTLINE
10
1216
20
12030.175
30
0
0
VERTEX
8
OUTLINE
10
1221
20
12030.175
30
0
0
VERTEX
8
OUTLINE
10
1221
20
12036.175
30
0
0
VERTEX
8
OUTLINE
10
1234
20
12036.175
30
0
0
VERTEX
8
OUTLINE
10
1234
20
12030.175
30
0
0
SEQEND
8
OUTLINE
0
POLYLINE
8
PUZZLE_DOG_BONES
66
1
70
1
10
0
20
0
30
0
0
VERTEX
8
PUZZLE_DOG_BONES
10
1299
20
12524.175
30
0
0
VERTEX
8
PUZZLE_DOG_BONES
10
1359
20
12524.175
30
0
0
VERTEX
8
PUZZLE_DOG_BONES
10
1359
20
12542.175
30
0
0
VERTEX
8
PUZZLE_DOG_BONES
10
1299
20
12542.175
30
0
0
SEQEND
8
PUZZLE_DOG_BONES
0
POLYLINE
8
PUZZLE_DOG_BONES
66
1
70
1
10
0
20
0
30
0
0
VERTEX
8
PUZZLE_DOG_BONES
10
1299
20
11942.175
30
0
0
VERTEX
8
PUZZLE_DOG_BONES
10
1359
20
11942.175
30
0
0
VERTEX
8
PUZZLE_DOG_BONES
10
1359
20
11960.175
30
0
0
VERTEX
8
PUZZLE_DOG_BONES
10
1299
20
11960.175
30
0
0
SEQEND
8
PUZZLE_DOG_BONES
0
POLYLINE
8
PUZZLE_DOG_BONES
66
1
70
1
10
0
20
0
30
0
0
VERTEX
8
PUZZLE_DOG_BONES
10
1649
20
12524.175
30
0
0
VERTEX
8
PUZZLE_DOG_BONES
10
1709
20
12524.175
30
0
0
VERTEX
8
PUZZLE_DOG_BONES
10
1709
20
12542.175
30
0
0
VERTEX
8
PUZZLE_DOG_BONES
10
1649
20
12542.175
30
0
0
SEQEND
8
PUZZLE_DOG_BONES
0
POLYLINE
8
PUZZLE_DOG_BONES
66
1
70
1
10
0
20
0
30
0
0
VERTEX
8
PUZZLE_DOG_BONES
10
1649
20
11942.175
30
0
0
VERTEX
8
PUZZLE_DOG_BONES
10
1709
20
11942.175
30
0
0
VERTEX
8
PUZZLE_DOG_BONES
10
1709
20
11960.175
30
0
0
VERTEX
8
PUZZLE_DOG_BONES
10
1649
20
11960.175
30
0
0
SEQEND
8
PUZZLE_DOG_BONES
0
POLYLINE
8
PUZZLE_DOG_BONES
66
1
70
1
10
0
20
0
30
0
0
VERTEX
8
PUZZLE_DOG_BONES
10
1216
20
12025.175
30
0
0
VERTEX
8
PUZZLE_DOG_BONES
10
1234
20
12025.175
30
0
0
VERTEX
8
PUZZLE_DOG_BONES
10
1234
20
12085.175
30
0
0
VERTEX
8
PUZZLE_DOG_BONES
10
1216
20
12085.175
30
0
0
SEQEND
8
PUZZLE_DOG_BONES
0
POLYLINE
8
PUZZLE_DOG_BONES
66
1
70
1
10
0
20
0
30
0
0
VERTEX
8
PUZZLE_DOG_BONES
10
1216
20
12399.175
30
0
0
VERTEX
8
PUZZLE_DOG_BONES
10
1234
20
12399.175
30
0
0
VERTEX
8
PUZZLE_DOG_BONES
10
1234
20
12459.175
30
0
0
VERTEX
8
PUZZLE_DOG_BONES
10
1216
20
12459.175
30
0
0
SEQEND
8
PUZZLE_DOG_BONES
0
TEXT
8
UNIT_NUMBER
10
1504
20
12267.175
30
0
40
20
1
DR01
72
1
11
1504
21
12267.175
31
0
73
2
0
TEXT
8
UNIT_NUMBER
10
1504
20
12242.175
30
0
40
20
1
TOP
72
1
11
1504
21
12242.175
31
0
73
2
0
TEXT
8
UNIT_NUMBER
10
1504
20
12217.175
30
0
40
20
1
564x540
72
1
11
1504
21
12217.175
31
0
73
2
0
POLYLINE
8
OUTLINE
66
1
70
1
10
0
20
0
30
0
0
VERTEX
8
OUTLINE
10
1842
20
11960.175
30
0
0
VERTEX
8
OUTLINE
10
1912
20
11960.175
30
0
0
VERTEX
8
OUTLINE
10
1918
20
11960.175
30
0
0
VERTEX
8
OUTLINE
10
1918
20
11947.175
30
0
0
VERTEX
8
OUTLINE
10
1912
20
11947.175
30
0
0
VERTEX
8
OUTLINE
10
1912
20
11942.175
30
0
0
VERTEX
8
OUTLINE
10
1962
20
11942.175
30
0
0
VERTEX
8
OUTLINE
10
1962
20
11947.175
30
0
0
VERTEX
8
OUTLINE
10
1956
20
11947.175
30
0
0
VERTEX
8
OUTLINE
10
1956
20
11960.175
30
0
0
VERTEX
8
OUTLINE
10
1962
20
11960.175
30
0
0
VERTEX
8
OUTLINE
10
2262
20
11960.175
30
0
0
VERTEX
8
OUTLINE
10
2268
20
11960.175
30
0
0
VERTEX
8
OUTLINE
10
2268
20
11947.175
30
0
0
VERTEX
8
OUTLINE
10
2262
20
11947.175
30
0
0
VERTEX
8
OUTLINE
10
2262
20
11942.175
30
0
0
VERTEX
8
OUTLINE
10
2312
20
11942.175
30
0
0
VERTEX
8
OUTLINE
10
2312
20
11947.175
30
0
0
VERTEX
8
OUTLINE
10
2306
20
11947.175
30
0
0
VERTEX
8
OUTLINE
10
2306
20
11960.175
30
0
0
VERTEX
8
OUTLINE
10
2312
20
11960.175
30
0
0
VERTEX
8
OUTLINE
10
2382
20
11960.175
30
0
0
VERTEX
8
OUTLINE
10
2382
20
12524.175
30
0
0
VERTEX
8
OUTLINE
10
2312
20
12524.175
30
0
0
VERTEX
8
OUTLINE
10
2306
20
12524.175
30
0
0
VERTEX
8
OUTLINE
10
2306
20
12537.175
30
0
0
VERTEX
8
OUTLINE
10
2312
20
12537.175
30
0
0
VERTEX
8
OUTLINE
10
2312
20
12542.175
30
0
0
VERTEX
8
OUTLINE
10
2262
20
12542.175
30
0
0
VERTEX
8
OUTLINE
10
2262
20
12537.175
30
0
0
VERTEX
8
OUTLINE
10
2268
20
12537.175
30
0
0
VERTEX
8
OUTLINE
10
2268
20
12524.175
30
0
0
VERTEX
8
OUTLINE
10
2262
20
12524.175
30
0
0
VERTEX
8
OUTLINE
10
1962
20
12524.175
30
0
0
VERTEX
8
OUTLINE
10
1956
20
12524.175
30
0
0
VERTEX
8
OUTLINE
10
1956
20
12537.175
30
0
0
VERTEX
8
OUTLINE
10
1962
20
12537.175
30
0
0
VERTEX
8
OUTLINE
10
1962
20
12542.175
30
0
0
VERTEX
8
OUTLINE
10
1912
20
12542.175
30
0
0
VERTEX
8
OUTLINE
10
1912
20
12537.175
30
0
0
VERTEX
8
OUTLINE
10
1918
20
12537.175
30
0
0
VERTEX
8
OUTLINE
10
1918
20
12524.175
30
0
0
VERTEX
8
OUTLINE
10
1912
20
12524.175
30
0
0
VERTEX
8
OUTLINE
10
1842
20
12524.175
30
0
0
VERTEX
8
OUTLINE
10
1842
20
12454.175
30
0
0
VERTEX
8
OUTLINE
10
1842
20
12448.175
30
0
0
VERTEX
8
OUTLINE
10
1829
20
12448.175
30
0
0
VERTEX
8
OUTLINE
10
1829
20
12454.175
30
0
0
VERTEX
8
OUTLINE
10
1824
20
12454.175
30
0
0
VERTEX
8
OUTLINE
10
1824
20
12404.175
30
0
0
VERTEX
8
OUTLINE
10
1829
20
12404.175
30
0
0
VERTEX
8
OUTLINE
10
1829
20
12410.175
30
0
0
VERTEX
8
OUTLINE
10
1842
20
12410.175
30
0
0
VERTEX
8
OUTLINE
10
1842
20
12404.175
30
0
0
VERTEX
8
OUTLINE
10
1842
20
12080.175
30
0
0
VERTEX
8
OUTLINE
10
1842
20
12074.175
30
0
0
VERTEX
8
OUTLINE
10
1829
20
12074.175
30
0
0
VERTEX
8
OUTLINE
10
1829
20
12080.175
30
0
0
VERTEX
8
OUTLINE
10
1824
20
12080.175
30
0
0
VERTEX
8
OUTLINE
10
1824
20
12030.175
30
0
0
VERTEX
8
OUTLINE
10
1829
20
12030.175
30
0
0
VERTEX
8
OUTLINE
10
1829
20
12036.175
30
0
0
VERTEX
8
OUTLINE
10
1842
20
12036.175
30
0
0
VERTEX
8
OUTLINE
10
1842
20
12030.175
30
0
0
SEQEND
8
OUTLINE
0
POLYLINE
8
PUZZLE_DOG_BONES
66
1
70
1
10
0
20
0
30
0
0
VERTEX
8
PUZZLE_DOG_BONES
10
1907
20
12524.175
30
0
0
VERTEX
8
PUZZLE_DOG_BONES
10
1967
20
12524.175
30
0
0
VERTEX
8
PUZZLE_DOG_BONES
10
1967
20
12542.175
30
0
0
VERTEX
8
PUZZLE_DOG_BONES
10
1907
20
12542.175
30
0
0
SEQEND
8
PUZZLE_DOG_BONES
0
POLYLINE
8
PUZZLE_DOG_BONES
66
1
70
1
10
0
20
0
30
0
0
VERTEX
8
PUZZLE_DOG_BONES
10
1907
20
11942.175
30
0
0
VERTEX
8
PUZZLE_DOG_BONES
10
1967
20
11942.175
30
0
0
VERTEX
8
PUZZLE_DOG_BONES
10
1967
20
11960.175
30
0
0
VERTEX
8
PUZZLE_DOG_BONES
10
1907
20
11960.175
30
0
0
SEQEND
8
PUZZLE_DOG_BONES
0
POLYLINE
8
PUZZLE_DOG_BONES
66
1
70
1
10
0
20
0
30
0
0
VERTEX
8
PUZZLE_DOG_BONES
10
2257
20
12524.175
30
0
0
VERTEX
8
PUZZLE_DOG_BONES
10
2317
20
12524.175
30
0
0
VERTEX
8
PUZZLE_DOG_BONES
10
2317
20
12542.175
30
0
0
VERTEX
8
PUZZLE_DOG_BONES
10
2257
20
12542.175
30
0
0
SEQEND
8
PUZZLE_DOG_BONES
0
POLYLINE
8
PUZZLE_DOG_BONES
66
1
70
1
10
0
20
0
30
0
0
VERTEX
8
PUZZLE_DOG_BONES
10
2257
20
11942.175
30
0
0
VERTEX
8
PUZZLE_DOG_BONES
10
2317
20
11942.175
30
0
0
VERTEX
8
PUZZLE_DOG_BONES
10
2317
20
11960.175
30
0
0
VERTEX
8
PUZZLE_DOG_BONES
10
2257
20
11960.175
30
0
0
SEQEND
8
PUZZLE_DOG_BONES
0
POLYLINE
8
PUZZLE_DOG_BONES
66
1
70
1
10
0
20
0
30
0
0
VERTEX
8
PUZZLE_DOG_BONES
10
1824
20
12025.175
30
0
0
VERTEX
8
PUZZLE_DOG_BONES
10
1842
20
12025.175
30
0
0
VERTEX
8
PUZZLE_DOG_BONES
10
1842
20
12085.175
30
0
0
VERTEX
8
PUZZLE_DOG_BONES
10
1824
20
12085.175
30
0
0
SEQEND
8
PUZZLE_DOG_BONES
0
POLYLINE
8
PUZZLE_DOG_BONES
66
1
70
1
10
0
20
0
30
0
0
VERTEX
8
PUZZLE_DOG_BONES
10
1824
20
12399.175
30
0
0
VERTEX
8
PUZZLE_DOG_BONES
10
1842
20
12399.175
30
0
0
VERTEX
8
PUZZLE_DOG_BONES
10
1842
20
12459.175
30
0
0
VERTEX
8
PUZZLE_DOG_BONES
10
1824
20
12459.175
30
0
0
SEQEND
8
PUZZLE_DOG_BONES
0
TEXT
8
UNIT_NUMBER
10
2112
20
12267.175
30
0
40
20
1
DR01
72
1
11
2112
21
12267.175
31
0
73
2
0
TEXT
8
UNIT_NUMBER
10
2112
20
12242.175
30
0
40
20
1
BOTTOM
72
1
11
2112
21
12242.175
31
0
73
2
0
TEXT
8
UNIT_NUMBER
10
2112
20
12217.175
30
0
40
20
1
564x540
72
1
11
2112
21
12217.175
31
0
73
2
0
POLYLINE
8
OUTLINE
66
1
70
1
10
0
20
0
30
0
0
VERTEX
8
OUTLINE
10
2438
20
11766.175
30
0
0
VERTEX
8
OUTLINE
10
3038
20
11766.175
30
0
0
VERTEX
8
OUTLINE
10
3038
20
12536.175
30
0
0
VERTEX
8
OUTLINE
10
2438
20
12536.175
30
0
0
SEQEND
8
OUTLINE
0
POLYLINE
8
PUZZLE_SOCKET
66
1
70
1
10
0
20
0
30
0
0
VERTEX
8
PUZZLE_SOCKET
10
2432
20
11835.675
30
0
0
VERTEX
8
PUZZLE_SOCKET
10
2447
20
11835.675
30
0
0
VERTEX
8
PUZZLE_SOCKET
10
2447
20
11886.675
30
0
0
VERTEX
8
PUZZLE_SOCKET
10
2432
20
11886.675
30
0
0
SEQEND
8
PUZZLE_SOCKET
0
POLYLINE
8
PUZZLE_SOCKET
66
1
70
1
10
0
20
0
30
0
0
VERTEX
8
PUZZLE_SOCKET
10
2432
20
12125.675
30
0
0
VERTEX
8
PUZZLE_SOCKET
10
2447
20
12125.675
30
0
0
VERTEX
8
PUZZLE_SOCKET
10
2447
20
12176.675
30
0
0
VERTEX
8
PUZZLE_SOCKET
10
2432
20
12176.675
30
0
0
SEQEND
8
PUZZLE_SOCKET
0
POLYLINE
8
PUZZLE_SOCKET
66
1
70
1
10
0
20
0
30
0
0
VERTEX
8
PUZZLE_SOCKET
10
2432
20
12415.675
30
0
0
VERTEX
8
PUZZLE_SOCKET
10
2447
20
12415.675
30
0
0
VERTEX
8
PUZZLE_SOCKET
10
2447
20
12466.675
30
0
0
VERTEX
8
PUZZLE_SOCKET
10
2432
20
12466.675
30
0
0
SEQEND
8
PUZZLE_SOCKET
0
POLYLINE
8
PUZZLE_SOCKET
66
1
70
1
10
0
20
0
30
0
0
VERTEX
8
PUZZLE_SOCKET
10
3029
20
11835.675
30
0
0
VERTEX
8
PUZZLE_SOCKET
10
3044
20
11835.675
30
0
0
VERTEX
8
PUZZLE_SOCKET
10
3044
20
11886.675
30
0
0
VERTEX
8
PUZZLE_SOCKET
10
3029
20
11886.675
30
0
0
SEQEND
8
PUZZLE_SOCKET
0
POLYLINE
8
PUZZLE_SOCKET
66
1
70
1
10
0
20
0
30
0
0
VERTEX
8
PUZZLE_SOCKET
10
3029
20
12125.675
30
0
0
VERTEX
8
PUZZLE_SOCKET
10
3044
20
12125.675
30
0
0
VERTEX
8
PUZZLE_SOCKET
10
3044
20
12176.675
30
0
0
VERTEX
8
PUZZLE_SOCKET
10
3029
20
12176.675
30
0
0
SEQEND
8
PUZZLE_SOCKET
0
POLYLINE
8
PUZZLE_SOCKET
66
1
70
1
10
0
20
0
30
0
0
VERTEX
8
PUZZLE_SOCKET
10
3029
20
12415.675
30
0
0
VERTEX
8
PUZZLE_SOCKET
10
3044
20
12415.675
30
0
0
VERTEX
8
PUZZLE_SOCKET
10
3044
20
12466.675
30
0
0
VERTEX
8
PUZZLE_SOCKET
10
3029
20
12466.675
30
0
0
SEQEND
8
PUZZLE_SOCKET
0
POLYLINE
8
PUZZLE_SOCKET
66
1
70
1
10
0
20
0
30
0
0
VERTEX
8
PUZZLE_SOCKET
10
2525.5
20
12527.175
30
0
0
VERTEX
8
PUZZLE_SOCKET
10
2576.5
20
12527.175
30
0
0
VERTEX
8
PUZZLE_SOCKET
10
2576.5
20
12542.175
30
0
0
VERTEX
8
PUZZLE_SOCKET
10
2525.5
20
12542.175
30
0
0
SEQEND
8
PUZZLE_SOCKET
0
POLYLINE
8
PUZZLE_SOCKET
66
1
70
1
10
0
20
0
30
0
0
VERTEX
8
PUZZLE_SOCKET
10
2899.5
20
12527.175
30
0
0
VERTEX
8
PUZZLE_SOCKET
10
2950.5
20
12527.175
30
0
0
VERTEX
8
PUZZLE_SOCKET
10
2950.5
20
12542.175
30
0
0
VERTEX
8
PUZZLE_SOCKET
10
2899.5
20
12542.175
30
0
0
SEQEND
8
PUZZLE_SOCKET
0
POLYLINE
8
PUZZLE_SOCKET
66
1
70
1
10
0
20
0
30
0
0
VERTEX
8
PUZZLE_SOCKET
10
2525.5
20
11760.175
30
0
0
VERTEX
8
PUZZLE_SOCKET
10
2576.5
20
11760.175
30
0
0
VERTEX
8
PUZZLE_SOCKET
10
2576.5
20
11775.175
30
0
0
VERTEX
8
PUZZLE_SOCKET
10
2525.5
20
11775.175
30
0
0
SEQEND
8
PUZZLE_SOCKET
0
POLYLINE
8
PUZZLE_SOCKET
66
1
70
1
10
0
20
0
30
0
0
VERTEX
8
PUZZLE_SOCKET
10
2899.5
20
11760.175
30
0
0
VERTEX
8
PUZZLE_SOCKET
10
2950.5
20
11760.175
30
0
0
VERTEX
8
PUZZLE_SOCKET
10
2950.5
20
11775.175
30
0
0
VERTEX
8
PUZZLE_SOCKET
10
2899.5
20
11775.175
30
0
0
SEQEND
8
PUZZLE_SOCKET
0
CIRCLE
8
PUZZLE_HOLES_7_5MM
10
2446
20
11836.675
30
0
40
3.75
0
CIRCLE
8
PUZZLE_HOLES_7_5MM
10
2446
20
11885.675
30
0
40
3.75
0
CIRCLE
8
PUZZLE_HOLES_7_5MM
10
2446
20
12126.675
30
0
40
3.75
0
CIRCLE
8
PUZZLE_HOLES_7_5MM
10
2446
20
12175.675
30
0
40
3.75
0
CIRCLE
8
PUZZLE_HOLES_7_5MM
10
2446
20
12416.675
30
0
40
3.75
0
CIRCLE
8
PUZZLE_HOLES_7_5MM
10
2446
20
12465.675
30
0
40
3.75
0
CIRCLE
8
PUZZLE_HOLES_7_5MM
10
3030
20
11836.675
30
0
40
3.75
0
CIRCLE
8
PUZZLE_HOLES_7_5MM
10
3030
20
11885.675
30
0
40
3.75
0
CIRCLE
8
PUZZLE_HOLES_7_5MM
10
3030
20
12126.675
30
0
40
3.75
0
CIRCLE
8
PUZZLE_HOLES_7_5MM
10
3030
20
12175.675
30
0
40
3.75
0
CIRCLE
8
PUZZLE_HOLES_7_5MM
10
3030
20
12416.675
30
0
40
3.75
0
CIRCLE
8
PUZZLE_HOLES_7_5MM
10
3030
20
12465.675
30
0
40
3.75
0
CIRCLE
8
PUZZLE_HOLES_7_5MM
10
2526.5
20
12528.175
30
0
40
3.75
0
CIRCLE
8
PUZZLE_HOLES_7_5MM
10
2575.5
20
12528.175
30
0
40
3.75
0
CIRCLE
8
PUZZLE_HOLES_7_5MM
10
2900.5
20
12528.175
30
0
40
3.75
0
CIRCLE
8
PUZZLE_HOLES_7_5MM
10
2949.5
20
12528.175
30
0
40
3.75
0
CIRCLE
8
PUZZLE_HOLES_7_5MM
10
2526.5
20
11774.175
30
0
40
3.75
0
CIRCLE
8
PUZZLE_HOLES_7_5MM
10
2575.5
20
11774.175
30
0
40
3.75
0
CIRCLE
8
PUZZLE_HOLES_7_5MM
10
2900.5
20
11774.175
30
0
40
3.75
0
CIRCLE
8
PUZZLE_HOLES_7_5MM
10
2949.5
20
11774.175
30
0
40
3.75
0
CIRCLE
8
SCREWS_3MM
10
2447
20
11816.175
30
0
40
1.5
0
CIRCLE
8
SCREWS_3MM
10
3029
20
11816.175
30
0
40
1.5
0
CIRCLE
8
SCREWS_3MM
10
2447
20
12006.175
30
0
40
1.5
0
CIRCLE
8
SCREWS_3MM
10
3029
20
12006.175
30
0
40
1.5
0
CIRCLE
8
SCREWS_3MM
10
2447
20
12296.175
30
0
40
1.5
0
CIRCLE
8
SCREWS_3MM
10
3029
20
12296.175
30
0
40
1.5
0
CIRCLE
8
SCREWS_3MM
10
2447
20
12486.175
30
0
40
1.5
0
CIRCLE
8
SCREWS_3MM
10
3029
20
12486.175
30
0
40
1.5
0
CIRCLE
8
SCREWS_3MM
10
2506
20
12527.175
30
0
40
1.5
0
CIRCLE
8
SCREWS_3MM
10
2506
20
11775.175
30
0
40
1.5
0
CIRCLE
8
SCREWS_3MM
10
2738
20
12527.175
30
0
40
1.5
0
CIRCLE
8
SCREWS_3MM
10
2738
20
11775.175
30
0
40
1.5
0
CIRCLE
8
SCREWS_3MM
10
2970
20
12527.175
30
0
40
1.5
0
CIRCLE
8
SCREWS_3MM
10
2970
20
11775.175
30
0
40
1.5
0
TEXT
8
UNIT_NUMBER
10
2738
20
12176.175
30
0
40
20
1
DR01
72
1
11
2738
21
12176.175
31
0
73
2
0
TEXT
8
UNIT_NUMBER
10
2738
20
12151.175
30
0
40
20
1
BACK
72
1
11
2738
21
12151.175
31
0
73
2
0
TEXT
8
UNIT_NUMBER
10
2738
20
12126.175
30
0
40
20
1
600x770
72
1
11
2738
21
12126.175
31
0
73
2
0
POLYLINE
8
OUTLINE
66
1
70
1
10
0
20
0
30
0
0
VERTEX
8
OUTLINE
10
3094
20
12042.175
30
0
0
VERTEX
8
OUTLINE
10
3331
20
12042.175
30
0
0
VERTEX
8
OUTLINE
10
3331
20
12532.175
30
0
0
VERTEX
8
OUTLINE
10
3094
20
12532.175
30
0
0
SEQEND
8
OUTLINE
0
POLYLINE
8
DRAWER_RUNNER_POCKET
66
1
70
1
10
0
20
0
30
0
0
VERTEX
8
DRAWER_RUNNER_POCKET
10
3094
20
12032.175
30
0
0
VERTEX
8
DRAWER_RUNNER_POCKET
10
3109
20
12032.175
30
0
0
VERTEX
8
DRAWER_RUNNER_POCKET
10
3109
20
12542.175
30
0
0
VERTEX
8
DRAWER_RUNNER_POCKET
10
3094
20
12542.175
30
0
0
SEQEND
8
DRAWER_RUNNER_POCKET
0
POLYLINE
8
DRAWER_BOTTOM_POCKET
66
1
70
1
10
0
20
0
30
0
0
VERTEX
8
DRAWER_BOTTOM_POCKET
10
3109
20
12032.175
30
0
0
VERTEX
8
DRAWER_BOTTOM_POCKET
10
3128
20
12032.175
30
0
0
VERTEX
8
DRAWER_BOTTOM_POCKET
10
3128
20
12542.175
30
0
0
VERTEX
8
DRAWER_BOTTOM_POCKET
10
3109
20
12542.175
30
0
0
SEQEND
8
DRAWER_BOTTOM_POCKET
0
TEXT
8
UNIT_NUMBER
10
3212.5
20
12308.335714
30
0
40
16.928571
1
DR01
72
1
11
3212.5
21
12308.335714
31
0
73
2
0
TEXT
8
UNIT_NUMBER
10
3212.5
20
12287.175
30
0
40
16.928571
1
D1-SL
72
1
11
3212.5
21
12287.175
31
0
73
2
0
TEXT
8
UNIT_NUMBER
10
3212.5
20
12266.014286
30
0
40
16.928571
1
490x237
72
1
11
3212.5
21
12266.014286
31
0
73
2
0
POLYLINE
8
OUTLINE
66
1
70
1
10
0
20
0
30
0
0
VERTEX
8
OUTLINE
10
0
20
11210.175
30
0
0
VERTEX
8
OUTLINE
10
237
20
11210.175
30
0
0
VERTEX
8
OUTLINE
10
237
20
11700.175
30
0
0
VERTEX
8
OUTLINE
10
0
20
11700.175
30
0
0
SEQEND
8
OUTLINE
0
POLYLINE
8
DRAWER_RUNNER_POCKET
66
1
70
1
10
0
20
0
30
0
0
VERTEX
8
DRAWER_RUNNER_POCKET
10
0
20
11200.175
30
0
0
VERTEX
8
DRAWER_RUNNER_POCKET
10
15
20
11200.175
30
0
0
VERTEX
8
DRAWER_RUNNER_POCKET
10
15
20
11710.175
30
0
0
VERTEX
8
DRAWER_RUNNER_POCKET
10
0
20
11710.175
30
0
0
SEQEND
8
DRAWER_RUNNER_POCKET
0
POLYLINE
8
DRAWER_BOTTOM_POCKET
66
1
70
1
10
0
20
0
30
0
0
VERTEX
8
DRAWER_BOTTOM_POCKET
10
15
20
11200.175
30
0
0
VERTEX
8
DRAWER_BOTTOM_POCKET
10
34
20
11200.175
30
0
0
VERTEX
8
DRAWER_BOTTOM_POCKET
10
34
20
11710.175
30
0
0
VERTEX
8
DRAWER_BOTTOM_POCKET
10
15
20
11710.175
30
0
0
SEQEND
8
DRAWER_BOTTOM_POCKET
0
TEXT
8
UNIT_NUMBER
10
118.5
20
11476.335714
30
0
40
16.928571
1
DR01
72
1
11
118.5
21
11476.335714
31
0
73
2
0
TEXT
8
UNIT_NUMBER
10
118.5
20
11455.175
30
0
40
16.928571
1
D1-SR
72
1
11
118.5
21
11455.175
31
0
73
2
0
TEXT
8
UNIT_NUMBER
10
118.5
20
11434.014286
30
0
40
16.928571
1
490x237
72
1
11
118.5
21
11434.014286
31
0
73
2
0
POLYLINE
8
OUTLINE
66
1
70
1
10
0
20
0
30
0
0
VERTEX
8
OUTLINE
10
287
20
11210.175
30
0
0
VERTEX
8
OUTLINE
10
465
20
11210.175
30
0
0
VERTEX
8
OUTLINE
10
465
20
11700.175
30
0
0
VERTEX
8
OUTLINE
10
287
20
11700.175
30
0
0
SEQEND
8
OUTLINE
0
POLYLINE
8
DRAWER_RUNNER_POCKET
66
1
70
1
10
0
20
0
30
0
0
VERTEX
8
DRAWER_RUNNER_POCKET
10
287
20
11200.175
30
0
0
VERTEX
8
DRAWER_RUNNER_POCKET
10
302
20
11200.175
30
0
0
VERTEX
8
DRAWER_RUNNER_POCKET
10
302
20
11710.175
30
0
0
VERTEX
8
DRAWER_RUNNER_POCKET
10
287
20
11710.175
30
0
0
SEQEND
8
DRAWER_RUNNER_POCKET
0
POLYLINE
8
DRAWER_BOTTOM_POCKET
66
1
70
1
10
0
20
0
30
0
0
VERTEX
8
DRAWER_BOTTOM_POCKET
10
302
20
11200.175
30
0
0
VERTEX
8
DRAWER_BOTTOM_POCKET
10
321
20
11200.175
30
0
0
VERTEX
8
DRAWER_BOTTOM_POCKET
10
321
20
11710.175
30
0
0
VERTEX
8
DRAWER_BOTTOM_POCKET
10
302
20
11710.175
30
0
0
SEQEND
8
DRAWER_BOTTOM_POCKET
0
TEXT
8
UNIT_NUMBER
10
376
20
11471.067857
30
0
40
12.714286
1
DR01
72
1
11
376
21
11471.067857
31
0
73
2
0
TEXT
8
UNIT_NUMBER
10
376
20
11455.175
30
0
40
12.714286
1
D2-SL
72
1
11
376
21
11455.175
31
0
73
2
0
TEXT
8
UNIT_NUMBER
10
376
20
11439.282143
30
0
40
12.714286
1
490x178
72
1
11
376
21
11439.282143
31
0
73
2
0
POLYLINE
8
OUTLINE
66
1
70
1
10
0
20
0
30
0
0
VERTEX
8
OUTLINE
10
515
20
11210.175
30
0
0
VERTEX
8
OUTLINE
10
693
20
11210.175
30
0
0
VERTEX
8
OUTLINE
10
693
20
11700.175
30
0
0
VERTEX
8
OUTLINE
10
515
20
11700.175
30
0
0
SEQEND
8
OUTLINE
0
POLYLINE
8
DRAWER_RUNNER_POCKET
66
1
70
1
10
0
20
0
30
0
0
VERTEX
8
DRAWER_RUNNER_POCKET
10
515
20
11200.175
30
0
0
VERTEX
8
DRAWER_RUNNER_POCKET
10
530
20
11200.175
30
0
0
VERTEX
8
DRAWER_RUNNER_POCKET
10
530
20
11710.175
30
0
0
VERTEX
8
DRAWER_RUNNER_POCKET
10
515
20
11710.175
30
0
0
SEQEND
8
DRAWER_RUNNER_POCKET
0
POLYLINE
8
DRAWER_BOTTOM_POCKET
66
1
70
1
10
0
20
0
30
0
0
VERTEX
8
DRAWER_BOTTOM_POCKET
10
530
20
11200.175
30
0
0
VERTEX
8
DRAWER_BOTTOM_POCKET
10
549
20
11200.175
30
0
0
VERTEX
8
DRAWER_BOTTOM_POCKET
10
549
20
11710.175
30
0
0
VERTEX
8
DRAWER_BOTTOM_POCKET
10
530
20
11710.175
30
0
0
SEQEND
8
DRAWER_BOTTOM_POCKET
0
TEXT
8
UNIT_NUMBER
10
604
20
11471.067857
30
0
40
12.714286
1
DR01
72
1
11
604
21
11471.067857
31
0
73
2
0
TEXT
8
UNIT_NUMBER
10
604
20
11455.175
30
0
40
12.714286
1
D2-SR
72
1
11
604
21
11455.175
31
0
73
2
0
TEXT
8
UNIT_NUMBER
10
604
20
11439.282143
30
0
40
12.714286
1
490x178
72
1
11
604
21
11439.282143
31
0
73
2
0
POLYLINE
8
OUTLINE
66
1
70
1
10
0
20
0
30
0
0
VERTEX
8
OUTLINE
10
743
20
11210.175
30
0
0
VERTEX
8
OUTLINE
10
861
20
11210.175
30
0
0
VERTEX
8
OUTLINE
10
861
20
11700.175
30
0
0
VERTEX
8
OUTLINE
10
743
20
11700.175
30
0
0
SEQEND
8
OUTLINE
0
POLYLINE
8
DRAWER_RUNNER_POCKET
66
1
70
1
10
0
20
0
30
0
0
VERTEX
8
DRAWER_RUNNER_POCKET
10
743
20
11200.175
30
0
0
VERTEX
8
DRAWER_RUNNER_POCKET
10
758
20
11200.175
30
0
0
VERTEX
8
DRAWER_RUNNER_POCKET
10
758
20
11710.175
30
0
0
VERTEX
8
DRAWER_RUNNER_POCKET
10
743
20
11710.175
30
0
0
SEQEND
8
DRAWER_RUNNER_POCKET
0
POLYLINE
8
DRAWER_BOTTOM_POCKET
66
1
70
1
10
0
20
0
30
0
0
VERTEX
8
DRAWER_BOTTOM_POCKET
10
758
20
11200.175
30
0
0
VERTEX
8
DRAWER_BOTTOM_POCKET
10
777
20
11200.175
30
0
0
VERTEX
8
DRAWER_BOTTOM_POCKET
10
777
20
11710.175
30
0
0
VERTEX
8
DRAWER_BOTTOM_POCKET
10
758
20
11710.175
30
0
0
SEQEND
8
DRAWER_BOTTOM_POCKET
0
TEXT
8
UNIT_NUMBER
10
802
20
11465.710714
30
0
40
8.428571
1
DR01
72
1
11
802
21
11465.710714
31
0
73
2
0
TEXT
8
UNIT_NUMBER
10
802
20
11455.175
30
0
40
8.428571
1
D3-SL
72
1
11
802
21
11455.175
31
0
73
2
0
TEXT
8
UNIT_NUMBER
10
802
20
11444.639286
30
0
40
8.428571
1
490x118
72
1
11
802
21
11444.639286
31
0
73
2
0
POLYLINE
8
OUTLINE
66
1
70
1
10
0
20
0
30
0
0
VERTEX
8
OUTLINE
10
911
20
11210.175
30
0
0
VERTEX
8
OUTLINE
10
1029
20
11210.175
30
0
0
VERTEX
8
OUTLINE
10
1029
20
11700.175
30
0
0
VERTEX
8
OUTLINE
10
911
20
11700.175
30
0
0
SEQEND
8
OUTLINE
0
POLYLINE
8
DRAWER_RUNNER_POCKET
66
1
70
1
10
0
20
0
30
0
0
VERTEX
8
DRAWER_RUNNER_POCKET
10
911
20
11200.175
30
0
0
VERTEX
8
DRAWER_RUNNER_POCKET
10
926
20
11200.175
30
0
0
VERTEX
8
DRAWER_RUNNER_POCKET
10
926
20
11710.175
30
0
0
VERTEX
8
DRAWER_RUNNER_POCKET
10
911
20
11710.175
30
0
0
SEQEND
8
DRAWER_RUNNER_POCKET
0
POLYLINE
8
DRAWER_BOTTOM_POCKET
66
1
70
1
10
0
20
0
30
0
0
VERTEX
8
DRAWER_BOTTOM_POCKET
10
926
20
11200.175
30
0
0
VERTEX
8
DRAWER_BOTTOM_POCKET
10
945
20
11200.175
30
0
0
VERTEX
8
DRAWER_BOTTOM_POCKET
10
945
20
11710.175
30
0
0
VERTEX
8
DRAWER_BOTTOM_POCKET
10
926
20
11710.175
30
0
0
SEQEND
8
DRAWER_BOTTOM_POCKET
0
TEXT
8
UNIT_NUMBER
10
970
20
11465.710714
30
0
40
8.428571
1
DR01
72
1
11
970
21
11465.710714
31
0
73
2
0
TEXT
8
UNIT_NUMBER
10
970
20
11455.175
30
0
40
8.428571
1
D3-SR
72
1
11
970
21
11455.175
31
0
73
2
0
TEXT
8
UNIT_NUMBER
10
970
20
11444.639286
30
0
40
8.428571
1
490x118
72
1
11
970
21
11444.639286
31
0
73
2
0
POLYLINE
8
OUTLINE
66
1
70
1
10
0
20
0
30
0
0
VERTEX
8
OUTLINE
10
1079
20
11192.175
30
0
0
VERTEX
8
OUTLINE
10
1282
20
11192.175
30
0
0
VERTEX
8
OUTLINE
10
1282
20
11710.175
30
0
0
VERTEX
8
OUTLINE
10
1079
20
11710.175
30
0
0
SEQEND
8
OUTLINE
0
CIRCLE
8
SCREWS_3MM
10
1129
20
11242.175
30
0
40
1.5
0
CIRCLE
8
SCREWS_3MM
10
1129
20
11660.175
30
0
40
1.5
0
TEXT
8
UNIT_NUMBER
10
1180.5
20
11469.3
30
0
40
14.5
1
DR01
72
1
11
1180.5
21
11469.3
31
0
73
2
0
TEXT
8
UNIT_NUMBER
10
1180.5
20
11451.175
30
0
40
14.5
1
D1-BF
72
1
11
1180.5
21
11451.175
31
0
73
2
0
TEXT
8
UNIT_NUMBER
10
1180.5
20
11433.05
30
0
40
14.5
1
518x203
72
1
11
1180.5
21
11433.05
31
0
73
2
0
POLYLINE
8
OUTLINE
66
1
70
1
10
0
20
0
30
0
0
VERTEX
8
OUTLINE
10
1332
20
11192.175
30
0
0
VERTEX
8
OUTLINE
10
1535
20
11192.175
30
0
0
VERTEX
8
OUTLINE
10
1535
20
11710.175
30
0
0
VERTEX
8
OUTLINE
10
1332
20
11710.175
30
0
0
SEQEND
8
OUTLINE
0
TEXT
8
UNIT_NUMBER
10
1433.5
20
11469.3
30
0
40
14.5
1
DR01
72
1
11
1433.5
21
11469.3
31
0
73
2
0
TEXT
8
UNIT_NUMBER
10
1433.5
20
11451.175
30
0
40
14.5
1
D1-BB
72
1
11
1433.5
21
11451.175
31
0
73
2
0
TEXT
8
UNIT_NUMBER
10
1433.5
20
11433.05
30
0
40
14.5
1
518x203
72
1
11
1433.5
21
11433.05
31
0
73
2
0
POLYLINE
8
OUTLINE
66
1
70
1
10
0
20
0
30
0
0
VERTEX
8
OUTLINE
10
1585
20
11192.175
30
0
0
VERTEX
8
OUTLINE
10
1729
20
11192.175
30
0
0
VERTEX
8
OUTLINE
10
1729
20
11710.175
30
0
0
VERTEX
8
OUTLINE
10
1585
20
11710.175
30
0
0
SEQEND
8
OUTLINE
0
CIRCLE
8
SCREWS_3MM
10
1635
20
11242.175
30
0
40
1.5
0
CIRCLE
8
SCREWS_3MM
10
1635
20
11660.175
30
0
40
1.5
0
TEXT
8
UNIT_NUMBER
10
1657
20
11464.032143
30
0
40
10.285714
1
DR01
72
1
11
1657
21
11464.032143
31
0
73
2
0
TEXT
8
UNIT_NUMBER
10
1657
20
11451.175
30
0
40
10.285714
1
D2-BF
72
1
11
1657
21
11451.175
31
0
73
2
0
TEXT
8
UNIT_NUMBER
10
1657
20
11438.317857
30
0
40
10.285714
1
518x144
72
1
11
1657
21
11438.317857
31
0
73
2
0
POLYLINE
8
OUTLINE
66
1
70
1
10
0
20
0
30
0
0
VERTEX
8
OUTLINE
10
1779
20
11192.175
30
0
0
VERTEX
8
OUTLINE
10
1923
20
11192.175
30
0
0
VERTEX
8
OUTLINE
10
1923
20
11710.175
30
0
0
VERTEX
8
OUTLINE
10
1779
20
11710.175
30
0
0
SEQEND
8
OUTLINE
0
TEXT
8
UNIT_NUMBER
10
1851
20
11464.032143
30
0
40
10.285714
1
DR01
72
1
11
1851
21
11464.032143
31
0
73
2
0
TEXT
8
UNIT_NUMBER
10
1851
20
11451.175
30
0
40
10.285714
1
D2-BB
72
1
11
1851
21
11451.175
31
0
73
2
0
TEXT
8
UNIT_NUMBER
10
1851
20
11438.317857
30
0
40
10.285714
1
518x144
72
1
11
1851
21
11438.317857
31
0
73
2
0
POLYLINE
8
OUTLINE
66
1
70
1
10
0
20
0
30
0
0
VERTEX
8
OUTLINE
10
1973
20
11192.175
30
0
0
VERTEX
8
OUTLINE
10
2057
20
11192.175
30
0
0
VERTEX
8
OUTLINE
10
2057
20
11710.175
30
0
0
VERTEX
8
OUTLINE
10
1973
20
11710.175
30
0
0
SEQEND
8
OUTLINE
0
CIRCLE
8
SCREWS_3MM
10
2023
20
11242.175
30
0
40
1.5
0
CIRCLE
8
SCREWS_3MM
10
2023
20
11660.175
30
0
40
1.5
0
TEXT
8
UNIT_NUMBER
10
2015
20
11459.925
30
0
40
7
1
DR01
72
1
11
2015
21
11459.925
31
0
73
2
0
TEXT
8
UNIT_NUMBER
10
2015
20
11451.175
30
0
40
7
1
D3-BF
72
1
11
2015
21
11451.175
31
0
73
2
0
TEXT
8
UNIT_NUMBER
10
2015
20
11442.425
30
0
40
7
1
518x84
72
1
11
2015
21
11442.425
31
0
73
2
0
POLYLINE
8
OUTLINE
66
1
70
1
10
0
20
0
30
0
0
VERTEX
8
OUTLINE
10
2107
20
11192.175
30
0
0
VERTEX
8
OUTLINE
10
2191
20
11192.175
30
0
0
VERTEX
8
OUTLINE
10
2191
20
11710.175
30
0
0
VERTEX
8
OUTLINE
10
2107
20
11710.175
30
0
0
SEQEND
8
OUTLINE
0
TEXT
8
UNIT_NUMBER
10
2149
20
11459.925
30
0
40
7
1
DR01
72
1
11
2149
21
11459.925
31
0
73
2
0
TEXT
8
UNIT_NUMBER
10
2149
20
11451.175
30
0
40
7
1
D3-BB
72
1
11
2149
21
11451.175
31
0
73
2
0
TEXT
8
UNIT_NUMBER
10
2149
20
11442.425
30
0
40
7
1
518x84
72
1
11
2149
21
11442.425
31
0
73
2
0
POLYLINE
8
OUTLINE
66
1
70
1
10
0
20
0
30
0
0
VERTEX
8
OUTLINE
10
2731
20
11179.175
30
0
0
VERTEX
8
OUTLINE
10
2731
20
11710.175
30
0
0
VERTEX
8
OUTLINE
10
2241
20
11710.175
30
0
0
VERTEX
8
OUTLINE
10
2241
20
11179.175
30
0
0
SEQEND
8
OUTLINE
0
CIRCLE
8
SCREWS_3MM
10
2722
20
11249.175
30
0
40
1.5
0
CIRCLE
8
SCREWS_3MM
10
2250
20
11249.175
30
0
40
1.5
0
CIRCLE
8
SCREWS_3MM
10
2722
20
11640.175
30
0
40
1.5
0
CIRCLE
8
SCREWS_3MM
10
2250
20
11640.175
30
0
40
1.5
0
TEXT
8
UNIT_NUMBER
10
2461
20
11444.675
30
0
40
20
1
DR01
50
90
72
1
11
2461
21
11444.675
31
0
73
2
0
TEXT
8
UNIT_NUMBER
10
2486
20
11444.675
30
0
40
20
1
D1-DNO
50
90
72
1
11
2486
21
11444.675
31
0
73
2
0
TEXT
8
UNIT_NUMBER
10
2511
20
11444.675
30
0
40
20
1
531x490
50
90
72
1
11
2511
21
11444.675
31
0
73
2
0
POLYLINE
8
OUTLINE
66
1
70
1
10
0
20
0
30
0
0
VERTEX
8
OUTLINE
10
3271
20
11179.175
30
0
0
VERTEX
8
OUTLINE
10
3271
20
11710.175
30
0
0
VERTEX
8
OUTLINE
10
2781
20
11710.175
30
0
0
VERTEX
8
OUTLINE
10
2781
20
11179.175
30
0
0
SEQEND
8
OUTLINE
0
CIRCLE
8
SCREWS_3MM
10
3262
20
11249.175
30
0
40
1.5
0
CIRCLE
8
SCREWS_3MM
10
2790
20
11249.175
30
0
40
1.5
0
CIRCLE
8
SCREWS_3MM
10
3262
20
11640.175
30
0
40
1.5
0
CIRCLE
8
SCREWS_3MM
10
2790
20
11640.175
30
0
40
1.5
0
TEXT
8
UNIT_NUMBER
10
3001
20
11444.675
30
0
40
20
1
DR01
50
90
72
1
11
3001
21
11444.675
31
0
73
2
0
TEXT
8
UNIT_NUMBER
10
3026
20
11444.675
30
0
40
20
1
D2-DNO
50
90
72
1
11
3026
21
11444.675
31
0
73
2
0
TEXT
8
UNIT_NUMBER
10
3051
20
11444.675
30
0
40
20
1
531x490
50
90
72
1
11
3051
21
11444.675
31
0
73
2
0
POLYLINE
8
OUTLINE
66
1
70
1
10
0
20
0
30
0
0
VERTEX
8
OUTLINE
10
490
20
10598.175
30
0
0
VERTEX
8
OUTLINE
10
490
20
11129.175
30
0
0
VERTEX
8
OUTLINE
10
0
20
11129.175
30
0
0
VERTEX
8
OUTLINE
10
0
20
10598.175
30
0
0
SEQEND
8
OUTLINE
0
CIRCLE
8
SCREWS_3MM
10
481
20
10668.175
30
0
40
1.5
0
CIRCLE
8
SCREWS_3MM
10
9
20
10668.175
30
0
40
1.5
0
CIRCLE
8
SCREWS_3MM
10
481
20
11059.175
30
0
40
1.5
0
CIRCLE
8
SCREWS_3MM
10
9
20
11059.175
30
0
40
1.5
0
TEXT
8
UNIT_NUMBER
10
220
20
10863.675
30
0
40
20
1
DR01
50
90
72
1
11
220
21
10863.675
31
0
73
2
0
TEXT
8
UNIT_NUMBER
10
245
20
10863.675
30
0
40
20
1
D3-DNO
50
90
72
1
11
245
21
10863.675
31
0
73
2
0
TEXT
8
UNIT_NUMBER
10
270
20
10863.675
30
0
40
20
1
531x490
50
90
72
1
11
270
21
10863.675
31
0
73
2
0
POLYLINE
8
OUTLINE
66
1
70
1
10
0
20
0
30
0
0
VERTEX
8
OUTLINE
10
878
20
10532.175
30
0
0
VERTEX
8
OUTLINE
10
878
20
11129.175
30
0
0
VERTEX
8
OUTLINE
10
540
20
11129.175
30
0
0
VERTEX
8
OUTLINE
10
540
20
10532.175
30
0
0
SEQEND
8
OUTLINE
0
POLYLINE
8
SHAKER_PANEL_POCKET
66
1
70
1
10
0
20
0
30
0
0
VERTEX
8
SHAKER_PANEL_POCKET
10
600
20
10592.175
30
0
0
VERTEX
8
SHAKER_PANEL_POCKET
10
600
20
11069.175
30
0
0
VERTEX
8
SHAKER_PANEL_POCKET
10
818
20
11069.175
30
0
0
VERTEX
8
SHAKER_PANEL_POCKET
10
818
20
10592.175
30
0
0
SEQEND
8
SHAKER_PANEL_POCKET
0
CIRCLE
8
FRONT_HINGES_3MM
10
763.5
20
10621.675
30
0
40
1.5
0
CIRCLE
8
FRONT_HINGES_3MM
10
763.5
20
11039.675
30
0
40
1.5
0
TEXT
8
UNIT_NUMBER
10
696.5
20
10830.675
30
0
40
20
1
DR01 F1
50
90
72
1
11
696.5
21
10830.675
31
0
73
2
0
TEXT
8
UNIT_NUMBER
10
721.5
20
10830.675
30
0
40
20
1
597x338
50
90
72
1
11
721.5
21
10830.675
31
0
73
2
0
POLYLINE
8
OUTLINE
66
1
70
1
10
0
20
0
30
0
0
VERTEX
8
OUTLINE
10
1182
20
10532.175
30
0
0
VERTEX
8
OUTLINE
10
1182
20
11129.175
30
0
0
VERTEX
8
OUTLINE
10
928
20
11129.175
30
0
0
VERTEX
8
OUTLINE
10
928
20
10532.175
30
0
0
SEQEND
8
OUTLINE
0
POLYLINE
8
SHAKER_PANEL_POCKET
66
1
70
1
10
0
20
0
30
0
0
VERTEX
8
SHAKER_PANEL_POCKET
10
988
20
10592.175
30
0
0
VERTEX
8
SHAKER_PANEL_POCKET
10
988
20
11069.175
30
0
0
VERTEX
8
SHAKER_PANEL_POCKET
10
1122
20
11069.175
30
0
0
VERTEX
8
SHAKER_PANEL_POCKET
10
1122
20
10592.175
30
0
0
SEQEND
8
SHAKER_PANEL_POCKET
0
CIRCLE
8
FRONT_HINGES_3MM
10
1085.5
20
10621.675
30
0
40
1.5
0
CIRCLE
8
FRONT_HINGES_3MM
10
1085.5
20
11039.675
30
0
40
1.5
0
TEXT
8
UNIT_NUMBER
10
1042.5
20
10830.675
30
0
40
20
1
DR01 F2
50
90
72
1
11
1042.5
21
10830.675
31
0
73
2
0
TEXT
8
UNIT_NUMBER
10
1067.5
20
10830.675
30
0
40
20
1
597x254
50
90
72
1
11
1067.5
21
10830.675
31
0
73
2
0
POLYLINE
8
OUTLINE
66
1
70
1
10
0
20
0
30
0
0
VERTEX
8
OUTLINE
10
1401
20
10532.175
30
0
0
VERTEX
8
OUTLINE
10
1401
20
11129.175
30
0
0
VERTEX
8
OUTLINE
10
1232
20
11129.175
30
0
0
VERTEX
8
OUTLINE
10
1232
20
10532.175
30
0
0
SEQEND
8
OUTLINE
0
CIRCLE
8
FRONT_HINGES_3MM
10
1304.5
20
10621.675
30
0
40
1.5
0
CIRCLE
8
FRONT_HINGES_3MM
10
1304.5
20
11039.675
30
0
40
1.5
0
TEXT
8
UNIT_NUMBER
10
1304
20
10830.675
30
0
40
20
1
DR01 F3
50
90
72
1
11
1304
21
10830.675
31
0
73
2
0
TEXT
8
UNIT_NUMBER
10
1329
20
10830.675
30
0
40
20
1
597x169
50
90
72
1
11
1329
21
10830.675
31
0
73
2
0
POLYLINE
8
OUTLINE
66
1
70
1
10
0
20
0
30
0
0
VERTEX
8
OUTLINE
10
0
20
8250.175
30
0
0
VERTEX
8
OUTLINE
10
540
20
8250.175
30
0
0
VERTEX
8
OUTLINE
10
540
20
8320.175
30
0
0
VERTEX
8
OUTLINE
10
540
20
8326.175
30
0
0
VERTEX
8
OUTLINE
10
553
20
8326.175
30
0
0
VERTEX
8
OUTLINE
10
553
20
8320.175
30
0
0
VERTEX
8
OUTLINE
10
558
20
8320.175
30
0
0
VERTEX
8
OUTLINE
10
558
20
8370.175
30
0
0
VERTEX
8
OUTLINE
10
553
20
8370.175
30
0
0
VERTEX
8
OUTLINE
10
553
20
8364.175
30
0
0
VERTEX
8
OUTLINE
10
540
20
8364.175
30
0
0
VERTEX
8
OUTLINE
10
540
20
8370.175
30
0
0
VERTEX
8
OUTLINE
10
540
20
9300.175
30
0
0
VERTEX
8
OUTLINE
10
540
20
9306.175
30
0
0
VERTEX
8
OUTLINE
10
553
20
9306.175
30
0
0
VERTEX
8
OUTLINE
10
553
20
9300.175
30
0
0
VERTEX
8
OUTLINE
10
558
20
9300.175
30
0
0
VERTEX
8
OUTLINE
10
558
20
9350.175
30
0
0
VERTEX
8
OUTLINE
10
553
20
9350.175
30
0
0
VERTEX
8
OUTLINE
10
553
20
9344.175
30
0
0
VERTEX
8
OUTLINE
10
540
20
9344.175
30
0
0
VERTEX
8
OUTLINE
10
540
20
9350.175
30
0
0
VERTEX
8
OUTLINE
10
540
20
10280.175
30
0
0
VERTEX
8
OUTLINE
10
540
20
10286.175
30
0
0
VERTEX
8
OUTLINE
10
553
20
10286.175
30
0
0
VERTEX
8
OUTLINE
10
553
20
10280.175
30
0
0
VERTEX
8
OUTLINE
10
558
20
10280.175
30
0
0
VERTEX
8
OUTLINE
10
558
20
10330.175
30
0
0
VERTEX
8
OUTLINE
10
553
20
10330.175
30
0
0
VERTEX
8
OUTLINE
10
553
20
10324.175
30
0
0
VERTEX
8
OUTLINE
10
540
20
10324.175
30
0
0
VERTEX
8
OUTLINE
10
540
20
10330.175
30
0
0
VERTEX
8
OUTLINE
10
540
20
10382.175
30
0
0
VERTEX
8
OUTLINE
10
0
20
10382.175
30
0
0
SEQEND
8
OUTLINE
0
POLYLINE
8
PUZZLE_DOG_BONES
66
1
70
1
10
0
20
0
30
0
0
VERTEX
8
PUZZLE_DOG_BONES
10
540
20
8315.175
30
0
0
VERTEX
8
PUZZLE_DOG_BONES
10
558
20
8315.175
30
0
0
VERTEX
8
PUZZLE_DOG_BONES
10
558
20
8375.175
30
0
0
VERTEX
8
PUZZLE_DOG_BONES
10
540
20
8375.175
30
0
0
SEQEND
8
PUZZLE_DOG_BONES
0
POLYLINE
8
PUZZLE_DOG_BONES
66
1
70
1
10
0
20
0
30
0
0
VERTEX
8
PUZZLE_DOG_BONES
10
540
20
9295.175
30
0
0
VERTEX
8
PUZZLE_DOG_BONES
10
558
20
9295.175
30
0
0
VERTEX
8
PUZZLE_DOG_BONES
10
558
20
9355.175
30
0
0
VERTEX
8
PUZZLE_DOG_BONES
10
540
20
9355.175
30
0
0
SEQEND
8
PUZZLE_DOG_BONES
0
POLYLINE
8
PUZZLE_DOG_BONES
66
1
70
1
10
0
20
0
30
0
0
VERTEX
8
PUZZLE_DOG_BONES
10
540
20
10275.175
30
0
0
VERTEX
8
PUZZLE_DOG_BONES
10
558
20
10275.175
30
0
0
VERTEX
8
PUZZLE_DOG_BONES
10
558
20
10335.175
30
0
0
VERTEX
8
PUZZLE_DOG_BONES
10
540
20
10335.175
30
0
0
SEQEND
8
PUZZLE_DOG_BONES
0
POLYLINE
8
PUZZLE_SOCKET
66
1
70
1
10
0
20
0
30
0
0
VERTEX
8
PUZZLE_SOCKET
10
69.5
20
8244.175
30
0
0
VERTEX
8
PUZZLE_SOCKET
10
120.5
20
8244.175
30
0
0
VERTEX
8
PUZZLE_SOCKET
10
120.5
20
8259.175
30
0
0
VERTEX
8
PUZZLE_SOCKET
10
69.5
20
8259.175
30
0
0
SEQEND
8
PUZZLE_SOCKET
0
POLYLINE
8
PUZZLE_SOCKET
66
1
70
1
10
0
20
0
30
0
0
VERTEX
8
PUZZLE_SOCKET
10
419.5
20
8244.175
30
0
0
VERTEX
8
PUZZLE_SOCKET
10
470.5
20
8244.175
30
0
0
VERTEX
8
PUZZLE_SOCKET
10
470.5
20
8259.175
30
0
0
VERTEX
8
PUZZLE_SOCKET
10
419.5
20
8259.175
30
0
0
SEQEND
8
PUZZLE_SOCKET
0
CIRCLE
8
PUZZLE_HOLES_7_5MM
10
70.5
20
8258.175
30
0
40
3.75
0
CIRCLE
8
PUZZLE_HOLES_7_5MM
10
119.5
20
8258.175
30
0
40
3.75
0
CIRCLE
8
PUZZLE_HOLES_7_5MM
10
420.5
20
8258.175
30
0
40
3.75
0
CIRCLE
8
PUZZLE_HOLES_7_5MM
10
469.5
20
8258.175
30
0
40
3.75
0
CIRCLE
8
SCREWS_3MM
10
50
20
8259.175
30
0
40
1.5
0
CIRCLE
8
SCREWS_3MM
10
270
20
8259.175
30
0
40
1.5
0
CIRCLE
8
SCREWS_3MM
10
490
20
8259.175
30
0
40
1.5
0
CIRCLE
8
RUNNERS_3MM
10
112
20
8306.175
30
0
40
1.5
0
CIRCLE
8
RUNNERS_3MM
10
144
20
8306.175
30
0
40
1.5
0
CIRCLE
8
RUNNERS_3MM
10
368
20
8306.175
30
0
40
1.5
0
CIRCLE
8
RUNNERS_3MM
10
112
20
8509.175
30
0
40
1.5
0
CIRCLE
8
RUNNERS_3MM
10
144
20
8509.175
30
0
40
1.5
0
CIRCLE
8
RUNNERS_3MM
10
368
20
8509.175
30
0
40
1.5
0
CIRCLE
8
SCREWS_3MM
10
50
20
8705.175
30
0
40
1.5
0
CIRCLE
8
SCREWS_3MM
10
270
20
8705.175
30
0
40
1.5
0
CIRCLE
8
SCREWS_3MM
10
490
20
8705.175
30
0
40
1.5
0
TEXT
8
UNIT_NUMBER
10
270
20
9328.675
30
0
40
20
1
W01 BUL
72
1
11
270
21
9328.675
31
0
73
2
0
TEXT
8
UNIT_NUMBER
10
270
20
9303.675
30
0
40
20
1
540x2132
72
1
11
270
21
9303.675
31
0
73
2
0
POLYLINE
8
OUTLINE
66
1
70
1
10
0
20
0
30
0
0
VERTEX
8
OUTLINE
10
626
20
8297.175
30
0
0
VERTEX
8
OUTLINE
10
1166
20
8297.175
30
0
0
VERTEX
8
OUTLINE
10
1166
20
10371.5321
30
0
0
VERTEX
8
OUTLINE
10
626
20
10371.5321
30
0
0
VERTEX
8
OUTLINE
10
626
20
10371.175
30
0
0
VERTEX
8
OUTLINE
10
613
20
10371.175
30
0
0
VERTEX
8
OUTLINE
10
613
20
10371.5321
30
0
0
VERTEX
8
OUTLINE
10
608
20
10371.5321
30
0
0
VERTEX
8
OUTLINE
10
608
20
10327.175
30
0
0
VERTEX
8
OUTLINE
10
613
20
10327.175
30
0
0
VERTEX
8
OUTLINE
10
613
20
10333.175
30
0
0
VERTEX
8
OUTLINE
10
626
20
10333.175
30
0
0
VERTEX
8
OUTLINE
10
626
20
10327.175
30
0
0
VERTEX
8
OUTLINE
10
626
20
9397.175
30
0
0
VERTEX
8
OUTLINE
10
626
20
9391.175
30
0
0
VERTEX
8
OUTLINE
10
613
20
9391.175
30
0
0
VERTEX
8
OUTLINE
10
613
20
9397.175
30
0
0
VERTEX
8
OUTLINE
10
608
20
9397.175
30
0
0
VERTEX
8
OUTLINE
10
608
20
9347.175
30
0
0
VERTEX
8
OUTLINE
10
613
20
9347.175
30
0
0
VERTEX
8
OUTLINE
10
613
20
9353.175
30
0
0
VERTEX
8
OUTLINE
10
626
20
9353.175
30
0
0
VERTEX
8
OUTLINE
10
626
20
9347.175
30
0
0
VERTEX
8
OUTLINE
10
626
20
8417.175
30
0
0
VERTEX
8
OUTLINE
10
626
20
8411.175
30
0
0
VERTEX
8
OUTLINE
10
613
20
8411.175
30
0
0
VERTEX
8
OUTLINE
10
613
20
8417.175
30
0
0
VERTEX
8
OUTLINE
10
608
20
8417.175
30
0
0
VERTEX
8
OUTLINE
10
608
20
8367.175
30
0
0
VERTEX
8
OUTLINE
10
613
20
8367.175
30
0
0
VERTEX
8
OUTLINE
10
613
20
8373.175
30
0
0
VERTEX
8
OUTLINE
10
626
20
8373.175
30
0
0
VERTEX
8
OUTLINE
10
626
20
8367.175
30
0
0
SEQEND
8
OUTLINE
0
POLYLINE
8
PUZZLE_DOG_BONES
66
1
70
1
10
0
20
0
30
0
0
VERTEX
8
PUZZLE_DOG_BONES
10
608
20
8362.175
30
0
0
VERTEX
8
PUZZLE_DOG_BONES
10
626
20
8362.175
30
0
0
VERTEX
8
PUZZLE_DOG_BONES
10
626
20
8422.175
30
0
0
VERTEX
8
PUZZLE_DOG_BONES
10
608
20
8422.175
30
0
0
SEQEND
8
PUZZLE_DOG_BONES
0
POLYLINE
8
PUZZLE_DOG_BONES
66
1
70
1
10
0
20
0
30
0
0
VERTEX
8
PUZZLE_DOG_BONES
10
608
20
9342.175
30
0
0
VERTEX
8
PUZZLE_DOG_BONES
10
626
20
9342.175
30
0
0
VERTEX
8
PUZZLE_DOG_BONES
10
626
20
9402.175
30
0
0
VERTEX
8
PUZZLE_DOG_BONES
10
608
20
9402.175
30
0
0
SEQEND
8
PUZZLE_DOG_BONES
0
POLYLINE
8
PUZZLE_DOG_BONES
66
1
70
1
10
0
20
0
30
0
0
VERTEX
8
PUZZLE_DOG_BONES
10
608
20
10322.175
30
0
0
VERTEX
8
PUZZLE_DOG_BONES
10
626
20
10322.175
30
0
0
VERTEX
8
PUZZLE_DOG_BONES
10
626
20
10382.175
30
0
0
VERTEX
8
PUZZLE_DOG_BONES
10
608
20
10382.175
30
0
0
SEQEND
8
PUZZLE_DOG_BONES
0
POLYLINE
8
PUZZLE_SOCKET
66
1
70
1
10
0
20
0
30
0
0
VERTEX
8
PUZZLE_SOCKET
10
695.5
20
8291.175
30
0
0
VERTEX
8
PUZZLE_SOCKET
10
746.5
20
8291.175
30
0
0
VERTEX
8
PUZZLE_SOCKET
10
746.5
20
8306.175
30
0
0
VERTEX
8
PUZZLE_SOCKET
10
695.5
20
8306.175
30
0
0
SEQEND
8
PUZZLE_SOCKET
0
POLYLINE
8
PUZZLE_SOCKET
66
1
70
1
10
0
20
0
30
0
0
VERTEX
8
PUZZLE_SOCKET
10
1045.5
20
8291.175
30
0
0
VERTEX
8
PUZZLE_SOCKET
10
1096.5
20
8291.175
30
0
0
VERTEX
8
PUZZLE_SOCKET
10
1096.5
20
8306.175
30
0
0
VERTEX
8
PUZZLE_SOCKET
10
1045.5
20
8306.175
30
0
0
SEQEND
8
PUZZLE_SOCKET
0
CIRCLE
8
PUZZLE_HOLES_7_5MM
10
696.5
20
8305.175
30
0
40
3.75
0
CIRCLE
8
PUZZLE_HOLES_7_5MM
10
745.5
20
8305.175
30
0
40
3.75
0
CIRCLE
8
PUZZLE_HOLES_7_5MM
10
1046.5
20
8305.175
30
0
40
3.75
0
CIRCLE
8
PUZZLE_HOLES_7_5MM
10
1095.5
20
8305.175
30
0
40
3.75
0
CIRCLE
8
SCREWS_3MM
10
676
20
8306.175
30
0
40
1.5
0
CIRCLE
8
SCREWS_3MM
10
896
20
8306.175
30
0
40
1.5
0
CIRCLE
8
SCREWS_3MM
10
1116
20
8306.175
30
0
40
1.5
0
CIRCLE
8
RUNNERS_3MM
10
1054
20
8353.175
30
0
40
1.5
0
CIRCLE
8
RUNNERS_3MM
10
1022
20
8353.175
30
0
40
1.5
0
CIRCLE
8
RUNNERS_3MM
10
798
20
8353.175
30
0
40
1.5
0
CIRCLE
8
RUNNERS_3MM
10
1054
20
8556.175
30
0
40
1.5
0
CIRCLE
8
RUNNERS_3MM
10
1022
20
8556.175
30
0
40
1.5
0
CIRCLE
8
RUNNERS_3MM
10
798
20
8556.175
30
0
40
1.5
0
CIRCLE
8
SCREWS_3MM
10
676
20
8752.175
30
0
40
1.5
0
CIRCLE
8
SCREWS_3MM
10
896
20
8752.175
30
0
40
1.5
0
CIRCLE
8
SCREWS_3MM
10
1116
20
8752.175
30
0
40
1.5
0
TEXT
8
UNIT_NUMBER
10
896
20
10312.7321
30
0
40
49
1
CUT
72
1
11
896
21
10312.7321
31
0
73
2
0
TEXT
8
UNIT_NUMBER
10
896
20
10251.4821
30
0
40
49
1
28.8 DEG
72
1
11
896
21
10251.4821
31
0
73
2
0
TEXT
8
UNIT_NUMBER
10
896
20
9346.85355
30
0
40
20
1
W01 BUR
72
1
11
896
21
9346.85355
31
0
73
2
0
TEXT
8
UNIT_NUMBER
10
896
20
9321.85355
30
0
40
20
1
540x2074.4
72
1
11
896
21
9321.85355
31
0
73
2
0
POLYLINE
8
OUTLINE
66
1
70
1
10
0
20
0
30
0
0
VERTEX
8
OUTLINE
10
1216
20
9900.3568
30
0
0
VERTEX
8
OUTLINE
10
1756
20
9900.3568
30
0
0
VERTEX
8
OUTLINE
10
1756
20
10382.175
30
0
0
VERTEX
8
OUTLINE
10
1216
20
10382.175
30
0
0
SEQEND
8
OUTLINE
0
TEXT
8
UNIT_NUMBER
10
1486
20
10153.7659
30
0
40
20
1
W01 TOP~
72
1
11
1486
21
10153.7659
31
0
73
2
0
TEXT
8
UNIT_NUMBER
10
1486
20
10128.7659
30
0
40
20
1
481.8x5~
72
1
11
1486
21
10128.7659
31
0
73
2
0
POLYLINE
8
OUTLINE
66
1
70
1
10
0
20
0
30
0
0
VERTEX
8
OUTLINE
10
1806
20
10237.3975
30
0
0
VERTEX
8
OUTLINE
10
2346
20
10237.3975
30
0
0
VERTEX
8
OUTLINE
10
2346
20
10382.175
30
0
0
VERTEX
8
OUTLINE
10
1806
20
10382.175
30
0
0
SEQEND
8
OUTLINE
0
TEXT
8
UNIT_NUMBER
10
2076
20
10339.9827
30
0
40
35.16025
1
BEVEL
72
1
11
2076
21
10339.9827
31
0
73
2
0
TEXT
8
UNIT_NUMBER
10
2076
20
10296.032387
30
0
40
35.16025
1
28.8 DEG BOTH
72
1
11
2076
21
10296.032387
31
0
73
2
0
TEXT
8
UNIT_NUMBER
10
2076
20
10252.082075
30
0
40
35.16025
1
ENDS - 5-AXIS
72
1
11
2076
21
10252.082075
31
0
73
2
0
TEXT
8
UNIT_NUMBER
10
2076
20
10320.644562
30
0
40
17.3733
1
W01 TOP-2
72
1
11
2076
21
10320.644562
31
0
73
2
0
TEXT
8
UNIT_NUMBER
10
2076
20
10298.927937
30
0
40
17.3733
1
144.8x540
72
1
11
2076
21
10298.927937
31
0
73
2
0
POLYLINE
8
OUTLINE
66
1
70
1
10
0
20
0
30
0
0
VERTEX
8
OUTLINE
10
2414
20
9800.175
30
0
0
VERTEX
8
OUTLINE
10
2484
20
9800.175
30
0
0
VERTEX
8
OUTLINE
10
2490
20
9800.175
30
0
0
VERTEX
8
OUTLINE
10
2490
20
9787.175
30
0
0
VERTEX
8
OUTLINE
10
2484
20
9787.175
30
0
0
VERTEX
8
OUTLINE
10
2484
20
9782.175
30
0
0
VERTEX
8
OUTLINE
10
2534
20
9782.175
30
0
0
VERTEX
8
OUTLINE
10
2534
20
9787.175
30
0
0
VERTEX
8
OUTLINE
10
2528
20
9787.175
30
0
0
VERTEX
8
OUTLINE
10
2528
20
9800.175
30
0
0
VERTEX
8
OUTLINE
10
2534
20
9800.175
30
0
0
VERTEX
8
OUTLINE
10
2834
20
9800.175
30
0
0
VERTEX
8
OUTLINE
10
2840
20
9800.175
30
0
0
VERTEX
8
OUTLINE
10
2840
20
9787.175
30
0
0
VERTEX
8
OUTLINE
10
2834
20
9787.175
30
0
0
VERTEX
8
OUTLINE
10
2834
20
9782.175
30
0
0
VERTEX
8
OUTLINE
10
2884
20
9782.175
30
0
0
VERTEX
8
OUTLINE
10
2884
20
9787.175
30
0
0
VERTEX
8
OUTLINE
10
2878
20
9787.175
30
0
0
VERTEX
8
OUTLINE
10
2878
20
9800.175
30
0
0
VERTEX
8
OUTLINE
10
2884
20
9800.175
30
0
0
VERTEX
8
OUTLINE
10
2954
20
9800.175
30
0
0
VERTEX
8
OUTLINE
10
2954
20
10364.175
30
0
0
VERTEX
8
OUTLINE
10
2884
20
10364.175
30
0
0
VERTEX
8
OUTLINE
10
2878
20
10364.175
30
0
0
VERTEX
8
OUTLINE
10
2878
20
10377.175
30
0
0
VERTEX
8
OUTLINE
10
2884
20
10377.175
30
0
0
VERTEX
8
OUTLINE
10
2884
20
10382.175
30
0
0
VERTEX
8
OUTLINE
10
2834
20
10382.175
30
0
0
VERTEX
8
OUTLINE
10
2834
20
10377.175
30
0
0
VERTEX
8
OUTLINE
10
2840
20
10377.175
30
0
0
VERTEX
8
OUTLINE
10
2840
20
10364.175
30
0
0
VERTEX
8
OUTLINE
10
2834
20
10364.175
30
0
0
VERTEX
8
OUTLINE
10
2534
20
10364.175
30
0
0
VERTEX
8
OUTLINE
10
2528
20
10364.175
30
0
0
VERTEX
8
OUTLINE
10
2528
20
10377.175
30
0
0
VERTEX
8
OUTLINE
10
2534
20
10377.175
30
0
0
VERTEX
8
OUTLINE
10
2534
20
10382.175
30
0
0
VERTEX
8
OUTLINE
10
2484
20
10382.175
30
0
0
VERTEX
8
OUTLINE
10
2484
20
10377.175
30
0
0
VERTEX
8
OUTLINE
10
2490
20
10377.175
30
0
0
VERTEX
8
OUTLINE
10
2490
20
10364.175
30
0
0
VERTEX
8
OUTLINE
10
2484
20
10364.175
30
0
0
VERTEX
8
OUTLINE
10
2414
20
10364.175
30
0
0
VERTEX
8
OUTLINE
10
2414
20
10294.175
30
0
0
VERTEX
8
OUTLINE
10
2414
20
10288.175
30
0
0
VERTEX
8
OUTLINE
10
2401
20
10288.175
30
0
0
VERTEX
8
OUTLINE
10
2401
20
10294.175
30
0
0
VERTEX
8
OUTLINE
10
2396
20
10294.175
30
0
0
VERTEX
8
OUTLINE
10
2396
20
10244.175
30
0
0
VERTEX
8
OUTLINE
10
2401
20
10244.175
30
0
0
VERTEX
8
OUTLINE
10
2401
20
10250.175
30
0
0
VERTEX
8
OUTLINE
10
2414
20
10250.175
30
0
0
VERTEX
8
OUTLINE
10
2414
20
10244.175
30
0
0
VERTEX
8
OUTLINE
10
2414
20
9920.175
30
0
0
VERTEX
8
OUTLINE
10
2414
20
9914.175
30
0
0
VERTEX
8
OUTLINE
10
2401
20
9914.175
30
0
0
VERTEX
8
OUTLINE
10
2401
20
9920.175
30
0
0
VERTEX
8
OUTLINE
10
2396
20
9920.175
30
0
0
VERTEX
8
OUTLINE
10
2396
20
9870.175
30
0
0
VERTEX
8
OUTLINE
10
2401
20
9870.175
30
0
0
VERTEX
8
OUTLINE
10
2401
20
9876.175
30
0
0
VERTEX
8
OUTLINE
10
2414
20
9876.175
30
0
0
VERTEX
8
OUTLINE
10
2414
20
9870.175
30
0
0
SEQEND
8
OUTLINE
0
POLYLINE
8
PUZZLE_DOG_BONES
66
1
70
1
10
0
20
0
30
0
0
VERTEX
8
PUZZLE_DOG_BONES
10
2479
20
10364.175
30
0
0
VERTEX
8
PUZZLE_DOG_BONES
10
2539
20
10364.175
30
0
0
VERTEX
8
PUZZLE_DOG_BONES
10
2539
20
10382.175
30
0
0
VERTEX
8
PUZZLE_DOG_BONES
10
2479
20
10382.175
30
0
0
SEQEND
8
PUZZLE_DOG_BONES
0
POLYLINE
8
PUZZLE_DOG_BONES
66
1
70
1
10
0
20
0
30
0
0
VERTEX
8
PUZZLE_DOG_BONES
10
2479
20
9782.175
30
0
0
VERTEX
8
PUZZLE_DOG_BONES
10
2539
20
9782.175
30
0
0
VERTEX
8
PUZZLE_DOG_BONES
10
2539
20
9800.175
30
0
0
VERTEX
8
PUZZLE_DOG_BONES
10
2479
20
9800.175
30
0
0
SEQEND
8
PUZZLE_DOG_BONES
0
POLYLINE
8
PUZZLE_DOG_BONES
66
1
70
1
10
0
20
0
30
0
0
VERTEX
8
PUZZLE_DOG_BONES
10
2829
20
10364.175
30
0
0
VERTEX
8
PUZZLE_DOG_BONES
10
2889
20
10364.175
30
0
0
VERTEX
8
PUZZLE_DOG_BONES
10
2889
20
10382.175
30
0
0
VERTEX
8
PUZZLE_DOG_BONES
10
2829
20
10382.175
30
0
0
SEQEND
8
PUZZLE_DOG_BONES
0
POLYLINE
8
PUZZLE_DOG_BONES
66
1
70
1
10
0
20
0
30
0
0
VERTEX
8
PUZZLE_DOG_BONES
10
2829
20
9782.175
30
0
0
VERTEX
8
PUZZLE_DOG_BONES
10
2889
20
9782.175
30
0
0
VERTEX
8
PUZZLE_DOG_BONES
10
2889
20
9800.175
30
0
0
VERTEX
8
PUZZLE_DOG_BONES
10
2829
20
9800.175
30
0
0
SEQEND
8
PUZZLE_DOG_BONES
0
POLYLINE
8
PUZZLE_DOG_BONES
66
1
70
1
10
0
20
0
30
0
0
VERTEX
8
PUZZLE_DOG_BONES
10
2396
20
9865.175
30
0
0
VERTEX
8
PUZZLE_DOG_BONES
10
2414
20
9865.175
30
0
0
VERTEX
8
PUZZLE_DOG_BONES
10
2414
20
9925.175
30
0
0
VERTEX
8
PUZZLE_DOG_BONES
10
2396
20
9925.175
30
0
0
SEQEND
8
PUZZLE_DOG_BONES
0
POLYLINE
8
PUZZLE_DOG_BONES
66
1
70
1
10
0
20
0
30
0
0
VERTEX
8
PUZZLE_DOG_BONES
10
2396
20
10239.175
30
0
0
VERTEX
8
PUZZLE_DOG_BONES
10
2414
20
10239.175
30
0
0
VERTEX
8
PUZZLE_DOG_BONES
10
2414
20
10299.175
30
0
0
VERTEX
8
PUZZLE_DOG_BONES
10
2396
20
10299.175
30
0
0
SEQEND
8
PUZZLE_DOG_BONES
0
TEXT
8
UNIT_NUMBER
10
2684
20
10107.175
30
0
40
20
1
W01
72
1
11
2684
21
10107.175
31
0
73
2
0
TEXT
8
UNIT_NUMBER
10
2684
20
10082.175
30
0
40
20
1
BOTTOM
72
1
11
2684
21
10082.175
31
0
73
2
0
TEXT
8
UNIT_NUMBER
10
2684
20
10057.175
30
0
40
20
1
564x540
72
1
11
2684
21
10057.175
31
0
73
2
0
POLYLINE
8
OUTLINE
66
1
70
1
10
0
20
0
30
0
0
VERTEX
8
OUTLINE
10
6
20
6038.175
30
0
0
VERTEX
8
OUTLINE
10
606
20
6038.175
30
0
0
VERTEX
8
OUTLINE
10
606
20
8123.175
30
0
0
VERTEX
8
OUTLINE
10
487.8182
20
8188.175
30
0
0
VERTEX
8
OUTLINE
10
6
20
8188.175
30
0
0
SEQEND
8
OUTLINE
0
POLYLINE
8
PUZZLE_SOCKET
66
1
70
1
10
0
20
0
30
0
0
VERTEX
8
PUZZLE_SOCKET
10
0
20
6107.675
30
0
0
VERTEX
8
PUZZLE_SOCKET
10
15
20
6107.675
30
0
0
VERTEX
8
PUZZLE_SOCKET
10
15
20
6158.675
30
0
0
VERTEX
8
PUZZLE_SOCKET
10
0
20
6158.675
30
0
0
SEQEND
8
PUZZLE_SOCKET
0
POLYLINE
8
PUZZLE_SOCKET
66
1
70
1
10
0
20
0
30
0
0
VERTEX
8
PUZZLE_SOCKET
10
0
20
7087.675
30
0
0
VERTEX
8
PUZZLE_SOCKET
10
15
20
7087.675
30
0
0
VERTEX
8
PUZZLE_SOCKET
10
15
20
7138.675
30
0
0
VERTEX
8
PUZZLE_SOCKET
10
0
20
7138.675
30
0
0
SEQEND
8
PUZZLE_SOCKET
0
POLYLINE
8
PUZZLE_SOCKET
66
1
70
1
10
0
20
0
30
0
0
VERTEX
8
PUZZLE_SOCKET
10
0
20
8067.675
30
0
0
VERTEX
8
PUZZLE_SOCKET
10
15
20
8067.675
30
0
0
VERTEX
8
PUZZLE_SOCKET
10
15
20
8118.675
30
0
0
VERTEX
8
PUZZLE_SOCKET
10
0
20
8118.675
30
0
0
SEQEND
8
PUZZLE_SOCKET
0
POLYLINE
8
PUZZLE_SOCKET
66
1
70
1
10
0
20
0
30
0
0
VERTEX
8
PUZZLE_SOCKET
10
597
20
6107.675
30
0
0
VERTEX
8
PUZZLE_SOCKET
10
612
20
6107.675
30
0
0
VERTEX
8
PUZZLE_SOCKET
10
612
20
6158.675
30
0
0
VERTEX
8
PUZZLE_SOCKET
10
597
20
6158.675
30
0
0
SEQEND
8
PUZZLE_SOCKET
0
POLYLINE
8
PUZZLE_SOCKET
66
1
70
1
10
0
20
0
30
0
0
VERTEX
8
PUZZLE_SOCKET
10
597
20
7087.675
30
0
0
VERTEX
8
PUZZLE_SOCKET
10
612
20
7087.675
30
0
0
VERTEX
8
PUZZLE_SOCKET
10
612
20
7138.675
30
0
0
VERTEX
8
PUZZLE_SOCKET
10
597
20
7138.675
30
0
0
SEQEND
8
PUZZLE_SOCKET
0
POLYLINE
8
PUZZLE_SOCKET
66
1
70
1
10
0
20
0
30
0
0
VERTEX
8
PUZZLE_SOCKET
10
597
20
8067.675
30
0
0
VERTEX
8
PUZZLE_SOCKET
10
612
20
8067.675
30
0
0
VERTEX
8
PUZZLE_SOCKET
10
612
20
8118.675
30
0
0
VERTEX
8
PUZZLE_SOCKET
10
597
20
8118.675
30
0
0
SEQEND
8
PUZZLE_SOCKET
0
POLYLINE
8
PUZZLE_SOCKET
66
1
70
1
10
0
20
0
30
0
0
VERTEX
8
PUZZLE_SOCKET
10
93.5
20
8179.175
30
0
0
VERTEX
8
PUZZLE_SOCKET
10
144.5
20
8179.175
30
0
0
VERTEX
8
PUZZLE_SOCKET
10
144.5
20
8194.175
30
0
0
VERTEX
8
PUZZLE_SOCKET
10
93.5
20
8194.175
30
0
0
SEQEND
8
PUZZLE_SOCKET
0
POLYLINE
8
PUZZLE_SOCKET
66
1
70
1
10
0
20
0
30
0
0
VERTEX
8
PUZZLE_SOCKET
10
467.5
20
8179.175
30
0
0
VERTEX
8
PUZZLE_SOCKET
10
518.5
20
8179.175
30
0
0
VERTEX
8
PUZZLE_SOCKET
10
518.5
20
8194.175
30
0
0
VERTEX
8
PUZZLE_SOCKET
10
467.5
20
8194.175
30
0
0
SEQEND
8
PUZZLE_SOCKET
0
POLYLINE
8
PUZZLE_SOCKET
66
1
70
1
10
0
20
0
30
0
0
VERTEX
8
PUZZLE_SOCKET
10
93.5
20
6032.175
30
0
0
VERTEX
8
PUZZLE_SOCKET
10
144.5
20
6032.175
30
0
0
VERTEX
8
PUZZLE_SOCKET
10
144.5
20
6047.175
30
0
0
VERTEX
8
PUZZLE_SOCKET
10
93.5
20
6047.175
30
0
0
SEQEND
8
PUZZLE_SOCKET
0
POLYLINE
8
PUZZLE_SOCKET
66
1
70
1
10
0
20
0
30
0
0
VERTEX
8
PUZZLE_SOCKET
10
467.5
20
6032.175
30
0
0
VERTEX
8
PUZZLE_SOCKET
10
518.5
20
6032.175
30
0
0
VERTEX
8
PUZZLE_SOCKET
10
518.5
20
6047.175
30
0
0
VERTEX
8
PUZZLE_SOCKET
10
467.5
20
6047.175
30
0
0
SEQEND
8
PUZZLE_SOCKET
0
CIRCLE
8
PUZZLE_HOLES_7_5MM
10
14
20
6108.675
30
0
40
3.75
0
CIRCLE
8
PUZZLE_HOLES_7_5MM
10
14
20
6157.675
30
0
40
3.75
0
CIRCLE
8
PUZZLE_HOLES_7_5MM
10
14
20
7088.675
30
0
40
3.75
0
CIRCLE
8
PUZZLE_HOLES_7_5MM
10
14
20
7137.675
30
0
40
3.75
0
CIRCLE
8
PUZZLE_HOLES_7_5MM
10
14
20
8068.675
30
0
40
3.75
0
CIRCLE
8
PUZZLE_HOLES_7_5MM
10
14
20
8117.675
30
0
40
3.75
0
CIRCLE
8
PUZZLE_HOLES_7_5MM
10
598
20
6108.675
30
0
40
3.75
0
CIRCLE
8
PUZZLE_HOLES_7_5MM
10
598
20
6157.675
30
0
40
3.75
0
CIRCLE
8
PUZZLE_HOLES_7_5MM
10
598
20
7088.675
30
0
40
3.75
0
CIRCLE
8
PUZZLE_HOLES_7_5MM
10
598
20
7137.675
30
0
40
3.75
0
CIRCLE
8
PUZZLE_HOLES_7_5MM
10
598
20
8068.675
30
0
40
3.75
0
CIRCLE
8
PUZZLE_HOLES_7_5MM
10
598
20
8117.675
30
0
40
3.75
0
CIRCLE
8
PUZZLE_HOLES_7_5MM
10
94.5
20
8180.175
30
0
40
3.75
0
CIRCLE
8
PUZZLE_HOLES_7_5MM
10
143.5
20
8180.175
30
0
40
3.75
0
CIRCLE
8
PUZZLE_HOLES_7_5MM
10
468.5
20
8180.175
30
0
40
3.75
0
CIRCLE
8
PUZZLE_HOLES_7_5MM
10
94.5
20
6046.175
30
0
40
3.75
0
CIRCLE
8
PUZZLE_HOLES_7_5MM
10
143.5
20
6046.175
30
0
40
3.75
0
CIRCLE
8
PUZZLE_HOLES_7_5MM
10
468.5
20
6046.175
30
0
40
3.75
0
CIRCLE
8
PUZZLE_HOLES_7_5MM
10
517.5
20
6046.175
30
0
40
3.75
0
CIRCLE
8
SCREWS_3MM
10
15
20
6088.175
30
0
40
1.5
0
CIRCLE
8
SCREWS_3MM
10
597
20
6088.175
30
0
40
1.5
0
CIRCLE
8
SCREWS_3MM
10
15
20
6623.175
30
0
40
1.5
0
CIRCLE
8
SCREWS_3MM
10
597
20
6623.175
30
0
40
1.5
0
CIRCLE
8
SCREWS_3MM
10
15
20
7603.175
30
0
40
1.5
0
CIRCLE
8
SCREWS_3MM
10
597
20
7603.175
30
0
40
1.5
0
CIRCLE
8
SCREWS_3MM
10
15
20
8138.175
30
0
40
1.5
0
CIRCLE
8
SCREWS_3MM
10
74
20
8179.175
30
0
40
1.5
0
CIRCLE
8
SCREWS_3MM
10
74
20
6047.175
30
0
40
1.5
0
CIRCLE
8
SCREWS_3MM
10
306
20
8179.175
30
0
40
1.5
0
CIRCLE
8
SCREWS_3MM
10
306
20
6047.175
30
0
40
1.5
0
CIRCLE
8
SCREWS_3MM
10
538
20
6047.175
30
0
40
1.5
0
CIRCLE
8
SCREWS_3MM
10
74
20
6493.175
30
0
40
1.5
0
CIRCLE
8
SCREWS_3MM
10
306
20
6493.175
30
0
40
1.5
0
CIRCLE
8
SCREWS_3MM
10
538
20
6493.175
30
0
40
1.5
0
TEXT
8
UNIT_NUMBER
10
306
20
7125.675
30
0
40
20
1
W01 BACK
72
1
11
306
21
7125.675
31
0
73
2
0
TEXT
8
UNIT_NUMBER
10
306
20
7100.675
30
0
40
20
1
600x2150
72
1
11
306
21
7100.675
31
0
73
2
0
POLYLINE
8
OUTLINE
66
1
70
1
10
0
20
0
30
0
0
VERTEX
8
OUTLINE
10
1182
20
7630.175
30
0
0
VERTEX
8
OUTLINE
10
1182
20
8194.175
30
0
0
VERTEX
8
OUTLINE
10
662
20
8194.175
30
0
0
VERTEX
8
OUTLINE
10
662
20
7630.175
30
0
0
SEQEND
8
OUTLINE
0
TEXT
8
UNIT_NUMBER
10
897
20
7912.175
30
0
40
20
1
W01
50
90
72
1
11
897
21
7912.175
31
0
73
2
0
TEXT
8
UNIT_NUMBER
10
922
20
7912.175
30
0
40
20
1
PARTITION
50
90
72
1
11
922
21
7912.175
31
0
73
2
0
TEXT
8
UNIT_NUMBER
10
947
20
7912.175
30
0
40
20
1
564x520
50
90
72
1
11
947
21
7912.175
31
0
73
2
0
POLYLINE
8
OUTLINE
66
1
70
1
10
0
20
0
30
0
0
VERTEX
8
OUTLINE
10
1396
20
7744.175
30
0
0
VERTEX
8
OUTLINE
10
1396
20
8184.175
30
0
0
VERTEX
8
OUTLINE
10
1232
20
8184.175
30
0
0
VERTEX
8
OUTLINE
10
1232
20
7744.175
30
0
0
SEQEND
8
OUTLINE
0
POLYLINE
8
DRAWER_RUNNER_POCKET
66
1
70
1
10
0
20
0
30
0
0
VERTEX
8
DRAWER_RUNNER_POCKET
10
1396
20
7734.175
30
0
0
VERTEX
8
DRAWER_RUNNER_POCKET
10
1396
20
8194.175
30
0
0
VERTEX
8
DRAWER_RUNNER_POCKET
10
1381
20
8194.175
30
0
0
VERTEX
8
DRAWER_RUNNER_POCKET
10
1381
20
7734.175
30
0
0
SEQEND
8
DRAWER_RUNNER_POCKET
0
POLYLINE
8
DRAWER_BOTTOM_POCKET
66
1
70
1
10
0
20
0
30
0
0
VERTEX
8
DRAWER_BOTTOM_POCKET
10
1381
20
7734.175
30
0
0
VERTEX
8
DRAWER_BOTTOM_POCKET
10
1381
20
8194.175
30
0
0
VERTEX
8
DRAWER_BOTTOM_POCKET
10
1362
20
8194.175
30
0
0
VERTEX
8
DRAWER_BOTTOM_POCKET
10
1362
20
7734.175
30
0
0
SEQEND
8
DRAWER_BOTTOM_POCKET
0
TEXT
8
UNIT_NUMBER
10
1301.7
20
7964.175
30
0
40
19.68
1
W01 D1-S~
50
90
72
1
11
1301.7
21
7964.175
31
0
73
2
0
TEXT
8
UNIT_NUMBER
10
1326.3
20
7964.175
30
0
40
19.68
1
440x164
50
90
72
1
11
1326.3
21
7964.175
31
0
73
2
0
POLYLINE
8
OUTLINE
66
1
70
1
10
0
20
0
30
0
0
VERTEX
8
OUTLINE
10
1610
20
7744.175
30
0
0
VERTEX
8
OUTLINE
10
1610
20
8184.175
30
0
0
VERTEX
8
OUTLINE
10
1446
20
8184.175
30
0
0
VERTEX
8
OUTLINE
10
1446
20
7744.175
30
0
0
SEQEND
8
OUTLINE
0
POLYLINE
8
DRAWER_RUNNER_POCKET
66
1
70
1
10
0
20
0
30
0
0
VERTEX
8
DRAWER_RUNNER_POCKET
10
1610
20
7734.175
30
0
0
VERTEX
8
DRAWER_RUNNER_POCKET
10
1610
20
8194.175
30
0
0
VERTEX
8
DRAWER_RUNNER_POCKET
10
1595
20
8194.175
30
0
0
VERTEX
8
DRAWER_RUNNER_POCKET
10
1595
20
7734.175
30
0
0
SEQEND
8
DRAWER_RUNNER_POCKET
0
POLYLINE
8
DRAWER_BOTTOM_POCKET
66
1
70
1
10
0
20
0
30
0
0
VERTEX
8
DRAWER_BOTTOM_POCKET
10
1595
20
7734.175
30
0
0
VERTEX
8
DRAWER_BOTTOM_POCKET
10
1595
20
8194.175
30
0
0
VERTEX
8
DRAWER_BOTTOM_POCKET
10
1576
20
8194.175
30
0
0
VERTEX
8
DRAWER_BOTTOM_POCKET
10
1576
20
7734.175
30
0
0
SEQEND
8
DRAWER_BOTTOM_POCKET
0
TEXT
8
UNIT_NUMBER
10
1515.7
20
7964.175
30
0
40
19.68
1
W01 D1-S~
50
90
72
1
11
1515.7
21
7964.175
31
0
73
2
0
TEXT
8
UNIT_NUMBER
10
1540.3
20
7964.175
30
0
40
19.68
1
440x164
50
90
72
1
11
1540.3
21
7964.175
31
0
73
2
0
POLYLINE
8
OUTLINE
66
1
70
1
10
0
20
0
30
0
0
VERTEX
8
OUTLINE
10
1790
20
7676.175
30
0
0
VERTEX
8
OUTLINE
10
1790
20
8194.175
30
0
0
VERTEX
8
OUTLINE
10
1660
20
8194.175
30
0
0
VERTEX
8
OUTLINE
10
1660
20
7676.175
30
0
0
SEQEND
8
OUTLINE
0
TEXT
8
UNIT_NUMBER
10
1715.25
20
7935.175
30
0
40
15.6
1
W01 D1-BF
50
90
72
1
11
1715.25
21
7935.175
31
0
73
2
0
TEXT
8
UNIT_NUMBER
10
1734.75
20
7935.175
30
0
40
15.6
1
518x130
50
90
72
1
11
1734.75
21
7935.175
31
0
73
2
0
POLYLINE
8
OUTLINE
66
1
70
1
10
0
20
0
30
0
0
VERTEX
8
OUTLINE
10
1970
20
7676.175
30
0
0
VERTEX
8
OUTLINE
10
1970
20
8194.175
30
0
0
VERTEX
8
OUTLINE
10
1840
20
8194.175
30
0
0
VERTEX
8
OUTLINE
10
1840
20
7676.175
30
0
0
SEQEND
8
OUTLINE
0
TEXT
8
UNIT_NUMBER
10
1895.25
20
7935.175
30
0
40
15.6
1
W01 D1-BB
50
90
72
1
11
1895.25
21
7935.175
31
0
73
2
0
TEXT
8
UNIT_NUMBER
10
1914.75
20
7935.175
30
0
40
15.6
1
518x130
50
90
72
1
11
1914.75
21
7935.175
31
0
73
2
0
POLYLINE
8
OUTLINE
66
1
70
1
10
0
20
0
30
0
0
VERTEX
8
OUTLINE
10
2460
20
7663.175
30
0
0
VERTEX
8
OUTLINE
10
2460
20
8194.175
30
0
0
VERTEX
8
OUTLINE
10
2020
20
8194.175
30
0
0
VERTEX
8
OUTLINE
10
2020
20
7663.175
30
0
0
SEQEND
8
OUTLINE
0
TEXT
8
UNIT_NUMBER
10
2215
20
7928.675
30
0
40
20
1
W01
50
90
72
1
11
2215
21
7928.675
31
0
73
2
0
TEXT
8
UNIT_NUMBER
10
2240
20
7928.675
30
0
40
20
1
D1-DNO
50
90
72
1
11
2240
21
7928.675
31
0
73
2
0
TEXT
8
UNIT_NUMBER
10
2265
20
7928.675
30
0
40
20
1
531x440
50
90
72
1
11
2265
21
7928.675
31
0
73
2
0
POLYLINE
8
OUTLINE
66
1
70
1
10
0
20
0
30
0
0
VERTEX
8
OUTLINE
10
2694
20
7744.175
30
0
0
VERTEX
8
OUTLINE
10
2694
20
8184.175
30
0
0
VERTEX
8
OUTLINE
10
2510
20
8184.175
30
0
0
VERTEX
8
OUTLINE
10
2510
20
7744.175
30
0
0
SEQEND
8
OUTLINE
0
POLYLINE
8
DRAWER_RUNNER_POCKET
66
1
70
1
10
0
20
0
30
0
0
VERTEX
8
DRAWER_RUNNER_POCKET
10
2694
20
7734.175
30
0
0
VERTEX
8
DRAWER_RUNNER_POCKET
10
2694
20
8194.175
30
0
0
VERTEX
8
DRAWER_RUNNER_POCKET
10
2679
20
8194.175
30
0
0
VERTEX
8
DRAWER_RUNNER_POCKET
10
2679
20
7734.175
30
0
0
SEQEND
8
DRAWER_RUNNER_POCKET
0
POLYLINE
8
DRAWER_BOTTOM_POCKET
66
1
70
1
10
0
20
0
30
0
0
VERTEX
8
DRAWER_BOTTOM_POCKET
10
2679
20
7734.175
30
0
0
VERTEX
8
DRAWER_BOTTOM_POCKET
10
2679
20
8194.175
30
0
0
VERTEX
8
DRAWER_BOTTOM_POCKET
10
2660
20
8194.175
30
0
0
VERTEX
8
DRAWER_BOTTOM_POCKET
10
2660
20
7734.175
30
0
0
SEQEND
8
DRAWER_BOTTOM_POCKET
0
TEXT
8
UNIT_NUMBER
10
2589.5
20
7964.175
30
0
40
20
1
W01 D2-S~
50
90
72
1
11
2589.5
21
7964.175
31
0
73
2
0
TEXT
8
UNIT_NUMBER
10
2614.5
20
7964.175
30
0
40
20
1
440x184
50
90
72
1
11
2614.5
21
7964.175
31
0
73
2
0
POLYLINE
8
OUTLINE
66
1
70
1
10
0
20
0
30
0
0
VERTEX
8
OUTLINE
10
2928
20
7744.175
30
0
0
VERTEX
8
OUTLINE
10
2928
20
8184.175
30
0
0
VERTEX
8
OUTLINE
10
2744
20
8184.175
30
0
0
VERTEX
8
OUTLINE
10
2744
20
7744.175
30
0
0
SEQEND
8
OUTLINE
0
POLYLINE
8
DRAWER_RUNNER_POCKET
66
1
70
1
10
0
20
0
30
0
0
VERTEX
8
DRAWER_RUNNER_POCKET
10
2928
20
7734.175
30
0
0
VERTEX
8
DRAWER_RUNNER_POCKET
10
2928
20
8194.175
30
0
0
VERTEX
8
DRAWER_RUNNER_POCKET
10
2913
20
8194.175
30
0
0
VERTEX
8
DRAWER_RUNNER_POCKET
10
2913
20
7734.175
30
0
0
SEQEND
8
DRAWER_RUNNER_POCKET
0
POLYLINE
8
DRAWER_BOTTOM_POCKET
66
1
70
1
10
0
20
0
30
0
0
VERTEX
8
DRAWER_BOTTOM_POCKET
10
2913
20
7734.175
30
0
0
VERTEX
8
DRAWER_BOTTOM_POCKET
10
2913
20
8194.175
30
0
0
VERTEX
8
DRAWER_BOTTOM_POCKET
10
2894
20
8194.175
30
0
0
VERTEX
8
DRAWER_BOTTOM_POCKET
10
2894
20
7734.175
30
0
0
SEQEND
8
DRAWER_BOTTOM_POCKET
0
TEXT
8
UNIT_NUMBER
10
2823.5
20
7964.175
30
0
40
20
1
W01 D2-S~
50
90
72
1
11
2823.5
21
7964.175
31
0
73
2
0
TEXT
8
UNIT_NUMBER
10
2848.5
20
7964.175
30
0
40
20
1
440x184
50
90
72
1
11
2848.5
21
7964.175
31
0
73
2
0
POLYLINE
8
OUTLINE
66
1
70
1
10
0
20
0
30
0
0
VERTEX
8
OUTLINE
10
3128
20
7676.175
30
0
0
VERTEX
8
OUTLINE
10
3128
20
8194.175
30
0
0
VERTEX
8
OUTLINE
10
2978
20
8194.175
30
0
0
VERTEX
8
OUTLINE
10
2978
20
7676.175
30
0
0
SEQEND
8
OUTLINE
0
TEXT
8
UNIT_NUMBER
10
3041.75
20
7935.175
30
0
40
18
1
W01 D2-BF
50
90
72
1
11
3041.75
21
7935.175
31
0
73
2
0
TEXT
8
UNIT_NUMBER
10
3064.25
20
7935.175
30
0
40
18
1
518x150
50
90
72
1
11
3064.25
21
7935.175
31
0
73
2
0
POLYLINE
8
OUTLINE
66
1
70
1
10
0
20
0
30
0
0
VERTEX
8
OUTLINE
10
3328
20
7676.175
30
0
0
VERTEX
8
OUTLINE
10
3328
20
8194.175
30
0
0
VERTEX
8
OUTLINE
10
3178
20
8194.175
30
0
0
VERTEX
8
OUTLINE
10
3178
20
7676.175
30
0
0
SEQEND
8
OUTLINE
0
TEXT
8
UNIT_NUMBER
10
3241.75
20
7935.175
30
0
40
18
1
W01 D2-BB
50
90
72
1
11
3241.75
21
7935.175
31
0
73
2
0
TEXT
8
UNIT_NUMBER
10
3264.25
20
7935.175
30
0
40
18
1
518x150
50
90
72
1
11
3264.25
21
7935.175
31
0
73
2
0
POLYLINE
8
OUTLINE
66
1
70
1
10
0
20
0
30
0
0
VERTEX
8
OUTLINE
10
440
20
5451.175
30
0
0
VERTEX
8
OUTLINE
10
440
20
5982.175
30
0
0
VERTEX
8
OUTLINE
10
0
20
5982.175
30
0
0
VERTEX
8
OUTLINE
10
0
20
5451.175
30
0
0
SEQEND
8
OUTLINE
0
TEXT
8
UNIT_NUMBER
10
195
20
5716.675
30
0
40
20
1
W01
50
90
72
1
11
195
21
5716.675
31
0
73
2
0
TEXT
8
UNIT_NUMBER
10
220
20
5716.675
30
0
40
20
1
D2-DNO
50
90
72
1
11
220
21
5716.675
31
0
73
2
0
TEXT
8
UNIT_NUMBER
10
245
20
5716.675
30
0
40
20
1
531x440
50
90
72
1
11
245
21
5716.675
31
0
73
2
0
POLYLINE
8
OUTLINE
66
1
70
1
10
0
20
0
30
0
0
VERTEX
8
OUTLINE
10
687
20
5424.175
30
0
0
VERTEX
8
OUTLINE
10
687
20
5982.175
30
0
0
VERTEX
8
OUTLINE
10
490
20
5982.175
30
0
0
VERTEX
8
OUTLINE
10
490
20
5424.175
30
0
0
SEQEND
8
OUTLINE
0
POLYLINE
8
SHAKER_PANEL_POCKET
66
1
70
1
10
0
20
0
30
0
0
VERTEX
8
SHAKER_PANEL_POCKET
10
550
20
5484.175
30
0
0
VERTEX
8
SHAKER_PANEL_POCKET
10
550
20
5922.175
30
0
0
VERTEX
8
SHAKER_PANEL_POCKET
10
627
20
5922.175
30
0
0
VERTEX
8
SHAKER_PANEL_POCKET
10
627
20
5484.175
30
0
0
SEQEND
8
SHAKER_PANEL_POCKET
0
TEXT
8
UNIT_NUMBER
10
576
20
5703.175
30
0
40
20
1
W01 DF1
50
90
72
1
11
576
21
5703.175
31
0
73
2
0
TEXT
8
UNIT_NUMBER
10
601
20
5703.175
30
0
40
20
1
558x197
50
90
72
1
11
601
21
5703.175
31
0
73
2
0
POLYLINE
8
OUTLINE
66
1
70
1
10
0
20
0
30
0
0
VERTEX
8
OUTLINE
10
957
20
5424.175
30
0
0
VERTEX
8
OUTLINE
10
957
20
5982.175
30
0
0
VERTEX
8
OUTLINE
10
737
20
5982.175
30
0
0
VERTEX
8
OUTLINE
10
737
20
5424.175
30
0
0
SEQEND
8
OUTLINE
0
POLYLINE
8
SHAKER_PANEL_POCKET
66
1
70
1
10
0
20
0
30
0
0
VERTEX
8
SHAKER_PANEL_POCKET
10
797
20
5484.175
30
0
0
VERTEX
8
SHAKER_PANEL_POCKET
10
797
20
5922.175
30
0
0
VERTEX
8
SHAKER_PANEL_POCKET
10
897
20
5922.175
30
0
0
VERTEX
8
SHAKER_PANEL_POCKET
10
897
20
5484.175
30
0
0
SEQEND
8
SHAKER_PANEL_POCKET
0
TEXT
8
UNIT_NUMBER
10
834.5
20
5703.175
30
0
40
20
1
W01 DF2
50
90
72
1
11
834.5
21
5703.175
31
0
73
2
0
TEXT
8
UNIT_NUMBER
10
859.5
20
5703.175
30
0
40
20
1
558x220
50
90
72
1
11
859.5
21
5703.175
31
0
73
2
0
POLYLINE
8
OUTLINE
66
1
70
1
10
0
20
0
30
0
0
VERTEX
8
OUTLINE
10
1107
20
4482.175
30
0
0
VERTEX
8
OUTLINE
10
1107
20
5982.175
30
0
0
VERTEX
8
OUTLINE
10
1007
20
5982.175
30
0
0
VERTEX
8
OUTLINE
10
1007
20
4482.175
30
0
0
SEQEND
8
OUTLINE
0
TEXT
8
UNIT_NUMBER
10
1057
20
5232.175
30
0
40
12
1
W01 PLINTH 1500x100
50
90
72
1
11
1057
21
5232.175
31
0
73
2
0
POLYLINE
8
OUTLINE
66
1
70
1
10
0
20
0
30
0
0
VERTEX
8
OUTLINE
10
1157
20
5582.175
30
0
0
VERTEX
8
OUTLINE
10
1671
20
5582.175
30
0
0
VERTEX
8
OUTLINE
10
1671
20
5982.175
30
0
0
VERTEX
8
OUTLINE
10
1157
20
5982.175
30
0
0
SEQEND
8
OUTLINE
0
TEXT
8
UNIT_NUMBER
10
1414
20
5807.175
30
0
40
20
1
W01
72
1
11
1414
21
5807.175
31
0
73
2
0
TEXT
8
UNIT_NUMBER
10
1414
20
5782.175
30
0
40
20
1
D2-WB
72
1
11
1414
21
5782.175
31
0
73
2
0
TEXT
8
UNIT_NUMBER
10
1414
20
5757.175
30
0
40
20
1
514x400
72
1
11
1414
21
5757.175
31
0
73
2
0
POLYLINE
8
OUTLINE
66
1
70
1
10
0
20
0
30
0
0
VERTEX
8
OUTLINE
10
1721
20
5922.175
30
0
0
VERTEX
8
OUTLINE
10
2235
20
5922.175
30
0
0
VERTEX
8
OUTLINE
10
2235
20
5982.175
30
0
0
VERTEX
8
OUTLINE
10
1721
20
5982.175
30
0
0
SEQEND
8
OUTLINE
0
POLYLINE
8
WATCH_DIVIDER_SLOT
66
1
70
1
10
0
20
0
30
0
0
VERTEX
8
WATCH_DIVIDER_SLOT
10
1822
20
5922.175
30
0
0
VERTEX
8
WATCH_DIVIDER_SLOT
10
1831
20
5922.175
30
0
0
VERTEX
8
WATCH_DIVIDER_SLOT
10
1831
20
5982.175
30
0
0
VERTEX
8
WATCH_DIVIDER_SLOT
10
1822
20
5982.175
30
0
0
SEQEND
8
WATCH_DIVIDER_SLOT
0
POLYLINE
8
WATCH_DIVIDER_SLOT
66
1
70
1
10
0
20
0
30
0
0
VERTEX
8
WATCH_DIVIDER_SLOT
10
1923
20
5922.175
30
0
0
VERTEX
8
WATCH_DIVIDER_SLOT
10
1932
20
5922.175
30
0
0
VERTEX
8
WATCH_DIVIDER_SLOT
10
1932
20
5982.175
30
0
0
VERTEX
8
WATCH_DIVIDER_SLOT
10
1923
20
5982.175
30
0
0
SEQEND
8
WATCH_DIVIDER_SLOT
0
POLYLINE
8
WATCH_DIVIDER_SLOT
66
1
70
1
10
0
20
0
30
0
0
VERTEX
8
WATCH_DIVIDER_SLOT
10
2024
20
5922.175
30
0
0
VERTEX
8
WATCH_DIVIDER_SLOT
10
2033
20
5922.175
30
0
0
VERTEX
8
WATCH_DIVIDER_SLOT
10
2033
20
5982.175
30
0
0
VERTEX
8
WATCH_DIVIDER_SLOT
10
2024
20
5982.175
30
0
0
SEQEND
8
WATCH_DIVIDER_SLOT
0
POLYLINE
8
WATCH_DIVIDER_SLOT
66
1
70
1
10
0
20
0
30
0
0
VERTEX
8
WATCH_DIVIDER_SLOT
10
2125
20
5922.175
30
0
0
VERTEX
8
WATCH_DIVIDER_SLOT
10
2134
20
5922.175
30
0
0
VERTEX
8
WATCH_DIVIDER_SLOT
10
2134
20
5982.175
30
0
0
VERTEX
8
WATCH_DIVIDER_SLOT
10
2125
20
5982.175
30
0
0
SEQEND
8
WATCH_DIVIDER_SLOT
0
TEXT
8
UNIT_NUMBER
10
1978
20
5952.175
30
0
40
7.2
1
W01 D2-WRF 514x60
72
1
11
1978
21
5952.175
31
0
73
2
0
POLYLINE
8
OUTLINE
66
1
70
1
10
0
20
0
30
0
0
VERTEX
8
OUTLINE
10
2285
20
5922.175
30
0
0
VERTEX
8
OUTLINE
10
2799
20
5922.175
30
0
0
VERTEX
8
OUTLINE
10
2799
20
5982.175
30
0
0
VERTEX
8
OUTLINE
10
2285
20
5982.175
30
0
0
SEQEND
8
OUTLINE
0
POLYLINE
8
WATCH_DIVIDER_SLOT
66
1
70
1
10
0
20
0
30
0
0
VERTEX
8
WATCH_DIVIDER_SLOT
10
2537.5
20
5922.175
30
0
0
VERTEX
8
WATCH_DIVIDER_SLOT
10
2546.5
20
5922.175
30
0
0
VERTEX
8
WATCH_DIVIDER_SLOT
10
2546.5
20
5982.175
30
0
0
VERTEX
8
WATCH_DIVIDER_SLOT
10
2537.5
20
5982.175
30
0
0
SEQEND
8
WATCH_DIVIDER_SLOT
0
TEXT
8
UNIT_NUMBER
10
2542
20
5952.175
30
0
40
7.2
1
W01 D2-WRB 514x60
72
1
11
2542
21
5952.175
31
0
73
2
0
POLYLINE
8
OUTLINE
66
1
70
1
10
0
20
0
30
0
0
VERTEX
8
OUTLINE
10
2849
20
5922.175
30
0
0
VERTEX
8
OUTLINE
10
3231
20
5922.175
30
0
0
VERTEX
8
OUTLINE
10
3231
20
5982.175
30
0
0
VERTEX
8
OUTLINE
10
2849
20
5982.175
30
0
0
SEQEND
8
OUTLINE
0
TEXT
8
UNIT_NUMBER
10
3040
20
5956.675
30
0
40
7.2
1
W01 D2-WRL
72
1
11
3040
21
5956.675
31
0
73
2
0
TEXT
8
UNIT_NUMBER
10
3040
20
5947.675
30
0
40
7.2
1
382x60
72
1
11
3040
21
5947.675
31
0
73
2
0
POLYLINE
8
OUTLINE
66
1
70
1
10
0
20
0
30
0
0
VERTEX
8
OUTLINE
10
0
20
4372.175
30
0
0
VERTEX
8
OUTLINE
10
382
20
4372.175
30
0
0
VERTEX
8
OUTLINE
10
382
20
4432.175
30
0
0
VERTEX
8
OUTLINE
10
0
20
4432.175
30
0
0
SEQEND
8
OUTLINE
0
TEXT
8
UNIT_NUMBER
10
191
20
4406.675
30
0
40
7.2
1
W01 D2-WRR
72
1
11
191
21
4406.675
31
0
73
2
0
TEXT
8
UNIT_NUMBER
10
191
20
4397.675
30
0
40
7.2
1
382x60
72
1
11
191
21
4397.675
31
0
73
2
0
POLYLINE
8
OUTLINE
66
1
70
1
10
0
20
0
30
0
0
VERTEX
8
OUTLINE
10
432
20
4372.175
30
0
0
VERTEX
8
OUTLINE
10
928
20
4372.175
30
0
0
VERTEX
8
OUTLINE
10
928
20
4432.175
30
0
0
VERTEX
8
OUTLINE
10
432
20
4432.175
30
0
0
SEQEND
8
OUTLINE
0
POLYLINE
8
WATCH_DIVIDER_SLOT
66
1
70
1
10
0
20
0
30
0
0
VERTEX
8
WATCH_DIVIDER_SLOT
10
524
20
4372.175
30
0
0
VERTEX
8
WATCH_DIVIDER_SLOT
10
533
20
4372.175
30
0
0
VERTEX
8
WATCH_DIVIDER_SLOT
10
533
20
4432.175
30
0
0
VERTEX
8
WATCH_DIVIDER_SLOT
10
524
20
4432.175
30
0
0
SEQEND
8
WATCH_DIVIDER_SLOT
0
POLYLINE
8
WATCH_DIVIDER_SLOT
66
1
70
1
10
0
20
0
30
0
0
VERTEX
8
WATCH_DIVIDER_SLOT
10
625
20
4372.175
30
0
0
VERTEX
8
WATCH_DIVIDER_SLOT
10
634
20
4372.175
30
0
0
VERTEX
8
WATCH_DIVIDER_SLOT
10
634
20
4432.175
30
0
0
VERTEX
8
WATCH_DIVIDER_SLOT
10
625
20
4432.175
30
0
0
SEQEND
8
WATCH_DIVIDER_SLOT
0
POLYLINE
8
WATCH_DIVIDER_SLOT
66
1
70
1
10
0
20
0
30
0
0
VERTEX
8
WATCH_DIVIDER_SLOT
10
726
20
4372.175
30
0
0
VERTEX
8
WATCH_DIVIDER_SLOT
10
735
20
4372.175
30
0
0
VERTEX
8
WATCH_DIVIDER_SLOT
10
735
20
4432.175
30
0
0
VERTEX
8
WATCH_DIVIDER_SLOT
10
726
20
4432.175
30
0
0
SEQEND
8
WATCH_DIVIDER_SLOT
0
POLYLINE
8
WATCH_DIVIDER_SLOT
66
1
70
1
10
0
20
0
30
0
0
VERTEX
8
WATCH_DIVIDER_SLOT
10
827
20
4372.175
30
0
0
VERTEX
8
WATCH_DIVIDER_SLOT
10
836
20
4372.175
30
0
0
VERTEX
8
WATCH_DIVIDER_SLOT
10
836
20
4432.175
30
0
0
VERTEX
8
WATCH_DIVIDER_SLOT
10
827
20
4432.175
30
0
0
SEQEND
8
WATCH_DIVIDER_SLOT
0
POLYLINE
8
WATCH_DIVIDER_SLOT
66
1
70
1
10
0
20
0
30
0
0
VERTEX
8
WATCH_DIVIDER_SLOT
10
675.5
20
4372.175
30
0
0
VERTEX
8
WATCH_DIVIDER_SLOT
10
684.5
20
4372.175
30
0
0
VERTEX
8
WATCH_DIVIDER_SLOT
10
684.5
20
4432.175
30
0
0
VERTEX
8
WATCH_DIVIDER_SLOT
10
675.5
20
4432.175
30
0
0
SEQEND
8
WATCH_DIVIDER_SLOT
0
TEXT
8
UNIT_NUMBER
10
680
20
4402.175
30
0
40
7.2
1
W01 D2-WRW 496x60
72
1
11
680
21
4402.175
31
0
73
2
0
POLYLINE
8
OUTLINE
66
1
70
1
10
0
20
0
30
0
0
VERTEX
8
OUTLINE
10
978
20
4372.175
30
0
0
VERTEX
8
OUTLINE
10
1088
20
4372.175
30
0
0
VERTEX
8
OUTLINE
10
1088
20
4432.175
30
0
0
VERTEX
8
OUTLINE
10
978
20
4432.175
30
0
0
SEQEND
8
OUTLINE
0
TEXT
8
UNIT_NUMBER
10
1033
20
4411.175
30
0
40
7.2
1
W01
72
1
11
1033
21
4411.175
31
0
73
2
0
TEXT
8
UNIT_NUMBER
10
1033
20
4402.175
30
0
40
7.2
1
D2-WP1
72
1
11
1033
21
4402.175
31
0
73
2
0
TEXT
8
UNIT_NUMBER
10
1033
20
4393.175
30
0
40
7.2
1
110x60
72
1
11
1033
21
4393.175
31
0
73
2
0
POLYLINE
8
OUTLINE
66
1
70
1
10
0
20
0
30
0
0
VERTEX
8
OUTLINE
10
1138
20
4372.175
30
0
0
VERTEX
8
OUTLINE
10
1248
20
4372.175
30
0
0
VERTEX
8
OUTLINE
10
1248
20
4432.175
30
0
0
VERTEX
8
OUTLINE
10
1138
20
4432.175
30
0
0
SEQEND
8
OUTLINE
0
TEXT
8
UNIT_NUMBER
10
1193
20
4411.175
30
0
40
7.2
1
W01
72
1
11
1193
21
4411.175
31
0
73
2
0
TEXT
8
UNIT_NUMBER
10
1193
20
4402.175
30
0
40
7.2
1
D2-WP2
72
1
11
1193
21
4402.175
31
0
73
2
0
TEXT
8
UNIT_NUMBER
10
1193
20
4393.175
30
0
40
7.2
1
110x60
72
1
11
1193
21
4393.175
31
0
73
2
0
POLYLINE
8
OUTLINE
66
1
70
1
10
0
20
0
30
0
0
VERTEX
8
OUTLINE
10
1298
20
4372.175
30
0
0
VERTEX
8
OUTLINE
10
1408
20
4372.175
30
0
0
VERTEX
8
OUTLINE
10
1408
20
4432.175
30
0
0
VERTEX
8
OUTLINE
10
1298
20
4432.175
30
0
0
SEQEND
8
OUTLINE
0
TEXT
8
UNIT_NUMBER
10
1353
20
4411.175
30
0
40
7.2
1
W01
72
1
11
1353
21
4411.175
31
0
73
2
0
TEXT
8
UNIT_NUMBER
10
1353
20
4402.175
30
0
40
7.2
1
D2-WP3
72
1
11
1353
21
4402.175
31
0
73
2
0
TEXT
8
UNIT_NUMBER
10
1353
20
4393.175
30
0
40
7.2
1
110x60
72
1
11
1353
21
4393.175
31
0
73
2
0
POLYLINE
8
OUTLINE
66
1
70
1
10
0
20
0
30
0
0
VERTEX
8
OUTLINE
10
1458
20
4372.175
30
0
0
VERTEX
8
OUTLINE
10
1568
20
4372.175
30
0
0
VERTEX
8
OUTLINE
10
1568
20
4432.175
30
0
0
VERTEX
8
OUTLINE
10
1458
20
4432.175
30
0
0
SEQEND
8
OUTLINE
0
TEXT
8
UNIT_NUMBER
10
1513
20
4411.175
30
0
40
7.2
1
W01
72
1
11
1513
21
4411.175
31
0
73
2
0
TEXT
8
UNIT_NUMBER
10
1513
20
4402.175
30
0
40
7.2
1
D2-WP4
72
1
11
1513
21
4402.175
31
0
73
2
0
TEXT
8
UNIT_NUMBER
10
1513
20
4393.175
30
0
40
7.2
1
110x60
72
1
11
1513
21
4393.175
31
0
73
2
0
POLYLINE
8
OUTLINE
66
1
70
1
10
0
20
0
30
0
0
VERTEX
8
OUTLINE
10
1618
20
4372.175
30
0
0
VERTEX
8
OUTLINE
10
1881
20
4372.175
30
0
0
VERTEX
8
OUTLINE
10
1881
20
4432.175
30
0
0
VERTEX
8
OUTLINE
10
1618
20
4432.175
30
0
0
SEQEND
8
OUTLINE
0
TEXT
8
UNIT_NUMBER
10
1749.5
20
4406.675
30
0
40
7.2
1
W01 D2-WS1-1
72
1
11
1749.5
21
4406.675
31
0
73
2
0
TEXT
8
UNIT_NUMBER
10
1749.5
20
4397.675
30
0
40
7.2
1
263x60
72
1
11
1749.5
21
4397.675
31
0
73
2
0
POLYLINE
8
OUTLINE
66
1
70
1
10
0
20
0
30
0
0
VERTEX
8
OUTLINE
10
0
20
2137.175
30
0
0
VERTEX
8
OUTLINE
10
540
20
2137.175
30
0
0
VERTEX
8
OUTLINE
10
540
20
2207.175
30
0
0
VERTEX
8
OUTLINE
10
540
20
2213.175
30
0
0
VERTEX
8
OUTLINE
10
553
20
2213.175
30
0
0
VERTEX
8
OUTLINE
10
553
20
2207.175
30
0
0
VERTEX
8
OUTLINE
10
558
20
2207.175
30
0
0
VERTEX
8
OUTLINE
10
558
20
2257.175
30
0
0
VERTEX
8
OUTLINE
10
553
20
2257.175
30
0
0
VERTEX
8
OUTLINE
10
553
20
2251.175
30
0
0
VERTEX
8
OUTLINE
10
540
20
2251.175
30
0
0
VERTEX
8
OUTLINE
10
540
20
2257.175
30
0
0
VERTEX
8
OUTLINE
10
540
20
3187.175
30
0
0
VERTEX
8
OUTLINE
10
540
20
3193.175
30
0
0
VERTEX
8
OUTLINE
10
553
20
3193.175
30
0
0
VERTEX
8
OUTLINE
10
553
20
3187.175
30
0
0
VERTEX
8
OUTLINE
10
558
20
3187.175
30
0
0
VERTEX
8
OUTLINE
10
558
20
3237.175
30
0
0
VERTEX
8
OUTLINE
10
553
20
3237.175
30
0
0
VERTEX
8
OUTLINE
10
553
20
3231.175
30
0
0
VERTEX
8
OUTLINE
10
540
20
3231.175
30
0
0
VERTEX
8
OUTLINE
10
540
20
3237.175
30
0
0
VERTEX
8
OUTLINE
10
540
20
4167.175
30
0
0
VERTEX
8
OUTLINE
10
540
20
4173.175
30
0
0
VERTEX
8
OUTLINE
10
553
20
4173.175
30
0
0
VERTEX
8
OUTLINE
10
553
20
4167.175
30
0
0
VERTEX
8
OUTLINE
10
558
20
4167.175
30
0
0
VERTEX
8
OUTLINE
10
558
20
4201.6321
30
0
0
VERTEX
8
OUTLINE
10
540
20
4201.6321
30
0
0
VERTEX
8
OUTLINE
10
0
20
4201.6321
30
0
0
SEQEND
8
OUTLINE
0
POLYLINE
8
PUZZLE_DOG_BONES
66
1
70
1
10
0
20
0
30
0
0
VERTEX
8
PUZZLE_DOG_BONES
10
540
20
2202.175
30
0
0
VERTEX
8
PUZZLE_DOG_BONES
10
558
20
2202.175
30
0
0
VERTEX
8
PUZZLE_DOG_BONES
10
558
20
2262.175
30
0
0
VERTEX
8
PUZZLE_DOG_BONES
10
540
20
2262.175
30
0
0
SEQEND
8
PUZZLE_DOG_BONES
0
POLYLINE
8
PUZZLE_DOG_BONES
66
1
70
1
10
0
20
0
30
0
0
VERTEX
8
PUZZLE_DOG_BONES
10
540
20
3182.175
30
0
0
VERTEX
8
PUZZLE_DOG_BONES
10
558
20
3182.175
30
0
0
VERTEX
8
PUZZLE_DOG_BONES
10
558
20
3242.175
30
0
0
VERTEX
8
PUZZLE_DOG_BONES
10
540
20
3242.175
30
0
0
SEQEND
8
PUZZLE_DOG_BONES
0
POLYLINE
8
PUZZLE_DOG_BONES
66
1
70
1
10
0
20
0
30
0
0
VERTEX
8
PUZZLE_DOG_BONES
10
540
20
4162.175
30
0
0
VERTEX
8
PUZZLE_DOG_BONES
10
558
20
4162.175
30
0
0
VERTEX
8
PUZZLE_DOG_BONES
10
558
20
4222.175
30
0
0
VERTEX
8
PUZZLE_DOG_BONES
10
540
20
4222.175
30
0
0
SEQEND
8
PUZZLE_DOG_BONES
0
POLYLINE
8
PUZZLE_SOCKET
66
1
70
1
10
0
20
0
30
0
0
VERTEX
8
PUZZLE_SOCKET
10
69.5
20
2131.175
30
0
0
VERTEX
8
PUZZLE_SOCKET
10
120.5
20
2131.175
30
0
0
VERTEX
8
PUZZLE_SOCKET
10
120.5
20
2146.175
30
0
0
VERTEX
8
PUZZLE_SOCKET
10
69.5
20
2146.175
30
0
0
SEQEND
8
PUZZLE_SOCKET
0
POLYLINE
8
PUZZLE_SOCKET
66
1
70
1
10
0
20
0
30
0
0
VERTEX
8
PUZZLE_SOCKET
10
419.5
20
2131.175
30
0
0
VERTEX
8
PUZZLE_SOCKET
10
470.5
20
2131.175
30
0
0
VERTEX
8
PUZZLE_SOCKET
10
470.5
20
2146.175
30
0
0
VERTEX
8
PUZZLE_SOCKET
10
419.5
20
2146.175
30
0
0
SEQEND
8
PUZZLE_SOCKET
0
CIRCLE
8
PUZZLE_HOLES_7_5MM
10
70.5
20
2145.175
30
0
40
3.75
0
CIRCLE
8
PUZZLE_HOLES_7_5MM
10
119.5
20
2145.175
30
0
40
3.75
0
CIRCLE
8
PUZZLE_HOLES_7_5MM
10
420.5
20
2145.175
30
0
40
3.75
0
CIRCLE
8
PUZZLE_HOLES_7_5MM
10
469.5
20
2145.175
30
0
40
3.75
0
CIRCLE
8
SCREWS_3MM
10
50
20
2146.175
30
0
40
1.5
0
CIRCLE
8
SCREWS_3MM
10
270
20
2146.175
30
0
40
1.5
0
CIRCLE
8
SCREWS_3MM
10
490
20
2146.175
30
0
40
1.5
0
CIRCLE
8
HINGES_5MM
10
37
20
2221.175
30
0
40
2.5
0
CIRCLE
8
HINGES_5MM
10
37
20
2253.175
30
0
40
2.5
0
CIRCLE
8
HINGES_5MM
10
37
20
2611.175
30
0
40
2.5
0
CIRCLE
8
HINGES_5MM
10
37
20
2643.175
30
0
40
2.5
0
CIRCLE
8
HINGES_5MM
10
37
20
3001.175
30
0
40
2.5
0
CIRCLE
8
HINGES_5MM
10
37
20
3033.175
30
0
40
2.5
0
CIRCLE
8
HINGES_5MM
10
37
20
3391.175
30
0
40
2.5
0
CIRCLE
8
HINGES_5MM
10
37
20
3423.175
30
0
40
2.5
0
CIRCLE
8
HINGES_5MM
10
37
20
3781.175
30
0
40
2.5
0
CIRCLE
8
HINGES_5MM
10
37
20
3813.175
30
0
40
2.5
0
CIRCLE
8
HINGES_5MM
10
37
20
4171.175
30
0
40
2.5
0
CIRCLE
8
SHOE_RUNNER_5MM
10
65
20
2195.175
30
0
40
2.5
0
CIRCLE
8
SHOE_RUNNER_5MM
10
380
20
2195.175
30
0
40
2.5
0
TEXT
8
UNIT_NUMBER
10
270
20
4142.8321
30
0
40
49
1
CUT
72
1
11
270
21
4142.8321
31
0
73
2
0
TEXT
8
UNIT_NUMBER
10
270
20
4081.5821
30
0
40
49
1
28.8 DEG
72
1
11
270
21
4081.5821
31
0
73
2
0
TEXT
8
UNIT_NUMBER
10
270
20
3181.90355
30
0
40
20
1
W02 BUL
72
1
11
270
21
3181.90355
31
0
73
2
0
TEXT
8
UNIT_NUMBER
10
270
20
3156.90355
30
0
40
20
1
540x2064.5
72
1
11
270
21
3156.90355
31
0
73
2
0
POLYLINE
8
OUTLINE
66
1
70
1
10
0
20
0
30
0
0
VERTEX
8
OUTLINE
10
626
20
2642.8179
30
0
0
VERTEX
8
OUTLINE
10
1166
20
2642.8179
30
0
0
VERTEX
8
OUTLINE
10
1166
20
4222.175
30
0
0
VERTEX
8
OUTLINE
10
626
20
4222.175
30
0
0
VERTEX
8
OUTLINE
10
626
20
3742.8179
30
0
0
VERTEX
8
OUTLINE
10
626
20
3736.8179
30
0
0
VERTEX
8
OUTLINE
10
613
20
3736.8179
30
0
0
VERTEX
8
OUTLINE
10
613
20
3742.8179
30
0
0
VERTEX
8
OUTLINE
10
608
20
3742.8179
30
0
0
VERTEX
8
OUTLINE
10
608
20
3692.8179
30
0
0
VERTEX
8
OUTLINE
10
613
20
3692.8179
30
0
0
VERTEX
8
OUTLINE
10
613
20
3698.8179
30
0
0
VERTEX
8
OUTLINE
10
626
20
3698.8179
30
0
0
VERTEX
8
OUTLINE
10
626
20
3692.8179
30
0
0
VERTEX
8
OUTLINE
10
626
20
2762.8179
30
0
0
VERTEX
8
OUTLINE
10
626
20
2756.8179
30
0
0
VERTEX
8
OUTLINE
10
613
20
2756.8179
30
0
0
VERTEX
8
OUTLINE
10
613
20
2762.8179
30
0
0
VERTEX
8
OUTLINE
10
608
20
2762.8179
30
0
0
VERTEX
8
OUTLINE
10
608
20
2712.8179
30
0
0
VERTEX
8
OUTLINE
10
613
20
2712.8179
30
0
0
VERTEX
8
OUTLINE
10
613
20
2718.8179
30
0
0
VERTEX
8
OUTLINE
10
626
20
2718.8179
30
0
0
VERTEX
8
OUTLINE
10
626
20
2712.8179
30
0
0
SEQEND
8
OUTLINE
0
POLYLINE
8
PUZZLE_DOG_BONES
66
1
70
1
10
0
20
0
30
0
0
VERTEX
8
PUZZLE_DOG_BONES
10
608
20
2707.8179
30
0
0
VERTEX
8
PUZZLE_DOG_BONES
10
626
20
2707.8179
30
0
0
VERTEX
8
PUZZLE_DOG_BONES
10
626
20
2767.8179
30
0
0
VERTEX
8
PUZZLE_DOG_BONES
10
608
20
2767.8179
30
0
0
SEQEND
8
PUZZLE_DOG_BONES
0
POLYLINE
8
PUZZLE_DOG_BONES
66
1
70
1
10
0
20
0
30
0
0
VERTEX
8
PUZZLE_DOG_BONES
10
608
20
3687.8179
30
0
0
VERTEX
8
PUZZLE_DOG_BONES
10
626
20
3687.8179
30
0
0
VERTEX
8
PUZZLE_DOG_BONES
10
626
20
3747.8179
30
0
0
VERTEX
8
PUZZLE_DOG_BONES
10
608
20
3747.8179
30
0
0
SEQEND
8
PUZZLE_DOG_BONES
0
POLYLINE
8
PUZZLE_SOCKET
66
1
70
1
10
0
20
0
30
0
0
VERTEX
8
PUZZLE_SOCKET
10
695.5
20
2636.8179
30
0
0
VERTEX
8
PUZZLE_SOCKET
10
746.5
20
2636.8179
30
0
0
VERTEX
8
PUZZLE_SOCKET
10
746.5
20
2651.8179
30
0
0
VERTEX
8
PUZZLE_SOCKET
10
695.5
20
2651.8179
30
0
0
SEQEND
8
PUZZLE_SOCKET
0
POLYLINE
8
PUZZLE_SOCKET
66
1
70
1
10
0
20
0
30
0
0
VERTEX
8
PUZZLE_SOCKET
10
1045.5
20
2636.8179
30
0
0
VERTEX
8
PUZZLE_SOCKET
10
1096.5
20
2636.8179
30
0
0
VERTEX
8
PUZZLE_SOCKET
10
1096.5
20
2651.8179
30
0
0
VERTEX
8
PUZZLE_SOCKET
10
1045.5
20
2651.8179
30
0
0
SEQEND
8
PUZZLE_SOCKET
0
CIRCLE
8
PUZZLE_HOLES_7_5MM
10
696.5
20
2650.8179
30
0
40
3.75
0
CIRCLE
8
PUZZLE_HOLES_7_5MM
10
745.5
20
2650.8179
30
0
40
3.75
0
CIRCLE
8
PUZZLE_HOLES_7_5MM
10
1046.5
20
2650.8179
30
0
40
3.75
0
CIRCLE
8
PUZZLE_HOLES_7_5MM
10
1095.5
20
2650.8179
30
0
40
3.75
0
CIRCLE
8
SCREWS_3MM
10
676
20
2651.8179
30
0
40
1.5
0
CIRCLE
8
SCREWS_3MM
10
896
20
2651.8179
30
0
40
1.5
0
CIRCLE
8
SCREWS_3MM
10
1116
20
2651.8179
30
0
40
1.5
0
CIRCLE
8
HINGES_5MM
10
1129
20
2726.8179
30
0
40
2.5
0
CIRCLE
8
HINGES_5MM
10
1129
20
2758.8179
30
0
40
2.5
0
CIRCLE
8
HINGES_5MM
10
1129
20
3116.8179
30
0
40
2.5
0
CIRCLE
8
HINGES_5MM
10
1129
20
3148.8179
30
0
40
2.5
0
CIRCLE
8
HINGES_5MM
10
1129
20
3506.8179
30
0
40
2.5
0
CIRCLE
8
HINGES_5MM
10
1129
20
3538.8179
30
0
40
2.5
0
CIRCLE
8
HINGES_5MM
10
1129
20
3896.8179
30
0
40
2.5
0
CIRCLE
8
HINGES_5MM
10
1129
20
3928.8179
30
0
40
2.5
0
CIRCLE
8
SHOE_RUNNER_5MM
10
1101
20
2700.8179
30
0
40
2.5
0
CIRCLE
8
SHOE_RUNNER_5MM
10
786
20
2700.8179
30
0
40
2.5
0
TEXT
8
UNIT_NUMBER
10
896
20
4163.375
30
0
40
49
1
CUT
72
1
11
896
21
4163.375
31
0
73
2
0
TEXT
8
UNIT_NUMBER
10
896
20
4102.125
30
0
40
49
1
28.8 DEG
72
1
11
896
21
4102.125
31
0
73
2
0
TEXT
8
UNIT_NUMBER
10
896
20
3444.99645
30
0
40
20
1
W02 BUR
72
1
11
896
21
3444.99645
31
0
73
2
0
TEXT
8
UNIT_NUMBER
10
896
20
3419.99645
30
0
40
20
1
540x1579.4
72
1
11
896
21
3419.99645
31
0
73
2
0
POLYLINE
8
OUTLINE
66
1
70
1
10
0
20
0
30
0
0
VERTEX
8
OUTLINE
10
1216
20
3185.1309
30
0
0
VERTEX
8
OUTLINE
10
1756
20
3185.1309
30
0
0
VERTEX
8
OUTLINE
10
1756
20
4222.175
30
0
0
VERTEX
8
OUTLINE
10
1216
20
4222.175
30
0
0
SEQEND
8
OUTLINE
0
TEXT
8
UNIT_NUMBER
10
1486
20
4163.375
30
0
40
49
1
BEVEL
72
1
11
1486
21
4163.375
31
0
73
2
0
TEXT
8
UNIT_NUMBER
10
1486
20
4102.125
30
0
40
49
1
28.8 DEG
72
1
11
1486
21
4102.125
31
0
73
2
0
TEXT
8
UNIT_NUMBER
10
1486
20
4040.875
30
0
40
49
1
BOTH ENDS
72
1
11
1486
21
4040.875
31
0
73
2
0
TEXT
8
UNIT_NUMBER
10
1486
20
3979.625
30
0
40
49
1
- 5-AXIS
72
1
11
1486
21
3979.625
31
0
73
2
0
TEXT
8
UNIT_NUMBER
10
1486
20
3716.15295
30
0
40
20
1
W02 TOP
72
1
11
1486
21
3716.15295
31
0
73
2
0
TEXT
8
UNIT_NUMBER
10
1486
20
3691.15295
30
0
40
20
1
1037x540
72
1
11
1486
21
3691.15295
31
0
73
2
0
POLYLINE
8
OUTLINE
66
1
70
1
10
0
20
0
30
0
0
VERTEX
8
OUTLINE
10
1824
20
3340.175
30
0
0
VERTEX
8
OUTLINE
10
1894
20
3340.175
30
0
0
VERTEX
8
OUTLINE
10
1900
20
3340.175
30
0
0
VERTEX
8
OUTLINE
10
1900
20
3327.175
30
0
0
VERTEX
8
OUTLINE
10
1894
20
3327.175
30
0
0
VERTEX
8
OUTLINE
10
1894
20
3322.175
30
0
0
VERTEX
8
OUTLINE
10
1944
20
3322.175
30
0
0
VERTEX
8
OUTLINE
10
1944
20
3327.175
30
0
0
VERTEX
8
OUTLINE
10
1938
20
3327.175
30
0
0
VERTEX
8
OUTLINE
10
1938
20
3340.175
30
0
0
VERTEX
8
OUTLINE
10
1944
20
3340.175
30
0
0
VERTEX
8
OUTLINE
10
2244
20
3340.175
30
0
0
VERTEX
8
OUTLINE
10
2250
20
3340.175
30
0
0
VERTEX
8
OUTLINE
10
2250
20
3327.175
30
0
0
VERTEX
8
OUTLINE
10
2244
20
3327.175
30
0
0
VERTEX
8
OUTLINE
10
2244
20
3322.175
30
0
0
VERTEX
8
OUTLINE
10
2294
20
3322.175
30
0
0
VERTEX
8
OUTLINE
10
2294
20
3327.175
30
0
0
VERTEX
8
OUTLINE
10
2288
20
3327.175
30
0
0
VERTEX
8
OUTLINE
10
2288
20
3340.175
30
0
0
VERTEX
8
OUTLINE
10
2294
20
3340.175
30
0
0
VERTEX
8
OUTLINE
10
2364
20
3340.175
30
0
0
VERTEX
8
OUTLINE
10
2364
20
4204.175
30
0
0
VERTEX
8
OUTLINE
10
2294
20
4204.175
30
0
0
VERTEX
8
OUTLINE
10
2288
20
4204.175
30
0
0
VERTEX
8
OUTLINE
10
2288
20
4217.175
30
0
0
VERTEX
8
OUTLINE
10
2294
20
4217.175
30
0
0
VERTEX
8
OUTLINE
10
2294
20
4222.175
30
0
0
VERTEX
8
OUTLINE
10
2244
20
4222.175
30
0
0
VERTEX
8
OUTLINE
10
2244
20
4217.175
30
0
0
VERTEX
8
OUTLINE
10
2250
20
4217.175
30
0
0
VERTEX
8
OUTLINE
10
2250
20
4204.175
30
0
0
VERTEX
8
OUTLINE
10
2244
20
4204.175
30
0
0
VERTEX
8
OUTLINE
10
1944
20
4204.175
30
0
0
VERTEX
8
OUTLINE
10
1938
20
4204.175
30
0
0
VERTEX
8
OUTLINE
10
1938
20
4217.175
30
0
0
VERTEX
8
OUTLINE
10
1944
20
4217.175
30
0
0
VERTEX
8
OUTLINE
10
1944
20
4222.175
30
0
0
VERTEX
8
OUTLINE
10
1894
20
4222.175
30
0
0
VERTEX
8
OUTLINE
10
1894
20
4217.175
30
0
0
VERTEX
8
OUTLINE
10
1900
20
4217.175
30
0
0
VERTEX
8
OUTLINE
10
1900
20
4204.175
30
0
0
VERTEX
8
OUTLINE
10
1894
20
4204.175
30
0
0
VERTEX
8
OUTLINE
10
1824
20
4204.175
30
0
0
VERTEX
8
OUTLINE
10
1824
20
4134.175
30
0
0
VERTEX
8
OUTLINE
10
1824
20
4128.175
30
0
0
VERTEX
8
OUTLINE
10
1811
20
4128.175
30
0
0
VERTEX
8
OUTLINE
10
1811
20
4134.175
30
0
0
VERTEX
8
OUTLINE
10
1806
20
4134.175
30
0
0
VERTEX
8
OUTLINE
10
1806
20
4084.175
30
0
0
VERTEX
8
OUTLINE
10
1811
20
4084.175
30
0
0
VERTEX
8
OUTLINE
10
1811
20
4090.175
30
0
0
VERTEX
8
OUTLINE
10
1824
20
4090.175
30
0
0
VERTEX
8
OUTLINE
10
1824
20
4084.175
30
0
0
VERTEX
8
OUTLINE
10
1824
20
3460.175
30
0
0
VERTEX
8
OUTLINE
10
1824
20
3454.175
30
0
0
VERTEX
8
OUTLINE
10
1811
20
3454.175
30
0
0
VERTEX
8
OUTLINE
10
1811
20
3460.175
30
0
0
VERTEX
8
OUTLINE
10
1806
20
3460.175
30
0
0
VERTEX
8
OUTLINE
10
1806
20
3410.175
30
0
0
VERTEX
8
OUTLINE
10
1811
20
3410.175
30
0
0
VERTEX
8
OUTLINE
10
1811
20
3416.175
30
0
0
VERTEX
8
OUTLINE
10
1824
20
3416.175
30
0
0
VERTEX
8
OUTLINE
10
1824
20
3410.175
30
0
0
SEQEND
8
OUTLINE
0
POLYLINE
8
PUZZLE_DOG_BONES
66
1
70
1
10
0
20
0
30
0
0
VERTEX
8
PUZZLE_DOG_BONES
10
1889
20
4204.175
30
0
0
VERTEX
8
PUZZLE_DOG_BONES
10
1949
20
4204.175
30
0
0
VERTEX
8
PUZZLE_DOG_BONES
10
1949
20
4222.175
30
0
0
VERTEX
8
PUZZLE_DOG_BONES
10
1889
20
4222.175
30
0
0
SEQEND
8
PUZZLE_DOG_BONES
0
POLYLINE
8
PUZZLE_DOG_BONES
66
1
70
1
10
0
20
0
30
0
0
VERTEX
8
PUZZLE_DOG_BONES
10
1889
20
3322.175
30
0
0
VERTEX
8
PUZZLE_DOG_BONES
10
1949
20
3322.175
30
0
0
VERTEX
8
PUZZLE_DOG_BONES
10
1949
20
3340.175
30
0
0
VERTEX
8
PUZZLE_DOG_BONES
10
1889
20
3340.175
30
0
0
SEQEND
8
PUZZLE_DOG_BONES
0
POLYLINE
8
PUZZLE_DOG_BONES
66
1
70
1
10
0
20
0
30
0
0
VERTEX
8
PUZZLE_DOG_BONES
10
2239
20
4204.175
30
0
0
VERTEX
8
PUZZLE_DOG_BONES
10
2299
20
4204.175
30
0
0
VERTEX
8
PUZZLE_DOG_BONES
10
2299
20
4222.175
30
0
0
VERTEX
8
PUZZLE_DOG_BONES
10
2239
20
4222.175
30
0
0
SEQEND
8
PUZZLE_DOG_BONES
0
POLYLINE
8
PUZZLE_DOG_BONES
66
1
70
1
10
0
20
0
30
0
0
VERTEX
8
PUZZLE_DOG_BONES
10
2239
20
3322.175
30
0
0
VERTEX
8
PUZZLE_DOG_BONES
10
2299
20
3322.175
30
0
0
VERTEX
8
PUZZLE_DOG_BONES
10
2299
20
3340.175
30
0
0
VERTEX
8
PUZZLE_DOG_BONES
10
2239
20
3340.175
30
0
0
SEQEND
8
PUZZLE_DOG_BONES
0
POLYLINE
8
PUZZLE_DOG_BONES
66
1
70
1
10
0
20
0
30
0
0
VERTEX
8
PUZZLE_DOG_BONES
10
1806
20
3405.175
30
0
0
VERTEX
8
PUZZLE_DOG_BONES
10
1824
20
3405.175
30
0
0
VERTEX
8
PUZZLE_DOG_BONES
10
1824
20
3465.175
30
0
0
VERTEX
8
PUZZLE_DOG_BONES
10
1806
20
3465.175
30
0
0
SEQEND
8
PUZZLE_DOG_BONES
0
POLYLINE
8
PUZZLE_DOG_BONES
66
1
70
1
10
0
20
0
30
0
0
VERTEX
8
PUZZLE_DOG_BONES
10
1806
20
4079.175
30
0
0
VERTEX
8
PUZZLE_DOG_BONES
10
1824
20
4079.175
30
0
0
VERTEX
8
PUZZLE_DOG_BONES
10
1824
20
4139.175
30
0
0
VERTEX
8
PUZZLE_DOG_BONES
10
1806
20
4139.175
30
0
0
SEQEND
8
PUZZLE_DOG_BONES
0
TEXT
8
UNIT_NUMBER
10
2094
20
3797.175
30
0
40
20
1
W02
72
1
11
2094
21
3797.175
31
0
73
2
0
TEXT
8
UNIT_NUMBER
10
2094
20
3772.175
30
0
40
20
1
BOTTOM
72
1
11
2094
21
3772.175
31
0
73
2
0
TEXT
8
UNIT_NUMBER
10
2094
20
3747.175
30
0
40
20
1
864x540
72
1
11
2094
21
3747.175
31
0
73
2
0
POLYLINE
8
OUTLINE
66
1
70
1
10
0
20
0
30
0
0
VERTEX
8
OUTLINE
10
2420
20
2137.175
30
0
0
VERTEX
8
OUTLINE
10
3320
20
2137.175
30
0
0
VERTEX
8
OUTLINE
10
3320
20
3727.175
30
0
0
VERTEX
8
OUTLINE
10
2420
20
4222.175
30
0
0
SEQEND
8
OUTLINE
0
POLYLINE
8
PUZZLE_SOCKET
66
1
70
1
10
0
20
0
30
0
0
VERTEX
8
PUZZLE_SOCKET
10
2414
20
2206.675
30
0
0
VERTEX
8
PUZZLE_SOCKET
10
2429
20
2206.675
30
0
0
VERTEX
8
PUZZLE_SOCKET
10
2429
20
2257.675
30
0
0
VERTEX
8
PUZZLE_SOCKET
10
2414
20
2257.675
30
0
0
SEQEND
8
PUZZLE_SOCKET
0
POLYLINE
8
PUZZLE_SOCKET
66
1
70
1
10
0
20
0
30
0
0
VERTEX
8
PUZZLE_SOCKET
10
2414
20
3186.675
30
0
0
VERTEX
8
PUZZLE_SOCKET
10
2429
20
3186.675
30
0
0
VERTEX
8
PUZZLE_SOCKET
10
2429
20
3237.675
30
0
0
VERTEX
8
PUZZLE_SOCKET
10
2414
20
3237.675
30
0
0
SEQEND
8
PUZZLE_SOCKET
0
POLYLINE
8
PUZZLE_SOCKET
66
1
70
1
10
0
20
0
30
0
0
VERTEX
8
PUZZLE_SOCKET
10
2414
20
4166.675
30
0
0
VERTEX
8
PUZZLE_SOCKET
10
2429
20
4166.675
30
0
0
VERTEX
8
PUZZLE_SOCKET
10
2429
20
4217.675
30
0
0
VERTEX
8
PUZZLE_SOCKET
10
2414
20
4217.675
30
0
0
SEQEND
8
PUZZLE_SOCKET
0
POLYLINE
8
PUZZLE_SOCKET
66
1
70
1
10
0
20
0
30
0
0
VERTEX
8
PUZZLE_SOCKET
10
3311
20
2206.675
30
0
0
VERTEX
8
PUZZLE_SOCKET
10
3326
20
2206.675
30
0
0
VERTEX
8
PUZZLE_SOCKET
10
3326
20
2257.675
30
0
0
VERTEX
8
PUZZLE_SOCKET
10
3311
20
2257.675
30
0
0
SEQEND
8
PUZZLE_SOCKET
0
POLYLINE
8
PUZZLE_SOCKET
66
1
70
1
10
0
20
0
30
0
0
VERTEX
8
PUZZLE_SOCKET
10
3311
20
3186.675
30
0
0
VERTEX
8
PUZZLE_SOCKET
10
3326
20
3186.675
30
0
0
VERTEX
8
PUZZLE_SOCKET
10
3326
20
3237.675
30
0
0
VERTEX
8
PUZZLE_SOCKET
10
3311
20
3237.675
30
0
0
SEQEND
8
PUZZLE_SOCKET
0
POLYLINE
8
PUZZLE_SOCKET
66
1
70
1
10
0
20
0
30
0
0
VERTEX
8
PUZZLE_SOCKET
10
2507.5
20
2131.175
30
0
0
VERTEX
8
PUZZLE_SOCKET
10
2558.5
20
2131.175
30
0
0
VERTEX
8
PUZZLE_SOCKET
10
2558.5
20
2146.175
30
0
0
VERTEX
8
PUZZLE_SOCKET
10
2507.5
20
2146.175
30
0
0
SEQEND
8
PUZZLE_SOCKET
0
POLYLINE
8
PUZZLE_SOCKET
66
1
70
1
10
0
20
0
30
0
0
VERTEX
8
PUZZLE_SOCKET
10
3181.5
20
2131.175
30
0
0
VERTEX
8
PUZZLE_SOCKET
10
3232.5
20
2131.175
30
0
0
VERTEX
8
PUZZLE_SOCKET
10
3232.5
20
2146.175
30
0
0
VERTEX
8
PUZZLE_SOCKET
10
3181.5
20
2146.175
30
0
0
SEQEND
8
PUZZLE_SOCKET
0
CIRCLE
8
PUZZLE_HOLES_7_5MM
10
2428
20
2207.675
30
0
40
3.75
0
CIRCLE
8
PUZZLE_HOLES_7_5MM
10
2428
20
2256.675
30
0
40
3.75
0
CIRCLE
8
PUZZLE_HOLES_7_5MM
10
2428
20
3187.675
30
0
40
3.75
0
CIRCLE
8
PUZZLE_HOLES_7_5MM
10
2428
20
3236.675
30
0
40
3.75
0
CIRCLE
8
PUZZLE_HOLES_7_5MM
10
2428
20
4167.675
30
0
40
3.75
0
CIRCLE
8
PUZZLE_HOLES_7_5MM
10
2428
20
4216.675
30
0
40
3.75
0
CIRCLE
8
PUZZLE_HOLES_7_5MM
10
3312
20
2207.675
30
0
40
3.75
0
CIRCLE
8
PUZZLE_HOLES_7_5MM
10
3312
20
2256.675
30
0
40
3.75
0
CIRCLE
8
PUZZLE_HOLES_7_5MM
10
3312
20
3187.675
30
0
40
3.75
0
CIRCLE
8
PUZZLE_HOLES_7_5MM
10
3312
20
3236.675
30
0
40
3.75
0
CIRCLE
8
PUZZLE_HOLES_7_5MM
10
2508.5
20
2145.175
30
0
40
3.75
0
CIRCLE
8
PUZZLE_HOLES_7_5MM
10
2557.5
20
2145.175
30
0
40
3.75
0
CIRCLE
8
PUZZLE_HOLES_7_5MM
10
3182.5
20
2145.175
30
0
40
3.75
0
CIRCLE
8
PUZZLE_HOLES_7_5MM
10
3231.5
20
2145.175
30
0
40
3.75
0
CIRCLE
8
SCREWS_3MM
10
2429
20
2187.175
30
0
40
1.5
0
CIRCLE
8
SCREWS_3MM
10
3311
20
2187.175
30
0
40
1.5
0
CIRCLE
8
SCREWS_3MM
10
2429
20
2722.175
30
0
40
1.5
0
CIRCLE
8
SCREWS_3MM
10
3311
20
2722.175
30
0
40
1.5
0
CIRCLE
8
SCREWS_3MM
10
2429
20
3702.175
30
0
40
1.5
0
CIRCLE
8
SCREWS_3MM
10
3311
20
3702.175
30
0
40
1.5
0
CIRCLE
8
SCREWS_3MM
10
2488
20
2146.175
30
0
40
1.5
0
CIRCLE
8
SCREWS_3MM
10
2870
20
2146.175
30
0
40
1.5
0
CIRCLE
8
SCREWS_3MM
10
3252
20
2146.175
30
0
40
1.5
0
TEXT
8
UNIT_NUMBER
10
2870
20
3192.175
30
0
40
20
1
W02 BACK
72
1
11
2870
21
3192.175
31
0
73
2
0
TEXT
8
UNIT_NUMBER
10
2870
20
3167.175
30
0
40
20
1
900x2085
72
1
11
2870
21
3167.175
31
0
73
2
0
POLYLINE
8
OUTLINE
66
1
70
1
10
0
20
0
30
0
0
VERTEX
8
OUTLINE
10
3456
20
3757.175
30
0
0
VERTEX
8
OUTLINE
10
3456
20
4222.175
30
0
0
VERTEX
8
OUTLINE
10
3376
20
4222.175
30
0
0
VERTEX
8
OUTLINE
10
3376
20
3757.175
30
0
0
SEQEND
8
OUTLINE
0
POLYLINE
8
SHOE_GROOVE_6MM
66
1
70
1
10
0
20
0
30
0
0
VERTEX
8
SHOE_GROOVE_6MM
10
3456
20
3775.175
30
0
0
VERTEX
8
SHOE_GROOVE_6MM
10
3403.33
20
4204.175
30
0
0
VERTEX
8
SHOE_GROOVE_6MM
10
3385.2656
20
4201.9572
30
0
0
VERTEX
8
SHOE_GROOVE_6MM
10
3437.9356
20
3772.9572
30
0
0
SEQEND
8
SHOE_GROOVE_6MM
0
TEXT
8
UNIT_NUMBER
10
3410
20
3989.675
30
0
40
9.6
1
W02 SHOE1-SL
50
90
72
1
11
3410
21
3989.675
31
0
73
2
0
TEXT
8
UNIT_NUMBER
10
3422
20
3989.675
30
0
40
9.6
1
465x80
50
90
72
1
11
3422
21
3989.675
31
0
73
2
0
POLYLINE
8
OUTLINE
66
1
70
1
10
0
20
0
30
0
0
VERTEX
8
OUTLINE
10
3586
20
3757.175
30
0
0
VERTEX
8
OUTLINE
10
3586
20
4222.175
30
0
0
VERTEX
8
OUTLINE
10
3506
20
4222.175
30
0
0
VERTEX
8
OUTLINE
10
3506
20
3757.175
30
0
0
SEQEND
8
OUTLINE
0
POLYLINE
8
SHOE_GROOVE_6MM
66
1
70
1
10
0
20
0
30
0
0
VERTEX
8
SHOE_GROOVE_6MM
10
3586
20
3775.175
30
0
0
VERTEX
8
SHOE_GROOVE_6MM
10
3533.33
20
4204.175
30
0
0
VERTEX
8
SHOE_GROOVE_6MM
10
3515.2656
20
4201.9572
30
0
0
VERTEX
8
SHOE_GROOVE_6MM
10
3567.9356
20
3772.9572
30
0
0
SEQEND
8
SHOE_GROOVE_6MM
0
TEXT
8
UNIT_NUMBER
10
3540
20
3989.675
30
0
40
9.6
1
W02 SHOE1-SR
50
90
72
1
11
3540
21
3989.675
31
0
73
2
0
TEXT
8
UNIT_NUMBER
10
3552
20
3989.675
30
0
40
9.6
1
465x80
50
90
72
1
11
3552
21
3989.675
31
0
73
2
0
POLYLINE
8
OUTLINE
66
1
70
1
10
0
20
0
30
0
0
VERTEX
8
OUTLINE
10
80
20
1339.175
30
0
0
VERTEX
8
OUTLINE
10
80
20
2081.175
30
0
0
VERTEX
8
OUTLINE
10
0
20
2081.175
30
0
0
VERTEX
8
OUTLINE
10
0
20
1339.175
30
0
0
SEQEND
8
OUTLINE
0
POLYLINE
8
SHOE_GROOVE_6MM
66
1
70
1
10
0
20
0
30
0
0
VERTEX
8
SHOE_GROOVE_6MM
10
27.33
20
1339.175
30
0
0
VERTEX
8
SHOE_GROOVE_6MM
10
27.33
20
2081.175
30
0
0
VERTEX
8
SHOE_GROOVE_6MM
10
9.13
20
2081.175
30
0
0
VERTEX
8
SHOE_GROOVE_6MM
10
9.13
20
1339.175
30
0
0
SEQEND
8
SHOE_GROOVE_6MM
0
TEXT
8
UNIT_NUMBER
10
40
20
1710.175
30
0
40
9.6
1
W02 SHOE1-BK 742x80
50
90
72
1
11
40
21
1710.175
31
0
73
2
0
POLYLINE
8
OUTLINE
66
1
70
1
10
0
20
0
30
0
0
VERTEX
8
OUTLINE
10
210
20
1339.175
30
0
0
VERTEX
8
OUTLINE
10
210
20
2081.175
30
0
0
VERTEX
8
OUTLINE
10
130
20
2081.175
30
0
0
VERTEX
8
OUTLINE
10
130
20
1339.175
30
0
0
SEQEND
8
OUTLINE
0
POLYLINE
8
SHOE_GROOVE_6MM
66
1
70
1
10
0
20
0
30
0
0
VERTEX
8
SHOE_GROOVE_6MM
10
210
20
1339.175
30
0
0
VERTEX
8
SHOE_GROOVE_6MM
10
210
20
2081.175
30
0
0
VERTEX
8
SHOE_GROOVE_6MM
10
191.8
20
2081.175
30
0
0
VERTEX
8
SHOE_GROOVE_6MM
10
191.8
20
1339.175
30
0
0
SEQEND
8
SHOE_GROOVE_6MM
0
TEXT
8
UNIT_NUMBER
10
170
20
1710.175
30
0
40
9.6
1
W02 SHOE1-BF 742x80
50
90
72
1
11
170
21
1710.175
31
0
73
2
0
POLYLINE
8
OUTLINE
66
1
70
1
10
0
20
0
30
0
0
VERTEX
8
OUTLINE
10
704.22
20
1327.175
30
0
0
VERTEX
8
OUTLINE
10
704.22
20
2081.175
30
0
0
VERTEX
8
OUTLINE
10
260
20
2081.175
30
0
0
VERTEX
8
OUTLINE
10
260
20
1327.175
30
0
0
SEQEND
8
OUTLINE
0
TEXT
8
UNIT_NUMBER
10
457.11
20
1704.175
30
0
40
20
1
W02
50
90
72
1
11
457.11
21
1704.175
31
0
73
2
0
TEXT
8
UNIT_NUMBER
10
482.11
20
1704.175
30
0
40
20
1
SHOE1-BT
50
90
72
1
11
482.11
21
1704.175
31
0
73
2
0
TEXT
8
UNIT_NUMBER
10
507.11
20
1704.175
30
0
40
20
1
754x444.2
50
90
72
1
11
507.11
21
1704.175
31
0
73
2
0
POLYLINE
8
OUTLINE
66
1
70
1
10
0
20
0
30
0
0
VERTEX
8
OUTLINE
10
804.22
20
1339.175
30
0
0
VERTEX
8
OUTLINE
10
804.22
20
2081.175
30
0
0
VERTEX
8
OUTLINE
10
754.22
20
2081.175
30
0
0
VERTEX
8
OUTLINE
10
754.22
20
1339.175
30
0
0
SEQEND
8
OUTLINE
0
TEXT
8
UNIT_NUMBER
10
779.22
20
1710.175
30
0
40
6
1
W02 SHOE1-DV 742x50
50
90
72
1
11
779.22
21
1710.175
31
0
73
2
0
POLYLINE
8
OUTLINE
66
1
70
1
10
0
20
0
30
0
0
VERTEX
8
OUTLINE
10
924.22
20
1646.175
30
0
0
VERTEX
8
OUTLINE
10
924.22
20
2081.175
30
0
0
VERTEX
8
OUTLINE
10
854.22
20
2081.175
30
0
0
VERTEX
8
OUTLINE
10
854.22
20
1646.175
30
0
0
SEQEND
8
OUTLINE
0
TEXT
8
UNIT_NUMBER
10
883.97
20
1863.675
30
0
40
8.4
1
W02 SHOE1-BATTEN-L
50
90
72
1
11
883.97
21
1863.675
31
0
73
2
0
TEXT
8
UNIT_NUMBER
10
894.47
20
1863.675
30
0
40
8.4
1
435x70
50
90
72
1
11
894.47
21
1863.675
31
0
73
2
0
POLYLINE
8
OUTLINE
66
1
70
1
10
0
20
0
30
0
0
VERTEX
8
OUTLINE
10
1044.22
20
1646.175
30
0
0
VERTEX
8
OUTLINE
10
1044.22
20
2081.175
30
0
0
VERTEX
8
OUTLINE
10
974.22
20
2081.175
30
0
0
VERTEX
8
OUTLINE
10
974.22
20
1646.175
30
0
0
SEQEND
8
OUTLINE
0
TEXT
8
UNIT_NUMBER
10
1003.97
20
1863.675
30
0
40
8.4
1
W02 SHOE1-BATTEN-R
50
90
72
1
11
1003.97
21
1863.675
31
0
73
2
0
TEXT
8
UNIT_NUMBER
10
1014.47
20
1863.675
30
0
40
8.4
1
435x70
50
90
72
1
11
1014.47
21
1863.675
31
0
73
2
0
POLYLINE
8
OUTLINE
66
1
70
1
10
0
20
0
30
0
0
VERTEX
8
OUTLINE
10
1214.22
20
1237.175
30
0
0
VERTEX
8
OUTLINE
10
1214.22
20
2081.175
30
0
0
VERTEX
8
OUTLINE
10
1094.22
20
2081.175
30
0
0
VERTEX
8
OUTLINE
10
1094.22
20
1237.175
30
0
0
SEQEND
8
OUTLINE
0
TEXT
8
UNIT_NUMBER
10
1145.22
20
1659.175
30
0
40
14.4
1
W02 SHOE1-FR
50
90
72
1
11
1145.22
21
1659.175
31
0
73
2
0
TEXT
8
UNIT_NUMBER
10
1163.22
20
1659.175
30
0
40
14.4
1
844x120
50
90
72
1
11
1163.22
21
1659.175
31
0
73
2
0
POLYLINE
8
OUTLINE
66
1
70
1
10
0
20
0
30
0
0
VERTEX
8
OUTLINE
10
1264.22
20
0
30
0
0
VERTEX
8
OUTLINE
10
1711.22
20
0
30
0
0
VERTEX
8
OUTLINE
10
1711.22
20
2081.175
30
0
0
VERTEX
8
OUTLINE
10
1264.22
20
1835.325
30
0
0
SEQEND
8
OUTLINE
0
POLYLINE
8
SHAKER_PANEL_POCKET
66
1
70
1
10
0
20
0
30
0
0
VERTEX
8
SHAKER_PANEL_POCKET
10
1324.22
20
1979.6987
30
0
0
VERTEX
8
SHAKER_PANEL_POCKET
10
1651.22
20
1979.6987
30
0
0
VERTEX
8
SHAKER_PANEL_POCKET
10
1651.22
20
60
30
0
0
VERTEX
8
SHAKER_PANEL_POCKET
10
1324.22
20
60
30
0
0
SEQEND
8
SHAKER_PANEL_POCKET
0
CIRCLE
8
FRONT_HINGES_35MM
10
1689.72
20
100
30
0
40
17.5
0
CIRCLE
8
FRONT_HINGES_3MM
10
1680.22
20
123
30
0
40
1.5
0
CIRCLE
8
FRONT_HINGES_3MM
10
1680.22
20
77
30
0
40
1.5
0
CIRCLE
8
FRONT_HINGES_35MM
10
1689.72
20
476.235
30
0
40
17.5
0
CIRCLE
8
FRONT_HINGES_3MM
10
1680.22
20
499.235
30
0
40
1.5
0
CIRCLE
8
FRONT_HINGES_3MM
10
1680.22
20
453.235
30
0
40
1.5
0
CIRCLE
8
FRONT_HINGES_35MM
10
1689.72
20
852.47
30
0
40
17.5
0
CIRCLE
8
FRONT_HINGES_3MM
10
1680.22
20
875.47
30
0
40
1.5
0
CIRCLE
8
FRONT_HINGES_3MM
10
1680.22
20
829.47
30
0
40
1.5
0
CIRCLE
8
FRONT_HINGES_35MM
10
1689.72
20
1228.705
30
0
40
17.5
0
CIRCLE
8
FRONT_HINGES_3MM
10
1680.22
20
1251.705
30
0
40
1.5
0
CIRCLE
8
FRONT_HINGES_3MM
10
1680.22
20
1205.705
30
0
40
1.5
0
CIRCLE
8
FRONT_HINGES_35MM
10
1689.72
20
1604.94
30
0
40
17.5
0
CIRCLE
8
FRONT_HINGES_3MM
10
1680.22
20
1627.94
30
0
40
1.5
0
CIRCLE
8
FRONT_HINGES_3MM
10
1680.22
20
1581.94
30
0
40
1.5
0
CIRCLE
8
FRONT_HINGES_35MM
10
1689.72
20
1981.175
30
0
40
17.5
0
CIRCLE
8
FRONT_HINGES_3MM
10
1680.22
20
2004.175
30
0
40
1.5
0
CIRCLE
8
FRONT_HINGES_3MM
10
1680.22
20
1958.175
30
0
40
1.5
0
TEXT
8
UNIT_NUMBER
10
1487.72
20
1053.0875
30
0
40
20
1
W02 FL
72
1
11
1487.72
21
1053.0875
31
0
73
2
0
TEXT
8
UNIT_NUMBER
10
1487.72
20
1028.0875
30
0
40
20
1
447x2081.2
72
1
11
1487.72
21
1028.0875
31
0
73
2
0
POLYLINE
8
OUTLINE
66
1
70
1
10
0
20
0
30
0
0
VERTEX
8
OUTLINE
10
1761.22
20
247.5
30
0
0
VERTEX
8
OUTLINE
10
2208.22
20
247.5
30
0
0
VERTEX
8
OUTLINE
10
2208.22
20
2081.175
30
0
0
VERTEX
8
OUTLINE
10
1761.22
20
1835.325
30
0
0
SEQEND
8
OUTLINE
0
POLYLINE
8
SHAKER_PANEL_POCKET
66
1
70
1
10
0
20
0
30
0
0
VERTEX
8
SHAKER_PANEL_POCKET
10
1821.22
20
1979.6987
30
0
0
VERTEX
8
SHAKER_PANEL_POCKET
10
2148.22
20
1979.6987
30
0
0
VERTEX
8
SHAKER_PANEL_POCKET
10
2148.22
20
307.5
30
0
0
VERTEX
8
SHAKER_PANEL_POCKET
10
1821.22
20
307.5
30
0
0
SEQEND
8
SHAKER_PANEL_POCKET
0
CIRCLE
8
FRONT_HINGES_35MM
10
2186.72
20
347.5
30
0
40
17.5
0
CIRCLE
8
FRONT_HINGES_3MM
10
2177.22
20
370.5
30
0
40
1.5
0
CIRCLE
8
FRONT_HINGES_3MM
10
2177.22
20
324.5
30
0
40
1.5
0
CIRCLE
8
FRONT_HINGES_35MM
10
2186.72
20
674.235
30
0
40
17.5
0
CIRCLE
8
FRONT_HINGES_3MM
10
2177.22
20
697.235
30
0
40
1.5
0
CIRCLE
8
FRONT_HINGES_3MM
10
2177.22
20
651.235
30
0
40
1.5
0
CIRCLE
8
FRONT_HINGES_35MM
10
2186.72
20
1000.97
30
0
40
17.5
0
CIRCLE
8
FRONT_HINGES_3MM
10
2177.22
20
1023.97
30
0
40
1.5
0
CIRCLE
8
FRONT_HINGES_3MM
10
2177.22
20
977.97
30
0
40
1.5
0
CIRCLE
8
FRONT_HINGES_35MM
10
2186.72
20
1327.705
30
0
40
17.5
0
CIRCLE
8
FRONT_HINGES_3MM
10
2177.22
20
1350.705
30
0
40
1.5
0
CIRCLE
8
FRONT_HINGES_3MM
10
2177.22
20
1304.705
30
0
40
1.5
0
CIRCLE
8
FRONT_HINGES_35MM
10
2186.72
20
1654.44
30
0
40
17.5
0
CIRCLE
8
FRONT_HINGES_3MM
10
2177.22
20
1677.44
30
0
40
1.5
0
CIRCLE
8
FRONT_HINGES_3MM
10
2177.22
20
1631.44
30
0
40
1.5
0
CIRCLE
8
FRONT_HINGES_35MM
10
2186.72
20
1981.175
30
0
40
17.5
0
CIRCLE
8
FRONT_HINGES_3MM
10
2177.22
20
2004.175
30
0
40
1.5
0
CIRCLE
8
FRONT_HINGES_3MM
10
2177.22
20
1958.175
30
0
40
1.5
0
TEXT
8
UNIT_NUMBER
10
1984.72
20
1176.8375
30
0
40
20
1
W02 FR
72
1
11
1984.72
21
1176.8375
31
0
73
2
0
TEXT
8
UNIT_NUMBER
10
1984.72
20
1151.8375
30
0
40
20
1
447x1833.7
72
1
11
1984.72
21
1151.8375
31
0
73
2
0
ENDSEC
0
EOF
