0
SECTION
2
HEADER
9
$ACADVER
1
AC1009
9
$INSBASE
10
0
20
0
30
0
9
$EXTMIN
10
0
20
0
30
0
9
$EXTMAX
10
3474
20
12458
30
0
0
ENDSEC
0
SECTION
2
TABLES
0
TABLE
2
LAYER
70
19
0
LAYER
2
0
70
0
62
7
6
CONTINUOUS
0
LAYER
2
OUTLINE
70
0
62
7
6
CONTINUOUS
0
LAYER
2
PUZZLE_SOCKET
70
0
62
1
6
CONTINUOUS
0
LAYER
2
PUZZLE_DOG_BONES
70
0
62
2
6
CONTINUOUS
0
LAYER
2
PUZZLE_HOLES_7_5MM
70
0
62
3
6
CONTINUOUS
0
LAYER
2
SCREWS_3MM
70
0
62
4
6
CONTINUOUS
0
LAYER
2
SHAKER_PANEL_POCKET
70
0
62
41
6
CONTINUOUS
0
LAYER
2
HINGES_5MM
70
0
62
5
6
CONTINUOUS
0
LAYER
2
RUNNERS_3MM
70
0
62
5
6
CONTINUOUS
0
LAYER
2
FRONT_HINGES_35MM
70
0
62
3
6
CONTINUOUS
0
LAYER
2
FRONT_HINGES_3MM
70
0
62
30
6
CONTINUOUS
0
LAYER
2
UNIT_NUMBER
70
0
62
94
6
CONTINUOUS
0
LAYER
2
DRAWER_RUNNER_POCKET
70
0
62
1
6
CONTINUOUS
0
LAYER
2
DRAWER_BOTTOM_POCKET
70
0
62
2
6
CONTINUOUS
0
LAYER
2
SHOE_GROOVE_6MM
70
0
62
1
6
CONTINUOUS
0
LAYER
2
SHOE_RUNNER_5MM
70
0
62
5
6
CONTINUOUS
0
LAYER
2
WATCH_DIVIDER_SLOT
70
0
62
7
6
CONTINUOUS
0
LAYER
2
WATCH_GLASS_REBATE
70
0
62
7
6
CONTINUOUS
0
LAYER
2
LED_GROOVE
70
0
62
7
6
CONTINUOUS
0
ENDTAB
0
ENDSEC
0
SECTION
2
ENTITIES
0
POLYLINE
8
OUTLINE
66
1
70
1
10
0
20
0
30
0
0
VERTEX
8
OUTLINE
10
0
20
11682
30
0
0
VERTEX
8
OUTLINE
10
540
20
11682
30
0
0
VERTEX
8
OUTLINE
10
540
20
11752
30
0
0
VERTEX
8
OUTLINE
10
540
20
11758
30
0
0
VERTEX
8
OUTLINE
10
553
20
11758
30
0
0
VERTEX
8
OUTLINE
10
553
20
11752
30
0
0
VERTEX
8
OUTLINE
10
558
20
11752
30
0
0
VERTEX
8
OUTLINE
10
558
20
11802
30
0
0
VERTEX
8
OUTLINE
10
553
20
11802
30
0
0
VERTEX
8
OUTLINE
10
553
20
11796
30
0
0
VERTEX
8
OUTLINE
10
540
20
11796
30
0
0
VERTEX
8
OUTLINE
10
540
20
11802
30
0
0
VERTEX
8
OUTLINE
10
540
20
12042
30
0
0
VERTEX
8
OUTLINE
10
540
20
12048
30
0
0
VERTEX
8
OUTLINE
10
553
20
12048
30
0
0
VERTEX
8
OUTLINE
10
553
20
12042
30
0
0
VERTEX
8
OUTLINE
10
558
20
12042
30
0
0
VERTEX
8
OUTLINE
10
558
20
12092
30
0
0
VERTEX
8
OUTLINE
10
553
20
12092
30
0
0
VERTEX
8
OUTLINE
10
553
20
12086
30
0
0
VERTEX
8
OUTLINE
10
540
20
12086
30
0
0
VERTEX
8
OUTLINE
10
540
20
12092
30
0
0
VERTEX
8
OUTLINE
10
540
20
12332
30
0
0
VERTEX
8
OUTLINE
10
540
20
12338
30
0
0
VERTEX
8
OUTLINE
10
553
20
12338
30
0
0
VERTEX
8
OUTLINE
10
553
20
12332
30
0
0
VERTEX
8
OUTLINE
10
558
20
12332
30
0
0
VERTEX
8
OUTLINE
10
558
20
12382
30
0
0
VERTEX
8
OUTLINE
10
553
20
12382
30
0
0
VERTEX
8
OUTLINE
10
553
20
12376
30
0
0
VERTEX
8
OUTLINE
10
540
20
12376
30
0
0
VERTEX
8
OUTLINE
10
540
20
12382
30
0
0
VERTEX
8
OUTLINE
10
540
20
12452
30
0
0
VERTEX
8
OUTLINE
10
0
20
12452
30
0
0
SEQEND
8
OUTLINE
0
POLYLINE
8
PUZZLE_DOG_BONES
66
1
70
1
10
0
20
0
30
0
0
VERTEX
8
PUZZLE_DOG_BONES
10
540
20
11747
30
0
0
VERTEX
8
PUZZLE_DOG_BONES
10
558
20
11747
30
0
0
VERTEX
8
PUZZLE_DOG_BONES
10
558
20
11807
30
0
0
VERTEX
8
PUZZLE_DOG_BONES
10
540
20
11807
30
0
0
SEQEND
8
PUZZLE_DOG_BONES
0
POLYLINE
8
PUZZLE_DOG_BONES
66
1
70
1
10
0
20
0
30
0
0
VERTEX
8
PUZZLE_DOG_BONES
10
540
20
12037
30
0
0
VERTEX
8
PUZZLE_DOG_BONES
10
558
20
12037
30
0
0
VERTEX
8
PUZZLE_DOG_BONES
10
558
20
12097
30
0
0
VERTEX
8
PUZZLE_DOG_BONES
10
540
20
12097
30
0
0
SEQEND
8
PUZZLE_DOG_BONES
0
POLYLINE
8
PUZZLE_DOG_BONES
66
1
70
1
10
0
20
0
30
0
0
VERTEX
8
PUZZLE_DOG_BONES
10
540
20
12327
30
0
0
VERTEX
8
PUZZLE_DOG_BONES
10
558
20
12327
30
0
0
VERTEX
8
PUZZLE_DOG_BONES
10
558
20
12387
30
0
0
VERTEX
8
PUZZLE_DOG_BONES
10
540
20
12387
30
0
0
SEQEND
8
PUZZLE_DOG_BONES
0
POLYLINE
8
PUZZLE_SOCKET
66
1
70
1
10
0
20
0
30
0
0
VERTEX
8
PUZZLE_SOCKET
10
69.5
20
12443
30
0
0
VERTEX
8
PUZZLE_SOCKET
10
120.5
20
12443
30
0
0
VERTEX
8
PUZZLE_SOCKET
10
120.5
20
12458
30
0
0
VERTEX
8
PUZZLE_SOCKET
10
69.5
20
12458
30
0
0
SEQEND
8
PUZZLE_SOCKET
0
POLYLINE
8
PUZZLE_SOCKET
66
1
70
1
10
0
20
0
30
0
0
VERTEX
8
PUZZLE_SOCKET
10
69.5
20
11676
30
0
0
VERTEX
8
PUZZLE_SOCKET
10
120.5
20
11676
30
0
0
VERTEX
8
PUZZLE_SOCKET
10
120.5
20
11691
30
0
0
VERTEX
8
PUZZLE_SOCKET
10
69.5
20
11691
30
0
0
SEQEND
8
PUZZLE_SOCKET
0
POLYLINE
8
PUZZLE_SOCKET
66
1
70
1
10
0
20
0
30
0
0
VERTEX
8
PUZZLE_SOCKET
10
419.5
20
12443
30
0
0
VERTEX
8
PUZZLE_SOCKET
10
470.5
20
12443
30
0
0
VERTEX
8
PUZZLE_SOCKET
10
470.5
20
12458
30
0
0
VERTEX
8
PUZZLE_SOCKET
10
419.5
20
12458
30
0
0
SEQEND
8
PUZZLE_SOCKET
0
POLYLINE
8
PUZZLE_SOCKET
66
1
70
1
10
0
20
0
30
0
0
VERTEX
8
PUZZLE_SOCKET
10
419.5
20
11676
30
0
0
VERTEX
8
PUZZLE_SOCKET
10
470.5
20
11676
30
0
0
VERTEX
8
PUZZLE_SOCKET
10
470.5
20
11691
30
0
0
VERTEX
8
PUZZLE_SOCKET
10
419.5
20
11691
30
0
0
SEQEND
8
PUZZLE_SOCKET
0
CIRCLE
8
PUZZLE_HOLES_7_5MM
10
70.5
20
12444
30
0
40
3.75
0
CIRCLE
8
PUZZLE_HOLES_7_5MM
10
119.5
20
12444
30
0
40
3.75
0
CIRCLE
8
PUZZLE_HOLES_7_5MM
10
70.5
20
11690
30
0
40
3.75
0
CIRCLE
8
PUZZLE_HOLES_7_5MM
10
119.5
20
11690
30
0
40
3.75
0
CIRCLE
8
PUZZLE_HOLES_7_5MM
10
420.5
20
12444
30
0
40
3.75
0
CIRCLE
8
PUZZLE_HOLES_7_5MM
10
469.5
20
12444
30
0
40
3.75
0
CIRCLE
8
PUZZLE_HOLES_7_5MM
10
420.5
20
11690
30
0
40
3.75
0
CIRCLE
8
PUZZLE_HOLES_7_5MM
10
469.5
20
11690
30
0
40
3.75
0
CIRCLE
8
SCREWS_3MM
10
50
20
12443
30
0
40
1.5
0
CIRCLE
8
SCREWS_3MM
10
50
20
11691
30
0
40
1.5
0
CIRCLE
8
SCREWS_3MM
10
270
20
12443
30
0
40
1.5
0
CIRCLE
8
SCREWS_3MM
10
270
20
11691
30
0
40
1.5
0
CIRCLE
8
SCREWS_3MM
10
490
20
12443
30
0
40
1.5
0
CIRCLE
8
SCREWS_3MM
10
490
20
11691
30
0
40
1.5
0
TEXT
8
UNIT_NUMBER
10
270
20
12079.5
30
0
40
20
1
01 BUL
72
1
11
270
21
12079.5
31
0
73
2
0
TEXT
8
UNIT_NUMBER
10
270
20
12054.5
30
0
40
20
1
540x770
72
1
11
270
21
12054.5
31
0
73
2
0
POLYLINE
8
OUTLINE
66
1
70
1
10
0
20
0
30
0
0
VERTEX
8
OUTLINE
10
626
20
11682
30
0
0
VERTEX
8
OUTLINE
10
1166
20
11682
30
0
0
VERTEX
8
OUTLINE
10
1166
20
12452
30
0
0
VERTEX
8
OUTLINE
10
626
20
12452
30
0
0
VERTEX
8
OUTLINE
10
626
20
12382
30
0
0
VERTEX
8
OUTLINE
10
626
20
12376
30
0
0
VERTEX
8
OUTLINE
10
613
20
12376
30
0
0
VERTEX
8
OUTLINE
10
613
20
12382
30
0
0
VERTEX
8
OUTLINE
10
608
20
12382
30
0
0
VERTEX
8
OUTLINE
10
608
20
12332
30
0
0
VERTEX
8
OUTLINE
10
613
20
12332
30
0
0
VERTEX
8
OUTLINE
10
613
20
12338
30
0
0
VERTEX
8
OUTLINE
10
626
20
12338
30
0
0
VERTEX
8
OUTLINE
10
626
20
12332
30
0
0
VERTEX
8
OUTLINE
10
626
20
12092
30
0
0
VERTEX
8
OUTLINE
10
626
20
12086
30
0
0
VERTEX
8
OUTLINE
10
613
20
12086
30
0
0
VERTEX
8
OUTLINE
10
613
20
12092
30
0
0
VERTEX
8
OUTLINE
10
608
20
12092
30
0
0
VERTEX
8
OUTLINE
10
608
20
12042
30
0
0
VERTEX
8
OUTLINE
10
613
20
12042
30
0
0
VERTEX
8
OUTLINE
10
613
20
12048
30
0
0
VERTEX
8
OUTLINE
10
626
20
12048
30
0
0
VERTEX
8
OUTLINE
10
626
20
12042
30
0
0
VERTEX
8
OUTLINE
10
626
20
11802
30
0
0
VERTEX
8
OUTLINE
10
626
20
11796
30
0
0
VERTEX
8
OUTLINE
10
613
20
11796
30
0
0
VERTEX
8
OUTLINE
10
613
20
11802
30
0
0
VERTEX
8
OUTLINE
10
608
20
11802
30
0
0
VERTEX
8
OUTLINE
10
608
20
11752
30
0
0
VERTEX
8
OUTLINE
10
613
20
11752
30
0
0
VERTEX
8
OUTLINE
10
613
20
11758
30
0
0
VERTEX
8
OUTLINE
10
626
20
11758
30
0
0
VERTEX
8
OUTLINE
10
626
20
11752
30
0
0
SEQEND
8
OUTLINE
0
POLYLINE
8
PUZZLE_DOG_BONES
66
1
70
1
10
0
20
0
30
0
0
VERTEX
8
PUZZLE_DOG_BONES
10
608
20
11747
30
0
0
VERTEX
8
PUZZLE_DOG_BONES
10
626
20
11747
30
0
0
VERTEX
8
PUZZLE_DOG_BONES
10
626
20
11807
30
0
0
VERTEX
8
PUZZLE_DOG_BONES
10
608
20
11807
30
0
0
SEQEND
8
PUZZLE_DOG_BONES
0
POLYLINE
8
PUZZLE_DOG_BONES
66
1
70
1
10
0
20
0
30
0
0
VERTEX
8
PUZZLE_DOG_BONES
10
608
20
12037
30
0
0
VERTEX
8
PUZZLE_DOG_BONES
10
626
20
12037
30
0
0
VERTEX
8
PUZZLE_DOG_BONES
10
626
20
12097
30
0
0
VERTEX
8
PUZZLE_DOG_BONES
10
608
20
12097
30
0
0
SEQEND
8
PUZZLE_DOG_BONES
0
POLYLINE
8
PUZZLE_DOG_BONES
66
1
70
1
10
0
20
0
30
0
0
VERTEX
8
PUZZLE_DOG_BONES
10
608
20
12327
30
0
0
VERTEX
8
PUZZLE_DOG_BONES
10
626
20
12327
30
0
0
VERTEX
8
PUZZLE_DOG_BONES
10
626
20
12387
30
0
0
VERTEX
8
PUZZLE_DOG_BONES
10
608
20
12387
30
0
0
SEQEND
8
PUZZLE_DOG_BONES
0
POLYLINE
8
PUZZLE_SOCKET
66
1
70
1
10
0
20
0
30
0
0
VERTEX
8
PUZZLE_SOCKET
10
695.5
20
12443
30
0
0
VERTEX
8
PUZZLE_SOCKET
10
746.5
20
12443
30
0
0
VERTEX
8
PUZZLE_SOCKET
10
746.5
20
12458
30
0
0
VERTEX
8
PUZZLE_SOCKET
10
695.5
20
12458
30
0
0
SEQEND
8
PUZZLE_SOCKET
0
POLYLINE
8
PUZZLE_SOCKET
66
1
70
1
10
0
20
0
30
0
0
VERTEX
8
PUZZLE_SOCKET
10
695.5
20
11676
30
0
0
VERTEX
8
PUZZLE_SOCKET
10
746.5
20
11676
30
0
0
VERTEX
8
PUZZLE_SOCKET
10
746.5
20
11691
30
0
0
VERTEX
8
PUZZLE_SOCKET
10
695.5
20
11691
30
0
0
SEQEND
8
PUZZLE_SOCKET
0
POLYLINE
8
PUZZLE_SOCKET
66
1
70
1
10
0
20
0
30
0
0
VERTEX
8
PUZZLE_SOCKET
10
1045.5
20
12443
30
0
0
VERTEX
8
PUZZLE_SOCKET
10
1096.5
20
12443
30
0
0
VERTEX
8
PUZZLE_SOCKET
10
1096.5
20
12458
30
0
0
VERTEX
8
PUZZLE_SOCKET
10
1045.5
20
12458
30
0
0
SEQEND
8
PUZZLE_SOCKET
0
POLYLINE
8
PUZZLE_SOCKET
66
1
70
1
10
0
20
0
30
0
0
VERTEX
8
PUZZLE_SOCKET
10
1045.5
20
11676
30
0
0
VERTEX
8
PUZZLE_SOCKET
10
1096.5
20
11676
30
0
0
VERTEX
8
PUZZLE_SOCKET
10
1096.5
20
11691
30
0
0
VERTEX
8
PUZZLE_SOCKET
10
1045.5
20
11691
30
0
0
SEQEND
8
PUZZLE_SOCKET
0
CIRCLE
8
PUZZLE_HOLES_7_5MM
10
696.5
20
12444
30
0
40
3.75
0
CIRCLE
8
PUZZLE_HOLES_7_5MM
10
745.5
20
12444
30
0
40
3.75
0
CIRCLE
8
PUZZLE_HOLES_7_5MM
10
696.5
20
11690
30
0
40
3.75
0
CIRCLE
8
PUZZLE_HOLES_7_5MM
10
745.5
20
11690
30
0
40
3.75
0
CIRCLE
8
PUZZLE_HOLES_7_5MM
10
1046.5
20
12444
30
0
40
3.75
0
CIRCLE
8
PUZZLE_HOLES_7_5MM
10
1095.5
20
12444
30
0
40
3.75
0
CIRCLE
8
PUZZLE_HOLES_7_5MM
10
1046.5
20
11690
30
0
40
3.75
0
CIRCLE
8
PUZZLE_HOLES_7_5MM
10
1095.5
20
11690
30
0
40
3.75
0
CIRCLE
8
SCREWS_3MM
10
676
20
12443
30
0
40
1.5
0
CIRCLE
8
SCREWS_3MM
10
676
20
11691
30
0
40
1.5
0
CIRCLE
8
SCREWS_3MM
10
896
20
12443
30
0
40
1.5
0
CIRCLE
8
SCREWS_3MM
10
896
20
11691
30
0
40
1.5
0
CIRCLE
8
SCREWS_3MM
10
1116
20
12443
30
0
40
1.5
0
CIRCLE
8
SCREWS_3MM
10
1116
20
11691
30
0
40
1.5
0
TEXT
8
UNIT_NUMBER
10
896
20
12079.5
30
0
40
20
1
01 BUR
72
1
11
896
21
12079.5
31
0
73
2
0
TEXT
8
UNIT_NUMBER
10
896
20
12054.5
30
0
40
20
1
540x770
72
1
11
896
21
12054.5
31
0
73
2
0
POLYLINE
8
OUTLINE
66
1
70
1
10
0
20
0
30
0
0
VERTEX
8
OUTLINE
10
1234
20
11876
30
0
0
VERTEX
8
OUTLINE
10
1304
20
11876
30
0
0
VERTEX
8
OUTLINE
10
1310
20
11876
30
0
0
VERTEX
8
OUTLINE
10
1310
20
11863
30
0
0
VERTEX
8
OUTLINE
10
1304
20
11863
30
0
0
VERTEX
8
OUTLINE
10
1304
20
11858
30
0
0
VERTEX
8
OUTLINE
10
1354
20
11858
30
0
0
VERTEX
8
OUTLINE
10
1354
20
11863
30
0
0
VERTEX
8
OUTLINE
10
1348
20
11863
30
0
0
VERTEX
8
OUTLINE
10
1348
20
11876
30
0
0
VERTEX
8
OUTLINE
10
1354
20
11876
30
0
0
VERTEX
8
OUTLINE
10
1654
20
11876
30
0
0
VERTEX
8
OUTLINE
10
1660
20
11876
30
0
0
VERTEX
8
OUTLINE
10
1660
20
11863
30
0
0
VERTEX
8
OUTLINE
10
1654
20
11863
30
0
0
VERTEX
8
OUTLINE
10
1654
20
11858
30
0
0
VERTEX
8
OUTLINE
10
1704
20
11858
30
0
0
VERTEX
8
OUTLINE
10
1704
20
11863
30
0
0
VERTEX
8
OUTLINE
10
1698
20
11863
30
0
0
VERTEX
8
OUTLINE
10
1698
20
11876
30
0
0
VERTEX
8
OUTLINE
10
1704
20
11876
30
0
0
VERTEX
8
OUTLINE
10
1774
20
11876
30
0
0
VERTEX
8
OUTLINE
10
1774
20
12440
30
0
0
VERTEX
8
OUTLINE
10
1704
20
12440
30
0
0
VERTEX
8
OUTLINE
10
1698
20
12440
30
0
0
VERTEX
8
OUTLINE
10
1698
20
12453
30
0
0
VERTEX
8
OUTLINE
10
1704
20
12453
30
0
0
VERTEX
8
OUTLINE
10
1704
20
12458
30
0
0
VERTEX
8
OUTLINE
10
1654
20
12458
30
0
0
VERTEX
8
OUTLINE
10
1654
20
12453
30
0
0
VERTEX
8
OUTLINE
10
1660
20
12453
30
0
0
VERTEX
8
OUTLINE
10
1660
20
12440
30
0
0
VERTEX
8
OUTLINE
10
1654
20
12440
30
0
0
VERTEX
8
OUTLINE
10
1354
20
12440
30
0
0
VERTEX
8
OUTLINE
10
1348
20
12440
30
0
0
VERTEX
8
OUTLINE
10
1348
20
12453
30
0
0
VERTEX
8
OUTLINE
10
1354
20
12453
30
0
0
VERTEX
8
OUTLINE
10
1354
20
12458
30
0
0
VERTEX
8
OUTLINE
10
1304
20
12458
30
0
0
VERTEX
8
OUTLINE
10
1304
20
12453
30
0
0
VERTEX
8
OUTLINE
10
1310
20
12453
30
0
0
VERTEX
8
OUTLINE
10
1310
20
12440
30
0
0
VERTEX
8
OUTLINE
10
1304
20
12440
30
0
0
VERTEX
8
OUTLINE
10
1234
20
12440
30
0
0
VERTEX
8
OUTLINE
10
1234
20
12370
30
0
0
VERTEX
8
OUTLINE
10
1234
20
12364
30
0
0
VERTEX
8
OUTLINE
10
1221
20
12364
30
0
0
VERTEX
8
OUTLINE
10
1221
20
12370
30
0
0
VERTEX
8
OUTLINE
10
1216
20
12370
30
0
0
VERTEX
8
OUTLINE
10
1216
20
12320
30
0
0
VERTEX
8
OUTLINE
10
1221
20
12320
30
0
0
VERTEX
8
OUTLINE
10
1221
20
12326
30
0
0
VERTEX
8
OUTLINE
10
1234
20
12326
30
0
0
VERTEX
8
OUTLINE
10
1234
20
12320
30
0
0
VERTEX
8
OUTLINE
10
1234
20
11996
30
0
0
VERTEX
8
OUTLINE
10
1234
20
11990
30
0
0
VERTEX
8
OUTLINE
10
1221
20
11990
30
0
0
VERTEX
8
OUTLINE
10
1221
20
11996
30
0
0
VERTEX
8
OUTLINE
10
1216
20
11996
30
0
0
VERTEX
8
OUTLINE
10
1216
20
11946
30
0
0
VERTEX
8
OUTLINE
10
1221
20
11946
30
0
0
VERTEX
8
OUTLINE
10
1221
20
11952
30
0
0
VERTEX
8
OUTLINE
10
1234
20
11952
30
0
0
VERTEX
8
OUTLINE
10
1234
20
11946
30
0
0
SEQEND
8
OUTLINE
0
POLYLINE
8
PUZZLE_DOG_BONES
66
1
70
1
10
0
20
0
30
0
0
VERTEX
8
PUZZLE_DOG_BONES
10
1299
20
12440
30
0
0
VERTEX
8
PUZZLE_DOG_BONES
10
1359
20
12440
30
0
0
VERTEX
8
PUZZLE_DOG_BONES
10
1359
20
12458
30
0
0
VERTEX
8
PUZZLE_DOG_BONES
10
1299
20
12458
30
0
0
SEQEND
8
PUZZLE_DOG_BONES
0
POLYLINE
8
PUZZLE_DOG_BONES
66
1
70
1
10
0
20
0
30
0
0
VERTEX
8
PUZZLE_DOG_BONES
10
1299
20
11858
30
0
0
VERTEX
8
PUZZLE_DOG_BONES
10
1359
20
11858
30
0
0
VERTEX
8
PUZZLE_DOG_BONES
10
1359
20
11876
30
0
0
VERTEX
8
PUZZLE_DOG_BONES
10
1299
20
11876
30
0
0
SEQEND
8
PUZZLE_DOG_BONES
0
POLYLINE
8
PUZZLE_DOG_BONES
66
1
70
1
10
0
20
0
30
0
0
VERTEX
8
PUZZLE_DOG_BONES
10
1649
20
12440
30
0
0
VERTEX
8
PUZZLE_DOG_BONES
10
1709
20
12440
30
0
0
VERTEX
8
PUZZLE_DOG_BONES
10
1709
20
12458
30
0
0
VERTEX
8
PUZZLE_DOG_BONES
10
1649
20
12458
30
0
0
SEQEND
8
PUZZLE_DOG_BONES
0
POLYLINE
8
PUZZLE_DOG_BONES
66
1
70
1
10
0
20
0
30
0
0
VERTEX
8
PUZZLE_DOG_BONES
10
1649
20
11858
30
0
0
VERTEX
8
PUZZLE_DOG_BONES
10
1709
20
11858
30
0
0
VERTEX
8
PUZZLE_DOG_BONES
10
1709
20
11876
30
0
0
VERTEX
8
PUZZLE_DOG_BONES
10
1649
20
11876
30
0
0
SEQEND
8
PUZZLE_DOG_BONES
0
POLYLINE
8
PUZZLE_DOG_BONES
66
1
70
1
10
0
20
0
30
0
0
VERTEX
8
PUZZLE_DOG_BONES
10
1216
20
11941
30
0
0
VERTEX
8
PUZZLE_DOG_BONES
10
1234
20
11941
30
0
0
VERTEX
8
PUZZLE_DOG_BONES
10
1234
20
12001
30
0
0
VERTEX
8
PUZZLE_DOG_BONES
10
1216
20
12001
30
0
0
SEQEND
8
PUZZLE_DOG_BONES
0
POLYLINE
8
PUZZLE_DOG_BONES
66
1
70
1
10
0
20
0
30
0
0
VERTEX
8
PUZZLE_DOG_BONES
10
1216
20
12315
30
0
0
VERTEX
8
PUZZLE_DOG_BONES
10
1234
20
12315
30
0
0
VERTEX
8
PUZZLE_DOG_BONES
10
1234
20
12375
30
0
0
VERTEX
8
PUZZLE_DOG_BONES
10
1216
20
12375
30
0
0
SEQEND
8
PUZZLE_DOG_BONES
0
TEXT
8
UNIT_NUMBER
10
1504
20
12170.5
30
0
40
20
1
01 TOP
72
1
11
1504
21
12170.5
31
0
73
2
0
TEXT
8
UNIT_NUMBER
10
1504
20
12145.5
30
0
40
20
1
564x540
72
1
11
1504
21
12145.5
31
0
73
2
0
POLYLINE
8
OUTLINE
66
1
70
1
10
0
20
0
30
0
0
VERTEX
8
OUTLINE
10
1842
20
11876
30
0
0
VERTEX
8
OUTLINE
10
1912
20
11876
30
0
0
VERTEX
8
OUTLINE
10
1918
20
11876
30
0
0
VERTEX
8
OUTLINE
10
1918
20
11863
30
0
0
VERTEX
8
OUTLINE
10
1912
20
11863
30
0
0
VERTEX
8
OUTLINE
10
1912
20
11858
30
0
0
VERTEX
8
OUTLINE
10
1962
20
11858
30
0
0
VERTEX
8
OUTLINE
10
1962
20
11863
30
0
0
VERTEX
8
OUTLINE
10
1956
20
11863
30
0
0
VERTEX
8
OUTLINE
10
1956
20
11876
30
0
0
VERTEX
8
OUTLINE
10
1962
20
11876
30
0
0
VERTEX
8
OUTLINE
10
2262
20
11876
30
0
0
VERTEX
8
OUTLINE
10
2268
20
11876
30
0
0
VERTEX
8
OUTLINE
10
2268
20
11863
30
0
0
VERTEX
8
OUTLINE
10
2262
20
11863
30
0
0
VERTEX
8
OUTLINE
10
2262
20
11858
30
0
0
VERTEX
8
OUTLINE
10
2312
20
11858
30
0
0
VERTEX
8
OUTLINE
10
2312
20
11863
30
0
0
VERTEX
8
OUTLINE
10
2306
20
11863
30
0
0
VERTEX
8
OUTLINE
10
2306
20
11876
30
0
0
VERTEX
8
OUTLINE
10
2312
20
11876
30
0
0
VERTEX
8
OUTLINE
10
2382
20
11876
30
0
0
VERTEX
8
OUTLINE
10
2382
20
12440
30
0
0
VERTEX
8
OUTLINE
10
2312
20
12440
30
0
0
VERTEX
8
OUTLINE
10
2306
20
12440
30
0
0
VERTEX
8
OUTLINE
10
2306
20
12453
30
0
0
VERTEX
8
OUTLINE
10
2312
20
12453
30
0
0
VERTEX
8
OUTLINE
10
2312
20
12458
30
0
0
VERTEX
8
OUTLINE
10
2262
20
12458
30
0
0
VERTEX
8
OUTLINE
10
2262
20
12453
30
0
0
VERTEX
8
OUTLINE
10
2268
20
12453
30
0
0
VERTEX
8
OUTLINE
10
2268
20
12440
30
0
0
VERTEX
8
OUTLINE
10
2262
20
12440
30
0
0
VERTEX
8
OUTLINE
10
1962
20
12440
30
0
0
VERTEX
8
OUTLINE
10
1956
20
12440
30
0
0
VERTEX
8
OUTLINE
10
1956
20
12453
30
0
0
VERTEX
8
OUTLINE
10
1962
20
12453
30
0
0
VERTEX
8
OUTLINE
10
1962
20
12458
30
0
0
VERTEX
8
OUTLINE
10
1912
20
12458
30
0
0
VERTEX
8
OUTLINE
10
1912
20
12453
30
0
0
VERTEX
8
OUTLINE
10
1918
20
12453
30
0
0
VERTEX
8
OUTLINE
10
1918
20
12440
30
0
0
VERTEX
8
OUTLINE
10
1912
20
12440
30
0
0
VERTEX
8
OUTLINE
10
1842
20
12440
30
0
0
VERTEX
8
OUTLINE
10
1842
20
12370
30
0
0
VERTEX
8
OUTLINE
10
1842
20
12364
30
0
0
VERTEX
8
OUTLINE
10
1829
20
12364
30
0
0
VERTEX
8
OUTLINE
10
1829
20
12370
30
0
0
VERTEX
8
OUTLINE
10
1824
20
12370
30
0
0
VERTEX
8
OUTLINE
10
1824
20
12320
30
0
0
VERTEX
8
OUTLINE
10
1829
20
12320
30
0
0
VERTEX
8
OUTLINE
10
1829
20
12326
30
0
0
VERTEX
8
OUTLINE
10
1842
20
12326
30
0
0
VERTEX
8
OUTLINE
10
1842
20
12320
30
0
0
VERTEX
8
OUTLINE
10
1842
20
11996
30
0
0
VERTEX
8
OUTLINE
10
1842
20
11990
30
0
0
VERTEX
8
OUTLINE
10
1829
20
11990
30
0
0
VERTEX
8
OUTLINE
10
1829
20
11996
30
0
0
VERTEX
8
OUTLINE
10
1824
20
11996
30
0
0
VERTEX
8
OUTLINE
10
1824
20
11946
30
0
0
VERTEX
8
OUTLINE
10
1829
20
11946
30
0
0
VERTEX
8
OUTLINE
10
1829
20
11952
30
0
0
VERTEX
8
OUTLINE
10
1842
20
11952
30
0
0
VERTEX
8
OUTLINE
10
1842
20
11946
30
0
0
SEQEND
8
OUTLINE
0
POLYLINE
8
PUZZLE_DOG_BONES
66
1
70
1
10
0
20
0
30
0
0
VERTEX
8
PUZZLE_DOG_BONES
10
1907
20
12440
30
0
0
VERTEX
8
PUZZLE_DOG_BONES
10
1967
20
12440
30
0
0
VERTEX
8
PUZZLE_DOG_BONES
10
1967
20
12458
30
0
0
VERTEX
8
PUZZLE_DOG_BONES
10
1907
20
12458
30
0
0
SEQEND
8
PUZZLE_DOG_BONES
0
POLYLINE
8
PUZZLE_DOG_BONES
66
1
70
1
10
0
20
0
30
0
0
VERTEX
8
PUZZLE_DOG_BONES
10
1907
20
11858
30
0
0
VERTEX
8
PUZZLE_DOG_BONES
10
1967
20
11858
30
0
0
VERTEX
8
PUZZLE_DOG_BONES
10
1967
20
11876
30
0
0
VERTEX
8
PUZZLE_DOG_BONES
10
1907
20
11876
30
0
0
SEQEND
8
PUZZLE_DOG_BONES
0
POLYLINE
8
PUZZLE_DOG_BONES
66
1
70
1
10
0
20
0
30
0
0
VERTEX
8
PUZZLE_DOG_BONES
10
2257
20
12440
30
0
0
VERTEX
8
PUZZLE_DOG_BONES
10
2317
20
12440
30
0
0
VERTEX
8
PUZZLE_DOG_BONES
10
2317
20
12458
30
0
0
VERTEX
8
PUZZLE_DOG_BONES
10
2257
20
12458
30
0
0
SEQEND
8
PUZZLE_DOG_BONES
0
POLYLINE
8
PUZZLE_DOG_BONES
66
1
70
1
10
0
20
0
30
0
0
VERTEX
8
PUZZLE_DOG_BONES
10
2257
20
11858
30
0
0
VERTEX
8
PUZZLE_DOG_BONES
10
2317
20
11858
30
0
0
VERTEX
8
PUZZLE_DOG_BONES
10
2317
20
11876
30
0
0
VERTEX
8
PUZZLE_DOG_BONES
10
2257
20
11876
30
0
0
SEQEND
8
PUZZLE_DOG_BONES
0
POLYLINE
8
PUZZLE_DOG_BONES
66
1
70
1
10
0
20
0
30
0
0
VERTEX
8
PUZZLE_DOG_BONES
10
1824
20
11941
30
0
0
VERTEX
8
PUZZLE_DOG_BONES
10
1842
20
11941
30
0
0
VERTEX
8
PUZZLE_DOG_BONES
10
1842
20
12001
30
0
0
VERTEX
8
PUZZLE_DOG_BONES
10
1824
20
12001
30
0
0
SEQEND
8
PUZZLE_DOG_BONES
0
POLYLINE
8
PUZZLE_DOG_BONES
66
1
70
1
10
0
20
0
30
0
0
VERTEX
8
PUZZLE_DOG_BONES
10
1824
20
12315
30
0
0
VERTEX
8
PUZZLE_DOG_BONES
10
1842
20
12315
30
0
0
VERTEX
8
PUZZLE_DOG_BONES
10
1842
20
12375
30
0
0
VERTEX
8
PUZZLE_DOG_BONES
10
1824
20
12375
30
0
0
SEQEND
8
PUZZLE_DOG_BONES
0
TEXT
8
UNIT_NUMBER
10
2112
20
12183
30
0
40
20
1
01
72
1
11
2112
21
12183
31
0
73
2
0
TEXT
8
UNIT_NUMBER
10
2112
20
12158
30
0
40
20
1
BOTTOM
72
1
11
2112
21
12158
31
0
73
2
0
TEXT
8
UNIT_NUMBER
10
2112
20
12133
30
0
40
20
1
564x540
72
1
11
2112
21
12133
31
0
73
2
0
POLYLINE
8
OUTLINE
66
1
70
1
10
0
20
0
30
0
0
VERTEX
8
OUTLINE
10
2438
20
11682
30
0
0
VERTEX
8
OUTLINE
10
3038
20
11682
30
0
0
VERTEX
8
OUTLINE
10
3038
20
12452
30
0
0
VERTEX
8
OUTLINE
10
2438
20
12452
30
0
0
SEQEND
8
OUTLINE
0
POLYLINE
8
PUZZLE_SOCKET
66
1
70
1
10
0
20
0
30
0
0
VERTEX
8
PUZZLE_SOCKET
10
2432
20
11751.5
30
0
0
VERTEX
8
PUZZLE_SOCKET
10
2447
20
11751.5
30
0
0
VERTEX
8
PUZZLE_SOCKET
10
2447
20
11802.5
30
0
0
VERTEX
8
PUZZLE_SOCKET
10
2432
20
11802.5
30
0
0
SEQEND
8
PUZZLE_SOCKET
0
POLYLINE
8
PUZZLE_SOCKET
66
1
70
1
10
0
20
0
30
0
0
VERTEX
8
PUZZLE_SOCKET
10
2432
20
12041.5
30
0
0
VERTEX
8
PUZZLE_SOCKET
10
2447
20
12041.5
30
0
0
VERTEX
8
PUZZLE_SOCKET
10
2447
20
12092.5
30
0
0
VERTEX
8
PUZZLE_SOCKET
10
2432
20
12092.5
30
0
0
SEQEND
8
PUZZLE_SOCKET
0
POLYLINE
8
PUZZLE_SOCKET
66
1
70
1
10
0
20
0
30
0
0
VERTEX
8
PUZZLE_SOCKET
10
2432
20
12331.5
30
0
0
VERTEX
8
PUZZLE_SOCKET
10
2447
20
12331.5
30
0
0
VERTEX
8
PUZZLE_SOCKET
10
2447
20
12382.5
30
0
0
VERTEX
8
PUZZLE_SOCKET
10
2432
20
12382.5
30
0
0
SEQEND
8
PUZZLE_SOCKET
0
POLYLINE
8
PUZZLE_SOCKET
66
1
70
1
10
0
20
0
30
0
0
VERTEX
8
PUZZLE_SOCKET
10
3029
20
11751.5
30
0
0
VERTEX
8
PUZZLE_SOCKET
10
3044
20
11751.5
30
0
0
VERTEX
8
PUZZLE_SOCKET
10
3044
20
11802.5
30
0
0
VERTEX
8
PUZZLE_SOCKET
10
3029
20
11802.5
30
0
0
SEQEND
8
PUZZLE_SOCKET
0
POLYLINE
8
PUZZLE_SOCKET
66
1
70
1
10
0
20
0
30
0
0
VERTEX
8
PUZZLE_SOCKET
10
3029
20
12041.5
30
0
0
VERTEX
8
PUZZLE_SOCKET
10
3044
20
12041.5
30
0
0
VERTEX
8
PUZZLE_SOCKET
10
3044
20
12092.5
30
0
0
VERTEX
8
PUZZLE_SOCKET
10
3029
20
12092.5
30
0
0
SEQEND
8
PUZZLE_SOCKET
0
POLYLINE
8
PUZZLE_SOCKET
66
1
70
1
10
0
20
0
30
0
0
VERTEX
8
PUZZLE_SOCKET
10
3029
20
12331.5
30
0
0
VERTEX
8
PUZZLE_SOCKET
10
3044
20
12331.5
30
0
0
VERTEX
8
PUZZLE_SOCKET
10
3044
20
12382.5
30
0
0
VERTEX
8
PUZZLE_SOCKET
10
3029
20
12382.5
30
0
0
SEQEND
8
PUZZLE_SOCKET
0
POLYLINE
8
PUZZLE_SOCKET
66
1
70
1
10
0
20
0
30
0
0
VERTEX
8
PUZZLE_SOCKET
10
2525.5
20
12443
30
0
0
VERTEX
8
PUZZLE_SOCKET
10
2576.5
20
12443
30
0
0
VERTEX
8
PUZZLE_SOCKET
10
2576.5
20
12458
30
0
0
VERTEX
8
PUZZLE_SOCKET
10
2525.5
20
12458
30
0
0
SEQEND
8
PUZZLE_SOCKET
0
POLYLINE
8
PUZZLE_SOCKET
66
1
70
1
10
0
20
0
30
0
0
VERTEX
8
PUZZLE_SOCKET
10
2899.5
20
12443
30
0
0
VERTEX
8
PUZZLE_SOCKET
10
2950.5
20
12443
30
0
0
VERTEX
8
PUZZLE_SOCKET
10
2950.5
20
12458
30
0
0
VERTEX
8
PUZZLE_SOCKET
10
2899.5
20
12458
30
0
0
SEQEND
8
PUZZLE_SOCKET
0
POLYLINE
8
PUZZLE_SOCKET
66
1
70
1
10
0
20
0
30
0
0
VERTEX
8
PUZZLE_SOCKET
10
2525.5
20
11676
30
0
0
VERTEX
8
PUZZLE_SOCKET
10
2576.5
20
11676
30
0
0
VERTEX
8
PUZZLE_SOCKET
10
2576.5
20
11691
30
0
0
VERTEX
8
PUZZLE_SOCKET
10
2525.5
20
11691
30
0
0
SEQEND
8
PUZZLE_SOCKET
0
POLYLINE
8
PUZZLE_SOCKET
66
1
70
1
10
0
20
0
30
0
0
VERTEX
8
PUZZLE_SOCKET
10
2899.5
20
11676
30
0
0
VERTEX
8
PUZZLE_SOCKET
10
2950.5
20
11676
30
0
0
VERTEX
8
PUZZLE_SOCKET
10
2950.5
20
11691
30
0
0
VERTEX
8
PUZZLE_SOCKET
10
2899.5
20
11691
30
0
0
SEQEND
8
PUZZLE_SOCKET
0
CIRCLE
8
PUZZLE_HOLES_7_5MM
10
2446
20
11752.5
30
0
40
3.75
0
CIRCLE
8
PUZZLE_HOLES_7_5MM
10
2446
20
11801.5
30
0
40
3.75
0
CIRCLE
8
PUZZLE_HOLES_7_5MM
10
2446
20
12042.5
30
0
40
3.75
0
CIRCLE
8
PUZZLE_HOLES_7_5MM
10
2446
20
12091.5
30
0
40
3.75
0
CIRCLE
8
PUZZLE_HOLES_7_5MM
10
2446
20
12332.5
30
0
40
3.75
0
CIRCLE
8
PUZZLE_HOLES_7_5MM
10
2446
20
12381.5
30
0
40
3.75
0
CIRCLE
8
PUZZLE_HOLES_7_5MM
10
3030
20
11752.5
30
0
40
3.75
0
CIRCLE
8
PUZZLE_HOLES_7_5MM
10
3030
20
11801.5
30
0
40
3.75
0
CIRCLE
8
PUZZLE_HOLES_7_5MM
10
3030
20
12042.5
30
0
40
3.75
0
CIRCLE
8
PUZZLE_HOLES_7_5MM
10
3030
20
12091.5
30
0
40
3.75
0
CIRCLE
8
PUZZLE_HOLES_7_5MM
10
3030
20
12332.5
30
0
40
3.75
0
CIRCLE
8
PUZZLE_HOLES_7_5MM
10
3030
20
12381.5
30
0
40
3.75
0
CIRCLE
8
PUZZLE_HOLES_7_5MM
10
2526.5
20
12444
30
0
40
3.75
0
CIRCLE
8
PUZZLE_HOLES_7_5MM
10
2575.5
20
12444
30
0
40
3.75
0
CIRCLE
8
PUZZLE_HOLES_7_5MM
10
2900.5
20
12444
30
0
40
3.75
0
CIRCLE
8
PUZZLE_HOLES_7_5MM
10
2949.5
20
12444
30
0
40
3.75
0
CIRCLE
8
PUZZLE_HOLES_7_5MM
10
2526.5
20
11690
30
0
40
3.75
0
CIRCLE
8
PUZZLE_HOLES_7_5MM
10
2575.5
20
11690
30
0
40
3.75
0
CIRCLE
8
PUZZLE_HOLES_7_5MM
10
2900.5
20
11690
30
0
40
3.75
0
CIRCLE
8
PUZZLE_HOLES_7_5MM
10
2949.5
20
11690
30
0
40
3.75
0
CIRCLE
8
SCREWS_3MM
10
2447
20
11732
30
0
40
1.5
0
CIRCLE
8
SCREWS_3MM
10
3029
20
11732
30
0
40
1.5
0
CIRCLE
8
SCREWS_3MM
10
2447
20
11922
30
0
40
1.5
0
CIRCLE
8
SCREWS_3MM
10
3029
20
11922
30
0
40
1.5
0
CIRCLE
8
SCREWS_3MM
10
2447
20
12212
30
0
40
1.5
0
CIRCLE
8
SCREWS_3MM
10
3029
20
12212
30
0
40
1.5
0
CIRCLE
8
SCREWS_3MM
10
2447
20
12402
30
0
40
1.5
0
CIRCLE
8
SCREWS_3MM
10
3029
20
12402
30
0
40
1.5
0
CIRCLE
8
SCREWS_3MM
10
2506
20
12443
30
0
40
1.5
0
CIRCLE
8
SCREWS_3MM
10
2506
20
11691
30
0
40
1.5
0
CIRCLE
8
SCREWS_3MM
10
2738
20
12443
30
0
40
1.5
0
CIRCLE
8
SCREWS_3MM
10
2738
20
11691
30
0
40
1.5
0
CIRCLE
8
SCREWS_3MM
10
2970
20
12443
30
0
40
1.5
0
CIRCLE
8
SCREWS_3MM
10
2970
20
11691
30
0
40
1.5
0
TEXT
8
UNIT_NUMBER
10
2738
20
12079.5
30
0
40
20
1
01 BACK
72
1
11
2738
21
12079.5
31
0
73
2
0
TEXT
8
UNIT_NUMBER
10
2738
20
12054.5
30
0
40
20
1
600x770
72
1
11
2738
21
12054.5
31
0
73
2
0
POLYLINE
8
OUTLINE
66
1
70
1
10
0
20
0
30
0
0
VERTEX
8
OUTLINE
10
3194
20
11258
30
0
0
VERTEX
8
OUTLINE
10
3194
20
12458
30
0
0
VERTEX
8
OUTLINE
10
3094
20
12458
30
0
0
VERTEX
8
OUTLINE
10
3094
20
11258
30
0
0
SEQEND
8
OUTLINE
0
TEXT
8
UNIT_NUMBER
10
3144
20
11858
30
0
40
12
1
01 PLINTH 1200x100
50
90
72
1
11
3144
21
11858
31
0
73
2
0
POLYLINE
8
OUTLINE
66
1
70
1
10
0
20
0
30
0
0
VERTEX
8
OUTLINE
10
0
20
10332
30
0
0
VERTEX
8
OUTLINE
10
540
20
10332
30
0
0
VERTEX
8
OUTLINE
10
540
20
10402
30
0
0
VERTEX
8
OUTLINE
10
540
20
10408
30
0
0
VERTEX
8
OUTLINE
10
553
20
10408
30
0
0
VERTEX
8
OUTLINE
10
553
20
10402
30
0
0
VERTEX
8
OUTLINE
10
558
20
10402
30
0
0
VERTEX
8
OUTLINE
10
558
20
10452
30
0
0
VERTEX
8
OUTLINE
10
553
20
10452
30
0
0
VERTEX
8
OUTLINE
10
553
20
10446
30
0
0
VERTEX
8
OUTLINE
10
540
20
10446
30
0
0
VERTEX
8
OUTLINE
10
540
20
10452
30
0
0
VERTEX
8
OUTLINE
10
540
20
10692
30
0
0
VERTEX
8
OUTLINE
10
540
20
10698
30
0
0
VERTEX
8
OUTLINE
10
553
20
10698
30
0
0
VERTEX
8
OUTLINE
10
553
20
10692
30
0
0
VERTEX
8
OUTLINE
10
558
20
10692
30
0
0
VERTEX
8
OUTLINE
10
558
20
10742
30
0
0
VERTEX
8
OUTLINE
10
553
20
10742
30
0
0
VERTEX
8
OUTLINE
10
553
20
10736
30
0
0
VERTEX
8
OUTLINE
10
540
20
10736
30
0
0
VERTEX
8
OUTLINE
10
540
20
10742
30
0
0
VERTEX
8
OUTLINE
10
540
20
10982
30
0
0
VERTEX
8
OUTLINE
10
540
20
10988
30
0
0
VERTEX
8
OUTLINE
10
553
20
10988
30
0
0
VERTEX
8
OUTLINE
10
553
20
10982
30
0
0
VERTEX
8
OUTLINE
10
558
20
10982
30
0
0
VERTEX
8
OUTLINE
10
558
20
11032
30
0
0
VERTEX
8
OUTLINE
10
553
20
11032
30
0
0
VERTEX
8
OUTLINE
10
553
20
11026
30
0
0
VERTEX
8
OUTLINE
10
540
20
11026
30
0
0
VERTEX
8
OUTLINE
10
540
20
11032
30
0
0
VERTEX
8
OUTLINE
10
540
20
11102
30
0
0
VERTEX
8
OUTLINE
10
0
20
11102
30
0
0
SEQEND
8
OUTLINE
0
POLYLINE
8
PUZZLE_DOG_BONES
66
1
70
1
10
0
20
0
30
0
0
VERTEX
8
PUZZLE_DOG_BONES
10
540
20
10397
30
0
0
VERTEX
8
PUZZLE_DOG_BONES
10
558
20
10397
30
0
0
VERTEX
8
PUZZLE_DOG_BONES
10
558
20
10457
30
0
0
VERTEX
8
PUZZLE_DOG_BONES
10
540
20
10457
30
0
0
SEQEND
8
PUZZLE_DOG_BONES
0
POLYLINE
8
PUZZLE_DOG_BONES
66
1
70
1
10
0
20
0
30
0
0
VERTEX
8
PUZZLE_DOG_BONES
10
540
20
10687
30
0
0
VERTEX
8
PUZZLE_DOG_BONES
10
558
20
10687
30
0
0
VERTEX
8
PUZZLE_DOG_BONES
10
558
20
10747
30
0
0
VERTEX
8
PUZZLE_DOG_BONES
10
540
20
10747
30
0
0
SEQEND
8
PUZZLE_DOG_BONES
0
POLYLINE
8
PUZZLE_DOG_BONES
66
1
70
1
10
0
20
0
30
0
0
VERTEX
8
PUZZLE_DOG_BONES
10
540
20
10977
30
0
0
VERTEX
8
PUZZLE_DOG_BONES
10
558
20
10977
30
0
0
VERTEX
8
PUZZLE_DOG_BONES
10
558
20
11037
30
0
0
VERTEX
8
PUZZLE_DOG_BONES
10
540
20
11037
30
0
0
SEQEND
8
PUZZLE_DOG_BONES
0
POLYLINE
8
PUZZLE_SOCKET
66
1
70
1
10
0
20
0
30
0
0
VERTEX
8
PUZZLE_SOCKET
10
69.5
20
11093
30
0
0
VERTEX
8
PUZZLE_SOCKET
10
120.5
20
11093
30
0
0
VERTEX
8
PUZZLE_SOCKET
10
120.5
20
11108
30
0
0
VERTEX
8
PUZZLE_SOCKET
10
69.5
20
11108
30
0
0
SEQEND
8
PUZZLE_SOCKET
0
POLYLINE
8
PUZZLE_SOCKET
66
1
70
1
10
0
20
0
30
0
0
VERTEX
8
PUZZLE_SOCKET
10
69.5
20
10326
30
0
0
VERTEX
8
PUZZLE_SOCKET
10
120.5
20
10326
30
0
0
VERTEX
8
PUZZLE_SOCKET
10
120.5
20
10341
30
0
0
VERTEX
8
PUZZLE_SOCKET
10
69.5
20
10341
30
0
0
SEQEND
8
PUZZLE_SOCKET
0
POLYLINE
8
PUZZLE_SOCKET
66
1
70
1
10
0
20
0
30
0
0
VERTEX
8
PUZZLE_SOCKET
10
419.5
20
11093
30
0
0
VERTEX
8
PUZZLE_SOCKET
10
470.5
20
11093
30
0
0
VERTEX
8
PUZZLE_SOCKET
10
470.5
20
11108
30
0
0
VERTEX
8
PUZZLE_SOCKET
10
419.5
20
11108
30
0
0
SEQEND
8
PUZZLE_SOCKET
0
POLYLINE
8
PUZZLE_SOCKET
66
1
70
1
10
0
20
0
30
0
0
VERTEX
8
PUZZLE_SOCKET
10
419.5
20
10326
30
0
0
VERTEX
8
PUZZLE_SOCKET
10
470.5
20
10326
30
0
0
VERTEX
8
PUZZLE_SOCKET
10
470.5
20
10341
30
0
0
VERTEX
8
PUZZLE_SOCKET
10
419.5
20
10341
30
0
0
SEQEND
8
PUZZLE_SOCKET
0
CIRCLE
8
PUZZLE_HOLES_7_5MM
10
70.5
20
11094
30
0
40
3.75
0
CIRCLE
8
PUZZLE_HOLES_7_5MM
10
119.5
20
11094
30
0
40
3.75
0
CIRCLE
8
PUZZLE_HOLES_7_5MM
10
70.5
20
10340
30
0
40
3.75
0
CIRCLE
8
PUZZLE_HOLES_7_5MM
10
119.5
20
10340
30
0
40
3.75
0
CIRCLE
8
PUZZLE_HOLES_7_5MM
10
420.5
20
11094
30
0
40
3.75
0
CIRCLE
8
PUZZLE_HOLES_7_5MM
10
469.5
20
11094
30
0
40
3.75
0
CIRCLE
8
PUZZLE_HOLES_7_5MM
10
420.5
20
10340
30
0
40
3.75
0
CIRCLE
8
PUZZLE_HOLES_7_5MM
10
469.5
20
10340
30
0
40
3.75
0
CIRCLE
8
SCREWS_3MM
10
50
20
11093
30
0
40
1.5
0
CIRCLE
8
SCREWS_3MM
10
50
20
10341
30
0
40
1.5
0
CIRCLE
8
SCREWS_3MM
10
270
20
11093
30
0
40
1.5
0
CIRCLE
8
SCREWS_3MM
10
270
20
10341
30
0
40
1.5
0
CIRCLE
8
SCREWS_3MM
10
490
20
11093
30
0
40
1.5
0
CIRCLE
8
SCREWS_3MM
10
490
20
10341
30
0
40
1.5
0
CIRCLE
8
RUNNERS_3MM
10
37
20
10388
30
0
40
1.5
0
CIRCLE
8
RUNNERS_3MM
10
69
20
10388
30
0
40
1.5
0
CIRCLE
8
RUNNERS_3MM
10
293
20
10388
30
0
40
1.5
0
CIRCLE
8
RUNNERS_3MM
10
37
20
10711
30
0
40
1.5
0
CIRCLE
8
RUNNERS_3MM
10
69
20
10711
30
0
40
1.5
0
CIRCLE
8
RUNNERS_3MM
10
293
20
10711
30
0
40
1.5
0
CIRCLE
8
RUNNERS_3MM
10
37
20
10968
30
0
40
1.5
0
CIRCLE
8
RUNNERS_3MM
10
69
20
10968
30
0
40
1.5
0
CIRCLE
8
RUNNERS_3MM
10
293
20
10968
30
0
40
1.5
0
TEXT
8
UNIT_NUMBER
10
270
20
10742
30
0
40
20
1
DR01
72
1
11
270
21
10742
31
0
73
2
0
TEXT
8
UNIT_NUMBER
10
270
20
10717
30
0
40
20
1
BUL
72
1
11
270
21
10717
31
0
73
2
0
TEXT
8
UNIT_NUMBER
10
270
20
10692
30
0
40
20
1
540x770
72
1
11
270
21
10692
31
0
73
2
0
POLYLINE
8
OUTLINE
66
1
70
1
10
0
20
0
30
0
0
VERTEX
8
OUTLINE
10
626
20
10332
30
0
0
VERTEX
8
OUTLINE
10
1166
20
10332
30
0
0
VERTEX
8
OUTLINE
10
1166
20
11102
30
0
0
VERTEX
8
OUTLINE
10
626
20
11102
30
0
0
VERTEX
8
OUTLINE
10
626
20
11032
30
0
0
VERTEX
8
OUTLINE
10
626
20
11026
30
0
0
VERTEX
8
OUTLINE
10
613
20
11026
30
0
0
VERTEX
8
OUTLINE
10
613
20
11032
30
0
0
VERTEX
8
OUTLINE
10
608
20
11032
30
0
0
VERTEX
8
OUTLINE
10
608
20
10982
30
0
0
VERTEX
8
OUTLINE
10
613
20
10982
30
0
0
VERTEX
8
OUTLINE
10
613
20
10988
30
0
0
VERTEX
8
OUTLINE
10
626
20
10988
30
0
0
VERTEX
8
OUTLINE
10
626
20
10982
30
0
0
VERTEX
8
OUTLINE
10
626
20
10742
30
0
0
VERTEX
8
OUTLINE
10
626
20
10736
30
0
0
VERTEX
8
OUTLINE
10
613
20
10736
30
0
0
VERTEX
8
OUTLINE
10
613
20
10742
30
0
0
VERTEX
8
OUTLINE
10
608
20
10742
30
0
0
VERTEX
8
OUTLINE
10
608
20
10692
30
0
0
VERTEX
8
OUTLINE
10
613
20
10692
30
0
0
VERTEX
8
OUTLINE
10
613
20
10698
30
0
0
VERTEX
8
OUTLINE
10
626
20
10698
30
0
0
VERTEX
8
OUTLINE
10
626
20
10692
30
0
0
VERTEX
8
OUTLINE
10
626
20
10452
30
0
0
VERTEX
8
OUTLINE
10
626
20
10446
30
0
0
VERTEX
8
OUTLINE
10
613
20
10446
30
0
0
VERTEX
8
OUTLINE
10
613
20
10452
30
0
0
VERTEX
8
OUTLINE
10
608
20
10452
30
0
0
VERTEX
8
OUTLINE
10
608
20
10402
30
0
0
VERTEX
8
OUTLINE
10
613
20
10402
30
0
0
VERTEX
8
OUTLINE
10
613
20
10408
30
0
0
VERTEX
8
OUTLINE
10
626
20
10408
30
0
0
VERTEX
8
OUTLINE
10
626
20
10402
30
0
0
SEQEND
8
OUTLINE
0
POLYLINE
8
PUZZLE_DOG_BONES
66
1
70
1
10
0
20
0
30
0
0
VERTEX
8
PUZZLE_DOG_BONES
10
608
20
10397
30
0
0
VERTEX
8
PUZZLE_DOG_BONES
10
626
20
10397
30
0
0
VERTEX
8
PUZZLE_DOG_BONES
10
626
20
10457
30
0
0
VERTEX
8
PUZZLE_DOG_BONES
10
608
20
10457
30
0
0
SEQEND
8
PUZZLE_DOG_BONES
0
POLYLINE
8
PUZZLE_DOG_BONES
66
1
70
1
10
0
20
0
30
0
0
VERTEX
8
PUZZLE_DOG_BONES
10
608
20
10687
30
0
0
VERTEX
8
PUZZLE_DOG_BONES
10
626
20
10687
30
0
0
VERTEX
8
PUZZLE_DOG_BONES
10
626
20
10747
30
0
0
VERTEX
8
PUZZLE_DOG_BONES
10
608
20
10747
30
0
0
SEQEND
8
PUZZLE_DOG_BONES
0
POLYLINE
8
PUZZLE_DOG_BONES
66
1
70
1
10
0
20
0
30
0
0
VERTEX
8
PUZZLE_DOG_BONES
10
608
20
10977
30
0
0
VERTEX
8
PUZZLE_DOG_BONES
10
626
20
10977
30
0
0
VERTEX
8
PUZZLE_DOG_BONES
10
626
20
11037
30
0
0
VERTEX
8
PUZZLE_DOG_BONES
10
608
20
11037
30
0
0
SEQEND
8
PUZZLE_DOG_BONES
0
POLYLINE
8
PUZZLE_SOCKET
66
1
70
1
10
0
20
0
30
0
0
VERTEX
8
PUZZLE_SOCKET
10
695.5
20
11093
30
0
0
VERTEX
8
PUZZLE_SOCKET
10
746.5
20
11093
30
0
0
VERTEX
8
PUZZLE_SOCKET
10
746.5
20
11108
30
0
0
VERTEX
8
PUZZLE_SOCKET
10
695.5
20
11108
30
0
0
SEQEND
8
PUZZLE_SOCKET
0
POLYLINE
8
PUZZLE_SOCKET
66
1
70
1
10
0
20
0
30
0
0
VERTEX
8
PUZZLE_SOCKET
10
695.5
20
10326
30
0
0
VERTEX
8
PUZZLE_SOCKET
10
746.5
20
10326
30
0
0
VERTEX
8
PUZZLE_SOCKET
10
746.5
20
10341
30
0
0
VERTEX
8
PUZZLE_SOCKET
10
695.5
20
10341
30
0
0
SEQEND
8
PUZZLE_SOCKET
0
POLYLINE
8
PUZZLE_SOCKET
66
1
70
1
10
0
20
0
30
0
0
VERTEX
8
PUZZLE_SOCKET
10
1045.5
20
11093
30
0
0
VERTEX
8
PUZZLE_SOCKET
10
1096.5
20
11093
30
0
0
VERTEX
8
PUZZLE_SOCKET
10
1096.5
20
11108
30
0
0
VERTEX
8
PUZZLE_SOCKET
10
1045.5
20
11108
30
0
0
SEQEND
8
PUZZLE_SOCKET
0
POLYLINE
8
PUZZLE_SOCKET
66
1
70
1
10
0
20
0
30
0
0
VERTEX
8
PUZZLE_SOCKET
10
1045.5
20
10326
30
0
0
VERTEX
8
PUZZLE_SOCKET
10
1096.5
20
10326
30
0
0
VERTEX
8
PUZZLE_SOCKET
10
1096.5
20
10341
30
0
0
VERTEX
8
PUZZLE_SOCKET
10
1045.5
20
10341
30
0
0
SEQEND
8
PUZZLE_SOCKET
0
CIRCLE
8
PUZZLE_HOLES_7_5MM
10
696.5
20
11094
30
0
40
3.75
0
CIRCLE
8
PUZZLE_HOLES_7_5MM
10
745.5
20
11094
30
0
40
3.75
0
CIRCLE
8
PUZZLE_HOLES_7_5MM
10
696.5
20
10340
30
0
40
3.75
0
CIRCLE
8
PUZZLE_HOLES_7_5MM
10
745.5
20
10340
30
0
40
3.75
0
CIRCLE
8
PUZZLE_HOLES_7_5MM
10
1046.5
20
11094
30
0
40
3.75
0
CIRCLE
8
PUZZLE_HOLES_7_5MM
10
1095.5
20
11094
30
0
40
3.75
0
CIRCLE
8
PUZZLE_HOLES_7_5MM
10
1046.5
20
10340
30
0
40
3.75
0
CIRCLE
8
PUZZLE_HOLES_7_5MM
10
1095.5
20
10340
30
0
40
3.75
0
CIRCLE
8
SCREWS_3MM
10
676
20
11093
30
0
40
1.5
0
CIRCLE
8
SCREWS_3MM
10
676
20
10341
30
0
40
1.5
0
CIRCLE
8
SCREWS_3MM
10
896
20
11093
30
0
40
1.5
0
CIRCLE
8
SCREWS_3MM
10
896
20
10341
30
0
40
1.5
0
CIRCLE
8
SCREWS_3MM
10
1116
20
11093
30
0
40
1.5
0
CIRCLE
8
SCREWS_3MM
10
1116
20
10341
30
0
40
1.5
0
CIRCLE
8
RUNNERS_3MM
10
1129
20
10388
30
0
40
1.5
0
CIRCLE
8
RUNNERS_3MM
10
1097
20
10388
30
0
40
1.5
0
CIRCLE
8
RUNNERS_3MM
10
873
20
10388
30
0
40
1.5
0
CIRCLE
8
RUNNERS_3MM
10
1129
20
10711
30
0
40
1.5
0
CIRCLE
8
RUNNERS_3MM
10
1097
20
10711
30
0
40
1.5
0
CIRCLE
8
RUNNERS_3MM
10
873
20
10711
30
0
40
1.5
0
CIRCLE
8
RUNNERS_3MM
10
1129
20
10968
30
0
40
1.5
0
CIRCLE
8
RUNNERS_3MM
10
1097
20
10968
30
0
40
1.5
0
CIRCLE
8
RUNNERS_3MM
10
873
20
10968
30
0
40
1.5
0
TEXT
8
UNIT_NUMBER
10
896
20
10742
30
0
40
20
1
DR01
72
1
11
896
21
10742
31
0
73
2
0
TEXT
8
UNIT_NUMBER
10
896
20
10717
30
0
40
20
1
BUR
72
1
11
896
21
10717
31
0
73
2
0
TEXT
8
UNIT_NUMBER
10
896
20
10692
30
0
40
20
1
540x770
72
1
11
896
21
10692
31
0
73
2
0
POLYLINE
8
OUTLINE
66
1
70
1
10
0
20
0
30
0
0
VERTEX
8
OUTLINE
10
1234
20
10526
30
0
0
VERTEX
8
OUTLINE
10
1304
20
10526
30
0
0
VERTEX
8
OUTLINE
10
1310
20
10526
30
0
0
VERTEX
8
OUTLINE
10
1310
20
10513
30
0
0
VERTEX
8
OUTLINE
10
1304
20
10513
30
0
0
VERTEX
8
OUTLINE
10
1304
20
10508
30
0
0
VERTEX
8
OUTLINE
10
1354
20
10508
30
0
0
VERTEX
8
OUTLINE
10
1354
20
10513
30
0
0
VERTEX
8
OUTLINE
10
1348
20
10513
30
0
0
VERTEX
8
OUTLINE
10
1348
20
10526
30
0
0
VERTEX
8
OUTLINE
10
1354
20
10526
30
0
0
VERTEX
8
OUTLINE
10
1654
20
10526
30
0
0
VERTEX
8
OUTLINE
10
1660
20
10526
30
0
0
VERTEX
8
OUTLINE
10
1660
20
10513
30
0
0
VERTEX
8
OUTLINE
10
1654
20
10513
30
0
0
VERTEX
8
OUTLINE
10
1654
20
10508
30
0
0
VERTEX
8
OUTLINE
10
1704
20
10508
30
0
0
VERTEX
8
OUTLINE
10
1704
20
10513
30
0
0
VERTEX
8
OUTLINE
10
1698
20
10513
30
0
0
VERTEX
8
OUTLINE
10
1698
20
10526
30
0
0
VERTEX
8
OUTLINE
10
1704
20
10526
30
0
0
VERTEX
8
OUTLINE
10
1774
20
10526
30
0
0
VERTEX
8
OUTLINE
10
1774
20
11090
30
0
0
VERTEX
8
OUTLINE
10
1704
20
11090
30
0
0
VERTEX
8
OUTLINE
10
1698
20
11090
30
0
0
VERTEX
8
OUTLINE
10
1698
20
11103
30
0
0
VERTEX
8
OUTLINE
10
1704
20
11103
30
0
0
VERTEX
8
OUTLINE
10
1704
20
11108
30
0
0
VERTEX
8
OUTLINE
10
1654
20
11108
30
0
0
VERTEX
8
OUTLINE
10
1654
20
11103
30
0
0
VERTEX
8
OUTLINE
10
1660
20
11103
30
0
0
VERTEX
8
OUTLINE
10
1660
20
11090
30
0
0
VERTEX
8
OUTLINE
10
1654
20
11090
30
0
0
VERTEX
8
OUTLINE
10
1354
20
11090
30
0
0
VERTEX
8
OUTLINE
10
1348
20
11090
30
0
0
VERTEX
8
OUTLINE
10
1348
20
11103
30
0
0
VERTEX
8
OUTLINE
10
1354
20
11103
30
0
0
VERTEX
8
OUTLINE
10
1354
20
11108
30
0
0
VERTEX
8
OUTLINE
10
1304
20
11108
30
0
0
VERTEX
8
OUTLINE
10
1304
20
11103
30
0
0
VERTEX
8
OUTLINE
10
1310
20
11103
30
0
0
VERTEX
8
OUTLINE
10
1310
20
11090
30
0
0
VERTEX
8
OUTLINE
10
1304
20
11090
30
0
0
VERTEX
8
OUTLINE
10
1234
20
11090
30
0
0
VERTEX
8
OUTLINE
10
1234
20
11020
30
0
0
VERTEX
8
OUTLINE
10
1234
20
11014
30
0
0
VERTEX
8
OUTLINE
10
1221
20
11014
30
0
0
VERTEX
8
OUTLINE
10
1221
20
11020
30
0
0
VERTEX
8
OUTLINE
10
1216
20
11020
30
0
0
VERTEX
8
OUTLINE
10
1216
20
10970
30
0
0
VERTEX
8
OUTLINE
10
1221
20
10970
30
0
0
VERTEX
8
OUTLINE
10
1221
20
10976
30
0
0
VERTEX
8
OUTLINE
10
1234
20
10976
30
0
0
VERTEX
8
OUTLINE
10
1234
20
10970
30
0
0
VERTEX
8
OUTLINE
10
1234
20
10646
30
0
0
VERTEX
8
OUTLINE
10
1234
20
10640
30
0
0
VERTEX
8
OUTLINE
10
1221
20
10640
30
0
0
VERTEX
8
OUTLINE
10
1221
20
10646
30
0
0
VERTEX
8
OUTLINE
10
1216
20
10646
30
0
0
VERTEX
8
OUTLINE
10
1216
20
10596
30
0
0
VERTEX
8
OUTLINE
10
1221
20
10596
30
0
0
VERTEX
8
OUTLINE
10
1221
20
10602
30
0
0
VERTEX
8
OUTLINE
10
1234
20
10602
30
0
0
VERTEX
8
OUTLINE
10
1234
20
10596
30
0
0
SEQEND
8
OUTLINE
0
POLYLINE
8
PUZZLE_DOG_BONES
66
1
70
1
10
0
20
0
30
0
0
VERTEX
8
PUZZLE_DOG_BONES
10
1299
20
11090
30
0
0
VERTEX
8
PUZZLE_DOG_BONES
10
1359
20
11090
30
0
0
VERTEX
8
PUZZLE_DOG_BONES
10
1359
20
11108
30
0
0
VERTEX
8
PUZZLE_DOG_BONES
10
1299
20
11108
30
0
0
SEQEND
8
PUZZLE_DOG_BONES
0
POLYLINE
8
PUZZLE_DOG_BONES
66
1
70
1
10
0
20
0
30
0
0
VERTEX
8
PUZZLE_DOG_BONES
10
1299
20
10508
30
0
0
VERTEX
8
PUZZLE_DOG_BONES
10
1359
20
10508
30
0
0
VERTEX
8
PUZZLE_DOG_BONES
10
1359
20
10526
30
0
0
VERTEX
8
PUZZLE_DOG_BONES
10
1299
20
10526
30
0
0
SEQEND
8
PUZZLE_DOG_BONES
0
POLYLINE
8
PUZZLE_DOG_BONES
66
1
70
1
10
0
20
0
30
0
0
VERTEX
8
PUZZLE_DOG_BONES
10
1649
20
11090
30
0
0
VERTEX
8
PUZZLE_DOG_BONES
10
1709
20
11090
30
0
0
VERTEX
8
PUZZLE_DOG_BONES
10
1709
20
11108
30
0
0
VERTEX
8
PUZZLE_DOG_BONES
10
1649
20
11108
30
0
0
SEQEND
8
PUZZLE_DOG_BONES
0
POLYLINE
8
PUZZLE_DOG_BONES
66
1
70
1
10
0
20
0
30
0
0
VERTEX
8
PUZZLE_DOG_BONES
10
1649
20
10508
30
0
0
VERTEX
8
PUZZLE_DOG_BONES
10
1709
20
10508
30
0
0
VERTEX
8
PUZZLE_DOG_BONES
10
1709
20
10526
30
0
0
VERTEX
8
PUZZLE_DOG_BONES
10
1649
20
10526
30
0
0
SEQEND
8
PUZZLE_DOG_BONES
0
POLYLINE
8
PUZZLE_DOG_BONES
66
1
70
1
10
0
20
0
30
0
0
VERTEX
8
PUZZLE_DOG_BONES
10
1216
20
10591
30
0
0
VERTEX
8
PUZZLE_DOG_BONES
10
1234
20
10591
30
0
0
VERTEX
8
PUZZLE_DOG_BONES
10
1234
20
10651
30
0
0
VERTEX
8
PUZZLE_DOG_BONES
10
1216
20
10651
30
0
0
SEQEND
8
PUZZLE_DOG_BONES
0
POLYLINE
8
PUZZLE_DOG_BONES
66
1
70
1
10
0
20
0
30
0
0
VERTEX
8
PUZZLE_DOG_BONES
10
1216
20
10965
30
0
0
VERTEX
8
PUZZLE_DOG_BONES
10
1234
20
10965
30
0
0
VERTEX
8
PUZZLE_DOG_BONES
10
1234
20
11025
30
0
0
VERTEX
8
PUZZLE_DOG_BONES
10
1216
20
11025
30
0
0
SEQEND
8
PUZZLE_DOG_BONES
0
TEXT
8
UNIT_NUMBER
10
1504
20
10833
30
0
40
20
1
DR01
72
1
11
1504
21
10833
31
0
73
2
0
TEXT
8
UNIT_NUMBER
10
1504
20
10808
30
0
40
20
1
TOP
72
1
11
1504
21
10808
31
0
73
2
0
TEXT
8
UNIT_NUMBER
10
1504
20
10783
30
0
40
20
1
564x540
72
1
11
1504
21
10783
31
0
73
2
0
POLYLINE
8
OUTLINE
66
1
70
1
10
0
20
0
30
0
0
VERTEX
8
OUTLINE
10
1842
20
10526
30
0
0
VERTEX
8
OUTLINE
10
1912
20
10526
30
0
0
VERTEX
8
OUTLINE
10
1918
20
10526
30
0
0
VERTEX
8
OUTLINE
10
1918
20
10513
30
0
0
VERTEX
8
OUTLINE
10
1912
20
10513
30
0
0
VERTEX
8
OUTLINE
10
1912
20
10508
30
0
0
VERTEX
8
OUTLINE
10
1962
20
10508
30
0
0
VERTEX
8
OUTLINE
10
1962
20
10513
30
0
0
VERTEX
8
OUTLINE
10
1956
20
10513
30
0
0
VERTEX
8
OUTLINE
10
1956
20
10526
30
0
0
VERTEX
8
OUTLINE
10
1962
20
10526
30
0
0
VERTEX
8
OUTLINE
10
2262
20
10526
30
0
0
VERTEX
8
OUTLINE
10
2268
20
10526
30
0
0
VERTEX
8
OUTLINE
10
2268
20
10513
30
0
0
VERTEX
8
OUTLINE
10
2262
20
10513
30
0
0
VERTEX
8
OUTLINE
10
2262
20
10508
30
0
0
VERTEX
8
OUTLINE
10
2312
20
10508
30
0
0
VERTEX
8
OUTLINE
10
2312
20
10513
30
0
0
VERTEX
8
OUTLINE
10
2306
20
10513
30
0
0
VERTEX
8
OUTLINE
10
2306
20
10526
30
0
0
VERTEX
8
OUTLINE
10
2312
20
10526
30
0
0
VERTEX
8
OUTLINE
10
2382
20
10526
30
0
0
VERTEX
8
OUTLINE
10
2382
20
11090
30
0
0
VERTEX
8
OUTLINE
10
2312
20
11090
30
0
0
VERTEX
8
OUTLINE
10
2306
20
11090
30
0
0
VERTEX
8
OUTLINE
10
2306
20
11103
30
0
0
VERTEX
8
OUTLINE
10
2312
20
11103
30
0
0
VERTEX
8
OUTLINE
10
2312
20
11108
30
0
0
VERTEX
8
OUTLINE
10
2262
20
11108
30
0
0
VERTEX
8
OUTLINE
10
2262
20
11103
30
0
0
VERTEX
8
OUTLINE
10
2268
20
11103
30
0
0
VERTEX
8
OUTLINE
10
2268
20
11090
30
0
0
VERTEX
8
OUTLINE
10
2262
20
11090
30
0
0
VERTEX
8
OUTLINE
10
1962
20
11090
30
0
0
VERTEX
8
OUTLINE
10
1956
20
11090
30
0
0
VERTEX
8
OUTLINE
10
1956
20
11103
30
0
0
VERTEX
8
OUTLINE
10
1962
20
11103
30
0
0
VERTEX
8
OUTLINE
10
1962
20
11108
30
0
0
VERTEX
8
OUTLINE
10
1912
20
11108
30
0
0
VERTEX
8
OUTLINE
10
1912
20
11103
30
0
0
VERTEX
8
OUTLINE
10
1918
20
11103
30
0
0
VERTEX
8
OUTLINE
10
1918
20
11090
30
0
0
VERTEX
8
OUTLINE
10
1912
20
11090
30
0
0
VERTEX
8
OUTLINE
10
1842
20
11090
30
0
0
VERTEX
8
OUTLINE
10
1842
20
11020
30
0
0
VERTEX
8
OUTLINE
10
1842
20
11014
30
0
0
VERTEX
8
OUTLINE
10
1829
20
11014
30
0
0
VERTEX
8
OUTLINE
10
1829
20
11020
30
0
0
VERTEX
8
OUTLINE
10
1824
20
11020
30
0
0
VERTEX
8
OUTLINE
10
1824
20
10970
30
0
0
VERTEX
8
OUTLINE
10
1829
20
10970
30
0
0
VERTEX
8
OUTLINE
10
1829
20
10976
30
0
0
VERTEX
8
OUTLINE
10
1842
20
10976
30
0
0
VERTEX
8
OUTLINE
10
1842
20
10970
30
0
0
VERTEX
8
OUTLINE
10
1842
20
10646
30
0
0
VERTEX
8
OUTLINE
10
1842
20
10640
30
0
0
VERTEX
8
OUTLINE
10
1829
20
10640
30
0
0
VERTEX
8
OUTLINE
10
1829
20
10646
30
0
0
VERTEX
8
OUTLINE
10
1824
20
10646
30
0
0
VERTEX
8
OUTLINE
10
1824
20
10596
30
0
0
VERTEX
8
OUTLINE
10
1829
20
10596
30
0
0
VERTEX
8
OUTLINE
10
1829
20
10602
30
0
0
VERTEX
8
OUTLINE
10
1842
20
10602
30
0
0
VERTEX
8
OUTLINE
10
1842
20
10596
30
0
0
SEQEND
8
OUTLINE
0
POLYLINE
8
PUZZLE_DOG_BONES
66
1
70
1
10
0
20
0
30
0
0
VERTEX
8
PUZZLE_DOG_BONES
10
1907
20
11090
30
0
0
VERTEX
8
PUZZLE_DOG_BONES
10
1967
20
11090
30
0
0
VERTEX
8
PUZZLE_DOG_BONES
10
1967
20
11108
30
0
0
VERTEX
8
PUZZLE_DOG_BONES
10
1907
20
11108
30
0
0
SEQEND
8
PUZZLE_DOG_BONES
0
POLYLINE
8
PUZZLE_DOG_BONES
66
1
70
1
10
0
20
0
30
0
0
VERTEX
8
PUZZLE_DOG_BONES
10
1907
20
10508
30
0
0
VERTEX
8
PUZZLE_DOG_BONES
10
1967
20
10508
30
0
0
VERTEX
8
PUZZLE_DOG_BONES
10
1967
20
10526
30
0
0
VERTEX
8
PUZZLE_DOG_BONES
10
1907
20
10526
30
0
0
SEQEND
8
PUZZLE_DOG_BONES
0
POLYLINE
8
PUZZLE_DOG_BONES
66
1
70
1
10
0
20
0
30
0
0
VERTEX
8
PUZZLE_DOG_BONES
10
2257
20
11090
30
0
0
VERTEX
8
PUZZLE_DOG_BONES
10
2317
20
11090
30
0
0
VERTEX
8
PUZZLE_DOG_BONES
10
2317
20
11108
30
0
0
VERTEX
8
PUZZLE_DOG_BONES
10
2257
20
11108
30
0
0
SEQEND
8
PUZZLE_DOG_BONES
0
POLYLINE
8
PUZZLE_DOG_BONES
66
1
70
1
10
0
20
0
30
0
0
VERTEX
8
PUZZLE_DOG_BONES
10
2257
20
10508
30
0
0
VERTEX
8
PUZZLE_DOG_BONES
10
2317
20
10508
30
0
0
VERTEX
8
PUZZLE_DOG_BONES
10
2317
20
10526
30
0
0
VERTEX
8
PUZZLE_DOG_BONES
10
2257
20
10526
30
0
0
SEQEND
8
PUZZLE_DOG_BONES
0
POLYLINE
8
PUZZLE_DOG_BONES
66
1
70
1
10
0
20
0
30
0
0
VERTEX
8
PUZZLE_DOG_BONES
10
1824
20
10591
30
0
0
VERTEX
8
PUZZLE_DOG_BONES
10
1842
20
10591
30
0
0
VERTEX
8
PUZZLE_DOG_BONES
10
1842
20
10651
30
0
0
VERTEX
8
PUZZLE_DOG_BONES
10
1824
20
10651
30
0
0
SEQEND
8
PUZZLE_DOG_BONES
0
POLYLINE
8
PUZZLE_DOG_BONES
66
1
70
1
10
0
20
0
30
0
0
VERTEX
8
PUZZLE_DOG_BONES
10
1824
20
10965
30
0
0
VERTEX
8
PUZZLE_DOG_BONES
10
1842
20
10965
30
0
0
VERTEX
8
PUZZLE_DOG_BONES
10
1842
20
11025
30
0
0
VERTEX
8
PUZZLE_DOG_BONES
10
1824
20
11025
30
0
0
SEQEND
8
PUZZLE_DOG_BONES
0
TEXT
8
UNIT_NUMBER
10
2112
20
10833
30
0
40
20
1
DR01
72
1
11
2112
21
10833
31
0
73
2
0
TEXT
8
UNIT_NUMBER
10
2112
20
10808
30
0
40
20
1
BOTTOM
72
1
11
2112
21
10808
31
0
73
2
0
TEXT
8
UNIT_NUMBER
10
2112
20
10783
30
0
40
20
1
564x540
72
1
11
2112
21
10783
31
0
73
2
0
POLYLINE
8
OUTLINE
66
1
70
1
10
0
20
0
30
0
0
VERTEX
8
OUTLINE
10
2438
20
10332
30
0
0
VERTEX
8
OUTLINE
10
3038
20
10332
30
0
0
VERTEX
8
OUTLINE
10
3038
20
11102
30
0
0
VERTEX
8
OUTLINE
10
2438
20
11102
30
0
0
SEQEND
8
OUTLINE
0
POLYLINE
8
PUZZLE_SOCKET
66
1
70
1
10
0
20
0
30
0
0
VERTEX
8
PUZZLE_SOCKET
10
2432
20
10401.5
30
0
0
VERTEX
8
PUZZLE_SOCKET
10
2447
20
10401.5
30
0
0
VERTEX
8
PUZZLE_SOCKET
10
2447
20
10452.5
30
0
0
VERTEX
8
PUZZLE_SOCKET
10
2432
20
10452.5
30
0
0
SEQEND
8
PUZZLE_SOCKET
0
POLYLINE
8
PUZZLE_SOCKET
66
1
70
1
10
0
20
0
30
0
0
VERTEX
8
PUZZLE_SOCKET
10
2432
20
10691.5
30
0
0
VERTEX
8
PUZZLE_SOCKET
10
2447
20
10691.5
30
0
0
VERTEX
8
PUZZLE_SOCKET
10
2447
20
10742.5
30
0
0
VERTEX
8
PUZZLE_SOCKET
10
2432
20
10742.5
30
0
0
SEQEND
8
PUZZLE_SOCKET
0
POLYLINE
8
PUZZLE_SOCKET
66
1
70
1
10
0
20
0
30
0
0
VERTEX
8
PUZZLE_SOCKET
10
2432
20
10981.5
30
0
0
VERTEX
8
PUZZLE_SOCKET
10
2447
20
10981.5
30
0
0
VERTEX
8
PUZZLE_SOCKET
10
2447
20
11032.5
30
0
0
VERTEX
8
PUZZLE_SOCKET
10
2432
20
11032.5
30
0
0
SEQEND
8
PUZZLE_SOCKET
0
POLYLINE
8
PUZZLE_SOCKET
66
1
70
1
10
0
20
0
30
0
0
VERTEX
8
PUZZLE_SOCKET
10
3029
20
10401.5
30
0
0
VERTEX
8
PUZZLE_SOCKET
10
3044
20
10401.5
30
0
0
VERTEX
8
PUZZLE_SOCKET
10
3044
20
10452.5
30
0
0
VERTEX
8
PUZZLE_SOCKET
10
3029
20
10452.5
30
0
0
SEQEND
8
PUZZLE_SOCKET
0
POLYLINE
8
PUZZLE_SOCKET
66
1
70
1
10
0
20
0
30
0
0
VERTEX
8
PUZZLE_SOCKET
10
3029
20
10691.5
30
0
0
VERTEX
8
PUZZLE_SOCKET
10
3044
20
10691.5
30
0
0
VERTEX
8
PUZZLE_SOCKET
10
3044
20
10742.5
30
0
0
VERTEX
8
PUZZLE_SOCKET
10
3029
20
10742.5
30
0
0
SEQEND
8
PUZZLE_SOCKET
0
POLYLINE
8
PUZZLE_SOCKET
66
1
70
1
10
0
20
0
30
0
0
VERTEX
8
PUZZLE_SOCKET
10
3029
20
10981.5
30
0
0
VERTEX
8
PUZZLE_SOCKET
10
3044
20
10981.5
30
0
0
VERTEX
8
PUZZLE_SOCKET
10
3044
20
11032.5
30
0
0
VERTEX
8
PUZZLE_SOCKET
10
3029
20
11032.5
30
0
0
SEQEND
8
PUZZLE_SOCKET
0
POLYLINE
8
PUZZLE_SOCKET
66
1
70
1
10
0
20
0
30
0
0
VERTEX
8
PUZZLE_SOCKET
10
2525.5
20
11093
30
0
0
VERTEX
8
PUZZLE_SOCKET
10
2576.5
20
11093
30
0
0
VERTEX
8
PUZZLE_SOCKET
10
2576.5
20
11108
30
0
0
VERTEX
8
PUZZLE_SOCKET
10
2525.5
20
11108
30
0
0
SEQEND
8
PUZZLE_SOCKET
0
POLYLINE
8
PUZZLE_SOCKET
66
1
70
1
10
0
20
0
30
0
0
VERTEX
8
PUZZLE_SOCKET
10
2899.5
20
11093
30
0
0
VERTEX
8
PUZZLE_SOCKET
10
2950.5
20
11093
30
0
0
VERTEX
8
PUZZLE_SOCKET
10
2950.5
20
11108
30
0
0
VERTEX
8
PUZZLE_SOCKET
10
2899.5
20
11108
30
0
0
SEQEND
8
PUZZLE_SOCKET
0
POLYLINE
8
PUZZLE_SOCKET
66
1
70
1
10
0
20
0
30
0
0
VERTEX
8
PUZZLE_SOCKET
10
2525.5
20
10326
30
0
0
VERTEX
8
PUZZLE_SOCKET
10
2576.5
20
10326
30
0
0
VERTEX
8
PUZZLE_SOCKET
10
2576.5
20
10341
30
0
0
VERTEX
8
PUZZLE_SOCKET
10
2525.5
20
10341
30
0
0
SEQEND
8
PUZZLE_SOCKET
0
POLYLINE
8
PUZZLE_SOCKET
66
1
70
1
10
0
20
0
30
0
0
VERTEX
8
PUZZLE_SOCKET
10
2899.5
20
10326
30
0
0
VERTEX
8
PUZZLE_SOCKET
10
2950.5
20
10326
30
0
0
VERTEX
8
PUZZLE_SOCKET
10
2950.5
20
10341
30
0
0
VERTEX
8
PUZZLE_SOCKET
10
2899.5
20
10341
30
0
0
SEQEND
8
PUZZLE_SOCKET
0
CIRCLE
8
PUZZLE_HOLES_7_5MM
10
2446
20
10402.5
30
0
40
3.75
0
CIRCLE
8
PUZZLE_HOLES_7_5MM
10
2446
20
10451.5
30
0
40
3.75
0
CIRCLE
8
PUZZLE_HOLES_7_5MM
10
2446
20
10692.5
30
0
40
3.75
0
CIRCLE
8
PUZZLE_HOLES_7_5MM
10
2446
20
10741.5
30
0
40
3.75
0
CIRCLE
8
PUZZLE_HOLES_7_5MM
10
2446
20
10982.5
30
0
40
3.75
0
CIRCLE
8
PUZZLE_HOLES_7_5MM
10
2446
20
11031.5
30
0
40
3.75
0
CIRCLE
8
PUZZLE_HOLES_7_5MM
10
3030
20
10402.5
30
0
40
3.75
0
CIRCLE
8
PUZZLE_HOLES_7_5MM
10
3030
20
10451.5
30
0
40
3.75
0
CIRCLE
8
PUZZLE_HOLES_7_5MM
10
3030
20
10692.5
30
0
40
3.75
0
CIRCLE
8
PUZZLE_HOLES_7_5MM
10
3030
20
10741.5
30
0
40
3.75
0
CIRCLE
8
PUZZLE_HOLES_7_5MM
10
3030
20
10982.5
30
0
40
3.75
0
CIRCLE
8
PUZZLE_HOLES_7_5MM
10
3030
20
11031.5
30
0
40
3.75
0
CIRCLE
8
PUZZLE_HOLES_7_5MM
10
2526.5
20
11094
30
0
40
3.75
0
CIRCLE
8
PUZZLE_HOLES_7_5MM
10
2575.5
20
11094
30
0
40
3.75
0
CIRCLE
8
PUZZLE_HOLES_7_5MM
10
2900.5
20
11094
30
0
40
3.75
0
CIRCLE
8
PUZZLE_HOLES_7_5MM
10
2949.5
20
11094
30
0
40
3.75
0
CIRCLE
8
PUZZLE_HOLES_7_5MM
10
2526.5
20
10340
30
0
40
3.75
0
CIRCLE
8
PUZZLE_HOLES_7_5MM
10
2575.5
20
10340
30
0
40
3.75
0
CIRCLE
8
PUZZLE_HOLES_7_5MM
10
2900.5
20
10340
30
0
40
3.75
0
CIRCLE
8
PUZZLE_HOLES_7_5MM
10
2949.5
20
10340
30
0
40
3.75
0
CIRCLE
8
SCREWS_3MM
10
2447
20
10382
30
0
40
1.5
0
CIRCLE
8
SCREWS_3MM
10
3029
20
10382
30
0
40
1.5
0
CIRCLE
8
SCREWS_3MM
10
2447
20
10572
30
0
40
1.5
0
CIRCLE
8
SCREWS_3MM
10
3029
20
10572
30
0
40
1.5
0
CIRCLE
8
SCREWS_3MM
10
2447
20
10862
30
0
40
1.5
0
CIRCLE
8
SCREWS_3MM
10
3029
20
10862
30
0
40
1.5
0
CIRCLE
8
SCREWS_3MM
10
2447
20
11052
30
0
40
1.5
0
CIRCLE
8
SCREWS_3MM
10
3029
20
11052
30
0
40
1.5
0
CIRCLE
8
SCREWS_3MM
10
2506
20
11093
30
0
40
1.5
0
CIRCLE
8
SCREWS_3MM
10
2506
20
10341
30
0
40
1.5
0
CIRCLE
8
SCREWS_3MM
10
2738
20
11093
30
0
40
1.5
0
CIRCLE
8
SCREWS_3MM
10
2738
20
10341
30
0
40
1.5
0
CIRCLE
8
SCREWS_3MM
10
2970
20
11093
30
0
40
1.5
0
CIRCLE
8
SCREWS_3MM
10
2970
20
10341
30
0
40
1.5
0
TEXT
8
UNIT_NUMBER
10
2738
20
10742
30
0
40
20
1
DR01
72
1
11
2738
21
10742
31
0
73
2
0
TEXT
8
UNIT_NUMBER
10
2738
20
10717
30
0
40
20
1
BACK
72
1
11
2738
21
10717
31
0
73
2
0
TEXT
8
UNIT_NUMBER
10
2738
20
10692
30
0
40
20
1
600x770
72
1
11
2738
21
10692
31
0
73
2
0
POLYLINE
8
OUTLINE
66
1
70
1
10
0
20
0
30
0
0
VERTEX
8
OUTLINE
10
3094
20
10608
30
0
0
VERTEX
8
OUTLINE
10
3331
20
10608
30
0
0
VERTEX
8
OUTLINE
10
3331
20
11098
30
0
0
VERTEX
8
OUTLINE
10
3094
20
11098
30
0
0
SEQEND
8
OUTLINE
0
POLYLINE
8
DRAWER_RUNNER_POCKET
66
1
70
1
10
0
20
0
30
0
0
VERTEX
8
DRAWER_RUNNER_POCKET
10
3094
20
10598
30
0
0
VERTEX
8
DRAWER_RUNNER_POCKET
10
3109
20
10598
30
0
0
VERTEX
8
DRAWER_RUNNER_POCKET
10
3109
20
11108
30
0
0
VERTEX
8
DRAWER_RUNNER_POCKET
10
3094
20
11108
30
0
0
SEQEND
8
DRAWER_RUNNER_POCKET
0
POLYLINE
8
DRAWER_BOTTOM_POCKET
66
1
70
1
10
0
20
0
30
0
0
VERTEX
8
DRAWER_BOTTOM_POCKET
10
3109
20
10598
30
0
0
VERTEX
8
DRAWER_BOTTOM_POCKET
10
3128
20
10598
30
0
0
VERTEX
8
DRAWER_BOTTOM_POCKET
10
3128
20
11108
30
0
0
VERTEX
8
DRAWER_BOTTOM_POCKET
10
3109
20
11108
30
0
0
SEQEND
8
DRAWER_BOTTOM_POCKET
0
TEXT
8
UNIT_NUMBER
10
3212.5
20
10874.160714
30
0
40
16.928571
1
DR01
72
1
11
3212.5
21
10874.160714
31
0
73
2
0
TEXT
8
UNIT_NUMBER
10
3212.5
20
10853
30
0
40
16.928571
1
D1-SL
72
1
11
3212.5
21
10853
31
0
73
2
0
TEXT
8
UNIT_NUMBER
10
3212.5
20
10831.839286
30
0
40
16.928571
1
490x237
72
1
11
3212.5
21
10831.839286
31
0
73
2
0
POLYLINE
8
OUTLINE
66
1
70
1
10
0
20
0
30
0
0
VERTEX
8
OUTLINE
10
0
20
9776
30
0
0
VERTEX
8
OUTLINE
10
237
20
9776
30
0
0
VERTEX
8
OUTLINE
10
237
20
10266
30
0
0
VERTEX
8
OUTLINE
10
0
20
10266
30
0
0
SEQEND
8
OUTLINE
0
POLYLINE
8
DRAWER_RUNNER_POCKET
66
1
70
1
10
0
20
0
30
0
0
VERTEX
8
DRAWER_RUNNER_POCKET
10
0
20
9766
30
0
0
VERTEX
8
DRAWER_RUNNER_POCKET
10
15
20
9766
30
0
0
VERTEX
8
DRAWER_RUNNER_POCKET
10
15
20
10276
30
0
0
VERTEX
8
DRAWER_RUNNER_POCKET
10
0
20
10276
30
0
0
SEQEND
8
DRAWER_RUNNER_POCKET
0
POLYLINE
8
DRAWER_BOTTOM_POCKET
66
1
70
1
10
0
20
0
30
0
0
VERTEX
8
DRAWER_BOTTOM_POCKET
10
15
20
9766
30
0
0
VERTEX
8
DRAWER_BOTTOM_POCKET
10
34
20
9766
30
0
0
VERTEX
8
DRAWER_BOTTOM_POCKET
10
34
20
10276
30
0
0
VERTEX
8
DRAWER_BOTTOM_POCKET
10
15
20
10276
30
0
0
SEQEND
8
DRAWER_BOTTOM_POCKET
0
TEXT
8
UNIT_NUMBER
10
118.5
20
10042.160714
30
0
40
16.928571
1
DR01
72
1
11
118.5
21
10042.160714
31
0
73
2
0
TEXT
8
UNIT_NUMBER
10
118.5
20
10021
30
0
40
16.928571
1
D1-SR
72
1
11
118.5
21
10021
31
0
73
2
0
TEXT
8
UNIT_NUMBER
10
118.5
20
9999.839286
30
0
40
16.928571
1
490x237
72
1
11
118.5
21
9999.839286
31
0
73
2
0
POLYLINE
8
OUTLINE
66
1
70
1
10
0
20
0
30
0
0
VERTEX
8
OUTLINE
10
287
20
9776
30
0
0
VERTEX
8
OUTLINE
10
465
20
9776
30
0
0
VERTEX
8
OUTLINE
10
465
20
10266
30
0
0
VERTEX
8
OUTLINE
10
287
20
10266
30
0
0
SEQEND
8
OUTLINE
0
POLYLINE
8
DRAWER_RUNNER_POCKET
66
1
70
1
10
0
20
0
30
0
0
VERTEX
8
DRAWER_RUNNER_POCKET
10
287
20
9766
30
0
0
VERTEX
8
DRAWER_RUNNER_POCKET
10
302
20
9766
30
0
0
VERTEX
8
DRAWER_RUNNER_POCKET
10
302
20
10276
30
0
0
VERTEX
8
DRAWER_RUNNER_POCKET
10
287
20
10276
30
0
0
SEQEND
8
DRAWER_RUNNER_POCKET
0
POLYLINE
8
DRAWER_BOTTOM_POCKET
66
1
70
1
10
0
20
0
30
0
0
VERTEX
8
DRAWER_BOTTOM_POCKET
10
302
20
9766
30
0
0
VERTEX
8
DRAWER_BOTTOM_POCKET
10
321
20
9766
30
0
0
VERTEX
8
DRAWER_BOTTOM_POCKET
10
321
20
10276
30
0
0
VERTEX
8
DRAWER_BOTTOM_POCKET
10
302
20
10276
30
0
0
SEQEND
8
DRAWER_BOTTOM_POCKET
0
TEXT
8
UNIT_NUMBER
10
376
20
10036.892857
30
0
40
12.714286
1
DR01
72
1
11
376
21
10036.892857
31
0
73
2
0
TEXT
8
UNIT_NUMBER
10
376
20
10021
30
0
40
12.714286
1
D2-SL
72
1
11
376
21
10021
31
0
73
2
0
TEXT
8
UNIT_NUMBER
10
376
20
10005.107143
30
0
40
12.714286
1
490x178
72
1
11
376
21
10005.107143
31
0
73
2
0
POLYLINE
8
OUTLINE
66
1
70
1
10
0
20
0
30
0
0
VERTEX
8
OUTLINE
10
515
20
9776
30
0
0
VERTEX
8
OUTLINE
10
693
20
9776
30
0
0
VERTEX
8
OUTLINE
10
693
20
10266
30
0
0
VERTEX
8
OUTLINE
10
515
20
10266
30
0
0
SEQEND
8
OUTLINE
0
POLYLINE
8
DRAWER_RUNNER_POCKET
66
1
70
1
10
0
20
0
30
0
0
VERTEX
8
DRAWER_RUNNER_POCKET
10
515
20
9766
30
0
0
VERTEX
8
DRAWER_RUNNER_POCKET
10
530
20
9766
30
0
0
VERTEX
8
DRAWER_RUNNER_POCKET
10
530
20
10276
30
0
0
VERTEX
8
DRAWER_RUNNER_POCKET
10
515
20
10276
30
0
0
SEQEND
8
DRAWER_RUNNER_POCKET
0
POLYLINE
8
DRAWER_BOTTOM_POCKET
66
1
70
1
10
0
20
0
30
0
0
VERTEX
8
DRAWER_BOTTOM_POCKET
10
530
20
9766
30
0
0
VERTEX
8
DRAWER_BOTTOM_POCKET
10
549
20
9766
30
0
0
VERTEX
8
DRAWER_BOTTOM_POCKET
10
549
20
10276
30
0
0
VERTEX
8
DRAWER_BOTTOM_POCKET
10
530
20
10276
30
0
0
SEQEND
8
DRAWER_BOTTOM_POCKET
0
TEXT
8
UNIT_NUMBER
10
604
20
10036.892857
30
0
40
12.714286
1
DR01
72
1
11
604
21
10036.892857
31
0
73
2
0
TEXT
8
UNIT_NUMBER
10
604
20
10021
30
0
40
12.714286
1
D2-SR
72
1
11
604
21
10021
31
0
73
2
0
TEXT
8
UNIT_NUMBER
10
604
20
10005.107143
30
0
40
12.714286
1
490x178
72
1
11
604
21
10005.107143
31
0
73
2
0
POLYLINE
8
OUTLINE
66
1
70
1
10
0
20
0
30
0
0
VERTEX
8
OUTLINE
10
743
20
9776
30
0
0
VERTEX
8
OUTLINE
10
861
20
9776
30
0
0
VERTEX
8
OUTLINE
10
861
20
10266
30
0
0
VERTEX
8
OUTLINE
10
743
20
10266
30
0
0
SEQEND
8
OUTLINE
0
POLYLINE
8
DRAWER_RUNNER_POCKET
66
1
70
1
10
0
20
0
30
0
0
VERTEX
8
DRAWER_RUNNER_POCKET
10
743
20
9766
30
0
0
VERTEX
8
DRAWER_RUNNER_POCKET
10
758
20
9766
30
0
0
VERTEX
8
DRAWER_RUNNER_POCKET
10
758
20
10276
30
0
0
VERTEX
8
DRAWER_RUNNER_POCKET
10
743
20
10276
30
0
0
SEQEND
8
DRAWER_RUNNER_POCKET
0
POLYLINE
8
DRAWER_BOTTOM_POCKET
66
1
70
1
10
0
20
0
30
0
0
VERTEX
8
DRAWER_BOTTOM_POCKET
10
758
20
9766
30
0
0
VERTEX
8
DRAWER_BOTTOM_POCKET
10
777
20
9766
30
0
0
VERTEX
8
DRAWER_BOTTOM_POCKET
10
777
20
10276
30
0
0
VERTEX
8
DRAWER_BOTTOM_POCKET
10
758
20
10276
30
0
0
SEQEND
8
DRAWER_BOTTOM_POCKET
0
TEXT
8
UNIT_NUMBER
10
802
20
10031.535714
30
0
40
8.428571
1
DR01
72
1
11
802
21
10031.535714
31
0
73
2
0
TEXT
8
UNIT_NUMBER
10
802
20
10021
30
0
40
8.428571
1
D3-SL
72
1
11
802
21
10021
31
0
73
2
0
TEXT
8
UNIT_NUMBER
10
802
20
10010.464286
30
0
40
8.428571
1
490x118
72
1
11
802
21
10010.464286
31
0
73
2
0
POLYLINE
8
OUTLINE
66
1
70
1
10
0
20
0
30
0
0
VERTEX
8
OUTLINE
10
911
20
9776
30
0
0
VERTEX
8
OUTLINE
10
1029
20
9776
30
0
0
VERTEX
8
OUTLINE
10
1029
20
10266
30
0
0
VERTEX
8
OUTLINE
10
911
20
10266
30
0
0
SEQEND
8
OUTLINE
0
POLYLINE
8
DRAWER_RUNNER_POCKET
66
1
70
1
10
0
20
0
30
0
0
VERTEX
8
DRAWER_RUNNER_POCKET
10
911
20
9766
30
0
0
VERTEX
8
DRAWER_RUNNER_POCKET
10
926
20
9766
30
0
0
VERTEX
8
DRAWER_RUNNER_POCKET
10
926
20
10276
30
0
0
VERTEX
8
DRAWER_RUNNER_POCKET
10
911
20
10276
30
0
0
SEQEND
8
DRAWER_RUNNER_POCKET
0
POLYLINE
8
DRAWER_BOTTOM_POCKET
66
1
70
1
10
0
20
0
30
0
0
VERTEX
8
DRAWER_BOTTOM_POCKET
10
926
20
9766
30
0
0
VERTEX
8
DRAWER_BOTTOM_POCKET
10
945
20
9766
30
0
0
VERTEX
8
DRAWER_BOTTOM_POCKET
10
945
20
10276
30
0
0
VERTEX
8
DRAWER_BOTTOM_POCKET
10
926
20
10276
30
0
0
SEQEND
8
DRAWER_BOTTOM_POCKET
0
TEXT
8
UNIT_NUMBER
10
970
20
10031.535714
30
0
40
8.428571
1
DR01
72
1
11
970
21
10031.535714
31
0
73
2
0
TEXT
8
UNIT_NUMBER
10
970
20
10021
30
0
40
8.428571
1
D3-SR
72
1
11
970
21
10021
31
0
73
2
0
TEXT
8
UNIT_NUMBER
10
970
20
10010.464286
30
0
40
8.428571
1
490x118
72
1
11
970
21
10010.464286
31
0
73
2
0
POLYLINE
8
OUTLINE
66
1
70
1
10
0
20
0
30
0
0
VERTEX
8
OUTLINE
10
1079
20
9758
30
0
0
VERTEX
8
OUTLINE
10
1282
20
9758
30
0
0
VERTEX
8
OUTLINE
10
1282
20
10276
30
0
0
VERTEX
8
OUTLINE
10
1079
20
10276
30
0
0
SEQEND
8
OUTLINE
0
CIRCLE
8
SCREWS_3MM
10
1129
20
9808
30
0
40
1.5
0
CIRCLE
8
SCREWS_3MM
10
1129
20
10226
30
0
40
1.5
0
TEXT
8
UNIT_NUMBER
10
1180.5
20
10035.125
30
0
40
14.5
1
DR01
72
1
11
1180.5
21
10035.125
31
0
73
2
0
TEXT
8
UNIT_NUMBER
10
1180.5
20
10017
30
0
40
14.5
1
D1-BF
72
1
11
1180.5
21
10017
31
0
73
2
0
TEXT
8
UNIT_NUMBER
10
1180.5
20
9998.875
30
0
40
14.5
1
518x203
72
1
11
1180.5
21
9998.875
31
0
73
2
0
POLYLINE
8
OUTLINE
66
1
70
1
10
0
20
0
30
0
0
VERTEX
8
OUTLINE
10
1332
20
9758
30
0
0
VERTEX
8
OUTLINE
10
1535
20
9758
30
0
0
VERTEX
8
OUTLINE
10
1535
20
10276
30
0
0
VERTEX
8
OUTLINE
10
1332
20
10276
30
0
0
SEQEND
8
OUTLINE
0
TEXT
8
UNIT_NUMBER
10
1433.5
20
10035.125
30
0
40
14.5
1
DR01
72
1
11
1433.5
21
10035.125
31
0
73
2
0
TEXT
8
UNIT_NUMBER
10
1433.5
20
10017
30
0
40
14.5
1
D1-BB
72
1
11
1433.5
21
10017
31
0
73
2
0
TEXT
8
UNIT_NUMBER
10
1433.5
20
9998.875
30
0
40
14.5
1
518x203
72
1
11
1433.5
21
9998.875
31
0
73
2
0
POLYLINE
8
OUTLINE
66
1
70
1
10
0
20
0
30
0
0
VERTEX
8
OUTLINE
10
1585
20
9758
30
0
0
VERTEX
8
OUTLINE
10
1729
20
9758
30
0
0
VERTEX
8
OUTLINE
10
1729
20
10276
30
0
0
VERTEX
8
OUTLINE
10
1585
20
10276
30
0
0
SEQEND
8
OUTLINE
0
CIRCLE
8
SCREWS_3MM
10
1635
20
9808
30
0
40
1.5
0
CIRCLE
8
SCREWS_3MM
10
1635
20
10226
30
0
40
1.5
0
TEXT
8
UNIT_NUMBER
10
1657
20
10029.857143
30
0
40
10.285714
1
DR01
72
1
11
1657
21
10029.857143
31
0
73
2
0
TEXT
8
UNIT_NUMBER
10
1657
20
10017
30
0
40
10.285714
1
D2-BF
72
1
11
1657
21
10017
31
0
73
2
0
TEXT
8
UNIT_NUMBER
10
1657
20
10004.142857
30
0
40
10.285714
1
518x144
72
1
11
1657
21
10004.142857
31
0
73
2
0
POLYLINE
8
OUTLINE
66
1
70
1
10
0
20
0
30
0
0
VERTEX
8
OUTLINE
10
1779
20
9758
30
0
0
VERTEX
8
OUTLINE
10
1923
20
9758
30
0
0
VERTEX
8
OUTLINE
10
1923
20
10276
30
0
0
VERTEX
8
OUTLINE
10
1779
20
10276
30
0
0
SEQEND
8
OUTLINE
0
TEXT
8
UNIT_NUMBER
10
1851
20
10029.857143
30
0
40
10.285714
1
DR01
72
1
11
1851
21
10029.857143
31
0
73
2
0
TEXT
8
UNIT_NUMBER
10
1851
20
10017
30
0
40
10.285714
1
D2-BB
72
1
11
1851
21
10017
31
0
73
2
0
TEXT
8
UNIT_NUMBER
10
1851
20
10004.142857
30
0
40
10.285714
1
518x144
72
1
11
1851
21
10004.142857
31
0
73
2
0
POLYLINE
8
OUTLINE
66
1
70
1
10
0
20
0
30
0
0
VERTEX
8
OUTLINE
10
1973
20
9758
30
0
0
VERTEX
8
OUTLINE
10
2057
20
9758
30
0
0
VERTEX
8
OUTLINE
10
2057
20
10276
30
0
0
VERTEX
8
OUTLINE
10
1973
20
10276
30
0
0
SEQEND
8
OUTLINE
0
CIRCLE
8
SCREWS_3MM
10
2023
20
9808
30
0
40
1.5
0
CIRCLE
8
SCREWS_3MM
10
2023
20
10226
30
0
40
1.5
0
TEXT
8
UNIT_NUMBER
10
2015
20
10025.75
30
0
40
7
1
DR01
72
1
11
2015
21
10025.75
31
0
73
2
0
TEXT
8
UNIT_NUMBER
10
2015
20
10017
30
0
40
7
1
D3-BF
72
1
11
2015
21
10017
31
0
73
2
0
TEXT
8
UNIT_NUMBER
10
2015
20
10008.25
30
0
40
7
1
518x84
72
1
11
2015
21
10008.25
31
0
73
2
0
POLYLINE
8
OUTLINE
66
1
70
1
10
0
20
0
30
0
0
VERTEX
8
OUTLINE
10
2107
20
9758
30
0
0
VERTEX
8
OUTLINE
10
2191
20
9758
30
0
0
VERTEX
8
OUTLINE
10
2191
20
10276
30
0
0
VERTEX
8
OUTLINE
10
2107
20
10276
30
0
0
SEQEND
8
OUTLINE
0
TEXT
8
UNIT_NUMBER
10
2149
20
10025.75
30
0
40
7
1
DR01
72
1
11
2149
21
10025.75
31
0
73
2
0
TEXT
8
UNIT_NUMBER
10
2149
20
10017
30
0
40
7
1
D3-BB
72
1
11
2149
21
10017
31
0
73
2
0
TEXT
8
UNIT_NUMBER
10
2149
20
10008.25
30
0
40
7
1
518x84
72
1
11
2149
21
10008.25
31
0
73
2
0
POLYLINE
8
OUTLINE
66
1
70
1
10
0
20
0
30
0
0
VERTEX
8
OUTLINE
10
2731
20
9745
30
0
0
VERTEX
8
OUTLINE
10
2731
20
10276
30
0
0
VERTEX
8
OUTLINE
10
2241
20
10276
30
0
0
VERTEX
8
OUTLINE
10
2241
20
9745
30
0
0
SEQEND
8
OUTLINE
0
CIRCLE
8
SCREWS_3MM
10
2722
20
9815
30
0
40
1.5
0
CIRCLE
8
SCREWS_3MM
10
2250
20
9815
30
0
40
1.5
0
CIRCLE
8
SCREWS_3MM
10
2722
20
10206
30
0
40
1.5
0
CIRCLE
8
SCREWS_3MM
10
2250
20
10206
30
0
40
1.5
0
TEXT
8
UNIT_NUMBER
10
2461
20
10010.5
30
0
40
20
1
DR01
50
90
72
1
11
2461
21
10010.5
31
0
73
2
0
TEXT
8
UNIT_NUMBER
10
2486
20
10010.5
30
0
40
20
1
D1-DNO
50
90
72
1
11
2486
21
10010.5
31
0
73
2
0
TEXT
8
UNIT_NUMBER
10
2511
20
10010.5
30
0
40
20
1
531x490
50
90
72
1
11
2511
21
10010.5
31
0
73
2
0
POLYLINE
8
OUTLINE
66
1
70
1
10
0
20
0
30
0
0
VERTEX
8
OUTLINE
10
3271
20
9745
30
0
0
VERTEX
8
OUTLINE
10
3271
20
10276
30
0
0
VERTEX
8
OUTLINE
10
2781
20
10276
30
0
0
VERTEX
8
OUTLINE
10
2781
20
9745
30
0
0
SEQEND
8
OUTLINE
0
CIRCLE
8
SCREWS_3MM
10
3262
20
9815
30
0
40
1.5
0
CIRCLE
8
SCREWS_3MM
10
2790
20
9815
30
0
40
1.5
0
CIRCLE
8
SCREWS_3MM
10
3262
20
10206
30
0
40
1.5
0
CIRCLE
8
SCREWS_3MM
10
2790
20
10206
30
0
40
1.5
0
TEXT
8
UNIT_NUMBER
10
3001
20
10010.5
30
0
40
20
1
DR01
50
90
72
1
11
3001
21
10010.5
31
0
73
2
0
TEXT
8
UNIT_NUMBER
10
3026
20
10010.5
30
0
40
20
1
D2-DNO
50
90
72
1
11
3026
21
10010.5
31
0
73
2
0
TEXT
8
UNIT_NUMBER
10
3051
20
10010.5
30
0
40
20
1
531x490
50
90
72
1
11
3051
21
10010.5
31
0
73
2
0
POLYLINE
8
OUTLINE
66
1
70
1
10
0
20
0
30
0
0
VERTEX
8
OUTLINE
10
490
20
9164
30
0
0
VERTEX
8
OUTLINE
10
490
20
9695
30
0
0
VERTEX
8
OUTLINE
10
0
20
9695
30
0
0
VERTEX
8
OUTLINE
10
0
20
9164
30
0
0
SEQEND
8
OUTLINE
0
CIRCLE
8
SCREWS_3MM
10
481
20
9234
30
0
40
1.5
0
CIRCLE
8
SCREWS_3MM
10
9
20
9234
30
0
40
1.5
0
CIRCLE
8
SCREWS_3MM
10
481
20
9625
30
0
40
1.5
0
CIRCLE
8
SCREWS_3MM
10
9
20
9625
30
0
40
1.5
0
TEXT
8
UNIT_NUMBER
10
220
20
9429.5
30
0
40
20
1
DR01
50
90
72
1
11
220
21
9429.5
31
0
73
2
0
TEXT
8
UNIT_NUMBER
10
245
20
9429.5
30
0
40
20
1
D3-DNO
50
90
72
1
11
245
21
9429.5
31
0
73
2
0
TEXT
8
UNIT_NUMBER
10
270
20
9429.5
30
0
40
20
1
531x490
50
90
72
1
11
270
21
9429.5
31
0
73
2
0
POLYLINE
8
OUTLINE
66
1
70
1
10
0
20
0
30
0
0
VERTEX
8
OUTLINE
10
878
20
9098
30
0
0
VERTEX
8
OUTLINE
10
878
20
9695
30
0
0
VERTEX
8
OUTLINE
10
540
20
9695
30
0
0
VERTEX
8
OUTLINE
10
540
20
9098
30
0
0
SEQEND
8
OUTLINE
0
POLYLINE
8
SHAKER_PANEL_POCKET
66
1
70
1
10
0
20
0
30
0
0
VERTEX
8
SHAKER_PANEL_POCKET
10
600
20
9158
30
0
0
VERTEX
8
SHAKER_PANEL_POCKET
10
600
20
9635
30
0
0
VERTEX
8
SHAKER_PANEL_POCKET
10
818
20
9635
30
0
0
VERTEX
8
SHAKER_PANEL_POCKET
10
818
20
9158
30
0
0
SEQEND
8
SHAKER_PANEL_POCKET
0
CIRCLE
8
FRONT_HINGES_3MM
10
763.5
20
9187.5
30
0
40
1.5
0
CIRCLE
8
FRONT_HINGES_3MM
10
763.5
20
9605.5
30
0
40
1.5
0
TEXT
8
UNIT_NUMBER
10
696.5
20
9396.5
30
0
40
20
1
DR01 F1
50
90
72
1
11
696.5
21
9396.5
31
0
73
2
0
TEXT
8
UNIT_NUMBER
10
721.5
20
9396.5
30
0
40
20
1
597x338
50
90
72
1
11
721.5
21
9396.5
31
0
73
2
0
POLYLINE
8
OUTLINE
66
1
70
1
10
0
20
0
30
0
0
VERTEX
8
OUTLINE
10
1182
20
9098
30
0
0
VERTEX
8
OUTLINE
10
1182
20
9695
30
0
0
VERTEX
8
OUTLINE
10
928
20
9695
30
0
0
VERTEX
8
OUTLINE
10
928
20
9098
30
0
0
SEQEND
8
OUTLINE
0
POLYLINE
8
SHAKER_PANEL_POCKET
66
1
70
1
10
0
20
0
30
0
0
VERTEX
8
SHAKER_PANEL_POCKET
10
988
20
9158
30
0
0
VERTEX
8
SHAKER_PANEL_POCKET
10
988
20
9635
30
0
0
VERTEX
8
SHAKER_PANEL_POCKET
10
1122
20
9635
30
0
0
VERTEX
8
SHAKER_PANEL_POCKET
10
1122
20
9158
30
0
0
SEQEND
8
SHAKER_PANEL_POCKET
0
CIRCLE
8
FRONT_HINGES_3MM
10
1085.5
20
9187.5
30
0
40
1.5
0
CIRCLE
8
FRONT_HINGES_3MM
10
1085.5
20
9605.5
30
0
40
1.5
0
TEXT
8
UNIT_NUMBER
10
1042.5
20
9396.5
30
0
40
20
1
DR01 F2
50
90
72
1
11
1042.5
21
9396.5
31
0
73
2
0
TEXT
8
UNIT_NUMBER
10
1067.5
20
9396.5
30
0
40
20
1
597x254
50
90
72
1
11
1067.5
21
9396.5
31
0
73
2
0
POLYLINE
8
OUTLINE
66
1
70
1
10
0
20
0
30
0
0
VERTEX
8
OUTLINE
10
1401
20
9098
30
0
0
VERTEX
8
OUTLINE
10
1401
20
9695
30
0
0
VERTEX
8
OUTLINE
10
1232
20
9695
30
0
0
VERTEX
8
OUTLINE
10
1232
20
9098
30
0
0
SEQEND
8
OUTLINE
0
CIRCLE
8
FRONT_HINGES_3MM
10
1304.5
20
9187.5
30
0
40
1.5
0
CIRCLE
8
FRONT_HINGES_3MM
10
1304.5
20
9605.5
30
0
40
1.5
0
TEXT
8
UNIT_NUMBER
10
1304
20
9396.5
30
0
40
20
1
DR01 F3
50
90
72
1
11
1304
21
9396.5
31
0
73
2
0
TEXT
8
UNIT_NUMBER
10
1329
20
9396.5
30
0
40
20
1
597x169
50
90
72
1
11
1329
21
9396.5
31
0
73
2
0
POLYLINE
8
OUTLINE
66
1
70
1
10
0
20
0
30
0
0
VERTEX
8
OUTLINE
10
0
20
6792
30
0
0
VERTEX
8
OUTLINE
10
540
20
6792
30
0
0
VERTEX
8
OUTLINE
10
540
20
6862
30
0
0
VERTEX
8
OUTLINE
10
540
20
6868
30
0
0
VERTEX
8
OUTLINE
10
553
20
6868
30
0
0
VERTEX
8
OUTLINE
10
553
20
6862
30
0
0
VERTEX
8
OUTLINE
10
558
20
6862
30
0
0
VERTEX
8
OUTLINE
10
558
20
6912
30
0
0
VERTEX
8
OUTLINE
10
553
20
6912
30
0
0
VERTEX
8
OUTLINE
10
553
20
6906
30
0
0
VERTEX
8
OUTLINE
10
540
20
6906
30
0
0
VERTEX
8
OUTLINE
10
540
20
6912
30
0
0
VERTEX
8
OUTLINE
10
540
20
7842
30
0
0
VERTEX
8
OUTLINE
10
540
20
7848
30
0
0
VERTEX
8
OUTLINE
10
553
20
7848
30
0
0
VERTEX
8
OUTLINE
10
553
20
7842
30
0
0
VERTEX
8
OUTLINE
10
558
20
7842
30
0
0
VERTEX
8
OUTLINE
10
558
20
7892
30
0
0
VERTEX
8
OUTLINE
10
553
20
7892
30
0
0
VERTEX
8
OUTLINE
10
553
20
7886
30
0
0
VERTEX
8
OUTLINE
10
540
20
7886
30
0
0
VERTEX
8
OUTLINE
10
540
20
7892
30
0
0
VERTEX
8
OUTLINE
10
540
20
8822
30
0
0
VERTEX
8
OUTLINE
10
540
20
8828
30
0
0
VERTEX
8
OUTLINE
10
553
20
8828
30
0
0
VERTEX
8
OUTLINE
10
553
20
8822
30
0
0
VERTEX
8
OUTLINE
10
558
20
8822
30
0
0
VERTEX
8
OUTLINE
10
558
20
8872
30
0
0
VERTEX
8
OUTLINE
10
553
20
8872
30
0
0
VERTEX
8
OUTLINE
10
553
20
8866
30
0
0
VERTEX
8
OUTLINE
10
540
20
8866
30
0
0
VERTEX
8
OUTLINE
10
540
20
8872
30
0
0
VERTEX
8
OUTLINE
10
540
20
8942
30
0
0
VERTEX
8
OUTLINE
10
0
20
8942
30
0
0
SEQEND
8
OUTLINE
0
POLYLINE
8
PUZZLE_DOG_BONES
66
1
70
1
10
0
20
0
30
0
0
VERTEX
8
PUZZLE_DOG_BONES
10
540
20
6857
30
0
0
VERTEX
8
PUZZLE_DOG_BONES
10
558
20
6857
30
0
0
VERTEX
8
PUZZLE_DOG_BONES
10
558
20
6917
30
0
0
VERTEX
8
PUZZLE_DOG_BONES
10
540
20
6917
30
0
0
SEQEND
8
PUZZLE_DOG_BONES
0
POLYLINE
8
PUZZLE_DOG_BONES
66
1
70
1
10
0
20
0
30
0
0
VERTEX
8
PUZZLE_DOG_BONES
10
540
20
7837
30
0
0
VERTEX
8
PUZZLE_DOG_BONES
10
558
20
7837
30
0
0
VERTEX
8
PUZZLE_DOG_BONES
10
558
20
7897
30
0
0
VERTEX
8
PUZZLE_DOG_BONES
10
540
20
7897
30
0
0
SEQEND
8
PUZZLE_DOG_BONES
0
POLYLINE
8
PUZZLE_DOG_BONES
66
1
70
1
10
0
20
0
30
0
0
VERTEX
8
PUZZLE_DOG_BONES
10
540
20
8817
30
0
0
VERTEX
8
PUZZLE_DOG_BONES
10
558
20
8817
30
0
0
VERTEX
8
PUZZLE_DOG_BONES
10
558
20
8877
30
0
0
VERTEX
8
PUZZLE_DOG_BONES
10
540
20
8877
30
0
0
SEQEND
8
PUZZLE_DOG_BONES
0
POLYLINE
8
PUZZLE_SOCKET
66
1
70
1
10
0
20
0
30
0
0
VERTEX
8
PUZZLE_SOCKET
10
69.5
20
8933
30
0
0
VERTEX
8
PUZZLE_SOCKET
10
120.5
20
8933
30
0
0
VERTEX
8
PUZZLE_SOCKET
10
120.5
20
8948
30
0
0
VERTEX
8
PUZZLE_SOCKET
10
69.5
20
8948
30
0
0
SEQEND
8
PUZZLE_SOCKET
0
POLYLINE
8
PUZZLE_SOCKET
66
1
70
1
10
0
20
0
30
0
0
VERTEX
8
PUZZLE_SOCKET
10
69.5
20
6786
30
0
0
VERTEX
8
PUZZLE_SOCKET
10
120.5
20
6786
30
0
0
VERTEX
8
PUZZLE_SOCKET
10
120.5
20
6801
30
0
0
VERTEX
8
PUZZLE_SOCKET
10
69.5
20
6801
30
0
0
SEQEND
8
PUZZLE_SOCKET
0
POLYLINE
8
PUZZLE_SOCKET
66
1
70
1
10
0
20
0
30
0
0
VERTEX
8
PUZZLE_SOCKET
10
419.5
20
8933
30
0
0
VERTEX
8
PUZZLE_SOCKET
10
470.5
20
8933
30
0
0
VERTEX
8
PUZZLE_SOCKET
10
470.5
20
8948
30
0
0
VERTEX
8
PUZZLE_SOCKET
10
419.5
20
8948
30
0
0
SEQEND
8
PUZZLE_SOCKET
0
POLYLINE
8
PUZZLE_SOCKET
66
1
70
1
10
0
20
0
30
0
0
VERTEX
8
PUZZLE_SOCKET
10
419.5
20
6786
30
0
0
VERTEX
8
PUZZLE_SOCKET
10
470.5
20
6786
30
0
0
VERTEX
8
PUZZLE_SOCKET
10
470.5
20
6801
30
0
0
VERTEX
8
PUZZLE_SOCKET
10
419.5
20
6801
30
0
0
SEQEND
8
PUZZLE_SOCKET
0
CIRCLE
8
PUZZLE_HOLES_7_5MM
10
70.5
20
8934
30
0
40
3.75
0
CIRCLE
8
PUZZLE_HOLES_7_5MM
10
119.5
20
8934
30
0
40
3.75
0
CIRCLE
8
PUZZLE_HOLES_7_5MM
10
70.5
20
6800
30
0
40
3.75
0
CIRCLE
8
PUZZLE_HOLES_7_5MM
10
119.5
20
6800
30
0
40
3.75
0
CIRCLE
8
PUZZLE_HOLES_7_5MM
10
420.5
20
8934
30
0
40
3.75
0
CIRCLE
8
PUZZLE_HOLES_7_5MM
10
469.5
20
8934
30
0
40
3.75
0
CIRCLE
8
PUZZLE_HOLES_7_5MM
10
420.5
20
6800
30
0
40
3.75
0
CIRCLE
8
PUZZLE_HOLES_7_5MM
10
469.5
20
6800
30
0
40
3.75
0
CIRCLE
8
SCREWS_3MM
10
50
20
8933
30
0
40
1.5
0
CIRCLE
8
SCREWS_3MM
10
50
20
6801
30
0
40
1.5
0
CIRCLE
8
SCREWS_3MM
10
270
20
8933
30
0
40
1.5
0
CIRCLE
8
SCREWS_3MM
10
270
20
6801
30
0
40
1.5
0
CIRCLE
8
SCREWS_3MM
10
490
20
8933
30
0
40
1.5
0
CIRCLE
8
SCREWS_3MM
10
490
20
6801
30
0
40
1.5
0
CIRCLE
8
RUNNERS_3MM
10
112
20
6848
30
0
40
1.5
0
CIRCLE
8
RUNNERS_3MM
10
144
20
6848
30
0
40
1.5
0
CIRCLE
8
RUNNERS_3MM
10
368
20
6848
30
0
40
1.5
0
CIRCLE
8
RUNNERS_3MM
10
112
20
7051
30
0
40
1.5
0
CIRCLE
8
RUNNERS_3MM
10
144
20
7051
30
0
40
1.5
0
CIRCLE
8
RUNNERS_3MM
10
368
20
7051
30
0
40
1.5
0
CIRCLE
8
SCREWS_3MM
10
50
20
7247
30
0
40
1.5
0
CIRCLE
8
SCREWS_3MM
10
270
20
7247
30
0
40
1.5
0
CIRCLE
8
SCREWS_3MM
10
490
20
7247
30
0
40
1.5
0
TEXT
8
UNIT_NUMBER
10
270
20
7879.5
30
0
40
20
1
W01 BUL
72
1
11
270
21
7879.5
31
0
73
2
0
TEXT
8
UNIT_NUMBER
10
270
20
7854.5
30
0
40
20
1
540x2150
72
1
11
270
21
7854.5
31
0
73
2
0
POLYLINE
8
OUTLINE
66
1
70
1
10
0
20
0
30
0
0
VERTEX
8
OUTLINE
10
626
20
6792
30
0
0
VERTEX
8
OUTLINE
10
1166
20
6792
30
0
0
VERTEX
8
OUTLINE
10
1166
20
8942
30
0
0
VERTEX
8
OUTLINE
10
626
20
8942
30
0
0
VERTEX
8
OUTLINE
10
626
20
8872
30
0
0
VERTEX
8
OUTLINE
10
626
20
8866
30
0
0
VERTEX
8
OUTLINE
10
613
20
8866
30
0
0
VERTEX
8
OUTLINE
10
613
20
8872
30
0
0
VERTEX
8
OUTLINE
10
608
20
8872
30
0
0
VERTEX
8
OUTLINE
10
608
20
8822
30
0
0
VERTEX
8
OUTLINE
10
613
20
8822
30
0
0
VERTEX
8
OUTLINE
10
613
20
8828
30
0
0
VERTEX
8
OUTLINE
10
626
20
8828
30
0
0
VERTEX
8
OUTLINE
10
626
20
8822
30
0
0
VERTEX
8
OUTLINE
10
626
20
7892
30
0
0
VERTEX
8
OUTLINE
10
626
20
7886
30
0
0
VERTEX
8
OUTLINE
10
613
20
7886
30
0
0
VERTEX
8
OUTLINE
10
613
20
7892
30
0
0
VERTEX
8
OUTLINE
10
608
20
7892
30
0
0
VERTEX
8
OUTLINE
10
608
20
7842
30
0
0
VERTEX
8
OUTLINE
10
613
20
7842
30
0
0
VERTEX
8
OUTLINE
10
613
20
7848
30
0
0
VERTEX
8
OUTLINE
10
626
20
7848
30
0
0
VERTEX
8
OUTLINE
10
626
20
7842
30
0
0
VERTEX
8
OUTLINE
10
626
20
6912
30
0
0
VERTEX
8
OUTLINE
10
626
20
6906
30
0
0
VERTEX
8
OUTLINE
10
613
20
6906
30
0
0
VERTEX
8
OUTLINE
10
613
20
6912
30
0
0
VERTEX
8
OUTLINE
10
608
20
6912
30
0
0
VERTEX
8
OUTLINE
10
608
20
6862
30
0
0
VERTEX
8
OUTLINE
10
613
20
6862
30
0
0
VERTEX
8
OUTLINE
10
613
20
6868
30
0
0
VERTEX
8
OUTLINE
10
626
20
6868
30
0
0
VERTEX
8
OUTLINE
10
626
20
6862
30
0
0
SEQEND
8
OUTLINE
0
POLYLINE
8
PUZZLE_DOG_BONES
66
1
70
1
10
0
20
0
30
0
0
VERTEX
8
PUZZLE_DOG_BONES
10
608
20
6857
30
0
0
VERTEX
8
PUZZLE_DOG_BONES
10
626
20
6857
30
0
0
VERTEX
8
PUZZLE_DOG_BONES
10
626
20
6917
30
0
0
VERTEX
8
PUZZLE_DOG_BONES
10
608
20
6917
30
0
0
SEQEND
8
PUZZLE_DOG_BONES
0
POLYLINE
8
PUZZLE_DOG_BONES
66
1
70
1
10
0
20
0
30
0
0
VERTEX
8
PUZZLE_DOG_BONES
10
608
20
7837
30
0
0
VERTEX
8
PUZZLE_DOG_BONES
10
626
20
7837
30
0
0
VERTEX
8
PUZZLE_DOG_BONES
10
626
20
7897
30
0
0
VERTEX
8
PUZZLE_DOG_BONES
10
608
20
7897
30
0
0
SEQEND
8
PUZZLE_DOG_BONES
0
POLYLINE
8
PUZZLE_DOG_BONES
66
1
70
1
10
0
20
0
30
0
0
VERTEX
8
PUZZLE_DOG_BONES
10
608
20
8817
30
0
0
VERTEX
8
PUZZLE_DOG_BONES
10
626
20
8817
30
0
0
VERTEX
8
PUZZLE_DOG_BONES
10
626
20
8877
30
0
0
VERTEX
8
PUZZLE_DOG_BONES
10
608
20
8877
30
0
0
SEQEND
8
PUZZLE_DOG_BONES
0
POLYLINE
8
PUZZLE_SOCKET
66
1
70
1
10
0
20
0
30
0
0
VERTEX
8
PUZZLE_SOCKET
10
695.5
20
8933
30
0
0
VERTEX
8
PUZZLE_SOCKET
10
746.5
20
8933
30
0
0
VERTEX
8
PUZZLE_SOCKET
10
746.5
20
8948
30
0
0
VERTEX
8
PUZZLE_SOCKET
10
695.5
20
8948
30
0
0
SEQEND
8
PUZZLE_SOCKET
0
POLYLINE
8
PUZZLE_SOCKET
66
1
70
1
10
0
20
0
30
0
0
VERTEX
8
PUZZLE_SOCKET
10
695.5
20
6786
30
0
0
VERTEX
8
PUZZLE_SOCKET
10
746.5
20
6786
30
0
0
VERTEX
8
PUZZLE_SOCKET
10
746.5
20
6801
30
0
0
VERTEX
8
PUZZLE_SOCKET
10
695.5
20
6801
30
0
0
SEQEND
8
PUZZLE_SOCKET
0
POLYLINE
8
PUZZLE_SOCKET
66
1
70
1
10
0
20
0
30
0
0
VERTEX
8
PUZZLE_SOCKET
10
1045.5
20
8933
30
0
0
VERTEX
8
PUZZLE_SOCKET
10
1096.5
20
8933
30
0
0
VERTEX
8
PUZZLE_SOCKET
10
1096.5
20
8948
30
0
0
VERTEX
8
PUZZLE_SOCKET
10
1045.5
20
8948
30
0
0
SEQEND
8
PUZZLE_SOCKET
0
POLYLINE
8
PUZZLE_SOCKET
66
1
70
1
10
0
20
0
30
0
0
VERTEX
8
PUZZLE_SOCKET
10
1045.5
20
6786
30
0
0
VERTEX
8
PUZZLE_SOCKET
10
1096.5
20
6786
30
0
0
VERTEX
8
PUZZLE_SOCKET
10
1096.5
20
6801
30
0
0
VERTEX
8
PUZZLE_SOCKET
10
1045.5
20
6801
30
0
0
SEQEND
8
PUZZLE_SOCKET
0
CIRCLE
8
PUZZLE_HOLES_7_5MM
10
696.5
20
8934
30
0
40
3.75
0
CIRCLE
8
PUZZLE_HOLES_7_5MM
10
745.5
20
8934
30
0
40
3.75
0
CIRCLE
8
PUZZLE_HOLES_7_5MM
10
696.5
20
6800
30
0
40
3.75
0
CIRCLE
8
PUZZLE_HOLES_7_5MM
10
745.5
20
6800
30
0
40
3.75
0
CIRCLE
8
PUZZLE_HOLES_7_5MM
10
1046.5
20
8934
30
0
40
3.75
0
CIRCLE
8
PUZZLE_HOLES_7_5MM
10
1095.5
20
8934
30
0
40
3.75
0
CIRCLE
8
PUZZLE_HOLES_7_5MM
10
1046.5
20
6800
30
0
40
3.75
0
CIRCLE
8
PUZZLE_HOLES_7_5MM
10
1095.5
20
6800
30
0
40
3.75
0
CIRCLE
8
SCREWS_3MM
10
676
20
8933
30
0
40
1.5
0
CIRCLE
8
SCREWS_3MM
10
676
20
6801
30
0
40
1.5
0
CIRCLE
8
SCREWS_3MM
10
896
20
8933
30
0
40
1.5
0
CIRCLE
8
SCREWS_3MM
10
896
20
6801
30
0
40
1.5
0
CIRCLE
8
SCREWS_3MM
10
1116
20
8933
30
0
40
1.5
0
CIRCLE
8
SCREWS_3MM
10
1116
20
6801
30
0
40
1.5
0
CIRCLE
8
RUNNERS_3MM
10
1054
20
6848
30
0
40
1.5
0
CIRCLE
8
RUNNERS_3MM
10
1022
20
6848
30
0
40
1.5
0
CIRCLE
8
RUNNERS_3MM
10
798
20
6848
30
0
40
1.5
0
CIRCLE
8
RUNNERS_3MM
10
1054
20
7051
30
0
40
1.5
0
CIRCLE
8
RUNNERS_3MM
10
1022
20
7051
30
0
40
1.5
0
CIRCLE
8
RUNNERS_3MM
10
798
20
7051
30
0
40
1.5
0
CIRCLE
8
SCREWS_3MM
10
676
20
7247
30
0
40
1.5
0
CIRCLE
8
SCREWS_3MM
10
896
20
7247
30
0
40
1.5
0
CIRCLE
8
SCREWS_3MM
10
1116
20
7247
30
0
40
1.5
0
TEXT
8
UNIT_NUMBER
10
896
20
7879.5
30
0
40
20
1
W01 BUR
72
1
11
896
21
7879.5
31
0
73
2
0
TEXT
8
UNIT_NUMBER
10
896
20
7854.5
30
0
40
20
1
540x2150
72
1
11
896
21
7854.5
31
0
73
2
0
POLYLINE
8
OUTLINE
66
1
70
1
10
0
20
0
30
0
0
VERTEX
8
OUTLINE
10
1234
20
8366
30
0
0
VERTEX
8
OUTLINE
10
1304
20
8366
30
0
0
VERTEX
8
OUTLINE
10
1310
20
8366
30
0
0
VERTEX
8
OUTLINE
10
1310
20
8353
30
0
0
VERTEX
8
OUTLINE
10
1304
20
8353
30
0
0
VERTEX
8
OUTLINE
10
1304
20
8348
30
0
0
VERTEX
8
OUTLINE
10
1354
20
8348
30
0
0
VERTEX
8
OUTLINE
10
1354
20
8353
30
0
0
VERTEX
8
OUTLINE
10
1348
20
8353
30
0
0
VERTEX
8
OUTLINE
10
1348
20
8366
30
0
0
VERTEX
8
OUTLINE
10
1354
20
8366
30
0
0
VERTEX
8
OUTLINE
10
1654
20
8366
30
0
0
VERTEX
8
OUTLINE
10
1660
20
8366
30
0
0
VERTEX
8
OUTLINE
10
1660
20
8353
30
0
0
VERTEX
8
OUTLINE
10
1654
20
8353
30
0
0
VERTEX
8
OUTLINE
10
1654
20
8348
30
0
0
VERTEX
8
OUTLINE
10
1704
20
8348
30
0
0
VERTEX
8
OUTLINE
10
1704
20
8353
30
0
0
VERTEX
8
OUTLINE
10
1698
20
8353
30
0
0
VERTEX
8
OUTLINE
10
1698
20
8366
30
0
0
VERTEX
8
OUTLINE
10
1704
20
8366
30
0
0
VERTEX
8
OUTLINE
10
1774
20
8366
30
0
0
VERTEX
8
OUTLINE
10
1774
20
8930
30
0
0
VERTEX
8
OUTLINE
10
1704
20
8930
30
0
0
VERTEX
8
OUTLINE
10
1698
20
8930
30
0
0
VERTEX
8
OUTLINE
10
1698
20
8943
30
0
0
VERTEX
8
OUTLINE
10
1704
20
8943
30
0
0
VERTEX
8
OUTLINE
10
1704
20
8948
30
0
0
VERTEX
8
OUTLINE
10
1654
20
8948
30
0
0
VERTEX
8
OUTLINE
10
1654
20
8943
30
0
0
VERTEX
8
OUTLINE
10
1660
20
8943
30
0
0
VERTEX
8
OUTLINE
10
1660
20
8930
30
0
0
VERTEX
8
OUTLINE
10
1654
20
8930
30
0
0
VERTEX
8
OUTLINE
10
1354
20
8930
30
0
0
VERTEX
8
OUTLINE
10
1348
20
8930
30
0
0
VERTEX
8
OUTLINE
10
1348
20
8943
30
0
0
VERTEX
8
OUTLINE
10
1354
20
8943
30
0
0
VERTEX
8
OUTLINE
10
1354
20
8948
30
0
0
VERTEX
8
OUTLINE
10
1304
20
8948
30
0
0
VERTEX
8
OUTLINE
10
1304
20
8943
30
0
0
VERTEX
8
OUTLINE
10
1310
20
8943
30
0
0
VERTEX
8
OUTLINE
10
1310
20
8930
30
0
0
VERTEX
8
OUTLINE
10
1304
20
8930
30
0
0
VERTEX
8
OUTLINE
10
1234
20
8930
30
0
0
VERTEX
8
OUTLINE
10
1234
20
8860
30
0
0
VERTEX
8
OUTLINE
10
1234
20
8854
30
0
0
VERTEX
8
OUTLINE
10
1221
20
8854
30
0
0
VERTEX
8
OUTLINE
10
1221
20
8860
30
0
0
VERTEX
8
OUTLINE
10
1216
20
8860
30
0
0
VERTEX
8
OUTLINE
10
1216
20
8810
30
0
0
VERTEX
8
OUTLINE
10
1221
20
8810
30
0
0
VERTEX
8
OUTLINE
10
1221
20
8816
30
0
0
VERTEX
8
OUTLINE
10
1234
20
8816
30
0
0
VERTEX
8
OUTLINE
10
1234
20
8810
30
0
0
VERTEX
8
OUTLINE
10
1234
20
8486
30
0
0
VERTEX
8
OUTLINE
10
1234
20
8480
30
0
0
VERTEX
8
OUTLINE
10
1221
20
8480
30
0
0
VERTEX
8
OUTLINE
10
1221
20
8486
30
0
0
VERTEX
8
OUTLINE
10
1216
20
8486
30
0
0
VERTEX
8
OUTLINE
10
1216
20
8436
30
0
0
VERTEX
8
OUTLINE
10
1221
20
8436
30
0
0
VERTEX
8
OUTLINE
10
1221
20
8442
30
0
0
VERTEX
8
OUTLINE
10
1234
20
8442
30
0
0
VERTEX
8
OUTLINE
10
1234
20
8436
30
0
0
SEQEND
8
OUTLINE
0
POLYLINE
8
PUZZLE_DOG_BONES
66
1
70
1
10
0
20
0
30
0
0
VERTEX
8
PUZZLE_DOG_BONES
10
1299
20
8930
30
0
0
VERTEX
8
PUZZLE_DOG_BONES
10
1359
20
8930
30
0
0
VERTEX
8
PUZZLE_DOG_BONES
10
1359
20
8948
30
0
0
VERTEX
8
PUZZLE_DOG_BONES
10
1299
20
8948
30
0
0
SEQEND
8
PUZZLE_DOG_BONES
0
POLYLINE
8
PUZZLE_DOG_BONES
66
1
70
1
10
0
20
0
30
0
0
VERTEX
8
PUZZLE_DOG_BONES
10
1299
20
8348
30
0
0
VERTEX
8
PUZZLE_DOG_BONES
10
1359
20
8348
30
0
0
VERTEX
8
PUZZLE_DOG_BONES
10
1359
20
8366
30
0
0
VERTEX
8
PUZZLE_DOG_BONES
10
1299
20
8366
30
0
0
SEQEND
8
PUZZLE_DOG_BONES
0
POLYLINE
8
PUZZLE_DOG_BONES
66
1
70
1
10
0
20
0
30
0
0
VERTEX
8
PUZZLE_DOG_BONES
10
1649
20
8930
30
0
0
VERTEX
8
PUZZLE_DOG_BONES
10
1709
20
8930
30
0
0
VERTEX
8
PUZZLE_DOG_BONES
10
1709
20
8948
30
0
0
VERTEX
8
PUZZLE_DOG_BONES
10
1649
20
8948
30
0
0
SEQEND
8
PUZZLE_DOG_BONES
0
POLYLINE
8
PUZZLE_DOG_BONES
66
1
70
1
10
0
20
0
30
0
0
VERTEX
8
PUZZLE_DOG_BONES
10
1649
20
8348
30
0
0
VERTEX
8
PUZZLE_DOG_BONES
10
1709
20
8348
30
0
0
VERTEX
8
PUZZLE_DOG_BONES
10
1709
20
8366
30
0
0
VERTEX
8
PUZZLE_DOG_BONES
10
1649
20
8366
30
0
0
SEQEND
8
PUZZLE_DOG_BONES
0
POLYLINE
8
PUZZLE_DOG_BONES
66
1
70
1
10
0
20
0
30
0
0
VERTEX
8
PUZZLE_DOG_BONES
10
1216
20
8431
30
0
0
VERTEX
8
PUZZLE_DOG_BONES
10
1234
20
8431
30
0
0
VERTEX
8
PUZZLE_DOG_BONES
10
1234
20
8491
30
0
0
VERTEX
8
PUZZLE_DOG_BONES
10
1216
20
8491
30
0
0
SEQEND
8
PUZZLE_DOG_BONES
0
POLYLINE
8
PUZZLE_DOG_BONES
66
1
70
1
10
0
20
0
30
0
0
VERTEX
8
PUZZLE_DOG_BONES
10
1216
20
8805
30
0
0
VERTEX
8
PUZZLE_DOG_BONES
10
1234
20
8805
30
0
0
VERTEX
8
PUZZLE_DOG_BONES
10
1234
20
8865
30
0
0
VERTEX
8
PUZZLE_DOG_BONES
10
1216
20
8865
30
0
0
SEQEND
8
PUZZLE_DOG_BONES
0
TEXT
8
UNIT_NUMBER
10
1504
20
8660.5
30
0
40
20
1
W01 TOP
72
1
11
1504
21
8660.5
31
0
73
2
0
TEXT
8
UNIT_NUMBER
10
1504
20
8635.5
30
0
40
20
1
564x540
72
1
11
1504
21
8635.5
31
0
73
2
0
POLYLINE
8
OUTLINE
66
1
70
1
10
0
20
0
30
0
0
VERTEX
8
OUTLINE
10
1842
20
8366
30
0
0
VERTEX
8
OUTLINE
10
1912
20
8366
30
0
0
VERTEX
8
OUTLINE
10
1918
20
8366
30
0
0
VERTEX
8
OUTLINE
10
1918
20
8353
30
0
0
VERTEX
8
OUTLINE
10
1912
20
8353
30
0
0
VERTEX
8
OUTLINE
10
1912
20
8348
30
0
0
VERTEX
8
OUTLINE
10
1962
20
8348
30
0
0
VERTEX
8
OUTLINE
10
1962
20
8353
30
0
0
VERTEX
8
OUTLINE
10
1956
20
8353
30
0
0
VERTEX
8
OUTLINE
10
1956
20
8366
30
0
0
VERTEX
8
OUTLINE
10
1962
20
8366
30
0
0
VERTEX
8
OUTLINE
10
2262
20
8366
30
0
0
VERTEX
8
OUTLINE
10
2268
20
8366
30
0
0
VERTEX
8
OUTLINE
10
2268
20
8353
30
0
0
VERTEX
8
OUTLINE
10
2262
20
8353
30
0
0
VERTEX
8
OUTLINE
10
2262
20
8348
30
0
0
VERTEX
8
OUTLINE
10
2312
20
8348
30
0
0
VERTEX
8
OUTLINE
10
2312
20
8353
30
0
0
VERTEX
8
OUTLINE
10
2306
20
8353
30
0
0
VERTEX
8
OUTLINE
10
2306
20
8366
30
0
0
VERTEX
8
OUTLINE
10
2312
20
8366
30
0
0
VERTEX
8
OUTLINE
10
2382
20
8366
30
0
0
VERTEX
8
OUTLINE
10
2382
20
8930
30
0
0
VERTEX
8
OUTLINE
10
2312
20
8930
30
0
0
VERTEX
8
OUTLINE
10
2306
20
8930
30
0
0
VERTEX
8
OUTLINE
10
2306
20
8943
30
0
0
VERTEX
8
OUTLINE
10
2312
20
8943
30
0
0
VERTEX
8
OUTLINE
10
2312
20
8948
30
0
0
VERTEX
8
OUTLINE
10
2262
20
8948
30
0
0
VERTEX
8
OUTLINE
10
2262
20
8943
30
0
0
VERTEX
8
OUTLINE
10
2268
20
8943
30
0
0
VERTEX
8
OUTLINE
10
2268
20
8930
30
0
0
VERTEX
8
OUTLINE
10
2262
20
8930
30
0
0
VERTEX
8
OUTLINE
10
1962
20
8930
30
0
0
VERTEX
8
OUTLINE
10
1956
20
8930
30
0
0
VERTEX
8
OUTLINE
10
1956
20
8943
30
0
0
VERTEX
8
OUTLINE
10
1962
20
8943
30
0
0
VERTEX
8
OUTLINE
10
1962
20
8948
30
0
0
VERTEX
8
OUTLINE
10
1912
20
8948
30
0
0
VERTEX
8
OUTLINE
10
1912
20
8943
30
0
0
VERTEX
8
OUTLINE
10
1918
20
8943
30
0
0
VERTEX
8
OUTLINE
10
1918
20
8930
30
0
0
VERTEX
8
OUTLINE
10
1912
20
8930
30
0
0
VERTEX
8
OUTLINE
10
1842
20
8930
30
0
0
VERTEX
8
OUTLINE
10
1842
20
8860
30
0
0
VERTEX
8
OUTLINE
10
1842
20
8854
30
0
0
VERTEX
8
OUTLINE
10
1829
20
8854
30
0
0
VERTEX
8
OUTLINE
10
1829
20
8860
30
0
0
VERTEX
8
OUTLINE
10
1824
20
8860
30
0
0
VERTEX
8
OUTLINE
10
1824
20
8810
30
0
0
VERTEX
8
OUTLINE
10
1829
20
8810
30
0
0
VERTEX
8
OUTLINE
10
1829
20
8816
30
0
0
VERTEX
8
OUTLINE
10
1842
20
8816
30
0
0
VERTEX
8
OUTLINE
10
1842
20
8810
30
0
0
VERTEX
8
OUTLINE
10
1842
20
8486
30
0
0
VERTEX
8
OUTLINE
10
1842
20
8480
30
0
0
VERTEX
8
OUTLINE
10
1829
20
8480
30
0
0
VERTEX
8
OUTLINE
10
1829
20
8486
30
0
0
VERTEX
8
OUTLINE
10
1824
20
8486
30
0
0
VERTEX
8
OUTLINE
10
1824
20
8436
30
0
0
VERTEX
8
OUTLINE
10
1829
20
8436
30
0
0
VERTEX
8
OUTLINE
10
1829
20
8442
30
0
0
VERTEX
8
OUTLINE
10
1842
20
8442
30
0
0
VERTEX
8
OUTLINE
10
1842
20
8436
30
0
0
SEQEND
8
OUTLINE
0
POLYLINE
8
PUZZLE_DOG_BONES
66
1
70
1
10
0
20
0
30
0
0
VERTEX
8
PUZZLE_DOG_BONES
10
1907
20
8930
30
0
0
VERTEX
8
PUZZLE_DOG_BONES
10
1967
20
8930
30
0
0
VERTEX
8
PUZZLE_DOG_BONES
10
1967
20
8948
30
0
0
VERTEX
8
PUZZLE_DOG_BONES
10
1907
20
8948
30
0
0
SEQEND
8
PUZZLE_DOG_BONES
0
POLYLINE
8
PUZZLE_DOG_BONES
66
1
70
1
10
0
20
0
30
0
0
VERTEX
8
PUZZLE_DOG_BONES
10
1907
20
8348
30
0
0
VERTEX
8
PUZZLE_DOG_BONES
10
1967
20
8348
30
0
0
VERTEX
8
PUZZLE_DOG_BONES
10
1967
20
8366
30
0
0
VERTEX
8
PUZZLE_DOG_BONES
10
1907
20
8366
30
0
0
SEQEND
8
PUZZLE_DOG_BONES
0
POLYLINE
8
PUZZLE_DOG_BONES
66
1
70
1
10
0
20
0
30
0
0
VERTEX
8
PUZZLE_DOG_BONES
10
2257
20
8930
30
0
0
VERTEX
8
PUZZLE_DOG_BONES
10
2317
20
8930
30
0
0
VERTEX
8
PUZZLE_DOG_BONES
10
2317
20
8948
30
0
0
VERTEX
8
PUZZLE_DOG_BONES
10
2257
20
8948
30
0
0
SEQEND
8
PUZZLE_DOG_BONES
0
POLYLINE
8
PUZZLE_DOG_BONES
66
1
70
1
10
0
20
0
30
0
0
VERTEX
8
PUZZLE_DOG_BONES
10
2257
20
8348
30
0
0
VERTEX
8
PUZZLE_DOG_BONES
10
2317
20
8348
30
0
0
VERTEX
8
PUZZLE_DOG_BONES
10
2317
20
8366
30
0
0
VERTEX
8
PUZZLE_DOG_BONES
10
2257
20
8366
30
0
0
SEQEND
8
PUZZLE_DOG_BONES
0
POLYLINE
8
PUZZLE_DOG_BONES
66
1
70
1
10
0
20
0
30
0
0
VERTEX
8
PUZZLE_DOG_BONES
10
1824
20
8431
30
0
0
VERTEX
8
PUZZLE_DOG_BONES
10
1842
20
8431
30
0
0
VERTEX
8
PUZZLE_DOG_BONES
10
1842
20
8491
30
0
0
VERTEX
8
PUZZLE_DOG_BONES
10
1824
20
8491
30
0
0
SEQEND
8
PUZZLE_DOG_BONES
0
POLYLINE
8
PUZZLE_DOG_BONES
66
1
70
1
10
0
20
0
30
0
0
VERTEX
8
PUZZLE_DOG_BONES
10
1824
20
8805
30
0
0
VERTEX
8
PUZZLE_DOG_BONES
10
1842
20
8805
30
0
0
VERTEX
8
PUZZLE_DOG_BONES
10
1842
20
8865
30
0
0
VERTEX
8
PUZZLE_DOG_BONES
10
1824
20
8865
30
0
0
SEQEND
8
PUZZLE_DOG_BONES
0
TEXT
8
UNIT_NUMBER
10
2112
20
8673
30
0
40
20
1
W01
72
1
11
2112
21
8673
31
0
73
2
0
TEXT
8
UNIT_NUMBER
10
2112
20
8648
30
0
40
20
1
BOTTOM
72
1
11
2112
21
8648
31
0
73
2
0
TEXT
8
UNIT_NUMBER
10
2112
20
8623
30
0
40
20
1
564x540
72
1
11
2112
21
8623
31
0
73
2
0
POLYLINE
8
OUTLINE
66
1
70
1
10
0
20
0
30
0
0
VERTEX
8
OUTLINE
10
2438
20
6792
30
0
0
VERTEX
8
OUTLINE
10
3038
20
6792
30
0
0
VERTEX
8
OUTLINE
10
3038
20
8942
30
0
0
VERTEX
8
OUTLINE
10
2438
20
8942
30
0
0
SEQEND
8
OUTLINE
0
POLYLINE
8
PUZZLE_SOCKET
66
1
70
1
10
0
20
0
30
0
0
VERTEX
8
PUZZLE_SOCKET
10
2432
20
6861.5
30
0
0
VERTEX
8
PUZZLE_SOCKET
10
2447
20
6861.5
30
0
0
VERTEX
8
PUZZLE_SOCKET
10
2447
20
6912.5
30
0
0
VERTEX
8
PUZZLE_SOCKET
10
2432
20
6912.5
30
0
0
SEQEND
8
PUZZLE_SOCKET
0
POLYLINE
8
PUZZLE_SOCKET
66
1
70
1
10
0
20
0
30
0
0
VERTEX
8
PUZZLE_SOCKET
10
2432
20
7841.5
30
0
0
VERTEX
8
PUZZLE_SOCKET
10
2447
20
7841.5
30
0
0
VERTEX
8
PUZZLE_SOCKET
10
2447
20
7892.5
30
0
0
VERTEX
8
PUZZLE_SOCKET
10
2432
20
7892.5
30
0
0
SEQEND
8
PUZZLE_SOCKET
0
POLYLINE
8
PUZZLE_SOCKET
66
1
70
1
10
0
20
0
30
0
0
VERTEX
8
PUZZLE_SOCKET
10
2432
20
8821.5
30
0
0
VERTEX
8
PUZZLE_SOCKET
10
2447
20
8821.5
30
0
0
VERTEX
8
PUZZLE_SOCKET
10
2447
20
8872.5
30
0
0
VERTEX
8
PUZZLE_SOCKET
10
2432
20
8872.5
30
0
0
SEQEND
8
PUZZLE_SOCKET
0
POLYLINE
8
PUZZLE_SOCKET
66
1
70
1
10
0
20
0
30
0
0
VERTEX
8
PUZZLE_SOCKET
10
3029
20
6861.5
30
0
0
VERTEX
8
PUZZLE_SOCKET
10
3044
20
6861.5
30
0
0
VERTEX
8
PUZZLE_SOCKET
10
3044
20
6912.5
30
0
0
VERTEX
8
PUZZLE_SOCKET
10
3029
20
6912.5
30
0
0
SEQEND
8
PUZZLE_SOCKET
0
POLYLINE
8
PUZZLE_SOCKET
66
1
70
1
10
0
20
0
30
0
0
VERTEX
8
PUZZLE_SOCKET
10
3029
20
7841.5
30
0
0
VERTEX
8
PUZZLE_SOCKET
10
3044
20
7841.5
30
0
0
VERTEX
8
PUZZLE_SOCKET
10
3044
20
7892.5
30
0
0
VERTEX
8
PUZZLE_SOCKET
10
3029
20
7892.5
30
0
0
SEQEND
8
PUZZLE_SOCKET
0
POLYLINE
8
PUZZLE_SOCKET
66
1
70
1
10
0
20
0
30
0
0
VERTEX
8
PUZZLE_SOCKET
10
3029
20
8821.5
30
0
0
VERTEX
8
PUZZLE_SOCKET
10
3044
20
8821.5
30
0
0
VERTEX
8
PUZZLE_SOCKET
10
3044
20
8872.5
30
0
0
VERTEX
8
PUZZLE_SOCKET
10
3029
20
8872.5
30
0
0
SEQEND
8
PUZZLE_SOCKET
0
POLYLINE
8
PUZZLE_SOCKET
66
1
70
1
10
0
20
0
30
0
0
VERTEX
8
PUZZLE_SOCKET
10
2525.5
20
8933
30
0
0
VERTEX
8
PUZZLE_SOCKET
10
2576.5
20
8933
30
0
0
VERTEX
8
PUZZLE_SOCKET
10
2576.5
20
8948
30
0
0
VERTEX
8
PUZZLE_SOCKET
10
2525.5
20
8948
30
0
0
SEQEND
8
PUZZLE_SOCKET
0
POLYLINE
8
PUZZLE_SOCKET
66
1
70
1
10
0
20
0
30
0
0
VERTEX
8
PUZZLE_SOCKET
10
2899.5
20
8933
30
0
0
VERTEX
8
PUZZLE_SOCKET
10
2950.5
20
8933
30
0
0
VERTEX
8
PUZZLE_SOCKET
10
2950.5
20
8948
30
0
0
VERTEX
8
PUZZLE_SOCKET
10
2899.5
20
8948
30
0
0
SEQEND
8
PUZZLE_SOCKET
0
POLYLINE
8
PUZZLE_SOCKET
66
1
70
1
10
0
20
0
30
0
0
VERTEX
8
PUZZLE_SOCKET
10
2525.5
20
6786
30
0
0
VERTEX
8
PUZZLE_SOCKET
10
2576.5
20
6786
30
0
0
VERTEX
8
PUZZLE_SOCKET
10
2576.5
20
6801
30
0
0
VERTEX
8
PUZZLE_SOCKET
10
2525.5
20
6801
30
0
0
SEQEND
8
PUZZLE_SOCKET
0
POLYLINE
8
PUZZLE_SOCKET
66
1
70
1
10
0
20
0
30
0
0
VERTEX
8
PUZZLE_SOCKET
10
2899.5
20
6786
30
0
0
VERTEX
8
PUZZLE_SOCKET
10
2950.5
20
6786
30
0
0
VERTEX
8
PUZZLE_SOCKET
10
2950.5
20
6801
30
0
0
VERTEX
8
PUZZLE_SOCKET
10
2899.5
20
6801
30
0
0
SEQEND
8
PUZZLE_SOCKET
0
CIRCLE
8
PUZZLE_HOLES_7_5MM
10
2446
20
6862.5
30
0
40
3.75
0
CIRCLE
8
PUZZLE_HOLES_7_5MM
10
2446
20
6911.5
30
0
40
3.75
0
CIRCLE
8
PUZZLE_HOLES_7_5MM
10
2446
20
7842.5
30
0
40
3.75
0
CIRCLE
8
PUZZLE_HOLES_7_5MM
10
2446
20
7891.5
30
0
40
3.75
0
CIRCLE
8
PUZZLE_HOLES_7_5MM
10
2446
20
8822.5
30
0
40
3.75
0
CIRCLE
8
PUZZLE_HOLES_7_5MM
10
2446
20
8871.5
30
0
40
3.75
0
CIRCLE
8
PUZZLE_HOLES_7_5MM
10
3030
20
6862.5
30
0
40
3.75
0
CIRCLE
8
PUZZLE_HOLES_7_5MM
10
3030
20
6911.5
30
0
40
3.75
0
CIRCLE
8
PUZZLE_HOLES_7_5MM
10
3030
20
7842.5
30
0
40
3.75
0
CIRCLE
8
PUZZLE_HOLES_7_5MM
10
3030
20
7891.5
30
0
40
3.75
0
CIRCLE
8
PUZZLE_HOLES_7_5MM
10
3030
20
8822.5
30
0
40
3.75
0
CIRCLE
8
PUZZLE_HOLES_7_5MM
10
3030
20
8871.5
30
0
40
3.75
0
CIRCLE
8
PUZZLE_HOLES_7_5MM
10
2526.5
20
8934
30
0
40
3.75
0
CIRCLE
8
PUZZLE_HOLES_7_5MM
10
2575.5
20
8934
30
0
40
3.75
0
CIRCLE
8
PUZZLE_HOLES_7_5MM
10
2900.5
20
8934
30
0
40
3.75
0
CIRCLE
8
PUZZLE_HOLES_7_5MM
10
2949.5
20
8934
30
0
40
3.75
0
CIRCLE
8
PUZZLE_HOLES_7_5MM
10
2526.5
20
6800
30
0
40
3.75
0
CIRCLE
8
PUZZLE_HOLES_7_5MM
10
2575.5
20
6800
30
0
40
3.75
0
CIRCLE
8
PUZZLE_HOLES_7_5MM
10
2900.5
20
6800
30
0
40
3.75
0
CIRCLE
8
PUZZLE_HOLES_7_5MM
10
2949.5
20
6800
30
0
40
3.75
0
CIRCLE
8
SCREWS_3MM
10
2447
20
6842
30
0
40
1.5
0
CIRCLE
8
SCREWS_3MM
10
3029
20
6842
30
0
40
1.5
0
CIRCLE
8
SCREWS_3MM
10
2447
20
7377
30
0
40
1.5
0
CIRCLE
8
SCREWS_3MM
10
3029
20
7377
30
0
40
1.5
0
CIRCLE
8
SCREWS_3MM
10
2447
20
8357
30
0
40
1.5
0
CIRCLE
8
SCREWS_3MM
10
3029
20
8357
30
0
40
1.5
0
CIRCLE
8
SCREWS_3MM
10
2447
20
8892
30
0
40
1.5
0
CIRCLE
8
SCREWS_3MM
10
3029
20
8892
30
0
40
1.5
0
CIRCLE
8
SCREWS_3MM
10
2506
20
8933
30
0
40
1.5
0
CIRCLE
8
SCREWS_3MM
10
2506
20
6801
30
0
40
1.5
0
CIRCLE
8
SCREWS_3MM
10
2738
20
8933
30
0
40
1.5
0
CIRCLE
8
SCREWS_3MM
10
2738
20
6801
30
0
40
1.5
0
CIRCLE
8
SCREWS_3MM
10
2970
20
8933
30
0
40
1.5
0
CIRCLE
8
SCREWS_3MM
10
2970
20
6801
30
0
40
1.5
0
CIRCLE
8
SCREWS_3MM
10
2506
20
7247
30
0
40
1.5
0
CIRCLE
8
SCREWS_3MM
10
2738
20
7247
30
0
40
1.5
0
CIRCLE
8
SCREWS_3MM
10
2970
20
7247
30
0
40
1.5
0
TEXT
8
UNIT_NUMBER
10
2738
20
7879.5
30
0
40
20
1
W01 BACK
72
1
11
2738
21
7879.5
31
0
73
2
0
TEXT
8
UNIT_NUMBER
10
2738
20
7854.5
30
0
40
20
1
600x2150
72
1
11
2738
21
7854.5
31
0
73
2
0
POLYLINE
8
OUTLINE
66
1
70
1
10
0
20
0
30
0
0
VERTEX
8
OUTLINE
10
520
20
6172
30
0
0
VERTEX
8
OUTLINE
10
520
20
6736
30
0
0
VERTEX
8
OUTLINE
10
0
20
6736
30
0
0
VERTEX
8
OUTLINE
10
0
20
6172
30
0
0
SEQEND
8
OUTLINE
0
TEXT
8
UNIT_NUMBER
10
235
20
6454
30
0
40
20
1
W01
50
90
72
1
11
235
21
6454
31
0
73
2
0
TEXT
8
UNIT_NUMBER
10
260
20
6454
30
0
40
20
1
PARTITION
50
90
72
1
11
260
21
6454
31
0
73
2
0
TEXT
8
UNIT_NUMBER
10
285
20
6454
30
0
40
20
1
564x520
50
90
72
1
11
285
21
6454
31
0
73
2
0
POLYLINE
8
OUTLINE
66
1
70
1
10
0
20
0
30
0
0
VERTEX
8
OUTLINE
10
734
20
6286
30
0
0
VERTEX
8
OUTLINE
10
734
20
6726
30
0
0
VERTEX
8
OUTLINE
10
570
20
6726
30
0
0
VERTEX
8
OUTLINE
10
570
20
6286
30
0
0
SEQEND
8
OUTLINE
0
POLYLINE
8
DRAWER_RUNNER_POCKET
66
1
70
1
10
0
20
0
30
0
0
VERTEX
8
DRAWER_RUNNER_POCKET
10
734
20
6276
30
0
0
VERTEX
8
DRAWER_RUNNER_POCKET
10
734
20
6736
30
0
0
VERTEX
8
DRAWER_RUNNER_POCKET
10
719
20
6736
30
0
0
VERTEX
8
DRAWER_RUNNER_POCKET
10
719
20
6276
30
0
0
SEQEND
8
DRAWER_RUNNER_POCKET
0
POLYLINE
8
DRAWER_BOTTOM_POCKET
66
1
70
1
10
0
20
0
30
0
0
VERTEX
8
DRAWER_BOTTOM_POCKET
10
719
20
6276
30
0
0
VERTEX
8
DRAWER_BOTTOM_POCKET
10
719
20
6736
30
0
0
VERTEX
8
DRAWER_BOTTOM_POCKET
10
700
20
6736
30
0
0
VERTEX
8
DRAWER_BOTTOM_POCKET
10
700
20
6276
30
0
0
SEQEND
8
DRAWER_BOTTOM_POCKET
0
TEXT
8
UNIT_NUMBER
10
639.7
20
6506
30
0
40
19.68
1
W01 D1-S~
50
90
72
1
11
639.7
21
6506
31
0
73
2
0
TEXT
8
UNIT_NUMBER
10
664.3
20
6506
30
0
40
19.68
1
440x164
50
90
72
1
11
664.3
21
6506
31
0
73
2
0
POLYLINE
8
OUTLINE
66
1
70
1
10
0
20
0
30
0
0
VERTEX
8
OUTLINE
10
948
20
6286
30
0
0
VERTEX
8
OUTLINE
10
948
20
6726
30
0
0
VERTEX
8
OUTLINE
10
784
20
6726
30
0
0
VERTEX
8
OUTLINE
10
784
20
6286
30
0
0
SEQEND
8
OUTLINE
0
POLYLINE
8
DRAWER_RUNNER_POCKET
66
1
70
1
10
0
20
0
30
0
0
VERTEX
8
DRAWER_RUNNER_POCKET
10
948
20
6276
30
0
0
VERTEX
8
DRAWER_RUNNER_POCKET
10
948
20
6736
30
0
0
VERTEX
8
DRAWER_RUNNER_POCKET
10
933
20
6736
30
0
0
VERTEX
8
DRAWER_RUNNER_POCKET
10
933
20
6276
30
0
0
SEQEND
8
DRAWER_RUNNER_POCKET
0
POLYLINE
8
DRAWER_BOTTOM_POCKET
66
1
70
1
10
0
20
0
30
0
0
VERTEX
8
DRAWER_BOTTOM_POCKET
10
933
20
6276
30
0
0
VERTEX
8
DRAWER_BOTTOM_POCKET
10
933
20
6736
30
0
0
VERTEX
8
DRAWER_BOTTOM_POCKET
10
914
20
6736
30
0
0
VERTEX
8
DRAWER_BOTTOM_POCKET
10
914
20
6276
30
0
0
SEQEND
8
DRAWER_BOTTOM_POCKET
0
TEXT
8
UNIT_NUMBER
10
853.7
20
6506
30
0
40
19.68
1
W01 D1-S~
50
90
72
1
11
853.7
21
6506
31
0
73
2
0
TEXT
8
UNIT_NUMBER
10
878.3
20
6506
30
0
40
19.68
1
440x164
50
90
72
1
11
878.3
21
6506
31
0
73
2
0
POLYLINE
8
OUTLINE
66
1
70
1
10
0
20
0
30
0
0
VERTEX
8
OUTLINE
10
1128
20
6218
30
0
0
VERTEX
8
OUTLINE
10
1128
20
6736
30
0
0
VERTEX
8
OUTLINE
10
998
20
6736
30
0
0
VERTEX
8
OUTLINE
10
998
20
6218
30
0
0
SEQEND
8
OUTLINE
0
TEXT
8
UNIT_NUMBER
10
1053.25
20
6477
30
0
40
15.6
1
W01 D1-BF
50
90
72
1
11
1053.25
21
6477
31
0
73
2
0
TEXT
8
UNIT_NUMBER
10
1072.75
20
6477
30
0
40
15.6
1
518x130
50
90
72
1
11
1072.75
21
6477
31
0
73
2
0
POLYLINE
8
OUTLINE
66
1
70
1
10
0
20
0
30
0
0
VERTEX
8
OUTLINE
10
1308
20
6218
30
0
0
VERTEX
8
OUTLINE
10
1308
20
6736
30
0
0
VERTEX
8
OUTLINE
10
1178
20
6736
30
0
0
VERTEX
8
OUTLINE
10
1178
20
6218
30
0
0
SEQEND
8
OUTLINE
0
TEXT
8
UNIT_NUMBER
10
1233.25
20
6477
30
0
40
15.6
1
W01 D1-BB
50
90
72
1
11
1233.25
21
6477
31
0
73
2
0
TEXT
8
UNIT_NUMBER
10
1252.75
20
6477
30
0
40
15.6
1
518x130
50
90
72
1
11
1252.75
21
6477
31
0
73
2
0
POLYLINE
8
OUTLINE
66
1
70
1
10
0
20
0
30
0
0
VERTEX
8
OUTLINE
10
1798
20
6205
30
0
0
VERTEX
8
OUTLINE
10
1798
20
6736
30
0
0
VERTEX
8
OUTLINE
10
1358
20
6736
30
0
0
VERTEX
8
OUTLINE
10
1358
20
6205
30
0
0
SEQEND
8
OUTLINE
0
TEXT
8
UNIT_NUMBER
10
1553
20
6470.5
30
0
40
20
1
W01
50
90
72
1
11
1553
21
6470.5
31
0
73
2
0
TEXT
8
UNIT_NUMBER
10
1578
20
6470.5
30
0
40
20
1
D1-DNO
50
90
72
1
11
1578
21
6470.5
31
0
73
2
0
TEXT
8
UNIT_NUMBER
10
1603
20
6470.5
30
0
40
20
1
531x440
50
90
72
1
11
1603
21
6470.5
31
0
73
2
0
POLYLINE
8
OUTLINE
66
1
70
1
10
0
20
0
30
0
0
VERTEX
8
OUTLINE
10
2032
20
6286
30
0
0
VERTEX
8
OUTLINE
10
2032
20
6726
30
0
0
VERTEX
8
OUTLINE
10
1848
20
6726
30
0
0
VERTEX
8
OUTLINE
10
1848
20
6286
30
0
0
SEQEND
8
OUTLINE
0
POLYLINE
8
DRAWER_RUNNER_POCKET
66
1
70
1
10
0
20
0
30
0
0
VERTEX
8
DRAWER_RUNNER_POCKET
10
2032
20
6276
30
0
0
VERTEX
8
DRAWER_RUNNER_POCKET
10
2032
20
6736
30
0
0
VERTEX
8
DRAWER_RUNNER_POCKET
10
2017
20
6736
30
0
0
VERTEX
8
DRAWER_RUNNER_POCKET
10
2017
20
6276
30
0
0
SEQEND
8
DRAWER_RUNNER_POCKET
0
POLYLINE
8
DRAWER_BOTTOM_POCKET
66
1
70
1
10
0
20
0
30
0
0
VERTEX
8
DRAWER_BOTTOM_POCKET
10
2017
20
6276
30
0
0
VERTEX
8
DRAWER_BOTTOM_POCKET
10
2017
20
6736
30
0
0
VERTEX
8
DRAWER_BOTTOM_POCKET
10
1998
20
6736
30
0
0
VERTEX
8
DRAWER_BOTTOM_POCKET
10
1998
20
6276
30
0
0
SEQEND
8
DRAWER_BOTTOM_POCKET
0
TEXT
8
UNIT_NUMBER
10
1927.5
20
6506
30
0
40
20
1
W01 D2-S~
50
90
72
1
11
1927.5
21
6506
31
0
73
2
0
TEXT
8
UNIT_NUMBER
10
1952.5
20
6506
30
0
40
20
1
440x184
50
90
72
1
11
1952.5
21
6506
31
0
73
2
0
POLYLINE
8
OUTLINE
66
1
70
1
10
0
20
0
30
0
0
VERTEX
8
OUTLINE
10
2266
20
6286
30
0
0
VERTEX
8
OUTLINE
10
2266
20
6726
30
0
0
VERTEX
8
OUTLINE
10
2082
20
6726
30
0
0
VERTEX
8
OUTLINE
10
2082
20
6286
30
0
0
SEQEND
8
OUTLINE
0
POLYLINE
8
DRAWER_RUNNER_POCKET
66
1
70
1
10
0
20
0
30
0
0
VERTEX
8
DRAWER_RUNNER_POCKET
10
2266
20
6276
30
0
0
VERTEX
8
DRAWER_RUNNER_POCKET
10
2266
20
6736
30
0
0
VERTEX
8
DRAWER_RUNNER_POCKET
10
2251
20
6736
30
0
0
VERTEX
8
DRAWER_RUNNER_POCKET
10
2251
20
6276
30
0
0
SEQEND
8
DRAWER_RUNNER_POCKET
0
POLYLINE
8
DRAWER_BOTTOM_POCKET
66
1
70
1
10
0
20
0
30
0
0
VERTEX
8
DRAWER_BOTTOM_POCKET
10
2251
20
6276
30
0
0
VERTEX
8
DRAWER_BOTTOM_POCKET
10
2251
20
6736
30
0
0
VERTEX
8
DRAWER_BOTTOM_POCKET
10
2232
20
6736
30
0
0
VERTEX
8
DRAWER_BOTTOM_POCKET
10
2232
20
6276
30
0
0
SEQEND
8
DRAWER_BOTTOM_POCKET
0
TEXT
8
UNIT_NUMBER
10
2161.5
20
6506
30
0
40
20
1
W01 D2-S~
50
90
72
1
11
2161.5
21
6506
31
0
73
2
0
TEXT
8
UNIT_NUMBER
10
2186.5
20
6506
30
0
40
20
1
440x184
50
90
72
1
11
2186.5
21
6506
31
0
73
2
0
POLYLINE
8
OUTLINE
66
1
70
1
10
0
20
0
30
0
0
VERTEX
8
OUTLINE
10
2466
20
6218
30
0
0
VERTEX
8
OUTLINE
10
2466
20
6736
30
0
0
VERTEX
8
OUTLINE
10
2316
20
6736
30
0
0
VERTEX
8
OUTLINE
10
2316
20
6218
30
0
0
SEQEND
8
OUTLINE
0
TEXT
8
UNIT_NUMBER
10
2379.75
20
6477
30
0
40
18
1
W01 D2-BF
50
90
72
1
11
2379.75
21
6477
31
0
73
2
0
TEXT
8
UNIT_NUMBER
10
2402.25
20
6477
30
0
40
18
1
518x150
50
90
72
1
11
2402.25
21
6477
31
0
73
2
0
POLYLINE
8
OUTLINE
66
1
70
1
10
0
20
0
30
0
0
VERTEX
8
OUTLINE
10
2666
20
6218
30
0
0
VERTEX
8
OUTLINE
10
2666
20
6736
30
0
0
VERTEX
8
OUTLINE
10
2516
20
6736
30
0
0
VERTEX
8
OUTLINE
10
2516
20
6218
30
0
0
SEQEND
8
OUTLINE
0
TEXT
8
UNIT_NUMBER
10
2579.75
20
6477
30
0
40
18
1
W01 D2-BB
50
90
72
1
11
2579.75
21
6477
31
0
73
2
0
TEXT
8
UNIT_NUMBER
10
2602.25
20
6477
30
0
40
18
1
518x150
50
90
72
1
11
2602.25
21
6477
31
0
73
2
0
POLYLINE
8
OUTLINE
66
1
70
1
10
0
20
0
30
0
0
VERTEX
8
OUTLINE
10
3156
20
6205
30
0
0
VERTEX
8
OUTLINE
10
3156
20
6736
30
0
0
VERTEX
8
OUTLINE
10
2716
20
6736
30
0
0
VERTEX
8
OUTLINE
10
2716
20
6205
30
0
0
SEQEND
8
OUTLINE
0
TEXT
8
UNIT_NUMBER
10
2911
20
6470.5
30
0
40
20
1
W01
50
90
72
1
11
2911
21
6470.5
31
0
73
2
0
TEXT
8
UNIT_NUMBER
10
2936
20
6470.5
30
0
40
20
1
D2-DNO
50
90
72
1
11
2936
21
6470.5
31
0
73
2
0
TEXT
8
UNIT_NUMBER
10
2961
20
6470.5
30
0
40
20
1
531x440
50
90
72
1
11
2961
21
6470.5
31
0
73
2
0
POLYLINE
8
OUTLINE
66
1
70
1
10
0
20
0
30
0
0
VERTEX
8
OUTLINE
10
3403
20
6178
30
0
0
VERTEX
8
OUTLINE
10
3403
20
6736
30
0
0
VERTEX
8
OUTLINE
10
3206
20
6736
30
0
0
VERTEX
8
OUTLINE
10
3206
20
6178
30
0
0
SEQEND
8
OUTLINE
0
POLYLINE
8
SHAKER_PANEL_POCKET
66
1
70
1
10
0
20
0
30
0
0
VERTEX
8
SHAKER_PANEL_POCKET
10
3266
20
6238
30
0
0
VERTEX
8
SHAKER_PANEL_POCKET
10
3266
20
6676
30
0
0
VERTEX
8
SHAKER_PANEL_POCKET
10
3343
20
6676
30
0
0
VERTEX
8
SHAKER_PANEL_POCKET
10
3343
20
6238
30
0
0
SEQEND
8
SHAKER_PANEL_POCKET
0
TEXT
8
UNIT_NUMBER
10
3292
20
6457
30
0
40
20
1
W01 DF1
50
90
72
1
11
3292
21
6457
31
0
73
2
0
TEXT
8
UNIT_NUMBER
10
3317
20
6457
30
0
40
20
1
558x197
50
90
72
1
11
3317
21
6457
31
0
73
2
0
POLYLINE
8
OUTLINE
66
1
70
1
10
0
20
0
30
0
0
VERTEX
8
OUTLINE
10
220
20
5564
30
0
0
VERTEX
8
OUTLINE
10
220
20
6122
30
0
0
VERTEX
8
OUTLINE
10
0
20
6122
30
0
0
VERTEX
8
OUTLINE
10
0
20
5564
30
0
0
SEQEND
8
OUTLINE
0
POLYLINE
8
SHAKER_PANEL_POCKET
66
1
70
1
10
0
20
0
30
0
0
VERTEX
8
SHAKER_PANEL_POCKET
10
60
20
5624
30
0
0
VERTEX
8
SHAKER_PANEL_POCKET
10
60
20
6062
30
0
0
VERTEX
8
SHAKER_PANEL_POCKET
10
160
20
6062
30
0
0
VERTEX
8
SHAKER_PANEL_POCKET
10
160
20
5624
30
0
0
SEQEND
8
SHAKER_PANEL_POCKET
0
TEXT
8
UNIT_NUMBER
10
97.5
20
5843
30
0
40
20
1
W01 DF2
50
90
72
1
11
97.5
21
5843
31
0
73
2
0
TEXT
8
UNIT_NUMBER
10
122.5
20
5843
30
0
40
20
1
558x220
50
90
72
1
11
122.5
21
5843
31
0
73
2
0
POLYLINE
8
OUTLINE
66
1
70
1
10
0
20
0
30
0
0
VERTEX
8
OUTLINE
10
370
20
4622
30
0
0
VERTEX
8
OUTLINE
10
370
20
6122
30
0
0
VERTEX
8
OUTLINE
10
270
20
6122
30
0
0
VERTEX
8
OUTLINE
10
270
20
4622
30
0
0
SEQEND
8
OUTLINE
0
TEXT
8
UNIT_NUMBER
10
320
20
5372
30
0
40
12
1
W01 PLINTH 1500x100
50
90
72
1
11
320
21
5372
31
0
73
2
0
POLYLINE
8
OUTLINE
66
1
70
1
10
0
20
0
30
0
0
VERTEX
8
OUTLINE
10
420
20
5722
30
0
0
VERTEX
8
OUTLINE
10
934
20
5722
30
0
0
VERTEX
8
OUTLINE
10
934
20
6122
30
0
0
VERTEX
8
OUTLINE
10
420
20
6122
30
0
0
SEQEND
8
OUTLINE
0
TEXT
8
UNIT_NUMBER
10
677
20
5947
30
0
40
20
1
W01
72
1
11
677
21
5947
31
0
73
2
0
TEXT
8
UNIT_NUMBER
10
677
20
5922
30
0
40
20
1
D2-WB
72
1
11
677
21
5922
31
0
73
2
0
TEXT
8
UNIT_NUMBER
10
677
20
5897
30
0
40
20
1
514x400
72
1
11
677
21
5897
31
0
73
2
0
POLYLINE
8
OUTLINE
66
1
70
1
10
0
20
0
30
0
0
VERTEX
8
OUTLINE
10
984
20
6062
30
0
0
VERTEX
8
OUTLINE
10
1498
20
6062
30
0
0
VERTEX
8
OUTLINE
10
1498
20
6122
30
0
0
VERTEX
8
OUTLINE
10
984
20
6122
30
0
0
SEQEND
8
OUTLINE
0
POLYLINE
8
WATCH_DIVIDER_SLOT
66
1
70
1
10
0
20
0
30
0
0
VERTEX
8
WATCH_DIVIDER_SLOT
10
1085
20
6062
30
0
0
VERTEX
8
WATCH_DIVIDER_SLOT
10
1094
20
6062
30
0
0
VERTEX
8
WATCH_DIVIDER_SLOT
10
1094
20
6122
30
0
0
VERTEX
8
WATCH_DIVIDER_SLOT
10
1085
20
6122
30
0
0
SEQEND
8
WATCH_DIVIDER_SLOT
0
POLYLINE
8
WATCH_DIVIDER_SLOT
66
1
70
1
10
0
20
0
30
0
0
VERTEX
8
WATCH_DIVIDER_SLOT
10
1186
20
6062
30
0
0
VERTEX
8
WATCH_DIVIDER_SLOT
10
1195
20
6062
30
0
0
VERTEX
8
WATCH_DIVIDER_SLOT
10
1195
20
6122
30
0
0
VERTEX
8
WATCH_DIVIDER_SLOT
10
1186
20
6122
30
0
0
SEQEND
8
WATCH_DIVIDER_SLOT
0
POLYLINE
8
WATCH_DIVIDER_SLOT
66
1
70
1
10
0
20
0
30
0
0
VERTEX
8
WATCH_DIVIDER_SLOT
10
1287
20
6062
30
0
0
VERTEX
8
WATCH_DIVIDER_SLOT
10
1296
20
6062
30
0
0
VERTEX
8
WATCH_DIVIDER_SLOT
10
1296
20
6122
30
0
0
VERTEX
8
WATCH_DIVIDER_SLOT
10
1287
20
6122
30
0
0
SEQEND
8
WATCH_DIVIDER_SLOT
0
POLYLINE
8
WATCH_DIVIDER_SLOT
66
1
70
1
10
0
20
0
30
0
0
VERTEX
8
WATCH_DIVIDER_SLOT
10
1388
20
6062
30
0
0
VERTEX
8
WATCH_DIVIDER_SLOT
10
1397
20
6062
30
0
0
VERTEX
8
WATCH_DIVIDER_SLOT
10
1397
20
6122
30
0
0
VERTEX
8
WATCH_DIVIDER_SLOT
10
1388
20
6122
30
0
0
SEQEND
8
WATCH_DIVIDER_SLOT
0
POLYLINE
8
WATCH_GLASS_REBATE
66
1
70
1
10
0
20
0
30
0
0
VERTEX
8
WATCH_GLASS_REBATE
10
984
20
6118
30
0
0
VERTEX
8
WATCH_GLASS_REBATE
10
1498
20
6118
30
0
0
VERTEX
8
WATCH_GLASS_REBATE
10
1498
20
6122
30
0
0
VERTEX
8
WATCH_GLASS_REBATE
10
984
20
6122
30
0
0
SEQEND
8
WATCH_GLASS_REBATE
0
POLYLINE
8
LED_GROOVE
66
1
70
1
10
0
20
0
30
0
0
VERTEX
8
LED_GROOVE
10
974
20
6104
30
0
0
VERTEX
8
LED_GROOVE
10
1508
20
6104
30
0
0
VERTEX
8
LED_GROOVE
10
1508
20
6108
30
0
0
VERTEX
8
LED_GROOVE
10
974
20
6108
30
0
0
SEQEND
8
LED_GROOVE
0
TEXT
8
UNIT_NUMBER
10
1241
20
6092
30
0
40
7.2
1
W01 D2-WRF 514x60
72
1
11
1241
21
6092
31
0
73
2
0
POLYLINE
8
OUTLINE
66
1
70
1
10
0
20
0
30
0
0
VERTEX
8
OUTLINE
10
1548
20
6062
30
0
0
VERTEX
8
OUTLINE
10
2062
20
6062
30
0
0
VERTEX
8
OUTLINE
10
2062
20
6122
30
0
0
VERTEX
8
OUTLINE
10
1548
20
6122
30
0
0
SEQEND
8
OUTLINE
0
POLYLINE
8
WATCH_DIVIDER_SLOT
66
1
70
1
10
0
20
0
30
0
0
VERTEX
8
WATCH_DIVIDER_SLOT
10
1800.5
20
6062
30
0
0
VERTEX
8
WATCH_DIVIDER_SLOT
10
1809.5
20
6062
30
0
0
VERTEX
8
WATCH_DIVIDER_SLOT
10
1809.5
20
6122
30
0
0
VERTEX
8
WATCH_DIVIDER_SLOT
10
1800.5
20
6122
30
0
0
SEQEND
8
WATCH_DIVIDER_SLOT
0
POLYLINE
8
WATCH_GLASS_REBATE
66
1
70
1
10
0
20
0
30
0
0
VERTEX
8
WATCH_GLASS_REBATE
10
1548
20
6118
30
0
0
VERTEX
8
WATCH_GLASS_REBATE
10
2062
20
6118
30
0
0
VERTEX
8
WATCH_GLASS_REBATE
10
2062
20
6122
30
0
0
VERTEX
8
WATCH_GLASS_REBATE
10
1548
20
6122
30
0
0
SEQEND
8
WATCH_GLASS_REBATE
0
TEXT
8
UNIT_NUMBER
10
1805
20
6092
30
0
40
7.2
1
W01 D2-WRB 514x60
72
1
11
1805
21
6092
31
0
73
2
0
POLYLINE
8
OUTLINE
66
1
70
1
10
0
20
0
30
0
0
VERTEX
8
OUTLINE
10
2112
20
6062
30
0
0
VERTEX
8
OUTLINE
10
2494
20
6062
30
0
0
VERTEX
8
OUTLINE
10
2494
20
6122
30
0
0
VERTEX
8
OUTLINE
10
2112
20
6122
30
0
0
SEQEND
8
OUTLINE
0
POLYLINE
8
WATCH_GLASS_REBATE
66
1
70
1
10
0
20
0
30
0
0
VERTEX
8
WATCH_GLASS_REBATE
10
2112
20
6118
30
0
0
VERTEX
8
WATCH_GLASS_REBATE
10
2494
20
6118
30
0
0
VERTEX
8
WATCH_GLASS_REBATE
10
2494
20
6122
30
0
0
VERTEX
8
WATCH_GLASS_REBATE
10
2112
20
6122
30
0
0
SEQEND
8
WATCH_GLASS_REBATE
0
TEXT
8
UNIT_NUMBER
10
2303
20
6096.5
30
0
40
7.2
1
W01 D2-WRL
72
1
11
2303
21
6096.5
31
0
73
2
0
TEXT
8
UNIT_NUMBER
10
2303
20
6087.5
30
0
40
7.2
1
382x60
72
1
11
2303
21
6087.5
31
0
73
2
0
POLYLINE
8
OUTLINE
66
1
70
1
10
0
20
0
30
0
0
VERTEX
8
OUTLINE
10
2544
20
6062
30
0
0
VERTEX
8
OUTLINE
10
2926
20
6062
30
0
0
VERTEX
8
OUTLINE
10
2926
20
6122
30
0
0
VERTEX
8
OUTLINE
10
2544
20
6122
30
0
0
SEQEND
8
OUTLINE
0
POLYLINE
8
WATCH_GLASS_REBATE
66
1
70
1
10
0
20
0
30
0
0
VERTEX
8
WATCH_GLASS_REBATE
10
2544
20
6118
30
0
0
VERTEX
8
WATCH_GLASS_REBATE
10
2926
20
6118
30
0
0
VERTEX
8
WATCH_GLASS_REBATE
10
2926
20
6122
30
0
0
VERTEX
8
WATCH_GLASS_REBATE
10
2544
20
6122
30
0
0
SEQEND
8
WATCH_GLASS_REBATE
0
TEXT
8
UNIT_NUMBER
10
2735
20
6096.5
30
0
40
7.2
1
W01 D2-WRR
72
1
11
2735
21
6096.5
31
0
73
2
0
TEXT
8
UNIT_NUMBER
10
2735
20
6087.5
30
0
40
7.2
1
382x60
72
1
11
2735
21
6087.5
31
0
73
2
0
POLYLINE
8
OUTLINE
66
1
70
1
10
0
20
0
30
0
0
VERTEX
8
OUTLINE
10
2976
20
6062
30
0
0
VERTEX
8
OUTLINE
10
3472
20
6062
30
0
0
VERTEX
8
OUTLINE
10
3472
20
6122
30
0
0
VERTEX
8
OUTLINE
10
2976
20
6122
30
0
0
SEQEND
8
OUTLINE
0
POLYLINE
8
WATCH_DIVIDER_SLOT
66
1
70
1
10
0
20
0
30
0
0
VERTEX
8
WATCH_DIVIDER_SLOT
10
3068
20
6062
30
0
0
VERTEX
8
WATCH_DIVIDER_SLOT
10
3077
20
6062
30
0
0
VERTEX
8
WATCH_DIVIDER_SLOT
10
3077
20
6122
30
0
0
VERTEX
8
WATCH_DIVIDER_SLOT
10
3068
20
6122
30
0
0
SEQEND
8
WATCH_DIVIDER_SLOT
0
POLYLINE
8
WATCH_DIVIDER_SLOT
66
1
70
1
10
0
20
0
30
0
0
VERTEX
8
WATCH_DIVIDER_SLOT
10
3169
20
6062
30
0
0
VERTEX
8
WATCH_DIVIDER_SLOT
10
3178
20
6062
30
0
0
VERTEX
8
WATCH_DIVIDER_SLOT
10
3178
20
6122
30
0
0
VERTEX
8
WATCH_DIVIDER_SLOT
10
3169
20
6122
30
0
0
SEQEND
8
WATCH_DIVIDER_SLOT
0
POLYLINE
8
WATCH_DIVIDER_SLOT
66
1
70
1
10
0
20
0
30
0
0
VERTEX
8
WATCH_DIVIDER_SLOT
10
3270
20
6062
30
0
0
VERTEX
8
WATCH_DIVIDER_SLOT
10
3279
20
6062
30
0
0
VERTEX
8
WATCH_DIVIDER_SLOT
10
3279
20
6122
30
0
0
VERTEX
8
WATCH_DIVIDER_SLOT
10
3270
20
6122
30
0
0
SEQEND
8
WATCH_DIVIDER_SLOT
0
POLYLINE
8
WATCH_DIVIDER_SLOT
66
1
70
1
10
0
20
0
30
0
0
VERTEX
8
WATCH_DIVIDER_SLOT
10
3371
20
6062
30
0
0
VERTEX
8
WATCH_DIVIDER_SLOT
10
3380
20
6062
30
0
0
VERTEX
8
WATCH_DIVIDER_SLOT
10
3380
20
6122
30
0
0
VERTEX
8
WATCH_DIVIDER_SLOT
10
3371
20
6122
30
0
0
SEQEND
8
WATCH_DIVIDER_SLOT
0
POLYLINE
8
WATCH_DIVIDER_SLOT
66
1
70
1
10
0
20
0
30
0
0
VERTEX
8
WATCH_DIVIDER_SLOT
10
3219.5
20
6062
30
0
0
VERTEX
8
WATCH_DIVIDER_SLOT
10
3228.5
20
6062
30
0
0
VERTEX
8
WATCH_DIVIDER_SLOT
10
3228.5
20
6122
30
0
0
VERTEX
8
WATCH_DIVIDER_SLOT
10
3219.5
20
6122
30
0
0
SEQEND
8
WATCH_DIVIDER_SLOT
0
TEXT
8
UNIT_NUMBER
10
3224
20
6092
30
0
40
7.2
1
W01 D2-WRW 496x60
72
1
11
3224
21
6092
31
0
73
2
0
POLYLINE
8
OUTLINE
66
1
70
1
10
0
20
0
30
0
0
VERTEX
8
OUTLINE
10
0
20
4512
30
0
0
VERTEX
8
OUTLINE
10
110
20
4512
30
0
0
VERTEX
8
OUTLINE
10
110
20
4572
30
0
0
VERTEX
8
OUTLINE
10
0
20
4572
30
0
0
SEQEND
8
OUTLINE
0
TEXT
8
UNIT_NUMBER
10
55
20
4551
30
0
40
7.2
1
W01
72
1
11
55
21
4551
31
0
73
2
0
TEXT
8
UNIT_NUMBER
10
55
20
4542
30
0
40
7.2
1
D2-WP1
72
1
11
55
21
4542
31
0
73
2
0
TEXT
8
UNIT_NUMBER
10
55
20
4533
30
0
40
7.2
1
110x60
72
1
11
55
21
4533
31
0
73
2
0
POLYLINE
8
OUTLINE
66
1
70
1
10
0
20
0
30
0
0
VERTEX
8
OUTLINE
10
160
20
4512
30
0
0
VERTEX
8
OUTLINE
10
270
20
4512
30
0
0
VERTEX
8
OUTLINE
10
270
20
4572
30
0
0
VERTEX
8
OUTLINE
10
160
20
4572
30
0
0
SEQEND
8
OUTLINE
0
TEXT
8
UNIT_NUMBER
10
215
20
4551
30
0
40
7.2
1
W01
72
1
11
215
21
4551
31
0
73
2
0
TEXT
8
UNIT_NUMBER
10
215
20
4542
30
0
40
7.2
1
D2-WP2
72
1
11
215
21
4542
31
0
73
2
0
TEXT
8
UNIT_NUMBER
10
215
20
4533
30
0
40
7.2
1
110x60
72
1
11
215
21
4533
31
0
73
2
0
POLYLINE
8
OUTLINE
66
1
70
1
10
0
20
0
30
0
0
VERTEX
8
OUTLINE
10
320
20
4512
30
0
0
VERTEX
8
OUTLINE
10
430
20
4512
30
0
0
VERTEX
8
OUTLINE
10
430
20
4572
30
0
0
VERTEX
8
OUTLINE
10
320
20
4572
30
0
0
SEQEND
8
OUTLINE
0
TEXT
8
UNIT_NUMBER
10
375
20
4551
30
0
40
7.2
1
W01
72
1
11
375
21
4551
31
0
73
2
0
TEXT
8
UNIT_NUMBER
10
375
20
4542
30
0
40
7.2
1
D2-WP3
72
1
11
375
21
4542
31
0
73
2
0
TEXT
8
UNIT_NUMBER
10
375
20
4533
30
0
40
7.2
1
110x60
72
1
11
375
21
4533
31
0
73
2
0
POLYLINE
8
OUTLINE
66
1
70
1
10
0
20
0
30
0
0
VERTEX
8
OUTLINE
10
480
20
4512
30
0
0
VERTEX
8
OUTLINE
10
590
20
4512
30
0
0
VERTEX
8
OUTLINE
10
590
20
4572
30
0
0
VERTEX
8
OUTLINE
10
480
20
4572
30
0
0
SEQEND
8
OUTLINE
0
TEXT
8
UNIT_NUMBER
10
535
20
4551
30
0
40
7.2
1
W01
72
1
11
535
21
4551
31
0
73
2
0
TEXT
8
UNIT_NUMBER
10
535
20
4542
30
0
40
7.2
1
D2-WP4
72
1
11
535
21
4542
31
0
73
2
0
TEXT
8
UNIT_NUMBER
10
535
20
4533
30
0
40
7.2
1
110x60
72
1
11
535
21
4533
31
0
73
2
0
POLYLINE
8
OUTLINE
66
1
70
1
10
0
20
0
30
0
0
VERTEX
8
OUTLINE
10
640
20
4512
30
0
0
VERTEX
8
OUTLINE
10
903
20
4512
30
0
0
VERTEX
8
OUTLINE
10
903
20
4572
30
0
0
VERTEX
8
OUTLINE
10
640
20
4572
30
0
0
SEQEND
8
OUTLINE
0
TEXT
8
UNIT_NUMBER
10
771.5
20
4546.5
30
0
40
7.2
1
W01 D2-WS1
72
1
11
771.5
21
4546.5
31
0
73
2
0
TEXT
8
UNIT_NUMBER
10
771.5
20
4537.5
30
0
40
7.2
1
263x60
72
1
11
771.5
21
4537.5
31
0
73
2
0
POLYLINE
8
OUTLINE
66
1
70
1
10
0
20
0
30
0
0
VERTEX
8
OUTLINE
10
0
20
2206
30
0
0
VERTEX
8
OUTLINE
10
540
20
2206
30
0
0
VERTEX
8
OUTLINE
10
540
20
2276
30
0
0
VERTEX
8
OUTLINE
10
540
20
2282
30
0
0
VERTEX
8
OUTLINE
10
553
20
2282
30
0
0
VERTEX
8
OUTLINE
10
553
20
2276
30
0
0
VERTEX
8
OUTLINE
10
558
20
2276
30
0
0
VERTEX
8
OUTLINE
10
558
20
2326
30
0
0
VERTEX
8
OUTLINE
10
553
20
2326
30
0
0
VERTEX
8
OUTLINE
10
553
20
2320
30
0
0
VERTEX
8
OUTLINE
10
540
20
2320
30
0
0
VERTEX
8
OUTLINE
10
540
20
2326
30
0
0
VERTEX
8
OUTLINE
10
540
20
3256
30
0
0
VERTEX
8
OUTLINE
10
540
20
3262
30
0
0
VERTEX
8
OUTLINE
10
553
20
3262
30
0
0
VERTEX
8
OUTLINE
10
553
20
3256
30
0
0
VERTEX
8
OUTLINE
10
558
20
3256
30
0
0
VERTEX
8
OUTLINE
10
558
20
3306
30
0
0
VERTEX
8
OUTLINE
10
553
20
3306
30
0
0
VERTEX
8
OUTLINE
10
553
20
3300
30
0
0
VERTEX
8
OUTLINE
10
540
20
3300
30
0
0
VERTEX
8
OUTLINE
10
540
20
3306
30
0
0
VERTEX
8
OUTLINE
10
540
20
4236
30
0
0
VERTEX
8
OUTLINE
10
540
20
4242
30
0
0
VERTEX
8
OUTLINE
10
553
20
4242
30
0
0
VERTEX
8
OUTLINE
10
553
20
4236
30
0
0
VERTEX
8
OUTLINE
10
558
20
4236
30
0
0
VERTEX
8
OUTLINE
10
558
20
4286
30
0
0
VERTEX
8
OUTLINE
10
553
20
4286
30
0
0
VERTEX
8
OUTLINE
10
553
20
4280
30
0
0
VERTEX
8
OUTLINE
10
540
20
4280
30
0
0
VERTEX
8
OUTLINE
10
540
20
4286
30
0
0
VERTEX
8
OUTLINE
10
540
20
4356
30
0
0
VERTEX
8
OUTLINE
10
0
20
4356
30
0
0
SEQEND
8
OUTLINE
0
POLYLINE
8
PUZZLE_DOG_BONES
66
1
70
1
10
0
20
0
30
0
0
VERTEX
8
PUZZLE_DOG_BONES
10
540
20
2271
30
0
0
VERTEX
8
PUZZLE_DOG_BONES
10
558
20
2271
30
0
0
VERTEX
8
PUZZLE_DOG_BONES
10
558
20
2331
30
0
0
VERTEX
8
PUZZLE_DOG_BONES
10
540
20
2331
30
0
0
SEQEND
8
PUZZLE_DOG_BONES
0
POLYLINE
8
PUZZLE_DOG_BONES
66
1
70
1
10
0
20
0
30
0
0
VERTEX
8
PUZZLE_DOG_BONES
10
540
20
3251
30
0
0
VERTEX
8
PUZZLE_DOG_BONES
10
558
20
3251
30
0
0
VERTEX
8
PUZZLE_DOG_BONES
10
558
20
3311
30
0
0
VERTEX
8
PUZZLE_DOG_BONES
10
540
20
3311
30
0
0
SEQEND
8
PUZZLE_DOG_BONES
0
POLYLINE
8
PUZZLE_DOG_BONES
66
1
70
1
10
0
20
0
30
0
0
VERTEX
8
PUZZLE_DOG_BONES
10
540
20
4231
30
0
0
VERTEX
8
PUZZLE_DOG_BONES
10
558
20
4231
30
0
0
VERTEX
8
PUZZLE_DOG_BONES
10
558
20
4291
30
0
0
VERTEX
8
PUZZLE_DOG_BONES
10
540
20
4291
30
0
0
SEQEND
8
PUZZLE_DOG_BONES
0
POLYLINE
8
PUZZLE_SOCKET
66
1
70
1
10
0
20
0
30
0
0
VERTEX
8
PUZZLE_SOCKET
10
69.5
20
4347
30
0
0
VERTEX
8
PUZZLE_SOCKET
10
120.5
20
4347
30
0
0
VERTEX
8
PUZZLE_SOCKET
10
120.5
20
4362
30
0
0
VERTEX
8
PUZZLE_SOCKET
10
69.5
20
4362
30
0
0
SEQEND
8
PUZZLE_SOCKET
0
POLYLINE
8
PUZZLE_SOCKET
66
1
70
1
10
0
20
0
30
0
0
VERTEX
8
PUZZLE_SOCKET
10
69.5
20
2200
30
0
0
VERTEX
8
PUZZLE_SOCKET
10
120.5
20
2200
30
0
0
VERTEX
8
PUZZLE_SOCKET
10
120.5
20
2215
30
0
0
VERTEX
8
PUZZLE_SOCKET
10
69.5
20
2215
30
0
0
SEQEND
8
PUZZLE_SOCKET
0
POLYLINE
8
PUZZLE_SOCKET
66
1
70
1
10
0
20
0
30
0
0
VERTEX
8
PUZZLE_SOCKET
10
419.5
20
4347
30
0
0
VERTEX
8
PUZZLE_SOCKET
10
470.5
20
4347
30
0
0
VERTEX
8
PUZZLE_SOCKET
10
470.5
20
4362
30
0
0
VERTEX
8
PUZZLE_SOCKET
10
419.5
20
4362
30
0
0
SEQEND
8
PUZZLE_SOCKET
0
POLYLINE
8
PUZZLE_SOCKET
66
1
70
1
10
0
20
0
30
0
0
VERTEX
8
PUZZLE_SOCKET
10
419.5
20
2200
30
0
0
VERTEX
8
PUZZLE_SOCKET
10
470.5
20
2200
30
0
0
VERTEX
8
PUZZLE_SOCKET
10
470.5
20
2215
30
0
0
VERTEX
8
PUZZLE_SOCKET
10
419.5
20
2215
30
0
0
SEQEND
8
PUZZLE_SOCKET
0
CIRCLE
8
PUZZLE_HOLES_7_5MM
10
70.5
20
4348
30
0
40
3.75
0
CIRCLE
8
PUZZLE_HOLES_7_5MM
10
119.5
20
4348
30
0
40
3.75
0
CIRCLE
8
PUZZLE_HOLES_7_5MM
10
70.5
20
2214
30
0
40
3.75
0
CIRCLE
8
PUZZLE_HOLES_7_5MM
10
119.5
20
2214
30
0
40
3.75
0
CIRCLE
8
PUZZLE_HOLES_7_5MM
10
420.5
20
4348
30
0
40
3.75
0
CIRCLE
8
PUZZLE_HOLES_7_5MM
10
469.5
20
4348
30
0
40
3.75
0
CIRCLE
8
PUZZLE_HOLES_7_5MM
10
420.5
20
2214
30
0
40
3.75
0
CIRCLE
8
PUZZLE_HOLES_7_5MM
10
469.5
20
2214
30
0
40
3.75
0
CIRCLE
8
SCREWS_3MM
10
50
20
4347
30
0
40
1.5
0
CIRCLE
8
SCREWS_3MM
10
50
20
2215
30
0
40
1.5
0
CIRCLE
8
SCREWS_3MM
10
270
20
4347
30
0
40
1.5
0
CIRCLE
8
SCREWS_3MM
10
270
20
2215
30
0
40
1.5
0
CIRCLE
8
SCREWS_3MM
10
490
20
4347
30
0
40
1.5
0
CIRCLE
8
SCREWS_3MM
10
490
20
2215
30
0
40
1.5
0
CIRCLE
8
HINGES_5MM
10
37
20
2290
30
0
40
2.5
0
CIRCLE
8
HINGES_5MM
10
37
20
2322
30
0
40
2.5
0
CIRCLE
8
HINGES_5MM
10
37
20
2680
30
0
40
2.5
0
CIRCLE
8
HINGES_5MM
10
37
20
2712
30
0
40
2.5
0
CIRCLE
8
HINGES_5MM
10
37
20
3070
30
0
40
2.5
0
CIRCLE
8
HINGES_5MM
10
37
20
3102
30
0
40
2.5
0
CIRCLE
8
HINGES_5MM
10
37
20
3460
30
0
40
2.5
0
CIRCLE
8
HINGES_5MM
10
37
20
3492
30
0
40
2.5
0
CIRCLE
8
HINGES_5MM
10
37
20
3850
30
0
40
2.5
0
CIRCLE
8
HINGES_5MM
10
37
20
3882
30
0
40
2.5
0
CIRCLE
8
HINGES_5MM
10
37
20
4240
30
0
40
2.5
0
CIRCLE
8
HINGES_5MM
10
37
20
4272
30
0
40
2.5
0
CIRCLE
8
SHOE_RUNNER_5MM
10
65
20
2264
30
0
40
2.5
0
CIRCLE
8
SHOE_RUNNER_5MM
10
380
20
2264
30
0
40
2.5
0
TEXT
8
UNIT_NUMBER
10
270
20
3293.5
30
0
40
20
1
W02 BUL
72
1
11
270
21
3293.5
31
0
73
2
0
TEXT
8
UNIT_NUMBER
10
270
20
3268.5
30
0
40
20
1
540x2150
72
1
11
270
21
3268.5
31
0
73
2
0
POLYLINE
8
OUTLINE
66
1
70
1
10
0
20
0
30
0
0
VERTEX
8
OUTLINE
10
626
20
2206
30
0
0
VERTEX
8
OUTLINE
10
1166
20
2206
30
0
0
VERTEX
8
OUTLINE
10
1166
20
4356
30
0
0
VERTEX
8
OUTLINE
10
626
20
4356
30
0
0
VERTEX
8
OUTLINE
10
626
20
4286
30
0
0
VERTEX
8
OUTLINE
10
626
20
4280
30
0
0
VERTEX
8
OUTLINE
10
613
20
4280
30
0
0
VERTEX
8
OUTLINE
10
613
20
4286
30
0
0
VERTEX
8
OUTLINE
10
608
20
4286
30
0
0
VERTEX
8
OUTLINE
10
608
20
4236
30
0
0
VERTEX
8
OUTLINE
10
613
20
4236
30
0
0
VERTEX
8
OUTLINE
10
613
20
4242
30
0
0
VERTEX
8
OUTLINE
10
626
20
4242
30
0
0
VERTEX
8
OUTLINE
10
626
20
4236
30
0
0
VERTEX
8
OUTLINE
10
626
20
3306
30
0
0
VERTEX
8
OUTLINE
10
626
20
3300
30
0
0
VERTEX
8
OUTLINE
10
613
20
3300
30
0
0
VERTEX
8
OUTLINE
10
613
20
3306
30
0
0
VERTEX
8
OUTLINE
10
608
20
3306
30
0
0
VERTEX
8
OUTLINE
10
608
20
3256
30
0
0
VERTEX
8
OUTLINE
10
613
20
3256
30
0
0
VERTEX
8
OUTLINE
10
613
20
3262
30
0
0
VERTEX
8
OUTLINE
10
626
20
3262
30
0
0
VERTEX
8
OUTLINE
10
626
20
3256
30
0
0
VERTEX
8
OUTLINE
10
626
20
2326
30
0
0
VERTEX
8
OUTLINE
10
626
20
2320
30
0
0
VERTEX
8
OUTLINE
10
613
20
2320
30
0
0
VERTEX
8
OUTLINE
10
613
20
2326
30
0
0
VERTEX
8
OUTLINE
10
608
20
2326
30
0
0
VERTEX
8
OUTLINE
10
608
20
2276
30
0
0
VERTEX
8
OUTLINE
10
613
20
2276
30
0
0
VERTEX
8
OUTLINE
10
613
20
2282
30
0
0
VERTEX
8
OUTLINE
10
626
20
2282
30
0
0
VERTEX
8
OUTLINE
10
626
20
2276
30
0
0
SEQEND
8
OUTLINE
0
POLYLINE
8
PUZZLE_DOG_BONES
66
1
70
1
10
0
20
0
30
0
0
VERTEX
8
PUZZLE_DOG_BONES
10
608
20
2271
30
0
0
VERTEX
8
PUZZLE_DOG_BONES
10
626
20
2271
30
0
0
VERTEX
8
PUZZLE_DOG_BONES
10
626
20
2331
30
0
0
VERTEX
8
PUZZLE_DOG_BONES
10
608
20
2331
30
0
0
SEQEND
8
PUZZLE_DOG_BONES
0
POLYLINE
8
PUZZLE_DOG_BONES
66
1
70
1
10
0
20
0
30
0
0
VERTEX
8
PUZZLE_DOG_BONES
10
608
20
3251
30
0
0
VERTEX
8
PUZZLE_DOG_BONES
10
626
20
3251
30
0
0
VERTEX
8
PUZZLE_DOG_BONES
10
626
20
3311
30
0
0
VERTEX
8
PUZZLE_DOG_BONES
10
608
20
3311
30
0
0
SEQEND
8
PUZZLE_DOG_BONES
0
POLYLINE
8
PUZZLE_DOG_BONES
66
1
70
1
10
0
20
0
30
0
0
VERTEX
8
PUZZLE_DOG_BONES
10
608
20
4231
30
0
0
VERTEX
8
PUZZLE_DOG_BONES
10
626
20
4231
30
0
0
VERTEX
8
PUZZLE_DOG_BONES
10
626
20
4291
30
0
0
VERTEX
8
PUZZLE_DOG_BONES
10
608
20
4291
30
0
0
SEQEND
8
PUZZLE_DOG_BONES
0
POLYLINE
8
PUZZLE_SOCKET
66
1
70
1
10
0
20
0
30
0
0
VERTEX
8
PUZZLE_SOCKET
10
695.5
20
4347
30
0
0
VERTEX
8
PUZZLE_SOCKET
10
746.5
20
4347
30
0
0
VERTEX
8
PUZZLE_SOCKET
10
746.5
20
4362
30
0
0
VERTEX
8
PUZZLE_SOCKET
10
695.5
20
4362
30
0
0
SEQEND
8
PUZZLE_SOCKET
0
POLYLINE
8
PUZZLE_SOCKET
66
1
70
1
10
0
20
0
30
0
0
VERTEX
8
PUZZLE_SOCKET
10
695.5
20
2200
30
0
0
VERTEX
8
PUZZLE_SOCKET
10
746.5
20
2200
30
0
0
VERTEX
8
PUZZLE_SOCKET
10
746.5
20
2215
30
0
0
VERTEX
8
PUZZLE_SOCKET
10
695.5
20
2215
30
0
0
SEQEND
8
PUZZLE_SOCKET
0
POLYLINE
8
PUZZLE_SOCKET
66
1
70
1
10
0
20
0
30
0
0
VERTEX
8
PUZZLE_SOCKET
10
1045.5
20
4347
30
0
0
VERTEX
8
PUZZLE_SOCKET
10
1096.5
20
4347
30
0
0
VERTEX
8
PUZZLE_SOCKET
10
1096.5
20
4362
30
0
0
VERTEX
8
PUZZLE_SOCKET
10
1045.5
20
4362
30
0
0
SEQEND
8
PUZZLE_SOCKET
0
POLYLINE
8
PUZZLE_SOCKET
66
1
70
1
10
0
20
0
30
0
0
VERTEX
8
PUZZLE_SOCKET
10
1045.5
20
2200
30
0
0
VERTEX
8
PUZZLE_SOCKET
10
1096.5
20
2200
30
0
0
VERTEX
8
PUZZLE_SOCKET
10
1096.5
20
2215
30
0
0
VERTEX
8
PUZZLE_SOCKET
10
1045.5
20
2215
30
0
0
SEQEND
8
PUZZLE_SOCKET
0
CIRCLE
8
PUZZLE_HOLES_7_5MM
10
696.5
20
4348
30
0
40
3.75
0
CIRCLE
8
PUZZLE_HOLES_7_5MM
10
745.5
20
4348
30
0
40
3.75
0
CIRCLE
8
PUZZLE_HOLES_7_5MM
10
696.5
20
2214
30
0
40
3.75
0
CIRCLE
8
PUZZLE_HOLES_7_5MM
10
745.5
20
2214
30
0
40
3.75
0
CIRCLE
8
PUZZLE_HOLES_7_5MM
10
1046.5
20
4348
30
0
40
3.75
0
CIRCLE
8
PUZZLE_HOLES_7_5MM
10
1095.5
20
4348
30
0
40
3.75
0
CIRCLE
8
PUZZLE_HOLES_7_5MM
10
1046.5
20
2214
30
0
40
3.75
0
CIRCLE
8
PUZZLE_HOLES_7_5MM
10
1095.5
20
2214
30
0
40
3.75
0
CIRCLE
8
SCREWS_3MM
10
676
20
4347
30
0
40
1.5
0
CIRCLE
8
SCREWS_3MM
10
676
20
2215
30
0
40
1.5
0
CIRCLE
8
SCREWS_3MM
10
896
20
4347
30
0
40
1.5
0
CIRCLE
8
SCREWS_3MM
10
896
20
2215
30
0
40
1.5
0
CIRCLE
8
SCREWS_3MM
10
1116
20
4347
30
0
40
1.5
0
CIRCLE
8
SCREWS_3MM
10
1116
20
2215
30
0
40
1.5
0
CIRCLE
8
HINGES_5MM
10
1129
20
2290
30
0
40
2.5
0
CIRCLE
8
HINGES_5MM
10
1129
20
2322
30
0
40
2.5
0
CIRCLE
8
HINGES_5MM
10
1129
20
2680
30
0
40
2.5
0
CIRCLE
8
HINGES_5MM
10
1129
20
2712
30
0
40
2.5
0
CIRCLE
8
HINGES_5MM
10
1129
20
3070
30
0
40
2.5
0
CIRCLE
8
HINGES_5MM
10
1129
20
3102
30
0
40
2.5
0
CIRCLE
8
HINGES_5MM
10
1129
20
3460
30
0
40
2.5
0
CIRCLE
8
HINGES_5MM
10
1129
20
3492
30
0
40
2.5
0
CIRCLE
8
HINGES_5MM
10
1129
20
3850
30
0
40
2.5
0
CIRCLE
8
HINGES_5MM
10
1129
20
3882
30
0
40
2.5
0
CIRCLE
8
HINGES_5MM
10
1129
20
4240
30
0
40
2.5
0
CIRCLE
8
HINGES_5MM
10
1129
20
4272
30
0
40
2.5
0
CIRCLE
8
SHOE_RUNNER_5MM
10
1101
20
2264
30
0
40
2.5
0
CIRCLE
8
SHOE_RUNNER_5MM
10
786
20
2264
30
0
40
2.5
0
TEXT
8
UNIT_NUMBER
10
896
20
3293.5
30
0
40
20
1
W02 BUR
72
1
11
896
21
3293.5
31
0
73
2
0
TEXT
8
UNIT_NUMBER
10
896
20
3268.5
30
0
40
20
1
540x2150
72
1
11
896
21
3268.5
31
0
73
2
0
POLYLINE
8
OUTLINE
66
1
70
1
10
0
20
0
30
0
0
VERTEX
8
OUTLINE
10
1234
20
3480
30
0
0
VERTEX
8
OUTLINE
10
1304
20
3480
30
0
0
VERTEX
8
OUTLINE
10
1310
20
3480
30
0
0
VERTEX
8
OUTLINE
10
1310
20
3467
30
0
0
VERTEX
8
OUTLINE
10
1304
20
3467
30
0
0
VERTEX
8
OUTLINE
10
1304
20
3462
30
0
0
VERTEX
8
OUTLINE
10
1354
20
3462
30
0
0
VERTEX
8
OUTLINE
10
1354
20
3467
30
0
0
VERTEX
8
OUTLINE
10
1348
20
3467
30
0
0
VERTEX
8
OUTLINE
10
1348
20
3480
30
0
0
VERTEX
8
OUTLINE
10
1354
20
3480
30
0
0
VERTEX
8
OUTLINE
10
1654
20
3480
30
0
0
VERTEX
8
OUTLINE
10
1660
20
3480
30
0
0
VERTEX
8
OUTLINE
10
1660
20
3467
30
0
0
VERTEX
8
OUTLINE
10
1654
20
3467
30
0
0
VERTEX
8
OUTLINE
10
1654
20
3462
30
0
0
VERTEX
8
OUTLINE
10
1704
20
3462
30
0
0
VERTEX
8
OUTLINE
10
1704
20
3467
30
0
0
VERTEX
8
OUTLINE
10
1698
20
3467
30
0
0
VERTEX
8
OUTLINE
10
1698
20
3480
30
0
0
VERTEX
8
OUTLINE
10
1704
20
3480
30
0
0
VERTEX
8
OUTLINE
10
1774
20
3480
30
0
0
VERTEX
8
OUTLINE
10
1774
20
4344
30
0
0
VERTEX
8
OUTLINE
10
1704
20
4344
30
0
0
VERTEX
8
OUTLINE
10
1698
20
4344
30
0
0
VERTEX
8
OUTLINE
10
1698
20
4357
30
0
0
VERTEX
8
OUTLINE
10
1704
20
4357
30
0
0
VERTEX
8
OUTLINE
10
1704
20
4362
30
0
0
VERTEX
8
OUTLINE
10
1654
20
4362
30
0
0
VERTEX
8
OUTLINE
10
1654
20
4357
30
0
0
VERTEX
8
OUTLINE
10
1660
20
4357
30
0
0
VERTEX
8
OUTLINE
10
1660
20
4344
30
0
0
VERTEX
8
OUTLINE
10
1654
20
4344
30
0
0
VERTEX
8
OUTLINE
10
1354
20
4344
30
0
0
VERTEX
8
OUTLINE
10
1348
20
4344
30
0
0
VERTEX
8
OUTLINE
10
1348
20
4357
30
0
0
VERTEX
8
OUTLINE
10
1354
20
4357
30
0
0
VERTEX
8
OUTLINE
10
1354
20
4362
30
0
0
VERTEX
8
OUTLINE
10
1304
20
4362
30
0
0
VERTEX
8
OUTLINE
10
1304
20
4357
30
0
0
VERTEX
8
OUTLINE
10
1310
20
4357
30
0
0
VERTEX
8
OUTLINE
10
1310
20
4344
30
0
0
VERTEX
8
OUTLINE
10
1304
20
4344
30
0
0
VERTEX
8
OUTLINE
10
1234
20
4344
30
0
0
VERTEX
8
OUTLINE
10
1234
20
4274
30
0
0
VERTEX
8
OUTLINE
10
1234
20
4268
30
0
0
VERTEX
8
OUTLINE
10
1221
20
4268
30
0
0
VERTEX
8
OUTLINE
10
1221
20
4274
30
0
0
VERTEX
8
OUTLINE
10
1216
20
4274
30
0
0
VERTEX
8
OUTLINE
10
1216
20
4224
30
0
0
VERTEX
8
OUTLINE
10
1221
20
4224
30
0
0
VERTEX
8
OUTLINE
10
1221
20
4230
30
0
0
VERTEX
8
OUTLINE
10
1234
20
4230
30
0
0
VERTEX
8
OUTLINE
10
1234
20
4224
30
0
0
VERTEX
8
OUTLINE
10
1234
20
3600
30
0
0
VERTEX
8
OUTLINE
10
1234
20
3594
30
0
0
VERTEX
8
OUTLINE
10
1221
20
3594
30
0
0
VERTEX
8
OUTLINE
10
1221
20
3600
30
0
0
VERTEX
8
OUTLINE
10
1216
20
3600
30
0
0
VERTEX
8
OUTLINE
10
1216
20
3550
30
0
0
VERTEX
8
OUTLINE
10
1221
20
3550
30
0
0
VERTEX
8
OUTLINE
10
1221
20
3556
30
0
0
VERTEX
8
OUTLINE
10
1234
20
3556
30
0
0
VERTEX
8
OUTLINE
10
1234
20
3550
30
0
0
SEQEND
8
OUTLINE
0
POLYLINE
8
PUZZLE_DOG_BONES
66
1
70
1
10
0
20
0
30
0
0
VERTEX
8
PUZZLE_DOG_BONES
10
1299
20
4344
30
0
0
VERTEX
8
PUZZLE_DOG_BONES
10
1359
20
4344
30
0
0
VERTEX
8
PUZZLE_DOG_BONES
10
1359
20
4362
30
0
0
VERTEX
8
PUZZLE_DOG_BONES
10
1299
20
4362
30
0
0
SEQEND
8
PUZZLE_DOG_BONES
0
POLYLINE
8
PUZZLE_DOG_BONES
66
1
70
1
10
0
20
0
30
0
0
VERTEX
8
PUZZLE_DOG_BONES
10
1299
20
3462
30
0
0
VERTEX
8
PUZZLE_DOG_BONES
10
1359
20
3462
30
0
0
VERTEX
8
PUZZLE_DOG_BONES
10
1359
20
3480
30
0
0
VERTEX
8
PUZZLE_DOG_BONES
10
1299
20
3480
30
0
0
SEQEND
8
PUZZLE_DOG_BONES
0
POLYLINE
8
PUZZLE_DOG_BONES
66
1
70
1
10
0
20
0
30
0
0
VERTEX
8
PUZZLE_DOG_BONES
10
1649
20
4344
30
0
0
VERTEX
8
PUZZLE_DOG_BONES
10
1709
20
4344
30
0
0
VERTEX
8
PUZZLE_DOG_BONES
10
1709
20
4362
30
0
0
VERTEX
8
PUZZLE_DOG_BONES
10
1649
20
4362
30
0
0
SEQEND
8
PUZZLE_DOG_BONES
0
POLYLINE
8
PUZZLE_DOG_BONES
66
1
70
1
10
0
20
0
30
0
0
VERTEX
8
PUZZLE_DOG_BONES
10
1649
20
3462
30
0
0
VERTEX
8
PUZZLE_DOG_BONES
10
1709
20
3462
30
0
0
VERTEX
8
PUZZLE_DOG_BONES
10
1709
20
3480
30
0
0
VERTEX
8
PUZZLE_DOG_BONES
10
1649
20
3480
30
0
0
SEQEND
8
PUZZLE_DOG_BONES
0
POLYLINE
8
PUZZLE_DOG_BONES
66
1
70
1
10
0
20
0
30
0
0
VERTEX
8
PUZZLE_DOG_BONES
10
1216
20
3545
30
0
0
VERTEX
8
PUZZLE_DOG_BONES
10
1234
20
3545
30
0
0
VERTEX
8
PUZZLE_DOG_BONES
10
1234
20
3605
30
0
0
VERTEX
8
PUZZLE_DOG_BONES
10
1216
20
3605
30
0
0
SEQEND
8
PUZZLE_DOG_BONES
0
POLYLINE
8
PUZZLE_DOG_BONES
66
1
70
1
10
0
20
0
30
0
0
VERTEX
8
PUZZLE_DOG_BONES
10
1216
20
4219
30
0
0
VERTEX
8
PUZZLE_DOG_BONES
10
1234
20
4219
30
0
0
VERTEX
8
PUZZLE_DOG_BONES
10
1234
20
4279
30
0
0
VERTEX
8
PUZZLE_DOG_BONES
10
1216
20
4279
30
0
0
SEQEND
8
PUZZLE_DOG_BONES
0
TEXT
8
UNIT_NUMBER
10
1504
20
3924.5
30
0
40
20
1
W02 TOP
72
1
11
1504
21
3924.5
31
0
73
2
0
TEXT
8
UNIT_NUMBER
10
1504
20
3899.5
30
0
40
20
1
864x540
72
1
11
1504
21
3899.5
31
0
73
2
0
POLYLINE
8
OUTLINE
66
1
70
1
10
0
20
0
30
0
0
VERTEX
8
OUTLINE
10
1842
20
3480
30
0
0
VERTEX
8
OUTLINE
10
1912
20
3480
30
0
0
VERTEX
8
OUTLINE
10
1918
20
3480
30
0
0
VERTEX
8
OUTLINE
10
1918
20
3467
30
0
0
VERTEX
8
OUTLINE
10
1912
20
3467
30
0
0
VERTEX
8
OUTLINE
10
1912
20
3462
30
0
0
VERTEX
8
OUTLINE
10
1962
20
3462
30
0
0
VERTEX
8
OUTLINE
10
1962
20
3467
30
0
0
VERTEX
8
OUTLINE
10
1956
20
3467
30
0
0
VERTEX
8
OUTLINE
10
1956
20
3480
30
0
0
VERTEX
8
OUTLINE
10
1962
20
3480
30
0
0
VERTEX
8
OUTLINE
10
2262
20
3480
30
0
0
VERTEX
8
OUTLINE
10
2268
20
3480
30
0
0
VERTEX
8
OUTLINE
10
2268
20
3467
30
0
0
VERTEX
8
OUTLINE
10
2262
20
3467
30
0
0
VERTEX
8
OUTLINE
10
2262
20
3462
30
0
0
VERTEX
8
OUTLINE
10
2312
20
3462
30
0
0
VERTEX
8
OUTLINE
10
2312
20
3467
30
0
0
VERTEX
8
OUTLINE
10
2306
20
3467
30
0
0
VERTEX
8
OUTLINE
10
2306
20
3480
30
0
0
VERTEX
8
OUTLINE
10
2312
20
3480
30
0
0
VERTEX
8
OUTLINE
10
2382
20
3480
30
0
0
VERTEX
8
OUTLINE
10
2382
20
4344
30
0
0
VERTEX
8
OUTLINE
10
2312
20
4344
30
0
0
VERTEX
8
OUTLINE
10
2306
20
4344
30
0
0
VERTEX
8
OUTLINE
10
2306
20
4357
30
0
0
VERTEX
8
OUTLINE
10
2312
20
4357
30
0
0
VERTEX
8
OUTLINE
10
2312
20
4362
30
0
0
VERTEX
8
OUTLINE
10
2262
20
4362
30
0
0
VERTEX
8
OUTLINE
10
2262
20
4357
30
0
0
VERTEX
8
OUTLINE
10
2268
20
4357
30
0
0
VERTEX
8
OUTLINE
10
2268
20
4344
30
0
0
VERTEX
8
OUTLINE
10
2262
20
4344
30
0
0
VERTEX
8
OUTLINE
10
1962
20
4344
30
0
0
VERTEX
8
OUTLINE
10
1956
20
4344
30
0
0
VERTEX
8
OUTLINE
10
1956
20
4357
30
0
0
VERTEX
8
OUTLINE
10
1962
20
4357
30
0
0
VERTEX
8
OUTLINE
10
1962
20
4362
30
0
0
VERTEX
8
OUTLINE
10
1912
20
4362
30
0
0
VERTEX
8
OUTLINE
10
1912
20
4357
30
0
0
VERTEX
8
OUTLINE
10
1918
20
4357
30
0
0
VERTEX
8
OUTLINE
10
1918
20
4344
30
0
0
VERTEX
8
OUTLINE
10
1912
20
4344
30
0
0
VERTEX
8
OUTLINE
10
1842
20
4344
30
0
0
VERTEX
8
OUTLINE
10
1842
20
4274
30
0
0
VERTEX
8
OUTLINE
10
1842
20
4268
30
0
0
VERTEX
8
OUTLINE
10
1829
20
4268
30
0
0
VERTEX
8
OUTLINE
10
1829
20
4274
30
0
0
VERTEX
8
OUTLINE
10
1824
20
4274
30
0
0
VERTEX
8
OUTLINE
10
1824
20
4224
30
0
0
VERTEX
8
OUTLINE
10
1829
20
4224
30
0
0
VERTEX
8
OUTLINE
10
1829
20
4230
30
0
0
VERTEX
8
OUTLINE
10
1842
20
4230
30
0
0
VERTEX
8
OUTLINE
10
1842
20
4224
30
0
0
VERTEX
8
OUTLINE
10
1842
20
3600
30
0
0
VERTEX
8
OUTLINE
10
1842
20
3594
30
0
0
VERTEX
8
OUTLINE
10
1829
20
3594
30
0
0
VERTEX
8
OUTLINE
10
1829
20
3600
30
0
0
VERTEX
8
OUTLINE
10
1824
20
3600
30
0
0
VERTEX
8
OUTLINE
10
1824
20
3550
30
0
0
VERTEX
8
OUTLINE
10
1829
20
3550
30
0
0
VERTEX
8
OUTLINE
10
1829
20
3556
30
0
0
VERTEX
8
OUTLINE
10
1842
20
3556
30
0
0
VERTEX
8
OUTLINE
10
1842
20
3550
30
0
0
SEQEND
8
OUTLINE
0
POLYLINE
8
PUZZLE_DOG_BONES
66
1
70
1
10
0
20
0
30
0
0
VERTEX
8
PUZZLE_DOG_BONES
10
1907
20
4344
30
0
0
VERTEX
8
PUZZLE_DOG_BONES
10
1967
20
4344
30
0
0
VERTEX
8
PUZZLE_DOG_BONES
10
1967
20
4362
30
0
0
VERTEX
8
PUZZLE_DOG_BONES
10
1907
20
4362
30
0
0
SEQEND
8
PUZZLE_DOG_BONES
0
POLYLINE
8
PUZZLE_DOG_BONES
66
1
70
1
10
0
20
0
30
0
0
VERTEX
8
PUZZLE_DOG_BONES
10
1907
20
3462
30
0
0
VERTEX
8
PUZZLE_DOG_BONES
10
1967
20
3462
30
0
0
VERTEX
8
PUZZLE_DOG_BONES
10
1967
20
3480
30
0
0
VERTEX
8
PUZZLE_DOG_BONES
10
1907
20
3480
30
0
0
SEQEND
8
PUZZLE_DOG_BONES
0
POLYLINE
8
PUZZLE_DOG_BONES
66
1
70
1
10
0
20
0
30
0
0
VERTEX
8
PUZZLE_DOG_BONES
10
2257
20
4344
30
0
0
VERTEX
8
PUZZLE_DOG_BONES
10
2317
20
4344
30
0
0
VERTEX
8
PUZZLE_DOG_BONES
10
2317
20
4362
30
0
0
VERTEX
8
PUZZLE_DOG_BONES
10
2257
20
4362
30
0
0
SEQEND
8
PUZZLE_DOG_BONES
0
POLYLINE
8
PUZZLE_DOG_BONES
66
1
70
1
10
0
20
0
30
0
0
VERTEX
8
PUZZLE_DOG_BONES
10
2257
20
3462
30
0
0
VERTEX
8
PUZZLE_DOG_BONES
10
2317
20
3462
30
0
0
VERTEX
8
PUZZLE_DOG_BONES
10
2317
20
3480
30
0
0
VERTEX
8
PUZZLE_DOG_BONES
10
2257
20
3480
30
0
0
SEQEND
8
PUZZLE_DOG_BONES
0
POLYLINE
8
PUZZLE_DOG_BONES
66
1
70
1
10
0
20
0
30
0
0
VERTEX
8
PUZZLE_DOG_BONES
10
1824
20
3545
30
0
0
VERTEX
8
PUZZLE_DOG_BONES
10
1842
20
3545
30
0
0
VERTEX
8
PUZZLE_DOG_BONES
10
1842
20
3605
30
0
0
VERTEX
8
PUZZLE_DOG_BONES
10
1824
20
3605
30
0
0
SEQEND
8
PUZZLE_DOG_BONES
0
POLYLINE
8
PUZZLE_DOG_BONES
66
1
70
1
10
0
20
0
30
0
0
VERTEX
8
PUZZLE_DOG_BONES
10
1824
20
4219
30
0
0
VERTEX
8
PUZZLE_DOG_BONES
10
1842
20
4219
30
0
0
VERTEX
8
PUZZLE_DOG_BONES
10
1842
20
4279
30
0
0
VERTEX
8
PUZZLE_DOG_BONES
10
1824
20
4279
30
0
0
SEQEND
8
PUZZLE_DOG_BONES
0
TEXT
8
UNIT_NUMBER
10
2112
20
3937
30
0
40
20
1
W02
72
1
11
2112
21
3937
31
0
73
2
0
TEXT
8
UNIT_NUMBER
10
2112
20
3912
30
0
40
20
1
BOTTOM
72
1
11
2112
21
3912
31
0
73
2
0
TEXT
8
UNIT_NUMBER
10
2112
20
3887
30
0
40
20
1
864x540
72
1
11
2112
21
3887
31
0
73
2
0
POLYLINE
8
OUTLINE
66
1
70
1
10
0
20
0
30
0
0
VERTEX
8
OUTLINE
10
2438
20
2206
30
0
0
VERTEX
8
OUTLINE
10
3338
20
2206
30
0
0
VERTEX
8
OUTLINE
10
3338
20
4356
30
0
0
VERTEX
8
OUTLINE
10
2438
20
4356
30
0
0
SEQEND
8
OUTLINE
0
POLYLINE
8
PUZZLE_SOCKET
66
1
70
1
10
0
20
0
30
0
0
VERTEX
8
PUZZLE_SOCKET
10
2432
20
2275.5
30
0
0
VERTEX
8
PUZZLE_SOCKET
10
2447
20
2275.5
30
0
0
VERTEX
8
PUZZLE_SOCKET
10
2447
20
2326.5
30
0
0
VERTEX
8
PUZZLE_SOCKET
10
2432
20
2326.5
30
0
0
SEQEND
8
PUZZLE_SOCKET
0
POLYLINE
8
PUZZLE_SOCKET
66
1
70
1
10
0
20
0
30
0
0
VERTEX
8
PUZZLE_SOCKET
10
2432
20
3255.5
30
0
0
VERTEX
8
PUZZLE_SOCKET
10
2447
20
3255.5
30
0
0
VERTEX
8
PUZZLE_SOCKET
10
2447
20
3306.5
30
0
0
VERTEX
8
PUZZLE_SOCKET
10
2432
20
3306.5
30
0
0
SEQEND
8
PUZZLE_SOCKET
0
POLYLINE
8
PUZZLE_SOCKET
66
1
70
1
10
0
20
0
30
0
0
VERTEX
8
PUZZLE_SOCKET
10
2432
20
4235.5
30
0
0
VERTEX
8
PUZZLE_SOCKET
10
2447
20
4235.5
30
0
0
VERTEX
8
PUZZLE_SOCKET
10
2447
20
4286.5
30
0
0
VERTEX
8
PUZZLE_SOCKET
10
2432
20
4286.5
30
0
0
SEQEND
8
PUZZLE_SOCKET
0
POLYLINE
8
PUZZLE_SOCKET
66
1
70
1
10
0
20
0
30
0
0
VERTEX
8
PUZZLE_SOCKET
10
3329
20
2275.5
30
0
0
VERTEX
8
PUZZLE_SOCKET
10
3344
20
2275.5
30
0
0
VERTEX
8
PUZZLE_SOCKET
10
3344
20
2326.5
30
0
0
VERTEX
8
PUZZLE_SOCKET
10
3329
20
2326.5
30
0
0
SEQEND
8
PUZZLE_SOCKET
0
POLYLINE
8
PUZZLE_SOCKET
66
1
70
1
10
0
20
0
30
0
0
VERTEX
8
PUZZLE_SOCKET
10
3329
20
3255.5
30
0
0
VERTEX
8
PUZZLE_SOCKET
10
3344
20
3255.5
30
0
0
VERTEX
8
PUZZLE_SOCKET
10
3344
20
3306.5
30
0
0
VERTEX
8
PUZZLE_SOCKET
10
3329
20
3306.5
30
0
0
SEQEND
8
PUZZLE_SOCKET
0
POLYLINE
8
PUZZLE_SOCKET
66
1
70
1
10
0
20
0
30
0
0
VERTEX
8
PUZZLE_SOCKET
10
3329
20
4235.5
30
0
0
VERTEX
8
PUZZLE_SOCKET
10
3344
20
4235.5
30
0
0
VERTEX
8
PUZZLE_SOCKET
10
3344
20
4286.5
30
0
0
VERTEX
8
PUZZLE_SOCKET
10
3329
20
4286.5
30
0
0
SEQEND
8
PUZZLE_SOCKET
0
POLYLINE
8
PUZZLE_SOCKET
66
1
70
1
10
0
20
0
30
0
0
VERTEX
8
PUZZLE_SOCKET
10
2525.5
20
4347
30
0
0
VERTEX
8
PUZZLE_SOCKET
10
2576.5
20
4347
30
0
0
VERTEX
8
PUZZLE_SOCKET
10
2576.5
20
4362
30
0
0
VERTEX
8
PUZZLE_SOCKET
10
2525.5
20
4362
30
0
0
SEQEND
8
PUZZLE_SOCKET
0
POLYLINE
8
PUZZLE_SOCKET
66
1
70
1
10
0
20
0
30
0
0
VERTEX
8
PUZZLE_SOCKET
10
3199.5
20
4347
30
0
0
VERTEX
8
PUZZLE_SOCKET
10
3250.5
20
4347
30
0
0
VERTEX
8
PUZZLE_SOCKET
10
3250.5
20
4362
30
0
0
VERTEX
8
PUZZLE_SOCKET
10
3199.5
20
4362
30
0
0
SEQEND
8
PUZZLE_SOCKET
0
POLYLINE
8
PUZZLE_SOCKET
66
1
70
1
10
0
20
0
30
0
0
VERTEX
8
PUZZLE_SOCKET
10
2525.5
20
2200
30
0
0
VERTEX
8
PUZZLE_SOCKET
10
2576.5
20
2200
30
0
0
VERTEX
8
PUZZLE_SOCKET
10
2576.5
20
2215
30
0
0
VERTEX
8
PUZZLE_SOCKET
10
2525.5
20
2215
30
0
0
SEQEND
8
PUZZLE_SOCKET
0
POLYLINE
8
PUZZLE_SOCKET
66
1
70
1
10
0
20
0
30
0
0
VERTEX
8
PUZZLE_SOCKET
10
3199.5
20
2200
30
0
0
VERTEX
8
PUZZLE_SOCKET
10
3250.5
20
2200
30
0
0
VERTEX
8
PUZZLE_SOCKET
10
3250.5
20
2215
30
0
0
VERTEX
8
PUZZLE_SOCKET
10
3199.5
20
2215
30
0
0
SEQEND
8
PUZZLE_SOCKET
0
CIRCLE
8
PUZZLE_HOLES_7_5MM
10
2446
20
2276.5
30
0
40
3.75
0
CIRCLE
8
PUZZLE_HOLES_7_5MM
10
2446
20
2325.5
30
0
40
3.75
0
CIRCLE
8
PUZZLE_HOLES_7_5MM
10
2446
20
3256.5
30
0
40
3.75
0
CIRCLE
8
PUZZLE_HOLES_7_5MM
10
2446
20
3305.5
30
0
40
3.75
0
CIRCLE
8
PUZZLE_HOLES_7_5MM
10
2446
20
4236.5
30
0
40
3.75
0
CIRCLE
8
PUZZLE_HOLES_7_5MM
10
2446
20
4285.5
30
0
40
3.75
0
CIRCLE
8
PUZZLE_HOLES_7_5MM
10
3330
20
2276.5
30
0
40
3.75
0
CIRCLE
8
PUZZLE_HOLES_7_5MM
10
3330
20
2325.5
30
0
40
3.75
0
CIRCLE
8
PUZZLE_HOLES_7_5MM
10
3330
20
3256.5
30
0
40
3.75
0
CIRCLE
8
PUZZLE_HOLES_7_5MM
10
3330
20
3305.5
30
0
40
3.75
0
CIRCLE
8
PUZZLE_HOLES_7_5MM
10
3330
20
4236.5
30
0
40
3.75
0
CIRCLE
8
PUZZLE_HOLES_7_5MM
10
3330
20
4285.5
30
0
40
3.75
0
CIRCLE
8
PUZZLE_HOLES_7_5MM
10
2526.5
20
4348
30
0
40
3.75
0
CIRCLE
8
PUZZLE_HOLES_7_5MM
10
2575.5
20
4348
30
0
40
3.75
0
CIRCLE
8
PUZZLE_HOLES_7_5MM
10
3200.5
20
4348
30
0
40
3.75
0
CIRCLE
8
PUZZLE_HOLES_7_5MM
10
3249.5
20
4348
30
0
40
3.75
0
CIRCLE
8
PUZZLE_HOLES_7_5MM
10
2526.5
20
2214
30
0
40
3.75
0
CIRCLE
8
PUZZLE_HOLES_7_5MM
10
2575.5
20
2214
30
0
40
3.75
0
CIRCLE
8
PUZZLE_HOLES_7_5MM
10
3200.5
20
2214
30
0
40
3.75
0
CIRCLE
8
PUZZLE_HOLES_7_5MM
10
3249.5
20
2214
30
0
40
3.75
0
CIRCLE
8
SCREWS_3MM
10
2447
20
2256
30
0
40
1.5
0
CIRCLE
8
SCREWS_3MM
10
3329
20
2256
30
0
40
1.5
0
CIRCLE
8
SCREWS_3MM
10
2447
20
2791
30
0
40
1.5
0
CIRCLE
8
SCREWS_3MM
10
3329
20
2791
30
0
40
1.5
0
CIRCLE
8
SCREWS_3MM
10
2447
20
3771
30
0
40
1.5
0
CIRCLE
8
SCREWS_3MM
10
3329
20
3771
30
0
40
1.5
0
CIRCLE
8
SCREWS_3MM
10
2447
20
4306
30
0
40
1.5
0
CIRCLE
8
SCREWS_3MM
10
3329
20
4306
30
0
40
1.5
0
CIRCLE
8
SCREWS_3MM
10
2506
20
4347
30
0
40
1.5
0
CIRCLE
8
SCREWS_3MM
10
2506
20
2215
30
0
40
1.5
0
CIRCLE
8
SCREWS_3MM
10
2888
20
4347
30
0
40
1.5
0
CIRCLE
8
SCREWS_3MM
10
2888
20
2215
30
0
40
1.5
0
CIRCLE
8
SCREWS_3MM
10
3270
20
4347
30
0
40
1.5
0
CIRCLE
8
SCREWS_3MM
10
3270
20
2215
30
0
40
1.5
0
TEXT
8
UNIT_NUMBER
10
2888
20
3293.5
30
0
40
20
1
W02 BACK
72
1
11
2888
21
3293.5
31
0
73
2
0
TEXT
8
UNIT_NUMBER
10
2888
20
3268.5
30
0
40
20
1
900x2150
72
1
11
2888
21
3268.5
31
0
73
2
0
POLYLINE
8
OUTLINE
66
1
70
1
10
0
20
0
30
0
0
VERTEX
8
OUTLINE
10
3474
20
3897
30
0
0
VERTEX
8
OUTLINE
10
3474
20
4362
30
0
0
VERTEX
8
OUTLINE
10
3394
20
4362
30
0
0
VERTEX
8
OUTLINE
10
3394
20
3897
30
0
0
SEQEND
8
OUTLINE
0
POLYLINE
8
SHOE_GROOVE_6MM
66
1
70
1
10
0
20
0
30
0
0
VERTEX
8
SHOE_GROOVE_6MM
10
3474
20
3915
30
0
0
VERTEX
8
SHOE_GROOVE_6MM
10
3421.33
20
4344
30
0
0
VERTEX
8
SHOE_GROOVE_6MM
10
3403.2656
20
4341.7822
30
0
0
VERTEX
8
SHOE_GROOVE_6MM
10
3455.9356
20
3912.7822
30
0
0
SEQEND
8
SHOE_GROOVE_6MM
0
TEXT
8
UNIT_NUMBER
10
3428
20
4129.5
30
0
40
9.6
1
W02 SHOE1-SL
50
90
72
1
11
3428
21
4129.5
31
0
73
2
0
TEXT
8
UNIT_NUMBER
10
3440
20
4129.5
30
0
40
9.6
1
465x80
50
90
72
1
11
3440
21
4129.5
31
0
73
2
0
POLYLINE
8
OUTLINE
66
1
70
1
10
0
20
0
30
0
0
VERTEX
8
OUTLINE
10
80
20
1685
30
0
0
VERTEX
8
OUTLINE
10
80
20
2150
30
0
0
VERTEX
8
OUTLINE
10
0
20
2150
30
0
0
VERTEX
8
OUTLINE
10
0
20
1685
30
0
0
SEQEND
8
OUTLINE
0
POLYLINE
8
SHOE_GROOVE_6MM
66
1
70
1
10
0
20
0
30
0
0
VERTEX
8
SHOE_GROOVE_6MM
10
80
20
1703
30
0
0
VERTEX
8
SHOE_GROOVE_6MM
10
27.33
20
2132
30
0
0
VERTEX
8
SHOE_GROOVE_6MM
10
9.2656
20
2129.7822
30
0
0
VERTEX
8
SHOE_GROOVE_6MM
10
61.9356
20
1700.7822
30
0
0
SEQEND
8
SHOE_GROOVE_6MM
0
TEXT
8
UNIT_NUMBER
10
34
20
1917.5
30
0
40
9.6
1
W02 SHOE1-SR
50
90
72
1
11
34
21
1917.5
31
0
73
2
0
TEXT
8
UNIT_NUMBER
10
46
20
1917.5
30
0
40
9.6
1
465x80
50
90
72
1
11
46
21
1917.5
31
0
73
2
0
POLYLINE
8
OUTLINE
66
1
70
1
10
0
20
0
30
0
0
VERTEX
8
OUTLINE
10
210
20
1408
30
0
0
VERTEX
8
OUTLINE
10
210
20
2150
30
0
0
VERTEX
8
OUTLINE
10
130
20
2150
30
0
0
VERTEX
8
OUTLINE
10
130
20
1408
30
0
0
SEQEND
8
OUTLINE
0
POLYLINE
8
SHOE_GROOVE_6MM
66
1
70
1
10
0
20
0
30
0
0
VERTEX
8
SHOE_GROOVE_6MM
10
157.33
20
1408
30
0
0
VERTEX
8
SHOE_GROOVE_6MM
10
157.33
20
2150
30
0
0
VERTEX
8
SHOE_GROOVE_6MM
10
139.13
20
2150
30
0
0
VERTEX
8
SHOE_GROOVE_6MM
10
139.13
20
1408
30
0
0
SEQEND
8
SHOE_GROOVE_6MM
0
TEXT
8
UNIT_NUMBER
10
170
20
1779
30
0
40
9.6
1
W02 SHOE1-BK 742x80
50
90
72
1
11
170
21
1779
31
0
73
2
0
POLYLINE
8
OUTLINE
66
1
70
1
10
0
20
0
30
0
0
VERTEX
8
OUTLINE
10
340
20
1408
30
0
0
VERTEX
8
OUTLINE
10
340
20
2150
30
0
0
VERTEX
8
OUTLINE
10
260
20
2150
30
0
0
VERTEX
8
OUTLINE
10
260
20
1408
30
0
0
SEQEND
8
OUTLINE
0
POLYLINE
8
SHOE_GROOVE_6MM
66
1
70
1
10
0
20
0
30
0
0
VERTEX
8
SHOE_GROOVE_6MM
10
340
20
1408
30
0
0
VERTEX
8
SHOE_GROOVE_6MM
10
340
20
2150
30
0
0
VERTEX
8
SHOE_GROOVE_6MM
10
321.8
20
2150
30
0
0
VERTEX
8
SHOE_GROOVE_6MM
10
321.8
20
1408
30
0
0
SEQEND
8
SHOE_GROOVE_6MM
0
TEXT
8
UNIT_NUMBER
10
300
20
1779
30
0
40
9.6
1
W02 SHOE1-BF 742x80
50
90
72
1
11
300
21
1779
31
0
73
2
0
POLYLINE
8
OUTLINE
66
1
70
1
10
0
20
0
30
0
0
VERTEX
8
OUTLINE
10
834.22
20
1396
30
0
0
VERTEX
8
OUTLINE
10
834.22
20
2150
30
0
0
VERTEX
8
OUTLINE
10
390
20
2150
30
0
0
VERTEX
8
OUTLINE
10
390
20
1396
30
0
0
SEQEND
8
OUTLINE
0
TEXT
8
UNIT_NUMBER
10
587.11
20
1773
30
0
40
20
1
W02
50
90
72
1
11
587.11
21
1773
31
0
73
2
0
TEXT
8
UNIT_NUMBER
10
612.11
20
1773
30
0
40
20
1
SHOE1-BT
50
90
72
1
11
612.11
21
1773
31
0
73
2
0
TEXT
8
UNIT_NUMBER
10
637.11
20
1773
30
0
40
20
1
754x444.2
50
90
72
1
11
637.11
21
1773
31
0
73
2
0
POLYLINE
8
OUTLINE
66
1
70
1
10
0
20
0
30
0
0
VERTEX
8
OUTLINE
10
934.22
20
1408
30
0
0
VERTEX
8
OUTLINE
10
934.22
20
2150
30
0
0
VERTEX
8
OUTLINE
10
884.22
20
2150
30
0
0
VERTEX
8
OUTLINE
10
884.22
20
1408
30
0
0
SEQEND
8
OUTLINE
0
TEXT
8
UNIT_NUMBER
10
909.22
20
1779
30
0
40
6
1
W02 SHOE1-DV 742x50
50
90
72
1
11
909.22
21
1779
31
0
73
2
0
POLYLINE
8
OUTLINE
66
1
70
1
10
0
20
0
30
0
0
VERTEX
8
OUTLINE
10
1054.22
20
1715
30
0
0
VERTEX
8
OUTLINE
10
1054.22
20
2150
30
0
0
VERTEX
8
OUTLINE
10
984.22
20
2150
30
0
0
VERTEX
8
OUTLINE
10
984.22
20
1715
30
0
0
SEQEND
8
OUTLINE
0
TEXT
8
UNIT_NUMBER
10
1013.97
20
1932.5
30
0
40
8.4
1
W02 SHOE1-BATTEN-L
50
90
72
1
11
1013.97
21
1932.5
31
0
73
2
0
TEXT
8
UNIT_NUMBER
10
1024.47
20
1932.5
30
0
40
8.4
1
435x70
50
90
72
1
11
1024.47
21
1932.5
31
0
73
2
0
POLYLINE
8
OUTLINE
66
1
70
1
10
0
20
0
30
0
0
VERTEX
8
OUTLINE
10
1174.22
20
1715
30
0
0
VERTEX
8
OUTLINE
10
1174.22
20
2150
30
0
0
VERTEX
8
OUTLINE
10
1104.22
20
2150
30
0
0
VERTEX
8
OUTLINE
10
1104.22
20
1715
30
0
0
SEQEND
8
OUTLINE
0
TEXT
8
UNIT_NUMBER
10
1133.97
20
1932.5
30
0
40
8.4
1
W02 SHOE1-BATTEN-R
50
90
72
1
11
1133.97
21
1932.5
31
0
73
2
0
TEXT
8
UNIT_NUMBER
10
1144.47
20
1932.5
30
0
40
8.4
1
435x70
50
90
72
1
11
1144.47
21
1932.5
31
0
73
2
0
POLYLINE
8
OUTLINE
66
1
70
1
10
0
20
0
30
0
0
VERTEX
8
OUTLINE
10
1344.22
20
1306
30
0
0
VERTEX
8
OUTLINE
10
1344.22
20
2150
30
0
0
VERTEX
8
OUTLINE
10
1224.22
20
2150
30
0
0
VERTEX
8
OUTLINE
10
1224.22
20
1306
30
0
0
SEQEND
8
OUTLINE
0
TEXT
8
UNIT_NUMBER
10
1275.22
20
1728
30
0
40
14.4
1
W02 SHOE1-FR
50
90
72
1
11
1275.22
21
1728
31
0
73
2
0
TEXT
8
UNIT_NUMBER
10
1293.22
20
1728
30
0
40
14.4
1
844x120
50
90
72
1
11
1293.22
21
1728
31
0
73
2
0
POLYLINE
8
OUTLINE
66
1
70
1
10
0
20
0
30
0
0
VERTEX
8
OUTLINE
10
1394.22
20
0
30
0
0
VERTEX
8
OUTLINE
10
1841.22
20
0
30
0
0
VERTEX
8
OUTLINE
10
1841.22
20
2150
30
0
0
VERTEX
8
OUTLINE
10
1394.22
20
2150
30
0
0
SEQEND
8
OUTLINE
0
POLYLINE
8
SHAKER_PANEL_POCKET
66
1
70
1
10
0
20
0
30
0
0
VERTEX
8
SHAKER_PANEL_POCKET
10
1454.22
20
2090
30
0
0
VERTEX
8
SHAKER_PANEL_POCKET
10
1781.22
20
2090
30
0
0
VERTEX
8
SHAKER_PANEL_POCKET
10
1781.22
20
60
30
0
0
VERTEX
8
SHAKER_PANEL_POCKET
10
1454.22
20
60
30
0
0
SEQEND
8
SHAKER_PANEL_POCKET
0
CIRCLE
8
FRONT_HINGES_35MM
10
1819.72
20
100
30
0
40
17.5
0
CIRCLE
8
FRONT_HINGES_3MM
10
1810.22
20
123
30
0
40
1.5
0
CIRCLE
8
FRONT_HINGES_3MM
10
1810.22
20
77
30
0
40
1.5
0
CIRCLE
8
FRONT_HINGES_35MM
10
1819.72
20
490
30
0
40
17.5
0
CIRCLE
8
FRONT_HINGES_3MM
10
1810.22
20
513
30
0
40
1.5
0
CIRCLE
8
FRONT_HINGES_3MM
10
1810.22
20
467
30
0
40
1.5
0
CIRCLE
8
FRONT_HINGES_35MM
10
1819.72
20
880
30
0
40
17.5
0
CIRCLE
8
FRONT_HINGES_3MM
10
1810.22
20
903
30
0
40
1.5
0
CIRCLE
8
FRONT_HINGES_3MM
10
1810.22
20
857
30
0
40
1.5
0
CIRCLE
8
FRONT_HINGES_35MM
10
1819.72
20
1270
30
0
40
17.5
0
CIRCLE
8
FRONT_HINGES_3MM
10
1810.22
20
1293
30
0
40
1.5
0
CIRCLE
8
FRONT_HINGES_3MM
10
1810.22
20
1247
30
0
40
1.5
0
CIRCLE
8
FRONT_HINGES_35MM
10
1819.72
20
1660
30
0
40
17.5
0
CIRCLE
8
FRONT_HINGES_3MM
10
1810.22
20
1683
30
0
40
1.5
0
CIRCLE
8
FRONT_HINGES_3MM
10
1810.22
20
1637
30
0
40
1.5
0
CIRCLE
8
FRONT_HINGES_35MM
10
1819.72
20
2050
30
0
40
17.5
0
CIRCLE
8
FRONT_HINGES_3MM
10
1810.22
20
2073
30
0
40
1.5
0
CIRCLE
8
FRONT_HINGES_3MM
10
1810.22
20
2027
30
0
40
1.5
0
TEXT
8
UNIT_NUMBER
10
1617.72
20
1087.5
30
0
40
20
1
W02 FL
72
1
11
1617.72
21
1087.5
31
0
73
2
0
TEXT
8
UNIT_NUMBER
10
1617.72
20
1062.5
30
0
40
20
1
447x2150
72
1
11
1617.72
21
1062.5
31
0
73
2
0
POLYLINE
8
OUTLINE
66
1
70
1
10
0
20
0
30
0
0
VERTEX
8
OUTLINE
10
1891.22
20
0
30
0
0
VERTEX
8
OUTLINE
10
2338.22
20
0
30
0
0
VERTEX
8
OUTLINE
10
2338.22
20
2150
30
0
0
VERTEX
8
OUTLINE
10
1891.22
20
2150
30
0
0
SEQEND
8
OUTLINE
0
POLYLINE
8
SHAKER_PANEL_POCKET
66
1
70
1
10
0
20
0
30
0
0
VERTEX
8
SHAKER_PANEL_POCKET
10
1951.22
20
2090
30
0
0
VERTEX
8
SHAKER_PANEL_POCKET
10
2278.22
20
2090
30
0
0
VERTEX
8
SHAKER_PANEL_POCKET
10
2278.22
20
60
30
0
0
VERTEX
8
SHAKER_PANEL_POCKET
10
1951.22
20
60
30
0
0
SEQEND
8
SHAKER_PANEL_POCKET
0
CIRCLE
8
FRONT_HINGES_35MM
10
1912.72
20
100
30
0
40
17.5
0
CIRCLE
8
FRONT_HINGES_3MM
10
1922.22
20
123
30
0
40
1.5
0
CIRCLE
8
FRONT_HINGES_3MM
10
1922.22
20
77
30
0
40
1.5
0
CIRCLE
8
FRONT_HINGES_35MM
10
1912.72
20
490
30
0
40
17.5
0
CIRCLE
8
FRONT_HINGES_3MM
10
1922.22
20
513
30
0
40
1.5
0
CIRCLE
8
FRONT_HINGES_3MM
10
1922.22
20
467
30
0
40
1.5
0
CIRCLE
8
FRONT_HINGES_35MM
10
1912.72
20
880
30
0
40
17.5
0
CIRCLE
8
FRONT_HINGES_3MM
10
1922.22
20
903
30
0
40
1.5
0
CIRCLE
8
FRONT_HINGES_3MM
10
1922.22
20
857
30
0
40
1.5
0
CIRCLE
8
FRONT_HINGES_35MM
10
1912.72
20
1270
30
0
40
17.5
0
CIRCLE
8
FRONT_HINGES_3MM
10
1922.22
20
1293
30
0
40
1.5
0
CIRCLE
8
FRONT_HINGES_3MM
10
1922.22
20
1247
30
0
40
1.5
0
CIRCLE
8
FRONT_HINGES_35MM
10
1912.72
20
1660
30
0
40
17.5
0
CIRCLE
8
FRONT_HINGES_3MM
10
1922.22
20
1683
30
0
40
1.5
0
CIRCLE
8
FRONT_HINGES_3MM
10
1922.22
20
1637
30
0
40
1.5
0
CIRCLE
8
FRONT_HINGES_35MM
10
1912.72
20
2050
30
0
40
17.5
0
CIRCLE
8
FRONT_HINGES_3MM
10
1922.22
20
2073
30
0
40
1.5
0
CIRCLE
8
FRONT_HINGES_3MM
10
1922.22
20
2027
30
0
40
1.5
0
TEXT
8
UNIT_NUMBER
10
2114.72
20
1087.5
30
0
40
20
1
W02 FR
72
1
11
2114.72
21
1087.5
31
0
73
2
0
TEXT
8
UNIT_NUMBER
10
2114.72
20
1062.5
30
0
40
20
1
447x2150
72
1
11
2114.72
21
1062.5
31
0
73
2
0
ENDSEC
0
EOF
