0
SECTION
2
HEADER
9
$ACADVER
1
AC1009
9
$INSBASE
10
0
20
0
30
0
9
$EXTMIN
10
0
20
0
30
0
9
$EXTMAX
10
144
20
518
30
0
0
ENDSEC
0
SECTION
2
TABLES
0
TABLE
2
LAYER
70
4
0
LAYER
2
0
70
0
62
7
6
CONTINUOUS
0
LAYER
2
OUTLINE
70
0
62
7
6
CONTINUOUS
0
LAYER
2
SCREWS_3MM
70
0
62
4
6
CONTINUOUS
0
LAYER
2
UNIT_NUMBER
70
0
62
94
6
CONTINUOUS
0
ENDTAB
0
ENDSEC
0
SECTION
2
ENTITIES
0
POLYLINE
8
OUTLINE
66
1
70
1
10
0
20
0
30
0
0
VERTEX
8
OUTLINE
10
0
20
0
30
0
0
VERTEX
8
OUTLINE
10
144
20
0
30
0
0
VERTEX
8
OUTLINE
10
144
20
518
30
0
0
VERTEX
8
OUTLINE
10
0
20
518
30
0
0
SEQEND
8
OUTLINE
0
CIRCLE
8
SCREWS_3MM
10
50
20
50
30
0
40
1.5
0
CIRCLE
8
SCREWS_3MM
10
50
20
468
30
0
40
1.5
0
TEXT
8
UNIT_NUMBER
10
72
20
271.857143
30
0
40
10.285714
1
DR01
72
1
11
72
21
271.857143
31
0
73
2
0
TEXT
8
UNIT_NUMBER
10
72
20
259
30
0
40
10.285714
1
D2-BF
72
1
11
72
21
259
31
0
73
2
0
TEXT
8
UNIT_NUMBER
10
72
20
246.142857
30
0
40
10.285714
1
518x144
72
1
11
72
21
246.142857
31
0
73
2
0
ENDSEC
0
EOF
