0
SECTION
2
HEADER
9
$ACADVER
1
AC1009
9
$INSBASE
10
0
20
0
30
0
9
$EXTMIN
10
0
20
-10
30
0
9
$EXTMAX
10
118
20
500
30
0
0
ENDSEC
0
SECTION
2
TABLES
0
TABLE
2
LAYER
70
5
0
LAYER
2
0
70
0
62
7
6
CONTINUOUS
0
LAYER
2
OUTLINE
70
0
62
7
6
CONTINUOUS
0
LAYER
2
UNIT_NUMBER
70
0
62
94
6
CONTINUOUS
0
LAYER
2
DRAWER_RUNNER_POCKET
70
0
62
1
6
CONTINUOUS
0
LAYER
2
DRAWER_BOTTOM_POCKET
70
0
62
2
6
CONTINUOUS
0
ENDTAB
0
ENDSEC
0
SECTION
2
ENTITIES
0
POLYLINE
8
OUTLINE
66
1
70
1
10
0
20
0
30
0
0
VERTEX
8
OUTLINE
10
0
20
0
30
0
0
VERTEX
8
OUTLINE
10
118
20
0
30
0
0
VERTEX
8
OUTLINE
10
118
20
490
30
0
0
VERTEX
8
OUTLINE
10
0
20
490
30
0
0
SEQEND
8
OUTLINE
0
POLYLINE
8
DRAWER_RUNNER_POCKET
66
1
70
1
10
0
20
0
30
0
0
VERTEX
8
DRAWER_RUNNER_POCKET
10
0
20
-10
30
0
0
VERTEX
8
DRAWER_RUNNER_POCKET
10
15
20
-10
30
0
0
VERTEX
8
DRAWER_RUNNER_POCKET
10
15
20
500
30
0
0
VERTEX
8
DRAWER_RUNNER_POCKET
10
0
20
500
30
0
0
SEQEND
8
DRAWER_RUNNER_POCKET
0
POLYLINE
8
DRAWER_BOTTOM_POCKET
66
1
70
1
10
0
20
0
30
0
0
VERTEX
8
DRAWER_BOTTOM_POCKET
10
15
20
-10
30
0
0
VERTEX
8
DRAWER_BOTTOM_POCKET
10
34
20
-10
30
0
0
VERTEX
8
DRAWER_BOTTOM_POCKET
10
34
20
500
30
0
0
VERTEX
8
DRAWER_BOTTOM_POCKET
10
15
20
500
30
0
0
SEQEND
8
DRAWER_BOTTOM_POCKET
0
TEXT
8
UNIT_NUMBER
10
59
20
255.535714
30
0
40
8.428571
1
DR01
72
1
11
59
21
255.535714
31
0
73
2
0
TEXT
8
UNIT_NUMBER
10
59
20
245
30
0
40
8.428571
1
D3-SR
72
1
11
59
21
245
31
0
73
2
0
TEXT
8
UNIT_NUMBER
10
59
20
234.464286
30
0
40
8.428571
1
490x118
72
1
11
59
21
234.464286
31
0
73
2
0
ENDSEC
0
EOF
