0
SECTION
2
HEADER
9
$ACADVER
1
AC1009
9
$INSBASE
10
0
20
0
30
0
9
$EXTMIN
10
0
20
0
30
0
9
$EXTMAX
10
3331
20
2010
30
0
0
ENDSEC
0
SECTION
2
TABLES
0
TABLE
2
LAYER
70
12
0
LAYER
2
0
70
0
62
7
6
CONTINUOUS
0
LAYER
2
OUTLINE
70
0
62
7
6
CONTINUOUS
0
LAYER
2
PUZZLE_SOCKET
70
0
62
1
6
CONTINUOUS
0
LAYER
2
PUZZLE_DOG_BONES
70
0
62
2
6
CONTINUOUS
0
LAYER
2
PUZZLE_HOLES_7_5MM
70
0
62
3
6
CONTINUOUS
0
LAYER
2
SCREWS_3MM
70
0
62
4
6
CONTINUOUS
0
LAYER
2
SHAKER_PANEL_POCKET
70
0
62
41
6
CONTINUOUS
0
LAYER
2
RUNNERS_3MM
70
0
62
5
6
CONTINUOUS
0
LAYER
2
FRONT_HINGES_3MM
70
0
62
30
6
CONTINUOUS
0
LAYER
2
UNIT_NUMBER
70
0
62
94
6
CONTINUOUS
0
LAYER
2
DRAWER_RUNNER_POCKET
70
0
62
1
6
CONTINUOUS
0
LAYER
2
DRAWER_BOTTOM_POCKET
70
0
62
2
6
CONTINUOUS
0
ENDTAB
0
ENDSEC
0
SECTION
2
ENTITIES
0
POLYLINE
8
OUTLINE
66
1
70
1
10
0
20
0
30
0
0
VERTEX
8
OUTLINE
10
0
20
1234
30
0
0
VERTEX
8
OUTLINE
10
540
20
1234
30
0
0
VERTEX
8
OUTLINE
10
540
20
1304
30
0
0
VERTEX
8
OUTLINE
10
540
20
1310
30
0
0
VERTEX
8
OUTLINE
10
553
20
1310
30
0
0
VERTEX
8
OUTLINE
10
553
20
1304
30
0
0
VERTEX
8
OUTLINE
10
558
20
1304
30
0
0
VERTEX
8
OUTLINE
10
558
20
1354
30
0
0
VERTEX
8
OUTLINE
10
553
20
1354
30
0
0
VERTEX
8
OUTLINE
10
553
20
1348
30
0
0
VERTEX
8
OUTLINE
10
540
20
1348
30
0
0
VERTEX
8
OUTLINE
10
540
20
1354
30
0
0
VERTEX
8
OUTLINE
10
540
20
1594
30
0
0
VERTEX
8
OUTLINE
10
540
20
1600
30
0
0
VERTEX
8
OUTLINE
10
553
20
1600
30
0
0
VERTEX
8
OUTLINE
10
553
20
1594
30
0
0
VERTEX
8
OUTLINE
10
558
20
1594
30
0
0
VERTEX
8
OUTLINE
10
558
20
1644
30
0
0
VERTEX
8
OUTLINE
10
553
20
1644
30
0
0
VERTEX
8
OUTLINE
10
553
20
1638
30
0
0
VERTEX
8
OUTLINE
10
540
20
1638
30
0
0
VERTEX
8
OUTLINE
10
540
20
1644
30
0
0
VERTEX
8
OUTLINE
10
540
20
1884
30
0
0
VERTEX
8
OUTLINE
10
540
20
1890
30
0
0
VERTEX
8
OUTLINE
10
553
20
1890
30
0
0
VERTEX
8
OUTLINE
10
553
20
1884
30
0
0
VERTEX
8
OUTLINE
10
558
20
1884
30
0
0
VERTEX
8
OUTLINE
10
558
20
1934
30
0
0
VERTEX
8
OUTLINE
10
553
20
1934
30
0
0
VERTEX
8
OUTLINE
10
553
20
1928
30
0
0
VERTEX
8
OUTLINE
10
540
20
1928
30
0
0
VERTEX
8
OUTLINE
10
540
20
1934
30
0
0
VERTEX
8
OUTLINE
10
540
20
2004
30
0
0
VERTEX
8
OUTLINE
10
0
20
2004
30
0
0
SEQEND
8
OUTLINE
0
POLYLINE
8
PUZZLE_DOG_BONES
66
1
70
1
10
0
20
0
30
0
0
VERTEX
8
PUZZLE_DOG_BONES
10
540
20
1299
30
0
0
VERTEX
8
PUZZLE_DOG_BONES
10
558
20
1299
30
0
0
VERTEX
8
PUZZLE_DOG_BONES
10
558
20
1359
30
0
0
VERTEX
8
PUZZLE_DOG_BONES
10
540
20
1359
30
0
0
SEQEND
8
PUZZLE_DOG_BONES
0
POLYLINE
8
PUZZLE_DOG_BONES
66
1
70
1
10
0
20
0
30
0
0
VERTEX
8
PUZZLE_DOG_BONES
10
540
20
1589
30
0
0
VERTEX
8
PUZZLE_DOG_BONES
10
558
20
1589
30
0
0
VERTEX
8
PUZZLE_DOG_BONES
10
558
20
1649
30
0
0
VERTEX
8
PUZZLE_DOG_BONES
10
540
20
1649
30
0
0
SEQEND
8
PUZZLE_DOG_BONES
0
POLYLINE
8
PUZZLE_DOG_BONES
66
1
70
1
10
0
20
0
30
0
0
VERTEX
8
PUZZLE_DOG_BONES
10
540
20
1879
30
0
0
VERTEX
8
PUZZLE_DOG_BONES
10
558
20
1879
30
0
0
VERTEX
8
PUZZLE_DOG_BONES
10
558
20
1939
30
0
0
VERTEX
8
PUZZLE_DOG_BONES
10
540
20
1939
30
0
0
SEQEND
8
PUZZLE_DOG_BONES
0
POLYLINE
8
PUZZLE_SOCKET
66
1
70
1
10
0
20
0
30
0
0
VERTEX
8
PUZZLE_SOCKET
10
69.5
20
1995
30
0
0
VERTEX
8
PUZZLE_SOCKET
10
120.5
20
1995
30
0
0
VERTEX
8
PUZZLE_SOCKET
10
120.5
20
2010
30
0
0
VERTEX
8
PUZZLE_SOCKET
10
69.5
20
2010
30
0
0
SEQEND
8
PUZZLE_SOCKET
0
POLYLINE
8
PUZZLE_SOCKET
66
1
70
1
10
0
20
0
30
0
0
VERTEX
8
PUZZLE_SOCKET
10
69.5
20
1228
30
0
0
VERTEX
8
PUZZLE_SOCKET
10
120.5
20
1228
30
0
0
VERTEX
8
PUZZLE_SOCKET
10
120.5
20
1243
30
0
0
VERTEX
8
PUZZLE_SOCKET
10
69.5
20
1243
30
0
0
SEQEND
8
PUZZLE_SOCKET
0
POLYLINE
8
PUZZLE_SOCKET
66
1
70
1
10
0
20
0
30
0
0
VERTEX
8
PUZZLE_SOCKET
10
419.5
20
1995
30
0
0
VERTEX
8
PUZZLE_SOCKET
10
470.5
20
1995
30
0
0
VERTEX
8
PUZZLE_SOCKET
10
470.5
20
2010
30
0
0
VERTEX
8
PUZZLE_SOCKET
10
419.5
20
2010
30
0
0
SEQEND
8
PUZZLE_SOCKET
0
POLYLINE
8
PUZZLE_SOCKET
66
1
70
1
10
0
20
0
30
0
0
VERTEX
8
PUZZLE_SOCKET
10
419.5
20
1228
30
0
0
VERTEX
8
PUZZLE_SOCKET
10
470.5
20
1228
30
0
0
VERTEX
8
PUZZLE_SOCKET
10
470.5
20
1243
30
0
0
VERTEX
8
PUZZLE_SOCKET
10
419.5
20
1243
30
0
0
SEQEND
8
PUZZLE_SOCKET
0
CIRCLE
8
PUZZLE_HOLES_7_5MM
10
70.5
20
1996
30
0
40
3.75
0
CIRCLE
8
PUZZLE_HOLES_7_5MM
10
119.5
20
1996
30
0
40
3.75
0
CIRCLE
8
PUZZLE_HOLES_7_5MM
10
70.5
20
1242
30
0
40
3.75
0
CIRCLE
8
PUZZLE_HOLES_7_5MM
10
119.5
20
1242
30
0
40
3.75
0
CIRCLE
8
PUZZLE_HOLES_7_5MM
10
420.5
20
1996
30
0
40
3.75
0
CIRCLE
8
PUZZLE_HOLES_7_5MM
10
469.5
20
1996
30
0
40
3.75
0
CIRCLE
8
PUZZLE_HOLES_7_5MM
10
420.5
20
1242
30
0
40
3.75
0
CIRCLE
8
PUZZLE_HOLES_7_5MM
10
469.5
20
1242
30
0
40
3.75
0
CIRCLE
8
SCREWS_3MM
10
50
20
1995
30
0
40
1.5
0
CIRCLE
8
SCREWS_3MM
10
50
20
1243
30
0
40
1.5
0
CIRCLE
8
SCREWS_3MM
10
270
20
1995
30
0
40
1.5
0
CIRCLE
8
SCREWS_3MM
10
270
20
1243
30
0
40
1.5
0
CIRCLE
8
SCREWS_3MM
10
490
20
1995
30
0
40
1.5
0
CIRCLE
8
SCREWS_3MM
10
490
20
1243
30
0
40
1.5
0
CIRCLE
8
RUNNERS_3MM
10
37
20
1290
30
0
40
1.5
0
CIRCLE
8
RUNNERS_3MM
10
69
20
1290
30
0
40
1.5
0
CIRCLE
8
RUNNERS_3MM
10
293
20
1290
30
0
40
1.5
0
CIRCLE
8
RUNNERS_3MM
10
37
20
1613
30
0
40
1.5
0
CIRCLE
8
RUNNERS_3MM
10
69
20
1613
30
0
40
1.5
0
CIRCLE
8
RUNNERS_3MM
10
293
20
1613
30
0
40
1.5
0
CIRCLE
8
RUNNERS_3MM
10
37
20
1870
30
0
40
1.5
0
CIRCLE
8
RUNNERS_3MM
10
69
20
1870
30
0
40
1.5
0
CIRCLE
8
RUNNERS_3MM
10
293
20
1870
30
0
40
1.5
0
TEXT
8
UNIT_NUMBER
10
270
20
1644
30
0
40
20
1
DR01
72
1
11
270
21
1644
31
0
73
2
0
TEXT
8
UNIT_NUMBER
10
270
20
1619
30
0
40
20
1
BUL
72
1
11
270
21
1619
31
0
73
2
0
TEXT
8
UNIT_NUMBER
10
270
20
1594
30
0
40
20
1
540x770
72
1
11
270
21
1594
31
0
73
2
0
POLYLINE
8
OUTLINE
66
1
70
1
10
0
20
0
30
0
0
VERTEX
8
OUTLINE
10
626
20
1234
30
0
0
VERTEX
8
OUTLINE
10
1166
20
1234
30
0
0
VERTEX
8
OUTLINE
10
1166
20
2004
30
0
0
VERTEX
8
OUTLINE
10
626
20
2004
30
0
0
VERTEX
8
OUTLINE
10
626
20
1934
30
0
0
VERTEX
8
OUTLINE
10
626
20
1928
30
0
0
VERTEX
8
OUTLINE
10
613
20
1928
30
0
0
VERTEX
8
OUTLINE
10
613
20
1934
30
0
0
VERTEX
8
OUTLINE
10
608
20
1934
30
0
0
VERTEX
8
OUTLINE
10
608
20
1884
30
0
0
VERTEX
8
OUTLINE
10
613
20
1884
30
0
0
VERTEX
8
OUTLINE
10
613
20
1890
30
0
0
VERTEX
8
OUTLINE
10
626
20
1890
30
0
0
VERTEX
8
OUTLINE
10
626
20
1884
30
0
0
VERTEX
8
OUTLINE
10
626
20
1644
30
0
0
VERTEX
8
OUTLINE
10
626
20
1638
30
0
0
VERTEX
8
OUTLINE
10
613
20
1638
30
0
0
VERTEX
8
OUTLINE
10
613
20
1644
30
0
0
VERTEX
8
OUTLINE
10
608
20
1644
30
0
0
VERTEX
8
OUTLINE
10
608
20
1594
30
0
0
VERTEX
8
OUTLINE
10
613
20
1594
30
0
0
VERTEX
8
OUTLINE
10
613
20
1600
30
0
0
VERTEX
8
OUTLINE
10
626
20
1600
30
0
0
VERTEX
8
OUTLINE
10
626
20
1594
30
0
0
VERTEX
8
OUTLINE
10
626
20
1354
30
0
0
VERTEX
8
OUTLINE
10
626
20
1348
30
0
0
VERTEX
8
OUTLINE
10
613
20
1348
30
0
0
VERTEX
8
OUTLINE
10
613
20
1354
30
0
0
VERTEX
8
OUTLINE
10
608
20
1354
30
0
0
VERTEX
8
OUTLINE
10
608
20
1304
30
0
0
VERTEX
8
OUTLINE
10
613
20
1304
30
0
0
VERTEX
8
OUTLINE
10
613
20
1310
30
0
0
VERTEX
8
OUTLINE
10
626
20
1310
30
0
0
VERTEX
8
OUTLINE
10
626
20
1304
30
0
0
SEQEND
8
OUTLINE
0
POLYLINE
8
PUZZLE_DOG_BONES
66
1
70
1
10
0
20
0
30
0
0
VERTEX
8
PUZZLE_DOG_BONES
10
608
20
1299
30
0
0
VERTEX
8
PUZZLE_DOG_BONES
10
626
20
1299
30
0
0
VERTEX
8
PUZZLE_DOG_BONES
10
626
20
1359
30
0
0
VERTEX
8
PUZZLE_DOG_BONES
10
608
20
1359
30
0
0
SEQEND
8
PUZZLE_DOG_BONES
0
POLYLINE
8
PUZZLE_DOG_BONES
66
1
70
1
10
0
20
0
30
0
0
VERTEX
8
PUZZLE_DOG_BONES
10
608
20
1589
30
0
0
VERTEX
8
PUZZLE_DOG_BONES
10
626
20
1589
30
0
0
VERTEX
8
PUZZLE_DOG_BONES
10
626
20
1649
30
0
0
VERTEX
8
PUZZLE_DOG_BONES
10
608
20
1649
30
0
0
SEQEND
8
PUZZLE_DOG_BONES
0
POLYLINE
8
PUZZLE_DOG_BONES
66
1
70
1
10
0
20
0
30
0
0
VERTEX
8
PUZZLE_DOG_BONES
10
608
20
1879
30
0
0
VERTEX
8
PUZZLE_DOG_BONES
10
626
20
1879
30
0
0
VERTEX
8
PUZZLE_DOG_BONES
10
626
20
1939
30
0
0
VERTEX
8
PUZZLE_DOG_BONES
10
608
20
1939
30
0
0
SEQEND
8
PUZZLE_DOG_BONES
0
POLYLINE
8
PUZZLE_SOCKET
66
1
70
1
10
0
20
0
30
0
0
VERTEX
8
PUZZLE_SOCKET
10
695.5
20
1995
30
0
0
VERTEX
8
PUZZLE_SOCKET
10
746.5
20
1995
30
0
0
VERTEX
8
PUZZLE_SOCKET
10
746.5
20
2010
30
0
0
VERTEX
8
PUZZLE_SOCKET
10
695.5
20
2010
30
0
0
SEQEND
8
PUZZLE_SOCKET
0
POLYLINE
8
PUZZLE_SOCKET
66
1
70
1
10
0
20
0
30
0
0
VERTEX
8
PUZZLE_SOCKET
10
695.5
20
1228
30
0
0
VERTEX
8
PUZZLE_SOCKET
10
746.5
20
1228
30
0
0
VERTEX
8
PUZZLE_SOCKET
10
746.5
20
1243
30
0
0
VERTEX
8
PUZZLE_SOCKET
10
695.5
20
1243
30
0
0
SEQEND
8
PUZZLE_SOCKET
0
POLYLINE
8
PUZZLE_SOCKET
66
1
70
1
10
0
20
0
30
0
0
VERTEX
8
PUZZLE_SOCKET
10
1045.5
20
1995
30
0
0
VERTEX
8
PUZZLE_SOCKET
10
1096.5
20
1995
30
0
0
VERTEX
8
PUZZLE_SOCKET
10
1096.5
20
2010
30
0
0
VERTEX
8
PUZZLE_SOCKET
10
1045.5
20
2010
30
0
0
SEQEND
8
PUZZLE_SOCKET
0
POLYLINE
8
PUZZLE_SOCKET
66
1
70
1
10
0
20
0
30
0
0
VERTEX
8
PUZZLE_SOCKET
10
1045.5
20
1228
30
0
0
VERTEX
8
PUZZLE_SOCKET
10
1096.5
20
1228
30
0
0
VERTEX
8
PUZZLE_SOCKET
10
1096.5
20
1243
30
0
0
VERTEX
8
PUZZLE_SOCKET
10
1045.5
20
1243
30
0
0
SEQEND
8
PUZZLE_SOCKET
0
CIRCLE
8
PUZZLE_HOLES_7_5MM
10
696.5
20
1996
30
0
40
3.75
0
CIRCLE
8
PUZZLE_HOLES_7_5MM
10
745.5
20
1996
30
0
40
3.75
0
CIRCLE
8
PUZZLE_HOLES_7_5MM
10
696.5
20
1242
30
0
40
3.75
0
CIRCLE
8
PUZZLE_HOLES_7_5MM
10
745.5
20
1242
30
0
40
3.75
0
CIRCLE
8
PUZZLE_HOLES_7_5MM
10
1046.5
20
1996
30
0
40
3.75
0
CIRCLE
8
PUZZLE_HOLES_7_5MM
10
1095.5
20
1996
30
0
40
3.75
0
CIRCLE
8
PUZZLE_HOLES_7_5MM
10
1046.5
20
1242
30
0
40
3.75
0
CIRCLE
8
PUZZLE_HOLES_7_5MM
10
1095.5
20
1242
30
0
40
3.75
0
CIRCLE
8
SCREWS_3MM
10
676
20
1995
30
0
40
1.5
0
CIRCLE
8
SCREWS_3MM
10
676
20
1243
30
0
40
1.5
0
CIRCLE
8
SCREWS_3MM
10
896
20
1995
30
0
40
1.5
0
CIRCLE
8
SCREWS_3MM
10
896
20
1243
30
0
40
1.5
0
CIRCLE
8
SCREWS_3MM
10
1116
20
1995
30
0
40
1.5
0
CIRCLE
8
SCREWS_3MM
10
1116
20
1243
30
0
40
1.5
0
CIRCLE
8
RUNNERS_3MM
10
1129
20
1290
30
0
40
1.5
0
CIRCLE
8
RUNNERS_3MM
10
1097
20
1290
30
0
40
1.5
0
CIRCLE
8
RUNNERS_3MM
10
873
20
1290
30
0
40
1.5
0
CIRCLE
8
RUNNERS_3MM
10
1129
20
1613
30
0
40
1.5
0
CIRCLE
8
RUNNERS_3MM
10
1097
20
1613
30
0
40
1.5
0
CIRCLE
8
RUNNERS_3MM
10
873
20
1613
30
0
40
1.5
0
CIRCLE
8
RUNNERS_3MM
10
1129
20
1870
30
0
40
1.5
0
CIRCLE
8
RUNNERS_3MM
10
1097
20
1870
30
0
40
1.5
0
CIRCLE
8
RUNNERS_3MM
10
873
20
1870
30
0
40
1.5
0
TEXT
8
UNIT_NUMBER
10
896
20
1644
30
0
40
20
1
DR01
72
1
11
896
21
1644
31
0
73
2
0
TEXT
8
UNIT_NUMBER
10
896
20
1619
30
0
40
20
1
BUR
72
1
11
896
21
1619
31
0
73
2
0
TEXT
8
UNIT_NUMBER
10
896
20
1594
30
0
40
20
1
540x770
72
1
11
896
21
1594
31
0
73
2
0
POLYLINE
8
OUTLINE
66
1
70
1
10
0
20
0
30
0
0
VERTEX
8
OUTLINE
10
1234
20
1428
30
0
0
VERTEX
8
OUTLINE
10
1304
20
1428
30
0
0
VERTEX
8
OUTLINE
10
1310
20
1428
30
0
0
VERTEX
8
OUTLINE
10
1310
20
1415
30
0
0
VERTEX
8
OUTLINE
10
1304
20
1415
30
0
0
VERTEX
8
OUTLINE
10
1304
20
1410
30
0
0
VERTEX
8
OUTLINE
10
1354
20
1410
30
0
0
VERTEX
8
OUTLINE
10
1354
20
1415
30
0
0
VERTEX
8
OUTLINE
10
1348
20
1415
30
0
0
VERTEX
8
OUTLINE
10
1348
20
1428
30
0
0
VERTEX
8
OUTLINE
10
1354
20
1428
30
0
0
VERTEX
8
OUTLINE
10
1654
20
1428
30
0
0
VERTEX
8
OUTLINE
10
1660
20
1428
30
0
0
VERTEX
8
OUTLINE
10
1660
20
1415
30
0
0
VERTEX
8
OUTLINE
10
1654
20
1415
30
0
0
VERTEX
8
OUTLINE
10
1654
20
1410
30
0
0
VERTEX
8
OUTLINE
10
1704
20
1410
30
0
0
VERTEX
8
OUTLINE
10
1704
20
1415
30
0
0
VERTEX
8
OUTLINE
10
1698
20
1415
30
0
0
VERTEX
8
OUTLINE
10
1698
20
1428
30
0
0
VERTEX
8
OUTLINE
10
1704
20
1428
30
0
0
VERTEX
8
OUTLINE
10
1774
20
1428
30
0
0
VERTEX
8
OUTLINE
10
1774
20
1992
30
0
0
VERTEX
8
OUTLINE
10
1704
20
1992
30
0
0
VERTEX
8
OUTLINE
10
1698
20
1992
30
0
0
VERTEX
8
OUTLINE
10
1698
20
2005
30
0
0
VERTEX
8
OUTLINE
10
1704
20
2005
30
0
0
VERTEX
8
OUTLINE
10
1704
20
2010
30
0
0
VERTEX
8
OUTLINE
10
1654
20
2010
30
0
0
VERTEX
8
OUTLINE
10
1654
20
2005
30
0
0
VERTEX
8
OUTLINE
10
1660
20
2005
30
0
0
VERTEX
8
OUTLINE
10
1660
20
1992
30
0
0
VERTEX
8
OUTLINE
10
1654
20
1992
30
0
0
VERTEX
8
OUTLINE
10
1354
20
1992
30
0
0
VERTEX
8
OUTLINE
10
1348
20
1992
30
0
0
VERTEX
8
OUTLINE
10
1348
20
2005
30
0
0
VERTEX
8
OUTLINE
10
1354
20
2005
30
0
0
VERTEX
8
OUTLINE
10
1354
20
2010
30
0
0
VERTEX
8
OUTLINE
10
1304
20
2010
30
0
0
VERTEX
8
OUTLINE
10
1304
20
2005
30
0
0
VERTEX
8
OUTLINE
10
1310
20
2005
30
0
0
VERTEX
8
OUTLINE
10
1310
20
1992
30
0
0
VERTEX
8
OUTLINE
10
1304
20
1992
30
0
0
VERTEX
8
OUTLINE
10
1234
20
1992
30
0
0
VERTEX
8
OUTLINE
10
1234
20
1922
30
0
0
VERTEX
8
OUTLINE
10
1234
20
1916
30
0
0
VERTEX
8
OUTLINE
10
1221
20
1916
30
0
0
VERTEX
8
OUTLINE
10
1221
20
1922
30
0
0
VERTEX
8
OUTLINE
10
1216
20
1922
30
0
0
VERTEX
8
OUTLINE
10
1216
20
1872
30
0
0
VERTEX
8
OUTLINE
10
1221
20
1872
30
0
0
VERTEX
8
OUTLINE
10
1221
20
1878
30
0
0
VERTEX
8
OUTLINE
10
1234
20
1878
30
0
0
VERTEX
8
OUTLINE
10
1234
20
1872
30
0
0
VERTEX
8
OUTLINE
10
1234
20
1548
30
0
0
VERTEX
8
OUTLINE
10
1234
20
1542
30
0
0
VERTEX
8
OUTLINE
10
1221
20
1542
30
0
0
VERTEX
8
OUTLINE
10
1221
20
1548
30
0
0
VERTEX
8
OUTLINE
10
1216
20
1548
30
0
0
VERTEX
8
OUTLINE
10
1216
20
1498
30
0
0
VERTEX
8
OUTLINE
10
1221
20
1498
30
0
0
VERTEX
8
OUTLINE
10
1221
20
1504
30
0
0
VERTEX
8
OUTLINE
10
1234
20
1504
30
0
0
VERTEX
8
OUTLINE
10
1234
20
1498
30
0
0
SEQEND
8
OUTLINE
0
POLYLINE
8
PUZZLE_DOG_BONES
66
1
70
1
10
0
20
0
30
0
0
VERTEX
8
PUZZLE_DOG_BONES
10
1299
20
1992
30
0
0
VERTEX
8
PUZZLE_DOG_BONES
10
1359
20
1992
30
0
0
VERTEX
8
PUZZLE_DOG_BONES
10
1359
20
2010
30
0
0
VERTEX
8
PUZZLE_DOG_BONES
10
1299
20
2010
30
0
0
SEQEND
8
PUZZLE_DOG_BONES
0
POLYLINE
8
PUZZLE_DOG_BONES
66
1
70
1
10
0
20
0
30
0
0
VERTEX
8
PUZZLE_DOG_BONES
10
1299
20
1410
30
0
0
VERTEX
8
PUZZLE_DOG_BONES
10
1359
20
1410
30
0
0
VERTEX
8
PUZZLE_DOG_BONES
10
1359
20
1428
30
0
0
VERTEX
8
PUZZLE_DOG_BONES
10
1299
20
1428
30
0
0
SEQEND
8
PUZZLE_DOG_BONES
0
POLYLINE
8
PUZZLE_DOG_BONES
66
1
70
1
10
0
20
0
30
0
0
VERTEX
8
PUZZLE_DOG_BONES
10
1649
20
1992
30
0
0
VERTEX
8
PUZZLE_DOG_BONES
10
1709
20
1992
30
0
0
VERTEX
8
PUZZLE_DOG_BONES
10
1709
20
2010
30
0
0
VERTEX
8
PUZZLE_DOG_BONES
10
1649
20
2010
30
0
0
SEQEND
8
PUZZLE_DOG_BONES
0
POLYLINE
8
PUZZLE_DOG_BONES
66
1
70
1
10
0
20
0
30
0
0
VERTEX
8
PUZZLE_DOG_BONES
10
1649
20
1410
30
0
0
VERTEX
8
PUZZLE_DOG_BONES
10
1709
20
1410
30
0
0
VERTEX
8
PUZZLE_DOG_BONES
10
1709
20
1428
30
0
0
VERTEX
8
PUZZLE_DOG_BONES
10
1649
20
1428
30
0
0
SEQEND
8
PUZZLE_DOG_BONES
0
POLYLINE
8
PUZZLE_DOG_BONES
66
1
70
1
10
0
20
0
30
0
0
VERTEX
8
PUZZLE_DOG_BONES
10
1216
20
1493
30
0
0
VERTEX
8
PUZZLE_DOG_BONES
10
1234
20
1493
30
0
0
VERTEX
8
PUZZLE_DOG_BONES
10
1234
20
1553
30
0
0
VERTEX
8
PUZZLE_DOG_BONES
10
1216
20
1553
30
0
0
SEQEND
8
PUZZLE_DOG_BONES
0
POLYLINE
8
PUZZLE_DOG_BONES
66
1
70
1
10
0
20
0
30
0
0
VERTEX
8
PUZZLE_DOG_BONES
10
1216
20
1867
30
0
0
VERTEX
8
PUZZLE_DOG_BONES
10
1234
20
1867
30
0
0
VERTEX
8
PUZZLE_DOG_BONES
10
1234
20
1927
30
0
0
VERTEX
8
PUZZLE_DOG_BONES
10
1216
20
1927
30
0
0
SEQEND
8
PUZZLE_DOG_BONES
0
TEXT
8
UNIT_NUMBER
10
1504
20
1735
30
0
40
20
1
DR01
72
1
11
1504
21
1735
31
0
73
2
0
TEXT
8
UNIT_NUMBER
10
1504
20
1710
30
0
40
20
1
TOP
72
1
11
1504
21
1710
31
0
73
2
0
TEXT
8
UNIT_NUMBER
10
1504
20
1685
30
0
40
20
1
564x540
72
1
11
1504
21
1685
31
0
73
2
0
POLYLINE
8
OUTLINE
66
1
70
1
10
0
20
0
30
0
0
VERTEX
8
OUTLINE
10
1842
20
1428
30
0
0
VERTEX
8
OUTLINE
10
1912
20
1428
30
0
0
VERTEX
8
OUTLINE
10
1918
20
1428
30
0
0
VERTEX
8
OUTLINE
10
1918
20
1415
30
0
0
VERTEX
8
OUTLINE
10
1912
20
1415
30
0
0
VERTEX
8
OUTLINE
10
1912
20
1410
30
0
0
VERTEX
8
OUTLINE
10
1962
20
1410
30
0
0
VERTEX
8
OUTLINE
10
1962
20
1415
30
0
0
VERTEX
8
OUTLINE
10
1956
20
1415
30
0
0
VERTEX
8
OUTLINE
10
1956
20
1428
30
0
0
VERTEX
8
OUTLINE
10
1962
20
1428
30
0
0
VERTEX
8
OUTLINE
10
2262
20
1428
30
0
0
VERTEX
8
OUTLINE
10
2268
20
1428
30
0
0
VERTEX
8
OUTLINE
10
2268
20
1415
30
0
0
VERTEX
8
OUTLINE
10
2262
20
1415
30
0
0
VERTEX
8
OUTLINE
10
2262
20
1410
30
0
0
VERTEX
8
OUTLINE
10
2312
20
1410
30
0
0
VERTEX
8
OUTLINE
10
2312
20
1415
30
0
0
VERTEX
8
OUTLINE
10
2306
20
1415
30
0
0
VERTEX
8
OUTLINE
10
2306
20
1428
30
0
0
VERTEX
8
OUTLINE
10
2312
20
1428
30
0
0
VERTEX
8
OUTLINE
10
2382
20
1428
30
0
0
VERTEX
8
OUTLINE
10
2382
20
1992
30
0
0
VERTEX
8
OUTLINE
10
2312
20
1992
30
0
0
VERTEX
8
OUTLINE
10
2306
20
1992
30
0
0
VERTEX
8
OUTLINE
10
2306
20
2005
30
0
0
VERTEX
8
OUTLINE
10
2312
20
2005
30
0
0
VERTEX
8
OUTLINE
10
2312
20
2010
30
0
0
VERTEX
8
OUTLINE
10
2262
20
2010
30
0
0
VERTEX
8
OUTLINE
10
2262
20
2005
30
0
0
VERTEX
8
OUTLINE
10
2268
20
2005
30
0
0
VERTEX
8
OUTLINE
10
2268
20
1992
30
0
0
VERTEX
8
OUTLINE
10
2262
20
1992
30
0
0
VERTEX
8
OUTLINE
10
1962
20
1992
30
0
0
VERTEX
8
OUTLINE
10
1956
20
1992
30
0
0
VERTEX
8
OUTLINE
10
1956
20
2005
30
0
0
VERTEX
8
OUTLINE
10
1962
20
2005
30
0
0
VERTEX
8
OUTLINE
10
1962
20
2010
30
0
0
VERTEX
8
OUTLINE
10
1912
20
2010
30
0
0
VERTEX
8
OUTLINE
10
1912
20
2005
30
0
0
VERTEX
8
OUTLINE
10
1918
20
2005
30
0
0
VERTEX
8
OUTLINE
10
1918
20
1992
30
0
0
VERTEX
8
OUTLINE
10
1912
20
1992
30
0
0
VERTEX
8
OUTLINE
10
1842
20
1992
30
0
0
VERTEX
8
OUTLINE
10
1842
20
1922
30
0
0
VERTEX
8
OUTLINE
10
1842
20
1916
30
0
0
VERTEX
8
OUTLINE
10
1829
20
1916
30
0
0
VERTEX
8
OUTLINE
10
1829
20
1922
30
0
0
VERTEX
8
OUTLINE
10
1824
20
1922
30
0
0
VERTEX
8
OUTLINE
10
1824
20
1872
30
0
0
VERTEX
8
OUTLINE
10
1829
20
1872
30
0
0
VERTEX
8
OUTLINE
10
1829
20
1878
30
0
0
VERTEX
8
OUTLINE
10
1842
20
1878
30
0
0
VERTEX
8
OUTLINE
10
1842
20
1872
30
0
0
VERTEX
8
OUTLINE
10
1842
20
1548
30
0
0
VERTEX
8
OUTLINE
10
1842
20
1542
30
0
0
VERTEX
8
OUTLINE
10
1829
20
1542
30
0
0
VERTEX
8
OUTLINE
10
1829
20
1548
30
0
0
VERTEX
8
OUTLINE
10
1824
20
1548
30
0
0
VERTEX
8
OUTLINE
10
1824
20
1498
30
0
0
VERTEX
8
OUTLINE
10
1829
20
1498
30
0
0
VERTEX
8
OUTLINE
10
1829
20
1504
30
0
0
VERTEX
8
OUTLINE
10
1842
20
1504
30
0
0
VERTEX
8
OUTLINE
10
1842
20
1498
30
0
0
SEQEND
8
OUTLINE
0
POLYLINE
8
PUZZLE_DOG_BONES
66
1
70
1
10
0
20
0
30
0
0
VERTEX
8
PUZZLE_DOG_BONES
10
1907
20
1992
30
0
0
VERTEX
8
PUZZLE_DOG_BONES
10
1967
20
1992
30
0
0
VERTEX
8
PUZZLE_DOG_BONES
10
1967
20
2010
30
0
0
VERTEX
8
PUZZLE_DOG_BONES
10
1907
20
2010
30
0
0
SEQEND
8
PUZZLE_DOG_BONES
0
POLYLINE
8
PUZZLE_DOG_BONES
66
1
70
1
10
0
20
0
30
0
0
VERTEX
8
PUZZLE_DOG_BONES
10
1907
20
1410
30
0
0
VERTEX
8
PUZZLE_DOG_BONES
10
1967
20
1410
30
0
0
VERTEX
8
PUZZLE_DOG_BONES
10
1967
20
1428
30
0
0
VERTEX
8
PUZZLE_DOG_BONES
10
1907
20
1428
30
0
0
SEQEND
8
PUZZLE_DOG_BONES
0
POLYLINE
8
PUZZLE_DOG_BONES
66
1
70
1
10
0
20
0
30
0
0
VERTEX
8
PUZZLE_DOG_BONES
10
2257
20
1992
30
0
0
VERTEX
8
PUZZLE_DOG_BONES
10
2317
20
1992
30
0
0
VERTEX
8
PUZZLE_DOG_BONES
10
2317
20
2010
30
0
0
VERTEX
8
PUZZLE_DOG_BONES
10
2257
20
2010
30
0
0
SEQEND
8
PUZZLE_DOG_BONES
0
POLYLINE
8
PUZZLE_DOG_BONES
66
1
70
1
10
0
20
0
30
0
0
VERTEX
8
PUZZLE_DOG_BONES
10
2257
20
1410
30
0
0
VERTEX
8
PUZZLE_DOG_BONES
10
2317
20
1410
30
0
0
VERTEX
8
PUZZLE_DOG_BONES
10
2317
20
1428
30
0
0
VERTEX
8
PUZZLE_DOG_BONES
10
2257
20
1428
30
0
0
SEQEND
8
PUZZLE_DOG_BONES
0
POLYLINE
8
PUZZLE_DOG_BONES
66
1
70
1
10
0
20
0
30
0
0
VERTEX
8
PUZZLE_DOG_BONES
10
1824
20
1493
30
0
0
VERTEX
8
PUZZLE_DOG_BONES
10
1842
20
1493
30
0
0
VERTEX
8
PUZZLE_DOG_BONES
10
1842
20
1553
30
0
0
VERTEX
8
PUZZLE_DOG_BONES
10
1824
20
1553
30
0
0
SEQEND
8
PUZZLE_DOG_BONES
0
POLYLINE
8
PUZZLE_DOG_BONES
66
1
70
1
10
0
20
0
30
0
0
VERTEX
8
PUZZLE_DOG_BONES
10
1824
20
1867
30
0
0
VERTEX
8
PUZZLE_DOG_BONES
10
1842
20
1867
30
0
0
VERTEX
8
PUZZLE_DOG_BONES
10
1842
20
1927
30
0
0
VERTEX
8
PUZZLE_DOG_BONES
10
1824
20
1927
30
0
0
SEQEND
8
PUZZLE_DOG_BONES
0
TEXT
8
UNIT_NUMBER
10
2112
20
1735
30
0
40
20
1
DR01
72
1
11
2112
21
1735
31
0
73
2
0
TEXT
8
UNIT_NUMBER
10
2112
20
1710
30
0
40
20
1
BOTTOM
72
1
11
2112
21
1710
31
0
73
2
0
TEXT
8
UNIT_NUMBER
10
2112
20
1685
30
0
40
20
1
564x540
72
1
11
2112
21
1685
31
0
73
2
0
POLYLINE
8
OUTLINE
66
1
70
1
10
0
20
0
30
0
0
VERTEX
8
OUTLINE
10
2438
20
1234
30
0
0
VERTEX
8
OUTLINE
10
3038
20
1234
30
0
0
VERTEX
8
OUTLINE
10
3038
20
2004
30
0
0
VERTEX
8
OUTLINE
10
2438
20
2004
30
0
0
SEQEND
8
OUTLINE
0
POLYLINE
8
PUZZLE_SOCKET
66
1
70
1
10
0
20
0
30
0
0
VERTEX
8
PUZZLE_SOCKET
10
2432
20
1303.5
30
0
0
VERTEX
8
PUZZLE_SOCKET
10
2447
20
1303.5
30
0
0
VERTEX
8
PUZZLE_SOCKET
10
2447
20
1354.5
30
0
0
VERTEX
8
PUZZLE_SOCKET
10
2432
20
1354.5
30
0
0
SEQEND
8
PUZZLE_SOCKET
0
POLYLINE
8
PUZZLE_SOCKET
66
1
70
1
10
0
20
0
30
0
0
VERTEX
8
PUZZLE_SOCKET
10
2432
20
1593.5
30
0
0
VERTEX
8
PUZZLE_SOCKET
10
2447
20
1593.5
30
0
0
VERTEX
8
PUZZLE_SOCKET
10
2447
20
1644.5
30
0
0
VERTEX
8
PUZZLE_SOCKET
10
2432
20
1644.5
30
0
0
SEQEND
8
PUZZLE_SOCKET
0
POLYLINE
8
PUZZLE_SOCKET
66
1
70
1
10
0
20
0
30
0
0
VERTEX
8
PUZZLE_SOCKET
10
2432
20
1883.5
30
0
0
VERTEX
8
PUZZLE_SOCKET
10
2447
20
1883.5
30
0
0
VERTEX
8
PUZZLE_SOCKET
10
2447
20
1934.5
30
0
0
VERTEX
8
PUZZLE_SOCKET
10
2432
20
1934.5
30
0
0
SEQEND
8
PUZZLE_SOCKET
0
POLYLINE
8
PUZZLE_SOCKET
66
1
70
1
10
0
20
0
30
0
0
VERTEX
8
PUZZLE_SOCKET
10
3029
20
1303.5
30
0
0
VERTEX
8
PUZZLE_SOCKET
10
3044
20
1303.5
30
0
0
VERTEX
8
PUZZLE_SOCKET
10
3044
20
1354.5
30
0
0
VERTEX
8
PUZZLE_SOCKET
10
3029
20
1354.5
30
0
0
SEQEND
8
PUZZLE_SOCKET
0
POLYLINE
8
PUZZLE_SOCKET
66
1
70
1
10
0
20
0
30
0
0
VERTEX
8
PUZZLE_SOCKET
10
3029
20
1593.5
30
0
0
VERTEX
8
PUZZLE_SOCKET
10
3044
20
1593.5
30
0
0
VERTEX
8
PUZZLE_SOCKET
10
3044
20
1644.5
30
0
0
VERTEX
8
PUZZLE_SOCKET
10
3029
20
1644.5
30
0
0
SEQEND
8
PUZZLE_SOCKET
0
POLYLINE
8
PUZZLE_SOCKET
66
1
70
1
10
0
20
0
30
0
0
VERTEX
8
PUZZLE_SOCKET
10
3029
20
1883.5
30
0
0
VERTEX
8
PUZZLE_SOCKET
10
3044
20
1883.5
30
0
0
VERTEX
8
PUZZLE_SOCKET
10
3044
20
1934.5
30
0
0
VERTEX
8
PUZZLE_SOCKET
10
3029
20
1934.5
30
0
0
SEQEND
8
PUZZLE_SOCKET
0
POLYLINE
8
PUZZLE_SOCKET
66
1
70
1
10
0
20
0
30
0
0
VERTEX
8
PUZZLE_SOCKET
10
2525.5
20
1995
30
0
0
VERTEX
8
PUZZLE_SOCKET
10
2576.5
20
1995
30
0
0
VERTEX
8
PUZZLE_SOCKET
10
2576.5
20
2010
30
0
0
VERTEX
8
PUZZLE_SOCKET
10
2525.5
20
2010
30
0
0
SEQEND
8
PUZZLE_SOCKET
0
POLYLINE
8
PUZZLE_SOCKET
66
1
70
1
10
0
20
0
30
0
0
VERTEX
8
PUZZLE_SOCKET
10
2899.5
20
1995
30
0
0
VERTEX
8
PUZZLE_SOCKET
10
2950.5
20
1995
30
0
0
VERTEX
8
PUZZLE_SOCKET
10
2950.5
20
2010
30
0
0
VERTEX
8
PUZZLE_SOCKET
10
2899.5
20
2010
30
0
0
SEQEND
8
PUZZLE_SOCKET
0
POLYLINE
8
PUZZLE_SOCKET
66
1
70
1
10
0
20
0
30
0
0
VERTEX
8
PUZZLE_SOCKET
10
2525.5
20
1228
30
0
0
VERTEX
8
PUZZLE_SOCKET
10
2576.5
20
1228
30
0
0
VERTEX
8
PUZZLE_SOCKET
10
2576.5
20
1243
30
0
0
VERTEX
8
PUZZLE_SOCKET
10
2525.5
20
1243
30
0
0
SEQEND
8
PUZZLE_SOCKET
0
POLYLINE
8
PUZZLE_SOCKET
66
1
70
1
10
0
20
0
30
0
0
VERTEX
8
PUZZLE_SOCKET
10
2899.5
20
1228
30
0
0
VERTEX
8
PUZZLE_SOCKET
10
2950.5
20
1228
30
0
0
VERTEX
8
PUZZLE_SOCKET
10
2950.5
20
1243
30
0
0
VERTEX
8
PUZZLE_SOCKET
10
2899.5
20
1243
30
0
0
SEQEND
8
PUZZLE_SOCKET
0
CIRCLE
8
PUZZLE_HOLES_7_5MM
10
2446
20
1304.5
30
0
40
3.75
0
CIRCLE
8
PUZZLE_HOLES_7_5MM
10
2446
20
1353.5
30
0
40
3.75
0
CIRCLE
8
PUZZLE_HOLES_7_5MM
10
2446
20
1594.5
30
0
40
3.75
0
CIRCLE
8
PUZZLE_HOLES_7_5MM
10
2446
20
1643.5
30
0
40
3.75
0
CIRCLE
8
PUZZLE_HOLES_7_5MM
10
2446
20
1884.5
30
0
40
3.75
0
CIRCLE
8
PUZZLE_HOLES_7_5MM
10
2446
20
1933.5
30
0
40
3.75
0
CIRCLE
8
PUZZLE_HOLES_7_5MM
10
3030
20
1304.5
30
0
40
3.75
0
CIRCLE
8
PUZZLE_HOLES_7_5MM
10
3030
20
1353.5
30
0
40
3.75
0
CIRCLE
8
PUZZLE_HOLES_7_5MM
10
3030
20
1594.5
30
0
40
3.75
0
CIRCLE
8
PUZZLE_HOLES_7_5MM
10
3030
20
1643.5
30
0
40
3.75
0
CIRCLE
8
PUZZLE_HOLES_7_5MM
10
3030
20
1884.5
30
0
40
3.75
0
CIRCLE
8
PUZZLE_HOLES_7_5MM
10
3030
20
1933.5
30
0
40
3.75
0
CIRCLE
8
PUZZLE_HOLES_7_5MM
10
2526.5
20
1996
30
0
40
3.75
0
CIRCLE
8
PUZZLE_HOLES_7_5MM
10
2575.5
20
1996
30
0
40
3.75
0
CIRCLE
8
PUZZLE_HOLES_7_5MM
10
2900.5
20
1996
30
0
40
3.75
0
CIRCLE
8
PUZZLE_HOLES_7_5MM
10
2949.5
20
1996
30
0
40
3.75
0
CIRCLE
8
PUZZLE_HOLES_7_5MM
10
2526.5
20
1242
30
0
40
3.75
0
CIRCLE
8
PUZZLE_HOLES_7_5MM
10
2575.5
20
1242
30
0
40
3.75
0
CIRCLE
8
PUZZLE_HOLES_7_5MM
10
2900.5
20
1242
30
0
40
3.75
0
CIRCLE
8
PUZZLE_HOLES_7_5MM
10
2949.5
20
1242
30
0
40
3.75
0
CIRCLE
8
SCREWS_3MM
10
2447
20
1284
30
0
40
1.5
0
CIRCLE
8
SCREWS_3MM
10
3029
20
1284
30
0
40
1.5
0
CIRCLE
8
SCREWS_3MM
10
2447
20
1474
30
0
40
1.5
0
CIRCLE
8
SCREWS_3MM
10
3029
20
1474
30
0
40
1.5
0
CIRCLE
8
SCREWS_3MM
10
2447
20
1764
30
0
40
1.5
0
CIRCLE
8
SCREWS_3MM
10
3029
20
1764
30
0
40
1.5
0
CIRCLE
8
SCREWS_3MM
10
2447
20
1954
30
0
40
1.5
0
CIRCLE
8
SCREWS_3MM
10
3029
20
1954
30
0
40
1.5
0
CIRCLE
8
SCREWS_3MM
10
2506
20
1995
30
0
40
1.5
0
CIRCLE
8
SCREWS_3MM
10
2506
20
1243
30
0
40
1.5
0
CIRCLE
8
SCREWS_3MM
10
2738
20
1995
30
0
40
1.5
0
CIRCLE
8
SCREWS_3MM
10
2738
20
1243
30
0
40
1.5
0
CIRCLE
8
SCREWS_3MM
10
2970
20
1995
30
0
40
1.5
0
CIRCLE
8
SCREWS_3MM
10
2970
20
1243
30
0
40
1.5
0
TEXT
8
UNIT_NUMBER
10
2738
20
1644
30
0
40
20
1
DR01
72
1
11
2738
21
1644
31
0
73
2
0
TEXT
8
UNIT_NUMBER
10
2738
20
1619
30
0
40
20
1
BACK
72
1
11
2738
21
1619
31
0
73
2
0
TEXT
8
UNIT_NUMBER
10
2738
20
1594
30
0
40
20
1
600x770
72
1
11
2738
21
1594
31
0
73
2
0
POLYLINE
8
OUTLINE
66
1
70
1
10
0
20
0
30
0
0
VERTEX
8
OUTLINE
10
3094
20
1510
30
0
0
VERTEX
8
OUTLINE
10
3331
20
1510
30
0
0
VERTEX
8
OUTLINE
10
3331
20
2000
30
0
0
VERTEX
8
OUTLINE
10
3094
20
2000
30
0
0
SEQEND
8
OUTLINE
0
POLYLINE
8
DRAWER_RUNNER_POCKET
66
1
70
1
10
0
20
0
30
0
0
VERTEX
8
DRAWER_RUNNER_POCKET
10
3094
20
1500
30
0
0
VERTEX
8
DRAWER_RUNNER_POCKET
10
3109
20
1500
30
0
0
VERTEX
8
DRAWER_RUNNER_POCKET
10
3109
20
2010
30
0
0
VERTEX
8
DRAWER_RUNNER_POCKET
10
3094
20
2010
30
0
0
SEQEND
8
DRAWER_RUNNER_POCKET
0
POLYLINE
8
DRAWER_BOTTOM_POCKET
66
1
70
1
10
0
20
0
30
0
0
VERTEX
8
DRAWER_BOTTOM_POCKET
10
3109
20
1500
30
0
0
VERTEX
8
DRAWER_BOTTOM_POCKET
10
3128
20
1500
30
0
0
VERTEX
8
DRAWER_BOTTOM_POCKET
10
3128
20
2010
30
0
0
VERTEX
8
DRAWER_BOTTOM_POCKET
10
3109
20
2010
30
0
0
SEQEND
8
DRAWER_BOTTOM_POCKET
0
TEXT
8
UNIT_NUMBER
10
3212.5
20
1776.160714
30
0
40
16.928571
1
DR01
72
1
11
3212.5
21
1776.160714
31
0
73
2
0
TEXT
8
UNIT_NUMBER
10
3212.5
20
1755
30
0
40
16.928571
1
D1-SL
72
1
11
3212.5
21
1755
31
0
73
2
0
TEXT
8
UNIT_NUMBER
10
3212.5
20
1733.839286
30
0
40
16.928571
1
490x237
72
1
11
3212.5
21
1733.839286
31
0
73
2
0
POLYLINE
8
OUTLINE
66
1
70
1
10
0
20
0
30
0
0
VERTEX
8
OUTLINE
10
0
20
678
30
0
0
VERTEX
8
OUTLINE
10
237
20
678
30
0
0
VERTEX
8
OUTLINE
10
237
20
1168
30
0
0
VERTEX
8
OUTLINE
10
0
20
1168
30
0
0
SEQEND
8
OUTLINE
0
POLYLINE
8
DRAWER_RUNNER_POCKET
66
1
70
1
10
0
20
0
30
0
0
VERTEX
8
DRAWER_RUNNER_POCKET
10
0
20
668
30
0
0
VERTEX
8
DRAWER_RUNNER_POCKET
10
15
20
668
30
0
0
VERTEX
8
DRAWER_RUNNER_POCKET
10
15
20
1178
30
0
0
VERTEX
8
DRAWER_RUNNER_POCKET
10
0
20
1178
30
0
0
SEQEND
8
DRAWER_RUNNER_POCKET
0
POLYLINE
8
DRAWER_BOTTOM_POCKET
66
1
70
1
10
0
20
0
30
0
0
VERTEX
8
DRAWER_BOTTOM_POCKET
10
15
20
668
30
0
0
VERTEX
8
DRAWER_BOTTOM_POCKET
10
34
20
668
30
0
0
VERTEX
8
DRAWER_BOTTOM_POCKET
10
34
20
1178
30
0
0
VERTEX
8
DRAWER_BOTTOM_POCKET
10
15
20
1178
30
0
0
SEQEND
8
DRAWER_BOTTOM_POCKET
0
TEXT
8
UNIT_NUMBER
10
118.5
20
944.160714
30
0
40
16.928571
1
DR01
72
1
11
118.5
21
944.160714
31
0
73
2
0
TEXT
8
UNIT_NUMBER
10
118.5
20
923
30
0
40
16.928571
1
D1-SR
72
1
11
118.5
21
923
31
0
73
2
0
TEXT
8
UNIT_NUMBER
10
118.5
20
901.839286
30
0
40
16.928571
1
490x237
72
1
11
118.5
21
901.839286
31
0
73
2
0
POLYLINE
8
OUTLINE
66
1
70
1
10
0
20
0
30
0
0
VERTEX
8
OUTLINE
10
287
20
678
30
0
0
VERTEX
8
OUTLINE
10
465
20
678
30
0
0
VERTEX
8
OUTLINE
10
465
20
1168
30
0
0
VERTEX
8
OUTLINE
10
287
20
1168
30
0
0
SEQEND
8
OUTLINE
0
POLYLINE
8
DRAWER_RUNNER_POCKET
66
1
70
1
10
0
20
0
30
0
0
VERTEX
8
DRAWER_RUNNER_POCKET
10
287
20
668
30
0
0
VERTEX
8
DRAWER_RUNNER_POCKET
10
302
20
668
30
0
0
VERTEX
8
DRAWER_RUNNER_POCKET
10
302
20
1178
30
0
0
VERTEX
8
DRAWER_RUNNER_POCKET
10
287
20
1178
30
0
0
SEQEND
8
DRAWER_RUNNER_POCKET
0
POLYLINE
8
DRAWER_BOTTOM_POCKET
66
1
70
1
10
0
20
0
30
0
0
VERTEX
8
DRAWER_BOTTOM_POCKET
10
302
20
668
30
0
0
VERTEX
8
DRAWER_BOTTOM_POCKET
10
321
20
668
30
0
0
VERTEX
8
DRAWER_BOTTOM_POCKET
10
321
20
1178
30
0
0
VERTEX
8
DRAWER_BOTTOM_POCKET
10
302
20
1178
30
0
0
SEQEND
8
DRAWER_BOTTOM_POCKET
0
TEXT
8
UNIT_NUMBER
10
376
20
938.892857
30
0
40
12.714286
1
DR01
72
1
11
376
21
938.892857
31
0
73
2
0
TEXT
8
UNIT_NUMBER
10
376
20
923
30
0
40
12.714286
1
D2-SL
72
1
11
376
21
923
31
0
73
2
0
TEXT
8
UNIT_NUMBER
10
376
20
907.107143
30
0
40
12.714286
1
490x178
72
1
11
376
21
907.107143
31
0
73
2
0
POLYLINE
8
OUTLINE
66
1
70
1
10
0
20
0
30
0
0
VERTEX
8
OUTLINE
10
515
20
678
30
0
0
VERTEX
8
OUTLINE
10
693
20
678
30
0
0
VERTEX
8
OUTLINE
10
693
20
1168
30
0
0
VERTEX
8
OUTLINE
10
515
20
1168
30
0
0
SEQEND
8
OUTLINE
0
POLYLINE
8
DRAWER_RUNNER_POCKET
66
1
70
1
10
0
20
0
30
0
0
VERTEX
8
DRAWER_RUNNER_POCKET
10
515
20
668
30
0
0
VERTEX
8
DRAWER_RUNNER_POCKET
10
530
20
668
30
0
0
VERTEX
8
DRAWER_RUNNER_POCKET
10
530
20
1178
30
0
0
VERTEX
8
DRAWER_RUNNER_POCKET
10
515
20
1178
30
0
0
SEQEND
8
DRAWER_RUNNER_POCKET
0
POLYLINE
8
DRAWER_BOTTOM_POCKET
66
1
70
1
10
0
20
0
30
0
0
VERTEX
8
DRAWER_BOTTOM_POCKET
10
530
20
668
30
0
0
VERTEX
8
DRAWER_BOTTOM_POCKET
10
549
20
668
30
0
0
VERTEX
8
DRAWER_BOTTOM_POCKET
10
549
20
1178
30
0
0
VERTEX
8
DRAWER_BOTTOM_POCKET
10
530
20
1178
30
0
0
SEQEND
8
DRAWER_BOTTOM_POCKET
0
TEXT
8
UNIT_NUMBER
10
604
20
938.892857
30
0
40
12.714286
1
DR01
72
1
11
604
21
938.892857
31
0
73
2
0
TEXT
8
UNIT_NUMBER
10
604
20
923
30
0
40
12.714286
1
D2-SR
72
1
11
604
21
923
31
0
73
2
0
TEXT
8
UNIT_NUMBER
10
604
20
907.107143
30
0
40
12.714286
1
490x178
72
1
11
604
21
907.107143
31
0
73
2
0
POLYLINE
8
OUTLINE
66
1
70
1
10
0
20
0
30
0
0
VERTEX
8
OUTLINE
10
743
20
678
30
0
0
VERTEX
8
OUTLINE
10
861
20
678
30
0
0
VERTEX
8
OUTLINE
10
861
20
1168
30
0
0
VERTEX
8
OUTLINE
10
743
20
1168
30
0
0
SEQEND
8
OUTLINE
0
POLYLINE
8
DRAWER_RUNNER_POCKET
66
1
70
1
10
0
20
0
30
0
0
VERTEX
8
DRAWER_RUNNER_POCKET
10
743
20
668
30
0
0
VERTEX
8
DRAWER_RUNNER_POCKET
10
758
20
668
30
0
0
VERTEX
8
DRAWER_RUNNER_POCKET
10
758
20
1178
30
0
0
VERTEX
8
DRAWER_RUNNER_POCKET
10
743
20
1178
30
0
0
SEQEND
8
DRAWER_RUNNER_POCKET
0
POLYLINE
8
DRAWER_BOTTOM_POCKET
66
1
70
1
10
0
20
0
30
0
0
VERTEX
8
DRAWER_BOTTOM_POCKET
10
758
20
668
30
0
0
VERTEX
8
DRAWER_BOTTOM_POCKET
10
777
20
668
30
0
0
VERTEX
8
DRAWER_BOTTOM_POCKET
10
777
20
1178
30
0
0
VERTEX
8
DRAWER_BOTTOM_POCKET
10
758
20
1178
30
0
0
SEQEND
8
DRAWER_BOTTOM_POCKET
0
TEXT
8
UNIT_NUMBER
10
802
20
933.535714
30
0
40
8.428571
1
DR01
72
1
11
802
21
933.535714
31
0
73
2
0
TEXT
8
UNIT_NUMBER
10
802
20
923
30
0
40
8.428571
1
D3-SL
72
1
11
802
21
923
31
0
73
2
0
TEXT
8
UNIT_NUMBER
10
802
20
912.464286
30
0
40
8.428571
1
490x118
72
1
11
802
21
912.464286
31
0
73
2
0
POLYLINE
8
OUTLINE
66
1
70
1
10
0
20
0
30
0
0
VERTEX
8
OUTLINE
10
911
20
678
30
0
0
VERTEX
8
OUTLINE
10
1029
20
678
30
0
0
VERTEX
8
OUTLINE
10
1029
20
1168
30
0
0
VERTEX
8
OUTLINE
10
911
20
1168
30
0
0
SEQEND
8
OUTLINE
0
POLYLINE
8
DRAWER_RUNNER_POCKET
66
1
70
1
10
0
20
0
30
0
0
VERTEX
8
DRAWER_RUNNER_POCKET
10
911
20
668
30
0
0
VERTEX
8
DRAWER_RUNNER_POCKET
10
926
20
668
30
0
0
VERTEX
8
DRAWER_RUNNER_POCKET
10
926
20
1178
30
0
0
VERTEX
8
DRAWER_RUNNER_POCKET
10
911
20
1178
30
0
0
SEQEND
8
DRAWER_RUNNER_POCKET
0
POLYLINE
8
DRAWER_BOTTOM_POCKET
66
1
70
1
10
0
20
0
30
0
0
VERTEX
8
DRAWER_BOTTOM_POCKET
10
926
20
668
30
0
0
VERTEX
8
DRAWER_BOTTOM_POCKET
10
945
20
668
30
0
0
VERTEX
8
DRAWER_BOTTOM_POCKET
10
945
20
1178
30
0
0
VERTEX
8
DRAWER_BOTTOM_POCKET
10
926
20
1178
30
0
0
SEQEND
8
DRAWER_BOTTOM_POCKET
0
TEXT
8
UNIT_NUMBER
10
970
20
933.535714
30
0
40
8.428571
1
DR01
72
1
11
970
21
933.535714
31
0
73
2
0
TEXT
8
UNIT_NUMBER
10
970
20
923
30
0
40
8.428571
1
D3-SR
72
1
11
970
21
923
31
0
73
2
0
TEXT
8
UNIT_NUMBER
10
970
20
912.464286
30
0
40
8.428571
1
490x118
72
1
11
970
21
912.464286
31
0
73
2
0
POLYLINE
8
OUTLINE
66
1
70
1
10
0
20
0
30
0
0
VERTEX
8
OUTLINE
10
1079
20
660
30
0
0
VERTEX
8
OUTLINE
10
1282
20
660
30
0
0
VERTEX
8
OUTLINE
10
1282
20
1178
30
0
0
VERTEX
8
OUTLINE
10
1079
20
1178
30
0
0
SEQEND
8
OUTLINE
0
CIRCLE
8
SCREWS_3MM
10
1129
20
710
30
0
40
1.5
0
CIRCLE
8
SCREWS_3MM
10
1129
20
1128
30
0
40
1.5
0
TEXT
8
UNIT_NUMBER
10
1180.5
20
937.125
30
0
40
14.5
1
DR01
72
1
11
1180.5
21
937.125
31
0
73
2
0
TEXT
8
UNIT_NUMBER
10
1180.5
20
919
30
0
40
14.5
1
D1-BF
72
1
11
1180.5
21
919
31
0
73
2
0
TEXT
8
UNIT_NUMBER
10
1180.5
20
900.875
30
0
40
14.5
1
518x203
72
1
11
1180.5
21
900.875
31
0
73
2
0
POLYLINE
8
OUTLINE
66
1
70
1
10
0
20
0
30
0
0
VERTEX
8
OUTLINE
10
1332
20
660
30
0
0
VERTEX
8
OUTLINE
10
1535
20
660
30
0
0
VERTEX
8
OUTLINE
10
1535
20
1178
30
0
0
VERTEX
8
OUTLINE
10
1332
20
1178
30
0
0
SEQEND
8
OUTLINE
0
TEXT
8
UNIT_NUMBER
10
1433.5
20
937.125
30
0
40
14.5
1
DR01
72
1
11
1433.5
21
937.125
31
0
73
2
0
TEXT
8
UNIT_NUMBER
10
1433.5
20
919
30
0
40
14.5
1
D1-BB
72
1
11
1433.5
21
919
31
0
73
2
0
TEXT
8
UNIT_NUMBER
10
1433.5
20
900.875
30
0
40
14.5
1
518x203
72
1
11
1433.5
21
900.875
31
0
73
2
0
POLYLINE
8
OUTLINE
66
1
70
1
10
0
20
0
30
0
0
VERTEX
8
OUTLINE
10
1585
20
660
30
0
0
VERTEX
8
OUTLINE
10
1729
20
660
30
0
0
VERTEX
8
OUTLINE
10
1729
20
1178
30
0
0
VERTEX
8
OUTLINE
10
1585
20
1178
30
0
0
SEQEND
8
OUTLINE
0
CIRCLE
8
SCREWS_3MM
10
1635
20
710
30
0
40
1.5
0
CIRCLE
8
SCREWS_3MM
10
1635
20
1128
30
0
40
1.5
0
TEXT
8
UNIT_NUMBER
10
1657
20
931.857143
30
0
40
10.285714
1
DR01
72
1
11
1657
21
931.857143
31
0
73
2
0
TEXT
8
UNIT_NUMBER
10
1657
20
919
30
0
40
10.285714
1
D2-BF
72
1
11
1657
21
919
31
0
73
2
0
TEXT
8
UNIT_NUMBER
10
1657
20
906.142857
30
0
40
10.285714
1
518x144
72
1
11
1657
21
906.142857
31
0
73
2
0
POLYLINE
8
OUTLINE
66
1
70
1
10
0
20
0
30
0
0
VERTEX
8
OUTLINE
10
1779
20
660
30
0
0
VERTEX
8
OUTLINE
10
1923
20
660
30
0
0
VERTEX
8
OUTLINE
10
1923
20
1178
30
0
0
VERTEX
8
OUTLINE
10
1779
20
1178
30
0
0
SEQEND
8
OUTLINE
0
TEXT
8
UNIT_NUMBER
10
1851
20
931.857143
30
0
40
10.285714
1
DR01
72
1
11
1851
21
931.857143
31
0
73
2
0
TEXT
8
UNIT_NUMBER
10
1851
20
919
30
0
40
10.285714
1
D2-BB
72
1
11
1851
21
919
31
0
73
2
0
TEXT
8
UNIT_NUMBER
10
1851
20
906.142857
30
0
40
10.285714
1
518x144
72
1
11
1851
21
906.142857
31
0
73
2
0
POLYLINE
8
OUTLINE
66
1
70
1
10
0
20
0
30
0
0
VERTEX
8
OUTLINE
10
1973
20
660
30
0
0
VERTEX
8
OUTLINE
10
2057
20
660
30
0
0
VERTEX
8
OUTLINE
10
2057
20
1178
30
0
0
VERTEX
8
OUTLINE
10
1973
20
1178
30
0
0
SEQEND
8
OUTLINE
0
CIRCLE
8
SCREWS_3MM
10
2023
20
710
30
0
40
1.5
0
CIRCLE
8
SCREWS_3MM
10
2023
20
1128
30
0
40
1.5
0
TEXT
8
UNIT_NUMBER
10
2015
20
927.75
30
0
40
7
1
DR01
72
1
11
2015
21
927.75
31
0
73
2
0
TEXT
8
UNIT_NUMBER
10
2015
20
919
30
0
40
7
1
D3-BF
72
1
11
2015
21
919
31
0
73
2
0
TEXT
8
UNIT_NUMBER
10
2015
20
910.25
30
0
40
7
1
518x84
72
1
11
2015
21
910.25
31
0
73
2
0
POLYLINE
8
OUTLINE
66
1
70
1
10
0
20
0
30
0
0
VERTEX
8
OUTLINE
10
2107
20
660
30
0
0
VERTEX
8
OUTLINE
10
2191
20
660
30
0
0
VERTEX
8
OUTLINE
10
2191
20
1178
30
0
0
VERTEX
8
OUTLINE
10
2107
20
1178
30
0
0
SEQEND
8
OUTLINE
0
TEXT
8
UNIT_NUMBER
10
2149
20
927.75
30
0
40
7
1
DR01
72
1
11
2149
21
927.75
31
0
73
2
0
TEXT
8
UNIT_NUMBER
10
2149
20
919
30
0
40
7
1
D3-BB
72
1
11
2149
21
919
31
0
73
2
0
TEXT
8
UNIT_NUMBER
10
2149
20
910.25
30
0
40
7
1
518x84
72
1
11
2149
21
910.25
31
0
73
2
0
POLYLINE
8
OUTLINE
66
1
70
1
10
0
20
0
30
0
0
VERTEX
8
OUTLINE
10
2731
20
647
30
0
0
VERTEX
8
OUTLINE
10
2731
20
1178
30
0
0
VERTEX
8
OUTLINE
10
2241
20
1178
30
0
0
VERTEX
8
OUTLINE
10
2241
20
647
30
0
0
SEQEND
8
OUTLINE
0
CIRCLE
8
SCREWS_3MM
10
2722
20
717
30
0
40
1.5
0
CIRCLE
8
SCREWS_3MM
10
2250
20
717
30
0
40
1.5
0
CIRCLE
8
SCREWS_3MM
10
2722
20
1108
30
0
40
1.5
0
CIRCLE
8
SCREWS_3MM
10
2250
20
1108
30
0
40
1.5
0
TEXT
8
UNIT_NUMBER
10
2461
20
912.5
30
0
40
20
1
DR01
50
90
72
1
11
2461
21
912.5
31
0
73
2
0
TEXT
8
UNIT_NUMBER
10
2486
20
912.5
30
0
40
20
1
D1-DNO
50
90
72
1
11
2486
21
912.5
31
0
73
2
0
TEXT
8
UNIT_NUMBER
10
2511
20
912.5
30
0
40
20
1
531x490
50
90
72
1
11
2511
21
912.5
31
0
73
2
0
POLYLINE
8
OUTLINE
66
1
70
1
10
0
20
0
30
0
0
VERTEX
8
OUTLINE
10
3271
20
647
30
0
0
VERTEX
8
OUTLINE
10
3271
20
1178
30
0
0
VERTEX
8
OUTLINE
10
2781
20
1178
30
0
0
VERTEX
8
OUTLINE
10
2781
20
647
30
0
0
SEQEND
8
OUTLINE
0
CIRCLE
8
SCREWS_3MM
10
3262
20
717
30
0
40
1.5
0
CIRCLE
8
SCREWS_3MM
10
2790
20
717
30
0
40
1.5
0
CIRCLE
8
SCREWS_3MM
10
3262
20
1108
30
0
40
1.5
0
CIRCLE
8
SCREWS_3MM
10
2790
20
1108
30
0
40
1.5
0
TEXT
8
UNIT_NUMBER
10
3001
20
912.5
30
0
40
20
1
DR01
50
90
72
1
11
3001
21
912.5
31
0
73
2
0
TEXT
8
UNIT_NUMBER
10
3026
20
912.5
30
0
40
20
1
D2-DNO
50
90
72
1
11
3026
21
912.5
31
0
73
2
0
TEXT
8
UNIT_NUMBER
10
3051
20
912.5
30
0
40
20
1
531x490
50
90
72
1
11
3051
21
912.5
31
0
73
2
0
POLYLINE
8
OUTLINE
66
1
70
1
10
0
20
0
30
0
0
VERTEX
8
OUTLINE
10
490
20
66
30
0
0
VERTEX
8
OUTLINE
10
490
20
597
30
0
0
VERTEX
8
OUTLINE
10
0
20
597
30
0
0
VERTEX
8
OUTLINE
10
0
20
66
30
0
0
SEQEND
8
OUTLINE
0
CIRCLE
8
SCREWS_3MM
10
481
20
136
30
0
40
1.5
0
CIRCLE
8
SCREWS_3MM
10
9
20
136
30
0
40
1.5
0
CIRCLE
8
SCREWS_3MM
10
481
20
527
30
0
40
1.5
0
CIRCLE
8
SCREWS_3MM
10
9
20
527
30
0
40
1.5
0
TEXT
8
UNIT_NUMBER
10
220
20
331.5
30
0
40
20
1
DR01
50
90
72
1
11
220
21
331.5
31
0
73
2
0
TEXT
8
UNIT_NUMBER
10
245
20
331.5
30
0
40
20
1
D3-DNO
50
90
72
1
11
245
21
331.5
31
0
73
2
0
TEXT
8
UNIT_NUMBER
10
270
20
331.5
30
0
40
20
1
531x490
50
90
72
1
11
270
21
331.5
31
0
73
2
0
POLYLINE
8
OUTLINE
66
1
70
1
10
0
20
0
30
0
0
VERTEX
8
OUTLINE
10
878
20
0
30
0
0
VERTEX
8
OUTLINE
10
878
20
597
30
0
0
VERTEX
8
OUTLINE
10
540
20
597
30
0
0
VERTEX
8
OUTLINE
10
540
20
0
30
0
0
SEQEND
8
OUTLINE
0
POLYLINE
8
SHAKER_PANEL_POCKET
66
1
70
1
10
0
20
0
30
0
0
VERTEX
8
SHAKER_PANEL_POCKET
10
600
20
60
30
0
0
VERTEX
8
SHAKER_PANEL_POCKET
10
600
20
537
30
0
0
VERTEX
8
SHAKER_PANEL_POCKET
10
818
20
537
30
0
0
VERTEX
8
SHAKER_PANEL_POCKET
10
818
20
60
30
0
0
SEQEND
8
SHAKER_PANEL_POCKET
0
CIRCLE
8
FRONT_HINGES_3MM
10
763.5
20
89.5
30
0
40
1.5
0
CIRCLE
8
FRONT_HINGES_3MM
10
763.5
20
507.5
30
0
40
1.5
0
TEXT
8
UNIT_NUMBER
10
696.5
20
298.5
30
0
40
20
1
DR01 F1
50
90
72
1
11
696.5
21
298.5
31
0
73
2
0
TEXT
8
UNIT_NUMBER
10
721.5
20
298.5
30
0
40
20
1
597x338
50
90
72
1
11
721.5
21
298.5
31
0
73
2
0
POLYLINE
8
OUTLINE
66
1
70
1
10
0
20
0
30
0
0
VERTEX
8
OUTLINE
10
1182
20
0
30
0
0
VERTEX
8
OUTLINE
10
1182
20
597
30
0
0
VERTEX
8
OUTLINE
10
928
20
597
30
0
0
VERTEX
8
OUTLINE
10
928
20
0
30
0
0
SEQEND
8
OUTLINE
0
POLYLINE
8
SHAKER_PANEL_POCKET
66
1
70
1
10
0
20
0
30
0
0
VERTEX
8
SHAKER_PANEL_POCKET
10
988
20
60
30
0
0
VERTEX
8
SHAKER_PANEL_POCKET
10
988
20
537
30
0
0
VERTEX
8
SHAKER_PANEL_POCKET
10
1122
20
537
30
0
0
VERTEX
8
SHAKER_PANEL_POCKET
10
1122
20
60
30
0
0
SEQEND
8
SHAKER_PANEL_POCKET
0
CIRCLE
8
FRONT_HINGES_3MM
10
1085.5
20
89.5
30
0
40
1.5
0
CIRCLE
8
FRONT_HINGES_3MM
10
1085.5
20
507.5
30
0
40
1.5
0
TEXT
8
UNIT_NUMBER
10
1042.5
20
298.5
30
0
40
20
1
DR01 F2
50
90
72
1
11
1042.5
21
298.5
31
0
73
2
0
TEXT
8
UNIT_NUMBER
10
1067.5
20
298.5
30
0
40
20
1
597x254
50
90
72
1
11
1067.5
21
298.5
31
0
73
2
0
POLYLINE
8
OUTLINE
66
1
70
1
10
0
20
0
30
0
0
VERTEX
8
OUTLINE
10
1401
20
0
30
0
0
VERTEX
8
OUTLINE
10
1401
20
597
30
0
0
VERTEX
8
OUTLINE
10
1232
20
597
30
0
0
VERTEX
8
OUTLINE
10
1232
20
0
30
0
0
SEQEND
8
OUTLINE
0
CIRCLE
8
FRONT_HINGES_3MM
10
1304.5
20
89.5
30
0
40
1.5
0
CIRCLE
8
FRONT_HINGES_3MM
10
1304.5
20
507.5
30
0
40
1.5
0
TEXT
8
UNIT_NUMBER
10
1304
20
298.5
30
0
40
20
1
DR01 F3
50
90
72
1
11
1304
21
298.5
31
0
73
2
0
TEXT
8
UNIT_NUMBER
10
1329
20
298.5
30
0
40
20
1
597x169
50
90
72
1
11
1329
21
298.5
31
0
73
2
0
ENDSEC
0
EOF
