0
SECTION
2
HEADER
9
$ACADVER
1
AC1009
9
$INSBASE
10
0
20
0
30
0
9
$EXTMIN
10
0
20
0
30
0
9
$EXTMAX
10
597
20
338
30
0
0
ENDSEC
0
SECTION
2
TABLES
0
TABLE
2
LAYER
70
5
0
LAYER
2
0
70
0
62
7
6
CONTINUOUS
0
LAYER
2
OUTLINE
70
0
62
7
6
CONTINUOUS
0
LAYER
2
SHAKER_PANEL_POCKET
70
0
62
41
6
CONTINUOUS
0
LAYER
2
FRONT_HINGES_3MM
70
0
62
30
6
CONTINUOUS
0
LAYER
2
UNIT_NUMBER
70
0
62
94
6
CONTINUOUS
0
ENDTAB
0
ENDSEC
0
SECTION
2
ENTITIES
0
POLYLINE
8
OUTLINE
66
1
70
1
10
0
20
0
30
0
0
VERTEX
8
OUTLINE
10
0
20
0
30
0
0
VERTEX
8
OUTLINE
10
597
20
0
30
0
0
VERTEX
8
OUTLINE
10
597
20
338
30
0
0
VERTEX
8
OUTLINE
10
0
20
338
30
0
0
SEQEND
8
OUTLINE
0
POLYLINE
8
SHAKER_PANEL_POCKET
66
1
70
1
10
0
20
0
30
0
0
VERTEX
8
SHAKER_PANEL_POCKET
10
60
20
278
30
0
0
VERTEX
8
SHAKER_PANEL_POCKET
10
537
20
278
30
0
0
VERTEX
8
SHAKER_PANEL_POCKET
10
537
20
60
30
0
0
VERTEX
8
SHAKER_PANEL_POCKET
10
60
20
60
30
0
0
SEQEND
8
SHAKER_PANEL_POCKET
0
CIRCLE
8
FRONT_HINGES_3MM
10
89.5
20
114.5
30
0
40
1.5
0
CIRCLE
8
FRONT_HINGES_3MM
10
507.5
20
114.5
30
0
40
1.5
0
TEXT
8
UNIT_NUMBER
10
298.5
20
181.5
30
0
40
20
1
DR01 F1
72
1
11
298.5
21
181.5
31
0
73
2
0
TEXT
8
UNIT_NUMBER
10
298.5
20
156.5
30
0
40
20
1
597x338
72
1
11
298.5
21
156.5
31
0
73
2
0
ENDSEC
0
EOF
