0
SECTION
2
HEADER
9
$ACADVER
1
AC1009
9
$INSBASE
10
0
20
0
30
0
9
$EXTMIN
10
0
20
0
30
0
9
$EXTMAX
10
531
20
490
30
0
0
ENDSEC
0
SECTION
2
TABLES
0
TABLE
2
LAYER
70
4
0
LAYER
2
0
70
0
62
7
6
CONTINUOUS
0
LAYER
2
OUTLINE
70
0
62
7
6
CONTINUOUS
0
LAYER
2
SCREWS_3MM
70
0
62
4
6
CONTINUOUS
0
LAYER
2
UNIT_NUMBER
70
0
62
94
6
CONTINUOUS
0
ENDTAB
0
ENDSEC
0
SECTION
2
ENTITIES
0
POLYLINE
8
OUTLINE
66
1
70
1
10
0
20
0
30
0
0
VERTEX
8
OUTLINE
10
0
20
0
30
0
0
VERTEX
8
OUTLINE
10
531
20
0
30
0
0
VERTEX
8
OUTLINE
10
531
20
490
30
0
0
VERTEX
8
OUTLINE
10
0
20
490
30
0
0
SEQEND
8
OUTLINE
0
CIRCLE
8
SCREWS_3MM
10
70
20
9
30
0
40
1.5
0
CIRCLE
8
SCREWS_3MM
10
70
20
481
30
0
40
1.5
0
CIRCLE
8
SCREWS_3MM
10
461
20
9
30
0
40
1.5
0
CIRCLE
8
SCREWS_3MM
10
461
20
481
30
0
40
1.5
0
TEXT
8
UNIT_NUMBER
10
265.5
20
270
30
0
40
20
1
DR01
72
1
11
265.5
21
270
31
0
73
2
0
TEXT
8
UNIT_NUMBER
10
265.5
20
245
30
0
40
20
1
D2-DNO
72
1
11
265.5
21
245
31
0
73
2
0
TEXT
8
UNIT_NUMBER
10
265.5
20
220
30
0
40
20
1
531x490
72
1
11
265.5
21
220
31
0
73
2
0
ENDSEC
0
EOF
