0
SECTION
2
HEADER
9
$ACADVER
1
AC1009
9
$INSBASE
10
0
20
0
30
0
9
$EXTMIN
10
0
20
0
30
0
9
$EXTMAX
10
597
20
169
30
0
0
ENDSEC
0
SECTION
2
TABLES
0
TABLE
2
LAYER
70
4
0
LAYER
2
0
70
0
62
7
6
CONTINUOUS
0
LAYER
2
OUTLINE
70
0
62
7
6
CONTINUOUS
0
LAYER
2
FRONT_HINGES_3MM
70
0
62
30
6
CONTINUOUS
0
LAYER
2
UNIT_NUMBER
70
0
62
94
6
CONTINUOUS
0
ENDTAB
0
ENDSEC
0
SECTION
2
ENTITIES
0
POLYLINE
8
OUTLINE
66
1
70
1
10
0
20
0
30
0
0
VERTEX
8
OUTLINE
10
0
20
0
30
0
0
VERTEX
8
OUTLINE
10
597
20
0
30
0
0
VERTEX
8
OUTLINE
10
597
20
169
30
0
0
VERTEX
8
OUTLINE
10
0
20
169
30
0
0
SEQEND
8
OUTLINE
0
CIRCLE
8
FRONT_HINGES_3MM
10
89.5
20
96.5
30
0
40
1.5
0
CIRCLE
8
FRONT_HINGES_3MM
10
507.5
20
96.5
30
0
40
1.5
0
TEXT
8
UNIT_NUMBER
10
298.5
20
97
30
0
40
20
1
DR01 F3
72
1
11
298.5
21
97
31
0
73
2
0
TEXT
8
UNIT_NUMBER
10
298.5
20
72
30
0
40
20
1
597x169
72
1
11
298.5
21
72
31
0
73
2
0
ENDSEC
0
EOF
