0
SECTION
2
HEADER
9
$ACADVER
1
AC1009
9
$INSBASE
10
0
20
0
30
0
9
$EXTMIN
10
-18
20
-6
30
0
9
$EXTMAX
10
540
20
776
30
0
0
ENDSEC
0
SECTION
2
TABLES
0
TABLE
2
LAYER
70
8
0
LAYER
2
0
70
0
62
7
6
CONTINUOUS
0
LAYER
2
OUTLINE
70
0
62
7
6
CONTINUOUS
0
LAYER
2
PUZZLE_SOCKET
70
0
62
1
6
CONTINUOUS
0
LAYER
2
PUZZLE_DOG_BONES
70
0
62
2
6
CONTINUOUS
0
LAYER
2
PUZZLE_HOLES_7_5MM
70
0
62
3
6
CONTINUOUS
0
LAYER
2
SCREWS_3MM
70
0
62
4
6
CONTINUOUS
0
LAYER
2
RUNNERS_3MM
70
0
62
5
6
CONTINUOUS
0
LAYER
2
UNIT_NUMBER
70
0
62
94
6
CONTINUOUS
0
ENDTAB
0
ENDSEC
0
SECTION
2
ENTITIES
0
POLYLINE
8
OUTLINE
66
1
70
1
10
0
20
0
30
0
0
VERTEX
8
OUTLINE
10
0
20
0
30
0
0
VERTEX
8
OUTLINE
10
540
20
0
30
0
0
VERTEX
8
OUTLINE
10
540
20
770
30
0
0
VERTEX
8
OUTLINE
10
0
20
770
30
0
0
VERTEX
8
OUTLINE
10
0
20
700
30
0
0
VERTEX
8
OUTLINE
10
0
20
694
30
0
0
VERTEX
8
OUTLINE
10
-13
20
694
30
0
0
VERTEX
8
OUTLINE
10
-13
20
700
30
0
0
VERTEX
8
OUTLINE
10
-18
20
700
30
0
0
VERTEX
8
OUTLINE
10
-18
20
650
30
0
0
VERTEX
8
OUTLINE
10
-13
20
650
30
0
0
VERTEX
8
OUTLINE
10
-13
20
656
30
0
0
VERTEX
8
OUTLINE
10
0
20
656
30
0
0
VERTEX
8
OUTLINE
10
0
20
650
30
0
0
VERTEX
8
OUTLINE
10
0
20
410
30
0
0
VERTEX
8
OUTLINE
10
0
20
404
30
0
0
VERTEX
8
OUTLINE
10
-13
20
404
30
0
0
VERTEX
8
OUTLINE
10
-13
20
410
30
0
0
VERTEX
8
OUTLINE
10
-18
20
410
30
0
0
VERTEX
8
OUTLINE
10
-18
20
360
30
0
0
VERTEX
8
OUTLINE
10
-13
20
360
30
0
0
VERTEX
8
OUTLINE
10
-13
20
366
30
0
0
VERTEX
8
OUTLINE
10
0
20
366
30
0
0
VERTEX
8
OUTLINE
10
0
20
360
30
0
0
VERTEX
8
OUTLINE
10
0
20
120
30
0
0
VERTEX
8
OUTLINE
10
0
20
114
30
0
0
VERTEX
8
OUTLINE
10
-13
20
114
30
0
0
VERTEX
8
OUTLINE
10
-13
20
120
30
0
0
VERTEX
8
OUTLINE
10
-18
20
120
30
0
0
VERTEX
8
OUTLINE
10
-18
20
70
30
0
0
VERTEX
8
OUTLINE
10
-13
20
70
30
0
0
VERTEX
8
OUTLINE
10
-13
20
76
30
0
0
VERTEX
8
OUTLINE
10
0
20
76
30
0
0
VERTEX
8
OUTLINE
10
0
20
70
30
0
0
SEQEND
8
OUTLINE
0
POLYLINE
8
PUZZLE_DOG_BONES
66
1
70
1
10
0
20
0
30
0
0
VERTEX
8
PUZZLE_DOG_BONES
10
-18
20
65
30
0
0
VERTEX
8
PUZZLE_DOG_BONES
10
0
20
65
30
0
0
VERTEX
8
PUZZLE_DOG_BONES
10
0
20
125
30
0
0
VERTEX
8
PUZZLE_DOG_BONES
10
-18
20
125
30
0
0
SEQEND
8
PUZZLE_DOG_BONES
0
POLYLINE
8
PUZZLE_DOG_BONES
66
1
70
1
10
0
20
0
30
0
0
VERTEX
8
PUZZLE_DOG_BONES
10
-18
20
355
30
0
0
VERTEX
8
PUZZLE_DOG_BONES
10
0
20
355
30
0
0
VERTEX
8
PUZZLE_DOG_BONES
10
0
20
415
30
0
0
VERTEX
8
PUZZLE_DOG_BONES
10
-18
20
415
30
0
0
SEQEND
8
PUZZLE_DOG_BONES
0
POLYLINE
8
PUZZLE_DOG_BONES
66
1
70
1
10
0
20
0
30
0
0
VERTEX
8
PUZZLE_DOG_BONES
10
-18
20
645
30
0
0
VERTEX
8
PUZZLE_DOG_BONES
10
0
20
645
30
0
0
VERTEX
8
PUZZLE_DOG_BONES
10
0
20
705
30
0
0
VERTEX
8
PUZZLE_DOG_BONES
10
-18
20
705
30
0
0
SEQEND
8
PUZZLE_DOG_BONES
0
POLYLINE
8
PUZZLE_SOCKET
66
1
70
1
10
0
20
0
30
0
0
VERTEX
8
PUZZLE_SOCKET
10
69.5
20
761
30
0
0
VERTEX
8
PUZZLE_SOCKET
10
120.5
20
761
30
0
0
VERTEX
8
PUZZLE_SOCKET
10
120.5
20
776
30
0
0
VERTEX
8
PUZZLE_SOCKET
10
69.5
20
776
30
0
0
SEQEND
8
PUZZLE_SOCKET
0
POLYLINE
8
PUZZLE_SOCKET
66
1
70
1
10
0
20
0
30
0
0
VERTEX
8
PUZZLE_SOCKET
10
69.5
20
-6
30
0
0
VERTEX
8
PUZZLE_SOCKET
10
120.5
20
-6
30
0
0
VERTEX
8
PUZZLE_SOCKET
10
120.5
20
9
30
0
0
VERTEX
8
PUZZLE_SOCKET
10
69.5
20
9
30
0
0
SEQEND
8
PUZZLE_SOCKET
0
POLYLINE
8
PUZZLE_SOCKET
66
1
70
1
10
0
20
0
30
0
0
VERTEX
8
PUZZLE_SOCKET
10
419.5
20
761
30
0
0
VERTEX
8
PUZZLE_SOCKET
10
470.5
20
761
30
0
0
VERTEX
8
PUZZLE_SOCKET
10
470.5
20
776
30
0
0
VERTEX
8
PUZZLE_SOCKET
10
419.5
20
776
30
0
0
SEQEND
8
PUZZLE_SOCKET
0
POLYLINE
8
PUZZLE_SOCKET
66
1
70
1
10
0
20
0
30
0
0
VERTEX
8
PUZZLE_SOCKET
10
419.5
20
-6
30
0
0
VERTEX
8
PUZZLE_SOCKET
10
470.5
20
-6
30
0
0
VERTEX
8
PUZZLE_SOCKET
10
470.5
20
9
30
0
0
VERTEX
8
PUZZLE_SOCKET
10
419.5
20
9
30
0
0
SEQEND
8
PUZZLE_SOCKET
0
CIRCLE
8
PUZZLE_HOLES_7_5MM
10
70.5
20
762
30
0
40
3.75
0
CIRCLE
8
PUZZLE_HOLES_7_5MM
10
119.5
20
762
30
0
40
3.75
0
CIRCLE
8
PUZZLE_HOLES_7_5MM
10
70.5
20
8
30
0
40
3.75
0
CIRCLE
8
PUZZLE_HOLES_7_5MM
10
119.5
20
8
30
0
40
3.75
0
CIRCLE
8
PUZZLE_HOLES_7_5MM
10
420.5
20
762
30
0
40
3.75
0
CIRCLE
8
PUZZLE_HOLES_7_5MM
10
469.5
20
762
30
0
40
3.75
0
CIRCLE
8
PUZZLE_HOLES_7_5MM
10
420.5
20
8
30
0
40
3.75
0
CIRCLE
8
PUZZLE_HOLES_7_5MM
10
469.5
20
8
30
0
40
3.75
0
CIRCLE
8
SCREWS_3MM
10
50
20
761
30
0
40
1.5
0
CIRCLE
8
SCREWS_3MM
10
50
20
9
30
0
40
1.5
0
CIRCLE
8
SCREWS_3MM
10
270
20
761
30
0
40
1.5
0
CIRCLE
8
SCREWS_3MM
10
270
20
9
30
0
40
1.5
0
CIRCLE
8
SCREWS_3MM
10
490
20
761
30
0
40
1.5
0
CIRCLE
8
SCREWS_3MM
10
490
20
9
30
0
40
1.5
0
CIRCLE
8
RUNNERS_3MM
10
503
20
56
30
0
40
1.5
0
CIRCLE
8
RUNNERS_3MM
10
471
20
56
30
0
40
1.5
0
CIRCLE
8
RUNNERS_3MM
10
247
20
56
30
0
40
1.5
0
CIRCLE
8
RUNNERS_3MM
10
503
20
379
30
0
40
1.5
0
CIRCLE
8
RUNNERS_3MM
10
471
20
379
30
0
40
1.5
0
CIRCLE
8
RUNNERS_3MM
10
247
20
379
30
0
40
1.5
0
CIRCLE
8
RUNNERS_3MM
10
503
20
636
30
0
40
1.5
0
CIRCLE
8
RUNNERS_3MM
10
471
20
636
30
0
40
1.5
0
CIRCLE
8
RUNNERS_3MM
10
247
20
636
30
0
40
1.5
0
TEXT
8
UNIT_NUMBER
10
270
20
410
30
0
40
20
1
DR01
72
1
11
270
21
410
31
0
73
2
0
TEXT
8
UNIT_NUMBER
10
270
20
385
30
0
40
20
1
BUR
72
1
11
270
21
385
31
0
73
2
0
TEXT
8
UNIT_NUMBER
10
270
20
360
30
0
40
20
1
540x770
72
1
11
270
21
360
31
0
73
2
0
ENDSEC
0
EOF
