0
SECTION
2
HEADER
9
$ACADVER
1
AC1009
9
$INSBASE
10
0
20
0
30
0
9
$EXTMIN
10
0
20
0
30
0
9
$EXTMAX
10
3472
20
4436
30
0
0
ENDSEC
0
SECTION
2
TABLES
0
TABLE
2
LAYER
70
14
0
LAYER
2
0
70
0
62
7
6
CONTINUOUS
0
LAYER
2
OUTLINE
70
0
62
7
6
CONTINUOUS
0
LAYER
2
PUZZLE_SOCKET
70
0
62
1
6
CONTINUOUS
0
LAYER
2
PUZZLE_DOG_BONES
70
0
62
2
6
CONTINUOUS
0
LAYER
2
PUZZLE_HOLES_7_5MM
70
0
62
3
6
CONTINUOUS
0
LAYER
2
SCREWS_3MM
70
0
62
4
6
CONTINUOUS
0
LAYER
2
SHAKER_PANEL_POCKET
70
0
62
41
6
CONTINUOUS
0
LAYER
2
RUNNERS_3MM
70
0
62
5
6
CONTINUOUS
0
LAYER
2
UNIT_NUMBER
70
0
62
94
6
CONTINUOUS
0
LAYER
2
DRAWER_RUNNER_POCKET
70
0
62
1
6
CONTINUOUS
0
LAYER
2
DRAWER_BOTTOM_POCKET
70
0
62
2
6
CONTINUOUS
0
LAYER
2
WATCH_DIVIDER_SLOT
70
0
62
7
6
CONTINUOUS
0
LAYER
2
WATCH_GLASS_REBATE
70
0
62
7
6
CONTINUOUS
0
LAYER
2
LED_GROOVE
70
0
62
7
6
CONTINUOUS
0
ENDTAB
0
ENDSEC
0
SECTION
2
ENTITIES
0
POLYLINE
8
OUTLINE
66
1
70
1
10
0
20
0
30
0
0
VERTEX
8
OUTLINE
10
0
20
2280
30
0
0
VERTEX
8
OUTLINE
10
540
20
2280
30
0
0
VERTEX
8
OUTLINE
10
540
20
2350
30
0
0
VERTEX
8
OUTLINE
10
540
20
2356
30
0
0
VERTEX
8
OUTLINE
10
553
20
2356
30
0
0
VERTEX
8
OUTLINE
10
553
20
2350
30
0
0
VERTEX
8
OUTLINE
10
558
20
2350
30
0
0
VERTEX
8
OUTLINE
10
558
20
2400
30
0
0
VERTEX
8
OUTLINE
10
553
20
2400
30
0
0
VERTEX
8
OUTLINE
10
553
20
2394
30
0
0
VERTEX
8
OUTLINE
10
540
20
2394
30
0
0
VERTEX
8
OUTLINE
10
540
20
2400
30
0
0
VERTEX
8
OUTLINE
10
540
20
3330
30
0
0
VERTEX
8
OUTLINE
10
540
20
3336
30
0
0
VERTEX
8
OUTLINE
10
553
20
3336
30
0
0
VERTEX
8
OUTLINE
10
553
20
3330
30
0
0
VERTEX
8
OUTLINE
10
558
20
3330
30
0
0
VERTEX
8
OUTLINE
10
558
20
3380
30
0
0
VERTEX
8
OUTLINE
10
553
20
3380
30
0
0
VERTEX
8
OUTLINE
10
553
20
3374
30
0
0
VERTEX
8
OUTLINE
10
540
20
3374
30
0
0
VERTEX
8
OUTLINE
10
540
20
3380
30
0
0
VERTEX
8
OUTLINE
10
540
20
4310
30
0
0
VERTEX
8
OUTLINE
10
540
20
4316
30
0
0
VERTEX
8
OUTLINE
10
553
20
4316
30
0
0
VERTEX
8
OUTLINE
10
553
20
4310
30
0
0
VERTEX
8
OUTLINE
10
558
20
4310
30
0
0
VERTEX
8
OUTLINE
10
558
20
4360
30
0
0
VERTEX
8
OUTLINE
10
553
20
4360
30
0
0
VERTEX
8
OUTLINE
10
553
20
4354
30
0
0
VERTEX
8
OUTLINE
10
540
20
4354
30
0
0
VERTEX
8
OUTLINE
10
540
20
4360
30
0
0
VERTEX
8
OUTLINE
10
540
20
4430
30
0
0
VERTEX
8
OUTLINE
10
0
20
4430
30
0
0
SEQEND
8
OUTLINE
0
POLYLINE
8
PUZZLE_DOG_BONES
66
1
70
1
10
0
20
0
30
0
0
VERTEX
8
PUZZLE_DOG_BONES
10
540
20
2345
30
0
0
VERTEX
8
PUZZLE_DOG_BONES
10
558
20
2345
30
0
0
VERTEX
8
PUZZLE_DOG_BONES
10
558
20
2405
30
0
0
VERTEX
8
PUZZLE_DOG_BONES
10
540
20
2405
30
0
0
SEQEND
8
PUZZLE_DOG_BONES
0
POLYLINE
8
PUZZLE_DOG_BONES
66
1
70
1
10
0
20
0
30
0
0
VERTEX
8
PUZZLE_DOG_BONES
10
540
20
3325
30
0
0
VERTEX
8
PUZZLE_DOG_BONES
10
558
20
3325
30
0
0
VERTEX
8
PUZZLE_DOG_BONES
10
558
20
3385
30
0
0
VERTEX
8
PUZZLE_DOG_BONES
10
540
20
3385
30
0
0
SEQEND
8
PUZZLE_DOG_BONES
0
POLYLINE
8
PUZZLE_DOG_BONES
66
1
70
1
10
0
20
0
30
0
0
VERTEX
8
PUZZLE_DOG_BONES
10
540
20
4305
30
0
0
VERTEX
8
PUZZLE_DOG_BONES
10
558
20
4305
30
0
0
VERTEX
8
PUZZLE_DOG_BONES
10
558
20
4365
30
0
0
VERTEX
8
PUZZLE_DOG_BONES
10
540
20
4365
30
0
0
SEQEND
8
PUZZLE_DOG_BONES
0
POLYLINE
8
PUZZLE_SOCKET
66
1
70
1
10
0
20
0
30
0
0
VERTEX
8
PUZZLE_SOCKET
10
69.5
20
4421
30
0
0
VERTEX
8
PUZZLE_SOCKET
10
120.5
20
4421
30
0
0
VERTEX
8
PUZZLE_SOCKET
10
120.5
20
4436
30
0
0
VERTEX
8
PUZZLE_SOCKET
10
69.5
20
4436
30
0
0
SEQEND
8
PUZZLE_SOCKET
0
POLYLINE
8
PUZZLE_SOCKET
66
1
70
1
10
0
20
0
30
0
0
VERTEX
8
PUZZLE_SOCKET
10
69.5
20
2274
30
0
0
VERTEX
8
PUZZLE_SOCKET
10
120.5
20
2274
30
0
0
VERTEX
8
PUZZLE_SOCKET
10
120.5
20
2289
30
0
0
VERTEX
8
PUZZLE_SOCKET
10
69.5
20
2289
30
0
0
SEQEND
8
PUZZLE_SOCKET
0
POLYLINE
8
PUZZLE_SOCKET
66
1
70
1
10
0
20
0
30
0
0
VERTEX
8
PUZZLE_SOCKET
10
419.5
20
4421
30
0
0
VERTEX
8
PUZZLE_SOCKET
10
470.5
20
4421
30
0
0
VERTEX
8
PUZZLE_SOCKET
10
470.5
20
4436
30
0
0
VERTEX
8
PUZZLE_SOCKET
10
419.5
20
4436
30
0
0
SEQEND
8
PUZZLE_SOCKET
0
POLYLINE
8
PUZZLE_SOCKET
66
1
70
1
10
0
20
0
30
0
0
VERTEX
8
PUZZLE_SOCKET
10
419.5
20
2274
30
0
0
VERTEX
8
PUZZLE_SOCKET
10
470.5
20
2274
30
0
0
VERTEX
8
PUZZLE_SOCKET
10
470.5
20
2289
30
0
0
VERTEX
8
PUZZLE_SOCKET
10
419.5
20
2289
30
0
0
SEQEND
8
PUZZLE_SOCKET
0
CIRCLE
8
PUZZLE_HOLES_7_5MM
10
70.5
20
4422
30
0
40
3.75
0
CIRCLE
8
PUZZLE_HOLES_7_5MM
10
119.5
20
4422
30
0
40
3.75
0
CIRCLE
8
PUZZLE_HOLES_7_5MM
10
70.5
20
2288
30
0
40
3.75
0
CIRCLE
8
PUZZLE_HOLES_7_5MM
10
119.5
20
2288
30
0
40
3.75
0
CIRCLE
8
PUZZLE_HOLES_7_5MM
10
420.5
20
4422
30
0
40
3.75
0
CIRCLE
8
PUZZLE_HOLES_7_5MM
10
469.5
20
4422
30
0
40
3.75
0
CIRCLE
8
PUZZLE_HOLES_7_5MM
10
420.5
20
2288
30
0
40
3.75
0
CIRCLE
8
PUZZLE_HOLES_7_5MM
10
469.5
20
2288
30
0
40
3.75
0
CIRCLE
8
SCREWS_3MM
10
50
20
4421
30
0
40
1.5
0
CIRCLE
8
SCREWS_3MM
10
50
20
2289
30
0
40
1.5
0
CIRCLE
8
SCREWS_3MM
10
270
20
4421
30
0
40
1.5
0
CIRCLE
8
SCREWS_3MM
10
270
20
2289
30
0
40
1.5
0
CIRCLE
8
SCREWS_3MM
10
490
20
4421
30
0
40
1.5
0
CIRCLE
8
SCREWS_3MM
10
490
20
2289
30
0
40
1.5
0
CIRCLE
8
RUNNERS_3MM
10
112
20
2336
30
0
40
1.5
0
CIRCLE
8
RUNNERS_3MM
10
144
20
2336
30
0
40
1.5
0
CIRCLE
8
RUNNERS_3MM
10
368
20
2336
30
0
40
1.5
0
CIRCLE
8
RUNNERS_3MM
10
112
20
2539
30
0
40
1.5
0
CIRCLE
8
RUNNERS_3MM
10
144
20
2539
30
0
40
1.5
0
CIRCLE
8
RUNNERS_3MM
10
368
20
2539
30
0
40
1.5
0
CIRCLE
8
SCREWS_3MM
10
50
20
2735
30
0
40
1.5
0
CIRCLE
8
SCREWS_3MM
10
270
20
2735
30
0
40
1.5
0
CIRCLE
8
SCREWS_3MM
10
490
20
2735
30
0
40
1.5
0
TEXT
8
UNIT_NUMBER
10
270
20
3367.5
30
0
40
20
1
W01 BUL
72
1
11
270
21
3367.5
31
0
73
2
0
TEXT
8
UNIT_NUMBER
10
270
20
3342.5
30
0
40
20
1
540x2150
72
1
11
270
21
3342.5
31
0
73
2
0
POLYLINE
8
OUTLINE
66
1
70
1
10
0
20
0
30
0
0
VERTEX
8
OUTLINE
10
626
20
2280
30
0
0
VERTEX
8
OUTLINE
10
1166
20
2280
30
0
0
VERTEX
8
OUTLINE
10
1166
20
4430
30
0
0
VERTEX
8
OUTLINE
10
626
20
4430
30
0
0
VERTEX
8
OUTLINE
10
626
20
4360
30
0
0
VERTEX
8
OUTLINE
10
626
20
4354
30
0
0
VERTEX
8
OUTLINE
10
613
20
4354
30
0
0
VERTEX
8
OUTLINE
10
613
20
4360
30
0
0
VERTEX
8
OUTLINE
10
608
20
4360
30
0
0
VERTEX
8
OUTLINE
10
608
20
4310
30
0
0
VERTEX
8
OUTLINE
10
613
20
4310
30
0
0
VERTEX
8
OUTLINE
10
613
20
4316
30
0
0
VERTEX
8
OUTLINE
10
626
20
4316
30
0
0
VERTEX
8
OUTLINE
10
626
20
4310
30
0
0
VERTEX
8
OUTLINE
10
626
20
3380
30
0
0
VERTEX
8
OUTLINE
10
626
20
3374
30
0
0
VERTEX
8
OUTLINE
10
613
20
3374
30
0
0
VERTEX
8
OUTLINE
10
613
20
3380
30
0
0
VERTEX
8
OUTLINE
10
608
20
3380
30
0
0
VERTEX
8
OUTLINE
10
608
20
3330
30
0
0
VERTEX
8
OUTLINE
10
613
20
3330
30
0
0
VERTEX
8
OUTLINE
10
613
20
3336
30
0
0
VERTEX
8
OUTLINE
10
626
20
3336
30
0
0
VERTEX
8
OUTLINE
10
626
20
3330
30
0
0
VERTEX
8
OUTLINE
10
626
20
2400
30
0
0
VERTEX
8
OUTLINE
10
626
20
2394
30
0
0
VERTEX
8
OUTLINE
10
613
20
2394
30
0
0
VERTEX
8
OUTLINE
10
613
20
2400
30
0
0
VERTEX
8
OUTLINE
10
608
20
2400
30
0
0
VERTEX
8
OUTLINE
10
608
20
2350
30
0
0
VERTEX
8
OUTLINE
10
613
20
2350
30
0
0
VERTEX
8
OUTLINE
10
613
20
2356
30
0
0
VERTEX
8
OUTLINE
10
626
20
2356
30
0
0
VERTEX
8
OUTLINE
10
626
20
2350
30
0
0
SEQEND
8
OUTLINE
0
POLYLINE
8
PUZZLE_DOG_BONES
66
1
70
1
10
0
20
0
30
0
0
VERTEX
8
PUZZLE_DOG_BONES
10
608
20
2345
30
0
0
VERTEX
8
PUZZLE_DOG_BONES
10
626
20
2345
30
0
0
VERTEX
8
PUZZLE_DOG_BONES
10
626
20
2405
30
0
0
VERTEX
8
PUZZLE_DOG_BONES
10
608
20
2405
30
0
0
SEQEND
8
PUZZLE_DOG_BONES
0
POLYLINE
8
PUZZLE_DOG_BONES
66
1
70
1
10
0
20
0
30
0
0
VERTEX
8
PUZZLE_DOG_BONES
10
608
20
3325
30
0
0
VERTEX
8
PUZZLE_DOG_BONES
10
626
20
3325
30
0
0
VERTEX
8
PUZZLE_DOG_BONES
10
626
20
3385
30
0
0
VERTEX
8
PUZZLE_DOG_BONES
10
608
20
3385
30
0
0
SEQEND
8
PUZZLE_DOG_BONES
0
POLYLINE
8
PUZZLE_DOG_BONES
66
1
70
1
10
0
20
0
30
0
0
VERTEX
8
PUZZLE_DOG_BONES
10
608
20
4305
30
0
0
VERTEX
8
PUZZLE_DOG_BONES
10
626
20
4305
30
0
0
VERTEX
8
PUZZLE_DOG_BONES
10
626
20
4365
30
0
0
VERTEX
8
PUZZLE_DOG_BONES
10
608
20
4365
30
0
0
SEQEND
8
PUZZLE_DOG_BONES
0
POLYLINE
8
PUZZLE_SOCKET
66
1
70
1
10
0
20
0
30
0
0
VERTEX
8
PUZZLE_SOCKET
10
695.5
20
4421
30
0
0
VERTEX
8
PUZZLE_SOCKET
10
746.5
20
4421
30
0
0
VERTEX
8
PUZZLE_SOCKET
10
746.5
20
4436
30
0
0
VERTEX
8
PUZZLE_SOCKET
10
695.5
20
4436
30
0
0
SEQEND
8
PUZZLE_SOCKET
0
POLYLINE
8
PUZZLE_SOCKET
66
1
70
1
10
0
20
0
30
0
0
VERTEX
8
PUZZLE_SOCKET
10
695.5
20
2274
30
0
0
VERTEX
8
PUZZLE_SOCKET
10
746.5
20
2274
30
0
0
VERTEX
8
PUZZLE_SOCKET
10
746.5
20
2289
30
0
0
VERTEX
8
PUZZLE_SOCKET
10
695.5
20
2289
30
0
0
SEQEND
8
PUZZLE_SOCKET
0
POLYLINE
8
PUZZLE_SOCKET
66
1
70
1
10
0
20
0
30
0
0
VERTEX
8
PUZZLE_SOCKET
10
1045.5
20
4421
30
0
0
VERTEX
8
PUZZLE_SOCKET
10
1096.5
20
4421
30
0
0
VERTEX
8
PUZZLE_SOCKET
10
1096.5
20
4436
30
0
0
VERTEX
8
PUZZLE_SOCKET
10
1045.5
20
4436
30
0
0
SEQEND
8
PUZZLE_SOCKET
0
POLYLINE
8
PUZZLE_SOCKET
66
1
70
1
10
0
20
0
30
0
0
VERTEX
8
PUZZLE_SOCKET
10
1045.5
20
2274
30
0
0
VERTEX
8
PUZZLE_SOCKET
10
1096.5
20
2274
30
0
0
VERTEX
8
PUZZLE_SOCKET
10
1096.5
20
2289
30
0
0
VERTEX
8
PUZZLE_SOCKET
10
1045.5
20
2289
30
0
0
SEQEND
8
PUZZLE_SOCKET
0
CIRCLE
8
PUZZLE_HOLES_7_5MM
10
696.5
20
4422
30
0
40
3.75
0
CIRCLE
8
PUZZLE_HOLES_7_5MM
10
745.5
20
4422
30
0
40
3.75
0
CIRCLE
8
PUZZLE_HOLES_7_5MM
10
696.5
20
2288
30
0
40
3.75
0
CIRCLE
8
PUZZLE_HOLES_7_5MM
10
745.5
20
2288
30
0
40
3.75
0
CIRCLE
8
PUZZLE_HOLES_7_5MM
10
1046.5
20
4422
30
0
40
3.75
0
CIRCLE
8
PUZZLE_HOLES_7_5MM
10
1095.5
20
4422
30
0
40
3.75
0
CIRCLE
8
PUZZLE_HOLES_7_5MM
10
1046.5
20
2288
30
0
40
3.75
0
CIRCLE
8
PUZZLE_HOLES_7_5MM
10
1095.5
20
2288
30
0
40
3.75
0
CIRCLE
8
SCREWS_3MM
10
676
20
4421
30
0
40
1.5
0
CIRCLE
8
SCREWS_3MM
10
676
20
2289
30
0
40
1.5
0
CIRCLE
8
SCREWS_3MM
10
896
20
4421
30
0
40
1.5
0
CIRCLE
8
SCREWS_3MM
10
896
20
2289
30
0
40
1.5
0
CIRCLE
8
SCREWS_3MM
10
1116
20
4421
30
0
40
1.5
0
CIRCLE
8
SCREWS_3MM
10
1116
20
2289
30
0
40
1.5
0
CIRCLE
8
RUNNERS_3MM
10
1054
20
2336
30
0
40
1.5
0
CIRCLE
8
RUNNERS_3MM
10
1022
20
2336
30
0
40
1.5
0
CIRCLE
8
RUNNERS_3MM
10
798
20
2336
30
0
40
1.5
0
CIRCLE
8
RUNNERS_3MM
10
1054
20
2539
30
0
40
1.5
0
CIRCLE
8
RUNNERS_3MM
10
1022
20
2539
30
0
40
1.5
0
CIRCLE
8
RUNNERS_3MM
10
798
20
2539
30
0
40
1.5
0
CIRCLE
8
SCREWS_3MM
10
676
20
2735
30
0
40
1.5
0
CIRCLE
8
SCREWS_3MM
10
896
20
2735
30
0
40
1.5
0
CIRCLE
8
SCREWS_3MM
10
1116
20
2735
30
0
40
1.5
0
TEXT
8
UNIT_NUMBER
10
896
20
3367.5
30
0
40
20
1
W01 BUR
72
1
11
896
21
3367.5
31
0
73
2
0
TEXT
8
UNIT_NUMBER
10
896
20
3342.5
30
0
40
20
1
540x2150
72
1
11
896
21
3342.5
31
0
73
2
0
POLYLINE
8
OUTLINE
66
1
70
1
10
0
20
0
30
0
0
VERTEX
8
OUTLINE
10
1234
20
3854
30
0
0
VERTEX
8
OUTLINE
10
1304
20
3854
30
0
0
VERTEX
8
OUTLINE
10
1310
20
3854
30
0
0
VERTEX
8
OUTLINE
10
1310
20
3841
30
0
0
VERTEX
8
OUTLINE
10
1304
20
3841
30
0
0
VERTEX
8
OUTLINE
10
1304
20
3836
30
0
0
VERTEX
8
OUTLINE
10
1354
20
3836
30
0
0
VERTEX
8
OUTLINE
10
1354
20
3841
30
0
0
VERTEX
8
OUTLINE
10
1348
20
3841
30
0
0
VERTEX
8
OUTLINE
10
1348
20
3854
30
0
0
VERTEX
8
OUTLINE
10
1354
20
3854
30
0
0
VERTEX
8
OUTLINE
10
1654
20
3854
30
0
0
VERTEX
8
OUTLINE
10
1660
20
3854
30
0
0
VERTEX
8
OUTLINE
10
1660
20
3841
30
0
0
VERTEX
8
OUTLINE
10
1654
20
3841
30
0
0
VERTEX
8
OUTLINE
10
1654
20
3836
30
0
0
VERTEX
8
OUTLINE
10
1704
20
3836
30
0
0
VERTEX
8
OUTLINE
10
1704
20
3841
30
0
0
VERTEX
8
OUTLINE
10
1698
20
3841
30
0
0
VERTEX
8
OUTLINE
10
1698
20
3854
30
0
0
VERTEX
8
OUTLINE
10
1704
20
3854
30
0
0
VERTEX
8
OUTLINE
10
1774
20
3854
30
0
0
VERTEX
8
OUTLINE
10
1774
20
4418
30
0
0
VERTEX
8
OUTLINE
10
1704
20
4418
30
0
0
VERTEX
8
OUTLINE
10
1698
20
4418
30
0
0
VERTEX
8
OUTLINE
10
1698
20
4431
30
0
0
VERTEX
8
OUTLINE
10
1704
20
4431
30
0
0
VERTEX
8
OUTLINE
10
1704
20
4436
30
0
0
VERTEX
8
OUTLINE
10
1654
20
4436
30
0
0
VERTEX
8
OUTLINE
10
1654
20
4431
30
0
0
VERTEX
8
OUTLINE
10
1660
20
4431
30
0
0
VERTEX
8
OUTLINE
10
1660
20
4418
30
0
0
VERTEX
8
OUTLINE
10
1654
20
4418
30
0
0
VERTEX
8
OUTLINE
10
1354
20
4418
30
0
0
VERTEX
8
OUTLINE
10
1348
20
4418
30
0
0
VERTEX
8
OUTLINE
10
1348
20
4431
30
0
0
VERTEX
8
OUTLINE
10
1354
20
4431
30
0
0
VERTEX
8
OUTLINE
10
1354
20
4436
30
0
0
VERTEX
8
OUTLINE
10
1304
20
4436
30
0
0
VERTEX
8
OUTLINE
10
1304
20
4431
30
0
0
VERTEX
8
OUTLINE
10
1310
20
4431
30
0
0
VERTEX
8
OUTLINE
10
1310
20
4418
30
0
0
VERTEX
8
OUTLINE
10
1304
20
4418
30
0
0
VERTEX
8
OUTLINE
10
1234
20
4418
30
0
0
VERTEX
8
OUTLINE
10
1234
20
4348
30
0
0
VERTEX
8
OUTLINE
10
1234
20
4342
30
0
0
VERTEX
8
OUTLINE
10
1221
20
4342
30
0
0
VERTEX
8
OUTLINE
10
1221
20
4348
30
0
0
VERTEX
8
OUTLINE
10
1216
20
4348
30
0
0
VERTEX
8
OUTLINE
10
1216
20
4298
30
0
0
VERTEX
8
OUTLINE
10
1221
20
4298
30
0
0
VERTEX
8
OUTLINE
10
1221
20
4304
30
0
0
VERTEX
8
OUTLINE
10
1234
20
4304
30
0
0
VERTEX
8
OUTLINE
10
1234
20
4298
30
0
0
VERTEX
8
OUTLINE
10
1234
20
3974
30
0
0
VERTEX
8
OUTLINE
10
1234
20
3968
30
0
0
VERTEX
8
OUTLINE
10
1221
20
3968
30
0
0
VERTEX
8
OUTLINE
10
1221
20
3974
30
0
0
VERTEX
8
OUTLINE
10
1216
20
3974
30
0
0
VERTEX
8
OUTLINE
10
1216
20
3924
30
0
0
VERTEX
8
OUTLINE
10
1221
20
3924
30
0
0
VERTEX
8
OUTLINE
10
1221
20
3930
30
0
0
VERTEX
8
OUTLINE
10
1234
20
3930
30
0
0
VERTEX
8
OUTLINE
10
1234
20
3924
30
0
0
SEQEND
8
OUTLINE
0
POLYLINE
8
PUZZLE_DOG_BONES
66
1
70
1
10
0
20
0
30
0
0
VERTEX
8
PUZZLE_DOG_BONES
10
1299
20
4418
30
0
0
VERTEX
8
PUZZLE_DOG_BONES
10
1359
20
4418
30
0
0
VERTEX
8
PUZZLE_DOG_BONES
10
1359
20
4436
30
0
0
VERTEX
8
PUZZLE_DOG_BONES
10
1299
20
4436
30
0
0
SEQEND
8
PUZZLE_DOG_BONES
0
POLYLINE
8
PUZZLE_DOG_BONES
66
1
70
1
10
0
20
0
30
0
0
VERTEX
8
PUZZLE_DOG_BONES
10
1299
20
3836
30
0
0
VERTEX
8
PUZZLE_DOG_BONES
10
1359
20
3836
30
0
0
VERTEX
8
PUZZLE_DOG_BONES
10
1359
20
3854
30
0
0
VERTEX
8
PUZZLE_DOG_BONES
10
1299
20
3854
30
0
0
SEQEND
8
PUZZLE_DOG_BONES
0
POLYLINE
8
PUZZLE_DOG_BONES
66
1
70
1
10
0
20
0
30
0
0
VERTEX
8
PUZZLE_DOG_BONES
10
1649
20
4418
30
0
0
VERTEX
8
PUZZLE_DOG_BONES
10
1709
20
4418
30
0
0
VERTEX
8
PUZZLE_DOG_BONES
10
1709
20
4436
30
0
0
VERTEX
8
PUZZLE_DOG_BONES
10
1649
20
4436
30
0
0
SEQEND
8
PUZZLE_DOG_BONES
0
POLYLINE
8
PUZZLE_DOG_BONES
66
1
70
1
10
0
20
0
30
0
0
VERTEX
8
PUZZLE_DOG_BONES
10
1649
20
3836
30
0
0
VERTEX
8
PUZZLE_DOG_BONES
10
1709
20
3836
30
0
0
VERTEX
8
PUZZLE_DOG_BONES
10
1709
20
3854
30
0
0
VERTEX
8
PUZZLE_DOG_BONES
10
1649
20
3854
30
0
0
SEQEND
8
PUZZLE_DOG_BONES
0
POLYLINE
8
PUZZLE_DOG_BONES
66
1
70
1
10
0
20
0
30
0
0
VERTEX
8
PUZZLE_DOG_BONES
10
1216
20
3919
30
0
0
VERTEX
8
PUZZLE_DOG_BONES
10
1234
20
3919
30
0
0
VERTEX
8
PUZZLE_DOG_BONES
10
1234
20
3979
30
0
0
VERTEX
8
PUZZLE_DOG_BONES
10
1216
20
3979
30
0
0
SEQEND
8
PUZZLE_DOG_BONES
0
POLYLINE
8
PUZZLE_DOG_BONES
66
1
70
1
10
0
20
0
30
0
0
VERTEX
8
PUZZLE_DOG_BONES
10
1216
20
4293
30
0
0
VERTEX
8
PUZZLE_DOG_BONES
10
1234
20
4293
30
0
0
VERTEX
8
PUZZLE_DOG_BONES
10
1234
20
4353
30
0
0
VERTEX
8
PUZZLE_DOG_BONES
10
1216
20
4353
30
0
0
SEQEND
8
PUZZLE_DOG_BONES
0
TEXT
8
UNIT_NUMBER
10
1504
20
4148.5
30
0
40
20
1
W01 TOP
72
1
11
1504
21
4148.5
31
0
73
2
0
TEXT
8
UNIT_NUMBER
10
1504
20
4123.5
30
0
40
20
1
564x540
72
1
11
1504
21
4123.5
31
0
73
2
0
POLYLINE
8
OUTLINE
66
1
70
1
10
0
20
0
30
0
0
VERTEX
8
OUTLINE
10
1842
20
3854
30
0
0
VERTEX
8
OUTLINE
10
1912
20
3854
30
0
0
VERTEX
8
OUTLINE
10
1918
20
3854
30
0
0
VERTEX
8
OUTLINE
10
1918
20
3841
30
0
0
VERTEX
8
OUTLINE
10
1912
20
3841
30
0
0
VERTEX
8
OUTLINE
10
1912
20
3836
30
0
0
VERTEX
8
OUTLINE
10
1962
20
3836
30
0
0
VERTEX
8
OUTLINE
10
1962
20
3841
30
0
0
VERTEX
8
OUTLINE
10
1956
20
3841
30
0
0
VERTEX
8
OUTLINE
10
1956
20
3854
30
0
0
VERTEX
8
OUTLINE
10
1962
20
3854
30
0
0
VERTEX
8
OUTLINE
10
2262
20
3854
30
0
0
VERTEX
8
OUTLINE
10
2268
20
3854
30
0
0
VERTEX
8
OUTLINE
10
2268
20
3841
30
0
0
VERTEX
8
OUTLINE
10
2262
20
3841
30
0
0
VERTEX
8
OUTLINE
10
2262
20
3836
30
0
0
VERTEX
8
OUTLINE
10
2312
20
3836
30
0
0
VERTEX
8
OUTLINE
10
2312
20
3841
30
0
0
VERTEX
8
OUTLINE
10
2306
20
3841
30
0
0
VERTEX
8
OUTLINE
10
2306
20
3854
30
0
0
VERTEX
8
OUTLINE
10
2312
20
3854
30
0
0
VERTEX
8
OUTLINE
10
2382
20
3854
30
0
0
VERTEX
8
OUTLINE
10
2382
20
4418
30
0
0
VERTEX
8
OUTLINE
10
2312
20
4418
30
0
0
VERTEX
8
OUTLINE
10
2306
20
4418
30
0
0
VERTEX
8
OUTLINE
10
2306
20
4431
30
0
0
VERTEX
8
OUTLINE
10
2312
20
4431
30
0
0
VERTEX
8
OUTLINE
10
2312
20
4436
30
0
0
VERTEX
8
OUTLINE
10
2262
20
4436
30
0
0
VERTEX
8
OUTLINE
10
2262
20
4431
30
0
0
VERTEX
8
OUTLINE
10
2268
20
4431
30
0
0
VERTEX
8
OUTLINE
10
2268
20
4418
30
0
0
VERTEX
8
OUTLINE
10
2262
20
4418
30
0
0
VERTEX
8
OUTLINE
10
1962
20
4418
30
0
0
VERTEX
8
OUTLINE
10
1956
20
4418
30
0
0
VERTEX
8
OUTLINE
10
1956
20
4431
30
0
0
VERTEX
8
OUTLINE
10
1962
20
4431
30
0
0
VERTEX
8
OUTLINE
10
1962
20
4436
30
0
0
VERTEX
8
OUTLINE
10
1912
20
4436
30
0
0
VERTEX
8
OUTLINE
10
1912
20
4431
30
0
0
VERTEX
8
OUTLINE
10
1918
20
4431
30
0
0
VERTEX
8
OUTLINE
10
1918
20
4418
30
0
0
VERTEX
8
OUTLINE
10
1912
20
4418
30
0
0
VERTEX
8
OUTLINE
10
1842
20
4418
30
0
0
VERTEX
8
OUTLINE
10
1842
20
4348
30
0
0
VERTEX
8
OUTLINE
10
1842
20
4342
30
0
0
VERTEX
8
OUTLINE
10
1829
20
4342
30
0
0
VERTEX
8
OUTLINE
10
1829
20
4348
30
0
0
VERTEX
8
OUTLINE
10
1824
20
4348
30
0
0
VERTEX
8
OUTLINE
10
1824
20
4298
30
0
0
VERTEX
8
OUTLINE
10
1829
20
4298
30
0
0
VERTEX
8
OUTLINE
10
1829
20
4304
30
0
0
VERTEX
8
OUTLINE
10
1842
20
4304
30
0
0
VERTEX
8
OUTLINE
10
1842
20
4298
30
0
0
VERTEX
8
OUTLINE
10
1842
20
3974
30
0
0
VERTEX
8
OUTLINE
10
1842
20
3968
30
0
0
VERTEX
8
OUTLINE
10
1829
20
3968
30
0
0
VERTEX
8
OUTLINE
10
1829
20
3974
30
0
0
VERTEX
8
OUTLINE
10
1824
20
3974
30
0
0
VERTEX
8
OUTLINE
10
1824
20
3924
30
0
0
VERTEX
8
OUTLINE
10
1829
20
3924
30
0
0
VERTEX
8
OUTLINE
10
1829
20
3930
30
0
0
VERTEX
8
OUTLINE
10
1842
20
3930
30
0
0
VERTEX
8
OUTLINE
10
1842
20
3924
30
0
0
SEQEND
8
OUTLINE
0
POLYLINE
8
PUZZLE_DOG_BONES
66
1
70
1
10
0
20
0
30
0
0
VERTEX
8
PUZZLE_DOG_BONES
10
1907
20
4418
30
0
0
VERTEX
8
PUZZLE_DOG_BONES
10
1967
20
4418
30
0
0
VERTEX
8
PUZZLE_DOG_BONES
10
1967
20
4436
30
0
0
VERTEX
8
PUZZLE_DOG_BONES
10
1907
20
4436
30
0
0
SEQEND
8
PUZZLE_DOG_BONES
0
POLYLINE
8
PUZZLE_DOG_BONES
66
1
70
1
10
0
20
0
30
0
0
VERTEX
8
PUZZLE_DOG_BONES
10
1907
20
3836
30
0
0
VERTEX
8
PUZZLE_DOG_BONES
10
1967
20
3836
30
0
0
VERTEX
8
PUZZLE_DOG_BONES
10
1967
20
3854
30
0
0
VERTEX
8
PUZZLE_DOG_BONES
10
1907
20
3854
30
0
0
SEQEND
8
PUZZLE_DOG_BONES
0
POLYLINE
8
PUZZLE_DOG_BONES
66
1
70
1
10
0
20
0
30
0
0
VERTEX
8
PUZZLE_DOG_BONES
10
2257
20
4418
30
0
0
VERTEX
8
PUZZLE_DOG_BONES
10
2317
20
4418
30
0
0
VERTEX
8
PUZZLE_DOG_BONES
10
2317
20
4436
30
0
0
VERTEX
8
PUZZLE_DOG_BONES
10
2257
20
4436
30
0
0
SEQEND
8
PUZZLE_DOG_BONES
0
POLYLINE
8
PUZZLE_DOG_BONES
66
1
70
1
10
0
20
0
30
0
0
VERTEX
8
PUZZLE_DOG_BONES
10
2257
20
3836
30
0
0
VERTEX
8
PUZZLE_DOG_BONES
10
2317
20
3836
30
0
0
VERTEX
8
PUZZLE_DOG_BONES
10
2317
20
3854
30
0
0
VERTEX
8
PUZZLE_DOG_BONES
10
2257
20
3854
30
0
0
SEQEND
8
PUZZLE_DOG_BONES
0
POLYLINE
8
PUZZLE_DOG_BONES
66
1
70
1
10
0
20
0
30
0
0
VERTEX
8
PUZZLE_DOG_BONES
10
1824
20
3919
30
0
0
VERTEX
8
PUZZLE_DOG_BONES
10
1842
20
3919
30
0
0
VERTEX
8
PUZZLE_DOG_BONES
10
1842
20
3979
30
0
0
VERTEX
8
PUZZLE_DOG_BONES
10
1824
20
3979
30
0
0
SEQEND
8
PUZZLE_DOG_BONES
0
POLYLINE
8
PUZZLE_DOG_BONES
66
1
70
1
10
0
20
0
30
0
0
VERTEX
8
PUZZLE_DOG_BONES
10
1824
20
4293
30
0
0
VERTEX
8
PUZZLE_DOG_BONES
10
1842
20
4293
30
0
0
VERTEX
8
PUZZLE_DOG_BONES
10
1842
20
4353
30
0
0
VERTEX
8
PUZZLE_DOG_BONES
10
1824
20
4353
30
0
0
SEQEND
8
PUZZLE_DOG_BONES
0
TEXT
8
UNIT_NUMBER
10
2112
20
4161
30
0
40
20
1
W01
72
1
11
2112
21
4161
31
0
73
2
0
TEXT
8
UNIT_NUMBER
10
2112
20
4136
30
0
40
20
1
BOTTOM
72
1
11
2112
21
4136
31
0
73
2
0
TEXT
8
UNIT_NUMBER
10
2112
20
4111
30
0
40
20
1
564x540
72
1
11
2112
21
4111
31
0
73
2
0
POLYLINE
8
OUTLINE
66
1
70
1
10
0
20
0
30
0
0
VERTEX
8
OUTLINE
10
2438
20
2280
30
0
0
VERTEX
8
OUTLINE
10
3038
20
2280
30
0
0
VERTEX
8
OUTLINE
10
3038
20
4430
30
0
0
VERTEX
8
OUTLINE
10
2438
20
4430
30
0
0
SEQEND
8
OUTLINE
0
POLYLINE
8
PUZZLE_SOCKET
66
1
70
1
10
0
20
0
30
0
0
VERTEX
8
PUZZLE_SOCKET
10
2432
20
2349.5
30
0
0
VERTEX
8
PUZZLE_SOCKET
10
2447
20
2349.5
30
0
0
VERTEX
8
PUZZLE_SOCKET
10
2447
20
2400.5
30
0
0
VERTEX
8
PUZZLE_SOCKET
10
2432
20
2400.5
30
0
0
SEQEND
8
PUZZLE_SOCKET
0
POLYLINE
8
PUZZLE_SOCKET
66
1
70
1
10
0
20
0
30
0
0
VERTEX
8
PUZZLE_SOCKET
10
2432
20
3329.5
30
0
0
VERTEX
8
PUZZLE_SOCKET
10
2447
20
3329.5
30
0
0
VERTEX
8
PUZZLE_SOCKET
10
2447
20
3380.5
30
0
0
VERTEX
8
PUZZLE_SOCKET
10
2432
20
3380.5
30
0
0
SEQEND
8
PUZZLE_SOCKET
0
POLYLINE
8
PUZZLE_SOCKET
66
1
70
1
10
0
20
0
30
0
0
VERTEX
8
PUZZLE_SOCKET
10
2432
20
4309.5
30
0
0
VERTEX
8
PUZZLE_SOCKET
10
2447
20
4309.5
30
0
0
VERTEX
8
PUZZLE_SOCKET
10
2447
20
4360.5
30
0
0
VERTEX
8
PUZZLE_SOCKET
10
2432
20
4360.5
30
0
0
SEQEND
8
PUZZLE_SOCKET
0
POLYLINE
8
PUZZLE_SOCKET
66
1
70
1
10
0
20
0
30
0
0
VERTEX
8
PUZZLE_SOCKET
10
3029
20
2349.5
30
0
0
VERTEX
8
PUZZLE_SOCKET
10
3044
20
2349.5
30
0
0
VERTEX
8
PUZZLE_SOCKET
10
3044
20
2400.5
30
0
0
VERTEX
8
PUZZLE_SOCKET
10
3029
20
2400.5
30
0
0
SEQEND
8
PUZZLE_SOCKET
0
POLYLINE
8
PUZZLE_SOCKET
66
1
70
1
10
0
20
0
30
0
0
VERTEX
8
PUZZLE_SOCKET
10
3029
20
3329.5
30
0
0
VERTEX
8
PUZZLE_SOCKET
10
3044
20
3329.5
30
0
0
VERTEX
8
PUZZLE_SOCKET
10
3044
20
3380.5
30
0
0
VERTEX
8
PUZZLE_SOCKET
10
3029
20
3380.5
30
0
0
SEQEND
8
PUZZLE_SOCKET
0
POLYLINE
8
PUZZLE_SOCKET
66
1
70
1
10
0
20
0
30
0
0
VERTEX
8
PUZZLE_SOCKET
10
3029
20
4309.5
30
0
0
VERTEX
8
PUZZLE_SOCKET
10
3044
20
4309.5
30
0
0
VERTEX
8
PUZZLE_SOCKET
10
3044
20
4360.5
30
0
0
VERTEX
8
PUZZLE_SOCKET
10
3029
20
4360.5
30
0
0
SEQEND
8
PUZZLE_SOCKET
0
POLYLINE
8
PUZZLE_SOCKET
66
1
70
1
10
0
20
0
30
0
0
VERTEX
8
PUZZLE_SOCKET
10
2525.5
20
4421
30
0
0
VERTEX
8
PUZZLE_SOCKET
10
2576.5
20
4421
30
0
0
VERTEX
8
PUZZLE_SOCKET
10
2576.5
20
4436
30
0
0
VERTEX
8
PUZZLE_SOCKET
10
2525.5
20
4436
30
0
0
SEQEND
8
PUZZLE_SOCKET
0
POLYLINE
8
PUZZLE_SOCKET
66
1
70
1
10
0
20
0
30
0
0
VERTEX
8
PUZZLE_SOCKET
10
2899.5
20
4421
30
0
0
VERTEX
8
PUZZLE_SOCKET
10
2950.5
20
4421
30
0
0
VERTEX
8
PUZZLE_SOCKET
10
2950.5
20
4436
30
0
0
VERTEX
8
PUZZLE_SOCKET
10
2899.5
20
4436
30
0
0
SEQEND
8
PUZZLE_SOCKET
0
POLYLINE
8
PUZZLE_SOCKET
66
1
70
1
10
0
20
0
30
0
0
VERTEX
8
PUZZLE_SOCKET
10
2525.5
20
2274
30
0
0
VERTEX
8
PUZZLE_SOCKET
10
2576.5
20
2274
30
0
0
VERTEX
8
PUZZLE_SOCKET
10
2576.5
20
2289
30
0
0
VERTEX
8
PUZZLE_SOCKET
10
2525.5
20
2289
30
0
0
SEQEND
8
PUZZLE_SOCKET
0
POLYLINE
8
PUZZLE_SOCKET
66
1
70
1
10
0
20
0
30
0
0
VERTEX
8
PUZZLE_SOCKET
10
2899.5
20
2274
30
0
0
VERTEX
8
PUZZLE_SOCKET
10
2950.5
20
2274
30
0
0
VERTEX
8
PUZZLE_SOCKET
10
2950.5
20
2289
30
0
0
VERTEX
8
PUZZLE_SOCKET
10
2899.5
20
2289
30
0
0
SEQEND
8
PUZZLE_SOCKET
0
CIRCLE
8
PUZZLE_HOLES_7_5MM
10
2446
20
2350.5
30
0
40
3.75
0
CIRCLE
8
PUZZLE_HOLES_7_5MM
10
2446
20
2399.5
30
0
40
3.75
0
CIRCLE
8
PUZZLE_HOLES_7_5MM
10
2446
20
3330.5
30
0
40
3.75
0
CIRCLE
8
PUZZLE_HOLES_7_5MM
10
2446
20
3379.5
30
0
40
3.75
0
CIRCLE
8
PUZZLE_HOLES_7_5MM
10
2446
20
4310.5
30
0
40
3.75
0
CIRCLE
8
PUZZLE_HOLES_7_5MM
10
2446
20
4359.5
30
0
40
3.75
0
CIRCLE
8
PUZZLE_HOLES_7_5MM
10
3030
20
2350.5
30
0
40
3.75
0
CIRCLE
8
PUZZLE_HOLES_7_5MM
10
3030
20
2399.5
30
0
40
3.75
0
CIRCLE
8
PUZZLE_HOLES_7_5MM
10
3030
20
3330.5
30
0
40
3.75
0
CIRCLE
8
PUZZLE_HOLES_7_5MM
10
3030
20
3379.5
30
0
40
3.75
0
CIRCLE
8
PUZZLE_HOLES_7_5MM
10
3030
20
4310.5
30
0
40
3.75
0
CIRCLE
8
PUZZLE_HOLES_7_5MM
10
3030
20
4359.5
30
0
40
3.75
0
CIRCLE
8
PUZZLE_HOLES_7_5MM
10
2526.5
20
4422
30
0
40
3.75
0
CIRCLE
8
PUZZLE_HOLES_7_5MM
10
2575.5
20
4422
30
0
40
3.75
0
CIRCLE
8
PUZZLE_HOLES_7_5MM
10
2900.5
20
4422
30
0
40
3.75
0
CIRCLE
8
PUZZLE_HOLES_7_5MM
10
2949.5
20
4422
30
0
40
3.75
0
CIRCLE
8
PUZZLE_HOLES_7_5MM
10
2526.5
20
2288
30
0
40
3.75
0
CIRCLE
8
PUZZLE_HOLES_7_5MM
10
2575.5
20
2288
30
0
40
3.75
0
CIRCLE
8
PUZZLE_HOLES_7_5MM
10
2900.5
20
2288
30
0
40
3.75
0
CIRCLE
8
PUZZLE_HOLES_7_5MM
10
2949.5
20
2288
30
0
40
3.75
0
CIRCLE
8
SCREWS_3MM
10
2447
20
2330
30
0
40
1.5
0
CIRCLE
8
SCREWS_3MM
10
3029
20
2330
30
0
40
1.5
0
CIRCLE
8
SCREWS_3MM
10
2447
20
2865
30
0
40
1.5
0
CIRCLE
8
SCREWS_3MM
10
3029
20
2865
30
0
40
1.5
0
CIRCLE
8
SCREWS_3MM
10
2447
20
3845
30
0
40
1.5
0
CIRCLE
8
SCREWS_3MM
10
3029
20
3845
30
0
40
1.5
0
CIRCLE
8
SCREWS_3MM
10
2447
20
4380
30
0
40
1.5
0
CIRCLE
8
SCREWS_3MM
10
3029
20
4380
30
0
40
1.5
0
CIRCLE
8
SCREWS_3MM
10
2506
20
4421
30
0
40
1.5
0
CIRCLE
8
SCREWS_3MM
10
2506
20
2289
30
0
40
1.5
0
CIRCLE
8
SCREWS_3MM
10
2738
20
4421
30
0
40
1.5
0
CIRCLE
8
SCREWS_3MM
10
2738
20
2289
30
0
40
1.5
0
CIRCLE
8
SCREWS_3MM
10
2970
20
4421
30
0
40
1.5
0
CIRCLE
8
SCREWS_3MM
10
2970
20
2289
30
0
40
1.5
0
CIRCLE
8
SCREWS_3MM
10
2506
20
2735
30
0
40
1.5
0
CIRCLE
8
SCREWS_3MM
10
2738
20
2735
30
0
40
1.5
0
CIRCLE
8
SCREWS_3MM
10
2970
20
2735
30
0
40
1.5
0
TEXT
8
UNIT_NUMBER
10
2738
20
3367.5
30
0
40
20
1
W01 BACK
72
1
11
2738
21
3367.5
31
0
73
2
0
TEXT
8
UNIT_NUMBER
10
2738
20
3342.5
30
0
40
20
1
600x2150
72
1
11
2738
21
3342.5
31
0
73
2
0
POLYLINE
8
OUTLINE
66
1
70
1
10
0
20
0
30
0
0
VERTEX
8
OUTLINE
10
520
20
1660
30
0
0
VERTEX
8
OUTLINE
10
520
20
2224
30
0
0
VERTEX
8
OUTLINE
10
0
20
2224
30
0
0
VERTEX
8
OUTLINE
10
0
20
1660
30
0
0
SEQEND
8
OUTLINE
0
TEXT
8
UNIT_NUMBER
10
235
20
1942
30
0
40
20
1
W01
50
90
72
1
11
235
21
1942
31
0
73
2
0
TEXT
8
UNIT_NUMBER
10
260
20
1942
30
0
40
20
1
PARTITION
50
90
72
1
11
260
21
1942
31
0
73
2
0
TEXT
8
UNIT_NUMBER
10
285
20
1942
30
0
40
20
1
564x520
50
90
72
1
11
285
21
1942
31
0
73
2
0
POLYLINE
8
OUTLINE
66
1
70
1
10
0
20
0
30
0
0
VERTEX
8
OUTLINE
10
734
20
1774
30
0
0
VERTEX
8
OUTLINE
10
734
20
2214
30
0
0
VERTEX
8
OUTLINE
10
570
20
2214
30
0
0
VERTEX
8
OUTLINE
10
570
20
1774
30
0
0
SEQEND
8
OUTLINE
0
POLYLINE
8
DRAWER_RUNNER_POCKET
66
1
70
1
10
0
20
0
30
0
0
VERTEX
8
DRAWER_RUNNER_POCKET
10
734
20
1764
30
0
0
VERTEX
8
DRAWER_RUNNER_POCKET
10
734
20
2224
30
0
0
VERTEX
8
DRAWER_RUNNER_POCKET
10
719
20
2224
30
0
0
VERTEX
8
DRAWER_RUNNER_POCKET
10
719
20
1764
30
0
0
SEQEND
8
DRAWER_RUNNER_POCKET
0
POLYLINE
8
DRAWER_BOTTOM_POCKET
66
1
70
1
10
0
20
0
30
0
0
VERTEX
8
DRAWER_BOTTOM_POCKET
10
719
20
1764
30
0
0
VERTEX
8
DRAWER_BOTTOM_POCKET
10
719
20
2224
30
0
0
VERTEX
8
DRAWER_BOTTOM_POCKET
10
700
20
2224
30
0
0
VERTEX
8
DRAWER_BOTTOM_POCKET
10
700
20
1764
30
0
0
SEQEND
8
DRAWER_BOTTOM_POCKET
0
TEXT
8
UNIT_NUMBER
10
639.7
20
1994
30
0
40
19.68
1
W01 D1-S~
50
90
72
1
11
639.7
21
1994
31
0
73
2
0
TEXT
8
UNIT_NUMBER
10
664.3
20
1994
30
0
40
19.68
1
440x164
50
90
72
1
11
664.3
21
1994
31
0
73
2
0
POLYLINE
8
OUTLINE
66
1
70
1
10
0
20
0
30
0
0
VERTEX
8
OUTLINE
10
948
20
1774
30
0
0
VERTEX
8
OUTLINE
10
948
20
2214
30
0
0
VERTEX
8
OUTLINE
10
784
20
2214
30
0
0
VERTEX
8
OUTLINE
10
784
20
1774
30
0
0
SEQEND
8
OUTLINE
0
POLYLINE
8
DRAWER_RUNNER_POCKET
66
1
70
1
10
0
20
0
30
0
0
VERTEX
8
DRAWER_RUNNER_POCKET
10
948
20
1764
30
0
0
VERTEX
8
DRAWER_RUNNER_POCKET
10
948
20
2224
30
0
0
VERTEX
8
DRAWER_RUNNER_POCKET
10
933
20
2224
30
0
0
VERTEX
8
DRAWER_RUNNER_POCKET
10
933
20
1764
30
0
0
SEQEND
8
DRAWER_RUNNER_POCKET
0
POLYLINE
8
DRAWER_BOTTOM_POCKET
66
1
70
1
10
0
20
0
30
0
0
VERTEX
8
DRAWER_BOTTOM_POCKET
10
933
20
1764
30
0
0
VERTEX
8
DRAWER_BOTTOM_POCKET
10
933
20
2224
30
0
0
VERTEX
8
DRAWER_BOTTOM_POCKET
10
914
20
2224
30
0
0
VERTEX
8
DRAWER_BOTTOM_POCKET
10
914
20
1764
30
0
0
SEQEND
8
DRAWER_BOTTOM_POCKET
0
TEXT
8
UNIT_NUMBER
10
853.7
20
1994
30
0
40
19.68
1
W01 D1-S~
50
90
72
1
11
853.7
21
1994
31
0
73
2
0
TEXT
8
UNIT_NUMBER
10
878.3
20
1994
30
0
40
19.68
1
440x164
50
90
72
1
11
878.3
21
1994
31
0
73
2
0
POLYLINE
8
OUTLINE
66
1
70
1
10
0
20
0
30
0
0
VERTEX
8
OUTLINE
10
1128
20
1706
30
0
0
VERTEX
8
OUTLINE
10
1128
20
2224
30
0
0
VERTEX
8
OUTLINE
10
998
20
2224
30
0
0
VERTEX
8
OUTLINE
10
998
20
1706
30
0
0
SEQEND
8
OUTLINE
0
TEXT
8
UNIT_NUMBER
10
1053.25
20
1965
30
0
40
15.6
1
W01 D1-BF
50
90
72
1
11
1053.25
21
1965
31
0
73
2
0
TEXT
8
UNIT_NUMBER
10
1072.75
20
1965
30
0
40
15.6
1
518x130
50
90
72
1
11
1072.75
21
1965
31
0
73
2
0
POLYLINE
8
OUTLINE
66
1
70
1
10
0
20
0
30
0
0
VERTEX
8
OUTLINE
10
1308
20
1706
30
0
0
VERTEX
8
OUTLINE
10
1308
20
2224
30
0
0
VERTEX
8
OUTLINE
10
1178
20
2224
30
0
0
VERTEX
8
OUTLINE
10
1178
20
1706
30
0
0
SEQEND
8
OUTLINE
0
TEXT
8
UNIT_NUMBER
10
1233.25
20
1965
30
0
40
15.6
1
W01 D1-BB
50
90
72
1
11
1233.25
21
1965
31
0
73
2
0
TEXT
8
UNIT_NUMBER
10
1252.75
20
1965
30
0
40
15.6
1
518x130
50
90
72
1
11
1252.75
21
1965
31
0
73
2
0
POLYLINE
8
OUTLINE
66
1
70
1
10
0
20
0
30
0
0
VERTEX
8
OUTLINE
10
1798
20
1693
30
0
0
VERTEX
8
OUTLINE
10
1798
20
2224
30
0
0
VERTEX
8
OUTLINE
10
1358
20
2224
30
0
0
VERTEX
8
OUTLINE
10
1358
20
1693
30
0
0
SEQEND
8
OUTLINE
0
TEXT
8
UNIT_NUMBER
10
1553
20
1958.5
30
0
40
20
1
W01
50
90
72
1
11
1553
21
1958.5
31
0
73
2
0
TEXT
8
UNIT_NUMBER
10
1578
20
1958.5
30
0
40
20
1
D1-DNO
50
90
72
1
11
1578
21
1958.5
31
0
73
2
0
TEXT
8
UNIT_NUMBER
10
1603
20
1958.5
30
0
40
20
1
531x440
50
90
72
1
11
1603
21
1958.5
31
0
73
2
0
POLYLINE
8
OUTLINE
66
1
70
1
10
0
20
0
30
0
0
VERTEX
8
OUTLINE
10
2032
20
1774
30
0
0
VERTEX
8
OUTLINE
10
2032
20
2214
30
0
0
VERTEX
8
OUTLINE
10
1848
20
2214
30
0
0
VERTEX
8
OUTLINE
10
1848
20
1774
30
0
0
SEQEND
8
OUTLINE
0
POLYLINE
8
DRAWER_RUNNER_POCKET
66
1
70
1
10
0
20
0
30
0
0
VERTEX
8
DRAWER_RUNNER_POCKET
10
2032
20
1764
30
0
0
VERTEX
8
DRAWER_RUNNER_POCKET
10
2032
20
2224
30
0
0
VERTEX
8
DRAWER_RUNNER_POCKET
10
2017
20
2224
30
0
0
VERTEX
8
DRAWER_RUNNER_POCKET
10
2017
20
1764
30
0
0
SEQEND
8
DRAWER_RUNNER_POCKET
0
POLYLINE
8
DRAWER_BOTTOM_POCKET
66
1
70
1
10
0
20
0
30
0
0
VERTEX
8
DRAWER_BOTTOM_POCKET
10
2017
20
1764
30
0
0
VERTEX
8
DRAWER_BOTTOM_POCKET
10
2017
20
2224
30
0
0
VERTEX
8
DRAWER_BOTTOM_POCKET
10
1998
20
2224
30
0
0
VERTEX
8
DRAWER_BOTTOM_POCKET
10
1998
20
1764
30
0
0
SEQEND
8
DRAWER_BOTTOM_POCKET
0
TEXT
8
UNIT_NUMBER
10
1927.5
20
1994
30
0
40
20
1
W01 D2-S~
50
90
72
1
11
1927.5
21
1994
31
0
73
2
0
TEXT
8
UNIT_NUMBER
10
1952.5
20
1994
30
0
40
20
1
440x184
50
90
72
1
11
1952.5
21
1994
31
0
73
2
0
POLYLINE
8
OUTLINE
66
1
70
1
10
0
20
0
30
0
0
VERTEX
8
OUTLINE
10
2266
20
1774
30
0
0
VERTEX
8
OUTLINE
10
2266
20
2214
30
0
0
VERTEX
8
OUTLINE
10
2082
20
2214
30
0
0
VERTEX
8
OUTLINE
10
2082
20
1774
30
0
0
SEQEND
8
OUTLINE
0
POLYLINE
8
DRAWER_RUNNER_POCKET
66
1
70
1
10
0
20
0
30
0
0
VERTEX
8
DRAWER_RUNNER_POCKET
10
2266
20
1764
30
0
0
VERTEX
8
DRAWER_RUNNER_POCKET
10
2266
20
2224
30
0
0
VERTEX
8
DRAWER_RUNNER_POCKET
10
2251
20
2224
30
0
0
VERTEX
8
DRAWER_RUNNER_POCKET
10
2251
20
1764
30
0
0
SEQEND
8
DRAWER_RUNNER_POCKET
0
POLYLINE
8
DRAWER_BOTTOM_POCKET
66
1
70
1
10
0
20
0
30
0
0
VERTEX
8
DRAWER_BOTTOM_POCKET
10
2251
20
1764
30
0
0
VERTEX
8
DRAWER_BOTTOM_POCKET
10
2251
20
2224
30
0
0
VERTEX
8
DRAWER_BOTTOM_POCKET
10
2232
20
2224
30
0
0
VERTEX
8
DRAWER_BOTTOM_POCKET
10
2232
20
1764
30
0
0
SEQEND
8
DRAWER_BOTTOM_POCKET
0
TEXT
8
UNIT_NUMBER
10
2161.5
20
1994
30
0
40
20
1
W01 D2-S~
50
90
72
1
11
2161.5
21
1994
31
0
73
2
0
TEXT
8
UNIT_NUMBER
10
2186.5
20
1994
30
0
40
20
1
440x184
50
90
72
1
11
2186.5
21
1994
31
0
73
2
0
POLYLINE
8
OUTLINE
66
1
70
1
10
0
20
0
30
0
0
VERTEX
8
OUTLINE
10
2466
20
1706
30
0
0
VERTEX
8
OUTLINE
10
2466
20
2224
30
0
0
VERTEX
8
OUTLINE
10
2316
20
2224
30
0
0
VERTEX
8
OUTLINE
10
2316
20
1706
30
0
0
SEQEND
8
OUTLINE
0
TEXT
8
UNIT_NUMBER
10
2379.75
20
1965
30
0
40
18
1
W01 D2-BF
50
90
72
1
11
2379.75
21
1965
31
0
73
2
0
TEXT
8
UNIT_NUMBER
10
2402.25
20
1965
30
0
40
18
1
518x150
50
90
72
1
11
2402.25
21
1965
31
0
73
2
0
POLYLINE
8
OUTLINE
66
1
70
1
10
0
20
0
30
0
0
VERTEX
8
OUTLINE
10
2666
20
1706
30
0
0
VERTEX
8
OUTLINE
10
2666
20
2224
30
0
0
VERTEX
8
OUTLINE
10
2516
20
2224
30
0
0
VERTEX
8
OUTLINE
10
2516
20
1706
30
0
0
SEQEND
8
OUTLINE
0
TEXT
8
UNIT_NUMBER
10
2579.75
20
1965
30
0
40
18
1
W01 D2-BB
50
90
72
1
11
2579.75
21
1965
31
0
73
2
0
TEXT
8
UNIT_NUMBER
10
2602.25
20
1965
30
0
40
18
1
518x150
50
90
72
1
11
2602.25
21
1965
31
0
73
2
0
POLYLINE
8
OUTLINE
66
1
70
1
10
0
20
0
30
0
0
VERTEX
8
OUTLINE
10
3156
20
1693
30
0
0
VERTEX
8
OUTLINE
10
3156
20
2224
30
0
0
VERTEX
8
OUTLINE
10
2716
20
2224
30
0
0
VERTEX
8
OUTLINE
10
2716
20
1693
30
0
0
SEQEND
8
OUTLINE
0
TEXT
8
UNIT_NUMBER
10
2911
20
1958.5
30
0
40
20
1
W01
50
90
72
1
11
2911
21
1958.5
31
0
73
2
0
TEXT
8
UNIT_NUMBER
10
2936
20
1958.5
30
0
40
20
1
D2-DNO
50
90
72
1
11
2936
21
1958.5
31
0
73
2
0
TEXT
8
UNIT_NUMBER
10
2961
20
1958.5
30
0
40
20
1
531x440
50
90
72
1
11
2961
21
1958.5
31
0
73
2
0
POLYLINE
8
OUTLINE
66
1
70
1
10
0
20
0
30
0
0
VERTEX
8
OUTLINE
10
3403
20
1666
30
0
0
VERTEX
8
OUTLINE
10
3403
20
2224
30
0
0
VERTEX
8
OUTLINE
10
3206
20
2224
30
0
0
VERTEX
8
OUTLINE
10
3206
20
1666
30
0
0
SEQEND
8
OUTLINE
0
POLYLINE
8
SHAKER_PANEL_POCKET
66
1
70
1
10
0
20
0
30
0
0
VERTEX
8
SHAKER_PANEL_POCKET
10
3266
20
1726
30
0
0
VERTEX
8
SHAKER_PANEL_POCKET
10
3266
20
2164
30
0
0
VERTEX
8
SHAKER_PANEL_POCKET
10
3343
20
2164
30
0
0
VERTEX
8
SHAKER_PANEL_POCKET
10
3343
20
1726
30
0
0
SEQEND
8
SHAKER_PANEL_POCKET
0
TEXT
8
UNIT_NUMBER
10
3292
20
1945
30
0
40
20
1
W01 DF1
50
90
72
1
11
3292
21
1945
31
0
73
2
0
TEXT
8
UNIT_NUMBER
10
3317
20
1945
30
0
40
20
1
558x197
50
90
72
1
11
3317
21
1945
31
0
73
2
0
POLYLINE
8
OUTLINE
66
1
70
1
10
0
20
0
30
0
0
VERTEX
8
OUTLINE
10
220
20
1052
30
0
0
VERTEX
8
OUTLINE
10
220
20
1610
30
0
0
VERTEX
8
OUTLINE
10
0
20
1610
30
0
0
VERTEX
8
OUTLINE
10
0
20
1052
30
0
0
SEQEND
8
OUTLINE
0
POLYLINE
8
SHAKER_PANEL_POCKET
66
1
70
1
10
0
20
0
30
0
0
VERTEX
8
SHAKER_PANEL_POCKET
10
60
20
1112
30
0
0
VERTEX
8
SHAKER_PANEL_POCKET
10
60
20
1550
30
0
0
VERTEX
8
SHAKER_PANEL_POCKET
10
160
20
1550
30
0
0
VERTEX
8
SHAKER_PANEL_POCKET
10
160
20
1112
30
0
0
SEQEND
8
SHAKER_PANEL_POCKET
0
TEXT
8
UNIT_NUMBER
10
97.5
20
1331
30
0
40
20
1
W01 DF2
50
90
72
1
11
97.5
21
1331
31
0
73
2
0
TEXT
8
UNIT_NUMBER
10
122.5
20
1331
30
0
40
20
1
558x220
50
90
72
1
11
122.5
21
1331
31
0
73
2
0
POLYLINE
8
OUTLINE
66
1
70
1
10
0
20
0
30
0
0
VERTEX
8
OUTLINE
10
370
20
110
30
0
0
VERTEX
8
OUTLINE
10
370
20
1610
30
0
0
VERTEX
8
OUTLINE
10
270
20
1610
30
0
0
VERTEX
8
OUTLINE
10
270
20
110
30
0
0
SEQEND
8
OUTLINE
0
TEXT
8
UNIT_NUMBER
10
320
20
860
30
0
40
12
1
W01 PLINTH 1500x100
50
90
72
1
11
320
21
860
31
0
73
2
0
POLYLINE
8
OUTLINE
66
1
70
1
10
0
20
0
30
0
0
VERTEX
8
OUTLINE
10
420
20
1210
30
0
0
VERTEX
8
OUTLINE
10
934
20
1210
30
0
0
VERTEX
8
OUTLINE
10
934
20
1610
30
0
0
VERTEX
8
OUTLINE
10
420
20
1610
30
0
0
SEQEND
8
OUTLINE
0
TEXT
8
UNIT_NUMBER
10
677
20
1435
30
0
40
20
1
W01
72
1
11
677
21
1435
31
0
73
2
0
TEXT
8
UNIT_NUMBER
10
677
20
1410
30
0
40
20
1
D2-WB
72
1
11
677
21
1410
31
0
73
2
0
TEXT
8
UNIT_NUMBER
10
677
20
1385
30
0
40
20
1
514x400
72
1
11
677
21
1385
31
0
73
2
0
POLYLINE
8
OUTLINE
66
1
70
1
10
0
20
0
30
0
0
VERTEX
8
OUTLINE
10
984
20
1550
30
0
0
VERTEX
8
OUTLINE
10
1498
20
1550
30
0
0
VERTEX
8
OUTLINE
10
1498
20
1610
30
0
0
VERTEX
8
OUTLINE
10
984
20
1610
30
0
0
SEQEND
8
OUTLINE
0
POLYLINE
8
WATCH_DIVIDER_SLOT
66
1
70
1
10
0
20
0
30
0
0
VERTEX
8
WATCH_DIVIDER_SLOT
10
1085
20
1550
30
0
0
VERTEX
8
WATCH_DIVIDER_SLOT
10
1094
20
1550
30
0
0
VERTEX
8
WATCH_DIVIDER_SLOT
10
1094
20
1610
30
0
0
VERTEX
8
WATCH_DIVIDER_SLOT
10
1085
20
1610
30
0
0
SEQEND
8
WATCH_DIVIDER_SLOT
0
POLYLINE
8
WATCH_DIVIDER_SLOT
66
1
70
1
10
0
20
0
30
0
0
VERTEX
8
WATCH_DIVIDER_SLOT
10
1186
20
1550
30
0
0
VERTEX
8
WATCH_DIVIDER_SLOT
10
1195
20
1550
30
0
0
VERTEX
8
WATCH_DIVIDER_SLOT
10
1195
20
1610
30
0
0
VERTEX
8
WATCH_DIVIDER_SLOT
10
1186
20
1610
30
0
0
SEQEND
8
WATCH_DIVIDER_SLOT
0
POLYLINE
8
WATCH_DIVIDER_SLOT
66
1
70
1
10
0
20
0
30
0
0
VERTEX
8
WATCH_DIVIDER_SLOT
10
1287
20
1550
30
0
0
VERTEX
8
WATCH_DIVIDER_SLOT
10
1296
20
1550
30
0
0
VERTEX
8
WATCH_DIVIDER_SLOT
10
1296
20
1610
30
0
0
VERTEX
8
WATCH_DIVIDER_SLOT
10
1287
20
1610
30
0
0
SEQEND
8
WATCH_DIVIDER_SLOT
0
POLYLINE
8
WATCH_DIVIDER_SLOT
66
1
70
1
10
0
20
0
30
0
0
VERTEX
8
WATCH_DIVIDER_SLOT
10
1388
20
1550
30
0
0
VERTEX
8
WATCH_DIVIDER_SLOT
10
1397
20
1550
30
0
0
VERTEX
8
WATCH_DIVIDER_SLOT
10
1397
20
1610
30
0
0
VERTEX
8
WATCH_DIVIDER_SLOT
10
1388
20
1610
30
0
0
SEQEND
8
WATCH_DIVIDER_SLOT
0
POLYLINE
8
WATCH_GLASS_REBATE
66
1
70
1
10
0
20
0
30
0
0
VERTEX
8
WATCH_GLASS_REBATE
10
984
20
1606
30
0
0
VERTEX
8
WATCH_GLASS_REBATE
10
1498
20
1606
30
0
0
VERTEX
8
WATCH_GLASS_REBATE
10
1498
20
1610
30
0
0
VERTEX
8
WATCH_GLASS_REBATE
10
984
20
1610
30
0
0
SEQEND
8
WATCH_GLASS_REBATE
0
POLYLINE
8
LED_GROOVE
66
1
70
1
10
0
20
0
30
0
0
VERTEX
8
LED_GROOVE
10
974
20
1592
30
0
0
VERTEX
8
LED_GROOVE
10
1508
20
1592
30
0
0
VERTEX
8
LED_GROOVE
10
1508
20
1596
30
0
0
VERTEX
8
LED_GROOVE
10
974
20
1596
30
0
0
SEQEND
8
LED_GROOVE
0
TEXT
8
UNIT_NUMBER
10
1241
20
1580
30
0
40
7.2
1
W01 D2-WRF 514x60
72
1
11
1241
21
1580
31
0
73
2
0
POLYLINE
8
OUTLINE
66
1
70
1
10
0
20
0
30
0
0
VERTEX
8
OUTLINE
10
1548
20
1550
30
0
0
VERTEX
8
OUTLINE
10
2062
20
1550
30
0
0
VERTEX
8
OUTLINE
10
2062
20
1610
30
0
0
VERTEX
8
OUTLINE
10
1548
20
1610
30
0
0
SEQEND
8
OUTLINE
0
POLYLINE
8
WATCH_DIVIDER_SLOT
66
1
70
1
10
0
20
0
30
0
0
VERTEX
8
WATCH_DIVIDER_SLOT
10
1800.5
20
1550
30
0
0
VERTEX
8
WATCH_DIVIDER_SLOT
10
1809.5
20
1550
30
0
0
VERTEX
8
WATCH_DIVIDER_SLOT
10
1809.5
20
1610
30
0
0
VERTEX
8
WATCH_DIVIDER_SLOT
10
1800.5
20
1610
30
0
0
SEQEND
8
WATCH_DIVIDER_SLOT
0
POLYLINE
8
WATCH_GLASS_REBATE
66
1
70
1
10
0
20
0
30
0
0
VERTEX
8
WATCH_GLASS_REBATE
10
1548
20
1606
30
0
0
VERTEX
8
WATCH_GLASS_REBATE
10
2062
20
1606
30
0
0
VERTEX
8
WATCH_GLASS_REBATE
10
2062
20
1610
30
0
0
VERTEX
8
WATCH_GLASS_REBATE
10
1548
20
1610
30
0
0
SEQEND
8
WATCH_GLASS_REBATE
0
TEXT
8
UNIT_NUMBER
10
1805
20
1580
30
0
40
7.2
1
W01 D2-WRB 514x60
72
1
11
1805
21
1580
31
0
73
2
0
POLYLINE
8
OUTLINE
66
1
70
1
10
0
20
0
30
0
0
VERTEX
8
OUTLINE
10
2112
20
1550
30
0
0
VERTEX
8
OUTLINE
10
2494
20
1550
30
0
0
VERTEX
8
OUTLINE
10
2494
20
1610
30
0
0
VERTEX
8
OUTLINE
10
2112
20
1610
30
0
0
SEQEND
8
OUTLINE
0
POLYLINE
8
WATCH_GLASS_REBATE
66
1
70
1
10
0
20
0
30
0
0
VERTEX
8
WATCH_GLASS_REBATE
10
2112
20
1606
30
0
0
VERTEX
8
WATCH_GLASS_REBATE
10
2494
20
1606
30
0
0
VERTEX
8
WATCH_GLASS_REBATE
10
2494
20
1610
30
0
0
VERTEX
8
WATCH_GLASS_REBATE
10
2112
20
1610
30
0
0
SEQEND
8
WATCH_GLASS_REBATE
0
TEXT
8
UNIT_NUMBER
10
2303
20
1584.5
30
0
40
7.2
1
W01 D2-WRL
72
1
11
2303
21
1584.5
31
0
73
2
0
TEXT
8
UNIT_NUMBER
10
2303
20
1575.5
30
0
40
7.2
1
382x60
72
1
11
2303
21
1575.5
31
0
73
2
0
POLYLINE
8
OUTLINE
66
1
70
1
10
0
20
0
30
0
0
VERTEX
8
OUTLINE
10
2544
20
1550
30
0
0
VERTEX
8
OUTLINE
10
2926
20
1550
30
0
0
VERTEX
8
OUTLINE
10
2926
20
1610
30
0
0
VERTEX
8
OUTLINE
10
2544
20
1610
30
0
0
SEQEND
8
OUTLINE
0
POLYLINE
8
WATCH_GLASS_REBATE
66
1
70
1
10
0
20
0
30
0
0
VERTEX
8
WATCH_GLASS_REBATE
10
2544
20
1606
30
0
0
VERTEX
8
WATCH_GLASS_REBATE
10
2926
20
1606
30
0
0
VERTEX
8
WATCH_GLASS_REBATE
10
2926
20
1610
30
0
0
VERTEX
8
WATCH_GLASS_REBATE
10
2544
20
1610
30
0
0
SEQEND
8
WATCH_GLASS_REBATE
0
TEXT
8
UNIT_NUMBER
10
2735
20
1584.5
30
0
40
7.2
1
W01 D2-WRR
72
1
11
2735
21
1584.5
31
0
73
2
0
TEXT
8
UNIT_NUMBER
10
2735
20
1575.5
30
0
40
7.2
1
382x60
72
1
11
2735
21
1575.5
31
0
73
2
0
POLYLINE
8
OUTLINE
66
1
70
1
10
0
20
0
30
0
0
VERTEX
8
OUTLINE
10
2976
20
1550
30
0
0
VERTEX
8
OUTLINE
10
3472
20
1550
30
0
0
VERTEX
8
OUTLINE
10
3472
20
1610
30
0
0
VERTEX
8
OUTLINE
10
2976
20
1610
30
0
0
SEQEND
8
OUTLINE
0
POLYLINE
8
WATCH_DIVIDER_SLOT
66
1
70
1
10
0
20
0
30
0
0
VERTEX
8
WATCH_DIVIDER_SLOT
10
3068
20
1550
30
0
0
VERTEX
8
WATCH_DIVIDER_SLOT
10
3077
20
1550
30
0
0
VERTEX
8
WATCH_DIVIDER_SLOT
10
3077
20
1610
30
0
0
VERTEX
8
WATCH_DIVIDER_SLOT
10
3068
20
1610
30
0
0
SEQEND
8
WATCH_DIVIDER_SLOT
0
POLYLINE
8
WATCH_DIVIDER_SLOT
66
1
70
1
10
0
20
0
30
0
0
VERTEX
8
WATCH_DIVIDER_SLOT
10
3169
20
1550
30
0
0
VERTEX
8
WATCH_DIVIDER_SLOT
10
3178
20
1550
30
0
0
VERTEX
8
WATCH_DIVIDER_SLOT
10
3178
20
1610
30
0
0
VERTEX
8
WATCH_DIVIDER_SLOT
10
3169
20
1610
30
0
0
SEQEND
8
WATCH_DIVIDER_SLOT
0
POLYLINE
8
WATCH_DIVIDER_SLOT
66
1
70
1
10
0
20
0
30
0
0
VERTEX
8
WATCH_DIVIDER_SLOT
10
3270
20
1550
30
0
0
VERTEX
8
WATCH_DIVIDER_SLOT
10
3279
20
1550
30
0
0
VERTEX
8
WATCH_DIVIDER_SLOT
10
3279
20
1610
30
0
0
VERTEX
8
WATCH_DIVIDER_SLOT
10
3270
20
1610
30
0
0
SEQEND
8
WATCH_DIVIDER_SLOT
0
POLYLINE
8
WATCH_DIVIDER_SLOT
66
1
70
1
10
0
20
0
30
0
0
VERTEX
8
WATCH_DIVIDER_SLOT
10
3371
20
1550
30
0
0
VERTEX
8
WATCH_DIVIDER_SLOT
10
3380
20
1550
30
0
0
VERTEX
8
WATCH_DIVIDER_SLOT
10
3380
20
1610
30
0
0
VERTEX
8
WATCH_DIVIDER_SLOT
10
3371
20
1610
30
0
0
SEQEND
8
WATCH_DIVIDER_SLOT
0
POLYLINE
8
WATCH_DIVIDER_SLOT
66
1
70
1
10
0
20
0
30
0
0
VERTEX
8
WATCH_DIVIDER_SLOT
10
3219.5
20
1550
30
0
0
VERTEX
8
WATCH_DIVIDER_SLOT
10
3228.5
20
1550
30
0
0
VERTEX
8
WATCH_DIVIDER_SLOT
10
3228.5
20
1610
30
0
0
VERTEX
8
WATCH_DIVIDER_SLOT
10
3219.5
20
1610
30
0
0
SEQEND
8
WATCH_DIVIDER_SLOT
0
TEXT
8
UNIT_NUMBER
10
3224
20
1580
30
0
40
7.2
1
W01 D2-WRW 496x60
72
1
11
3224
21
1580
31
0
73
2
0
POLYLINE
8
OUTLINE
66
1
70
1
10
0
20
0
30
0
0
VERTEX
8
OUTLINE
10
0
20
0
30
0
0
VERTEX
8
OUTLINE
10
110
20
0
30
0
0
VERTEX
8
OUTLINE
10
110
20
60
30
0
0
VERTEX
8
OUTLINE
10
0
20
60
30
0
0
SEQEND
8
OUTLINE
0
TEXT
8
UNIT_NUMBER
10
55
20
39
30
0
40
7.2
1
W01
72
1
11
55
21
39
31
0
73
2
0
TEXT
8
UNIT_NUMBER
10
55
20
30
30
0
40
7.2
1
D2-WP1
72
1
11
55
21
30
31
0
73
2
0
TEXT
8
UNIT_NUMBER
10
55
20
21
30
0
40
7.2
1
110x60
72
1
11
55
21
21
31
0
73
2
0
POLYLINE
8
OUTLINE
66
1
70
1
10
0
20
0
30
0
0
VERTEX
8
OUTLINE
10
160
20
0
30
0
0
VERTEX
8
OUTLINE
10
270
20
0
30
0
0
VERTEX
8
OUTLINE
10
270
20
60
30
0
0
VERTEX
8
OUTLINE
10
160
20
60
30
0
0
SEQEND
8
OUTLINE
0
TEXT
8
UNIT_NUMBER
10
215
20
39
30
0
40
7.2
1
W01
72
1
11
215
21
39
31
0
73
2
0
TEXT
8
UNIT_NUMBER
10
215
20
30
30
0
40
7.2
1
D2-WP2
72
1
11
215
21
30
31
0
73
2
0
TEXT
8
UNIT_NUMBER
10
215
20
21
30
0
40
7.2
1
110x60
72
1
11
215
21
21
31
0
73
2
0
POLYLINE
8
OUTLINE
66
1
70
1
10
0
20
0
30
0
0
VERTEX
8
OUTLINE
10
320
20
0
30
0
0
VERTEX
8
OUTLINE
10
430
20
0
30
0
0
VERTEX
8
OUTLINE
10
430
20
60
30
0
0
VERTEX
8
OUTLINE
10
320
20
60
30
0
0
SEQEND
8
OUTLINE
0
TEXT
8
UNIT_NUMBER
10
375
20
39
30
0
40
7.2
1
W01
72
1
11
375
21
39
31
0
73
2
0
TEXT
8
UNIT_NUMBER
10
375
20
30
30
0
40
7.2
1
D2-WP3
72
1
11
375
21
30
31
0
73
2
0
TEXT
8
UNIT_NUMBER
10
375
20
21
30
0
40
7.2
1
110x60
72
1
11
375
21
21
31
0
73
2
0
POLYLINE
8
OUTLINE
66
1
70
1
10
0
20
0
30
0
0
VERTEX
8
OUTLINE
10
480
20
0
30
0
0
VERTEX
8
OUTLINE
10
590
20
0
30
0
0
VERTEX
8
OUTLINE
10
590
20
60
30
0
0
VERTEX
8
OUTLINE
10
480
20
60
30
0
0
SEQEND
8
OUTLINE
0
TEXT
8
UNIT_NUMBER
10
535
20
39
30
0
40
7.2
1
W01
72
1
11
535
21
39
31
0
73
2
0
TEXT
8
UNIT_NUMBER
10
535
20
30
30
0
40
7.2
1
D2-WP4
72
1
11
535
21
30
31
0
73
2
0
TEXT
8
UNIT_NUMBER
10
535
20
21
30
0
40
7.2
1
110x60
72
1
11
535
21
21
31
0
73
2
0
POLYLINE
8
OUTLINE
66
1
70
1
10
0
20
0
30
0
0
VERTEX
8
OUTLINE
10
640
20
0
30
0
0
VERTEX
8
OUTLINE
10
903
20
0
30
0
0
VERTEX
8
OUTLINE
10
903
20
60
30
0
0
VERTEX
8
OUTLINE
10
640
20
60
30
0
0
SEQEND
8
OUTLINE
0
TEXT
8
UNIT_NUMBER
10
771.5
20
34.5
30
0
40
7.2
1
W01 D2-WS1
72
1
11
771.5
21
34.5
31
0
73
2
0
TEXT
8
UNIT_NUMBER
10
771.5
20
25.5
30
0
40
7.2
1
263x60
72
1
11
771.5
21
25.5
31
0
73
2
0
ENDSEC
0
EOF
