0
SECTION
2
HEADER
9
$ACADVER
1
AC1009
9
$INSBASE
10
0
20
0
30
0
9
$EXTMIN
10
0
20
0
30
0
9
$EXTMAX
10
3328
20
6010
30
0
0
ENDSEC
0
SECTION
2
TABLES
0
TABLE
2
LAYER
70
12
0
LAYER
2
0
70
0
62
7
6
CONTINUOUS
0
LAYER
2
OUTLINE
70
0
62
7
6
CONTINUOUS
0
LAYER
2
PUZZLE_SOCKET
70
0
62
1
6
CONTINUOUS
0
LAYER
2
PUZZLE_DOG_BONES
70
0
62
2
6
CONTINUOUS
0
LAYER
2
PUZZLE_HOLES_7_5MM
70
0
62
3
6
CONTINUOUS
0
LAYER
2
SCREWS_3MM
70
0
62
4
6
CONTINUOUS
0
LAYER
2
SHAKER_PANEL_POCKET
70
0
62
41
6
CONTINUOUS
0
LAYER
2
RUNNERS_3MM
70
0
62
5
6
CONTINUOUS
0
LAYER
2
UNIT_NUMBER
70
0
62
94
6
CONTINUOUS
0
LAYER
2
DRAWER_RUNNER_POCKET
70
0
62
1
6
CONTINUOUS
0
LAYER
2
DRAWER_BOTTOM_POCKET
70
0
62
2
6
CONTINUOUS
0
LAYER
2
WATCH_DIVIDER_SLOT
70
0
62
7
6
CONTINUOUS
0
ENDTAB
0
ENDSEC
0
SECTION
2
ENTITIES
0
POLYLINE
8
OUTLINE
66
1
70
1
10
0
20
0
30
0
0
VERTEX
8
OUTLINE
10
0
20
3878
30
0
0
VERTEX
8
OUTLINE
10
540
20
3878
30
0
0
VERTEX
8
OUTLINE
10
540
20
3948
30
0
0
VERTEX
8
OUTLINE
10
540
20
3954
30
0
0
VERTEX
8
OUTLINE
10
553
20
3954
30
0
0
VERTEX
8
OUTLINE
10
553
20
3948
30
0
0
VERTEX
8
OUTLINE
10
558
20
3948
30
0
0
VERTEX
8
OUTLINE
10
558
20
3998
30
0
0
VERTEX
8
OUTLINE
10
553
20
3998
30
0
0
VERTEX
8
OUTLINE
10
553
20
3992
30
0
0
VERTEX
8
OUTLINE
10
540
20
3992
30
0
0
VERTEX
8
OUTLINE
10
540
20
3998
30
0
0
VERTEX
8
OUTLINE
10
540
20
4928
30
0
0
VERTEX
8
OUTLINE
10
540
20
4934
30
0
0
VERTEX
8
OUTLINE
10
553
20
4934
30
0
0
VERTEX
8
OUTLINE
10
553
20
4928
30
0
0
VERTEX
8
OUTLINE
10
558
20
4928
30
0
0
VERTEX
8
OUTLINE
10
558
20
4978
30
0
0
VERTEX
8
OUTLINE
10
553
20
4978
30
0
0
VERTEX
8
OUTLINE
10
553
20
4972
30
0
0
VERTEX
8
OUTLINE
10
540
20
4972
30
0
0
VERTEX
8
OUTLINE
10
540
20
4978
30
0
0
VERTEX
8
OUTLINE
10
540
20
5908
30
0
0
VERTEX
8
OUTLINE
10
540
20
5914
30
0
0
VERTEX
8
OUTLINE
10
553
20
5914
30
0
0
VERTEX
8
OUTLINE
10
553
20
5908
30
0
0
VERTEX
8
OUTLINE
10
558
20
5908
30
0
0
VERTEX
8
OUTLINE
10
558
20
5958
30
0
0
VERTEX
8
OUTLINE
10
553
20
5958
30
0
0
VERTEX
8
OUTLINE
10
553
20
5952
30
0
0
VERTEX
8
OUTLINE
10
540
20
5952
30
0
0
VERTEX
8
OUTLINE
10
540
20
5958
30
0
0
VERTEX
8
OUTLINE
10
540
20
6010
30
0
0
VERTEX
8
OUTLINE
10
0
20
6010
30
0
0
SEQEND
8
OUTLINE
0
POLYLINE
8
PUZZLE_DOG_BONES
66
1
70
1
10
0
20
0
30
0
0
VERTEX
8
PUZZLE_DOG_BONES
10
540
20
3943
30
0
0
VERTEX
8
PUZZLE_DOG_BONES
10
558
20
3943
30
0
0
VERTEX
8
PUZZLE_DOG_BONES
10
558
20
4003
30
0
0
VERTEX
8
PUZZLE_DOG_BONES
10
540
20
4003
30
0
0
SEQEND
8
PUZZLE_DOG_BONES
0
POLYLINE
8
PUZZLE_DOG_BONES
66
1
70
1
10
0
20
0
30
0
0
VERTEX
8
PUZZLE_DOG_BONES
10
540
20
4923
30
0
0
VERTEX
8
PUZZLE_DOG_BONES
10
558
20
4923
30
0
0
VERTEX
8
PUZZLE_DOG_BONES
10
558
20
4983
30
0
0
VERTEX
8
PUZZLE_DOG_BONES
10
540
20
4983
30
0
0
SEQEND
8
PUZZLE_DOG_BONES
0
POLYLINE
8
PUZZLE_DOG_BONES
66
1
70
1
10
0
20
0
30
0
0
VERTEX
8
PUZZLE_DOG_BONES
10
540
20
5903
30
0
0
VERTEX
8
PUZZLE_DOG_BONES
10
558
20
5903
30
0
0
VERTEX
8
PUZZLE_DOG_BONES
10
558
20
5963
30
0
0
VERTEX
8
PUZZLE_DOG_BONES
10
540
20
5963
30
0
0
SEQEND
8
PUZZLE_DOG_BONES
0
POLYLINE
8
PUZZLE_SOCKET
66
1
70
1
10
0
20
0
30
0
0
VERTEX
8
PUZZLE_SOCKET
10
69.5
20
3872
30
0
0
VERTEX
8
PUZZLE_SOCKET
10
120.5
20
3872
30
0
0
VERTEX
8
PUZZLE_SOCKET
10
120.5
20
3887
30
0
0
VERTEX
8
PUZZLE_SOCKET
10
69.5
20
3887
30
0
0
SEQEND
8
PUZZLE_SOCKET
0
POLYLINE
8
PUZZLE_SOCKET
66
1
70
1
10
0
20
0
30
0
0
VERTEX
8
PUZZLE_SOCKET
10
419.5
20
3872
30
0
0
VERTEX
8
PUZZLE_SOCKET
10
470.5
20
3872
30
0
0
VERTEX
8
PUZZLE_SOCKET
10
470.5
20
3887
30
0
0
VERTEX
8
PUZZLE_SOCKET
10
419.5
20
3887
30
0
0
SEQEND
8
PUZZLE_SOCKET
0
CIRCLE
8
PUZZLE_HOLES_7_5MM
10
70.5
20
3886
30
0
40
3.75
0
CIRCLE
8
PUZZLE_HOLES_7_5MM
10
119.5
20
3886
30
0
40
3.75
0
CIRCLE
8
PUZZLE_HOLES_7_5MM
10
420.5
20
3886
30
0
40
3.75
0
CIRCLE
8
PUZZLE_HOLES_7_5MM
10
469.5
20
3886
30
0
40
3.75
0
CIRCLE
8
SCREWS_3MM
10
50
20
3887
30
0
40
1.5
0
CIRCLE
8
SCREWS_3MM
10
270
20
3887
30
0
40
1.5
0
CIRCLE
8
SCREWS_3MM
10
490
20
3887
30
0
40
1.5
0
CIRCLE
8
RUNNERS_3MM
10
112
20
3934
30
0
40
1.5
0
CIRCLE
8
RUNNERS_3MM
10
144
20
3934
30
0
40
1.5
0
CIRCLE
8
RUNNERS_3MM
10
368
20
3934
30
0
40
1.5
0
CIRCLE
8
RUNNERS_3MM
10
112
20
4137
30
0
40
1.5
0
CIRCLE
8
RUNNERS_3MM
10
144
20
4137
30
0
40
1.5
0
CIRCLE
8
RUNNERS_3MM
10
368
20
4137
30
0
40
1.5
0
CIRCLE
8
SCREWS_3MM
10
50
20
4333
30
0
40
1.5
0
CIRCLE
8
SCREWS_3MM
10
270
20
4333
30
0
40
1.5
0
CIRCLE
8
SCREWS_3MM
10
490
20
4333
30
0
40
1.5
0
TEXT
8
UNIT_NUMBER
10
270
20
4956.5
30
0
40
20
1
W01 BUL
72
1
11
270
21
4956.5
31
0
73
2
0
TEXT
8
UNIT_NUMBER
10
270
20
4931.5
30
0
40
20
1
540x2132
72
1
11
270
21
4931.5
31
0
73
2
0
POLYLINE
8
OUTLINE
66
1
70
1
10
0
20
0
30
0
0
VERTEX
8
OUTLINE
10
626
20
3925
30
0
0
VERTEX
8
OUTLINE
10
1166
20
3925
30
0
0
VERTEX
8
OUTLINE
10
1166
20
5999.3571
30
0
0
VERTEX
8
OUTLINE
10
626
20
5999.3571
30
0
0
VERTEX
8
OUTLINE
10
626
20
5999
30
0
0
VERTEX
8
OUTLINE
10
613
20
5999
30
0
0
VERTEX
8
OUTLINE
10
613
20
5999.3571
30
0
0
VERTEX
8
OUTLINE
10
608
20
5999.3571
30
0
0
VERTEX
8
OUTLINE
10
608
20
5955
30
0
0
VERTEX
8
OUTLINE
10
613
20
5955
30
0
0
VERTEX
8
OUTLINE
10
613
20
5961
30
0
0
VERTEX
8
OUTLINE
10
626
20
5961
30
0
0
VERTEX
8
OUTLINE
10
626
20
5955
30
0
0
VERTEX
8
OUTLINE
10
626
20
5025
30
0
0
VERTEX
8
OUTLINE
10
626
20
5019
30
0
0
VERTEX
8
OUTLINE
10
613
20
5019
30
0
0
VERTEX
8
OUTLINE
10
613
20
5025
30
0
0
VERTEX
8
OUTLINE
10
608
20
5025
30
0
0
VERTEX
8
OUTLINE
10
608
20
4975
30
0
0
VERTEX
8
OUTLINE
10
613
20
4975
30
0
0
VERTEX
8
OUTLINE
10
613
20
4981
30
0
0
VERTEX
8
OUTLINE
10
626
20
4981
30
0
0
VERTEX
8
OUTLINE
10
626
20
4975
30
0
0
VERTEX
8
OUTLINE
10
626
20
4045
30
0
0
VERTEX
8
OUTLINE
10
626
20
4039
30
0
0
VERTEX
8
OUTLINE
10
613
20
4039
30
0
0
VERTEX
8
OUTLINE
10
613
20
4045
30
0
0
VERTEX
8
OUTLINE
10
608
20
4045
30
0
0
VERTEX
8
OUTLINE
10
608
20
3995
30
0
0
VERTEX
8
OUTLINE
10
613
20
3995
30
0
0
VERTEX
8
OUTLINE
10
613
20
4001
30
0
0
VERTEX
8
OUTLINE
10
626
20
4001
30
0
0
VERTEX
8
OUTLINE
10
626
20
3995
30
0
0
SEQEND
8
OUTLINE
0
POLYLINE
8
PUZZLE_DOG_BONES
66
1
70
1
10
0
20
0
30
0
0
VERTEX
8
PUZZLE_DOG_BONES
10
608
20
3990
30
0
0
VERTEX
8
PUZZLE_DOG_BONES
10
626
20
3990
30
0
0
VERTEX
8
PUZZLE_DOG_BONES
10
626
20
4050
30
0
0
VERTEX
8
PUZZLE_DOG_BONES
10
608
20
4050
30
0
0
SEQEND
8
PUZZLE_DOG_BONES
0
POLYLINE
8
PUZZLE_DOG_BONES
66
1
70
1
10
0
20
0
30
0
0
VERTEX
8
PUZZLE_DOG_BONES
10
608
20
4970
30
0
0
VERTEX
8
PUZZLE_DOG_BONES
10
626
20
4970
30
0
0
VERTEX
8
PUZZLE_DOG_BONES
10
626
20
5030
30
0
0
VERTEX
8
PUZZLE_DOG_BONES
10
608
20
5030
30
0
0
SEQEND
8
PUZZLE_DOG_BONES
0
POLYLINE
8
PUZZLE_DOG_BONES
66
1
70
1
10
0
20
0
30
0
0
VERTEX
8
PUZZLE_DOG_BONES
10
608
20
5950
30
0
0
VERTEX
8
PUZZLE_DOG_BONES
10
626
20
5950
30
0
0
VERTEX
8
PUZZLE_DOG_BONES
10
626
20
6010
30
0
0
VERTEX
8
PUZZLE_DOG_BONES
10
608
20
6010
30
0
0
SEQEND
8
PUZZLE_DOG_BONES
0
POLYLINE
8
PUZZLE_SOCKET
66
1
70
1
10
0
20
0
30
0
0
VERTEX
8
PUZZLE_SOCKET
10
695.5
20
3919
30
0
0
VERTEX
8
PUZZLE_SOCKET
10
746.5
20
3919
30
0
0
VERTEX
8
PUZZLE_SOCKET
10
746.5
20
3934
30
0
0
VERTEX
8
PUZZLE_SOCKET
10
695.5
20
3934
30
0
0
SEQEND
8
PUZZLE_SOCKET
0
POLYLINE
8
PUZZLE_SOCKET
66
1
70
1
10
0
20
0
30
0
0
VERTEX
8
PUZZLE_SOCKET
10
1045.5
20
3919
30
0
0
VERTEX
8
PUZZLE_SOCKET
10
1096.5
20
3919
30
0
0
VERTEX
8
PUZZLE_SOCKET
10
1096.5
20
3934
30
0
0
VERTEX
8
PUZZLE_SOCKET
10
1045.5
20
3934
30
0
0
SEQEND
8
PUZZLE_SOCKET
0
CIRCLE
8
PUZZLE_HOLES_7_5MM
10
696.5
20
3933
30
0
40
3.75
0
CIRCLE
8
PUZZLE_HOLES_7_5MM
10
745.5
20
3933
30
0
40
3.75
0
CIRCLE
8
PUZZLE_HOLES_7_5MM
10
1046.5
20
3933
30
0
40
3.75
0
CIRCLE
8
PUZZLE_HOLES_7_5MM
10
1095.5
20
3933
30
0
40
3.75
0
CIRCLE
8
SCREWS_3MM
10
676
20
3934
30
0
40
1.5
0
CIRCLE
8
SCREWS_3MM
10
896
20
3934
30
0
40
1.5
0
CIRCLE
8
SCREWS_3MM
10
1116
20
3934
30
0
40
1.5
0
CIRCLE
8
RUNNERS_3MM
10
1054
20
3981
30
0
40
1.5
0
CIRCLE
8
RUNNERS_3MM
10
1022
20
3981
30
0
40
1.5
0
CIRCLE
8
RUNNERS_3MM
10
798
20
3981
30
0
40
1.5
0
CIRCLE
8
RUNNERS_3MM
10
1054
20
4184
30
0
40
1.5
0
CIRCLE
8
RUNNERS_3MM
10
1022
20
4184
30
0
40
1.5
0
CIRCLE
8
RUNNERS_3MM
10
798
20
4184
30
0
40
1.5
0
CIRCLE
8
SCREWS_3MM
10
676
20
4380
30
0
40
1.5
0
CIRCLE
8
SCREWS_3MM
10
896
20
4380
30
0
40
1.5
0
CIRCLE
8
SCREWS_3MM
10
1116
20
4380
30
0
40
1.5
0
TEXT
8
UNIT_NUMBER
10
896
20
5940.5571
30
0
40
49
1
CUT
72
1
11
896
21
5940.5571
31
0
73
2
0
TEXT
8
UNIT_NUMBER
10
896
20
5879.3071
30
0
40
49
1
28.8 DEG
72
1
11
896
21
5879.3071
31
0
73
2
0
TEXT
8
UNIT_NUMBER
10
896
20
4974.67855
30
0
40
20
1
W01 BUR
72
1
11
896
21
4974.67855
31
0
73
2
0
TEXT
8
UNIT_NUMBER
10
896
20
4949.67855
30
0
40
20
1
540x2074.4
72
1
11
896
21
4949.67855
31
0
73
2
0
POLYLINE
8
OUTLINE
66
1
70
1
10
0
20
0
30
0
0
VERTEX
8
OUTLINE
10
1216
20
5528.1818
30
0
0
VERTEX
8
OUTLINE
10
1756
20
5528.1818
30
0
0
VERTEX
8
OUTLINE
10
1756
20
6010
30
0
0
VERTEX
8
OUTLINE
10
1216
20
6010
30
0
0
SEQEND
8
OUTLINE
0
TEXT
8
UNIT_NUMBER
10
1486
20
5781.5909
30
0
40
20
1
W01 TOP~
72
1
11
1486
21
5781.5909
31
0
73
2
0
TEXT
8
UNIT_NUMBER
10
1486
20
5756.5909
30
0
40
20
1
481.8x5~
72
1
11
1486
21
5756.5909
31
0
73
2
0
POLYLINE
8
OUTLINE
66
1
70
1
10
0
20
0
30
0
0
VERTEX
8
OUTLINE
10
1806
20
5865.2225
30
0
0
VERTEX
8
OUTLINE
10
2346
20
5865.2225
30
0
0
VERTEX
8
OUTLINE
10
2346
20
6010
30
0
0
VERTEX
8
OUTLINE
10
1806
20
6010
30
0
0
SEQEND
8
OUTLINE
0
TEXT
8
UNIT_NUMBER
10
2076
20
5967.8077
30
0
40
35.16025
1
BEVEL
72
1
11
2076
21
5967.8077
31
0
73
2
0
TEXT
8
UNIT_NUMBER
10
2076
20
5923.857388
30
0
40
35.16025
1
28.8 DEG BOTH
72
1
11
2076
21
5923.857388
31
0
73
2
0
TEXT
8
UNIT_NUMBER
10
2076
20
5879.907075
30
0
40
35.16025
1
ENDS - 5-AXIS
72
1
11
2076
21
5879.907075
31
0
73
2
0
TEXT
8
UNIT_NUMBER
10
2076
20
5948.469562
30
0
40
17.3733
1
W01 TOP-2
72
1
11
2076
21
5948.469562
31
0
73
2
0
TEXT
8
UNIT_NUMBER
10
2076
20
5926.752937
30
0
40
17.3733
1
144.8x540
72
1
11
2076
21
5926.752937
31
0
73
2
0
POLYLINE
8
OUTLINE
66
1
70
1
10
0
20
0
30
0
0
VERTEX
8
OUTLINE
10
2414
20
5428
30
0
0
VERTEX
8
OUTLINE
10
2484
20
5428
30
0
0
VERTEX
8
OUTLINE
10
2490
20
5428
30
0
0
VERTEX
8
OUTLINE
10
2490
20
5415
30
0
0
VERTEX
8
OUTLINE
10
2484
20
5415
30
0
0
VERTEX
8
OUTLINE
10
2484
20
5410
30
0
0
VERTEX
8
OUTLINE
10
2534
20
5410
30
0
0
VERTEX
8
OUTLINE
10
2534
20
5415
30
0
0
VERTEX
8
OUTLINE
10
2528
20
5415
30
0
0
VERTEX
8
OUTLINE
10
2528
20
5428
30
0
0
VERTEX
8
OUTLINE
10
2534
20
5428
30
0
0
VERTEX
8
OUTLINE
10
2834
20
5428
30
0
0
VERTEX
8
OUTLINE
10
2840
20
5428
30
0
0
VERTEX
8
OUTLINE
10
2840
20
5415
30
0
0
VERTEX
8
OUTLINE
10
2834
20
5415
30
0
0
VERTEX
8
OUTLINE
10
2834
20
5410
30
0
0
VERTEX
8
OUTLINE
10
2884
20
5410
30
0
0
VERTEX
8
OUTLINE
10
2884
20
5415
30
0
0
VERTEX
8
OUTLINE
10
2878
20
5415
30
0
0
VERTEX
8
OUTLINE
10
2878
20
5428
30
0
0
VERTEX
8
OUTLINE
10
2884
20
5428
30
0
0
VERTEX
8
OUTLINE
10
2954
20
5428
30
0
0
VERTEX
8
OUTLINE
10
2954
20
5992
30
0
0
VERTEX
8
OUTLINE
10
2884
20
5992
30
0
0
VERTEX
8
OUTLINE
10
2878
20
5992
30
0
0
VERTEX
8
OUTLINE
10
2878
20
6005
30
0
0
VERTEX
8
OUTLINE
10
2884
20
6005
30
0
0
VERTEX
8
OUTLINE
10
2884
20
6010
30
0
0
VERTEX
8
OUTLINE
10
2834
20
6010
30
0
0
VERTEX
8
OUTLINE
10
2834
20
6005
30
0
0
VERTEX
8
OUTLINE
10
2840
20
6005
30
0
0
VERTEX
8
OUTLINE
10
2840
20
5992
30
0
0
VERTEX
8
OUTLINE
10
2834
20
5992
30
0
0
VERTEX
8
OUTLINE
10
2534
20
5992
30
0
0
VERTEX
8
OUTLINE
10
2528
20
5992
30
0
0
VERTEX
8
OUTLINE
10
2528
20
6005
30
0
0
VERTEX
8
OUTLINE
10
2534
20
6005
30
0
0
VERTEX
8
OUTLINE
10
2534
20
6010
30
0
0
VERTEX
8
OUTLINE
10
2484
20
6010
30
0
0
VERTEX
8
OUTLINE
10
2484
20
6005
30
0
0
VERTEX
8
OUTLINE
10
2490
20
6005
30
0
0
VERTEX
8
OUTLINE
10
2490
20
5992
30
0
0
VERTEX
8
OUTLINE
10
2484
20
5992
30
0
0
VERTEX
8
OUTLINE
10
2414
20
5992
30
0
0
VERTEX
8
OUTLINE
10
2414
20
5922
30
0
0
VERTEX
8
OUTLINE
10
2414
20
5916
30
0
0
VERTEX
8
OUTLINE
10
2401
20
5916
30
0
0
VERTEX
8
OUTLINE
10
2401
20
5922
30
0
0
VERTEX
8
OUTLINE
10
2396
20
5922
30
0
0
VERTEX
8
OUTLINE
10
2396
20
5872
30
0
0
VERTEX
8
OUTLINE
10
2401
20
5872
30
0
0
VERTEX
8
OUTLINE
10
2401
20
5878
30
0
0
VERTEX
8
OUTLINE
10
2414
20
5878
30
0
0
VERTEX
8
OUTLINE
10
2414
20
5872
30
0
0
VERTEX
8
OUTLINE
10
2414
20
5548
30
0
0
VERTEX
8
OUTLINE
10
2414
20
5542
30
0
0
VERTEX
8
OUTLINE
10
2401
20
5542
30
0
0
VERTEX
8
OUTLINE
10
2401
20
5548
30
0
0
VERTEX
8
OUTLINE
10
2396
20
5548
30
0
0
VERTEX
8
OUTLINE
10
2396
20
5498
30
0
0
VERTEX
8
OUTLINE
10
2401
20
5498
30
0
0
VERTEX
8
OUTLINE
10
2401
20
5504
30
0
0
VERTEX
8
OUTLINE
10
2414
20
5504
30
0
0
VERTEX
8
OUTLINE
10
2414
20
5498
30
0
0
SEQEND
8
OUTLINE
0
POLYLINE
8
PUZZLE_DOG_BONES
66
1
70
1
10
0
20
0
30
0
0
VERTEX
8
PUZZLE_DOG_BONES
10
2479
20
5992
30
0
0
VERTEX
8
PUZZLE_DOG_BONES
10
2539
20
5992
30
0
0
VERTEX
8
PUZZLE_DOG_BONES
10
2539
20
6010
30
0
0
VERTEX
8
PUZZLE_DOG_BONES
10
2479
20
6010
30
0
0
SEQEND
8
PUZZLE_DOG_BONES
0
POLYLINE
8
PUZZLE_DOG_BONES
66
1
70
1
10
0
20
0
30
0
0
VERTEX
8
PUZZLE_DOG_BONES
10
2479
20
5410
30
0
0
VERTEX
8
PUZZLE_DOG_BONES
10
2539
20
5410
30
0
0
VERTEX
8
PUZZLE_DOG_BONES
10
2539
20
5428
30
0
0
VERTEX
8
PUZZLE_DOG_BONES
10
2479
20
5428
30
0
0
SEQEND
8
PUZZLE_DOG_BONES
0
POLYLINE
8
PUZZLE_DOG_BONES
66
1
70
1
10
0
20
0
30
0
0
VERTEX
8
PUZZLE_DOG_BONES
10
2829
20
5992
30
0
0
VERTEX
8
PUZZLE_DOG_BONES
10
2889
20
5992
30
0
0
VERTEX
8
PUZZLE_DOG_BONES
10
2889
20
6010
30
0
0
VERTEX
8
PUZZLE_DOG_BONES
10
2829
20
6010
30
0
0
SEQEND
8
PUZZLE_DOG_BONES
0
POLYLINE
8
PUZZLE_DOG_BONES
66
1
70
1
10
0
20
0
30
0
0
VERTEX
8
PUZZLE_DOG_BONES
10
2829
20
5410
30
0
0
VERTEX
8
PUZZLE_DOG_BONES
10
2889
20
5410
30
0
0
VERTEX
8
PUZZLE_DOG_BONES
10
2889
20
5428
30
0
0
VERTEX
8
PUZZLE_DOG_BONES
10
2829
20
5428
30
0
0
SEQEND
8
PUZZLE_DOG_BONES
0
POLYLINE
8
PUZZLE_DOG_BONES
66
1
70
1
10
0
20
0
30
0
0
VERTEX
8
PUZZLE_DOG_BONES
10
2396
20
5493
30
0
0
VERTEX
8
PUZZLE_DOG_BONES
10
2414
20
5493
30
0
0
VERTEX
8
PUZZLE_DOG_BONES
10
2414
20
5553
30
0
0
VERTEX
8
PUZZLE_DOG_BONES
10
2396
20
5553
30
0
0
SEQEND
8
PUZZLE_DOG_BONES
0
POLYLINE
8
PUZZLE_DOG_BONES
66
1
70
1
10
0
20
0
30
0
0
VERTEX
8
PUZZLE_DOG_BONES
10
2396
20
5867
30
0
0
VERTEX
8
PUZZLE_DOG_BONES
10
2414
20
5867
30
0
0
VERTEX
8
PUZZLE_DOG_BONES
10
2414
20
5927
30
0
0
VERTEX
8
PUZZLE_DOG_BONES
10
2396
20
5927
30
0
0
SEQEND
8
PUZZLE_DOG_BONES
0
TEXT
8
UNIT_NUMBER
10
2684
20
5735
30
0
40
20
1
W01
72
1
11
2684
21
5735
31
0
73
2
0
TEXT
8
UNIT_NUMBER
10
2684
20
5710
30
0
40
20
1
BOTTOM
72
1
11
2684
21
5710
31
0
73
2
0
TEXT
8
UNIT_NUMBER
10
2684
20
5685
30
0
40
20
1
564x540
72
1
11
2684
21
5685
31
0
73
2
0
POLYLINE
8
OUTLINE
66
1
70
1
10
0
20
0
30
0
0
VERTEX
8
OUTLINE
10
6
20
1666
30
0
0
VERTEX
8
OUTLINE
10
606
20
1666
30
0
0
VERTEX
8
OUTLINE
10
606
20
3751
30
0
0
VERTEX
8
OUTLINE
10
487.8182
20
3816
30
0
0
VERTEX
8
OUTLINE
10
6
20
3816
30
0
0
SEQEND
8
OUTLINE
0
POLYLINE
8
PUZZLE_SOCKET
66
1
70
1
10
0
20
0
30
0
0
VERTEX
8
PUZZLE_SOCKET
10
0
20
1735.5
30
0
0
VERTEX
8
PUZZLE_SOCKET
10
15
20
1735.5
30
0
0
VERTEX
8
PUZZLE_SOCKET
10
15
20
1786.5
30
0
0
VERTEX
8
PUZZLE_SOCKET
10
0
20
1786.5
30
0
0
SEQEND
8
PUZZLE_SOCKET
0
POLYLINE
8
PUZZLE_SOCKET
66
1
70
1
10
0
20
0
30
0
0
VERTEX
8
PUZZLE_SOCKET
10
0
20
2715.5
30
0
0
VERTEX
8
PUZZLE_SOCKET
10
15
20
2715.5
30
0
0
VERTEX
8
PUZZLE_SOCKET
10
15
20
2766.5
30
0
0
VERTEX
8
PUZZLE_SOCKET
10
0
20
2766.5
30
0
0
SEQEND
8
PUZZLE_SOCKET
0
POLYLINE
8
PUZZLE_SOCKET
66
1
70
1
10
0
20
0
30
0
0
VERTEX
8
PUZZLE_SOCKET
10
0
20
3695.5
30
0
0
VERTEX
8
PUZZLE_SOCKET
10
15
20
3695.5
30
0
0
VERTEX
8
PUZZLE_SOCKET
10
15
20
3746.5
30
0
0
VERTEX
8
PUZZLE_SOCKET
10
0
20
3746.5
30
0
0
SEQEND
8
PUZZLE_SOCKET
0
POLYLINE
8
PUZZLE_SOCKET
66
1
70
1
10
0
20
0
30
0
0
VERTEX
8
PUZZLE_SOCKET
10
597
20
1735.5
30
0
0
VERTEX
8
PUZZLE_SOCKET
10
612
20
1735.5
30
0
0
VERTEX
8
PUZZLE_SOCKET
10
612
20
1786.5
30
0
0
VERTEX
8
PUZZLE_SOCKET
10
597
20
1786.5
30
0
0
SEQEND
8
PUZZLE_SOCKET
0
POLYLINE
8
PUZZLE_SOCKET
66
1
70
1
10
0
20
0
30
0
0
VERTEX
8
PUZZLE_SOCKET
10
597
20
2715.5
30
0
0
VERTEX
8
PUZZLE_SOCKET
10
612
20
2715.5
30
0
0
VERTEX
8
PUZZLE_SOCKET
10
612
20
2766.5
30
0
0
VERTEX
8
PUZZLE_SOCKET
10
597
20
2766.5
30
0
0
SEQEND
8
PUZZLE_SOCKET
0
POLYLINE
8
PUZZLE_SOCKET
66
1
70
1
10
0
20
0
30
0
0
VERTEX
8
PUZZLE_SOCKET
10
597
20
3695.5
30
0
0
VERTEX
8
PUZZLE_SOCKET
10
612
20
3695.5
30
0
0
VERTEX
8
PUZZLE_SOCKET
10
612
20
3746.5
30
0
0
VERTEX
8
PUZZLE_SOCKET
10
597
20
3746.5
30
0
0
SEQEND
8
PUZZLE_SOCKET
0
POLYLINE
8
PUZZLE_SOCKET
66
1
70
1
10
0
20
0
30
0
0
VERTEX
8
PUZZLE_SOCKET
10
93.5
20
3807
30
0
0
VERTEX
8
PUZZLE_SOCKET
10
144.5
20
3807
30
0
0
VERTEX
8
PUZZLE_SOCKET
10
144.5
20
3822
30
0
0
VERTEX
8
PUZZLE_SOCKET
10
93.5
20
3822
30
0
0
SEQEND
8
PUZZLE_SOCKET
0
POLYLINE
8
PUZZLE_SOCKET
66
1
70
1
10
0
20
0
30
0
0
VERTEX
8
PUZZLE_SOCKET
10
467.5
20
3807
30
0
0
VERTEX
8
PUZZLE_SOCKET
10
518.5
20
3807
30
0
0
VERTEX
8
PUZZLE_SOCKET
10
518.5
20
3822
30
0
0
VERTEX
8
PUZZLE_SOCKET
10
467.5
20
3822
30
0
0
SEQEND
8
PUZZLE_SOCKET
0
POLYLINE
8
PUZZLE_SOCKET
66
1
70
1
10
0
20
0
30
0
0
VERTEX
8
PUZZLE_SOCKET
10
93.5
20
1660
30
0
0
VERTEX
8
PUZZLE_SOCKET
10
144.5
20
1660
30
0
0
VERTEX
8
PUZZLE_SOCKET
10
144.5
20
1675
30
0
0
VERTEX
8
PUZZLE_SOCKET
10
93.5
20
1675
30
0
0
SEQEND
8
PUZZLE_SOCKET
0
POLYLINE
8
PUZZLE_SOCKET
66
1
70
1
10
0
20
0
30
0
0
VERTEX
8
PUZZLE_SOCKET
10
467.5
20
1660
30
0
0
VERTEX
8
PUZZLE_SOCKET
10
518.5
20
1660
30
0
0
VERTEX
8
PUZZLE_SOCKET
10
518.5
20
1675
30
0
0
VERTEX
8
PUZZLE_SOCKET
10
467.5
20
1675
30
0
0
SEQEND
8
PUZZLE_SOCKET
0
CIRCLE
8
PUZZLE_HOLES_7_5MM
10
14
20
1736.5
30
0
40
3.75
0
CIRCLE
8
PUZZLE_HOLES_7_5MM
10
14
20
1785.5
30
0
40
3.75
0
CIRCLE
8
PUZZLE_HOLES_7_5MM
10
14
20
2716.5
30
0
40
3.75
0
CIRCLE
8
PUZZLE_HOLES_7_5MM
10
14
20
2765.5
30
0
40
3.75
0
CIRCLE
8
PUZZLE_HOLES_7_5MM
10
14
20
3696.5
30
0
40
3.75
0
CIRCLE
8
PUZZLE_HOLES_7_5MM
10
14
20
3745.5
30
0
40
3.75
0
CIRCLE
8
PUZZLE_HOLES_7_5MM
10
598
20
1736.5
30
0
40
3.75
0
CIRCLE
8
PUZZLE_HOLES_7_5MM
10
598
20
1785.5
30
0
40
3.75
0
CIRCLE
8
PUZZLE_HOLES_7_5MM
10
598
20
2716.5
30
0
40
3.75
0
CIRCLE
8
PUZZLE_HOLES_7_5MM
10
598
20
2765.5
30
0
40
3.75
0
CIRCLE
8
PUZZLE_HOLES_7_5MM
10
598
20
3696.5
30
0
40
3.75
0
CIRCLE
8
PUZZLE_HOLES_7_5MM
10
598
20
3745.5
30
0
40
3.75
0
CIRCLE
8
PUZZLE_HOLES_7_5MM
10
94.5
20
3808
30
0
40
3.75
0
CIRCLE
8
PUZZLE_HOLES_7_5MM
10
143.5
20
3808
30
0
40
3.75
0
CIRCLE
8
PUZZLE_HOLES_7_5MM
10
468.5
20
3808
30
0
40
3.75
0
CIRCLE
8
PUZZLE_HOLES_7_5MM
10
94.5
20
1674
30
0
40
3.75
0
CIRCLE
8
PUZZLE_HOLES_7_5MM
10
143.5
20
1674
30
0
40
3.75
0
CIRCLE
8
PUZZLE_HOLES_7_5MM
10
468.5
20
1674
30
0
40
3.75
0
CIRCLE
8
PUZZLE_HOLES_7_5MM
10
517.5
20
1674
30
0
40
3.75
0
CIRCLE
8
SCREWS_3MM
10
15
20
1716
30
0
40
1.5
0
CIRCLE
8
SCREWS_3MM
10
597
20
1716
30
0
40
1.5
0
CIRCLE
8
SCREWS_3MM
10
15
20
2251
30
0
40
1.5
0
CIRCLE
8
SCREWS_3MM
10
597
20
2251
30
0
40
1.5
0
CIRCLE
8
SCREWS_3MM
10
15
20
3231
30
0
40
1.5
0
CIRCLE
8
SCREWS_3MM
10
597
20
3231
30
0
40
1.5
0
CIRCLE
8
SCREWS_3MM
10
15
20
3766
30
0
40
1.5
0
CIRCLE
8
SCREWS_3MM
10
74
20
3807
30
0
40
1.5
0
CIRCLE
8
SCREWS_3MM
10
74
20
1675
30
0
40
1.5
0
CIRCLE
8
SCREWS_3MM
10
306
20
3807
30
0
40
1.5
0
CIRCLE
8
SCREWS_3MM
10
306
20
1675
30
0
40
1.5
0
CIRCLE
8
SCREWS_3MM
10
538
20
1675
30
0
40
1.5
0
CIRCLE
8
SCREWS_3MM
10
74
20
2121
30
0
40
1.5
0
CIRCLE
8
SCREWS_3MM
10
306
20
2121
30
0
40
1.5
0
CIRCLE
8
SCREWS_3MM
10
538
20
2121
30
0
40
1.5
0
TEXT
8
UNIT_NUMBER
10
306
20
2753.5
30
0
40
20
1
W01 BACK
72
1
11
306
21
2753.5
31
0
73
2
0
TEXT
8
UNIT_NUMBER
10
306
20
2728.5
30
0
40
20
1
600x2150
72
1
11
306
21
2728.5
31
0
73
2
0
POLYLINE
8
OUTLINE
66
1
70
1
10
0
20
0
30
0
0
VERTEX
8
OUTLINE
10
1182
20
3258
30
0
0
VERTEX
8
OUTLINE
10
1182
20
3822
30
0
0
VERTEX
8
OUTLINE
10
662
20
3822
30
0
0
VERTEX
8
OUTLINE
10
662
20
3258
30
0
0
SEQEND
8
OUTLINE
0
TEXT
8
UNIT_NUMBER
10
897
20
3540
30
0
40
20
1
W01
50
90
72
1
11
897
21
3540
31
0
73
2
0
TEXT
8
UNIT_NUMBER
10
922
20
3540
30
0
40
20
1
PARTITION
50
90
72
1
11
922
21
3540
31
0
73
2
0
TEXT
8
UNIT_NUMBER
10
947
20
3540
30
0
40
20
1
564x520
50
90
72
1
11
947
21
3540
31
0
73
2
0
POLYLINE
8
OUTLINE
66
1
70
1
10
0
20
0
30
0
0
VERTEX
8
OUTLINE
10
1396
20
3372
30
0
0
VERTEX
8
OUTLINE
10
1396
20
3812
30
0
0
VERTEX
8
OUTLINE
10
1232
20
3812
30
0
0
VERTEX
8
OUTLINE
10
1232
20
3372
30
0
0
SEQEND
8
OUTLINE
0
POLYLINE
8
DRAWER_RUNNER_POCKET
66
1
70
1
10
0
20
0
30
0
0
VERTEX
8
DRAWER_RUNNER_POCKET
10
1396
20
3362
30
0
0
VERTEX
8
DRAWER_RUNNER_POCKET
10
1396
20
3822
30
0
0
VERTEX
8
DRAWER_RUNNER_POCKET
10
1381
20
3822
30
0
0
VERTEX
8
DRAWER_RUNNER_POCKET
10
1381
20
3362
30
0
0
SEQEND
8
DRAWER_RUNNER_POCKET
0
POLYLINE
8
DRAWER_BOTTOM_POCKET
66
1
70
1
10
0
20
0
30
0
0
VERTEX
8
DRAWER_BOTTOM_POCKET
10
1381
20
3362
30
0
0
VERTEX
8
DRAWER_BOTTOM_POCKET
10
1381
20
3822
30
0
0
VERTEX
8
DRAWER_BOTTOM_POCKET
10
1362
20
3822
30
0
0
VERTEX
8
DRAWER_BOTTOM_POCKET
10
1362
20
3362
30
0
0
SEQEND
8
DRAWER_BOTTOM_POCKET
0
TEXT
8
UNIT_NUMBER
10
1301.7
20
3592
30
0
40
19.68
1
W01 D1-S~
50
90
72
1
11
1301.7
21
3592
31
0
73
2
0
TEXT
8
UNIT_NUMBER
10
1326.3
20
3592
30
0
40
19.68
1
440x164
50
90
72
1
11
1326.3
21
3592
31
0
73
2
0
POLYLINE
8
OUTLINE
66
1
70
1
10
0
20
0
30
0
0
VERTEX
8
OUTLINE
10
1610
20
3372
30
0
0
VERTEX
8
OUTLINE
10
1610
20
3812
30
0
0
VERTEX
8
OUTLINE
10
1446
20
3812
30
0
0
VERTEX
8
OUTLINE
10
1446
20
3372
30
0
0
SEQEND
8
OUTLINE
0
POLYLINE
8
DRAWER_RUNNER_POCKET
66
1
70
1
10
0
20
0
30
0
0
VERTEX
8
DRAWER_RUNNER_POCKET
10
1610
20
3362
30
0
0
VERTEX
8
DRAWER_RUNNER_POCKET
10
1610
20
3822
30
0
0
VERTEX
8
DRAWER_RUNNER_POCKET
10
1595
20
3822
30
0
0
VERTEX
8
DRAWER_RUNNER_POCKET
10
1595
20
3362
30
0
0
SEQEND
8
DRAWER_RUNNER_POCKET
0
POLYLINE
8
DRAWER_BOTTOM_POCKET
66
1
70
1
10
0
20
0
30
0
0
VERTEX
8
DRAWER_BOTTOM_POCKET
10
1595
20
3362
30
0
0
VERTEX
8
DRAWER_BOTTOM_POCKET
10
1595
20
3822
30
0
0
VERTEX
8
DRAWER_BOTTOM_POCKET
10
1576
20
3822
30
0
0
VERTEX
8
DRAWER_BOTTOM_POCKET
10
1576
20
3362
30
0
0
SEQEND
8
DRAWER_BOTTOM_POCKET
0
TEXT
8
UNIT_NUMBER
10
1515.7
20
3592
30
0
40
19.68
1
W01 D1-S~
50
90
72
1
11
1515.7
21
3592
31
0
73
2
0
TEXT
8
UNIT_NUMBER
10
1540.3
20
3592
30
0
40
19.68
1
440x164
50
90
72
1
11
1540.3
21
3592
31
0
73
2
0
POLYLINE
8
OUTLINE
66
1
70
1
10
0
20
0
30
0
0
VERTEX
8
OUTLINE
10
1790
20
3304
30
0
0
VERTEX
8
OUTLINE
10
1790
20
3822
30
0
0
VERTEX
8
OUTLINE
10
1660
20
3822
30
0
0
VERTEX
8
OUTLINE
10
1660
20
3304
30
0
0
SEQEND
8
OUTLINE
0
TEXT
8
UNIT_NUMBER
10
1715.25
20
3563
30
0
40
15.6
1
W01 D1-BF
50
90
72
1
11
1715.25
21
3563
31
0
73
2
0
TEXT
8
UNIT_NUMBER
10
1734.75
20
3563
30
0
40
15.6
1
518x130
50
90
72
1
11
1734.75
21
3563
31
0
73
2
0
POLYLINE
8
OUTLINE
66
1
70
1
10
0
20
0
30
0
0
VERTEX
8
OUTLINE
10
1970
20
3304
30
0
0
VERTEX
8
OUTLINE
10
1970
20
3822
30
0
0
VERTEX
8
OUTLINE
10
1840
20
3822
30
0
0
VERTEX
8
OUTLINE
10
1840
20
3304
30
0
0
SEQEND
8
OUTLINE
0
TEXT
8
UNIT_NUMBER
10
1895.25
20
3563
30
0
40
15.6
1
W01 D1-BB
50
90
72
1
11
1895.25
21
3563
31
0
73
2
0
TEXT
8
UNIT_NUMBER
10
1914.75
20
3563
30
0
40
15.6
1
518x130
50
90
72
1
11
1914.75
21
3563
31
0
73
2
0
POLYLINE
8
OUTLINE
66
1
70
1
10
0
20
0
30
0
0
VERTEX
8
OUTLINE
10
2460
20
3291
30
0
0
VERTEX
8
OUTLINE
10
2460
20
3822
30
0
0
VERTEX
8
OUTLINE
10
2020
20
3822
30
0
0
VERTEX
8
OUTLINE
10
2020
20
3291
30
0
0
SEQEND
8
OUTLINE
0
TEXT
8
UNIT_NUMBER
10
2215
20
3556.5
30
0
40
20
1
W01
50
90
72
1
11
2215
21
3556.5
31
0
73
2
0
TEXT
8
UNIT_NUMBER
10
2240
20
3556.5
30
0
40
20
1
D1-DNO
50
90
72
1
11
2240
21
3556.5
31
0
73
2
0
TEXT
8
UNIT_NUMBER
10
2265
20
3556.5
30
0
40
20
1
531x440
50
90
72
1
11
2265
21
3556.5
31
0
73
2
0
POLYLINE
8
OUTLINE
66
1
70
1
10
0
20
0
30
0
0
VERTEX
8
OUTLINE
10
2694
20
3372
30
0
0
VERTEX
8
OUTLINE
10
2694
20
3812
30
0
0
VERTEX
8
OUTLINE
10
2510
20
3812
30
0
0
VERTEX
8
OUTLINE
10
2510
20
3372
30
0
0
SEQEND
8
OUTLINE
0
POLYLINE
8
DRAWER_RUNNER_POCKET
66
1
70
1
10
0
20
0
30
0
0
VERTEX
8
DRAWER_RUNNER_POCKET
10
2694
20
3362
30
0
0
VERTEX
8
DRAWER_RUNNER_POCKET
10
2694
20
3822
30
0
0
VERTEX
8
DRAWER_RUNNER_POCKET
10
2679
20
3822
30
0
0
VERTEX
8
DRAWER_RUNNER_POCKET
10
2679
20
3362
30
0
0
SEQEND
8
DRAWER_RUNNER_POCKET
0
POLYLINE
8
DRAWER_BOTTOM_POCKET
66
1
70
1
10
0
20
0
30
0
0
VERTEX
8
DRAWER_BOTTOM_POCKET
10
2679
20
3362
30
0
0
VERTEX
8
DRAWER_BOTTOM_POCKET
10
2679
20
3822
30
0
0
VERTEX
8
DRAWER_BOTTOM_POCKET
10
2660
20
3822
30
0
0
VERTEX
8
DRAWER_BOTTOM_POCKET
10
2660
20
3362
30
0
0
SEQEND
8
DRAWER_BOTTOM_POCKET
0
TEXT
8
UNIT_NUMBER
10
2589.5
20
3592
30
0
40
20
1
W01 D2-S~
50
90
72
1
11
2589.5
21
3592
31
0
73
2
0
TEXT
8
UNIT_NUMBER
10
2614.5
20
3592
30
0
40
20
1
440x184
50
90
72
1
11
2614.5
21
3592
31
0
73
2
0
POLYLINE
8
OUTLINE
66
1
70
1
10
0
20
0
30
0
0
VERTEX
8
OUTLINE
10
2928
20
3372
30
0
0
VERTEX
8
OUTLINE
10
2928
20
3812
30
0
0
VERTEX
8
OUTLINE
10
2744
20
3812
30
0
0
VERTEX
8
OUTLINE
10
2744
20
3372
30
0
0
SEQEND
8
OUTLINE
0
POLYLINE
8
DRAWER_RUNNER_POCKET
66
1
70
1
10
0
20
0
30
0
0
VERTEX
8
DRAWER_RUNNER_POCKET
10
2928
20
3362
30
0
0
VERTEX
8
DRAWER_RUNNER_POCKET
10
2928
20
3822
30
0
0
VERTEX
8
DRAWER_RUNNER_POCKET
10
2913
20
3822
30
0
0
VERTEX
8
DRAWER_RUNNER_POCKET
10
2913
20
3362
30
0
0
SEQEND
8
DRAWER_RUNNER_POCKET
0
POLYLINE
8
DRAWER_BOTTOM_POCKET
66
1
70
1
10
0
20
0
30
0
0
VERTEX
8
DRAWER_BOTTOM_POCKET
10
2913
20
3362
30
0
0
VERTEX
8
DRAWER_BOTTOM_POCKET
10
2913
20
3822
30
0
0
VERTEX
8
DRAWER_BOTTOM_POCKET
10
2894
20
3822
30
0
0
VERTEX
8
DRAWER_BOTTOM_POCKET
10
2894
20
3362
30
0
0
SEQEND
8
DRAWER_BOTTOM_POCKET
0
TEXT
8
UNIT_NUMBER
10
2823.5
20
3592
30
0
40
20
1
W01 D2-S~
50
90
72
1
11
2823.5
21
3592
31
0
73
2
0
TEXT
8
UNIT_NUMBER
10
2848.5
20
3592
30
0
40
20
1
440x184
50
90
72
1
11
2848.5
21
3592
31
0
73
2
0
POLYLINE
8
OUTLINE
66
1
70
1
10
0
20
0
30
0
0
VERTEX
8
OUTLINE
10
3128
20
3304
30
0
0
VERTEX
8
OUTLINE
10
3128
20
3822
30
0
0
VERTEX
8
OUTLINE
10
2978
20
3822
30
0
0
VERTEX
8
OUTLINE
10
2978
20
3304
30
0
0
SEQEND
8
OUTLINE
0
TEXT
8
UNIT_NUMBER
10
3041.75
20
3563
30
0
40
18
1
W01 D2-BF
50
90
72
1
11
3041.75
21
3563
31
0
73
2
0
TEXT
8
UNIT_NUMBER
10
3064.25
20
3563
30
0
40
18
1
518x150
50
90
72
1
11
3064.25
21
3563
31
0
73
2
0
POLYLINE
8
OUTLINE
66
1
70
1
10
0
20
0
30
0
0
VERTEX
8
OUTLINE
10
3328
20
3304
30
0
0
VERTEX
8
OUTLINE
10
3328
20
3822
30
0
0
VERTEX
8
OUTLINE
10
3178
20
3822
30
0
0
VERTEX
8
OUTLINE
10
3178
20
3304
30
0
0
SEQEND
8
OUTLINE
0
TEXT
8
UNIT_NUMBER
10
3241.75
20
3563
30
0
40
18
1
W01 D2-BB
50
90
72
1
11
3241.75
21
3563
31
0
73
2
0
TEXT
8
UNIT_NUMBER
10
3264.25
20
3563
30
0
40
18
1
518x150
50
90
72
1
11
3264.25
21
3563
31
0
73
2
0
POLYLINE
8
OUTLINE
66
1
70
1
10
0
20
0
30
0
0
VERTEX
8
OUTLINE
10
440
20
1079
30
0
0
VERTEX
8
OUTLINE
10
440
20
1610
30
0
0
VERTEX
8
OUTLINE
10
0
20
1610
30
0
0
VERTEX
8
OUTLINE
10
0
20
1079
30
0
0
SEQEND
8
OUTLINE
0
TEXT
8
UNIT_NUMBER
10
195
20
1344.5
30
0
40
20
1
W01
50
90
72
1
11
195
21
1344.5
31
0
73
2
0
TEXT
8
UNIT_NUMBER
10
220
20
1344.5
30
0
40
20
1
D2-DNO
50
90
72
1
11
220
21
1344.5
31
0
73
2
0
TEXT
8
UNIT_NUMBER
10
245
20
1344.5
30
0
40
20
1
531x440
50
90
72
1
11
245
21
1344.5
31
0
73
2
0
POLYLINE
8
OUTLINE
66
1
70
1
10
0
20
0
30
0
0
VERTEX
8
OUTLINE
10
687
20
1052
30
0
0
VERTEX
8
OUTLINE
10
687
20
1610
30
0
0
VERTEX
8
OUTLINE
10
490
20
1610
30
0
0
VERTEX
8
OUTLINE
10
490
20
1052
30
0
0
SEQEND
8
OUTLINE
0
POLYLINE
8
SHAKER_PANEL_POCKET
66
1
70
1
10
0
20
0
30
0
0
VERTEX
8
SHAKER_PANEL_POCKET
10
550
20
1112
30
0
0
VERTEX
8
SHAKER_PANEL_POCKET
10
550
20
1550
30
0
0
VERTEX
8
SHAKER_PANEL_POCKET
10
627
20
1550
30
0
0
VERTEX
8
SHAKER_PANEL_POCKET
10
627
20
1112
30
0
0
SEQEND
8
SHAKER_PANEL_POCKET
0
TEXT
8
UNIT_NUMBER
10
576
20
1331
30
0
40
20
1
W01 DF1
50
90
72
1
11
576
21
1331
31
0
73
2
0
TEXT
8
UNIT_NUMBER
10
601
20
1331
30
0
40
20
1
558x197
50
90
72
1
11
601
21
1331
31
0
73
2
0
POLYLINE
8
OUTLINE
66
1
70
1
10
0
20
0
30
0
0
VERTEX
8
OUTLINE
10
957
20
1052
30
0
0
VERTEX
8
OUTLINE
10
957
20
1610
30
0
0
VERTEX
8
OUTLINE
10
737
20
1610
30
0
0
VERTEX
8
OUTLINE
10
737
20
1052
30
0
0
SEQEND
8
OUTLINE
0
POLYLINE
8
SHAKER_PANEL_POCKET
66
1
70
1
10
0
20
0
30
0
0
VERTEX
8
SHAKER_PANEL_POCKET
10
797
20
1112
30
0
0
VERTEX
8
SHAKER_PANEL_POCKET
10
797
20
1550
30
0
0
VERTEX
8
SHAKER_PANEL_POCKET
10
897
20
1550
30
0
0
VERTEX
8
SHAKER_PANEL_POCKET
10
897
20
1112
30
0
0
SEQEND
8
SHAKER_PANEL_POCKET
0
TEXT
8
UNIT_NUMBER
10
834.5
20
1331
30
0
40
20
1
W01 DF2
50
90
72
1
11
834.5
21
1331
31
0
73
2
0
TEXT
8
UNIT_NUMBER
10
859.5
20
1331
30
0
40
20
1
558x220
50
90
72
1
11
859.5
21
1331
31
0
73
2
0
POLYLINE
8
OUTLINE
66
1
70
1
10
0
20
0
30
0
0
VERTEX
8
OUTLINE
10
1107
20
110
30
0
0
VERTEX
8
OUTLINE
10
1107
20
1610
30
0
0
VERTEX
8
OUTLINE
10
1007
20
1610
30
0
0
VERTEX
8
OUTLINE
10
1007
20
110
30
0
0
SEQEND
8
OUTLINE
0
TEXT
8
UNIT_NUMBER
10
1057
20
860
30
0
40
12
1
W01 PLINTH 1500x100
50
90
72
1
11
1057
21
860
31
0
73
2
0
POLYLINE
8
OUTLINE
66
1
70
1
10
0
20
0
30
0
0
VERTEX
8
OUTLINE
10
1157
20
1210
30
0
0
VERTEX
8
OUTLINE
10
1671
20
1210
30
0
0
VERTEX
8
OUTLINE
10
1671
20
1610
30
0
0
VERTEX
8
OUTLINE
10
1157
20
1610
30
0
0
SEQEND
8
OUTLINE
0
TEXT
8
UNIT_NUMBER
10
1414
20
1435
30
0
40
20
1
W01
72
1
11
1414
21
1435
31
0
73
2
0
TEXT
8
UNIT_NUMBER
10
1414
20
1410
30
0
40
20
1
D2-WB
72
1
11
1414
21
1410
31
0
73
2
0
TEXT
8
UNIT_NUMBER
10
1414
20
1385
30
0
40
20
1
514x400
72
1
11
1414
21
1385
31
0
73
2
0
POLYLINE
8
OUTLINE
66
1
70
1
10
0
20
0
30
0
0
VERTEX
8
OUTLINE
10
1721
20
1550
30
0
0
VERTEX
8
OUTLINE
10
2235
20
1550
30
0
0
VERTEX
8
OUTLINE
10
2235
20
1610
30
0
0
VERTEX
8
OUTLINE
10
1721
20
1610
30
0
0
SEQEND
8
OUTLINE
0
POLYLINE
8
WATCH_DIVIDER_SLOT
66
1
70
1
10
0
20
0
30
0
0
VERTEX
8
WATCH_DIVIDER_SLOT
10
1822
20
1550
30
0
0
VERTEX
8
WATCH_DIVIDER_SLOT
10
1831
20
1550
30
0
0
VERTEX
8
WATCH_DIVIDER_SLOT
10
1831
20
1610
30
0
0
VERTEX
8
WATCH_DIVIDER_SLOT
10
1822
20
1610
30
0
0
SEQEND
8
WATCH_DIVIDER_SLOT
0
POLYLINE
8
WATCH_DIVIDER_SLOT
66
1
70
1
10
0
20
0
30
0
0
VERTEX
8
WATCH_DIVIDER_SLOT
10
1923
20
1550
30
0
0
VERTEX
8
WATCH_DIVIDER_SLOT
10
1932
20
1550
30
0
0
VERTEX
8
WATCH_DIVIDER_SLOT
10
1932
20
1610
30
0
0
VERTEX
8
WATCH_DIVIDER_SLOT
10
1923
20
1610
30
0
0
SEQEND
8
WATCH_DIVIDER_SLOT
0
POLYLINE
8
WATCH_DIVIDER_SLOT
66
1
70
1
10
0
20
0
30
0
0
VERTEX
8
WATCH_DIVIDER_SLOT
10
2024
20
1550
30
0
0
VERTEX
8
WATCH_DIVIDER_SLOT
10
2033
20
1550
30
0
0
VERTEX
8
WATCH_DIVIDER_SLOT
10
2033
20
1610
30
0
0
VERTEX
8
WATCH_DIVIDER_SLOT
10
2024
20
1610
30
0
0
SEQEND
8
WATCH_DIVIDER_SLOT
0
POLYLINE
8
WATCH_DIVIDER_SLOT
66
1
70
1
10
0
20
0
30
0
0
VERTEX
8
WATCH_DIVIDER_SLOT
10
2125
20
1550
30
0
0
VERTEX
8
WATCH_DIVIDER_SLOT
10
2134
20
1550
30
0
0
VERTEX
8
WATCH_DIVIDER_SLOT
10
2134
20
1610
30
0
0
VERTEX
8
WATCH_DIVIDER_SLOT
10
2125
20
1610
30
0
0
SEQEND
8
WATCH_DIVIDER_SLOT
0
TEXT
8
UNIT_NUMBER
10
1978
20
1580
30
0
40
7.2
1
W01 D2-WRF 514x60
72
1
11
1978
21
1580
31
0
73
2
0
POLYLINE
8
OUTLINE
66
1
70
1
10
0
20
0
30
0
0
VERTEX
8
OUTLINE
10
2285
20
1550
30
0
0
VERTEX
8
OUTLINE
10
2799
20
1550
30
0
0
VERTEX
8
OUTLINE
10
2799
20
1610
30
0
0
VERTEX
8
OUTLINE
10
2285
20
1610
30
0
0
SEQEND
8
OUTLINE
0
POLYLINE
8
WATCH_DIVIDER_SLOT
66
1
70
1
10
0
20
0
30
0
0
VERTEX
8
WATCH_DIVIDER_SLOT
10
2537.5
20
1550
30
0
0
VERTEX
8
WATCH_DIVIDER_SLOT
10
2546.5
20
1550
30
0
0
VERTEX
8
WATCH_DIVIDER_SLOT
10
2546.5
20
1610
30
0
0
VERTEX
8
WATCH_DIVIDER_SLOT
10
2537.5
20
1610
30
0
0
SEQEND
8
WATCH_DIVIDER_SLOT
0
TEXT
8
UNIT_NUMBER
10
2542
20
1580
30
0
40
7.2
1
W01 D2-WRB 514x60
72
1
11
2542
21
1580
31
0
73
2
0
POLYLINE
8
OUTLINE
66
1
70
1
10
0
20
0
30
0
0
VERTEX
8
OUTLINE
10
2849
20
1550
30
0
0
VERTEX
8
OUTLINE
10
3231
20
1550
30
0
0
VERTEX
8
OUTLINE
10
3231
20
1610
30
0
0
VERTEX
8
OUTLINE
10
2849
20
1610
30
0
0
SEQEND
8
OUTLINE
0
TEXT
8
UNIT_NUMBER
10
3040
20
1584.5
30
0
40
7.2
1
W01 D2-WRL
72
1
11
3040
21
1584.5
31
0
73
2
0
TEXT
8
UNIT_NUMBER
10
3040
20
1575.5
30
0
40
7.2
1
382x60
72
1
11
3040
21
1575.5
31
0
73
2
0
POLYLINE
8
OUTLINE
66
1
70
1
10
0
20
0
30
0
0
VERTEX
8
OUTLINE
10
0
20
0
30
0
0
VERTEX
8
OUTLINE
10
382
20
0
30
0
0
VERTEX
8
OUTLINE
10
382
20
60
30
0
0
VERTEX
8
OUTLINE
10
0
20
60
30
0
0
SEQEND
8
OUTLINE
0
TEXT
8
UNIT_NUMBER
10
191
20
34.5
30
0
40
7.2
1
W01 D2-WRR
72
1
11
191
21
34.5
31
0
73
2
0
TEXT
8
UNIT_NUMBER
10
191
20
25.5
30
0
40
7.2
1
382x60
72
1
11
191
21
25.5
31
0
73
2
0
POLYLINE
8
OUTLINE
66
1
70
1
10
0
20
0
30
0
0
VERTEX
8
OUTLINE
10
432
20
0
30
0
0
VERTEX
8
OUTLINE
10
928
20
0
30
0
0
VERTEX
8
OUTLINE
10
928
20
60
30
0
0
VERTEX
8
OUTLINE
10
432
20
60
30
0
0
SEQEND
8
OUTLINE
0
POLYLINE
8
WATCH_DIVIDER_SLOT
66
1
70
1
10
0
20
0
30
0
0
VERTEX
8
WATCH_DIVIDER_SLOT
10
524
20
0
30
0
0
VERTEX
8
WATCH_DIVIDER_SLOT
10
533
20
0
30
0
0
VERTEX
8
WATCH_DIVIDER_SLOT
10
533
20
60
30
0
0
VERTEX
8
WATCH_DIVIDER_SLOT
10
524
20
60
30
0
0
SEQEND
8
WATCH_DIVIDER_SLOT
0
POLYLINE
8
WATCH_DIVIDER_SLOT
66
1
70
1
10
0
20
0
30
0
0
VERTEX
8
WATCH_DIVIDER_SLOT
10
625
20
0
30
0
0
VERTEX
8
WATCH_DIVIDER_SLOT
10
634
20
0
30
0
0
VERTEX
8
WATCH_DIVIDER_SLOT
10
634
20
60
30
0
0
VERTEX
8
WATCH_DIVIDER_SLOT
10
625
20
60
30
0
0
SEQEND
8
WATCH_DIVIDER_SLOT
0
POLYLINE
8
WATCH_DIVIDER_SLOT
66
1
70
1
10
0
20
0
30
0
0
VERTEX
8
WATCH_DIVIDER_SLOT
10
726
20
0
30
0
0
VERTEX
8
WATCH_DIVIDER_SLOT
10
735
20
0
30
0
0
VERTEX
8
WATCH_DIVIDER_SLOT
10
735
20
60
30
0
0
VERTEX
8
WATCH_DIVIDER_SLOT
10
726
20
60
30
0
0
SEQEND
8
WATCH_DIVIDER_SLOT
0
POLYLINE
8
WATCH_DIVIDER_SLOT
66
1
70
1
10
0
20
0
30
0
0
VERTEX
8
WATCH_DIVIDER_SLOT
10
827
20
0
30
0
0
VERTEX
8
WATCH_DIVIDER_SLOT
10
836
20
0
30
0
0
VERTEX
8
WATCH_DIVIDER_SLOT
10
836
20
60
30
0
0
VERTEX
8
WATCH_DIVIDER_SLOT
10
827
20
60
30
0
0
SEQEND
8
WATCH_DIVIDER_SLOT
0
POLYLINE
8
WATCH_DIVIDER_SLOT
66
1
70
1
10
0
20
0
30
0
0
VERTEX
8
WATCH_DIVIDER_SLOT
10
675.5
20
0
30
0
0
VERTEX
8
WATCH_DIVIDER_SLOT
10
684.5
20
0
30
0
0
VERTEX
8
WATCH_DIVIDER_SLOT
10
684.5
20
60
30
0
0
VERTEX
8
WATCH_DIVIDER_SLOT
10
675.5
20
60
30
0
0
SEQEND
8
WATCH_DIVIDER_SLOT
0
TEXT
8
UNIT_NUMBER
10
680
20
30
30
0
40
7.2
1
W01 D2-WRW 496x60
72
1
11
680
21
30
31
0
73
2
0
POLYLINE
8
OUTLINE
66
1
70
1
10
0
20
0
30
0
0
VERTEX
8
OUTLINE
10
978
20
0
30
0
0
VERTEX
8
OUTLINE
10
1088
20
0
30
0
0
VERTEX
8
OUTLINE
10
1088
20
60
30
0
0
VERTEX
8
OUTLINE
10
978
20
60
30
0
0
SEQEND
8
OUTLINE
0
TEXT
8
UNIT_NUMBER
10
1033
20
39
30
0
40
7.2
1
W01
72
1
11
1033
21
39
31
0
73
2
0
TEXT
8
UNIT_NUMBER
10
1033
20
30
30
0
40
7.2
1
D2-WP1
72
1
11
1033
21
30
31
0
73
2
0
TEXT
8
UNIT_NUMBER
10
1033
20
21
30
0
40
7.2
1
110x60
72
1
11
1033
21
21
31
0
73
2
0
POLYLINE
8
OUTLINE
66
1
70
1
10
0
20
0
30
0
0
VERTEX
8
OUTLINE
10
1138
20
0
30
0
0
VERTEX
8
OUTLINE
10
1248
20
0
30
0
0
VERTEX
8
OUTLINE
10
1248
20
60
30
0
0
VERTEX
8
OUTLINE
10
1138
20
60
30
0
0
SEQEND
8
OUTLINE
0
TEXT
8
UNIT_NUMBER
10
1193
20
39
30
0
40
7.2
1
W01
72
1
11
1193
21
39
31
0
73
2
0
TEXT
8
UNIT_NUMBER
10
1193
20
30
30
0
40
7.2
1
D2-WP2
72
1
11
1193
21
30
31
0
73
2
0
TEXT
8
UNIT_NUMBER
10
1193
20
21
30
0
40
7.2
1
110x60
72
1
11
1193
21
21
31
0
73
2
0
POLYLINE
8
OUTLINE
66
1
70
1
10
0
20
0
30
0
0
VERTEX
8
OUTLINE
10
1298
20
0
30
0
0
VERTEX
8
OUTLINE
10
1408
20
0
30
0
0
VERTEX
8
OUTLINE
10
1408
20
60
30
0
0
VERTEX
8
OUTLINE
10
1298
20
60
30
0
0
SEQEND
8
OUTLINE
0
TEXT
8
UNIT_NUMBER
10
1353
20
39
30
0
40
7.2
1
W01
72
1
11
1353
21
39
31
0
73
2
0
TEXT
8
UNIT_NUMBER
10
1353
20
30
30
0
40
7.2
1
D2-WP3
72
1
11
1353
21
30
31
0
73
2
0
TEXT
8
UNIT_NUMBER
10
1353
20
21
30
0
40
7.2
1
110x60
72
1
11
1353
21
21
31
0
73
2
0
POLYLINE
8
OUTLINE
66
1
70
1
10
0
20
0
30
0
0
VERTEX
8
OUTLINE
10
1458
20
0
30
0
0
VERTEX
8
OUTLINE
10
1568
20
0
30
0
0
VERTEX
8
OUTLINE
10
1568
20
60
30
0
0
VERTEX
8
OUTLINE
10
1458
20
60
30
0
0
SEQEND
8
OUTLINE
0
TEXT
8
UNIT_NUMBER
10
1513
20
39
30
0
40
7.2
1
W01
72
1
11
1513
21
39
31
0
73
2
0
TEXT
8
UNIT_NUMBER
10
1513
20
30
30
0
40
7.2
1
D2-WP4
72
1
11
1513
21
30
31
0
73
2
0
TEXT
8
UNIT_NUMBER
10
1513
20
21
30
0
40
7.2
1
110x60
72
1
11
1513
21
21
31
0
73
2
0
POLYLINE
8
OUTLINE
66
1
70
1
10
0
20
0
30
0
0
VERTEX
8
OUTLINE
10
1618
20
0
30
0
0
VERTEX
8
OUTLINE
10
1881
20
0
30
0
0
VERTEX
8
OUTLINE
10
1881
20
60
30
0
0
VERTEX
8
OUTLINE
10
1618
20
60
30
0
0
SEQEND
8
OUTLINE
0
TEXT
8
UNIT_NUMBER
10
1749.5
20
34.5
30
0
40
7.2
1
W01 D2-WS1-1
72
1
11
1749.5
21
34.5
31
0
73
2
0
TEXT
8
UNIT_NUMBER
10
1749.5
20
25.5
30
0
40
7.2
1
263x60
72
1
11
1749.5
21
25.5
31
0
73
2
0
ENDSEC
0
EOF
