0
SECTION
2
HEADER
9
$ACADVER
1
AC1009
9
$INSBASE
10
0
20
0
30
0
9
$EXTMIN
10
-10
20
0
30
0
9
$EXTMAX
10
524
20
60
30
0
0
ENDSEC
0
SECTION
2
TABLES
0
TABLE
2
LAYER
70
6
0
LAYER
2
0
70
0
62
7
6
CONTINUOUS
0
LAYER
2
OUTLINE
70
0
62
7
6
CONTINUOUS
0
LAYER
2
UNIT_NUMBER
70
0
62
94
6
CONTINUOUS
0
LAYER
2
WATCH_DIVIDER_SLOT
70
0
62
7
6
CONTINUOUS
0
LAYER
2
WATCH_GLASS_REBATE
70
0
62
7
6
CONTINUOUS
0
LAYER
2
LED_GROOVE
70
0
62
7
6
CONTINUOUS
0
ENDTAB
0
ENDSEC
0
SECTION
2
ENTITIES
0
POLYLINE
8
OUTLINE
66
1
70
1
10
0
20
0
30
0
0
VERTEX
8
OUTLINE
10
0
20
0
30
0
0
VERTEX
8
OUTLINE
10
514
20
0
30
0
0
VERTEX
8
OUTLINE
10
514
20
60
30
0
0
VERTEX
8
OUTLINE
10
0
20
60
30
0
0
SEQEND
8
OUTLINE
0
POLYLINE
8
WATCH_DIVIDER_SLOT
66
1
70
1
10
0
20
0
30
0
0
VERTEX
8
WATCH_DIVIDER_SLOT
10
101
20
0
30
0
0
VERTEX
8
WATCH_DIVIDER_SLOT
10
110
20
0
30
0
0
VERTEX
8
WATCH_DIVIDER_SLOT
10
110
20
60
30
0
0
VERTEX
8
WATCH_DIVIDER_SLOT
10
101
20
60
30
0
0
SEQEND
8
WATCH_DIVIDER_SLOT
0
POLYLINE
8
WATCH_DIVIDER_SLOT
66
1
70
1
10
0
20
0
30
0
0
VERTEX
8
WATCH_DIVIDER_SLOT
10
202
20
0
30
0
0
VERTEX
8
WATCH_DIVIDER_SLOT
10
211
20
0
30
0
0
VERTEX
8
WATCH_DIVIDER_SLOT
10
211
20
60
30
0
0
VERTEX
8
WATCH_DIVIDER_SLOT
10
202
20
60
30
0
0
SEQEND
8
WATCH_DIVIDER_SLOT
0
POLYLINE
8
WATCH_DIVIDER_SLOT
66
1
70
1
10
0
20
0
30
0
0
VERTEX
8
WATCH_DIVIDER_SLOT
10
303
20
0
30
0
0
VERTEX
8
WATCH_DIVIDER_SLOT
10
312
20
0
30
0
0
VERTEX
8
WATCH_DIVIDER_SLOT
10
312
20
60
30
0
0
VERTEX
8
WATCH_DIVIDER_SLOT
10
303
20
60
30
0
0
SEQEND
8
WATCH_DIVIDER_SLOT
0
POLYLINE
8
WATCH_DIVIDER_SLOT
66
1
70
1
10
0
20
0
30
0
0
VERTEX
8
WATCH_DIVIDER_SLOT
10
404
20
0
30
0
0
VERTEX
8
WATCH_DIVIDER_SLOT
10
413
20
0
30
0
0
VERTEX
8
WATCH_DIVIDER_SLOT
10
413
20
60
30
0
0
VERTEX
8
WATCH_DIVIDER_SLOT
10
404
20
60
30
0
0
SEQEND
8
WATCH_DIVIDER_SLOT
0
POLYLINE
8
WATCH_GLASS_REBATE
66
1
70
1
10
0
20
0
30
0
0
VERTEX
8
WATCH_GLASS_REBATE
10
0
20
56
30
0
0
VERTEX
8
WATCH_GLASS_REBATE
10
514
20
56
30
0
0
VERTEX
8
WATCH_GLASS_REBATE
10
514
20
60
30
0
0
VERTEX
8
WATCH_GLASS_REBATE
10
0
20
60
30
0
0
SEQEND
8
WATCH_GLASS_REBATE
0
POLYLINE
8
LED_GROOVE
66
1
70
1
10
0
20
0
30
0
0
VERTEX
8
LED_GROOVE
10
-10
20
42
30
0
0
VERTEX
8
LED_GROOVE
10
524
20
42
30
0
0
VERTEX
8
LED_GROOVE
10
524
20
46
30
0
0
VERTEX
8
LED_GROOVE
10
-10
20
46
30
0
0
SEQEND
8
LED_GROOVE
0
TEXT
8
UNIT_NUMBER
10
257
20
30
30
0
40
7.2
1
W01 D2-WRF 514x60
72
1
11
257
21
30
31
0
73
2
0
ENDSEC
0
EOF
