0
SECTION
2
HEADER
9
$ACADVER
1
AC1009
9
$INSBASE
10
0
20
0
30
0
9
$EXTMIN
10
-10
20
0
30
0
9
$EXTMAX
10
450
20
164
30
0
0
ENDSEC
0
SECTION
2
TABLES
0
TABLE
2
LAYER
70
5
0
LAYER
2
0
70
0
62
7
6
CONTINUOUS
0
LAYER
2
OUTLINE
70
0
62
7
6
CONTINUOUS
0
LAYER
2
UNIT_NUMBER
70
0
62
94
6
CONTINUOUS
0
LAYER
2
DRAWER_RUNNER_POCKET
70
0
62
1
6
CONTINUOUS
0
LAYER
2
DRAWER_BOTTOM_POCKET
70
0
62
2
6
CONTINUOUS
0
ENDTAB
0
ENDSEC
0
SECTION
2
ENTITIES
0
POLYLINE
8
OUTLINE
66
1
70
1
10
0
20
0
30
0
0
VERTEX
8
OUTLINE
10
0
20
0
30
0
0
VERTEX
8
OUTLINE
10
440
20
0
30
0
0
VERTEX
8
OUTLINE
10
440
20
164
30
0
0
VERTEX
8
OUTLINE
10
0
20
164
30
0
0
SEQEND
8
OUTLINE
0
POLYLINE
8
DRAWER_RUNNER_POCKET
66
1
70
1
10
0
20
0
30
0
0
VERTEX
8
DRAWER_RUNNER_POCKET
10
-10
20
0
30
0
0
VERTEX
8
DRAWER_RUNNER_POCKET
10
450
20
0
30
0
0
VERTEX
8
DRAWER_RUNNER_POCKET
10
450
20
15
30
0
0
VERTEX
8
DRAWER_RUNNER_POCKET
10
-10
20
15
30
0
0
SEQEND
8
DRAWER_RUNNER_POCKET
0
POLYLINE
8
DRAWER_BOTTOM_POCKET
66
1
70
1
10
0
20
0
30
0
0
VERTEX
8
DRAWER_BOTTOM_POCKET
10
-10
20
15
30
0
0
VERTEX
8
DRAWER_BOTTOM_POCKET
10
450
20
15
30
0
0
VERTEX
8
DRAWER_BOTTOM_POCKET
10
450
20
34
30
0
0
VERTEX
8
DRAWER_BOTTOM_POCKET
10
-10
20
34
30
0
0
SEQEND
8
DRAWER_BOTTOM_POCKET
0
TEXT
8
UNIT_NUMBER
10
220
20
94.3
30
0
40
19.68
1
W01 D1-S~
72
1
11
220
21
94.3
31
0
73
2
0
TEXT
8
UNIT_NUMBER
10
220
20
69.7
30
0
40
19.68
1
440x164
72
1
11
220
21
69.7
31
0
73
2
0
ENDSEC
0
EOF
