0
SECTION
2
HEADER
9
$ACADVER
1
AC1009
9
$INSBASE
10
0
20
0
30
0
9
$EXTMIN
10
0
20
0
30
0
9
$EXTMAX
10
558
20
197
30
0
0
ENDSEC
0
SECTION
2
TABLES
0
TABLE
2
LAYER
70
4
0
LAYER
2
0
70
0
62
7
6
CONTINUOUS
0
LAYER
2
OUTLINE
70
0
62
7
6
CONTINUOUS
0
LAYER
2
SHAKER_PANEL_POCKET
70
0
62
41
6
CONTINUOUS
0
LAYER
2
UNIT_NUMBER
70
0
62
94
6
CONTINUOUS
0
ENDTAB
0
ENDSEC
0
SECTION
2
ENTITIES
0
POLYLINE
8
OUTLINE
66
1
70
1
10
0
20
0
30
0
0
VERTEX
8
OUTLINE
10
0
20
0
30
0
0
VERTEX
8
OUTLINE
10
558
20
0
30
0
0
VERTEX
8
OUTLINE
10
558
20
197
30
0
0
VERTEX
8
OUTLINE
10
0
20
197
30
0
0
SEQEND
8
OUTLINE
0
POLYLINE
8
SHAKER_PANEL_POCKET
66
1
70
1
10
0
20
0
30
0
0
VERTEX
8
SHAKER_PANEL_POCKET
10
60
20
137
30
0
0
VERTEX
8
SHAKER_PANEL_POCKET
10
498
20
137
30
0
0
VERTEX
8
SHAKER_PANEL_POCKET
10
498
20
60
30
0
0
VERTEX
8
SHAKER_PANEL_POCKET
10
60
20
60
30
0
0
SEQEND
8
SHAKER_PANEL_POCKET
0
TEXT
8
UNIT_NUMBER
10
279
20
111
30
0
40
20
1
W01 DF1
72
1
11
279
21
111
31
0
73
2
0
TEXT
8
UNIT_NUMBER
10
279
20
86
30
0
40
20
1
558x197
72
1
11
279
21
86
31
0
73
2
0
ENDSEC
0
EOF
