0
SECTION
2
HEADER
9
$ACADVER
1
AC1009
9
$INSBASE
10
0
20
0
30
0
9
$EXTMIN
10
0
20
0
30
0
9
$EXTMAX
10
540
20
144.7775
30
0
0
ENDSEC
0
SECTION
2
TABLES
0
TABLE
2
LAYER
70
3
0
LAYER
2
0
70
0
62
7
6
CONTINUOUS
0
LAYER
2
OUTLINE
70
0
62
7
6
CONTINUOUS
0
LAYER
2
UNIT_NUMBER
70
0
62
94
6
CONTINUOUS
0
ENDTAB
0
ENDSEC
0
SECTION
2
ENTITIES
0
POLYLINE
8
OUTLINE
66
1
70
1
10
0
20
0
30
0
0
VERTEX
8
OUTLINE
10
0
20
0
30
0
0
VERTEX
8
OUTLINE
10
540
20
0
30
0
0
VERTEX
8
OUTLINE
10
540
20
144.7775
30
0
0
VERTEX
8
OUTLINE
10
0
20
144.7775
30
0
0
SEQEND
8
OUTLINE
0
TEXT
8
UNIT_NUMBER
10
270
20
102.5852
30
0
40
35.16025
1
BEVEL
72
1
11
270
21
102.5852
31
0
73
2
0
TEXT
8
UNIT_NUMBER
10
270
20
58.634888
30
0
40
35.16025
1
28.8 DEG BOTH
72
1
11
270
21
58.634888
31
0
73
2
0
TEXT
8
UNIT_NUMBER
10
270
20
14.684575
30
0
40
35.16025
1
ENDS - 5-AXIS
72
1
11
270
21
14.684575
31
0
73
2
0
TEXT
8
UNIT_NUMBER
10
270
20
83.247062
30
0
40
17.3733
1
W01 TOP-2
72
1
11
270
21
83.247062
31
0
73
2
0
TEXT
8
UNIT_NUMBER
10
270
20
61.530438
30
0
40
17.3733
1
144.8x540
72
1
11
270
21
61.530438
31
0
73
2
0
ENDSEC
0
EOF
