0
SECTION
2
HEADER
9
$ACADVER
1
AC1009
9
$INSBASE
10
0
20
0
30
0
9
$EXTMIN
10
-6
20
-6
30
0
9
$EXTMAX
10
606
20
2156
30
0
0
ENDSEC
0
SECTION
2
TABLES
0
TABLE
2
LAYER
70
6
0
LAYER
2
0
70
0
62
7
6
CONTINUOUS
0
LAYER
2
OUTLINE
70
0
62
7
6
CONTINUOUS
0
LAYER
2
PUZZLE_SOCKET
70
0
62
1
6
CONTINUOUS
0
LAYER
2
PUZZLE_HOLES_7_5MM
70
0
62
3
6
CONTINUOUS
0
LAYER
2
SCREWS_3MM
70
0
62
4
6
CONTINUOUS
0
LAYER
2
UNIT_NUMBER
70
0
62
94
6
CONTINUOUS
0
ENDTAB
0
ENDSEC
0
SECTION
2
ENTITIES
0
POLYLINE
8
OUTLINE
66
1
70
1
10
0
20
0
30
0
0
VERTEX
8
OUTLINE
10
0
20
0
30
0
0
VERTEX
8
OUTLINE
10
600
20
0
30
0
0
VERTEX
8
OUTLINE
10
600
20
2150
30
0
0
VERTEX
8
OUTLINE
10
0
20
2150
30
0
0
SEQEND
8
OUTLINE
0
POLYLINE
8
PUZZLE_SOCKET
66
1
70
1
10
0
20
0
30
0
0
VERTEX
8
PUZZLE_SOCKET
10
-6
20
69.5
30
0
0
VERTEX
8
PUZZLE_SOCKET
10
9
20
69.5
30
0
0
VERTEX
8
PUZZLE_SOCKET
10
9
20
120.5
30
0
0
VERTEX
8
PUZZLE_SOCKET
10
-6
20
120.5
30
0
0
SEQEND
8
PUZZLE_SOCKET
0
POLYLINE
8
PUZZLE_SOCKET
66
1
70
1
10
0
20
0
30
0
0
VERTEX
8
PUZZLE_SOCKET
10
-6
20
1049.5
30
0
0
VERTEX
8
PUZZLE_SOCKET
10
9
20
1049.5
30
0
0
VERTEX
8
PUZZLE_SOCKET
10
9
20
1100.5
30
0
0
VERTEX
8
PUZZLE_SOCKET
10
-6
20
1100.5
30
0
0
SEQEND
8
PUZZLE_SOCKET
0
POLYLINE
8
PUZZLE_SOCKET
66
1
70
1
10
0
20
0
30
0
0
VERTEX
8
PUZZLE_SOCKET
10
-6
20
2029.5
30
0
0
VERTEX
8
PUZZLE_SOCKET
10
9
20
2029.5
30
0
0
VERTEX
8
PUZZLE_SOCKET
10
9
20
2080.5
30
0
0
VERTEX
8
PUZZLE_SOCKET
10
-6
20
2080.5
30
0
0
SEQEND
8
PUZZLE_SOCKET
0
POLYLINE
8
PUZZLE_SOCKET
66
1
70
1
10
0
20
0
30
0
0
VERTEX
8
PUZZLE_SOCKET
10
591
20
69.5
30
0
0
VERTEX
8
PUZZLE_SOCKET
10
606
20
69.5
30
0
0
VERTEX
8
PUZZLE_SOCKET
10
606
20
120.5
30
0
0
VERTEX
8
PUZZLE_SOCKET
10
591
20
120.5
30
0
0
SEQEND
8
PUZZLE_SOCKET
0
POLYLINE
8
PUZZLE_SOCKET
66
1
70
1
10
0
20
0
30
0
0
VERTEX
8
PUZZLE_SOCKET
10
591
20
1049.5
30
0
0
VERTEX
8
PUZZLE_SOCKET
10
606
20
1049.5
30
0
0
VERTEX
8
PUZZLE_SOCKET
10
606
20
1100.5
30
0
0
VERTEX
8
PUZZLE_SOCKET
10
591
20
1100.5
30
0
0
SEQEND
8
PUZZLE_SOCKET
0
POLYLINE
8
PUZZLE_SOCKET
66
1
70
1
10
0
20
0
30
0
0
VERTEX
8
PUZZLE_SOCKET
10
591
20
2029.5
30
0
0
VERTEX
8
PUZZLE_SOCKET
10
606
20
2029.5
30
0
0
VERTEX
8
PUZZLE_SOCKET
10
606
20
2080.5
30
0
0
VERTEX
8
PUZZLE_SOCKET
10
591
20
2080.5
30
0
0
SEQEND
8
PUZZLE_SOCKET
0
POLYLINE
8
PUZZLE_SOCKET
66
1
70
1
10
0
20
0
30
0
0
VERTEX
8
PUZZLE_SOCKET
10
87.5
20
2141
30
0
0
VERTEX
8
PUZZLE_SOCKET
10
138.5
20
2141
30
0
0
VERTEX
8
PUZZLE_SOCKET
10
138.5
20
2156
30
0
0
VERTEX
8
PUZZLE_SOCKET
10
87.5
20
2156
30
0
0
SEQEND
8
PUZZLE_SOCKET
0
POLYLINE
8
PUZZLE_SOCKET
66
1
70
1
10
0
20
0
30
0
0
VERTEX
8
PUZZLE_SOCKET
10
461.5
20
2141
30
0
0
VERTEX
8
PUZZLE_SOCKET
10
512.5
20
2141
30
0
0
VERTEX
8
PUZZLE_SOCKET
10
512.5
20
2156
30
0
0
VERTEX
8
PUZZLE_SOCKET
10
461.5
20
2156
30
0
0
SEQEND
8
PUZZLE_SOCKET
0
POLYLINE
8
PUZZLE_SOCKET
66
1
70
1
10
0
20
0
30
0
0
VERTEX
8
PUZZLE_SOCKET
10
87.5
20
-6
30
0
0
VERTEX
8
PUZZLE_SOCKET
10
138.5
20
-6
30
0
0
VERTEX
8
PUZZLE_SOCKET
10
138.5
20
9
30
0
0
VERTEX
8
PUZZLE_SOCKET
10
87.5
20
9
30
0
0
SEQEND
8
PUZZLE_SOCKET
0
POLYLINE
8
PUZZLE_SOCKET
66
1
70
1
10
0
20
0
30
0
0
VERTEX
8
PUZZLE_SOCKET
10
461.5
20
-6
30
0
0
VERTEX
8
PUZZLE_SOCKET
10
512.5
20
-6
30
0
0
VERTEX
8
PUZZLE_SOCKET
10
512.5
20
9
30
0
0
VERTEX
8
PUZZLE_SOCKET
10
461.5
20
9
30
0
0
SEQEND
8
PUZZLE_SOCKET
0
CIRCLE
8
PUZZLE_HOLES_7_5MM
10
8
20
70.5
30
0
40
3.75
0
CIRCLE
8
PUZZLE_HOLES_7_5MM
10
8
20
119.5
30
0
40
3.75
0
CIRCLE
8
PUZZLE_HOLES_7_5MM
10
8
20
1050.5
30
0
40
3.75
0
CIRCLE
8
PUZZLE_HOLES_7_5MM
10
8
20
1099.5
30
0
40
3.75
0
CIRCLE
8
PUZZLE_HOLES_7_5MM
10
8
20
2030.5
30
0
40
3.75
0
CIRCLE
8
PUZZLE_HOLES_7_5MM
10
8
20
2079.5
30
0
40
3.75
0
CIRCLE
8
PUZZLE_HOLES_7_5MM
10
592
20
70.5
30
0
40
3.75
0
CIRCLE
8
PUZZLE_HOLES_7_5MM
10
592
20
119.5
30
0
40
3.75
0
CIRCLE
8
PUZZLE_HOLES_7_5MM
10
592
20
1050.5
30
0
40
3.75
0
CIRCLE
8
PUZZLE_HOLES_7_5MM
10
592
20
1099.5
30
0
40
3.75
0
CIRCLE
8
PUZZLE_HOLES_7_5MM
10
592
20
2030.5
30
0
40
3.75
0
CIRCLE
8
PUZZLE_HOLES_7_5MM
10
592
20
2079.5
30
0
40
3.75
0
CIRCLE
8
PUZZLE_HOLES_7_5MM
10
88.5
20
2142
30
0
40
3.75
0
CIRCLE
8
PUZZLE_HOLES_7_5MM
10
137.5
20
2142
30
0
40
3.75
0
CIRCLE
8
PUZZLE_HOLES_7_5MM
10
462.5
20
2142
30
0
40
3.75
0
CIRCLE
8
PUZZLE_HOLES_7_5MM
10
511.5
20
2142
30
0
40
3.75
0
CIRCLE
8
PUZZLE_HOLES_7_5MM
10
88.5
20
8
30
0
40
3.75
0
CIRCLE
8
PUZZLE_HOLES_7_5MM
10
137.5
20
8
30
0
40
3.75
0
CIRCLE
8
PUZZLE_HOLES_7_5MM
10
462.5
20
8
30
0
40
3.75
0
CIRCLE
8
PUZZLE_HOLES_7_5MM
10
511.5
20
8
30
0
40
3.75
0
CIRCLE
8
SCREWS_3MM
10
9
20
50
30
0
40
1.5
0
CIRCLE
8
SCREWS_3MM
10
591
20
50
30
0
40
1.5
0
CIRCLE
8
SCREWS_3MM
10
9
20
585
30
0
40
1.5
0
CIRCLE
8
SCREWS_3MM
10
591
20
585
30
0
40
1.5
0
CIRCLE
8
SCREWS_3MM
10
9
20
1565
30
0
40
1.5
0
CIRCLE
8
SCREWS_3MM
10
591
20
1565
30
0
40
1.5
0
CIRCLE
8
SCREWS_3MM
10
9
20
2100
30
0
40
1.5
0
CIRCLE
8
SCREWS_3MM
10
591
20
2100
30
0
40
1.5
0
CIRCLE
8
SCREWS_3MM
10
68
20
2141
30
0
40
1.5
0
CIRCLE
8
SCREWS_3MM
10
68
20
9
30
0
40
1.5
0
CIRCLE
8
SCREWS_3MM
10
300
20
2141
30
0
40
1.5
0
CIRCLE
8
SCREWS_3MM
10
300
20
9
30
0
40
1.5
0
CIRCLE
8
SCREWS_3MM
10
532
20
2141
30
0
40
1.5
0
CIRCLE
8
SCREWS_3MM
10
532
20
9
30
0
40
1.5
0
CIRCLE
8
SCREWS_3MM
10
68
20
455
30
0
40
1.5
0
CIRCLE
8
SCREWS_3MM
10
300
20
455
30
0
40
1.5
0
CIRCLE
8
SCREWS_3MM
10
532
20
455
30
0
40
1.5
0
TEXT
8
UNIT_NUMBER
10
300
20
1087.5
30
0
40
20
1
W01 BACK
72
1
11
300
21
1087.5
31
0
73
2
0
TEXT
8
UNIT_NUMBER
10
300
20
1062.5
30
0
40
20
1
600x2150
72
1
11
300
21
1062.5
31
0
73
2
0
ENDSEC
0
EOF
