0
SECTION
2
HEADER
9
$ACADVER
1
AC1009
9
$INSBASE
10
0
20
0
30
0
9
$EXTMIN
10
0
20
0
30
0
9
$EXTMAX
10
1500
20
100
30
0
0
ENDSEC
0
SECTION
2
TABLES
0
TABLE
2
LAYER
70
3
0
LAYER
2
0
70
0
62
7
6
CONTINUOUS
0
LAYER
2
OUTLINE
70
0
62
7
6
CONTINUOUS
0
LAYER
2
UNIT_NUMBER
70
0
62
94
6
CONTINUOUS
0
ENDTAB
0
ENDSEC
0
SECTION
2
ENTITIES
0
POLYLINE
8
OUTLINE
66
1
70
1
10
0
20
0
30
0
0
VERTEX
8
OUTLINE
10
0
20
0
30
0
0
VERTEX
8
OUTLINE
10
1500
20
0
30
0
0
VERTEX
8
OUTLINE
10
1500
20
100
30
0
0
VERTEX
8
OUTLINE
10
0
20
100
30
0
0
SEQEND
8
OUTLINE
0
TEXT
8
UNIT_NUMBER
10
750
20
50
30
0
40
12
1
W01 PLINTH 1500x100
72
1
11
750
21
50
31
0
73
2
0
ENDSEC
0
EOF
