0
SECTION
2
HEADER
9
$ACADVER
1
AC1009
9
$INSBASE
10
0
20
0
30
0
9
$EXTMIN
10
0
20
0
30
0
9
$EXTMAX
10
263
20
60
30
0
0
ENDSEC
0
SECTION
2
TABLES
0
TABLE
2
LAYER
70
3
0
LAYER
2
0
70
0
62
7
6
CONTINUOUS
0
LAYER
2
OUTLINE
70
0
62
7
6
CONTINUOUS
0
LAYER
2
UNIT_NUMBER
70
0
62
94
6
CONTINUOUS
0
ENDTAB
0
ENDSEC
0
SECTION
2
ENTITIES
0
POLYLINE
8
OUTLINE
66
1
70
1
10
0
20
0
30
0
0
VERTEX
8
OUTLINE
10
0
20
0
30
0
0
VERTEX
8
OUTLINE
10
263
20
0
30
0
0
VERTEX
8
OUTLINE
10
263
20
60
30
0
0
VERTEX
8
OUTLINE
10
0
20
60
30
0
0
SEQEND
8
OUTLINE
0
TEXT
8
UNIT_NUMBER
10
131.5
20
34.5
30
0
40
7.2
1
W01 D2-WS1
72
1
11
131.5
21
34.5
31
0
73
2
0
TEXT
8
UNIT_NUMBER
10
131.5
20
25.5
30
0
40
7.2
1
263x60
72
1
11
131.5
21
25.5
31
0
73
2
0
ENDSEC
0
EOF
