0
SECTION
2
HEADER
9
$ACADVER
1
AC1009
9
$INSBASE
10
0
20
0
30
0
9
$EXTMIN
10
0
20
0
30
0
9
$EXTMAX
10
496
20
60
30
0
0
ENDSEC
0
SECTION
2
TABLES
0
TABLE
2
LAYER
70
4
0
LAYER
2
0
70
0
62
7
6
CONTINUOUS
0
LAYER
2
OUTLINE
70
0
62
7
6
CONTINUOUS
0
LAYER
2
UNIT_NUMBER
70
0
62
94
6
CONTINUOUS
0
LAYER
2
WATCH_DIVIDER_SLOT
70
0
62
7
6
CONTINUOUS
0
ENDTAB
0
ENDSEC
0
SECTION
2
ENTITIES
0
POLYLINE
8
OUTLINE
66
1
70
1
10
0
20
0
30
0
0
VERTEX
8
OUTLINE
10
0
20
0
30
0
0
VERTEX
8
OUTLINE
10
496
20
0
30
0
0
VERTEX
8
OUTLINE
10
496
20
60
30
0
0
VERTEX
8
OUTLINE
10
0
20
60
30
0
0
SEQEND
8
OUTLINE
0
POLYLINE
8
WATCH_DIVIDER_SLOT
66
1
70
1
10
0
20
0
30
0
0
VERTEX
8
WATCH_DIVIDER_SLOT
10
92
20
0
30
0
0
VERTEX
8
WATCH_DIVIDER_SLOT
10
101
20
0
30
0
0
VERTEX
8
WATCH_DIVIDER_SLOT
10
101
20
60
30
0
0
VERTEX
8
WATCH_DIVIDER_SLOT
10
92
20
60
30
0
0
SEQEND
8
WATCH_DIVIDER_SLOT
0
POLYLINE
8
WATCH_DIVIDER_SLOT
66
1
70
1
10
0
20
0
30
0
0
VERTEX
8
WATCH_DIVIDER_SLOT
10
193
20
0
30
0
0
VERTEX
8
WATCH_DIVIDER_SLOT
10
202
20
0
30
0
0
VERTEX
8
WATCH_DIVIDER_SLOT
10
202
20
60
30
0
0
VERTEX
8
WATCH_DIVIDER_SLOT
10
193
20
60
30
0
0
SEQEND
8
WATCH_DIVIDER_SLOT
0
POLYLINE
8
WATCH_DIVIDER_SLOT
66
1
70
1
10
0
20
0
30
0
0
VERTEX
8
WATCH_DIVIDER_SLOT
10
294
20
0
30
0
0
VERTEX
8
WATCH_DIVIDER_SLOT
10
303
20
0
30
0
0
VERTEX
8
WATCH_DIVIDER_SLOT
10
303
20
60
30
0
0
VERTEX
8
WATCH_DIVIDER_SLOT
10
294
20
60
30
0
0
SEQEND
8
WATCH_DIVIDER_SLOT
0
POLYLINE
8
WATCH_DIVIDER_SLOT
66
1
70
1
10
0
20
0
30
0
0
VERTEX
8
WATCH_DIVIDER_SLOT
10
395
20
0
30
0
0
VERTEX
8
WATCH_DIVIDER_SLOT
10
404
20
0
30
0
0
VERTEX
8
WATCH_DIVIDER_SLOT
10
404
20
60
30
0
0
VERTEX
8
WATCH_DIVIDER_SLOT
10
395
20
60
30
0
0
SEQEND
8
WATCH_DIVIDER_SLOT
0
POLYLINE
8
WATCH_DIVIDER_SLOT
66
1
70
1
10
0
20
0
30
0
0
VERTEX
8
WATCH_DIVIDER_SLOT
10
243.5
20
0
30
0
0
VERTEX
8
WATCH_DIVIDER_SLOT
10
252.5
20
0
30
0
0
VERTEX
8
WATCH_DIVIDER_SLOT
10
252.5
20
60
30
0
0
VERTEX
8
WATCH_DIVIDER_SLOT
10
243.5
20
60
30
0
0
SEQEND
8
WATCH_DIVIDER_SLOT
0
TEXT
8
UNIT_NUMBER
10
248
20
30
30
0
40
7.2
1
W01 D2-WRW 496x60
72
1
11
248
21
30
31
0
73
2
0
ENDSEC
0
EOF
