0
SECTION
2
HEADER
9
$ACADVER
1
AC1009
9
$INSBASE
10
0
20
0
30
0
9
$EXTMIN
10
0
20
0
30
0
9
$EXTMAX
10
518
20
150
30
0
0
ENDSEC
0
SECTION
2
TABLES
0
TABLE
2
LAYER
70
3
0
LAYER
2
0
70
0
62
7
6
CONTINUOUS
0
LAYER
2
OUTLINE
70
0
62
7
6
CONTINUOUS
0
LAYER
2
UNIT_NUMBER
70
0
62
94
6
CONTINUOUS
0
ENDTAB
0
ENDSEC
0
SECTION
2
ENTITIES
0
POLYLINE
8
OUTLINE
66
1
70
1
10
0
20
0
30
0
0
VERTEX
8
OUTLINE
10
0
20
0
30
0
0
VERTEX
8
OUTLINE
10
518
20
0
30
0
0
VERTEX
8
OUTLINE
10
518
20
150
30
0
0
VERTEX
8
OUTLINE
10
0
20
150
30
0
0
SEQEND
8
OUTLINE
0
TEXT
8
UNIT_NUMBER
10
259
20
86.25
30
0
40
18
1
W01 D2-BB
72
1
11
259
21
86.25
31
0
73
2
0
TEXT
8
UNIT_NUMBER
10
259
20
63.75
30
0
40
18
1
518x150
72
1
11
259
21
63.75
31
0
73
2
0
ENDSEC
0
EOF
