0
SECTION
2
HEADER
9
$ACADVER
1
AC1009
9
$INSBASE
10
0
20
0
30
0
9
$EXTMIN
10
0
20
0
30
0
9
$EXTMAX
10
110
20
60
30
0
0
ENDSEC
0
SECTION
2
TABLES
0
TABLE
2
LAYER
70
3
0
LAYER
2
0
70
0
62
7
6
CONTINUOUS
0
LAYER
2
OUTLINE
70
0
62
7
6
CONTINUOUS
0
LAYER
2
UNIT_NUMBER
70
0
62
94
6
CONTINUOUS
0
ENDTAB
0
ENDSEC
0
SECTION
2
ENTITIES
0
POLYLINE
8
OUTLINE
66
1
70
1
10
0
20
0
30
0
0
VERTEX
8
OUTLINE
10
0
20
0
30
0
0
VERTEX
8
OUTLINE
10
110
20
0
30
0
0
VERTEX
8
OUTLINE
10
110
20
60
30
0
0
VERTEX
8
OUTLINE
10
0
20
60
30
0
0
SEQEND
8
OUTLINE
0
TEXT
8
UNIT_NUMBER
10
55
20
39
30
0
40
7.2
1
W01
72
1
11
55
21
39
31
0
73
2
0
TEXT
8
UNIT_NUMBER
10
55
20
30
30
0
40
7.2
1
D2-WP1
72
1
11
55
21
30
31
0
73
2
0
TEXT
8
UNIT_NUMBER
10
55
20
21
30
0
40
7.2
1
110x60
72
1
11
55
21
21
31
0
73
2
0
ENDSEC
0
EOF
