0
SECTION
2
HEADER
9
$ACADVER
1
AC1009
9
$INSBASE
10
0
20
0
30
0
9
$EXTMIN
10
-6
20
-6
30
0
9
$EXTMAX
10
906
20
2085
30
0
0
ENDSEC
0
SECTION
2
TABLES
0
TABLE
2
LAYER
70
6
0
LAYER
2
0
70
0
62
7
6
CONTINUOUS
0
LAYER
2
OUTLINE
70
0
62
7
6
CONTINUOUS
0
LAYER
2
PUZZLE_SOCKET
70
0
62
1
6
CONTINUOUS
0
LAYER
2
PUZZLE_HOLES_7_5MM
70
0
62
3
6
CONTINUOUS
0
LAYER
2
SCREWS_3MM
70
0
62
4
6
CONTINUOUS
0
LAYER
2
UNIT_NUMBER
70
0
62
94
6
CONTINUOUS
0
ENDTAB
0
ENDSEC
0
SECTION
2
ENTITIES
0
POLYLINE
8
OUTLINE
66
1
70
1
10
0
20
0
30
0
0
VERTEX
8
OUTLINE
10
0
20
0
30
0
0
VERTEX
8
OUTLINE
10
900
20
0
30
0
0
VERTEX
8
OUTLINE
10
900
20
1590
30
0
0
VERTEX
8
OUTLINE
10
0
20
2085
30
0
0
SEQEND
8
OUTLINE
0
POLYLINE
8
PUZZLE_SOCKET
66
1
70
1
10
0
20
0
30
0
0
VERTEX
8
PUZZLE_SOCKET
10
-6
20
69.5
30
0
0
VERTEX
8
PUZZLE_SOCKET
10
9
20
69.5
30
0
0
VERTEX
8
PUZZLE_SOCKET
10
9
20
120.5
30
0
0
VERTEX
8
PUZZLE_SOCKET
10
-6
20
120.5
30
0
0
SEQEND
8
PUZZLE_SOCKET
0
POLYLINE
8
PUZZLE_SOCKET
66
1
70
1
10
0
20
0
30
0
0
VERTEX
8
PUZZLE_SOCKET
10
-6
20
1049.5
30
0
0
VERTEX
8
PUZZLE_SOCKET
10
9
20
1049.5
30
0
0
VERTEX
8
PUZZLE_SOCKET
10
9
20
1100.5
30
0
0
VERTEX
8
PUZZLE_SOCKET
10
-6
20
1100.5
30
0
0
SEQEND
8
PUZZLE_SOCKET
0
POLYLINE
8
PUZZLE_SOCKET
66
1
70
1
10
0
20
0
30
0
0
VERTEX
8
PUZZLE_SOCKET
10
-6
20
2029.5
30
0
0
VERTEX
8
PUZZLE_SOCKET
10
9
20
2029.5
30
0
0
VERTEX
8
PUZZLE_SOCKET
10
9
20
2080.5
30
0
0
VERTEX
8
PUZZLE_SOCKET
10
-6
20
2080.5
30
0
0
SEQEND
8
PUZZLE_SOCKET
0
POLYLINE
8
PUZZLE_SOCKET
66
1
70
1
10
0
20
0
30
0
0
VERTEX
8
PUZZLE_SOCKET
10
891
20
69.5
30
0
0
VERTEX
8
PUZZLE_SOCKET
10
906
20
69.5
30
0
0
VERTEX
8
PUZZLE_SOCKET
10
906
20
120.5
30
0
0
VERTEX
8
PUZZLE_SOCKET
10
891
20
120.5
30
0
0
SEQEND
8
PUZZLE_SOCKET
0
POLYLINE
8
PUZZLE_SOCKET
66
1
70
1
10
0
20
0
30
0
0
VERTEX
8
PUZZLE_SOCKET
10
891
20
1049.5
30
0
0
VERTEX
8
PUZZLE_SOCKET
10
906
20
1049.5
30
0
0
VERTEX
8
PUZZLE_SOCKET
10
906
20
1100.5
30
0
0
VERTEX
8
PUZZLE_SOCKET
10
891
20
1100.5
30
0
0
SEQEND
8
PUZZLE_SOCKET
0
POLYLINE
8
PUZZLE_SOCKET
66
1
70
1
10
0
20
0
30
0
0
VERTEX
8
PUZZLE_SOCKET
10
87.5
20
-6
30
0
0
VERTEX
8
PUZZLE_SOCKET
10
138.5
20
-6
30
0
0
VERTEX
8
PUZZLE_SOCKET
10
138.5
20
9
30
0
0
VERTEX
8
PUZZLE_SOCKET
10
87.5
20
9
30
0
0
SEQEND
8
PUZZLE_SOCKET
0
POLYLINE
8
PUZZLE_SOCKET
66
1
70
1
10
0
20
0
30
0
0
VERTEX
8
PUZZLE_SOCKET
10
761.5
20
-6
30
0
0
VERTEX
8
PUZZLE_SOCKET
10
812.5
20
-6
30
0
0
VERTEX
8
PUZZLE_SOCKET
10
812.5
20
9
30
0
0
VERTEX
8
PUZZLE_SOCKET
10
761.5
20
9
30
0
0
SEQEND
8
PUZZLE_SOCKET
0
CIRCLE
8
PUZZLE_HOLES_7_5MM
10
8
20
70.5
30
0
40
3.75
0
CIRCLE
8
PUZZLE_HOLES_7_5MM
10
8
20
119.5
30
0
40
3.75
0
CIRCLE
8
PUZZLE_HOLES_7_5MM
10
8
20
1050.5
30
0
40
3.75
0
CIRCLE
8
PUZZLE_HOLES_7_5MM
10
8
20
1099.5
30
0
40
3.75
0
CIRCLE
8
PUZZLE_HOLES_7_5MM
10
8
20
2030.5
30
0
40
3.75
0
CIRCLE
8
PUZZLE_HOLES_7_5MM
10
8
20
2079.5
30
0
40
3.75
0
CIRCLE
8
PUZZLE_HOLES_7_5MM
10
892
20
70.5
30
0
40
3.75
0
CIRCLE
8
PUZZLE_HOLES_7_5MM
10
892
20
119.5
30
0
40
3.75
0
CIRCLE
8
PUZZLE_HOLES_7_5MM
10
892
20
1050.5
30
0
40
3.75
0
CIRCLE
8
PUZZLE_HOLES_7_5MM
10
892
20
1099.5
30
0
40
3.75
0
CIRCLE
8
PUZZLE_HOLES_7_5MM
10
88.5
20
8
30
0
40
3.75
0
CIRCLE
8
PUZZLE_HOLES_7_5MM
10
137.5
20
8
30
0
40
3.75
0
CIRCLE
8
PUZZLE_HOLES_7_5MM
10
762.5
20
8
30
0
40
3.75
0
CIRCLE
8
PUZZLE_HOLES_7_5MM
10
811.5
20
8
30
0
40
3.75
0
CIRCLE
8
SCREWS_3MM
10
9
20
50
30
0
40
1.5
0
CIRCLE
8
SCREWS_3MM
10
891
20
50
30
0
40
1.5
0
CIRCLE
8
SCREWS_3MM
10
9
20
585
30
0
40
1.5
0
CIRCLE
8
SCREWS_3MM
10
891
20
585
30
0
40
1.5
0
CIRCLE
8
SCREWS_3MM
10
9
20
1565
30
0
40
1.5
0
CIRCLE
8
SCREWS_3MM
10
891
20
1565
30
0
40
1.5
0
CIRCLE
8
SCREWS_3MM
10
68
20
9
30
0
40
1.5
0
CIRCLE
8
SCREWS_3MM
10
450
20
9
30
0
40
1.5
0
CIRCLE
8
SCREWS_3MM
10
832
20
9
30
0
40
1.5
0
TEXT
8
UNIT_NUMBER
10
450
20
1055
30
0
40
20
1
W02 BACK
72
1
11
450
21
1055
31
0
73
2
0
TEXT
8
UNIT_NUMBER
10
450
20
1030
30
0
40
20
1
900x2085
72
1
11
450
21
1030
31
0
73
2
0
ENDSEC
0
EOF
