0
SECTION
2
HEADER
9
$ACADVER
1
AC1009
9
$INSBASE
10
0
20
0
30
0
9
$EXTMIN
10
0
20
0
30
0
9
$EXTMAX
10
540
20
1037.0441
30
0
0
ENDSEC
0
SECTION
2
TABLES
0
TABLE
2
LAYER
70
3
0
LAYER
2
0
70
0
62
7
6
CONTINUOUS
0
LAYER
2
OUTLINE
70
0
62
7
6
CONTINUOUS
0
LAYER
2
UNIT_NUMBER
70
0
62
94
6
CONTINUOUS
0
ENDTAB
0
ENDSEC
0
SECTION
2
ENTITIES
0
POLYLINE
8
OUTLINE
66
1
70
1
10
0
20
0
30
0
0
VERTEX
8
OUTLINE
10
0
20
0
30
0
0
VERTEX
8
OUTLINE
10
540
20
0
30
0
0
VERTEX
8
OUTLINE
10
540
20
1037.0441
30
0
0
VERTEX
8
OUTLINE
10
0
20
1037.0441
30
0
0
SEQEND
8
OUTLINE
0
TEXT
8
UNIT_NUMBER
10
270
20
978.2441
30
0
40
49
1
BEVEL
72
1
11
270
21
978.2441
31
0
73
2
0
TEXT
8
UNIT_NUMBER
10
270
20
916.9941
30
0
40
49
1
28.8 DEG
72
1
11
270
21
916.9941
31
0
73
2
0
TEXT
8
UNIT_NUMBER
10
270
20
855.7441
30
0
40
49
1
BOTH ENDS
72
1
11
270
21
855.7441
31
0
73
2
0
TEXT
8
UNIT_NUMBER
10
270
20
794.4941
30
0
40
49
1
- 5-AXIS
72
1
11
270
21
794.4941
31
0
73
2
0
TEXT
8
UNIT_NUMBER
10
270
20
531.02205
30
0
40
20
1
W02 TOP
72
1
11
270
21
531.02205
31
0
73
2
0
TEXT
8
UNIT_NUMBER
10
270
20
506.02205
30
0
40
20
1
1037x540
72
1
11
270
21
506.02205
31
0
73
2
0
ENDSEC
0
EOF
