0
SECTION
2
HEADER
9
$ACADVER
1
AC1009
9
$INSBASE
10
0
20
0
30
0
9
$EXTMIN
10
0
20
0
30
0
9
$EXTMAX
10
465
20
80
30
0
0
ENDSEC
0
SECTION
2
TABLES
0
TABLE
2
LAYER
70
4
0
LAYER
2
0
70
0
62
7
6
CONTINUOUS
0
LAYER
2
OUTLINE
70
0
62
7
6
CONTINUOUS
0
LAYER
2
UNIT_NUMBER
70
0
62
94
6
CONTINUOUS
0
LAYER
2
SHOE_GROOVE_6MM
70
0
62
1
6
CONTINUOUS
0
ENDTAB
0
ENDSEC
0
SECTION
2
ENTITIES
0
POLYLINE
8
OUTLINE
66
1
70
1
10
0
20
0
30
0
0
VERTEX
8
OUTLINE
10
0
20
0
30
0
0
VERTEX
8
OUTLINE
10
465
20
0
30
0
0
VERTEX
8
OUTLINE
10
465
20
80
30
0
0
VERTEX
8
OUTLINE
10
0
20
80
30
0
0
SEQEND
8
OUTLINE
0
POLYLINE
8
SHOE_GROOVE_6MM
66
1
70
1
10
0
20
0
30
0
0
VERTEX
8
SHOE_GROOVE_6MM
10
18
20
0
30
0
0
VERTEX
8
SHOE_GROOVE_6MM
10
447
20
52.67
30
0
0
VERTEX
8
SHOE_GROOVE_6MM
10
444.7822
20
70.7344
30
0
0
VERTEX
8
SHOE_GROOVE_6MM
10
15.7822
20
18.0644
30
0
0
SEQEND
8
SHOE_GROOVE_6MM
0
TEXT
8
UNIT_NUMBER
10
232.5
20
46
30
0
40
9.6
1
W02 SHOE1-SL
72
1
11
232.5
21
46
31
0
73
2
0
TEXT
8
UNIT_NUMBER
10
232.5
20
34
30
0
40
9.6
1
465x80
72
1
11
232.5
21
34
31
0
73
2
0
ENDSEC
0
EOF
