0
SECTION
2
HEADER
9
$ACADVER
1
AC1009
9
$INSBASE
10
0
20
0
30
0
9
$EXTMIN
10
0
20
0
30
0
9
$EXTMAX
10
742
20
50
30
0
0
ENDSEC
0
SECTION
2
TABLES
0
TABLE
2
LAYER
70
3
0
LAYER
2
0
70
0
62
7
6
CONTINUOUS
0
LAYER
2
OUTLINE
70
0
62
7
6
CONTINUOUS
0
LAYER
2
UNIT_NUMBER
70
0
62
94
6
CONTINUOUS
0
ENDTAB
0
ENDSEC
0
SECTION
2
ENTITIES
0
POLYLINE
8
OUTLINE
66
1
70
1
10
0
20
0
30
0
0
VERTEX
8
OUTLINE
10
0
20
0
30
0
0
VERTEX
8
OUTLINE
10
742
20
0
30
0
0
VERTEX
8
OUTLINE
10
742
20
50
30
0
0
VERTEX
8
OUTLINE
10
0
20
50
30
0
0
SEQEND
8
OUTLINE
0
TEXT
8
UNIT_NUMBER
10
371
20
25
30
0
40
6
1
W02 SHOE1-DV 742x50
72
1
11
371
21
25
31
0
73
2
0
ENDSEC
0
EOF
