0
SECTION
2
HEADER
9
$ACADVER
1
AC1009
9
$INSBASE
10
0
20
0
30
0
9
$EXTMIN
10
0
20
0
30
0
9
$EXTMAX
10
3474
20
4362
30
0
0
ENDSEC
0
SECTION
2
TABLES
0
TABLE
2
LAYER
70
13
0
LAYER
2
0
70
0
62
7
6
CONTINUOUS
0
LAYER
2
OUTLINE
70
0
62
7
6
CONTINUOUS
0
LAYER
2
PUZZLE_SOCKET
70
0
62
1
6
CONTINUOUS
0
LAYER
2
PUZZLE_DOG_BONES
70
0
62
2
6
CONTINUOUS
0
LAYER
2
PUZZLE_HOLES_7_5MM
70
0
62
3
6
CONTINUOUS
0
LAYER
2
SCREWS_3MM
70
0
62
4
6
CONTINUOUS
0
LAYER
2
SHAKER_PANEL_POCKET
70
0
62
41
6
CONTINUOUS
0
LAYER
2
HINGES_5MM
70
0
62
5
6
CONTINUOUS
0
LAYER
2
FRONT_HINGES_35MM
70
0
62
3
6
CONTINUOUS
0
LAYER
2
FRONT_HINGES_3MM
70
0
62
30
6
CONTINUOUS
0
LAYER
2
UNIT_NUMBER
70
0
62
94
6
CONTINUOUS
0
LAYER
2
SHOE_GROOVE_6MM
70
0
62
1
6
CONTINUOUS
0
LAYER
2
SHOE_RUNNER_5MM
70
0
62
5
6
CONTINUOUS
0
ENDTAB
0
ENDSEC
0
SECTION
2
ENTITIES
0
POLYLINE
8
OUTLINE
66
1
70
1
10
0
20
0
30
0
0
VERTEX
8
OUTLINE
10
0
20
2206
30
0
0
VERTEX
8
OUTLINE
10
540
20
2206
30
0
0
VERTEX
8
OUTLINE
10
540
20
2276
30
0
0
VERTEX
8
OUTLINE
10
540
20
2282
30
0
0
VERTEX
8
OUTLINE
10
553
20
2282
30
0
0
VERTEX
8
OUTLINE
10
553
20
2276
30
0
0
VERTEX
8
OUTLINE
10
558
20
2276
30
0
0
VERTEX
8
OUTLINE
10
558
20
2326
30
0
0
VERTEX
8
OUTLINE
10
553
20
2326
30
0
0
VERTEX
8
OUTLINE
10
553
20
2320
30
0
0
VERTEX
8
OUTLINE
10
540
20
2320
30
0
0
VERTEX
8
OUTLINE
10
540
20
2326
30
0
0
VERTEX
8
OUTLINE
10
540
20
3256
30
0
0
VERTEX
8
OUTLINE
10
540
20
3262
30
0
0
VERTEX
8
OUTLINE
10
553
20
3262
30
0
0
VERTEX
8
OUTLINE
10
553
20
3256
30
0
0
VERTEX
8
OUTLINE
10
558
20
3256
30
0
0
VERTEX
8
OUTLINE
10
558
20
3306
30
0
0
VERTEX
8
OUTLINE
10
553
20
3306
30
0
0
VERTEX
8
OUTLINE
10
553
20
3300
30
0
0
VERTEX
8
OUTLINE
10
540
20
3300
30
0
0
VERTEX
8
OUTLINE
10
540
20
3306
30
0
0
VERTEX
8
OUTLINE
10
540
20
4236
30
0
0
VERTEX
8
OUTLINE
10
540
20
4242
30
0
0
VERTEX
8
OUTLINE
10
553
20
4242
30
0
0
VERTEX
8
OUTLINE
10
553
20
4236
30
0
0
VERTEX
8
OUTLINE
10
558
20
4236
30
0
0
VERTEX
8
OUTLINE
10
558
20
4286
30
0
0
VERTEX
8
OUTLINE
10
553
20
4286
30
0
0
VERTEX
8
OUTLINE
10
553
20
4280
30
0
0
VERTEX
8
OUTLINE
10
540
20
4280
30
0
0
VERTEX
8
OUTLINE
10
540
20
4286
30
0
0
VERTEX
8
OUTLINE
10
540
20
4356
30
0
0
VERTEX
8
OUTLINE
10
0
20
4356
30
0
0
SEQEND
8
OUTLINE
0
POLYLINE
8
PUZZLE_DOG_BONES
66
1
70
1
10
0
20
0
30
0
0
VERTEX
8
PUZZLE_DOG_BONES
10
540
20
2271
30
0
0
VERTEX
8
PUZZLE_DOG_BONES
10
558
20
2271
30
0
0
VERTEX
8
PUZZLE_DOG_BONES
10
558
20
2331
30
0
0
VERTEX
8
PUZZLE_DOG_BONES
10
540
20
2331
30
0
0
SEQEND
8
PUZZLE_DOG_BONES
0
POLYLINE
8
PUZZLE_DOG_BONES
66
1
70
1
10
0
20
0
30
0
0
VERTEX
8
PUZZLE_DOG_BONES
10
540
20
3251
30
0
0
VERTEX
8
PUZZLE_DOG_BONES
10
558
20
3251
30
0
0
VERTEX
8
PUZZLE_DOG_BONES
10
558
20
3311
30
0
0
VERTEX
8
PUZZLE_DOG_BONES
10
540
20
3311
30
0
0
SEQEND
8
PUZZLE_DOG_BONES
0
POLYLINE
8
PUZZLE_DOG_BONES
66
1
70
1
10
0
20
0
30
0
0
VERTEX
8
PUZZLE_DOG_BONES
10
540
20
4231
30
0
0
VERTEX
8
PUZZLE_DOG_BONES
10
558
20
4231
30
0
0
VERTEX
8
PUZZLE_DOG_BONES
10
558
20
4291
30
0
0
VERTEX
8
PUZZLE_DOG_BONES
10
540
20
4291
30
0
0
SEQEND
8
PUZZLE_DOG_BONES
0
POLYLINE
8
PUZZLE_SOCKET
66
1
70
1
10
0
20
0
30
0
0
VERTEX
8
PUZZLE_SOCKET
10
69.5
20
4347
30
0
0
VERTEX
8
PUZZLE_SOCKET
10
120.5
20
4347
30
0
0
VERTEX
8
PUZZLE_SOCKET
10
120.5
20
4362
30
0
0
VERTEX
8
PUZZLE_SOCKET
10
69.5
20
4362
30
0
0
SEQEND
8
PUZZLE_SOCKET
0
POLYLINE
8
PUZZLE_SOCKET
66
1
70
1
10
0
20
0
30
0
0
VERTEX
8
PUZZLE_SOCKET
10
69.5
20
2200
30
0
0
VERTEX
8
PUZZLE_SOCKET
10
120.5
20
2200
30
0
0
VERTEX
8
PUZZLE_SOCKET
10
120.5
20
2215
30
0
0
VERTEX
8
PUZZLE_SOCKET
10
69.5
20
2215
30
0
0
SEQEND
8
PUZZLE_SOCKET
0
POLYLINE
8
PUZZLE_SOCKET
66
1
70
1
10
0
20
0
30
0
0
VERTEX
8
PUZZLE_SOCKET
10
419.5
20
4347
30
0
0
VERTEX
8
PUZZLE_SOCKET
10
470.5
20
4347
30
0
0
VERTEX
8
PUZZLE_SOCKET
10
470.5
20
4362
30
0
0
VERTEX
8
PUZZLE_SOCKET
10
419.5
20
4362
30
0
0
SEQEND
8
PUZZLE_SOCKET
0
POLYLINE
8
PUZZLE_SOCKET
66
1
70
1
10
0
20
0
30
0
0
VERTEX
8
PUZZLE_SOCKET
10
419.5
20
2200
30
0
0
VERTEX
8
PUZZLE_SOCKET
10
470.5
20
2200
30
0
0
VERTEX
8
PUZZLE_SOCKET
10
470.5
20
2215
30
0
0
VERTEX
8
PUZZLE_SOCKET
10
419.5
20
2215
30
0
0
SEQEND
8
PUZZLE_SOCKET
0
CIRCLE
8
PUZZLE_HOLES_7_5MM
10
70.5
20
4348
30
0
40
3.75
0
CIRCLE
8
PUZZLE_HOLES_7_5MM
10
119.5
20
4348
30
0
40
3.75
0
CIRCLE
8
PUZZLE_HOLES_7_5MM
10
70.5
20
2214
30
0
40
3.75
0
CIRCLE
8
PUZZLE_HOLES_7_5MM
10
119.5
20
2214
30
0
40
3.75
0
CIRCLE
8
PUZZLE_HOLES_7_5MM
10
420.5
20
4348
30
0
40
3.75
0
CIRCLE
8
PUZZLE_HOLES_7_5MM
10
469.5
20
4348
30
0
40
3.75
0
CIRCLE
8
PUZZLE_HOLES_7_5MM
10
420.5
20
2214
30
0
40
3.75
0
CIRCLE
8
PUZZLE_HOLES_7_5MM
10
469.5
20
2214
30
0
40
3.75
0
CIRCLE
8
SCREWS_3MM
10
50
20
4347
30
0
40
1.5
0
CIRCLE
8
SCREWS_3MM
10
50
20
2215
30
0
40
1.5
0
CIRCLE
8
SCREWS_3MM
10
270
20
4347
30
0
40
1.5
0
CIRCLE
8
SCREWS_3MM
10
270
20
2215
30
0
40
1.5
0
CIRCLE
8
SCREWS_3MM
10
490
20
4347
30
0
40
1.5
0
CIRCLE
8
SCREWS_3MM
10
490
20
2215
30
0
40
1.5
0
CIRCLE
8
HINGES_5MM
10
37
20
2290
30
0
40
2.5
0
CIRCLE
8
HINGES_5MM
10
37
20
2322
30
0
40
2.5
0
CIRCLE
8
HINGES_5MM
10
37
20
2680
30
0
40
2.5
0
CIRCLE
8
HINGES_5MM
10
37
20
2712
30
0
40
2.5
0
CIRCLE
8
HINGES_5MM
10
37
20
3070
30
0
40
2.5
0
CIRCLE
8
HINGES_5MM
10
37
20
3102
30
0
40
2.5
0
CIRCLE
8
HINGES_5MM
10
37
20
3460
30
0
40
2.5
0
CIRCLE
8
HINGES_5MM
10
37
20
3492
30
0
40
2.5
0
CIRCLE
8
HINGES_5MM
10
37
20
3850
30
0
40
2.5
0
CIRCLE
8
HINGES_5MM
10
37
20
3882
30
0
40
2.5
0
CIRCLE
8
HINGES_5MM
10
37
20
4240
30
0
40
2.5
0
CIRCLE
8
HINGES_5MM
10
37
20
4272
30
0
40
2.5
0
CIRCLE
8
SHOE_RUNNER_5MM
10
65
20
2264
30
0
40
2.5
0
CIRCLE
8
SHOE_RUNNER_5MM
10
380
20
2264
30
0
40
2.5
0
TEXT
8
UNIT_NUMBER
10
270
20
3293.5
30
0
40
20
1
W02 BUL
72
1
11
270
21
3293.5
31
0
73
2
0
TEXT
8
UNIT_NUMBER
10
270
20
3268.5
30
0
40
20
1
540x2150
72
1
11
270
21
3268.5
31
0
73
2
0
POLYLINE
8
OUTLINE
66
1
70
1
10
0
20
0
30
0
0
VERTEX
8
OUTLINE
10
626
20
2206
30
0
0
VERTEX
8
OUTLINE
10
1166
20
2206
30
0
0
VERTEX
8
OUTLINE
10
1166
20
4356
30
0
0
VERTEX
8
OUTLINE
10
626
20
4356
30
0
0
VERTEX
8
OUTLINE
10
626
20
4286
30
0
0
VERTEX
8
OUTLINE
10
626
20
4280
30
0
0
VERTEX
8
OUTLINE
10
613
20
4280
30
0
0
VERTEX
8
OUTLINE
10
613
20
4286
30
0
0
VERTEX
8
OUTLINE
10
608
20
4286
30
0
0
VERTEX
8
OUTLINE
10
608
20
4236
30
0
0
VERTEX
8
OUTLINE
10
613
20
4236
30
0
0
VERTEX
8
OUTLINE
10
613
20
4242
30
0
0
VERTEX
8
OUTLINE
10
626
20
4242
30
0
0
VERTEX
8
OUTLINE
10
626
20
4236
30
0
0
VERTEX
8
OUTLINE
10
626
20
3306
30
0
0
VERTEX
8
OUTLINE
10
626
20
3300
30
0
0
VERTEX
8
OUTLINE
10
613
20
3300
30
0
0
VERTEX
8
OUTLINE
10
613
20
3306
30
0
0
VERTEX
8
OUTLINE
10
608
20
3306
30
0
0
VERTEX
8
OUTLINE
10
608
20
3256
30
0
0
VERTEX
8
OUTLINE
10
613
20
3256
30
0
0
VERTEX
8
OUTLINE
10
613
20
3262
30
0
0
VERTEX
8
OUTLINE
10
626
20
3262
30
0
0
VERTEX
8
OUTLINE
10
626
20
3256
30
0
0
VERTEX
8
OUTLINE
10
626
20
2326
30
0
0
VERTEX
8
OUTLINE
10
626
20
2320
30
0
0
VERTEX
8
OUTLINE
10
613
20
2320
30
0
0
VERTEX
8
OUTLINE
10
613
20
2326
30
0
0
VERTEX
8
OUTLINE
10
608
20
2326
30
0
0
VERTEX
8
OUTLINE
10
608
20
2276
30
0
0
VERTEX
8
OUTLINE
10
613
20
2276
30
0
0
VERTEX
8
OUTLINE
10
613
20
2282
30
0
0
VERTEX
8
OUTLINE
10
626
20
2282
30
0
0
VERTEX
8
OUTLINE
10
626
20
2276
30
0
0
SEQEND
8
OUTLINE
0
POLYLINE
8
PUZZLE_DOG_BONES
66
1
70
1
10
0
20
0
30
0
0
VERTEX
8
PUZZLE_DOG_BONES
10
608
20
2271
30
0
0
VERTEX
8
PUZZLE_DOG_BONES
10
626
20
2271
30
0
0
VERTEX
8
PUZZLE_DOG_BONES
10
626
20
2331
30
0
0
VERTEX
8
PUZZLE_DOG_BONES
10
608
20
2331
30
0
0
SEQEND
8
PUZZLE_DOG_BONES
0
POLYLINE
8
PUZZLE_DOG_BONES
66
1
70
1
10
0
20
0
30
0
0
VERTEX
8
PUZZLE_DOG_BONES
10
608
20
3251
30
0
0
VERTEX
8
PUZZLE_DOG_BONES
10
626
20
3251
30
0
0
VERTEX
8
PUZZLE_DOG_BONES
10
626
20
3311
30
0
0
VERTEX
8
PUZZLE_DOG_BONES
10
608
20
3311
30
0
0
SEQEND
8
PUZZLE_DOG_BONES
0
POLYLINE
8
PUZZLE_DOG_BONES
66
1
70
1
10
0
20
0
30
0
0
VERTEX
8
PUZZLE_DOG_BONES
10
608
20
4231
30
0
0
VERTEX
8
PUZZLE_DOG_BONES
10
626
20
4231
30
0
0
VERTEX
8
PUZZLE_DOG_BONES
10
626
20
4291
30
0
0
VERTEX
8
PUZZLE_DOG_BONES
10
608
20
4291
30
0
0
SEQEND
8
PUZZLE_DOG_BONES
0
POLYLINE
8
PUZZLE_SOCKET
66
1
70
1
10
0
20
0
30
0
0
VERTEX
8
PUZZLE_SOCKET
10
695.5
20
4347
30
0
0
VERTEX
8
PUZZLE_SOCKET
10
746.5
20
4347
30
0
0
VERTEX
8
PUZZLE_SOCKET
10
746.5
20
4362
30
0
0
VERTEX
8
PUZZLE_SOCKET
10
695.5
20
4362
30
0
0
SEQEND
8
PUZZLE_SOCKET
0
POLYLINE
8
PUZZLE_SOCKET
66
1
70
1
10
0
20
0
30
0
0
VERTEX
8
PUZZLE_SOCKET
10
695.5
20
2200
30
0
0
VERTEX
8
PUZZLE_SOCKET
10
746.5
20
2200
30
0
0
VERTEX
8
PUZZLE_SOCKET
10
746.5
20
2215
30
0
0
VERTEX
8
PUZZLE_SOCKET
10
695.5
20
2215
30
0
0
SEQEND
8
PUZZLE_SOCKET
0
POLYLINE
8
PUZZLE_SOCKET
66
1
70
1
10
0
20
0
30
0
0
VERTEX
8
PUZZLE_SOCKET
10
1045.5
20
4347
30
0
0
VERTEX
8
PUZZLE_SOCKET
10
1096.5
20
4347
30
0
0
VERTEX
8
PUZZLE_SOCKET
10
1096.5
20
4362
30
0
0
VERTEX
8
PUZZLE_SOCKET
10
1045.5
20
4362
30
0
0
SEQEND
8
PUZZLE_SOCKET
0
POLYLINE
8
PUZZLE_SOCKET
66
1
70
1
10
0
20
0
30
0
0
VERTEX
8
PUZZLE_SOCKET
10
1045.5
20
2200
30
0
0
VERTEX
8
PUZZLE_SOCKET
10
1096.5
20
2200
30
0
0
VERTEX
8
PUZZLE_SOCKET
10
1096.5
20
2215
30
0
0
VERTEX
8
PUZZLE_SOCKET
10
1045.5
20
2215
30
0
0
SEQEND
8
PUZZLE_SOCKET
0
CIRCLE
8
PUZZLE_HOLES_7_5MM
10
696.5
20
4348
30
0
40
3.75
0
CIRCLE
8
PUZZLE_HOLES_7_5MM
10
745.5
20
4348
30
0
40
3.75
0
CIRCLE
8
PUZZLE_HOLES_7_5MM
10
696.5
20
2214
30
0
40
3.75
0
CIRCLE
8
PUZZLE_HOLES_7_5MM
10
745.5
20
2214
30
0
40
3.75
0
CIRCLE
8
PUZZLE_HOLES_7_5MM
10
1046.5
20
4348
30
0
40
3.75
0
CIRCLE
8
PUZZLE_HOLES_7_5MM
10
1095.5
20
4348
30
0
40
3.75
0
CIRCLE
8
PUZZLE_HOLES_7_5MM
10
1046.5
20
2214
30
0
40
3.75
0
CIRCLE
8
PUZZLE_HOLES_7_5MM
10
1095.5
20
2214
30
0
40
3.75
0
CIRCLE
8
SCREWS_3MM
10
676
20
4347
30
0
40
1.5
0
CIRCLE
8
SCREWS_3MM
10
676
20
2215
30
0
40
1.5
0
CIRCLE
8
SCREWS_3MM
10
896
20
4347
30
0
40
1.5
0
CIRCLE
8
SCREWS_3MM
10
896
20
2215
30
0
40
1.5
0
CIRCLE
8
SCREWS_3MM
10
1116
20
4347
30
0
40
1.5
0
CIRCLE
8
SCREWS_3MM
10
1116
20
2215
30
0
40
1.5
0
CIRCLE
8
HINGES_5MM
10
1129
20
2290
30
0
40
2.5
0
CIRCLE
8
HINGES_5MM
10
1129
20
2322
30
0
40
2.5
0
CIRCLE
8
HINGES_5MM
10
1129
20
2680
30
0
40
2.5
0
CIRCLE
8
HINGES_5MM
10
1129
20
2712
30
0
40
2.5
0
CIRCLE
8
HINGES_5MM
10
1129
20
3070
30
0
40
2.5
0
CIRCLE
8
HINGES_5MM
10
1129
20
3102
30
0
40
2.5
0
CIRCLE
8
HINGES_5MM
10
1129
20
3460
30
0
40
2.5
0
CIRCLE
8
HINGES_5MM
10
1129
20
3492
30
0
40
2.5
0
CIRCLE
8
HINGES_5MM
10
1129
20
3850
30
0
40
2.5
0
CIRCLE
8
HINGES_5MM
10
1129
20
3882
30
0
40
2.5
0
CIRCLE
8
HINGES_5MM
10
1129
20
4240
30
0
40
2.5
0
CIRCLE
8
HINGES_5MM
10
1129
20
4272
30
0
40
2.5
0
CIRCLE
8
SHOE_RUNNER_5MM
10
1101
20
2264
30
0
40
2.5
0
CIRCLE
8
SHOE_RUNNER_5MM
10
786
20
2264
30
0
40
2.5
0
TEXT
8
UNIT_NUMBER
10
896
20
3293.5
30
0
40
20
1
W02 BUR
72
1
11
896
21
3293.5
31
0
73
2
0
TEXT
8
UNIT_NUMBER
10
896
20
3268.5
30
0
40
20
1
540x2150
72
1
11
896
21
3268.5
31
0
73
2
0
POLYLINE
8
OUTLINE
66
1
70
1
10
0
20
0
30
0
0
VERTEX
8
OUTLINE
10
1234
20
3480
30
0
0
VERTEX
8
OUTLINE
10
1304
20
3480
30
0
0
VERTEX
8
OUTLINE
10
1310
20
3480
30
0
0
VERTEX
8
OUTLINE
10
1310
20
3467
30
0
0
VERTEX
8
OUTLINE
10
1304
20
3467
30
0
0
VERTEX
8
OUTLINE
10
1304
20
3462
30
0
0
VERTEX
8
OUTLINE
10
1354
20
3462
30
0
0
VERTEX
8
OUTLINE
10
1354
20
3467
30
0
0
VERTEX
8
OUTLINE
10
1348
20
3467
30
0
0
VERTEX
8
OUTLINE
10
1348
20
3480
30
0
0
VERTEX
8
OUTLINE
10
1354
20
3480
30
0
0
VERTEX
8
OUTLINE
10
1654
20
3480
30
0
0
VERTEX
8
OUTLINE
10
1660
20
3480
30
0
0
VERTEX
8
OUTLINE
10
1660
20
3467
30
0
0
VERTEX
8
OUTLINE
10
1654
20
3467
30
0
0
VERTEX
8
OUTLINE
10
1654
20
3462
30
0
0
VERTEX
8
OUTLINE
10
1704
20
3462
30
0
0
VERTEX
8
OUTLINE
10
1704
20
3467
30
0
0
VERTEX
8
OUTLINE
10
1698
20
3467
30
0
0
VERTEX
8
OUTLINE
10
1698
20
3480
30
0
0
VERTEX
8
OUTLINE
10
1704
20
3480
30
0
0
VERTEX
8
OUTLINE
10
1774
20
3480
30
0
0
VERTEX
8
OUTLINE
10
1774
20
4344
30
0
0
VERTEX
8
OUTLINE
10
1704
20
4344
30
0
0
VERTEX
8
OUTLINE
10
1698
20
4344
30
0
0
VERTEX
8
OUTLINE
10
1698
20
4357
30
0
0
VERTEX
8
OUTLINE
10
1704
20
4357
30
0
0
VERTEX
8
OUTLINE
10
1704
20
4362
30
0
0
VERTEX
8
OUTLINE
10
1654
20
4362
30
0
0
VERTEX
8
OUTLINE
10
1654
20
4357
30
0
0
VERTEX
8
OUTLINE
10
1660
20
4357
30
0
0
VERTEX
8
OUTLINE
10
1660
20
4344
30
0
0
VERTEX
8
OUTLINE
10
1654
20
4344
30
0
0
VERTEX
8
OUTLINE
10
1354
20
4344
30
0
0
VERTEX
8
OUTLINE
10
1348
20
4344
30
0
0
VERTEX
8
OUTLINE
10
1348
20
4357
30
0
0
VERTEX
8
OUTLINE
10
1354
20
4357
30
0
0
VERTEX
8
OUTLINE
10
1354
20
4362
30
0
0
VERTEX
8
OUTLINE
10
1304
20
4362
30
0
0
VERTEX
8
OUTLINE
10
1304
20
4357
30
0
0
VERTEX
8
OUTLINE
10
1310
20
4357
30
0
0
VERTEX
8
OUTLINE
10
1310
20
4344
30
0
0
VERTEX
8
OUTLINE
10
1304
20
4344
30
0
0
VERTEX
8
OUTLINE
10
1234
20
4344
30
0
0
VERTEX
8
OUTLINE
10
1234
20
4274
30
0
0
VERTEX
8
OUTLINE
10
1234
20
4268
30
0
0
VERTEX
8
OUTLINE
10
1221
20
4268
30
0
0
VERTEX
8
OUTLINE
10
1221
20
4274
30
0
0
VERTEX
8
OUTLINE
10
1216
20
4274
30
0
0
VERTEX
8
OUTLINE
10
1216
20
4224
30
0
0
VERTEX
8
OUTLINE
10
1221
20
4224
30
0
0
VERTEX
8
OUTLINE
10
1221
20
4230
30
0
0
VERTEX
8
OUTLINE
10
1234
20
4230
30
0
0
VERTEX
8
OUTLINE
10
1234
20
4224
30
0
0
VERTEX
8
OUTLINE
10
1234
20
3600
30
0
0
VERTEX
8
OUTLINE
10
1234
20
3594
30
0
0
VERTEX
8
OUTLINE
10
1221
20
3594
30
0
0
VERTEX
8
OUTLINE
10
1221
20
3600
30
0
0
VERTEX
8
OUTLINE
10
1216
20
3600
30
0
0
VERTEX
8
OUTLINE
10
1216
20
3550
30
0
0
VERTEX
8
OUTLINE
10
1221
20
3550
30
0
0
VERTEX
8
OUTLINE
10
1221
20
3556
30
0
0
VERTEX
8
OUTLINE
10
1234
20
3556
30
0
0
VERTEX
8
OUTLINE
10
1234
20
3550
30
0
0
SEQEND
8
OUTLINE
0
POLYLINE
8
PUZZLE_DOG_BONES
66
1
70
1
10
0
20
0
30
0
0
VERTEX
8
PUZZLE_DOG_BONES
10
1299
20
4344
30
0
0
VERTEX
8
PUZZLE_DOG_BONES
10
1359
20
4344
30
0
0
VERTEX
8
PUZZLE_DOG_BONES
10
1359
20
4362
30
0
0
VERTEX
8
PUZZLE_DOG_BONES
10
1299
20
4362
30
0
0
SEQEND
8
PUZZLE_DOG_BONES
0
POLYLINE
8
PUZZLE_DOG_BONES
66
1
70
1
10
0
20
0
30
0
0
VERTEX
8
PUZZLE_DOG_BONES
10
1299
20
3462
30
0
0
VERTEX
8
PUZZLE_DOG_BONES
10
1359
20
3462
30
0
0
VERTEX
8
PUZZLE_DOG_BONES
10
1359
20
3480
30
0
0
VERTEX
8
PUZZLE_DOG_BONES
10
1299
20
3480
30
0
0
SEQEND
8
PUZZLE_DOG_BONES
0
POLYLINE
8
PUZZLE_DOG_BONES
66
1
70
1
10
0
20
0
30
0
0
VERTEX
8
PUZZLE_DOG_BONES
10
1649
20
4344
30
0
0
VERTEX
8
PUZZLE_DOG_BONES
10
1709
20
4344
30
0
0
VERTEX
8
PUZZLE_DOG_BONES
10
1709
20
4362
30
0
0
VERTEX
8
PUZZLE_DOG_BONES
10
1649
20
4362
30
0
0
SEQEND
8
PUZZLE_DOG_BONES
0
POLYLINE
8
PUZZLE_DOG_BONES
66
1
70
1
10
0
20
0
30
0
0
VERTEX
8
PUZZLE_DOG_BONES
10
1649
20
3462
30
0
0
VERTEX
8
PUZZLE_DOG_BONES
10
1709
20
3462
30
0
0
VERTEX
8
PUZZLE_DOG_BONES
10
1709
20
3480
30
0
0
VERTEX
8
PUZZLE_DOG_BONES
10
1649
20
3480
30
0
0
SEQEND
8
PUZZLE_DOG_BONES
0
POLYLINE
8
PUZZLE_DOG_BONES
66
1
70
1
10
0
20
0
30
0
0
VERTEX
8
PUZZLE_DOG_BONES
10
1216
20
3545
30
0
0
VERTEX
8
PUZZLE_DOG_BONES
10
1234
20
3545
30
0
0
VERTEX
8
PUZZLE_DOG_BONES
10
1234
20
3605
30
0
0
VERTEX
8
PUZZLE_DOG_BONES
10
1216
20
3605
30
0
0
SEQEND
8
PUZZLE_DOG_BONES
0
POLYLINE
8
PUZZLE_DOG_BONES
66
1
70
1
10
0
20
0
30
0
0
VERTEX
8
PUZZLE_DOG_BONES
10
1216
20
4219
30
0
0
VERTEX
8
PUZZLE_DOG_BONES
10
1234
20
4219
30
0
0
VERTEX
8
PUZZLE_DOG_BONES
10
1234
20
4279
30
0
0
VERTEX
8
PUZZLE_DOG_BONES
10
1216
20
4279
30
0
0
SEQEND
8
PUZZLE_DOG_BONES
0
TEXT
8
UNIT_NUMBER
10
1504
20
3924.5
30
0
40
20
1
W02 TOP
72
1
11
1504
21
3924.5
31
0
73
2
0
TEXT
8
UNIT_NUMBER
10
1504
20
3899.5
30
0
40
20
1
864x540
72
1
11
1504
21
3899.5
31
0
73
2
0
POLYLINE
8
OUTLINE
66
1
70
1
10
0
20
0
30
0
0
VERTEX
8
OUTLINE
10
1842
20
3480
30
0
0
VERTEX
8
OUTLINE
10
1912
20
3480
30
0
0
VERTEX
8
OUTLINE
10
1918
20
3480
30
0
0
VERTEX
8
OUTLINE
10
1918
20
3467
30
0
0
VERTEX
8
OUTLINE
10
1912
20
3467
30
0
0
VERTEX
8
OUTLINE
10
1912
20
3462
30
0
0
VERTEX
8
OUTLINE
10
1962
20
3462
30
0
0
VERTEX
8
OUTLINE
10
1962
20
3467
30
0
0
VERTEX
8
OUTLINE
10
1956
20
3467
30
0
0
VERTEX
8
OUTLINE
10
1956
20
3480
30
0
0
VERTEX
8
OUTLINE
10
1962
20
3480
30
0
0
VERTEX
8
OUTLINE
10
2262
20
3480
30
0
0
VERTEX
8
OUTLINE
10
2268
20
3480
30
0
0
VERTEX
8
OUTLINE
10
2268
20
3467
30
0
0
VERTEX
8
OUTLINE
10
2262
20
3467
30
0
0
VERTEX
8
OUTLINE
10
2262
20
3462
30
0
0
VERTEX
8
OUTLINE
10
2312
20
3462
30
0
0
VERTEX
8
OUTLINE
10
2312
20
3467
30
0
0
VERTEX
8
OUTLINE
10
2306
20
3467
30
0
0
VERTEX
8
OUTLINE
10
2306
20
3480
30
0
0
VERTEX
8
OUTLINE
10
2312
20
3480
30
0
0
VERTEX
8
OUTLINE
10
2382
20
3480
30
0
0
VERTEX
8
OUTLINE
10
2382
20
4344
30
0
0
VERTEX
8
OUTLINE
10
2312
20
4344
30
0
0
VERTEX
8
OUTLINE
10
2306
20
4344
30
0
0
VERTEX
8
OUTLINE
10
2306
20
4357
30
0
0
VERTEX
8
OUTLINE
10
2312
20
4357
30
0
0
VERTEX
8
OUTLINE
10
2312
20
4362
30
0
0
VERTEX
8
OUTLINE
10
2262
20
4362
30
0
0
VERTEX
8
OUTLINE
10
2262
20
4357
30
0
0
VERTEX
8
OUTLINE
10
2268
20
4357
30
0
0
VERTEX
8
OUTLINE
10
2268
20
4344
30
0
0
VERTEX
8
OUTLINE
10
2262
20
4344
30
0
0
VERTEX
8
OUTLINE
10
1962
20
4344
30
0
0
VERTEX
8
OUTLINE
10
1956
20
4344
30
0
0
VERTEX
8
OUTLINE
10
1956
20
4357
30
0
0
VERTEX
8
OUTLINE
10
1962
20
4357
30
0
0
VERTEX
8
OUTLINE
10
1962
20
4362
30
0
0
VERTEX
8
OUTLINE
10
1912
20
4362
30
0
0
VERTEX
8
OUTLINE
10
1912
20
4357
30
0
0
VERTEX
8
OUTLINE
10
1918
20
4357
30
0
0
VERTEX
8
OUTLINE
10
1918
20
4344
30
0
0
VERTEX
8
OUTLINE
10
1912
20
4344
30
0
0
VERTEX
8
OUTLINE
10
1842
20
4344
30
0
0
VERTEX
8
OUTLINE
10
1842
20
4274
30
0
0
VERTEX
8
OUTLINE
10
1842
20
4268
30
0
0
VERTEX
8
OUTLINE
10
1829
20
4268
30
0
0
VERTEX
8
OUTLINE
10
1829
20
4274
30
0
0
VERTEX
8
OUTLINE
10
1824
20
4274
30
0
0
VERTEX
8
OUTLINE
10
1824
20
4224
30
0
0
VERTEX
8
OUTLINE
10
1829
20
4224
30
0
0
VERTEX
8
OUTLINE
10
1829
20
4230
30
0
0
VERTEX
8
OUTLINE
10
1842
20
4230
30
0
0
VERTEX
8
OUTLINE
10
1842
20
4224
30
0
0
VERTEX
8
OUTLINE
10
1842
20
3600
30
0
0
VERTEX
8
OUTLINE
10
1842
20
3594
30
0
0
VERTEX
8
OUTLINE
10
1829
20
3594
30
0
0
VERTEX
8
OUTLINE
10
1829
20
3600
30
0
0
VERTEX
8
OUTLINE
10
1824
20
3600
30
0
0
VERTEX
8
OUTLINE
10
1824
20
3550
30
0
0
VERTEX
8
OUTLINE
10
1829
20
3550
30
0
0
VERTEX
8
OUTLINE
10
1829
20
3556
30
0
0
VERTEX
8
OUTLINE
10
1842
20
3556
30
0
0
VERTEX
8
OUTLINE
10
1842
20
3550
30
0
0
SEQEND
8
OUTLINE
0
POLYLINE
8
PUZZLE_DOG_BONES
66
1
70
1
10
0
20
0
30
0
0
VERTEX
8
PUZZLE_DOG_BONES
10
1907
20
4344
30
0
0
VERTEX
8
PUZZLE_DOG_BONES
10
1967
20
4344
30
0
0
VERTEX
8
PUZZLE_DOG_BONES
10
1967
20
4362
30
0
0
VERTEX
8
PUZZLE_DOG_BONES
10
1907
20
4362
30
0
0
SEQEND
8
PUZZLE_DOG_BONES
0
POLYLINE
8
PUZZLE_DOG_BONES
66
1
70
1
10
0
20
0
30
0
0
VERTEX
8
PUZZLE_DOG_BONES
10
1907
20
3462
30
0
0
VERTEX
8
PUZZLE_DOG_BONES
10
1967
20
3462
30
0
0
VERTEX
8
PUZZLE_DOG_BONES
10
1967
20
3480
30
0
0
VERTEX
8
PUZZLE_DOG_BONES
10
1907
20
3480
30
0
0
SEQEND
8
PUZZLE_DOG_BONES
0
POLYLINE
8
PUZZLE_DOG_BONES
66
1
70
1
10
0
20
0
30
0
0
VERTEX
8
PUZZLE_DOG_BONES
10
2257
20
4344
30
0
0
VERTEX
8
PUZZLE_DOG_BONES
10
2317
20
4344
30
0
0
VERTEX
8
PUZZLE_DOG_BONES
10
2317
20
4362
30
0
0
VERTEX
8
PUZZLE_DOG_BONES
10
2257
20
4362
30
0
0
SEQEND
8
PUZZLE_DOG_BONES
0
POLYLINE
8
PUZZLE_DOG_BONES
66
1
70
1
10
0
20
0
30
0
0
VERTEX
8
PUZZLE_DOG_BONES
10
2257
20
3462
30
0
0
VERTEX
8
PUZZLE_DOG_BONES
10
2317
20
3462
30
0
0
VERTEX
8
PUZZLE_DOG_BONES
10
2317
20
3480
30
0
0
VERTEX
8
PUZZLE_DOG_BONES
10
2257
20
3480
30
0
0
SEQEND
8
PUZZLE_DOG_BONES
0
POLYLINE
8
PUZZLE_DOG_BONES
66
1
70
1
10
0
20
0
30
0
0
VERTEX
8
PUZZLE_DOG_BONES
10
1824
20
3545
30
0
0
VERTEX
8
PUZZLE_DOG_BONES
10
1842
20
3545
30
0
0
VERTEX
8
PUZZLE_DOG_BONES
10
1842
20
3605
30
0
0
VERTEX
8
PUZZLE_DOG_BONES
10
1824
20
3605
30
0
0
SEQEND
8
PUZZLE_DOG_BONES
0
POLYLINE
8
PUZZLE_DOG_BONES
66
1
70
1
10
0
20
0
30
0
0
VERTEX
8
PUZZLE_DOG_BONES
10
1824
20
4219
30
0
0
VERTEX
8
PUZZLE_DOG_BONES
10
1842
20
4219
30
0
0
VERTEX
8
PUZZLE_DOG_BONES
10
1842
20
4279
30
0
0
VERTEX
8
PUZZLE_DOG_BONES
10
1824
20
4279
30
0
0
SEQEND
8
PUZZLE_DOG_BONES
0
TEXT
8
UNIT_NUMBER
10
2112
20
3937
30
0
40
20
1
W02
72
1
11
2112
21
3937
31
0
73
2
0
TEXT
8
UNIT_NUMBER
10
2112
20
3912
30
0
40
20
1
BOTTOM
72
1
11
2112
21
3912
31
0
73
2
0
TEXT
8
UNIT_NUMBER
10
2112
20
3887
30
0
40
20
1
864x540
72
1
11
2112
21
3887
31
0
73
2
0
POLYLINE
8
OUTLINE
66
1
70
1
10
0
20
0
30
0
0
VERTEX
8
OUTLINE
10
2438
20
2206
30
0
0
VERTEX
8
OUTLINE
10
3338
20
2206
30
0
0
VERTEX
8
OUTLINE
10
3338
20
4356
30
0
0
VERTEX
8
OUTLINE
10
2438
20
4356
30
0
0
SEQEND
8
OUTLINE
0
POLYLINE
8
PUZZLE_SOCKET
66
1
70
1
10
0
20
0
30
0
0
VERTEX
8
PUZZLE_SOCKET
10
2432
20
2275.5
30
0
0
VERTEX
8
PUZZLE_SOCKET
10
2447
20
2275.5
30
0
0
VERTEX
8
PUZZLE_SOCKET
10
2447
20
2326.5
30
0
0
VERTEX
8
PUZZLE_SOCKET
10
2432
20
2326.5
30
0
0
SEQEND
8
PUZZLE_SOCKET
0
POLYLINE
8
PUZZLE_SOCKET
66
1
70
1
10
0
20
0
30
0
0
VERTEX
8
PUZZLE_SOCKET
10
2432
20
3255.5
30
0
0
VERTEX
8
PUZZLE_SOCKET
10
2447
20
3255.5
30
0
0
VERTEX
8
PUZZLE_SOCKET
10
2447
20
3306.5
30
0
0
VERTEX
8
PUZZLE_SOCKET
10
2432
20
3306.5
30
0
0
SEQEND
8
PUZZLE_SOCKET
0
POLYLINE
8
PUZZLE_SOCKET
66
1
70
1
10
0
20
0
30
0
0
VERTEX
8
PUZZLE_SOCKET
10
2432
20
4235.5
30
0
0
VERTEX
8
PUZZLE_SOCKET
10
2447
20
4235.5
30
0
0
VERTEX
8
PUZZLE_SOCKET
10
2447
20
4286.5
30
0
0
VERTEX
8
PUZZLE_SOCKET
10
2432
20
4286.5
30
0
0
SEQEND
8
PUZZLE_SOCKET
0
POLYLINE
8
PUZZLE_SOCKET
66
1
70
1
10
0
20
0
30
0
0
VERTEX
8
PUZZLE_SOCKET
10
3329
20
2275.5
30
0
0
VERTEX
8
PUZZLE_SOCKET
10
3344
20
2275.5
30
0
0
VERTEX
8
PUZZLE_SOCKET
10
3344
20
2326.5
30
0
0
VERTEX
8
PUZZLE_SOCKET
10
3329
20
2326.5
30
0
0
SEQEND
8
PUZZLE_SOCKET
0
POLYLINE
8
PUZZLE_SOCKET
66
1
70
1
10
0
20
0
30
0
0
VERTEX
8
PUZZLE_SOCKET
10
3329
20
3255.5
30
0
0
VERTEX
8
PUZZLE_SOCKET
10
3344
20
3255.5
30
0
0
VERTEX
8
PUZZLE_SOCKET
10
3344
20
3306.5
30
0
0
VERTEX
8
PUZZLE_SOCKET
10
3329
20
3306.5
30
0
0
SEQEND
8
PUZZLE_SOCKET
0
POLYLINE
8
PUZZLE_SOCKET
66
1
70
1
10
0
20
0
30
0
0
VERTEX
8
PUZZLE_SOCKET
10
3329
20
4235.5
30
0
0
VERTEX
8
PUZZLE_SOCKET
10
3344
20
4235.5
30
0
0
VERTEX
8
PUZZLE_SOCKET
10
3344
20
4286.5
30
0
0
VERTEX
8
PUZZLE_SOCKET
10
3329
20
4286.5
30
0
0
SEQEND
8
PUZZLE_SOCKET
0
POLYLINE
8
PUZZLE_SOCKET
66
1
70
1
10
0
20
0
30
0
0
VERTEX
8
PUZZLE_SOCKET
10
2525.5
20
4347
30
0
0
VERTEX
8
PUZZLE_SOCKET
10
2576.5
20
4347
30
0
0
VERTEX
8
PUZZLE_SOCKET
10
2576.5
20
4362
30
0
0
VERTEX
8
PUZZLE_SOCKET
10
2525.5
20
4362
30
0
0
SEQEND
8
PUZZLE_SOCKET
0
POLYLINE
8
PUZZLE_SOCKET
66
1
70
1
10
0
20
0
30
0
0
VERTEX
8
PUZZLE_SOCKET
10
3199.5
20
4347
30
0
0
VERTEX
8
PUZZLE_SOCKET
10
3250.5
20
4347
30
0
0
VERTEX
8
PUZZLE_SOCKET
10
3250.5
20
4362
30
0
0
VERTEX
8
PUZZLE_SOCKET
10
3199.5
20
4362
30
0
0
SEQEND
8
PUZZLE_SOCKET
0
POLYLINE
8
PUZZLE_SOCKET
66
1
70
1
10
0
20
0
30
0
0
VERTEX
8
PUZZLE_SOCKET
10
2525.5
20
2200
30
0
0
VERTEX
8
PUZZLE_SOCKET
10
2576.5
20
2200
30
0
0
VERTEX
8
PUZZLE_SOCKET
10
2576.5
20
2215
30
0
0
VERTEX
8
PUZZLE_SOCKET
10
2525.5
20
2215
30
0
0
SEQEND
8
PUZZLE_SOCKET
0
POLYLINE
8
PUZZLE_SOCKET
66
1
70
1
10
0
20
0
30
0
0
VERTEX
8
PUZZLE_SOCKET
10
3199.5
20
2200
30
0
0
VERTEX
8
PUZZLE_SOCKET
10
3250.5
20
2200
30
0
0
VERTEX
8
PUZZLE_SOCKET
10
3250.5
20
2215
30
0
0
VERTEX
8
PUZZLE_SOCKET
10
3199.5
20
2215
30
0
0
SEQEND
8
PUZZLE_SOCKET
0
CIRCLE
8
PUZZLE_HOLES_7_5MM
10
2446
20
2276.5
30
0
40
3.75
0
CIRCLE
8
PUZZLE_HOLES_7_5MM
10
2446
20
2325.5
30
0
40
3.75
0
CIRCLE
8
PUZZLE_HOLES_7_5MM
10
2446
20
3256.5
30
0
40
3.75
0
CIRCLE
8
PUZZLE_HOLES_7_5MM
10
2446
20
3305.5
30
0
40
3.75
0
CIRCLE
8
PUZZLE_HOLES_7_5MM
10
2446
20
4236.5
30
0
40
3.75
0
CIRCLE
8
PUZZLE_HOLES_7_5MM
10
2446
20
4285.5
30
0
40
3.75
0
CIRCLE
8
PUZZLE_HOLES_7_5MM
10
3330
20
2276.5
30
0
40
3.75
0
CIRCLE
8
PUZZLE_HOLES_7_5MM
10
3330
20
2325.5
30
0
40
3.75
0
CIRCLE
8
PUZZLE_HOLES_7_5MM
10
3330
20
3256.5
30
0
40
3.75
0
CIRCLE
8
PUZZLE_HOLES_7_5MM
10
3330
20
3305.5
30
0
40
3.75
0
CIRCLE
8
PUZZLE_HOLES_7_5MM
10
3330
20
4236.5
30
0
40
3.75
0
CIRCLE
8
PUZZLE_HOLES_7_5MM
10
3330
20
4285.5
30
0
40
3.75
0
CIRCLE
8
PUZZLE_HOLES_7_5MM
10
2526.5
20
4348
30
0
40
3.75
0
CIRCLE
8
PUZZLE_HOLES_7_5MM
10
2575.5
20
4348
30
0
40
3.75
0
CIRCLE
8
PUZZLE_HOLES_7_5MM
10
3200.5
20
4348
30
0
40
3.75
0
CIRCLE
8
PUZZLE_HOLES_7_5MM
10
3249.5
20
4348
30
0
40
3.75
0
CIRCLE
8
PUZZLE_HOLES_7_5MM
10
2526.5
20
2214
30
0
40
3.75
0
CIRCLE
8
PUZZLE_HOLES_7_5MM
10
2575.5
20
2214
30
0
40
3.75
0
CIRCLE
8
PUZZLE_HOLES_7_5MM
10
3200.5
20
2214
30
0
40
3.75
0
CIRCLE
8
PUZZLE_HOLES_7_5MM
10
3249.5
20
2214
30
0
40
3.75
0
CIRCLE
8
SCREWS_3MM
10
2447
20
2256
30
0
40
1.5
0
CIRCLE
8
SCREWS_3MM
10
3329
20
2256
30
0
40
1.5
0
CIRCLE
8
SCREWS_3MM
10
2447
20
2791
30
0
40
1.5
0
CIRCLE
8
SCREWS_3MM
10
3329
20
2791
30
0
40
1.5
0
CIRCLE
8
SCREWS_3MM
10
2447
20
3771
30
0
40
1.5
0
CIRCLE
8
SCREWS_3MM
10
3329
20
3771
30
0
40
1.5
0
CIRCLE
8
SCREWS_3MM
10
2447
20
4306
30
0
40
1.5
0
CIRCLE
8
SCREWS_3MM
10
3329
20
4306
30
0
40
1.5
0
CIRCLE
8
SCREWS_3MM
10
2506
20
4347
30
0
40
1.5
0
CIRCLE
8
SCREWS_3MM
10
2506
20
2215
30
0
40
1.5
0
CIRCLE
8
SCREWS_3MM
10
2888
20
4347
30
0
40
1.5
0
CIRCLE
8
SCREWS_3MM
10
2888
20
2215
30
0
40
1.5
0
CIRCLE
8
SCREWS_3MM
10
3270
20
4347
30
0
40
1.5
0
CIRCLE
8
SCREWS_3MM
10
3270
20
2215
30
0
40
1.5
0
TEXT
8
UNIT_NUMBER
10
2888
20
3293.5
30
0
40
20
1
W02 BACK
72
1
11
2888
21
3293.5
31
0
73
2
0
TEXT
8
UNIT_NUMBER
10
2888
20
3268.5
30
0
40
20
1
900x2150
72
1
11
2888
21
3268.5
31
0
73
2
0
POLYLINE
8
OUTLINE
66
1
70
1
10
0
20
0
30
0
0
VERTEX
8
OUTLINE
10
3474
20
3897
30
0
0
VERTEX
8
OUTLINE
10
3474
20
4362
30
0
0
VERTEX
8
OUTLINE
10
3394
20
4362
30
0
0
VERTEX
8
OUTLINE
10
3394
20
3897
30
0
0
SEQEND
8
OUTLINE
0
POLYLINE
8
SHOE_GROOVE_6MM
66
1
70
1
10
0
20
0
30
0
0
VERTEX
8
SHOE_GROOVE_6MM
10
3474
20
3915
30
0
0
VERTEX
8
SHOE_GROOVE_6MM
10
3421.33
20
4344
30
0
0
VERTEX
8
SHOE_GROOVE_6MM
10
3403.2656
20
4341.7822
30
0
0
VERTEX
8
SHOE_GROOVE_6MM
10
3455.9356
20
3912.7822
30
0
0
SEQEND
8
SHOE_GROOVE_6MM
0
TEXT
8
UNIT_NUMBER
10
3428
20
4129.5
30
0
40
9.6
1
W02 SHOE1-SL
50
90
72
1
11
3428
21
4129.5
31
0
73
2
0
TEXT
8
UNIT_NUMBER
10
3440
20
4129.5
30
0
40
9.6
1
465x80
50
90
72
1
11
3440
21
4129.5
31
0
73
2
0
POLYLINE
8
OUTLINE
66
1
70
1
10
0
20
0
30
0
0
VERTEX
8
OUTLINE
10
80
20
1685
30
0
0
VERTEX
8
OUTLINE
10
80
20
2150
30
0
0
VERTEX
8
OUTLINE
10
0
20
2150
30
0
0
VERTEX
8
OUTLINE
10
0
20
1685
30
0
0
SEQEND
8
OUTLINE
0
POLYLINE
8
SHOE_GROOVE_6MM
66
1
70
1
10
0
20
0
30
0
0
VERTEX
8
SHOE_GROOVE_6MM
10
80
20
1703
30
0
0
VERTEX
8
SHOE_GROOVE_6MM
10
27.33
20
2132
30
0
0
VERTEX
8
SHOE_GROOVE_6MM
10
9.2656
20
2129.7822
30
0
0
VERTEX
8
SHOE_GROOVE_6MM
10
61.9356
20
1700.7822
30
0
0
SEQEND
8
SHOE_GROOVE_6MM
0
TEXT
8
UNIT_NUMBER
10
34
20
1917.5
30
0
40
9.6
1
W02 SHOE1-SR
50
90
72
1
11
34
21
1917.5
31
0
73
2
0
TEXT
8
UNIT_NUMBER
10
46
20
1917.5
30
0
40
9.6
1
465x80
50
90
72
1
11
46
21
1917.5
31
0
73
2
0
POLYLINE
8
OUTLINE
66
1
70
1
10
0
20
0
30
0
0
VERTEX
8
OUTLINE
10
210
20
1408
30
0
0
VERTEX
8
OUTLINE
10
210
20
2150
30
0
0
VERTEX
8
OUTLINE
10
130
20
2150
30
0
0
VERTEX
8
OUTLINE
10
130
20
1408
30
0
0
SEQEND
8
OUTLINE
0
POLYLINE
8
SHOE_GROOVE_6MM
66
1
70
1
10
0
20
0
30
0
0
VERTEX
8
SHOE_GROOVE_6MM
10
157.33
20
1408
30
0
0
VERTEX
8
SHOE_GROOVE_6MM
10
157.33
20
2150
30
0
0
VERTEX
8
SHOE_GROOVE_6MM
10
139.13
20
2150
30
0
0
VERTEX
8
SHOE_GROOVE_6MM
10
139.13
20
1408
30
0
0
SEQEND
8
SHOE_GROOVE_6MM
0
TEXT
8
UNIT_NUMBER
10
170
20
1779
30
0
40
9.6
1
W02 SHOE1-BK 742x80
50
90
72
1
11
170
21
1779
31
0
73
2
0
POLYLINE
8
OUTLINE
66
1
70
1
10
0
20
0
30
0
0
VERTEX
8
OUTLINE
10
340
20
1408
30
0
0
VERTEX
8
OUTLINE
10
340
20
2150
30
0
0
VERTEX
8
OUTLINE
10
260
20
2150
30
0
0
VERTEX
8
OUTLINE
10
260
20
1408
30
0
0
SEQEND
8
OUTLINE
0
POLYLINE
8
SHOE_GROOVE_6MM
66
1
70
1
10
0
20
0
30
0
0
VERTEX
8
SHOE_GROOVE_6MM
10
340
20
1408
30
0
0
VERTEX
8
SHOE_GROOVE_6MM
10
340
20
2150
30
0
0
VERTEX
8
SHOE_GROOVE_6MM
10
321.8
20
2150
30
0
0
VERTEX
8
SHOE_GROOVE_6MM
10
321.8
20
1408
30
0
0
SEQEND
8
SHOE_GROOVE_6MM
0
TEXT
8
UNIT_NUMBER
10
300
20
1779
30
0
40
9.6
1
W02 SHOE1-BF 742x80
50
90
72
1
11
300
21
1779
31
0
73
2
0
POLYLINE
8
OUTLINE
66
1
70
1
10
0
20
0
30
0
0
VERTEX
8
OUTLINE
10
834.22
20
1396
30
0
0
VERTEX
8
OUTLINE
10
834.22
20
2150
30
0
0
VERTEX
8
OUTLINE
10
390
20
2150
30
0
0
VERTEX
8
OUTLINE
10
390
20
1396
30
0
0
SEQEND
8
OUTLINE
0
TEXT
8
UNIT_NUMBER
10
587.11
20
1773
30
0
40
20
1
W02
50
90
72
1
11
587.11
21
1773
31
0
73
2
0
TEXT
8
UNIT_NUMBER
10
612.11
20
1773
30
0
40
20
1
SHOE1-BT
50
90
72
1
11
612.11
21
1773
31
0
73
2
0
TEXT
8
UNIT_NUMBER
10
637.11
20
1773
30
0
40
20
1
754x444.2
50
90
72
1
11
637.11
21
1773
31
0
73
2
0
POLYLINE
8
OUTLINE
66
1
70
1
10
0
20
0
30
0
0
VERTEX
8
OUTLINE
10
934.22
20
1408
30
0
0
VERTEX
8
OUTLINE
10
934.22
20
2150
30
0
0
VERTEX
8
OUTLINE
10
884.22
20
2150
30
0
0
VERTEX
8
OUTLINE
10
884.22
20
1408
30
0
0
SEQEND
8
OUTLINE
0
TEXT
8
UNIT_NUMBER
10
909.22
20
1779
30
0
40
6
1
W02 SHOE1-DV 742x50
50
90
72
1
11
909.22
21
1779
31
0
73
2
0
POLYLINE
8
OUTLINE
66
1
70
1
10
0
20
0
30
0
0
VERTEX
8
OUTLINE
10
1054.22
20
1715
30
0
0
VERTEX
8
OUTLINE
10
1054.22
20
2150
30
0
0
VERTEX
8
OUTLINE
10
984.22
20
2150
30
0
0
VERTEX
8
OUTLINE
10
984.22
20
1715
30
0
0
SEQEND
8
OUTLINE
0
TEXT
8
UNIT_NUMBER
10
1013.97
20
1932.5
30
0
40
8.4
1
W02 SHOE1-BATTEN-L
50
90
72
1
11
1013.97
21
1932.5
31
0
73
2
0
TEXT
8
UNIT_NUMBER
10
1024.47
20
1932.5
30
0
40
8.4
1
435x70
50
90
72
1
11
1024.47
21
1932.5
31
0
73
2
0
POLYLINE
8
OUTLINE
66
1
70
1
10
0
20
0
30
0
0
VERTEX
8
OUTLINE
10
1174.22
20
1715
30
0
0
VERTEX
8
OUTLINE
10
1174.22
20
2150
30
0
0
VERTEX
8
OUTLINE
10
1104.22
20
2150
30
0
0
VERTEX
8
OUTLINE
10
1104.22
20
1715
30
0
0
SEQEND
8
OUTLINE
0
TEXT
8
UNIT_NUMBER
10
1133.97
20
1932.5
30
0
40
8.4
1
W02 SHOE1-BATTEN-R
50
90
72
1
11
1133.97
21
1932.5
31
0
73
2
0
TEXT
8
UNIT_NUMBER
10
1144.47
20
1932.5
30
0
40
8.4
1
435x70
50
90
72
1
11
1144.47
21
1932.5
31
0
73
2
0
POLYLINE
8
OUTLINE
66
1
70
1
10
0
20
0
30
0
0
VERTEX
8
OUTLINE
10
1344.22
20
1306
30
0
0
VERTEX
8
OUTLINE
10
1344.22
20
2150
30
0
0
VERTEX
8
OUTLINE
10
1224.22
20
2150
30
0
0
VERTEX
8
OUTLINE
10
1224.22
20
1306
30
0
0
SEQEND
8
OUTLINE
0
TEXT
8
UNIT_NUMBER
10
1275.22
20
1728
30
0
40
14.4
1
W02 SHOE1-FR
50
90
72
1
11
1275.22
21
1728
31
0
73
2
0
TEXT
8
UNIT_NUMBER
10
1293.22
20
1728
30
0
40
14.4
1
844x120
50
90
72
1
11
1293.22
21
1728
31
0
73
2
0
POLYLINE
8
OUTLINE
66
1
70
1
10
0
20
0
30
0
0
VERTEX
8
OUTLINE
10
1394.22
20
0
30
0
0
VERTEX
8
OUTLINE
10
1841.22
20
0
30
0
0
VERTEX
8
OUTLINE
10
1841.22
20
2150
30
0
0
VERTEX
8
OUTLINE
10
1394.22
20
2150
30
0
0
SEQEND
8
OUTLINE
0
POLYLINE
8
SHAKER_PANEL_POCKET
66
1
70
1
10
0
20
0
30
0
0
VERTEX
8
SHAKER_PANEL_POCKET
10
1454.22
20
2090
30
0
0
VERTEX
8
SHAKER_PANEL_POCKET
10
1781.22
20
2090
30
0
0
VERTEX
8
SHAKER_PANEL_POCKET
10
1781.22
20
60
30
0
0
VERTEX
8
SHAKER_PANEL_POCKET
10
1454.22
20
60
30
0
0
SEQEND
8
SHAKER_PANEL_POCKET
0
CIRCLE
8
FRONT_HINGES_35MM
10
1819.72
20
100
30
0
40
17.5
0
CIRCLE
8
FRONT_HINGES_3MM
10
1810.22
20
123
30
0
40
1.5
0
CIRCLE
8
FRONT_HINGES_3MM
10
1810.22
20
77
30
0
40
1.5
0
CIRCLE
8
FRONT_HINGES_35MM
10
1819.72
20
490
30
0
40
17.5
0
CIRCLE
8
FRONT_HINGES_3MM
10
1810.22
20
513
30
0
40
1.5
0
CIRCLE
8
FRONT_HINGES_3MM
10
1810.22
20
467
30
0
40
1.5
0
CIRCLE
8
FRONT_HINGES_35MM
10
1819.72
20
880
30
0
40
17.5
0
CIRCLE
8
FRONT_HINGES_3MM
10
1810.22
20
903
30
0
40
1.5
0
CIRCLE
8
FRONT_HINGES_3MM
10
1810.22
20
857
30
0
40
1.5
0
CIRCLE
8
FRONT_HINGES_35MM
10
1819.72
20
1270
30
0
40
17.5
0
CIRCLE
8
FRONT_HINGES_3MM
10
1810.22
20
1293
30
0
40
1.5
0
CIRCLE
8
FRONT_HINGES_3MM
10
1810.22
20
1247
30
0
40
1.5
0
CIRCLE
8
FRONT_HINGES_35MM
10
1819.72
20
1660
30
0
40
17.5
0
CIRCLE
8
FRONT_HINGES_3MM
10
1810.22
20
1683
30
0
40
1.5
0
CIRCLE
8
FRONT_HINGES_3MM
10
1810.22
20
1637
30
0
40
1.5
0
CIRCLE
8
FRONT_HINGES_35MM
10
1819.72
20
2050
30
0
40
17.5
0
CIRCLE
8
FRONT_HINGES_3MM
10
1810.22
20
2073
30
0
40
1.5
0
CIRCLE
8
FRONT_HINGES_3MM
10
1810.22
20
2027
30
0
40
1.5
0
TEXT
8
UNIT_NUMBER
10
1617.72
20
1087.5
30
0
40
20
1
W02 FL
72
1
11
1617.72
21
1087.5
31
0
73
2
0
TEXT
8
UNIT_NUMBER
10
1617.72
20
1062.5
30
0
40
20
1
447x2150
72
1
11
1617.72
21
1062.5
31
0
73
2
0
POLYLINE
8
OUTLINE
66
1
70
1
10
0
20
0
30
0
0
VERTEX
8
OUTLINE
10
1891.22
20
0
30
0
0
VERTEX
8
OUTLINE
10
2338.22
20
0
30
0
0
VERTEX
8
OUTLINE
10
2338.22
20
2150
30
0
0
VERTEX
8
OUTLINE
10
1891.22
20
2150
30
0
0
SEQEND
8
OUTLINE
0
POLYLINE
8
SHAKER_PANEL_POCKET
66
1
70
1
10
0
20
0
30
0
0
VERTEX
8
SHAKER_PANEL_POCKET
10
1951.22
20
2090
30
0
0
VERTEX
8
SHAKER_PANEL_POCKET
10
2278.22
20
2090
30
0
0
VERTEX
8
SHAKER_PANEL_POCKET
10
2278.22
20
60
30
0
0
VERTEX
8
SHAKER_PANEL_POCKET
10
1951.22
20
60
30
0
0
SEQEND
8
SHAKER_PANEL_POCKET
0
CIRCLE
8
FRONT_HINGES_35MM
10
1912.72
20
100
30
0
40
17.5
0
CIRCLE
8
FRONT_HINGES_3MM
10
1922.22
20
123
30
0
40
1.5
0
CIRCLE
8
FRONT_HINGES_3MM
10
1922.22
20
77
30
0
40
1.5
0
CIRCLE
8
FRONT_HINGES_35MM
10
1912.72
20
490
30
0
40
17.5
0
CIRCLE
8
FRONT_HINGES_3MM
10
1922.22
20
513
30
0
40
1.5
0
CIRCLE
8
FRONT_HINGES_3MM
10
1922.22
20
467
30
0
40
1.5
0
CIRCLE
8
FRONT_HINGES_35MM
10
1912.72
20
880
30
0
40
17.5
0
CIRCLE
8
FRONT_HINGES_3MM
10
1922.22
20
903
30
0
40
1.5
0
CIRCLE
8
FRONT_HINGES_3MM
10
1922.22
20
857
30
0
40
1.5
0
CIRCLE
8
FRONT_HINGES_35MM
10
1912.72
20
1270
30
0
40
17.5
0
CIRCLE
8
FRONT_HINGES_3MM
10
1922.22
20
1293
30
0
40
1.5
0
CIRCLE
8
FRONT_HINGES_3MM
10
1922.22
20
1247
30
0
40
1.5
0
CIRCLE
8
FRONT_HINGES_35MM
10
1912.72
20
1660
30
0
40
17.5
0
CIRCLE
8
FRONT_HINGES_3MM
10
1922.22
20
1683
30
0
40
1.5
0
CIRCLE
8
FRONT_HINGES_3MM
10
1922.22
20
1637
30
0
40
1.5
0
CIRCLE
8
FRONT_HINGES_35MM
10
1912.72
20
2050
30
0
40
17.5
0
CIRCLE
8
FRONT_HINGES_3MM
10
1922.22
20
2073
30
0
40
1.5
0
CIRCLE
8
FRONT_HINGES_3MM
10
1922.22
20
2027
30
0
40
1.5
0
TEXT
8
UNIT_NUMBER
10
2114.72
20
1087.5
30
0
40
20
1
W02 FR
72
1
11
2114.72
21
1087.5
31
0
73
2
0
TEXT
8
UNIT_NUMBER
10
2114.72
20
1062.5
30
0
40
20
1
447x2150
72
1
11
2114.72
21
1062.5
31
0
73
2
0
ENDSEC
0
EOF
