0
SECTION
2
HEADER
9
$ACADVER
1
AC1009
9
$INSBASE
10
0
20
0
30
0
9
$EXTMIN
10
0
20
0
30
0
9
$EXTMAX
10
3586
20
4222.175
30
0
0
ENDSEC
0
SECTION
2
TABLES
0
TABLE
2
LAYER
70
13
0
LAYER
2
0
70
0
62
7
6
CONTINUOUS
0
LAYER
2
OUTLINE
70
0
62
7
6
CONTINUOUS
0
LAYER
2
PUZZLE_SOCKET
70
0
62
1
6
CONTINUOUS
0
LAYER
2
PUZZLE_DOG_BONES
70
0
62
2
6
CONTINUOUS
0
LAYER
2
PUZZLE_HOLES_7_5MM
70
0
62
3
6
CONTINUOUS
0
LAYER
2
SCREWS_3MM
70
0
62
4
6
CONTINUOUS
0
LAYER
2
SHAKER_PANEL_POCKET
70
0
62
41
6
CONTINUOUS
0
LAYER
2
HINGES_5MM
70
0
62
5
6
CONTINUOUS
0
LAYER
2
FRONT_HINGES_35MM
70
0
62
3
6
CONTINUOUS
0
LAYER
2
FRONT_HINGES_3MM
70
0
62
30
6
CONTINUOUS
0
LAYER
2
UNIT_NUMBER
70
0
62
94
6
CONTINUOUS
0
LAYER
2
SHOE_GROOVE_6MM
70
0
62
1
6
CONTINUOUS
0
LAYER
2
SHOE_RUNNER_5MM
70
0
62
5
6
CONTINUOUS
0
ENDTAB
0
ENDSEC
0
SECTION
2
ENTITIES
0
POLYLINE
8
OUTLINE
66
1
70
1
10
0
20
0
30
0
0
VERTEX
8
OUTLINE
10
0
20
2137.175
30
0
0
VERTEX
8
OUTLINE
10
540
20
2137.175
30
0
0
VERTEX
8
OUTLINE
10
540
20
2207.175
30
0
0
VERTEX
8
OUTLINE
10
540
20
2213.175
30
0
0
VERTEX
8
OUTLINE
10
553
20
2213.175
30
0
0
VERTEX
8
OUTLINE
10
553
20
2207.175
30
0
0
VERTEX
8
OUTLINE
10
558
20
2207.175
30
0
0
VERTEX
8
OUTLINE
10
558
20
2257.175
30
0
0
VERTEX
8
OUTLINE
10
553
20
2257.175
30
0
0
VERTEX
8
OUTLINE
10
553
20
2251.175
30
0
0
VERTEX
8
OUTLINE
10
540
20
2251.175
30
0
0
VERTEX
8
OUTLINE
10
540
20
2257.175
30
0
0
VERTEX
8
OUTLINE
10
540
20
3187.175
30
0
0
VERTEX
8
OUTLINE
10
540
20
3193.175
30
0
0
VERTEX
8
OUTLINE
10
553
20
3193.175
30
0
0
VERTEX
8
OUTLINE
10
553
20
3187.175
30
0
0
VERTEX
8
OUTLINE
10
558
20
3187.175
30
0
0
VERTEX
8
OUTLINE
10
558
20
3237.175
30
0
0
VERTEX
8
OUTLINE
10
553
20
3237.175
30
0
0
VERTEX
8
OUTLINE
10
553
20
3231.175
30
0
0
VERTEX
8
OUTLINE
10
540
20
3231.175
30
0
0
VERTEX
8
OUTLINE
10
540
20
3237.175
30
0
0
VERTEX
8
OUTLINE
10
540
20
4167.175
30
0
0
VERTEX
8
OUTLINE
10
540
20
4173.175
30
0
0
VERTEX
8
OUTLINE
10
553
20
4173.175
30
0
0
VERTEX
8
OUTLINE
10
553
20
4167.175
30
0
0
VERTEX
8
OUTLINE
10
558
20
4167.175
30
0
0
VERTEX
8
OUTLINE
10
558
20
4201.6321
30
0
0
VERTEX
8
OUTLINE
10
540
20
4201.6321
30
0
0
VERTEX
8
OUTLINE
10
0
20
4201.6321
30
0
0
SEQEND
8
OUTLINE
0
POLYLINE
8
PUZZLE_DOG_BONES
66
1
70
1
10
0
20
0
30
0
0
VERTEX
8
PUZZLE_DOG_BONES
10
540
20
2202.175
30
0
0
VERTEX
8
PUZZLE_DOG_BONES
10
558
20
2202.175
30
0
0
VERTEX
8
PUZZLE_DOG_BONES
10
558
20
2262.175
30
0
0
VERTEX
8
PUZZLE_DOG_BONES
10
540
20
2262.175
30
0
0
SEQEND
8
PUZZLE_DOG_BONES
0
POLYLINE
8
PUZZLE_DOG_BONES
66
1
70
1
10
0
20
0
30
0
0
VERTEX
8
PUZZLE_DOG_BONES
10
540
20
3182.175
30
0
0
VERTEX
8
PUZZLE_DOG_BONES
10
558
20
3182.175
30
0
0
VERTEX
8
PUZZLE_DOG_BONES
10
558
20
3242.175
30
0
0
VERTEX
8
PUZZLE_DOG_BONES
10
540
20
3242.175
30
0
0
SEQEND
8
PUZZLE_DOG_BONES
0
POLYLINE
8
PUZZLE_DOG_BONES
66
1
70
1
10
0
20
0
30
0
0
VERTEX
8
PUZZLE_DOG_BONES
10
540
20
4162.175
30
0
0
VERTEX
8
PUZZLE_DOG_BONES
10
558
20
4162.175
30
0
0
VERTEX
8
PUZZLE_DOG_BONES
10
558
20
4222.175
30
0
0
VERTEX
8
PUZZLE_DOG_BONES
10
540
20
4222.175
30
0
0
SEQEND
8
PUZZLE_DOG_BONES
0
POLYLINE
8
PUZZLE_SOCKET
66
1
70
1
10
0
20
0
30
0
0
VERTEX
8
PUZZLE_SOCKET
10
69.5
20
2131.175
30
0
0
VERTEX
8
PUZZLE_SOCKET
10
120.5
20
2131.175
30
0
0
VERTEX
8
PUZZLE_SOCKET
10
120.5
20
2146.175
30
0
0
VERTEX
8
PUZZLE_SOCKET
10
69.5
20
2146.175
30
0
0
SEQEND
8
PUZZLE_SOCKET
0
POLYLINE
8
PUZZLE_SOCKET
66
1
70
1
10
0
20
0
30
0
0
VERTEX
8
PUZZLE_SOCKET
10
419.5
20
2131.175
30
0
0
VERTEX
8
PUZZLE_SOCKET
10
470.5
20
2131.175
30
0
0
VERTEX
8
PUZZLE_SOCKET
10
470.5
20
2146.175
30
0
0
VERTEX
8
PUZZLE_SOCKET
10
419.5
20
2146.175
30
0
0
SEQEND
8
PUZZLE_SOCKET
0
CIRCLE
8
PUZZLE_HOLES_7_5MM
10
70.5
20
2145.175
30
0
40
3.75
0
CIRCLE
8
PUZZLE_HOLES_7_5MM
10
119.5
20
2145.175
30
0
40
3.75
0
CIRCLE
8
PUZZLE_HOLES_7_5MM
10
420.5
20
2145.175
30
0
40
3.75
0
CIRCLE
8
PUZZLE_HOLES_7_5MM
10
469.5
20
2145.175
30
0
40
3.75
0
CIRCLE
8
SCREWS_3MM
10
50
20
2146.175
30
0
40
1.5
0
CIRCLE
8
SCREWS_3MM
10
270
20
2146.175
30
0
40
1.5
0
CIRCLE
8
SCREWS_3MM
10
490
20
2146.175
30
0
40
1.5
0
CIRCLE
8
HINGES_5MM
10
37
20
2221.175
30
0
40
2.5
0
CIRCLE
8
HINGES_5MM
10
37
20
2253.175
30
0
40
2.5
0
CIRCLE
8
HINGES_5MM
10
37
20
2611.175
30
0
40
2.5
0
CIRCLE
8
HINGES_5MM
10
37
20
2643.175
30
0
40
2.5
0
CIRCLE
8
HINGES_5MM
10
37
20
3001.175
30
0
40
2.5
0
CIRCLE
8
HINGES_5MM
10
37
20
3033.175
30
0
40
2.5
0
CIRCLE
8
HINGES_5MM
10
37
20
3391.175
30
0
40
2.5
0
CIRCLE
8
HINGES_5MM
10
37
20
3423.175
30
0
40
2.5
0
CIRCLE
8
HINGES_5MM
10
37
20
3781.175
30
0
40
2.5
0
CIRCLE
8
HINGES_5MM
10
37
20
3813.175
30
0
40
2.5
0
CIRCLE
8
HINGES_5MM
10
37
20
4171.175
30
0
40
2.5
0
CIRCLE
8
SHOE_RUNNER_5MM
10
65
20
2195.175
30
0
40
2.5
0
CIRCLE
8
SHOE_RUNNER_5MM
10
380
20
2195.175
30
0
40
2.5
0
TEXT
8
UNIT_NUMBER
10
270
20
4142.8321
30
0
40
49
1
CUT
72
1
11
270
21
4142.8321
31
0
73
2
0
TEXT
8
UNIT_NUMBER
10
270
20
4081.5821
30
0
40
49
1
28.8 DEG
72
1
11
270
21
4081.5821
31
0
73
2
0
TEXT
8
UNIT_NUMBER
10
270
20
3181.90355
30
0
40
20
1
W02 BUL
72
1
11
270
21
3181.90355
31
0
73
2
0
TEXT
8
UNIT_NUMBER
10
270
20
3156.90355
30
0
40
20
1
540x2064.5
72
1
11
270
21
3156.90355
31
0
73
2
0
POLYLINE
8
OUTLINE
66
1
70
1
10
0
20
0
30
0
0
VERTEX
8
OUTLINE
10
626
20
2642.8179
30
0
0
VERTEX
8
OUTLINE
10
1166
20
2642.8179
30
0
0
VERTEX
8
OUTLINE
10
1166
20
4222.175
30
0
0
VERTEX
8
OUTLINE
10
626
20
4222.175
30
0
0
VERTEX
8
OUTLINE
10
626
20
3742.8179
30
0
0
VERTEX
8
OUTLINE
10
626
20
3736.8179
30
0
0
VERTEX
8
OUTLINE
10
613
20
3736.8179
30
0
0
VERTEX
8
OUTLINE
10
613
20
3742.8179
30
0
0
VERTEX
8
OUTLINE
10
608
20
3742.8179
30
0
0
VERTEX
8
OUTLINE
10
608
20
3692.8179
30
0
0
VERTEX
8
OUTLINE
10
613
20
3692.8179
30
0
0
VERTEX
8
OUTLINE
10
613
20
3698.8179
30
0
0
VERTEX
8
OUTLINE
10
626
20
3698.8179
30
0
0
VERTEX
8
OUTLINE
10
626
20
3692.8179
30
0
0
VERTEX
8
OUTLINE
10
626
20
2762.8179
30
0
0
VERTEX
8
OUTLINE
10
626
20
2756.8179
30
0
0
VERTEX
8
OUTLINE
10
613
20
2756.8179
30
0
0
VERTEX
8
OUTLINE
10
613
20
2762.8179
30
0
0
VERTEX
8
OUTLINE
10
608
20
2762.8179
30
0
0
VERTEX
8
OUTLINE
10
608
20
2712.8179
30
0
0
VERTEX
8
OUTLINE
10
613
20
2712.8179
30
0
0
VERTEX
8
OUTLINE
10
613
20
2718.8179
30
0
0
VERTEX
8
OUTLINE
10
626
20
2718.8179
30
0
0
VERTEX
8
OUTLINE
10
626
20
2712.8179
30
0
0
SEQEND
8
OUTLINE
0
POLYLINE
8
PUZZLE_DOG_BONES
66
1
70
1
10
0
20
0
30
0
0
VERTEX
8
PUZZLE_DOG_BONES
10
608
20
2707.8179
30
0
0
VERTEX
8
PUZZLE_DOG_BONES
10
626
20
2707.8179
30
0
0
VERTEX
8
PUZZLE_DOG_BONES
10
626
20
2767.8179
30
0
0
VERTEX
8
PUZZLE_DOG_BONES
10
608
20
2767.8179
30
0
0
SEQEND
8
PUZZLE_DOG_BONES
0
POLYLINE
8
PUZZLE_DOG_BONES
66
1
70
1
10
0
20
0
30
0
0
VERTEX
8
PUZZLE_DOG_BONES
10
608
20
3687.8179
30
0
0
VERTEX
8
PUZZLE_DOG_BONES
10
626
20
3687.8179
30
0
0
VERTEX
8
PUZZLE_DOG_BONES
10
626
20
3747.8179
30
0
0
VERTEX
8
PUZZLE_DOG_BONES
10
608
20
3747.8179
30
0
0
SEQEND
8
PUZZLE_DOG_BONES
0
POLYLINE
8
PUZZLE_SOCKET
66
1
70
1
10
0
20
0
30
0
0
VERTEX
8
PUZZLE_SOCKET
10
695.5
20
2636.8179
30
0
0
VERTEX
8
PUZZLE_SOCKET
10
746.5
20
2636.8179
30
0
0
VERTEX
8
PUZZLE_SOCKET
10
746.5
20
2651.8179
30
0
0
VERTEX
8
PUZZLE_SOCKET
10
695.5
20
2651.8179
30
0
0
SEQEND
8
PUZZLE_SOCKET
0
POLYLINE
8
PUZZLE_SOCKET
66
1
70
1
10
0
20
0
30
0
0
VERTEX
8
PUZZLE_SOCKET
10
1045.5
20
2636.8179
30
0
0
VERTEX
8
PUZZLE_SOCKET
10
1096.5
20
2636.8179
30
0
0
VERTEX
8
PUZZLE_SOCKET
10
1096.5
20
2651.8179
30
0
0
VERTEX
8
PUZZLE_SOCKET
10
1045.5
20
2651.8179
30
0
0
SEQEND
8
PUZZLE_SOCKET
0
CIRCLE
8
PUZZLE_HOLES_7_5MM
10
696.5
20
2650.8179
30
0
40
3.75
0
CIRCLE
8
PUZZLE_HOLES_7_5MM
10
745.5
20
2650.8179
30
0
40
3.75
0
CIRCLE
8
PUZZLE_HOLES_7_5MM
10
1046.5
20
2650.8179
30
0
40
3.75
0
CIRCLE
8
PUZZLE_HOLES_7_5MM
10
1095.5
20
2650.8179
30
0
40
3.75
0
CIRCLE
8
SCREWS_3MM
10
676
20
2651.8179
30
0
40
1.5
0
CIRCLE
8
SCREWS_3MM
10
896
20
2651.8179
30
0
40
1.5
0
CIRCLE
8
SCREWS_3MM
10
1116
20
2651.8179
30
0
40
1.5
0
CIRCLE
8
HINGES_5MM
10
1129
20
2726.8179
30
0
40
2.5
0
CIRCLE
8
HINGES_5MM
10
1129
20
2758.8179
30
0
40
2.5
0
CIRCLE
8
HINGES_5MM
10
1129
20
3116.8179
30
0
40
2.5
0
CIRCLE
8
HINGES_5MM
10
1129
20
3148.8179
30
0
40
2.5
0
CIRCLE
8
HINGES_5MM
10
1129
20
3506.8179
30
0
40
2.5
0
CIRCLE
8
HINGES_5MM
10
1129
20
3538.8179
30
0
40
2.5
0
CIRCLE
8
HINGES_5MM
10
1129
20
3896.8179
30
0
40
2.5
0
CIRCLE
8
HINGES_5MM
10
1129
20
3928.8179
30
0
40
2.5
0
CIRCLE
8
SHOE_RUNNER_5MM
10
1101
20
2700.8179
30
0
40
2.5
0
CIRCLE
8
SHOE_RUNNER_5MM
10
786
20
2700.8179
30
0
40
2.5
0
TEXT
8
UNIT_NUMBER
10
896
20
4163.375
30
0
40
49
1
CUT
72
1
11
896
21
4163.375
31
0
73
2
0
TEXT
8
UNIT_NUMBER
10
896
20
4102.125
30
0
40
49
1
28.8 DEG
72
1
11
896
21
4102.125
31
0
73
2
0
TEXT
8
UNIT_NUMBER
10
896
20
3444.99645
30
0
40
20
1
W02 BUR
72
1
11
896
21
3444.99645
31
0
73
2
0
TEXT
8
UNIT_NUMBER
10
896
20
3419.99645
30
0
40
20
1
540x1579.4
72
1
11
896
21
3419.99645
31
0
73
2
0
POLYLINE
8
OUTLINE
66
1
70
1
10
0
20
0
30
0
0
VERTEX
8
OUTLINE
10
1216
20
3185.1309
30
0
0
VERTEX
8
OUTLINE
10
1756
20
3185.1309
30
0
0
VERTEX
8
OUTLINE
10
1756
20
4222.175
30
0
0
VERTEX
8
OUTLINE
10
1216
20
4222.175
30
0
0
SEQEND
8
OUTLINE
0
TEXT
8
UNIT_NUMBER
10
1486
20
4163.375
30
0
40
49
1
BEVEL
72
1
11
1486
21
4163.375
31
0
73
2
0
TEXT
8
UNIT_NUMBER
10
1486
20
4102.125
30
0
40
49
1
28.8 DEG
72
1
11
1486
21
4102.125
31
0
73
2
0
TEXT
8
UNIT_NUMBER
10
1486
20
4040.875
30
0
40
49
1
BOTH ENDS
72
1
11
1486
21
4040.875
31
0
73
2
0
TEXT
8
UNIT_NUMBER
10
1486
20
3979.625
30
0
40
49
1
- 5-AXIS
72
1
11
1486
21
3979.625
31
0
73
2
0
TEXT
8
UNIT_NUMBER
10
1486
20
3716.15295
30
0
40
20
1
W02 TOP
72
1
11
1486
21
3716.15295
31
0
73
2
0
TEXT
8
UNIT_NUMBER
10
1486
20
3691.15295
30
0
40
20
1
1037x540
72
1
11
1486
21
3691.15295
31
0
73
2
0
POLYLINE
8
OUTLINE
66
1
70
1
10
0
20
0
30
0
0
VERTEX
8
OUTLINE
10
1824
20
3340.175
30
0
0
VERTEX
8
OUTLINE
10
1894
20
3340.175
30
0
0
VERTEX
8
OUTLINE
10
1900
20
3340.175
30
0
0
VERTEX
8
OUTLINE
10
1900
20
3327.175
30
0
0
VERTEX
8
OUTLINE
10
1894
20
3327.175
30
0
0
VERTEX
8
OUTLINE
10
1894
20
3322.175
30
0
0
VERTEX
8
OUTLINE
10
1944
20
3322.175
30
0
0
VERTEX
8
OUTLINE
10
1944
20
3327.175
30
0
0
VERTEX
8
OUTLINE
10
1938
20
3327.175
30
0
0
VERTEX
8
OUTLINE
10
1938
20
3340.175
30
0
0
VERTEX
8
OUTLINE
10
1944
20
3340.175
30
0
0
VERTEX
8
OUTLINE
10
2244
20
3340.175
30
0
0
VERTEX
8
OUTLINE
10
2250
20
3340.175
30
0
0
VERTEX
8
OUTLINE
10
2250
20
3327.175
30
0
0
VERTEX
8
OUTLINE
10
2244
20
3327.175
30
0
0
VERTEX
8
OUTLINE
10
2244
20
3322.175
30
0
0
VERTEX
8
OUTLINE
10
2294
20
3322.175
30
0
0
VERTEX
8
OUTLINE
10
2294
20
3327.175
30
0
0
VERTEX
8
OUTLINE
10
2288
20
3327.175
30
0
0
VERTEX
8
OUTLINE
10
2288
20
3340.175
30
0
0
VERTEX
8
OUTLINE
10
2294
20
3340.175
30
0
0
VERTEX
8
OUTLINE
10
2364
20
3340.175
30
0
0
VERTEX
8
OUTLINE
10
2364
20
4204.175
30
0
0
VERTEX
8
OUTLINE
10
2294
20
4204.175
30
0
0
VERTEX
8
OUTLINE
10
2288
20
4204.175
30
0
0
VERTEX
8
OUTLINE
10
2288
20
4217.175
30
0
0
VERTEX
8
OUTLINE
10
2294
20
4217.175
30
0
0
VERTEX
8
OUTLINE
10
2294
20
4222.175
30
0
0
VERTEX
8
OUTLINE
10
2244
20
4222.175
30
0
0
VERTEX
8
OUTLINE
10
2244
20
4217.175
30
0
0
VERTEX
8
OUTLINE
10
2250
20
4217.175
30
0
0
VERTEX
8
OUTLINE
10
2250
20
4204.175
30
0
0
VERTEX
8
OUTLINE
10
2244
20
4204.175
30
0
0
VERTEX
8
OUTLINE
10
1944
20
4204.175
30
0
0
VERTEX
8
OUTLINE
10
1938
20
4204.175
30
0
0
VERTEX
8
OUTLINE
10
1938
20
4217.175
30
0
0
VERTEX
8
OUTLINE
10
1944
20
4217.175
30
0
0
VERTEX
8
OUTLINE
10
1944
20
4222.175
30
0
0
VERTEX
8
OUTLINE
10
1894
20
4222.175
30
0
0
VERTEX
8
OUTLINE
10
1894
20
4217.175
30
0
0
VERTEX
8
OUTLINE
10
1900
20
4217.175
30
0
0
VERTEX
8
OUTLINE
10
1900
20
4204.175
30
0
0
VERTEX
8
OUTLINE
10
1894
20
4204.175
30
0
0
VERTEX
8
OUTLINE
10
1824
20
4204.175
30
0
0
VERTEX
8
OUTLINE
10
1824
20
4134.175
30
0
0
VERTEX
8
OUTLINE
10
1824
20
4128.175
30
0
0
VERTEX
8
OUTLINE
10
1811
20
4128.175
30
0
0
VERTEX
8
OUTLINE
10
1811
20
4134.175
30
0
0
VERTEX
8
OUTLINE
10
1806
20
4134.175
30
0
0
VERTEX
8
OUTLINE
10
1806
20
4084.175
30
0
0
VERTEX
8
OUTLINE
10
1811
20
4084.175
30
0
0
VERTEX
8
OUTLINE
10
1811
20
4090.175
30
0
0
VERTEX
8
OUTLINE
10
1824
20
4090.175
30
0
0
VERTEX
8
OUTLINE
10
1824
20
4084.175
30
0
0
VERTEX
8
OUTLINE
10
1824
20
3460.175
30
0
0
VERTEX
8
OUTLINE
10
1824
20
3454.175
30
0
0
VERTEX
8
OUTLINE
10
1811
20
3454.175
30
0
0
VERTEX
8
OUTLINE
10
1811
20
3460.175
30
0
0
VERTEX
8
OUTLINE
10
1806
20
3460.175
30
0
0
VERTEX
8
OUTLINE
10
1806
20
3410.175
30
0
0
VERTEX
8
OUTLINE
10
1811
20
3410.175
30
0
0
VERTEX
8
OUTLINE
10
1811
20
3416.175
30
0
0
VERTEX
8
OUTLINE
10
1824
20
3416.175
30
0
0
VERTEX
8
OUTLINE
10
1824
20
3410.175
30
0
0
SEQEND
8
OUTLINE
0
POLYLINE
8
PUZZLE_DOG_BONES
66
1
70
1
10
0
20
0
30
0
0
VERTEX
8
PUZZLE_DOG_BONES
10
1889
20
4204.175
30
0
0
VERTEX
8
PUZZLE_DOG_BONES
10
1949
20
4204.175
30
0
0
VERTEX
8
PUZZLE_DOG_BONES
10
1949
20
4222.175
30
0
0
VERTEX
8
PUZZLE_DOG_BONES
10
1889
20
4222.175
30
0
0
SEQEND
8
PUZZLE_DOG_BONES
0
POLYLINE
8
PUZZLE_DOG_BONES
66
1
70
1
10
0
20
0
30
0
0
VERTEX
8
PUZZLE_DOG_BONES
10
1889
20
3322.175
30
0
0
VERTEX
8
PUZZLE_DOG_BONES
10
1949
20
3322.175
30
0
0
VERTEX
8
PUZZLE_DOG_BONES
10
1949
20
3340.175
30
0
0
VERTEX
8
PUZZLE_DOG_BONES
10
1889
20
3340.175
30
0
0
SEQEND
8
PUZZLE_DOG_BONES
0
POLYLINE
8
PUZZLE_DOG_BONES
66
1
70
1
10
0
20
0
30
0
0
VERTEX
8
PUZZLE_DOG_BONES
10
2239
20
4204.175
30
0
0
VERTEX
8
PUZZLE_DOG_BONES
10
2299
20
4204.175
30
0
0
VERTEX
8
PUZZLE_DOG_BONES
10
2299
20
4222.175
30
0
0
VERTEX
8
PUZZLE_DOG_BONES
10
2239
20
4222.175
30
0
0
SEQEND
8
PUZZLE_DOG_BONES
0
POLYLINE
8
PUZZLE_DOG_BONES
66
1
70
1
10
0
20
0
30
0
0
VERTEX
8
PUZZLE_DOG_BONES
10
2239
20
3322.175
30
0
0
VERTEX
8
PUZZLE_DOG_BONES
10
2299
20
3322.175
30
0
0
VERTEX
8
PUZZLE_DOG_BONES
10
2299
20
3340.175
30
0
0
VERTEX
8
PUZZLE_DOG_BONES
10
2239
20
3340.175
30
0
0
SEQEND
8
PUZZLE_DOG_BONES
0
POLYLINE
8
PUZZLE_DOG_BONES
66
1
70
1
10
0
20
0
30
0
0
VERTEX
8
PUZZLE_DOG_BONES
10
1806
20
3405.175
30
0
0
VERTEX
8
PUZZLE_DOG_BONES
10
1824
20
3405.175
30
0
0
VERTEX
8
PUZZLE_DOG_BONES
10
1824
20
3465.175
30
0
0
VERTEX
8
PUZZLE_DOG_BONES
10
1806
20
3465.175
30
0
0
SEQEND
8
PUZZLE_DOG_BONES
0
POLYLINE
8
PUZZLE_DOG_BONES
66
1
70
1
10
0
20
0
30
0
0
VERTEX
8
PUZZLE_DOG_BONES
10
1806
20
4079.175
30
0
0
VERTEX
8
PUZZLE_DOG_BONES
10
1824
20
4079.175
30
0
0
VERTEX
8
PUZZLE_DOG_BONES
10
1824
20
4139.175
30
0
0
VERTEX
8
PUZZLE_DOG_BONES
10
1806
20
4139.175
30
0
0
SEQEND
8
PUZZLE_DOG_BONES
0
TEXT
8
UNIT_NUMBER
10
2094
20
3797.175
30
0
40
20
1
W02
72
1
11
2094
21
3797.175
31
0
73
2
0
TEXT
8
UNIT_NUMBER
10
2094
20
3772.175
30
0
40
20
1
BOTTOM
72
1
11
2094
21
3772.175
31
0
73
2
0
TEXT
8
UNIT_NUMBER
10
2094
20
3747.175
30
0
40
20
1
864x540
72
1
11
2094
21
3747.175
31
0
73
2
0
POLYLINE
8
OUTLINE
66
1
70
1
10
0
20
0
30
0
0
VERTEX
8
OUTLINE
10
2420
20
2137.175
30
0
0
VERTEX
8
OUTLINE
10
3320
20
2137.175
30
0
0
VERTEX
8
OUTLINE
10
3320
20
3727.175
30
0
0
VERTEX
8
OUTLINE
10
2420
20
4222.175
30
0
0
SEQEND
8
OUTLINE
0
POLYLINE
8
PUZZLE_SOCKET
66
1
70
1
10
0
20
0
30
0
0
VERTEX
8
PUZZLE_SOCKET
10
2414
20
2206.675
30
0
0
VERTEX
8
PUZZLE_SOCKET
10
2429
20
2206.675
30
0
0
VERTEX
8
PUZZLE_SOCKET
10
2429
20
2257.675
30
0
0
VERTEX
8
PUZZLE_SOCKET
10
2414
20
2257.675
30
0
0
SEQEND
8
PUZZLE_SOCKET
0
POLYLINE
8
PUZZLE_SOCKET
66
1
70
1
10
0
20
0
30
0
0
VERTEX
8
PUZZLE_SOCKET
10
2414
20
3186.675
30
0
0
VERTEX
8
PUZZLE_SOCKET
10
2429
20
3186.675
30
0
0
VERTEX
8
PUZZLE_SOCKET
10
2429
20
3237.675
30
0
0
VERTEX
8
PUZZLE_SOCKET
10
2414
20
3237.675
30
0
0
SEQEND
8
PUZZLE_SOCKET
0
POLYLINE
8
PUZZLE_SOCKET
66
1
70
1
10
0
20
0
30
0
0
VERTEX
8
PUZZLE_SOCKET
10
2414
20
4166.675
30
0
0
VERTEX
8
PUZZLE_SOCKET
10
2429
20
4166.675
30
0
0
VERTEX
8
PUZZLE_SOCKET
10
2429
20
4217.675
30
0
0
VERTEX
8
PUZZLE_SOCKET
10
2414
20
4217.675
30
0
0
SEQEND
8
PUZZLE_SOCKET
0
POLYLINE
8
PUZZLE_SOCKET
66
1
70
1
10
0
20
0
30
0
0
VERTEX
8
PUZZLE_SOCKET
10
3311
20
2206.675
30
0
0
VERTEX
8
PUZZLE_SOCKET
10
3326
20
2206.675
30
0
0
VERTEX
8
PUZZLE_SOCKET
10
3326
20
2257.675
30
0
0
VERTEX
8
PUZZLE_SOCKET
10
3311
20
2257.675
30
0
0
SEQEND
8
PUZZLE_SOCKET
0
POLYLINE
8
PUZZLE_SOCKET
66
1
70
1
10
0
20
0
30
0
0
VERTEX
8
PUZZLE_SOCKET
10
3311
20
3186.675
30
0
0
VERTEX
8
PUZZLE_SOCKET
10
3326
20
3186.675
30
0
0
VERTEX
8
PUZZLE_SOCKET
10
3326
20
3237.675
30
0
0
VERTEX
8
PUZZLE_SOCKET
10
3311
20
3237.675
30
0
0
SEQEND
8
PUZZLE_SOCKET
0
POLYLINE
8
PUZZLE_SOCKET
66
1
70
1
10
0
20
0
30
0
0
VERTEX
8
PUZZLE_SOCKET
10
2507.5
20
2131.175
30
0
0
VERTEX
8
PUZZLE_SOCKET
10
2558.5
20
2131.175
30
0
0
VERTEX
8
PUZZLE_SOCKET
10
2558.5
20
2146.175
30
0
0
VERTEX
8
PUZZLE_SOCKET
10
2507.5
20
2146.175
30
0
0
SEQEND
8
PUZZLE_SOCKET
0
POLYLINE
8
PUZZLE_SOCKET
66
1
70
1
10
0
20
0
30
0
0
VERTEX
8
PUZZLE_SOCKET
10
3181.5
20
2131.175
30
0
0
VERTEX
8
PUZZLE_SOCKET
10
3232.5
20
2131.175
30
0
0
VERTEX
8
PUZZLE_SOCKET
10
3232.5
20
2146.175
30
0
0
VERTEX
8
PUZZLE_SOCKET
10
3181.5
20
2146.175
30
0
0
SEQEND
8
PUZZLE_SOCKET
0
CIRCLE
8
PUZZLE_HOLES_7_5MM
10
2428
20
2207.675
30
0
40
3.75
0
CIRCLE
8
PUZZLE_HOLES_7_5MM
10
2428
20
2256.675
30
0
40
3.75
0
CIRCLE
8
PUZZLE_HOLES_7_5MM
10
2428
20
3187.675
30
0
40
3.75
0
CIRCLE
8
PUZZLE_HOLES_7_5MM
10
2428
20
3236.675
30
0
40
3.75
0
CIRCLE
8
PUZZLE_HOLES_7_5MM
10
2428
20
4167.675
30
0
40
3.75
0
CIRCLE
8
PUZZLE_HOLES_7_5MM
10
2428
20
4216.675
30
0
40
3.75
0
CIRCLE
8
PUZZLE_HOLES_7_5MM
10
3312
20
2207.675
30
0
40
3.75
0
CIRCLE
8
PUZZLE_HOLES_7_5MM
10
3312
20
2256.675
30
0
40
3.75
0
CIRCLE
8
PUZZLE_HOLES_7_5MM
10
3312
20
3187.675
30
0
40
3.75
0
CIRCLE
8
PUZZLE_HOLES_7_5MM
10
3312
20
3236.675
30
0
40
3.75
0
CIRCLE
8
PUZZLE_HOLES_7_5MM
10
2508.5
20
2145.175
30
0
40
3.75
0
CIRCLE
8
PUZZLE_HOLES_7_5MM
10
2557.5
20
2145.175
30
0
40
3.75
0
CIRCLE
8
PUZZLE_HOLES_7_5MM
10
3182.5
20
2145.175
30
0
40
3.75
0
CIRCLE
8
PUZZLE_HOLES_7_5MM
10
3231.5
20
2145.175
30
0
40
3.75
0
CIRCLE
8
SCREWS_3MM
10
2429
20
2187.175
30
0
40
1.5
0
CIRCLE
8
SCREWS_3MM
10
3311
20
2187.175
30
0
40
1.5
0
CIRCLE
8
SCREWS_3MM
10
2429
20
2722.175
30
0
40
1.5
0
CIRCLE
8
SCREWS_3MM
10
3311
20
2722.175
30
0
40
1.5
0
CIRCLE
8
SCREWS_3MM
10
2429
20
3702.175
30
0
40
1.5
0
CIRCLE
8
SCREWS_3MM
10
3311
20
3702.175
30
0
40
1.5
0
CIRCLE
8
SCREWS_3MM
10
2488
20
2146.175
30
0
40
1.5
0
CIRCLE
8
SCREWS_3MM
10
2870
20
2146.175
30
0
40
1.5
0
CIRCLE
8
SCREWS_3MM
10
3252
20
2146.175
30
0
40
1.5
0
TEXT
8
UNIT_NUMBER
10
2870
20
3192.175
30
0
40
20
1
W02 BACK
72
1
11
2870
21
3192.175
31
0
73
2
0
TEXT
8
UNIT_NUMBER
10
2870
20
3167.175
30
0
40
20
1
900x2085
72
1
11
2870
21
3167.175
31
0
73
2
0
POLYLINE
8
OUTLINE
66
1
70
1
10
0
20
0
30
0
0
VERTEX
8
OUTLINE
10
3456
20
3757.175
30
0
0
VERTEX
8
OUTLINE
10
3456
20
4222.175
30
0
0
VERTEX
8
OUTLINE
10
3376
20
4222.175
30
0
0
VERTEX
8
OUTLINE
10
3376
20
3757.175
30
0
0
SEQEND
8
OUTLINE
0
POLYLINE
8
SHOE_GROOVE_6MM
66
1
70
1
10
0
20
0
30
0
0
VERTEX
8
SHOE_GROOVE_6MM
10
3456
20
3775.175
30
0
0
VERTEX
8
SHOE_GROOVE_6MM
10
3403.33
20
4204.175
30
0
0
VERTEX
8
SHOE_GROOVE_6MM
10
3385.2656
20
4201.9572
30
0
0
VERTEX
8
SHOE_GROOVE_6MM
10
3437.9356
20
3772.9572
30
0
0
SEQEND
8
SHOE_GROOVE_6MM
0
TEXT
8
UNIT_NUMBER
10
3410
20
3989.675
30
0
40
9.6
1
W02 SHOE1-SL
50
90
72
1
11
3410
21
3989.675
31
0
73
2
0
TEXT
8
UNIT_NUMBER
10
3422
20
3989.675
30
0
40
9.6
1
465x80
50
90
72
1
11
3422
21
3989.675
31
0
73
2
0
POLYLINE
8
OUTLINE
66
1
70
1
10
0
20
0
30
0
0
VERTEX
8
OUTLINE
10
3586
20
3757.175
30
0
0
VERTEX
8
OUTLINE
10
3586
20
4222.175
30
0
0
VERTEX
8
OUTLINE
10
3506
20
4222.175
30
0
0
VERTEX
8
OUTLINE
10
3506
20
3757.175
30
0
0
SEQEND
8
OUTLINE
0
POLYLINE
8
SHOE_GROOVE_6MM
66
1
70
1
10
0
20
0
30
0
0
VERTEX
8
SHOE_GROOVE_6MM
10
3586
20
3775.175
30
0
0
VERTEX
8
SHOE_GROOVE_6MM
10
3533.33
20
4204.175
30
0
0
VERTEX
8
SHOE_GROOVE_6MM
10
3515.2656
20
4201.9572
30
0
0
VERTEX
8
SHOE_GROOVE_6MM
10
3567.9356
20
3772.9572
30
0
0
SEQEND
8
SHOE_GROOVE_6MM
0
TEXT
8
UNIT_NUMBER
10
3540
20
3989.675
30
0
40
9.6
1
W02 SHOE1-SR
50
90
72
1
11
3540
21
3989.675
31
0
73
2
0
TEXT
8
UNIT_NUMBER
10
3552
20
3989.675
30
0
40
9.6
1
465x80
50
90
72
1
11
3552
21
3989.675
31
0
73
2
0
POLYLINE
8
OUTLINE
66
1
70
1
10
0
20
0
30
0
0
VERTEX
8
OUTLINE
10
80
20
1339.175
30
0
0
VERTEX
8
OUTLINE
10
80
20
2081.175
30
0
0
VERTEX
8
OUTLINE
10
0
20
2081.175
30
0
0
VERTEX
8
OUTLINE
10
0
20
1339.175
30
0
0
SEQEND
8
OUTLINE
0
POLYLINE
8
SHOE_GROOVE_6MM
66
1
70
1
10
0
20
0
30
0
0
VERTEX
8
SHOE_GROOVE_6MM
10
27.33
20
1339.175
30
0
0
VERTEX
8
SHOE_GROOVE_6MM
10
27.33
20
2081.175
30
0
0
VERTEX
8
SHOE_GROOVE_6MM
10
9.13
20
2081.175
30
0
0
VERTEX
8
SHOE_GROOVE_6MM
10
9.13
20
1339.175
30
0
0
SEQEND
8
SHOE_GROOVE_6MM
0
TEXT
8
UNIT_NUMBER
10
40
20
1710.175
30
0
40
9.6
1
W02 SHOE1-BK 742x80
50
90
72
1
11
40
21
1710.175
31
0
73
2
0
POLYLINE
8
OUTLINE
66
1
70
1
10
0
20
0
30
0
0
VERTEX
8
OUTLINE
10
210
20
1339.175
30
0
0
VERTEX
8
OUTLINE
10
210
20
2081.175
30
0
0
VERTEX
8
OUTLINE
10
130
20
2081.175
30
0
0
VERTEX
8
OUTLINE
10
130
20
1339.175
30
0
0
SEQEND
8
OUTLINE
0
POLYLINE
8
SHOE_GROOVE_6MM
66
1
70
1
10
0
20
0
30
0
0
VERTEX
8
SHOE_GROOVE_6MM
10
210
20
1339.175
30
0
0
VERTEX
8
SHOE_GROOVE_6MM
10
210
20
2081.175
30
0
0
VERTEX
8
SHOE_GROOVE_6MM
10
191.8
20
2081.175
30
0
0
VERTEX
8
SHOE_GROOVE_6MM
10
191.8
20
1339.175
30
0
0
SEQEND
8
SHOE_GROOVE_6MM
0
TEXT
8
UNIT_NUMBER
10
170
20
1710.175
30
0
40
9.6
1
W02 SHOE1-BF 742x80
50
90
72
1
11
170
21
1710.175
31
0
73
2
0
POLYLINE
8
OUTLINE
66
1
70
1
10
0
20
0
30
0
0
VERTEX
8
OUTLINE
10
704.22
20
1327.175
30
0
0
VERTEX
8
OUTLINE
10
704.22
20
2081.175
30
0
0
VERTEX
8
OUTLINE
10
260
20
2081.175
30
0
0
VERTEX
8
OUTLINE
10
260
20
1327.175
30
0
0
SEQEND
8
OUTLINE
0
TEXT
8
UNIT_NUMBER
10
457.11
20
1704.175
30
0
40
20
1
W02
50
90
72
1
11
457.11
21
1704.175
31
0
73
2
0
TEXT
8
UNIT_NUMBER
10
482.11
20
1704.175
30
0
40
20
1
SHOE1-BT
50
90
72
1
11
482.11
21
1704.175
31
0
73
2
0
TEXT
8
UNIT_NUMBER
10
507.11
20
1704.175
30
0
40
20
1
754x444.2
50
90
72
1
11
507.11
21
1704.175
31
0
73
2
0
POLYLINE
8
OUTLINE
66
1
70
1
10
0
20
0
30
0
0
VERTEX
8
OUTLINE
10
804.22
20
1339.175
30
0
0
VERTEX
8
OUTLINE
10
804.22
20
2081.175
30
0
0
VERTEX
8
OUTLINE
10
754.22
20
2081.175
30
0
0
VERTEX
8
OUTLINE
10
754.22
20
1339.175
30
0
0
SEQEND
8
OUTLINE
0
TEXT
8
UNIT_NUMBER
10
779.22
20
1710.175
30
0
40
6
1
W02 SHOE1-DV 742x50
50
90
72
1
11
779.22
21
1710.175
31
0
73
2
0
POLYLINE
8
OUTLINE
66
1
70
1
10
0
20
0
30
0
0
VERTEX
8
OUTLINE
10
924.22
20
1646.175
30
0
0
VERTEX
8
OUTLINE
10
924.22
20
2081.175
30
0
0
VERTEX
8
OUTLINE
10
854.22
20
2081.175
30
0
0
VERTEX
8
OUTLINE
10
854.22
20
1646.175
30
0
0
SEQEND
8
OUTLINE
0
TEXT
8
UNIT_NUMBER
10
883.97
20
1863.675
30
0
40
8.4
1
W02 SHOE1-BATTEN-L
50
90
72
1
11
883.97
21
1863.675
31
0
73
2
0
TEXT
8
UNIT_NUMBER
10
894.47
20
1863.675
30
0
40
8.4
1
435x70
50
90
72
1
11
894.47
21
1863.675
31
0
73
2
0
POLYLINE
8
OUTLINE
66
1
70
1
10
0
20
0
30
0
0
VERTEX
8
OUTLINE
10
1044.22
20
1646.175
30
0
0
VERTEX
8
OUTLINE
10
1044.22
20
2081.175
30
0
0
VERTEX
8
OUTLINE
10
974.22
20
2081.175
30
0
0
VERTEX
8
OUTLINE
10
974.22
20
1646.175
30
0
0
SEQEND
8
OUTLINE
0
TEXT
8
UNIT_NUMBER
10
1003.97
20
1863.675
30
0
40
8.4
1
W02 SHOE1-BATTEN-R
50
90
72
1
11
1003.97
21
1863.675
31
0
73
2
0
TEXT
8
UNIT_NUMBER
10
1014.47
20
1863.675
30
0
40
8.4
1
435x70
50
90
72
1
11
1014.47
21
1863.675
31
0
73
2
0
POLYLINE
8
OUTLINE
66
1
70
1
10
0
20
0
30
0
0
VERTEX
8
OUTLINE
10
1214.22
20
1237.175
30
0
0
VERTEX
8
OUTLINE
10
1214.22
20
2081.175
30
0
0
VERTEX
8
OUTLINE
10
1094.22
20
2081.175
30
0
0
VERTEX
8
OUTLINE
10
1094.22
20
1237.175
30
0
0
SEQEND
8
OUTLINE
0
TEXT
8
UNIT_NUMBER
10
1145.22
20
1659.175
30
0
40
14.4
1
W02 SHOE1-FR
50
90
72
1
11
1145.22
21
1659.175
31
0
73
2
0
TEXT
8
UNIT_NUMBER
10
1163.22
20
1659.175
30
0
40
14.4
1
844x120
50
90
72
1
11
1163.22
21
1659.175
31
0
73
2
0
POLYLINE
8
OUTLINE
66
1
70
1
10
0
20
0
30
0
0
VERTEX
8
OUTLINE
10
1264.22
20
0
30
0
0
VERTEX
8
OUTLINE
10
1711.22
20
0
30
0
0
VERTEX
8
OUTLINE
10
1711.22
20
2081.175
30
0
0
VERTEX
8
OUTLINE
10
1264.22
20
1835.325
30
0
0
SEQEND
8
OUTLINE
0
POLYLINE
8
SHAKER_PANEL_POCKET
66
1
70
1
10
0
20
0
30
0
0
VERTEX
8
SHAKER_PANEL_POCKET
10
1324.22
20
1979.6987
30
0
0
VERTEX
8
SHAKER_PANEL_POCKET
10
1651.22
20
1979.6987
30
0
0
VERTEX
8
SHAKER_PANEL_POCKET
10
1651.22
20
60
30
0
0
VERTEX
8
SHAKER_PANEL_POCKET
10
1324.22
20
60
30
0
0
SEQEND
8
SHAKER_PANEL_POCKET
0
CIRCLE
8
FRONT_HINGES_35MM
10
1689.72
20
100
30
0
40
17.5
0
CIRCLE
8
FRONT_HINGES_3MM
10
1680.22
20
123
30
0
40
1.5
0
CIRCLE
8
FRONT_HINGES_3MM
10
1680.22
20
77
30
0
40
1.5
0
CIRCLE
8
FRONT_HINGES_35MM
10
1689.72
20
476.235
30
0
40
17.5
0
CIRCLE
8
FRONT_HINGES_3MM
10
1680.22
20
499.235
30
0
40
1.5
0
CIRCLE
8
FRONT_HINGES_3MM
10
1680.22
20
453.235
30
0
40
1.5
0
CIRCLE
8
FRONT_HINGES_35MM
10
1689.72
20
852.47
30
0
40
17.5
0
CIRCLE
8
FRONT_HINGES_3MM
10
1680.22
20
875.47
30
0
40
1.5
0
CIRCLE
8
FRONT_HINGES_3MM
10
1680.22
20
829.47
30
0
40
1.5
0
CIRCLE
8
FRONT_HINGES_35MM
10
1689.72
20
1228.705
30
0
40
17.5
0
CIRCLE
8
FRONT_HINGES_3MM
10
1680.22
20
1251.705
30
0
40
1.5
0
CIRCLE
8
FRONT_HINGES_3MM
10
1680.22
20
1205.705
30
0
40
1.5
0
CIRCLE
8
FRONT_HINGES_35MM
10
1689.72
20
1604.94
30
0
40
17.5
0
CIRCLE
8
FRONT_HINGES_3MM
10
1680.22
20
1627.94
30
0
40
1.5
0
CIRCLE
8
FRONT_HINGES_3MM
10
1680.22
20
1581.94
30
0
40
1.5
0
CIRCLE
8
FRONT_HINGES_35MM
10
1689.72
20
1981.175
30
0
40
17.5
0
CIRCLE
8
FRONT_HINGES_3MM
10
1680.22
20
2004.175
30
0
40
1.5
0
CIRCLE
8
FRONT_HINGES_3MM
10
1680.22
20
1958.175
30
0
40
1.5
0
TEXT
8
UNIT_NUMBER
10
1487.72
20
1053.0875
30
0
40
20
1
W02 FL
72
1
11
1487.72
21
1053.0875
31
0
73
2
0
TEXT
8
UNIT_NUMBER
10
1487.72
20
1028.0875
30
0
40
20
1
447x2081.2
72
1
11
1487.72
21
1028.0875
31
0
73
2
0
POLYLINE
8
OUTLINE
66
1
70
1
10
0
20
0
30
0
0
VERTEX
8
OUTLINE
10
1761.22
20
247.5
30
0
0
VERTEX
8
OUTLINE
10
2208.22
20
247.5
30
0
0
VERTEX
8
OUTLINE
10
2208.22
20
2081.175
30
0
0
VERTEX
8
OUTLINE
10
1761.22
20
1835.325
30
0
0
SEQEND
8
OUTLINE
0
POLYLINE
8
SHAKER_PANEL_POCKET
66
1
70
1
10
0
20
0
30
0
0
VERTEX
8
SHAKER_PANEL_POCKET
10
1821.22
20
1979.6987
30
0
0
VERTEX
8
SHAKER_PANEL_POCKET
10
2148.22
20
1979.6987
30
0
0
VERTEX
8
SHAKER_PANEL_POCKET
10
2148.22
20
307.5
30
0
0
VERTEX
8
SHAKER_PANEL_POCKET
10
1821.22
20
307.5
30
0
0
SEQEND
8
SHAKER_PANEL_POCKET
0
CIRCLE
8
FRONT_HINGES_35MM
10
2186.72
20
347.5
30
0
40
17.5
0
CIRCLE
8
FRONT_HINGES_3MM
10
2177.22
20
370.5
30
0
40
1.5
0
CIRCLE
8
FRONT_HINGES_3MM
10
2177.22
20
324.5
30
0
40
1.5
0
CIRCLE
8
FRONT_HINGES_35MM
10
2186.72
20
674.235
30
0
40
17.5
0
CIRCLE
8
FRONT_HINGES_3MM
10
2177.22
20
697.235
30
0
40
1.5
0
CIRCLE
8
FRONT_HINGES_3MM
10
2177.22
20
651.235
30
0
40
1.5
0
CIRCLE
8
FRONT_HINGES_35MM
10
2186.72
20
1000.97
30
0
40
17.5
0
CIRCLE
8
FRONT_HINGES_3MM
10
2177.22
20
1023.97
30
0
40
1.5
0
CIRCLE
8
FRONT_HINGES_3MM
10
2177.22
20
977.97
30
0
40
1.5
0
CIRCLE
8
FRONT_HINGES_35MM
10
2186.72
20
1327.705
30
0
40
17.5
0
CIRCLE
8
FRONT_HINGES_3MM
10
2177.22
20
1350.705
30
0
40
1.5
0
CIRCLE
8
FRONT_HINGES_3MM
10
2177.22
20
1304.705
30
0
40
1.5
0
CIRCLE
8
FRONT_HINGES_35MM
10
2186.72
20
1654.44
30
0
40
17.5
0
CIRCLE
8
FRONT_HINGES_3MM
10
2177.22
20
1677.44
30
0
40
1.5
0
CIRCLE
8
FRONT_HINGES_3MM
10
2177.22
20
1631.44
30
0
40
1.5
0
CIRCLE
8
FRONT_HINGES_35MM
10
2186.72
20
1981.175
30
0
40
17.5
0
CIRCLE
8
FRONT_HINGES_3MM
10
2177.22
20
2004.175
30
0
40
1.5
0
CIRCLE
8
FRONT_HINGES_3MM
10
2177.22
20
1958.175
30
0
40
1.5
0
TEXT
8
UNIT_NUMBER
10
1984.72
20
1176.8375
30
0
40
20
1
W02 FR
72
1
11
1984.72
21
1176.8375
31
0
73
2
0
TEXT
8
UNIT_NUMBER
10
1984.72
20
1151.8375
30
0
40
20
1
447x1833.7
72
1
11
1984.72
21
1151.8375
31
0
73
2
0
ENDSEC
0
EOF
