0
SECTION
2
HEADER
9
$ACADVER
1
AC1009
9
$INSBASE
10
0
20
0
30
0
9
$EXTMIN
10
0
20
0
30
0
9
$EXTMAX
10
447
20
2150
30
0
0
ENDSEC
0
SECTION
2
TABLES
0
TABLE
2
LAYER
70
6
0
LAYER
2
0
70
0
62
7
6
CONTINUOUS
0
LAYER
2
OUTLINE
70
0
62
7
6
CONTINUOUS
0
LAYER
2
SHAKER_PANEL_POCKET
70
0
62
41
6
CONTINUOUS
0
LAYER
2
FRONT_HINGES_35MM
70
0
62
3
6
CONTINUOUS
0
LAYER
2
FRONT_HINGES_3MM
70
0
62
30
6
CONTINUOUS
0
LAYER
2
UNIT_NUMBER
70
0
62
94
6
CONTINUOUS
0
ENDTAB
0
ENDSEC
0
SECTION
2
ENTITIES
0
POLYLINE
8
OUTLINE
66
1
70
1
10
0
20
0
30
0
0
VERTEX
8
OUTLINE
10
0
20
0
30
0
0
VERTEX
8
OUTLINE
10
447
20
0
30
0
0
VERTEX
8
OUTLINE
10
447
20
2150
30
0
0
VERTEX
8
OUTLINE
10
0
20
2150
30
0
0
SEQEND
8
OUTLINE
0
POLYLINE
8
SHAKER_PANEL_POCKET
66
1
70
1
10
0
20
0
30
0
0
VERTEX
8
SHAKER_PANEL_POCKET
10
60
20
2090
30
0
0
VERTEX
8
SHAKER_PANEL_POCKET
10
387
20
2090
30
0
0
VERTEX
8
SHAKER_PANEL_POCKET
10
387
20
60
30
0
0
VERTEX
8
SHAKER_PANEL_POCKET
10
60
20
60
30
0
0
SEQEND
8
SHAKER_PANEL_POCKET
0
CIRCLE
8
FRONT_HINGES_35MM
10
425.5
20
100
30
0
40
17.5
0
CIRCLE
8
FRONT_HINGES_3MM
10
416
20
123
30
0
40
1.5
0
CIRCLE
8
FRONT_HINGES_3MM
10
416
20
77
30
0
40
1.5
0
CIRCLE
8
FRONT_HINGES_35MM
10
425.5
20
490
30
0
40
17.5
0
CIRCLE
8
FRONT_HINGES_3MM
10
416
20
513
30
0
40
1.5
0
CIRCLE
8
FRONT_HINGES_3MM
10
416
20
467
30
0
40
1.5
0
CIRCLE
8
FRONT_HINGES_35MM
10
425.5
20
880
30
0
40
17.5
0
CIRCLE
8
FRONT_HINGES_3MM
10
416
20
903
30
0
40
1.5
0
CIRCLE
8
FRONT_HINGES_3MM
10
416
20
857
30
0
40
1.5
0
CIRCLE
8
FRONT_HINGES_35MM
10
425.5
20
1270
30
0
40
17.5
0
CIRCLE
8
FRONT_HINGES_3MM
10
416
20
1293
30
0
40
1.5
0
CIRCLE
8
FRONT_HINGES_3MM
10
416
20
1247
30
0
40
1.5
0
CIRCLE
8
FRONT_HINGES_35MM
10
425.5
20
1660
30
0
40
17.5
0
CIRCLE
8
FRONT_HINGES_3MM
10
416
20
1683
30
0
40
1.5
0
CIRCLE
8
FRONT_HINGES_3MM
10
416
20
1637
30
0
40
1.5
0
CIRCLE
8
FRONT_HINGES_35MM
10
425.5
20
2050
30
0
40
17.5
0
CIRCLE
8
FRONT_HINGES_3MM
10
416
20
2073
30
0
40
1.5
0
CIRCLE
8
FRONT_HINGES_3MM
10
416
20
2027
30
0
40
1.5
0
TEXT
8
UNIT_NUMBER
10
223.5
20
1087.5
30
0
40
20
1
W02 FL
72
1
11
223.5
21
1087.5
31
0
73
2
0
TEXT
8
UNIT_NUMBER
10
223.5
20
1062.5
30
0
40
20
1
447x2150
72
1
11
223.5
21
1062.5
31
0
73
2
0
ENDSEC
0
EOF
