0
SECTION
2
HEADER
9
$ACADVER
1
AC1009
9
$INSBASE
10
0
20
0
30
0
9
$EXTMIN
10
-18
20
-18
30
0
9
$EXTMAX
10
540
20
882
30
0
0
ENDSEC
0
SECTION
2
TABLES
0
TABLE
2
LAYER
70
4
0
LAYER
2
0
70
0
62
7
6
CONTINUOUS
0
LAYER
2
OUTLINE
70
0
62
7
6
CONTINUOUS
0
LAYER
2
PUZZLE_DOG_BONES
70
0
62
2
6
CONTINUOUS
0
LAYER
2
UNIT_NUMBER
70
0
62
94
6
CONTINUOUS
0
ENDTAB
0
ENDSEC
0
SECTION
2
ENTITIES
0
POLYLINE
8
OUTLINE
66
1
70
1
10
0
20
0
30
0
0
VERTEX
8
OUTLINE
10
0
20
0
30
0
0
VERTEX
8
OUTLINE
10
70
20
0
30
0
0
VERTEX
8
OUTLINE
10
76
20
0
30
0
0
VERTEX
8
OUTLINE
10
76
20
-13
30
0
0
VERTEX
8
OUTLINE
10
70
20
-13
30
0
0
VERTEX
8
OUTLINE
10
70
20
-18
30
0
0
VERTEX
8
OUTLINE
10
120
20
-18
30
0
0
VERTEX
8
OUTLINE
10
120
20
-13
30
0
0
VERTEX
8
OUTLINE
10
114
20
-13
30
0
0
VERTEX
8
OUTLINE
10
114
20
0
30
0
0
VERTEX
8
OUTLINE
10
120
20
0
30
0
0
VERTEX
8
OUTLINE
10
420
20
0
30
0
0
VERTEX
8
OUTLINE
10
426
20
0
30
0
0
VERTEX
8
OUTLINE
10
426
20
-13
30
0
0
VERTEX
8
OUTLINE
10
420
20
-13
30
0
0
VERTEX
8
OUTLINE
10
420
20
-18
30
0
0
VERTEX
8
OUTLINE
10
470
20
-18
30
0
0
VERTEX
8
OUTLINE
10
470
20
-13
30
0
0
VERTEX
8
OUTLINE
10
464
20
-13
30
0
0
VERTEX
8
OUTLINE
10
464
20
0
30
0
0
VERTEX
8
OUTLINE
10
470
20
0
30
0
0
VERTEX
8
OUTLINE
10
540
20
0
30
0
0
VERTEX
8
OUTLINE
10
540
20
864
30
0
0
VERTEX
8
OUTLINE
10
470
20
864
30
0
0
VERTEX
8
OUTLINE
10
464
20
864
30
0
0
VERTEX
8
OUTLINE
10
464
20
877
30
0
0
VERTEX
8
OUTLINE
10
470
20
877
30
0
0
VERTEX
8
OUTLINE
10
470
20
882
30
0
0
VERTEX
8
OUTLINE
10
420
20
882
30
0
0
VERTEX
8
OUTLINE
10
420
20
877
30
0
0
VERTEX
8
OUTLINE
10
426
20
877
30
0
0
VERTEX
8
OUTLINE
10
426
20
864
30
0
0
VERTEX
8
OUTLINE
10
420
20
864
30
0
0
VERTEX
8
OUTLINE
10
120
20
864
30
0
0
VERTEX
8
OUTLINE
10
114
20
864
30
0
0
VERTEX
8
OUTLINE
10
114
20
877
30
0
0
VERTEX
8
OUTLINE
10
120
20
877
30
0
0
VERTEX
8
OUTLINE
10
120
20
882
30
0
0
VERTEX
8
OUTLINE
10
70
20
882
30
0
0
VERTEX
8
OUTLINE
10
70
20
877
30
0
0
VERTEX
8
OUTLINE
10
76
20
877
30
0
0
VERTEX
8
OUTLINE
10
76
20
864
30
0
0
VERTEX
8
OUTLINE
10
70
20
864
30
0
0
VERTEX
8
OUTLINE
10
0
20
864
30
0
0
VERTEX
8
OUTLINE
10
0
20
794
30
0
0
VERTEX
8
OUTLINE
10
0
20
788
30
0
0
VERTEX
8
OUTLINE
10
-13
20
788
30
0
0
VERTEX
8
OUTLINE
10
-13
20
794
30
0
0
VERTEX
8
OUTLINE
10
-18
20
794
30
0
0
VERTEX
8
OUTLINE
10
-18
20
744
30
0
0
VERTEX
8
OUTLINE
10
-13
20
744
30
0
0
VERTEX
8
OUTLINE
10
-13
20
750
30
0
0
VERTEX
8
OUTLINE
10
0
20
750
30
0
0
VERTEX
8
OUTLINE
10
0
20
744
30
0
0
VERTEX
8
OUTLINE
10
0
20
120
30
0
0
VERTEX
8
OUTLINE
10
0
20
114
30
0
0
VERTEX
8
OUTLINE
10
-13
20
114
30
0
0
VERTEX
8
OUTLINE
10
-13
20
120
30
0
0
VERTEX
8
OUTLINE
10
-18
20
120
30
0
0
VERTEX
8
OUTLINE
10
-18
20
70
30
0
0
VERTEX
8
OUTLINE
10
-13
20
70
30
0
0
VERTEX
8
OUTLINE
10
-13
20
76
30
0
0
VERTEX
8
OUTLINE
10
0
20
76
30
0
0
VERTEX
8
OUTLINE
10
0
20
70
30
0
0
SEQEND
8
OUTLINE
0
POLYLINE
8
PUZZLE_DOG_BONES
66
1
70
1
10
0
20
0
30
0
0
VERTEX
8
PUZZLE_DOG_BONES
10
65
20
864
30
0
0
VERTEX
8
PUZZLE_DOG_BONES
10
125
20
864
30
0
0
VERTEX
8
PUZZLE_DOG_BONES
10
125
20
882
30
0
0
VERTEX
8
PUZZLE_DOG_BONES
10
65
20
882
30
0
0
SEQEND
8
PUZZLE_DOG_BONES
0
POLYLINE
8
PUZZLE_DOG_BONES
66
1
70
1
10
0
20
0
30
0
0
VERTEX
8
PUZZLE_DOG_BONES
10
65
20
-18
30
0
0
VERTEX
8
PUZZLE_DOG_BONES
10
125
20
-18
30
0
0
VERTEX
8
PUZZLE_DOG_BONES
10
125
20
0
30
0
0
VERTEX
8
PUZZLE_DOG_BONES
10
65
20
0
30
0
0
SEQEND
8
PUZZLE_DOG_BONES
0
POLYLINE
8
PUZZLE_DOG_BONES
66
1
70
1
10
0
20
0
30
0
0
VERTEX
8
PUZZLE_DOG_BONES
10
415
20
864
30
0
0
VERTEX
8
PUZZLE_DOG_BONES
10
475
20
864
30
0
0
VERTEX
8
PUZZLE_DOG_BONES
10
475
20
882
30
0
0
VERTEX
8
PUZZLE_DOG_BONES
10
415
20
882
30
0
0
SEQEND
8
PUZZLE_DOG_BONES
0
POLYLINE
8
PUZZLE_DOG_BONES
66
1
70
1
10
0
20
0
30
0
0
VERTEX
8
PUZZLE_DOG_BONES
10
415
20
-18
30
0
0
VERTEX
8
PUZZLE_DOG_BONES
10
475
20
-18
30
0
0
VERTEX
8
PUZZLE_DOG_BONES
10
475
20
0
30
0
0
VERTEX
8
PUZZLE_DOG_BONES
10
415
20
0
30
0
0
SEQEND
8
PUZZLE_DOG_BONES
0
POLYLINE
8
PUZZLE_DOG_BONES
66
1
70
1
10
0
20
0
30
0
0
VERTEX
8
PUZZLE_DOG_BONES
10
-18
20
65
30
0
0
VERTEX
8
PUZZLE_DOG_BONES
10
0
20
65
30
0
0
VERTEX
8
PUZZLE_DOG_BONES
10
0
20
125
30
0
0
VERTEX
8
PUZZLE_DOG_BONES
10
-18
20
125
30
0
0
SEQEND
8
PUZZLE_DOG_BONES
0
POLYLINE
8
PUZZLE_DOG_BONES
66
1
70
1
10
0
20
0
30
0
0
VERTEX
8
PUZZLE_DOG_BONES
10
-18
20
739
30
0
0
VERTEX
8
PUZZLE_DOG_BONES
10
0
20
739
30
0
0
VERTEX
8
PUZZLE_DOG_BONES
10
0
20
799
30
0
0
VERTEX
8
PUZZLE_DOG_BONES
10
-18
20
799
30
0
0
SEQEND
8
PUZZLE_DOG_BONES
0
TEXT
8
UNIT_NUMBER
10
270
20
457
30
0
40
20
1
W02
72
1
11
270
21
457
31
0
73
2
0
TEXT
8
UNIT_NUMBER
10
270
20
432
30
0
40
20
1
BOTTOM
72
1
11
270
21
432
31
0
73
2
0
TEXT
8
UNIT_NUMBER
10
270
20
407
30
0
40
20
1
864x540
72
1
11
270
21
407
31
0
73
2
0
ENDSEC
0
EOF
