0
SECTION
2
HEADER
9
$ACADVER
1
AC1009
9
$INSBASE
10
0
20
0
30
0
9
$EXTMIN
10
0
20
0
30
0
9
$EXTMAX
10
447
20
1833.675
30
0
0
ENDSEC
0
SECTION
2
TABLES
0
TABLE
2
LAYER
70
6
0
LAYER
2
0
70
0
62
7
6
CONTINUOUS
0
LAYER
2
OUTLINE
70
0
62
7
6
CONTINUOUS
0
LAYER
2
SHAKER_PANEL_POCKET
70
0
62
41
6
CONTINUOUS
0
LAYER
2
FRONT_HINGES_35MM
70
0
62
3
6
CONTINUOUS
0
LAYER
2
FRONT_HINGES_3MM
70
0
62
30
6
CONTINUOUS
0
LAYER
2
UNIT_NUMBER
70
0
62
94
6
CONTINUOUS
0
ENDTAB
0
ENDSEC
0
SECTION
2
ENTITIES
0
POLYLINE
8
OUTLINE
66
1
70
1
10
0
20
0
30
0
0
VERTEX
8
OUTLINE
10
0
20
0
30
0
0
VERTEX
8
OUTLINE
10
447
20
0
30
0
0
VERTEX
8
OUTLINE
10
447
20
1833.675
30
0
0
VERTEX
8
OUTLINE
10
0
20
1587.825
30
0
0
SEQEND
8
OUTLINE
0
POLYLINE
8
SHAKER_PANEL_POCKET
66
1
70
1
10
0
20
0
30
0
0
VERTEX
8
SHAKER_PANEL_POCKET
10
60
20
1732.1987
30
0
0
VERTEX
8
SHAKER_PANEL_POCKET
10
387
20
1732.1987
30
0
0
VERTEX
8
SHAKER_PANEL_POCKET
10
387
20
60
30
0
0
VERTEX
8
SHAKER_PANEL_POCKET
10
60
20
60
30
0
0
SEQEND
8
SHAKER_PANEL_POCKET
0
CIRCLE
8
FRONT_HINGES_35MM
10
425.5
20
100
30
0
40
17.5
0
CIRCLE
8
FRONT_HINGES_3MM
10
416
20
123
30
0
40
1.5
0
CIRCLE
8
FRONT_HINGES_3MM
10
416
20
77
30
0
40
1.5
0
CIRCLE
8
FRONT_HINGES_35MM
10
425.5
20
426.735
30
0
40
17.5
0
CIRCLE
8
FRONT_HINGES_3MM
10
416
20
449.735
30
0
40
1.5
0
CIRCLE
8
FRONT_HINGES_3MM
10
416
20
403.735
30
0
40
1.5
0
CIRCLE
8
FRONT_HINGES_35MM
10
425.5
20
753.47
30
0
40
17.5
0
CIRCLE
8
FRONT_HINGES_3MM
10
416
20
776.47
30
0
40
1.5
0
CIRCLE
8
FRONT_HINGES_3MM
10
416
20
730.47
30
0
40
1.5
0
CIRCLE
8
FRONT_HINGES_35MM
10
425.5
20
1080.205
30
0
40
17.5
0
CIRCLE
8
FRONT_HINGES_3MM
10
416
20
1103.205
30
0
40
1.5
0
CIRCLE
8
FRONT_HINGES_3MM
10
416
20
1057.205
30
0
40
1.5
0
CIRCLE
8
FRONT_HINGES_35MM
10
425.5
20
1406.94
30
0
40
17.5
0
CIRCLE
8
FRONT_HINGES_3MM
10
416
20
1429.94
30
0
40
1.5
0
CIRCLE
8
FRONT_HINGES_3MM
10
416
20
1383.94
30
0
40
1.5
0
CIRCLE
8
FRONT_HINGES_35MM
10
425.5
20
1733.675
30
0
40
17.5
0
CIRCLE
8
FRONT_HINGES_3MM
10
416
20
1756.675
30
0
40
1.5
0
CIRCLE
8
FRONT_HINGES_3MM
10
416
20
1710.675
30
0
40
1.5
0
TEXT
8
UNIT_NUMBER
10
223.5
20
929.3375
30
0
40
20
1
W02 FR
72
1
11
223.5
21
929.3375
31
0
73
2
0
TEXT
8
UNIT_NUMBER
10
223.5
20
904.3375
30
0
40
20
1
447x1833.7
72
1
11
223.5
21
904.3375
31
0
73
2
0
ENDSEC
0
EOF
