0
SECTION
2
HEADER
9
$ACADVER
1
AC1009
9
$INSBASE
10
0
20
0
30
0
9
$EXTMIN
10
0
20
0
30
0
9
$EXTMAX
10
742
20
80
30
0
0
ENDSEC
0
SECTION
2
TABLES
0
TABLE
2
LAYER
70
4
0
LAYER
2
0
70
0
62
7
6
CONTINUOUS
0
LAYER
2
OUTLINE
70
0
62
7
6
CONTINUOUS
0
LAYER
2
UNIT_NUMBER
70
0
62
94
6
CONTINUOUS
0
LAYER
2
SHOE_GROOVE_6MM
70
0
62
1
6
CONTINUOUS
0
ENDTAB
0
ENDSEC
0
SECTION
2
ENTITIES
0
POLYLINE
8
OUTLINE
66
1
70
1
10
0
20
0
30
0
0
VERTEX
8
OUTLINE
10
0
20
0
30
0
0
VERTEX
8
OUTLINE
10
742
20
0
30
0
0
VERTEX
8
OUTLINE
10
742
20
80
30
0
0
VERTEX
8
OUTLINE
10
0
20
80
30
0
0
SEQEND
8
OUTLINE
0
POLYLINE
8
SHOE_GROOVE_6MM
66
1
70
1
10
0
20
0
30
0
0
VERTEX
8
SHOE_GROOVE_6MM
10
0
20
52.67
30
0
0
VERTEX
8
SHOE_GROOVE_6MM
10
742
20
52.67
30
0
0
VERTEX
8
SHOE_GROOVE_6MM
10
742
20
70.87
30
0
0
VERTEX
8
SHOE_GROOVE_6MM
10
0
20
70.87
30
0
0
SEQEND
8
SHOE_GROOVE_6MM
0
TEXT
8
UNIT_NUMBER
10
371
20
40
30
0
40
9.6
1
W02 SHOE1-BK 742x80
72
1
11
371
21
40
31
0
73
2
0
ENDSEC
0
EOF
